<svg width="40" height="41" viewBox="0 0 40 41" fill="none" xmlns="http://www.w3.org/2000/svg">
<rect y="0.5" width="40" height="40" rx="20" fill="#F4F2FA"/>
<g clip-path="url(#clip0_2228_2675)">
<path d="M20 10.5C25.523 10.5 30 14.977 30 20.5C30 26.023 25.523 30.5 20 30.5C14.477 30.5 10 26.023 10 20.5C10 14.977 14.477 10.5 20 10.5ZM24.596 15.904C24.392 15.699 24.07 15.671 23.833 15.837C20.943 17.865 19.313 19.067 18.939 19.439C18.354 20.025 18.354 20.975 18.939 21.561C19.525 22.146 20.475 22.146 21.061 21.561C21.28 21.341 22.479 19.71 24.659 16.664C24.827 16.43 24.8 16.108 24.596 15.904ZM25.5 19.5C24.948 19.5 24.5 19.948 24.5 20.5C24.5 21.052 24.948 21.5 25.5 21.5C26.052 21.5 26.5 21.052 26.5 20.5C26.5 19.948 26.052 19.5 25.5 19.5ZM14.5 19.5C13.948 19.5 13.5 19.948 13.5 20.5C13.5 21.052 13.948 21.5 14.5 21.5C15.052 21.5 15.5 21.052 15.5 20.5C15.5 19.948 15.052 19.5 14.5 19.5ZM16.818 15.904C16.428 15.514 15.794 15.514 15.404 15.904C15.014 16.294 15.014 16.927 15.404 17.318C15.794 17.708 16.427 17.708 16.818 17.318C17.208 16.928 17.208 16.294 16.818 15.904ZM20 14C19.448 14 19 14.448 19 15C19 15.552 19.448 16 20 16C20.552 16 21 15.552 21 15C21 14.448 20.552 14 20 14Z" fill="#05058C"/>
</g>
<defs>
<clipPath id="clip0_2228_2675">
<rect width="24" height="24" fill="white" transform="translate(8 8.5)"/>
</clipPath>
</defs>
</svg>
