<svg width="40" height="41" viewBox="0 0 40 41" fill="none" xmlns="http://www.w3.org/2000/svg">
<g clip-path="url(#clip0_2238_2972)">
<rect width="40" height="40" transform="translate(0 0.5)" fill="white"/>
<path d="M36.75 29.3375C37.2193 28.5802 37.4778 27.7113 37.4986 26.8206C37.5195 25.93 37.302 25.0499 36.8686 24.2715C36.4352 23.4931 35.8018 22.8446 35.0337 22.3931C34.2657 21.9417 33.3909 21.7036 32.5 21.7036C31.6091 21.7036 30.7343 21.9417 29.9663 22.3931C29.1982 22.8446 28.5648 23.4931 28.1314 24.2715C27.698 25.0499 27.4805 25.93 27.5014 26.8206C27.5222 27.7113 27.7807 28.5802 28.25 29.3375C26.9843 30.2068 26.0191 31.447 25.4875 32.8875C25.1143 32.4888 24.6947 32.1363 24.2375 31.8375C24.7068 31.0802 24.9653 30.2113 24.9861 29.3206C25.007 28.43 24.7895 27.5499 24.3561 26.7715C23.9227 25.9931 23.2893 25.3446 22.5212 24.8931C21.7532 24.4417 20.8784 24.2036 19.9875 24.2036C19.0966 24.2036 18.2218 24.4417 17.4538 24.8931C16.6857 25.3446 16.0523 25.9931 15.6189 26.7715C15.1855 27.5499 14.968 28.43 14.9889 29.3206C15.0097 30.2113 15.2682 31.0802 15.7375 31.8375C15.2848 32.1376 14.8658 32.4854 14.4875 32.875C13.9699 31.4372 13.0119 30.1993 11.75 29.3375C12.2193 28.5802 12.4778 27.7113 12.4986 26.8206C12.5195 25.93 12.302 25.0499 11.8686 24.2715C11.4353 23.4931 10.8018 22.8446 10.0337 22.3931C9.26565 21.9417 8.39092 21.7036 7.5 21.7036C6.60908 21.7036 5.73435 21.9417 4.96629 22.3931C4.19823 22.8446 3.56475 23.4931 3.13139 24.2715C2.69802 25.0499 2.48052 25.93 2.50137 26.8206C2.52222 27.7113 2.78068 28.5802 3.25 29.3375C2.25015 30.0252 1.43209 30.9451 0.866015 32.0185C0.299943 33.0919 0.00276949 34.2865 0 35.5L0 36.75C0 37.0815 0.131696 37.3995 0.366117 37.6339C0.600537 37.8683 0.918479 38 1.25 38H3.75C4.08152 38 4.39946 37.8683 4.63388 37.6339C4.8683 37.3995 5 37.0815 5 36.75C5 36.4185 4.8683 36.1006 4.63388 35.8661C4.39946 35.6317 4.08152 35.5 3.75 35.5H2.5C2.50102 34.6014 2.74418 33.7197 3.20392 32.9476C3.66365 32.1755 4.32296 31.5416 5.1125 31.1125C5.83852 31.5245 6.65899 31.7411 7.49375 31.7411C8.32851 31.7411 9.14898 31.5245 9.875 31.1125C10.674 31.5313 11.3419 32.1626 11.8051 32.9368C12.2683 33.7109 12.5087 34.5979 12.5 35.5H8.75C8.41848 35.5 8.10054 35.6317 7.86612 35.8661C7.6317 36.1006 7.5 36.4185 7.5 36.75C7.5 37.0815 7.6317 37.3995 7.86612 37.6339C8.10054 37.8683 8.41848 38 8.75 38H12.5V39.25C12.5 39.5815 12.6317 39.8995 12.8661 40.1339C13.1005 40.3683 13.4185 40.5 13.75 40.5H26.25C26.5815 40.5 26.8995 40.3683 27.1339 40.1339C27.3683 39.8995 27.5 39.5815 27.5 39.25V38H38.75C39.0815 38 39.3995 37.8683 39.6339 37.6339C39.8683 37.3995 40 37.0815 40 36.75V35.5C40.0048 34.2852 39.7108 33.0877 39.1441 32.0132C38.5774 30.9386 37.7552 30.0197 36.75 29.3375V29.3375ZM5 26.75C5 26.2556 5.14662 25.7722 5.42133 25.3611C5.69603 24.95 6.08648 24.6295 6.54329 24.4403C7.00011 24.2511 7.50277 24.2016 7.98773 24.2981C8.47268 24.3945 8.91814 24.6326 9.26777 24.9823C9.6174 25.3319 9.8555 25.7773 9.95196 26.2623C10.0484 26.7473 9.99892 27.2499 9.8097 27.7067C9.62048 28.1636 9.30005 28.554 8.88893 28.8287C8.4778 29.1034 7.99445 29.25 7.5 29.25C6.83696 29.25 6.20107 28.9866 5.73223 28.5178C5.26339 28.049 5 27.4131 5 26.75V26.75ZM20 26.75C20.4945 26.75 20.9778 26.8966 21.3889 27.1714C21.8 27.4461 22.1205 27.8365 22.3097 28.2933C22.4989 28.7501 22.5484 29.2528 22.452 29.7378C22.3555 30.2227 22.1174 30.6682 21.7678 31.0178C21.4181 31.3674 20.9727 31.6055 20.4877 31.702C20.0028 31.7985 19.5001 31.7489 19.0433 31.5597C18.5865 31.3705 18.196 31.0501 17.9213 30.639C17.6466 30.2278 17.5 29.7445 17.5 29.25C17.5 28.587 17.7634 27.9511 18.2322 27.4823C18.7011 27.0134 19.337 26.75 20 26.75ZM15 38C15.001 37.1014 15.2442 36.2197 15.7039 35.4476C16.1637 34.6755 16.823 34.0416 17.6125 33.6125C18.3385 34.0245 19.159 34.2411 19.9937 34.2411C20.8285 34.2411 21.649 34.0245 22.375 33.6125C23.174 34.0313 23.8419 34.6626 24.3051 35.4368C24.7683 36.2109 25.0087 37.0979 25 38H15ZM32.5 24.25C32.9945 24.25 33.4778 24.3966 33.8889 24.6714C34.3 24.9461 34.6205 25.3365 34.8097 25.7933C34.9989 26.2501 35.0484 26.7528 34.952 27.2378C34.8555 27.7227 34.6174 28.1682 34.2678 28.5178C33.9181 28.8674 33.4727 29.1055 32.9877 29.202C32.5028 29.2985 32.0001 29.2489 31.5433 29.0597C31.0865 28.8705 30.696 28.5501 30.4213 28.139C30.1466 27.7278 30 27.2445 30 26.75C30 26.087 30.2634 25.4511 30.7322 24.9823C31.2011 24.5134 31.837 24.25 32.5 24.25V24.25ZM27.5 35.5C27.501 34.6014 27.7442 33.7197 28.2039 32.9476C28.6637 32.1755 29.323 31.5416 30.1125 31.1125C30.8385 31.5245 31.659 31.7411 32.4938 31.7411C33.3285 31.7411 34.149 31.5245 34.875 31.1125C35.674 31.5313 36.3419 32.1626 36.8051 32.9368C37.2683 33.7109 37.5087 34.5979 37.5 35.5H27.5Z" fill="#000033"/>
<path d="M24.7254 2.17498C23.9431 1.54442 23.0421 1.07748 22.0759 0.801859C21.1097 0.526241 20.098 0.447575 19.1008 0.570529C18.1036 0.693484 17.1412 1.01555 16.2709 1.51761C15.4006 2.01968 14.64 2.69149 14.0343 3.49318C13.4287 4.29486 12.9903 5.21007 12.7452 6.18447C12.5 7.15886 12.4532 8.17257 12.6074 9.16542C12.7617 10.1583 13.1138 11.11 13.643 11.9641C14.1721 12.8182 14.8675 13.5573 15.6879 14.1375C15.8774 14.2833 16.028 14.4737 16.1261 14.6918C16.2243 14.9099 16.267 15.1489 16.2504 15.3875V18C16.2504 18.9945 16.6454 19.9484 17.3487 20.6516C18.052 21.3549 19.0058 21.75 20.0004 21.75C20.9949 21.75 21.9487 21.3549 22.652 20.6516C23.3553 19.9484 23.7504 18.9945 23.7504 18V15.3C23.7699 15.0492 23.8465 14.8062 23.9743 14.5895C24.1021 14.3729 24.2778 14.1883 24.4879 14.05C25.4101 13.3676 26.1635 12.4828 26.6901 11.4635C27.2167 10.4443 27.5025 9.31786 27.5254 8.17086C27.5484 7.02385 27.3079 5.88687 26.8224 4.8474C26.337 3.80793 25.6196 2.89368 24.7254 2.17498ZM21.2504 18C21.2504 18.3315 21.1187 18.6494 20.8842 18.8839C20.6498 19.1183 20.3319 19.25 20.0004 19.25C19.6688 19.25 19.3509 19.1183 19.1165 18.8839C18.8821 18.6494 18.7504 18.3315 18.7504 18V16.75H21.2504V18ZM22.9879 12C22.2283 12.5576 21.6711 13.3475 21.4004 14.25H18.6129C18.3937 13.3735 17.8655 12.6056 17.1254 12.0875C16.2602 11.4808 15.6095 10.6156 15.2667 9.61609C14.9238 8.61659 14.9064 7.53416 15.217 6.52416C15.5276 5.51416 16.1502 4.62852 16.9954 3.99435C17.8406 3.36019 18.865 3.01009 19.9215 2.99432C20.9781 2.97855 22.0125 3.29792 22.8762 3.90658C23.74 4.51524 24.3887 5.3819 24.7293 6.38218C25.0699 7.38246 25.0848 8.46493 24.772 9.47422C24.4591 10.4835 23.8345 11.3677 22.9879 12V12Z" fill="#05058C"/>
<path d="M8.75 9.25H6.25C5.91848 9.25 5.60054 9.1183 5.36612 8.88388C5.1317 8.64946 5 8.33152 5 8C5 7.66848 5.1317 7.35054 5.36612 7.11612C5.60054 6.8817 5.91848 6.75 6.25 6.75H8.75C9.08152 6.75 9.39946 6.8817 9.63388 7.11612C9.8683 7.35054 10 7.66848 10 8C10 8.33152 9.8683 8.64946 9.63388 8.88388C9.39946 9.1183 9.08152 9.25 8.75 9.25Z" fill="#000033"/>
<path d="M10.0002 4.24999C9.33773 4.24999 9.16273 3.92499 7.86273 2.63749C7.62735 2.40211 7.49512 2.08286 7.49512 1.74999C7.49512 1.41711 7.62735 1.09787 7.86273 0.862488C8.09811 0.627108 8.41735 0.494873 8.75023 0.494873C9.08311 0.494873 9.40235 0.627108 9.63773 0.862488L10.8877 2.11249C11.064 2.28733 11.1842 2.5107 11.2331 2.75414C11.2819 2.99757 11.2572 3.25003 11.1619 3.47934C11.0667 3.70864 10.9054 3.9044 10.6985 4.04165C10.4916 4.1789 10.2485 4.25143 10.0002 4.24999V4.24999Z" fill="#000033"/>
<path d="M8.75043 15.5C8.50215 15.5014 8.25907 15.4289 8.05217 15.2917C7.84527 15.1544 7.68393 14.9586 7.58872 14.7293C7.49351 14.5 7.46875 14.2476 7.51758 14.0041C7.56642 13.7607 7.68665 13.5373 7.86293 13.3625L9.11293 12.1125C9.34831 11.8771 9.66756 11.7449 10.0004 11.7449C10.3333 11.7449 10.6526 11.8771 10.8879 12.1125C11.1233 12.3479 11.2555 12.6671 11.2555 13C11.2555 13.3329 11.1233 13.6521 10.8879 13.8875C9.56293 15.2125 9.40043 15.5 8.75043 15.5Z" fill="#000033"/>
<path d="M33.75 9.25H31.25C30.9185 9.25 30.6005 9.1183 30.3661 8.88388C30.1317 8.64946 30 8.33152 30 8C30 7.66848 30.1317 7.35054 30.3661 7.11612C30.6005 6.8817 30.9185 6.75 31.25 6.75H33.75C34.0815 6.75 34.3995 6.8817 34.6339 7.11612C34.8683 7.35054 35 7.66848 35 8C35 8.33152 34.8683 8.64946 34.6339 8.88388C34.3995 9.1183 34.0815 9.25 33.75 9.25Z" fill="#000033"/>
<path d="M30.0004 4.24999C29.7522 4.25143 29.5091 4.1789 29.3022 4.04165C29.0953 3.9044 28.9339 3.70864 28.8387 3.47934C28.7435 3.25003 28.7187 2.99757 28.7676 2.75414C28.8164 2.5107 28.9366 2.28733 29.1129 2.11249L30.3629 0.862488C30.5983 0.627108 30.9176 0.494873 31.2504 0.494873C31.5833 0.494873 31.9026 0.627108 32.1379 0.862488C32.3733 1.09787 32.5055 1.41711 32.5055 1.74999C32.5055 2.08286 32.3733 2.40211 32.1379 2.63749C30.8129 3.96249 30.6504 4.24999 30.0004 4.24999Z" fill="#000033"/>
<path d="M31.2502 15.5C30.5877 15.5 30.4127 15.175 29.1127 13.8875C28.9962 13.7709 28.9037 13.6326 28.8407 13.4803C28.7776 13.328 28.7451 13.1648 28.7451 13C28.7451 12.6671 28.8774 12.3479 29.1127 12.1125C29.3481 11.8771 29.6674 11.7449 30.0002 11.7449C30.1651 11.7449 30.3283 11.7773 30.4805 11.8404C30.6328 11.9035 30.7712 11.9959 30.8877 12.1125L32.1377 13.3625C32.314 13.5373 32.4342 13.7607 32.4831 14.0041C32.5319 14.2476 32.5072 14.5 32.4119 14.7293C32.3167 14.9586 32.1554 15.1544 31.9485 15.2917C31.7416 15.4289 31.4985 15.5014 31.2502 15.5Z" fill="#000033"/>
</g>
<defs>
<clipPath id="clip0_2238_2972">
<rect width="40" height="40" fill="white" transform="translate(0 0.5)"/>
</clipPath>
</defs>
</svg>
