<svg width="40" height="41" viewBox="0 0 40 41" fill="none" xmlns="http://www.w3.org/2000/svg">
<path d="M34.6378 33.375L30.5629 29.25C32.3588 27.1295 33.4701 24.5146 33.7503 21.75H37.5003C37.8319 21.75 38.1498 21.6183 38.3842 21.3839C38.6187 21.1494 38.7503 20.8315 38.7503 20.5C38.7503 20.1685 38.6187 19.8505 38.3842 19.6161C38.1498 19.3817 37.8319 19.25 37.5003 19.25H33.7503C33.488 16.4923 32.3987 13.8781 30.6253 11.75L34.6378 7.62498C35.436 8.00721 36.3436 8.09485 37.2001 7.8724C38.0567 7.64996 38.8069 7.13177 39.3183 6.40948C39.8296 5.68719 40.0689 4.80735 39.9941 3.92557C39.9192 3.0438 39.5349 2.21691 38.9092 1.59115C38.2834 0.9654 37.4565 0.581107 36.5748 0.506246C35.693 0.431384 34.8131 0.670776 34.0909 1.18208C33.3686 1.69339 32.8504 2.44366 32.6279 3.30019C32.4055 4.15673 32.4931 5.06434 32.8753 5.86248L28.7503 9.93748C26.6222 8.1641 24.0081 7.07487 21.2503 6.81248V2.99998C21.2503 2.66846 21.1187 2.35052 20.8842 2.1161C20.6498 1.88168 20.3319 1.74998 20.0003 1.74998C19.6688 1.74998 19.3509 1.88168 19.1165 2.1161C18.882 2.35052 18.7503 2.66846 18.7503 2.99998V6.81248C15.9926 7.07487 13.3785 8.1641 11.2503 9.93748L7.12535 5.86248C7.50757 5.06434 7.59521 4.15673 7.37277 3.30019C7.15033 2.44366 6.63213 1.69339 5.90985 1.18208C5.18756 0.670776 4.30772 0.431384 3.42594 0.506246C2.54416 0.581107 1.71727 0.9654 1.09152 1.59115C0.465766 2.21691 0.0814737 3.0438 0.00661174 3.92557C-0.0682502 4.80735 0.171142 5.68719 0.682448 6.40948C1.19375 7.13177 1.94402 7.64996 2.80056 7.8724C3.6571 8.09485 4.5647 8.00721 5.36285 7.62498L9.43785 11.75C7.66447 13.8781 6.57523 16.4923 6.31285 19.25H2.50035C2.16883 19.25 1.85089 19.3817 1.61647 19.6161C1.38205 19.8505 1.25035 20.1685 1.25035 20.5C1.25035 20.8315 1.38205 21.1494 1.61647 21.3839C1.85089 21.6183 2.16883 21.75 2.50035 21.75H6.32535C6.57132 24.5072 7.65281 27.1237 9.42535 29.25L5.36285 33.375C4.5647 32.9928 3.6571 32.9051 2.80056 33.1276C1.94402 33.35 1.19375 33.8682 0.682448 34.5905C0.171142 35.3128 -0.0682502 36.1926 0.00661174 37.0744C0.0814737 37.9562 0.465766 38.7831 1.09152 39.4088C1.71727 40.0346 2.54416 40.4189 3.42594 40.4937C4.30772 40.5686 5.18756 40.3292 5.90985 39.8179C6.63213 39.3066 7.15033 38.5563 7.37277 37.6998C7.59521 36.8432 7.50757 35.9356 7.12535 35.1375L11.2503 31.05C11.4378 31.2 11.6003 31.3625 11.7878 31.5C11.9192 31.5985 12.0686 31.6701 12.2276 31.7109C12.3866 31.7516 12.5521 31.7606 12.7146 31.7374C12.8771 31.7142 13.0335 31.6592 13.1747 31.5756C13.316 31.4919 13.4394 31.3813 13.5378 31.25C13.6363 31.1187 13.708 30.9692 13.7487 30.8102C13.7895 30.6512 13.7985 30.4857 13.7753 30.3232C13.7521 30.1607 13.6971 30.0044 13.6134 29.8631C13.5298 29.7219 13.4192 29.5985 13.2878 29.5C11.8779 28.4615 10.7324 27.1056 9.94411 25.542C9.1558 23.9784 8.74683 22.2511 8.75035 20.5C8.75082 18.1785 9.46947 15.914 10.8077 14.017C12.146 12.1201 14.0383 10.6836 16.2252 9.90459C18.4121 9.12558 20.7865 9.04218 23.0226 9.66584C25.2588 10.2895 27.2472 11.5897 28.7153 13.388C30.1833 15.1864 31.0591 17.3949 31.2225 19.7107C31.3858 22.0264 30.8288 24.336 29.6277 26.3226C28.4266 28.3093 26.6404 29.8757 24.5139 30.8071C22.3875 31.7385 20.0249 31.9893 17.7503 31.525C17.5862 31.4922 17.4172 31.492 17.253 31.5245C17.0887 31.557 16.9325 31.6215 16.7932 31.7143C16.654 31.8072 16.5343 31.9266 16.4412 32.0657C16.348 32.2048 16.2832 32.3608 16.2503 32.525C16.2175 32.6891 16.2173 32.8582 16.2498 33.0224C16.2823 33.1866 16.3468 33.3428 16.4397 33.4821C16.5325 33.6214 16.6519 33.741 16.791 33.8342C16.9301 33.9273 17.0862 33.9922 17.2503 34.025C17.7503 34.125 18.2503 34.1875 18.7503 34.2375V38C18.7503 38.3315 18.882 38.6495 19.1165 38.8839C19.3509 39.1183 19.6688 39.25 20.0003 39.25C20.3319 39.25 20.6498 39.1183 20.8842 38.8839C21.1187 38.6495 21.2503 38.3315 21.2503 38V34.25C24.0081 33.9876 26.6222 32.8984 28.7503 31.125L32.8379 35.2C32.4556 35.9981 32.368 36.9057 32.5904 37.7623C32.8129 38.6188 33.3311 39.3691 34.0534 39.8804C34.7756 40.3917 35.6555 40.6311 36.5373 40.5562C37.419 40.4814 38.2459 40.0971 38.8717 39.4713C39.4974 38.8456 39.8817 38.0187 39.9566 37.1369C40.0315 36.2551 39.7921 35.3753 39.2808 34.653C38.7694 33.9307 38.0192 33.4125 37.1626 33.1901C36.3061 32.9676 35.3985 33.0553 34.6004 33.4375L34.6378 33.375ZM3.75035 38C3.54478 38.0008 3.34218 37.951 3.16048 37.8549C2.97878 37.7587 2.8236 37.6192 2.70868 37.4488C2.59376 37.2783 2.52265 37.0822 2.50165 36.8777C2.48065 36.6732 2.5104 36.4667 2.58828 36.2764C2.66616 36.0862 2.78976 35.9181 2.94812 35.787C3.10648 35.656 3.29473 35.566 3.49618 35.525C3.69763 35.4841 3.90607 35.4935 4.10303 35.5523C4.29999 35.6112 4.47939 35.7177 4.62535 35.8625V35.8625C4.80088 36.0366 4.92084 36.2588 4.97007 36.5011C5.0193 36.7433 4.99559 36.9948 4.90193 37.2236C4.80828 37.4523 4.64888 37.6482 4.4439 37.7864C4.23892 37.9246 3.99757 37.999 3.75035 38V38ZM36.2503 2.99998C36.4559 2.99912 36.6585 3.04897 36.8402 3.14512C37.0219 3.24126 37.1771 3.38073 37.292 3.55118C37.4069 3.72162 37.4781 3.91778 37.4991 4.12227C37.5201 4.32677 37.4903 4.53328 37.4124 4.72353C37.3345 4.91377 37.2109 5.08187 37.0526 5.21294C36.8942 5.34401 36.706 5.434 36.5045 5.47494C36.3031 5.51587 36.0946 5.5065 35.8977 5.44763C35.7007 5.38877 35.5213 5.28224 35.3753 5.13748V5.13748C35.1998 4.96339 35.0799 4.74117 35.0306 4.4989C34.9814 4.25663 35.0051 4.00521 35.0988 3.77642C35.1924 3.54763 35.3518 3.35175 35.5568 3.21354C35.7618 3.07534 36.0031 3.00102 36.2503 2.99998V2.99998ZM2.50035 4.24998C2.49949 4.04442 2.54934 3.84181 2.64548 3.66011C2.74163 3.47841 2.8811 3.32323 3.05154 3.20831C3.22199 3.09339 3.41815 3.02228 3.62264 3.00128C3.82713 2.98028 4.03365 3.01004 4.22389 3.08792C4.41414 3.16579 4.58224 3.28939 4.71331 3.44775C4.84438 3.60612 4.93436 3.79436 4.9753 3.99582C5.01624 4.19727 5.00686 4.4057 4.948 4.60266C4.88914 4.79962 4.78261 4.97903 4.63785 5.12498C4.46376 5.30051 4.24153 5.42047 3.99927 5.46971C3.757 5.51894 3.50557 5.49523 3.27678 5.40157C3.04799 5.30791 2.85211 5.14852 2.71391 4.94354C2.5757 4.73856 2.50139 4.4972 2.50035 4.24998V4.24998ZM36.2503 38C36.0046 37.999 35.7647 37.9256 35.5604 37.7889C35.3562 37.6523 35.1968 37.4585 35.1021 37.2317C35.0074 37.005 34.9816 36.7554 35.028 36.5141C35.0744 36.2728 35.1908 36.0505 35.3629 35.875V35.875C35.5073 35.7277 35.6859 35.6184 35.8828 35.5568C36.0798 35.4953 36.2889 35.4835 36.4915 35.5225C36.6941 35.5614 36.8839 35.6499 37.044 35.78C37.2041 35.9102 37.3295 36.0779 37.409 36.2683C37.4885 36.4586 37.5196 36.6657 37.4996 36.8711C37.4797 37.0764 37.4092 37.2736 37.2944 37.4451C37.1797 37.6166 37.0243 37.757 36.8422 37.8538C36.66 37.9506 36.4567 38.0008 36.2503 38V38Z" fill="#000033"/>
</svg>
