<svg width="40" height="41" viewBox="0 0 40 41" fill="none" xmlns="http://www.w3.org/2000/svg">
<g clip-path="url(#clip0_2238_2978)">
<rect width="40" height="40" transform="translate(0 0.5)" fill="white"/>
<path d="M22.5 21.75H21.25C19.9239 21.75 18.6521 21.2232 17.7145 20.2855C16.7768 19.3479 16.25 18.0761 16.25 16.75C16.25 15.4239 16.7768 14.1521 17.7145 13.2145C18.6521 12.2768 19.9239 11.75 21.25 11.75H22.5C22.8315 11.75 23.1495 11.8817 23.3839 12.1161C23.6183 12.3505 23.75 12.6685 23.75 13C23.75 13.3315 23.6183 13.6495 23.3839 13.8839C23.1495 14.1183 22.8315 14.25 22.5 14.25H21.25C20.587 14.25 19.9511 14.5134 19.4822 14.9822C19.0134 15.4511 18.75 16.087 18.75 16.75C18.75 17.413 19.0134 18.0489 19.4822 18.5178C19.9511 18.9866 20.587 19.25 21.25 19.25H22.5C22.8315 19.25 23.1495 19.3817 23.3839 19.6161C23.6183 19.8505 23.75 20.1685 23.75 20.5C23.75 20.8315 23.6183 21.1495 23.3839 21.3839C23.1495 21.6183 22.8315 21.75 22.5 21.75Z" fill="#05058C"/>
<path d="M27.5 0.5H12.5C11.837 0.5 11.2011 0.763392 10.7322 1.23223C10.2634 1.70107 10 2.33696 10 3V5.5C10.0026 5.93628 10.1194 6.36428 10.3387 6.74146C10.558 7.11864 10.8722 7.43186 11.25 7.65V31.75C11.25 34.0706 12.1719 36.2962 13.8128 37.9372C15.4538 39.5781 17.6794 40.5 20 40.5C22.3206 40.5 24.5462 39.5781 26.1872 37.9372C27.8281 36.2962 28.75 34.0706 28.75 31.75V11.75C28.75 11.4185 28.6183 11.1005 28.3839 10.8661C28.1495 10.6317 27.8315 10.5 27.5 10.5C27.1685 10.5 26.8505 10.6317 26.6161 10.8661C26.3817 11.1005 26.25 11.4185 26.25 11.75V28C23.3125 28 21.25 27.75 18.6875 29.4625C17.2035 30.3494 15.4655 30.7146 13.75 30.5V8H27.5C28.163 8 28.7989 7.73661 29.2678 7.26777C29.7366 6.79893 30 6.16304 30 5.5V3C30 2.33696 29.7366 1.70107 29.2678 1.23223C28.7989 0.763392 28.163 0.5 27.5 0.5V0.5ZM20.0625 31.5375C22 30.25 23.6375 30.5 26.25 30.5V31.75C26.2516 33.2999 25.6771 34.7952 24.6383 35.9454C23.5994 37.0957 22.1702 37.8189 20.6281 37.9746C19.086 38.1304 17.5411 37.7076 16.2932 36.7884C15.0453 35.8691 14.1834 34.5189 13.875 33C16.0438 33.2305 18.2264 32.7146 20.0625 31.5375ZM12.5 5.5V3H27.5V5.5H12.5Z" fill="#05058C"/>
</g>
<defs>
<clipPath id="clip0_2238_2978">
<rect width="40" height="40" fill="white" transform="translate(0 0.5)"/>
</clipPath>
</defs>
</svg>
