<svg width="40" height="41" viewBox="0 0 40 41" fill="none" xmlns="http://www.w3.org/2000/svg">
<rect width="40" height="40" transform="translate(0 0.5)" fill="white"/>
<path d="M30 18H21.25V13C21.25 12.6685 21.1183 12.3505 20.8839 12.1161C20.6495 11.8817 20.3315 11.75 20 11.75C19.6685 11.75 19.3505 11.8817 19.1161 12.1161C18.8817 12.3505 18.75 12.6685 18.75 13V18H10C9.00544 18 8.05161 18.3951 7.34835 19.0983C6.64509 19.8016 6.25 20.7554 6.25 21.75V28C6.25 28.3315 6.3817 28.6495 6.61612 28.8839C6.85054 29.1183 7.16848 29.25 7.5 29.25C7.83152 29.25 8.14946 29.1183 8.38388 28.8839C8.6183 28.6495 8.75 28.3315 8.75 28V21.75C8.75 21.4185 8.8817 21.1005 9.11612 20.8661C9.35054 20.6317 9.66848 20.5 10 20.5H30C30.3315 20.5 30.6495 20.6317 30.8839 20.8661C31.1183 21.1005 31.25 21.4185 31.25 21.75V28C31.25 28.3315 31.3817 28.6495 31.6161 28.8839C31.8505 29.1183 32.1685 29.25 32.5 29.25C32.8315 29.25 33.1495 29.1183 33.3839 28.8839C33.6183 28.6495 33.75 28.3315 33.75 28V21.75C33.75 20.7554 33.3549 19.8016 32.6517 19.0983C31.9484 18.3951 30.9946 18 30 18Z" fill="#05058C"/>
<path d="M26.25 31.75H13.75C13.4185 31.75 13.1005 31.8817 12.8661 32.1161C12.6317 32.3505 12.5 32.6685 12.5 33C12.5 33.3315 12.6317 33.6495 12.8661 33.8839C13.1005 34.1183 13.4185 34.25 13.75 34.25H26.25C26.5815 34.25 26.8995 34.1183 27.1339 33.8839C27.3683 33.6495 27.5 33.3315 27.5 33C27.5 32.6685 27.3683 32.3505 27.1339 32.1161C26.8995 31.8817 26.5815 31.75 26.25 31.75Z" fill="#05058C"/>
<path d="M25 14.25H15C14.337 14.25 13.7011 13.9866 13.2322 13.5178C12.7634 13.0489 12.5 12.413 12.5 11.75V4.25C12.5 3.58696 12.7634 2.95107 13.2322 2.48223C13.7011 2.01339 14.337 1.75 15 1.75H25C25.663 1.75 26.2989 2.01339 26.7678 2.48223C27.2366 2.95107 27.5 3.58696 27.5 4.25V5.5C27.5 5.83152 27.3683 6.14946 27.1339 6.38388C26.8995 6.6183 26.5815 6.75 26.25 6.75C25.9185 6.75 25.6005 6.6183 25.3661 6.38388C25.1317 6.14946 25 5.83152 25 5.5V4.25H15V11.75H25V10.5C25 10.1685 25.1317 9.85054 25.3661 9.61612C25.6005 9.3817 25.9185 9.25 26.25 9.25C26.5815 9.25 26.8995 9.3817 27.1339 9.61612C27.3683 9.85054 27.5 10.1685 27.5 10.5V11.75C27.5 12.413 27.2366 13.0489 26.7678 13.5178C26.2989 13.9866 25.663 14.25 25 14.25Z" fill="#000033"/>
<path d="M12.5 39.25H2.5C1.83696 39.25 1.20107 38.9866 0.732233 38.5178C0.263392 38.0489 0 37.413 0 36.75V29.25C0 28.587 0.263392 27.9511 0.732233 27.4822C1.20107 27.0134 1.83696 26.75 2.5 26.75H12.5C13.163 26.75 13.7989 27.0134 14.2678 27.4822C14.7366 27.9511 15 28.587 15 29.25V36.75C15 37.413 14.7366 38.0489 14.2678 38.5178C13.7989 38.9866 13.163 39.25 12.5 39.25ZM2.5 29.25V36.75H12.5V29.25H2.5Z" fill="#000033"/>
<path d="M37.5 39.25H27.5C26.837 39.25 26.2011 38.9866 25.7322 38.5178C25.2634 38.0489 25 37.413 25 36.75V29.25C25 28.587 25.2634 27.9511 25.7322 27.4822C26.2011 27.0134 26.837 26.75 27.5 26.75H37.5C38.163 26.75 38.7989 27.0134 39.2678 27.4822C39.7366 27.9511 40 28.587 40 29.25V36.75C40 37.413 39.7366 38.0489 39.2678 38.5178C38.7989 38.9866 38.163 39.25 37.5 39.25ZM27.5 29.25V36.75H37.5V29.25H27.5Z" fill="#000033"/>
<path d="M21.25 9.25H18.75C18.4185 9.25 18.1005 9.1183 17.8661 8.88388C17.6317 8.64946 17.5 8.33152 17.5 8C17.5 7.66848 17.6317 7.35054 17.8661 7.11612C18.1005 6.8817 18.4185 6.75 18.75 6.75H21.25C21.5815 6.75 21.8995 6.8817 22.1339 7.11612C22.3683 7.35054 22.5 7.66848 22.5 8C22.5 8.33152 22.3683 8.64946 22.1339 8.88388C21.8995 9.1183 21.5815 9.25 21.25 9.25Z" fill="#05058C"/>
<path d="M8.75 34.25H6.25C5.91848 34.25 5.60054 34.1183 5.36612 33.8839C5.1317 33.6495 5 33.3315 5 33C5 32.6685 5.1317 32.3505 5.36612 32.1161C5.60054 31.8817 5.91848 31.75 6.25 31.75H8.75C9.08152 31.75 9.39946 31.8817 9.63388 32.1161C9.8683 32.3505 10 32.6685 10 33C10 33.3315 9.8683 33.6495 9.63388 33.8839C9.39946 34.1183 9.08152 34.25 8.75 34.25Z" fill="#05058C"/>
<path d="M33.75 34.25H31.25C30.9185 34.25 30.6005 34.1183 30.3661 33.8839C30.1317 33.6495 30 33.3315 30 33C30 32.6685 30.1317 32.3505 30.3661 32.1161C30.6005 31.8817 30.9185 31.75 31.25 31.75H33.75C34.0815 31.75 34.3995 31.8817 34.6339 32.1161C34.8683 32.3505 35 32.6685 35 33C35 33.3315 34.8683 33.6495 34.6339 33.8839C34.3995 34.1183 34.0815 34.25 33.75 34.25Z" fill="#05058C"/>
</svg>
