<svg width="40" height="41" viewBox="0 0 40 41" fill="none" xmlns="http://www.w3.org/2000/svg">
<g clip-path="url(#clip0_2238_2984)">
<rect width="40" height="40" transform="translate(0 0.5)" fill="white"/>
<path d="M36.25 18C35.9185 18 35.6005 18.1317 35.3661 18.3661C35.1317 18.6005 35 18.9185 35 19.25V36.75C35 37.0815 34.8683 37.3995 34.6339 37.6339C34.3995 37.8683 34.0815 38 33.75 38H13.75C13.4185 38 13.1005 37.8683 12.8661 37.6339C12.6317 37.3995 12.5 37.0815 12.5 36.75V9.25C12.5 8.91848 12.6317 8.60054 12.8661 8.36612C13.1005 8.1317 13.4185 8 13.75 8H27.5V14.25C27.5 14.5815 27.6317 14.8995 27.8661 15.1339C28.1005 15.3683 28.4185 15.5 28.75 15.5H36.25C36.4983 15.5014 36.7414 15.4289 36.9483 15.2917C37.1552 15.1544 37.3165 14.9587 37.4117 14.7294C37.5069 14.5 37.5317 14.2476 37.4829 14.0041C37.434 13.7607 37.3138 13.5373 37.1375 13.3625L30 6.2375V4.25C30 3.25544 29.6049 2.30161 28.9017 1.59835C28.1984 0.895088 27.2446 0.5 26.25 0.5L6.25 0.5C5.25544 0.5 4.30161 0.895088 3.59835 1.59835C2.89509 2.30161 2.5 3.25544 2.5 4.25V31.75C2.5 32.7446 2.89509 33.6984 3.59835 34.4016C4.30161 35.1049 5.25544 35.5 6.25 35.5H10V36.75C10 37.7446 10.3951 38.6984 11.0983 39.4016C11.8016 40.1049 12.7554 40.5 13.75 40.5H33.75C34.7446 40.5 35.6984 40.1049 36.4017 39.4016C37.1049 38.6984 37.5 37.7446 37.5 36.75V19.25C37.5 18.9185 37.3683 18.6005 37.1339 18.3661C36.8995 18.1317 36.5815 18 36.25 18ZM30 13V9.7625L33.2375 13H30ZM6.25 33C5.91848 33 5.60054 32.8683 5.36612 32.6339C5.1317 32.3995 5 32.0815 5 31.75V4.25C5 3.91848 5.1317 3.60054 5.36612 3.36612C5.60054 3.1317 5.91848 3 6.25 3H26.25C26.5815 3 26.8995 3.1317 27.1339 3.36612C27.3683 3.60054 27.5 3.91848 27.5 4.25V5.5H13.75C12.7554 5.5 11.8016 5.89509 11.0983 6.59835C10.3951 7.30161 10 8.25544 10 9.25V33H6.25Z" fill="#000033"/>
<path d="M23.75 18C22.0194 18 20.3277 18.5132 18.8888 19.4746C17.4498 20.4361 16.3283 21.8027 15.6661 23.4015C15.0038 25.0004 14.8305 26.7597 15.1681 28.457C15.5058 30.1544 16.3391 31.7135 17.5628 32.9372C18.7865 34.1609 20.3456 34.9942 22.043 35.3319C23.7403 35.6695 25.4996 35.4962 27.0985 34.8339C28.6973 34.1717 30.0639 33.0502 31.0254 31.6112C31.9868 30.1723 32.5 28.4806 32.5 26.75C32.5 24.4294 31.5781 22.2038 29.9372 20.5628C28.2962 18.9219 26.0706 18 23.75 18ZM28.9625 30.1875L25 26.2375V20.625C26.0006 20.8302 26.9356 21.2775 27.7233 21.9278C28.5109 22.578 29.1272 23.4114 29.5182 24.355C29.9092 25.2986 30.063 26.3236 29.9662 27.3404C29.8693 28.3572 29.5247 29.3347 28.9625 30.1875ZM17.5 26.75C17.4997 25.3092 17.9972 23.9125 18.9084 22.7964C19.8195 21.6802 21.0883 20.9132 22.5 20.625V26.75C22.4991 26.9145 22.5306 27.0776 22.5928 27.2299C22.655 27.3822 22.7467 27.5207 22.8625 27.6375L27.1875 31.9625C26.2457 32.5827 25.1537 32.9366 24.0272 32.9866C22.9007 33.0366 21.7816 32.7809 20.7886 32.2466C19.7956 31.7123 18.9656 30.9193 18.3866 29.9516C17.8077 28.9839 17.5013 27.8776 17.5 26.75Z" fill="#05058C"/>
</g>
<defs>
<clipPath id="clip0_2238_2984">
<rect width="40" height="40" fill="white" transform="translate(0 0.5)"/>
</clipPath>
</defs>
</svg>
