<svg width="40" height="41" viewBox="0 0 40 41" fill="none" xmlns="http://www.w3.org/2000/svg">
<g clip-path="url(#clip0_2238_2861)">
<rect width="40" height="40" transform="translate(0 0.5)" fill="white"/>
<path d="M14.6624 39.775C14.3659 39.6673 14.1211 39.4515 13.9771 39.1708C13.833 38.8901 13.8005 38.5654 13.8859 38.2617C13.9713 37.958 14.1684 37.6978 14.4376 37.5334C14.7068 37.3689 15.0283 37.3123 15.3374 37.375C17.8376 38.073 20.4618 38.2061 23.0198 37.7646C25.5777 37.3231 28.0054 36.3181 30.127 34.8223C32.2485 33.3266 34.0107 31.3776 35.286 29.1167C36.5612 26.8557 37.3174 24.3394 37.4999 21.75H34.9999C34.7511 24.5945 33.6956 27.3089 31.9574 29.5742C30.2192 31.8395 27.8706 33.5617 25.1874 34.5383C22.5043 35.5149 19.5981 35.7054 16.8105 35.0874C14.0228 34.4694 11.4694 33.0686 9.4504 31.0495C7.43136 29.0305 6.03054 26.4771 5.41255 23.6895C4.79455 20.9018 4.98505 17.9957 5.96166 15.3125C6.93827 12.6294 8.66042 10.2807 10.9257 8.54252C13.1911 6.80432 15.9055 5.74881 18.7499 5.5V3C15.0564 3.24726 11.5364 4.65939 8.69604 7.03337C5.85569 9.40735 3.84129 12.6209 2.94249 16.2119C2.04369 19.8029 2.30678 23.5865 3.69394 27.0186C5.0811 30.4507 7.52086 33.3545 10.6624 35.3125C10.8022 35.3993 10.9234 35.5128 11.0192 35.6466C11.115 35.7804 11.1834 35.9317 11.2206 36.092C11.2577 36.2522 11.2629 36.4182 11.2358 36.5805C11.2086 36.7427 11.1497 36.8981 11.0624 37.0375C10.9746 37.1762 10.8604 37.2963 10.7261 37.3908C10.5919 37.4854 10.4404 37.5526 10.2802 37.5886C10.12 37.6246 9.95432 37.6286 9.79256 37.6006C9.6308 37.5725 9.47615 37.5128 9.33745 37.425C5.66664 35.1139 2.8467 31.672 1.30282 27.6184C-0.241053 23.5647 -0.425173 19.1189 0.778228 14.9515C1.98163 10.784 4.50731 7.12076 7.97445 4.51406C11.4416 1.90736 15.6622 0.49853 19.9999 0.500001C20.3315 0.500001 20.6494 0.631697 20.8838 0.866118C21.1183 1.10054 21.2499 1.41848 21.2499 1.75V6.75C21.2499 7.08152 21.1183 7.39946 20.8838 7.63388C20.6494 7.8683 20.3315 8 19.9999 8C17.5277 8 15.1109 8.73311 13.0553 10.1066C10.9997 11.4801 9.39755 13.4324 8.45145 15.7165C7.50536 18.0005 7.25782 20.5139 7.74013 22.9386C8.22245 25.3634 9.41296 27.5907 11.1611 29.3388C12.9093 31.087 15.1366 32.2775 17.5613 32.7598C19.9861 33.2421 22.4994 32.9946 24.7835 32.0485C27.0676 31.1024 29.0198 29.5002 30.3933 27.4446C31.7668 25.389 32.4999 22.9723 32.4999 20.5C32.4999 20.1685 32.6316 19.8505 32.8661 19.6161C33.1005 19.3817 33.4184 19.25 33.7499 19.25H38.7499C39.0815 19.25 39.3994 19.3817 39.6338 19.6161C39.8683 19.8505 39.9999 20.1685 39.9999 20.5C40 23.5819 39.2878 26.6221 37.919 29.3833C36.5502 32.1445 34.5618 34.5521 32.109 36.418C29.6562 38.284 26.8053 39.5578 23.7789 40.1401C20.7526 40.7224 17.6326 40.5975 14.6624 39.775Z" fill="#000033"/>
<path d="M20 30.5C17.3478 30.5 14.8043 29.4464 12.9289 27.5711C11.0536 25.6957 10 23.1522 10 20.5C10 20.1685 10.1317 19.8505 10.3661 19.6161C10.6005 19.3817 10.9185 19.25 11.25 19.25H16.25C16.5815 19.25 16.8995 19.3817 17.1339 19.6161C17.3683 19.8505 17.5 20.1685 17.5 20.5C17.5 20.9945 17.6466 21.4778 17.9213 21.8889C18.196 22.3 18.5865 22.6205 19.0433 22.8097C19.5001 22.9989 20.0028 23.0484 20.4877 22.952C20.9727 22.8555 21.4181 22.6174 21.7678 22.2678C22.1174 21.9181 22.3555 21.4727 22.452 20.9877C22.5484 20.5028 22.4989 20.0001 22.3097 19.5433C22.1205 19.0865 21.8 18.696 21.3889 18.4213C20.9778 18.1466 20.4945 18 20 18C19.6685 18 19.3505 17.8683 19.1161 17.6339C18.8817 17.3995 18.75 17.0815 18.75 16.75V11.75C18.75 11.4185 18.8817 11.1005 19.1161 10.8661C19.3505 10.6317 19.6685 10.5 20 10.5C22.6522 10.5 25.1957 11.5536 27.0711 13.4289C28.9464 15.3043 30 17.8478 30 20.5C30 23.1522 28.9464 25.6957 27.0711 27.5711C25.1957 29.4464 22.6522 30.5 20 30.5ZM12.6 21.75C12.8304 23.1066 13.4296 24.3737 14.332 25.4125C15.2345 26.4514 16.4053 27.2219 17.7163 27.6399C19.0274 28.0578 20.4282 28.1069 21.7653 27.782C23.1024 27.457 24.3244 26.7704 25.2974 25.7974C26.2704 24.8244 26.957 23.6024 27.282 22.2653C27.6069 20.9282 27.5578 19.5274 27.1399 18.2163C26.7219 16.9053 25.9514 15.7345 24.9125 14.832C23.8737 13.9296 22.6066 13.3304 21.25 13.1V15.6625C22.1042 15.8821 22.8851 16.3238 23.5135 16.9427C24.1419 17.5616 24.5954 18.3357 24.828 19.1864C25.0606 20.0372 25.064 20.9343 24.8379 21.7869C24.6118 22.6394 24.1642 23.4169 23.5406 24.0406C22.9169 24.6642 22.1394 25.1118 21.2869 25.3379C20.4343 25.564 19.5372 25.5606 18.6864 25.328C17.8357 25.0954 17.0616 24.6419 16.4427 24.0135C15.8238 23.3851 15.3821 22.6042 15.1625 21.75H12.6Z" fill="#05058C"/>
</g>
<defs>
<clipPath id="clip0_2238_2861">
<rect width="40" height="40" fill="white" transform="translate(0 0.5)"/>
</clipPath>
</defs>
</svg>
