<svg width="40" height="41" viewBox="0 0 40 41" fill="none" xmlns="http://www.w3.org/2000/svg">
<g clip-path="url(#clip0_2238_3083)">
<rect width="40" height="40" transform="translate(0 0.5)" fill="white"/>
<path d="M33.4625 16.2249C33.2004 16.0233 32.869 15.9338 32.541 15.976C32.213 16.0182 31.9151 16.1886 31.7125 16.4499L28.225 20.9124C27.3716 20.539 26.4296 20.416 25.5089 20.5576C24.5882 20.6993 23.7267 21.0998 23.025 21.7124L18.425 18.4874C18.737 17.6816 18.8347 16.8087 18.7088 15.9538C18.5829 15.0989 18.2376 14.2912 17.7065 13.6095C17.1754 12.9278 16.4768 12.3954 15.6786 12.0642C14.8805 11.733 14.0102 11.6143 13.1525 11.7197C12.2948 11.8251 11.4791 12.1509 10.7849 12.6655C10.0907 13.18 9.54164 13.8657 9.19137 14.6557C8.84111 15.4456 8.70155 16.3129 8.78631 17.1728C8.87107 18.0328 9.17725 18.8561 9.675 19.5624L7.2375 22.2999C6.47682 21.9193 5.6316 21.739 4.7818 21.7761C3.93199 21.8132 3.10571 22.0665 2.38111 22.512C1.65651 22.9576 1.05755 23.5806 0.640885 24.3222C0.224224 25.0637 0.00364006 25.8993 0 26.7499C0 27.0815 0.131696 27.3994 0.366117 27.6338C0.600537 27.8683 0.918479 27.9999 1.25 27.9999C1.58152 27.9999 1.89946 27.8683 2.13388 27.6338C2.3683 27.3994 2.5 27.0815 2.5 26.7499C2.5 26.2555 2.64662 25.7721 2.92133 25.361C3.19603 24.9499 3.58648 24.6295 4.04329 24.4402C4.50011 24.251 5.00277 24.2015 5.48773 24.298C5.97268 24.3944 6.41814 24.6325 6.76777 24.9822C7.1174 25.3318 7.3555 25.7773 7.45196 26.2622C7.54843 26.7472 7.49892 27.2498 7.3097 27.7067C7.12048 28.1635 6.80005 28.5539 6.38893 28.8286C5.9778 29.1033 5.49445 29.2499 5 29.2499C4.66848 29.2499 4.35054 29.3816 4.11612 29.6161C3.8817 29.8505 3.75 30.1684 3.75 30.4999C3.75 30.8315 3.8817 31.1494 4.11612 31.3838C4.35054 31.6183 4.66848 31.7499 5 31.7499C5.90823 31.7483 6.79886 31.4993 7.57626 31.0297C8.35366 30.5601 8.98847 29.8877 9.41254 29.0845C9.8366 28.2814 10.0339 27.3779 9.98324 26.4711C9.93258 25.5643 9.63588 24.6884 9.125 23.9374L11.5125 21.1999C12.3875 21.6475 13.3773 21.8201 14.3521 21.6952C15.3269 21.5703 16.2412 21.1536 16.975 20.4999L21.575 23.7249C21.2582 24.5396 21.1605 25.423 21.2916 26.2872C21.4226 27.1513 21.778 27.966 22.3221 28.6501C22.8663 29.3341 23.5802 29.8635 24.3928 30.1855C25.2054 30.5075 26.0882 30.6109 26.9532 30.4854C27.8182 30.3599 28.6351 30.0098 29.3226 29.47C30.0101 28.9303 30.5441 28.2197 30.8713 27.4092C31.1986 26.5988 31.3076 25.7166 31.1877 24.8509C31.0677 23.9851 30.7228 23.1659 30.1875 22.4749L33.75 17.9999C33.8505 17.8656 33.9229 17.7123 33.9629 17.5494C34.0029 17.3864 34.0097 17.2171 33.9829 17.0514C33.9561 16.8858 33.8962 16.7273 33.8068 16.5853C33.7174 16.4433 33.6003 16.3207 33.4625 16.2249ZM13.75 19.2499C13.2555 19.2499 12.7722 19.1033 12.3611 18.8286C11.95 18.5539 11.6295 18.1635 11.4403 17.7067C11.2511 17.2498 11.2016 16.7472 11.298 16.2622C11.3945 15.7773 11.6326 15.3318 11.9822 14.9822C12.3319 14.6325 12.7773 14.3944 13.2623 14.298C13.7472 14.2015 14.2499 14.251 14.7067 14.4402C15.1635 14.6295 15.554 14.9499 15.8287 15.361C16.1034 15.7721 16.25 16.2555 16.25 16.7499C16.25 17.413 15.9866 18.0489 15.5178 18.5177C15.0489 18.9866 14.413 19.2499 13.75 19.2499ZM26.25 27.9999C25.7555 27.9999 25.2722 27.8533 24.8611 27.5786C24.45 27.3039 24.1295 26.9135 23.9403 26.4567C23.7511 25.9998 23.7016 25.4972 23.798 25.0122C23.8945 24.5273 24.1326 24.0818 24.4822 23.7322C24.8319 23.3825 25.2773 23.1444 25.7623 23.048C26.2472 22.9515 26.7499 23.001 27.2067 23.1902C27.6635 23.3795 28.054 23.6999 28.3287 24.111C28.6034 24.5221 28.75 25.0055 28.75 25.4999C28.75 26.163 28.4866 26.7989 28.0178 27.2677C27.5489 27.7366 26.913 27.9999 26.25 27.9999Z" fill="#000033"/>
<path d="M35 19.25C34.0111 19.25 33.0444 18.9568 32.2222 18.4074C31.3999 17.8579 30.759 17.0771 30.3806 16.1634C30.0022 15.2498 29.9031 14.2445 30.0961 13.2746C30.289 12.3046 30.7652 11.4137 31.4645 10.7145C32.1637 10.0152 33.0546 9.539 34.0246 9.34608C34.9945 9.15315 35.9998 9.25217 36.9134 9.6306C37.8271 10.009 38.6079 10.6499 39.1574 11.4722C39.7068 12.2944 40 13.2611 40 14.25C40 15.5761 39.4732 16.8479 38.5355 17.7855C37.5979 18.7232 36.3261 19.25 35 19.25ZM35 11.75C34.5056 11.75 34.0222 11.8966 33.6111 12.1713C33.2 12.446 32.8795 12.8365 32.6903 13.2933C32.5011 13.7501 32.4516 14.2528 32.548 14.7377C32.6445 15.2227 32.8826 15.6681 33.2322 16.0178C33.5819 16.3674 34.0273 16.6055 34.5123 16.702C34.9972 16.7984 35.4999 16.7489 35.9567 16.5597C36.4135 16.3705 36.804 16.0501 37.0787 15.6389C37.3534 15.2278 37.5 14.7445 37.5 14.25C37.5 13.587 37.2366 12.9511 36.7678 12.4822C36.2989 12.0134 35.663 11.75 35 11.75Z" fill="#05058C"/>
</g>
<defs>
<clipPath id="clip0_2238_3083">
<rect width="40" height="40" fill="white" transform="translate(0 0.5)"/>
</clipPath>
</defs>
</svg>
