<svg width="40" height="40" viewBox="0 0 40 40" fill="none" xmlns="http://www.w3.org/2000/svg">
<g clip-path="url(#clip0_2213_6456)">
<path d="M34.212 30.0875L28.7495 27.9V26.25C30.987 25.425 32.4995 24.2126 32.4995 22.5001V16.2501C32.4735 15.7467 32.3271 15.257 32.0726 14.822C31.8182 14.387 31.463 14.0194 31.037 13.7501C31.463 13.4807 31.8182 13.1131 32.0726 12.6781C32.3271 12.2431 32.4735 11.7534 32.4995 11.2501V5.00005C32.4995 1.56255 26.0245 5.31702e-05 19.9995 5.31702e-05C18.6962 -0.00229042 17.3939 0.0728421 16.0995 0.225053C15.9361 0.243674 15.7779 0.29437 15.6341 0.374234C15.4903 0.454099 15.3637 0.561562 15.2615 0.690462C15.1593 0.819362 15.0836 0.967165 15.0386 1.1254C14.9936 1.28363 14.9804 1.44918 14.9995 1.61255C15.0402 1.94037 15.2089 2.23877 15.4689 2.44255C15.7289 2.64632 16.059 2.7389 16.387 2.70005C17.5867 2.56824 18.7926 2.50148 19.9995 2.50005C26.562 2.50005 29.9995 4.36255 29.9995 5.00005C29.9995 5.63755 26.562 7.50005 19.9995 7.50005C13.437 7.50005 9.99951 5.63755 9.99951 5.00005C9.99951 4.92505 10.2995 4.38755 11.7245 3.75005C11.8766 3.68711 12.0147 3.59477 12.131 3.47832C12.2472 3.36188 12.3394 3.22362 12.4021 3.07148C12.4648 2.91934 12.4968 2.75632 12.4964 2.59176C12.496 2.4272 12.463 2.26435 12.3995 2.11255C12.2723 1.80856 12.0302 1.5671 11.7259 1.44069C11.4216 1.31428 11.0797 1.31315 10.7745 1.43755C8.06201 2.60005 7.49951 4.01255 7.49951 5.00005V11.2501C7.52551 11.7534 7.6719 12.2431 7.92639 12.6781C8.18087 13.1131 8.53602 13.4807 8.96201 13.7501C8.53602 14.0194 8.18087 14.387 7.92639 14.822C7.6719 15.257 7.52551 15.7467 7.49951 16.2501V22.5001C7.49951 24.1626 9.01201 25.3751 11.2495 26.25V27.9501L5.78701 30.0875C5.55443 30.1802 5.35502 30.3405 5.21461 30.5478C5.07421 30.755 4.99927 30.9997 4.99951 31.25V33.75C4.99951 34.0816 5.13121 34.3995 5.36563 34.6339C5.60005 34.8684 5.91799 35 6.24951 35C6.58103 35 6.89898 34.8684 7.1334 34.6339C7.36782 34.3995 7.49951 34.0816 7.49951 33.75V32.1L12.962 29.9125C13.1946 29.8199 13.394 29.6596 13.5344 29.4523C13.6748 29.2451 13.7498 29.0004 13.7495 28.75V26.9001C15.3966 27.2386 17.0691 27.4393 18.7495 27.5V33.75C18.7495 34.0816 18.8812 34.3995 19.1156 34.6339C19.35 34.8684 19.668 35 19.9995 35C20.331 35 20.649 34.8684 20.8834 34.6339C21.1178 34.3995 21.2495 34.0816 21.2495 33.75V27.5C22.9293 27.4475 24.6017 27.2552 26.2495 26.9251V28.75C26.2493 29.0004 26.3242 29.2451 26.4646 29.4523C26.605 29.6596 26.8044 29.8199 27.037 29.9125L32.4995 32.1V33.75C32.4995 34.0816 32.6312 34.3995 32.8656 34.6339C33.1 34.8684 33.418 35 33.7495 35C34.081 35 34.399 34.8684 34.6334 34.6339C34.8678 34.3995 34.9995 34.0816 34.9995 33.75V31.25C34.9998 30.9997 34.9248 30.755 34.7844 30.5478C34.644 30.3405 34.4446 30.1802 34.212 30.0875V30.0875ZM29.9995 8.15005V11.2501C29.9995 11.8876 26.562 13.7501 19.9995 13.7501C13.437 13.7501 9.99951 11.8876 9.99951 11.2501V8.15005C14.787 10.6126 25.212 10.6126 29.9995 8.15005ZM28.3495 15.0876C29.687 15.6501 29.9995 16.1626 29.9995 16.2501C29.9995 16.8876 26.562 18.7501 19.9995 18.7501C13.437 18.7501 9.99951 16.8876 9.99951 16.2501C9.99951 16.1626 10.312 15.6501 11.6495 15.0876C17.1083 16.6373 22.8907 16.6373 28.3495 15.0876ZM9.99951 22.5001V19.4001C14.787 21.9001 25.212 21.9001 29.9995 19.4001V22.5001C29.9995 23.1376 26.562 25.0001 19.9995 25.0001C13.437 25.0001 9.99951 23.1376 9.99951 22.5001Z" fill="#000033"/>
<path d="M19.9995 40C19.2578 40 18.5328 39.7801 17.9161 39.368C17.2994 38.956 16.8188 38.3703 16.535 37.6851C16.2511 36.9998 16.1769 36.2458 16.3216 35.5184C16.4663 34.791 16.8234 34.1228 17.3479 33.5984C17.8723 33.0739 18.5405 32.7168 19.2679 32.5721C19.9954 32.4274 20.7494 32.5016 21.4346 32.7855C22.1198 33.0693 22.7055 33.5499 23.1175 34.1666C23.5296 34.7833 23.7495 35.5083 23.7495 36.25C23.7495 37.2446 23.3544 38.1984 22.6512 38.9017C21.9479 39.6049 20.9941 40 19.9995 40ZM19.9995 35C19.7523 35 19.5106 35.0733 19.3051 35.2107C19.0995 35.348 18.9393 35.5432 18.8447 35.7716C18.7501 36.0001 18.7253 36.2514 18.7735 36.4939C18.8218 36.7363 18.9408 36.9591 19.1156 37.1339C19.2904 37.3087 19.5132 37.4278 19.7557 37.476C19.9981 37.5242 20.2495 37.4995 20.4779 37.4049C20.7063 37.3102 20.9015 37.15 21.0389 36.9445C21.1762 36.7389 21.2495 36.4972 21.2495 36.25C21.2495 35.9185 21.1178 35.6005 20.8834 35.3661C20.649 35.1317 20.331 35 19.9995 35Z" fill="#05058C"/>
<path d="M6.25 40C5.50832 40 4.7833 39.7801 4.16661 39.368C3.54993 38.956 3.06928 38.3703 2.78545 37.6851C2.50162 36.9998 2.42736 36.2458 2.57206 35.5184C2.71675 34.791 3.0739 34.1228 3.59835 33.5984C4.1228 33.0739 4.79098 32.7168 5.51841 32.5721C6.24584 32.4274 6.99984 32.5016 7.68506 32.7855C8.37029 33.0693 8.95596 33.5499 9.36801 34.1666C9.78007 34.7833 10 35.5083 10 36.25C10 37.2446 9.60491 38.1984 8.90165 38.9017C8.19839 39.6049 7.24456 40 6.25 40ZM6.25 35C6.00278 35 5.7611 35.0733 5.55554 35.2107C5.34998 35.348 5.18976 35.5432 5.09515 35.7716C5.00054 36.0001 4.97579 36.2514 5.02402 36.4939C5.07225 36.7363 5.1913 36.9591 5.36612 37.1339C5.54093 37.3087 5.76366 37.4278 6.00614 37.476C6.24862 37.5242 6.49995 37.4995 6.72836 37.4049C6.95676 37.3102 7.15199 37.15 7.28934 36.9445C7.42669 36.7389 7.5 36.4972 7.5 36.25C7.5 35.9185 7.36831 35.6005 7.13389 35.3661C6.89946 35.1317 6.58152 35 6.25 35Z" fill="#05058C"/>
<path d="M33.75 40C33.0083 40 32.2833 39.7801 31.6666 39.368C31.0499 38.956 30.5693 38.3703 30.2855 37.6851C30.0016 36.9998 29.9274 36.2458 30.0721 35.5184C30.2168 34.791 30.5739 34.1228 31.0984 33.5984C31.6228 33.0739 32.291 32.7168 33.0184 32.5721C33.7458 32.4274 34.4998 32.5016 35.1851 32.7855C35.8703 33.0693 36.456 33.5499 36.868 34.1666C37.2801 34.7833 37.5 35.5083 37.5 36.25C37.5 37.2446 37.1049 38.1984 36.4017 38.9017C35.6984 39.6049 34.7446 40 33.75 40ZM33.75 35C33.5028 35 33.2611 35.0733 33.0555 35.2107C32.85 35.348 32.6898 35.5432 32.5952 35.7716C32.5005 36.0001 32.4758 36.2514 32.524 36.4939C32.5723 36.7363 32.6913 36.9591 32.8661 37.1339C33.0409 37.3087 33.2637 37.4278 33.5061 37.476C33.7486 37.5242 33.9999 37.4995 34.2284 37.4049C34.4568 37.3102 34.652 37.15 34.7893 36.9445C34.9267 36.7389 35 36.4972 35 36.25C35 35.9185 34.8683 35.6005 34.6339 35.3661C34.3995 35.1317 34.0815 35 33.75 35Z" fill="#05058C"/>
</g>
<defs>
<clipPath id="clip0_2213_6456">
<rect width="40" height="40" fill="white"/>
</clipPath>
</defs>
</svg>
