<svg width="40" height="40" viewBox="0 0 40 40" fill="none" xmlns="http://www.w3.org/2000/svg">
<g clip-path="url(#clip0_2213_6466)">
<path d="M39.8371 19.375C30.6871 3.5125 9.3121 3.4875 0.162097 19.375C0.0523867 19.565 -0.00537109 19.7806 -0.00537109 20C-0.00537109 20.2194 0.0523867 20.435 0.162097 20.625C0.687504 21.5316 1.26341 22.408 1.8871 23.25C1.98559 23.3813 2.10898 23.492 2.25023 23.5756C2.39148 23.6592 2.54782 23.7142 2.71032 23.7374C2.87282 23.7607 3.03831 23.7516 3.19732 23.7109C3.35634 23.6702 3.50578 23.5985 3.6371 23.5C3.76842 23.4015 3.87906 23.2781 3.96269 23.1369C4.04632 22.9956 4.10132 22.8393 4.12453 22.6768C4.14775 22.5143 4.13873 22.3488 4.09799 22.1898C4.05725 22.0308 3.98559 21.8813 3.8871 21.75C3.4746 21.2 3.0871 20.6125 2.6996 20C4.45425 17.0985 6.86993 14.6528 9.7496 12.8625C8.27668 14.9558 7.4862 17.4529 7.4862 20.0125C7.4862 22.5721 8.27668 25.0692 9.7496 27.1625C8.84006 26.6098 7.97494 25.9871 7.1621 25.3C7.03734 25.1933 6.89279 25.1122 6.7367 25.0614C6.58061 25.0105 6.41603 24.991 6.25237 25.0037C6.08871 25.0165 5.92916 25.0614 5.78284 25.1358C5.63652 25.2102 5.5063 25.3127 5.3996 25.4375C5.2929 25.5623 5.21182 25.7068 5.16098 25.8629C5.11015 26.019 5.09055 26.1836 5.10332 26.3472C5.11609 26.5109 5.16097 26.6704 5.23539 26.8168C5.30982 26.9631 5.41234 27.0933 5.5371 27.2C15.4121 35.6625 31.8621 34.4 39.8121 20.625C39.9256 20.4372 39.9877 20.2228 39.9921 20.0034C39.9965 19.7839 39.943 19.5672 39.8371 19.375ZM9.9996 20C9.9996 18.0222 10.5861 16.0888 11.6849 14.4443C12.7837 12.7998 14.3455 11.5181 16.1728 10.7612C18 10.0043 20.0107 9.8063 21.9505 10.1921C23.8903 10.578 25.6721 11.5304 27.0707 12.9289C28.4692 14.3275 29.4216 16.1093 29.8074 18.0491C30.1933 19.9889 29.9953 21.9996 29.2384 23.8268C28.4815 25.6541 27.1998 27.2159 25.5553 28.3147C23.9108 29.4135 21.9774 30 19.9996 30C17.3474 30 14.8039 28.9464 12.9285 27.0711C11.0532 25.1957 9.9996 22.6522 9.9996 20ZM30.2496 27.1375C31.7067 25.0426 32.4877 22.5518 32.4877 20C32.4877 17.4482 31.7067 14.9574 30.2496 12.8625C33.1293 14.6528 35.5449 17.0985 37.2996 20C35.5449 22.9015 33.1293 25.3472 30.2496 27.1375Z" fill="#000033"/>
<path d="M19.9995 5C19.668 5 19.35 4.8683 19.1156 4.63388C18.8812 4.39946 18.7495 4.08152 18.7495 3.75V1.25C18.7495 0.918479 18.8812 0.600537 19.1156 0.366117C19.35 0.131696 19.668 0 19.9995 0C20.331 0 20.649 0.131696 20.8834 0.366117C21.1178 0.600537 21.2495 0.918479 21.2495 1.25V3.75C21.2495 4.08152 21.1178 4.39946 20.8834 4.63388C20.649 4.8683 20.331 5 19.9995 5Z" fill="#000033"/>
<path d="M11.2502 6.24999C10.5877 6.24999 10.4127 5.92499 9.11273 4.63749C8.99618 4.52094 8.90373 4.38258 8.84066 4.2303C8.77758 4.07802 8.74512 3.91481 8.74512 3.74999C8.74512 3.58516 8.77758 3.42195 8.84066 3.26968C8.90373 3.1174 8.99618 2.97904 9.11273 2.86249C9.22928 2.74594 9.36764 2.65349 9.51992 2.59041C9.6722 2.52734 9.83541 2.49487 10.0002 2.49487C10.1651 2.49487 10.3283 2.52734 10.4805 2.59041C10.6328 2.65349 10.7712 2.74594 10.8877 2.86249L12.1377 4.11249C12.314 4.28733 12.4342 4.5107 12.4831 4.75414C12.5319 4.99757 12.5072 5.25003 12.4119 5.47934C12.3167 5.70864 12.1554 5.9044 11.9485 6.04165C11.7416 6.1789 11.4985 6.25143 11.2502 6.24999Z" fill="#000033"/>
<path d="M28.7499 6.24999C28.5017 6.25143 28.2586 6.1789 28.0517 6.04165C27.8448 5.9044 27.6834 5.70864 27.5882 5.47934C27.493 5.25003 27.4683 4.99757 27.5171 4.75414C27.5659 4.5107 27.6862 4.28733 27.8624 4.11249L29.1124 2.86249C29.3478 2.62711 29.6671 2.49487 29.9999 2.49487C30.3328 2.49487 30.6521 2.62711 30.8874 2.86249C31.1228 3.09787 31.2551 3.41711 31.2551 3.74999C31.2551 4.08286 31.1228 4.40211 30.8874 4.63749C29.5624 5.96249 29.3999 6.24999 28.7499 6.24999Z" fill="#000033"/>
<path d="M19.9995 40C19.668 40 19.35 39.8683 19.1156 39.6339C18.8812 39.3995 18.7495 39.0815 18.7495 38.75V36.25C18.7495 35.9185 18.8812 35.6005 19.1156 35.3661C19.35 35.1317 19.668 35 19.9995 35C20.331 35 20.649 35.1317 20.8834 35.3661C21.1178 35.6005 21.2495 35.9185 21.2495 36.25V38.75C21.2495 39.0815 21.1178 39.3995 20.8834 39.6339C20.649 39.8683 20.331 40 19.9995 40Z" fill="#000033"/>
<path d="M9.99995 37.5C9.75166 37.5014 9.50858 37.4289 9.30168 37.2917C9.09478 37.1544 8.93344 36.9586 8.83823 36.7293C8.74302 36.5 8.71826 36.2476 8.7671 36.0041C8.81593 35.7607 8.93616 35.5373 9.11245 35.3625L10.3624 34.1125C10.479 33.9959 10.6174 33.9035 10.7696 33.8404C10.9219 33.7773 11.0851 33.7449 11.2499 33.7449C11.4148 33.7449 11.578 33.7773 11.7303 33.8404C11.8825 33.9035 12.0209 33.9959 12.1374 34.1125C12.254 34.229 12.3464 34.3674 12.4095 34.5197C12.4726 34.672 12.5051 34.8352 12.5051 35C12.5051 35.1648 12.4726 35.328 12.4095 35.4803C12.3464 35.6326 12.254 35.7709 12.1374 35.8875C10.8124 37.2125 10.6499 37.5 9.99995 37.5Z" fill="#000033"/>
<path d="M29.9997 37.5C29.3372 37.5 29.1622 37.175 27.8622 35.8875C27.6269 35.6521 27.4946 35.3329 27.4946 35C27.4946 34.6671 27.6269 34.3479 27.8622 34.1125C28.0976 33.8771 28.4169 33.7449 28.7497 33.7449C29.0826 33.7449 29.4019 33.8771 29.6372 34.1125L30.8872 35.3625C31.0635 35.5373 31.1838 35.7607 31.2326 36.0041C31.2814 36.2476 31.2567 36.5 31.1615 36.7293C31.0662 36.9586 30.9049 37.1544 30.698 37.2917C30.4911 37.4289 30.248 37.5014 29.9997 37.5Z" fill="#000033"/>
<path d="M26.1622 16.4376C25.9497 15.8501 26.0372 16.0501 20.6622 12.6876C20.4635 12.5634 20.234 12.4976 19.9997 12.4976C19.7654 12.4976 19.5358 12.5634 19.3372 12.6876C13.9622 16.0501 14.0997 15.8751 13.8747 16.3501C13.6497 16.8251 13.7497 16.3501 13.7497 23.1251C13.7493 23.3375 13.803 23.5465 13.9058 23.7324C14.0086 23.9183 14.157 24.075 14.3372 24.1876C19.8747 27.6501 19.2372 27.2501 19.4497 27.3626C19.6184 27.4545 19.8075 27.5026 19.9997 27.5026C20.1918 27.5026 20.3809 27.4545 20.5497 27.3626C20.7872 27.2376 20.2247 27.5876 25.6622 24.1876C25.8423 24.075 25.9908 23.9183 26.0936 23.7324C26.1964 23.5465 26.2501 23.3375 26.2497 23.1251C26.2497 16.3376 26.2497 16.7751 26.1622 16.4376ZM19.9997 15.1876L22.6372 16.8376L19.9997 18.5251L17.3622 16.8751L19.9997 15.1876ZM16.2497 19.1251L18.7497 20.6876V24.0001L16.2497 22.5001V19.1251ZM21.2497 24.0001V20.6876L23.7497 19.1251V22.5001L21.2497 24.0001Z" fill="#05058C"/>
</g>
<defs>
<clipPath id="clip0_2213_6466">
<rect width="40" height="40" fill="white"/>
</clipPath>
</defs>
</svg>
