<svg width="40" height="41" viewBox="0 0 40 41" fill="none" xmlns="http://www.w3.org/2000/svg">
<g clip-path="url(#clip0_725_1154)">
<path d="M25.67 35.0781V23.4681H29.5583L30.14 18.9548H25.67V16.0748C25.67 14.7681 26.0333 13.8765 27.9067 13.8765H30.2967V9.83979C29.1397 9.71703 27.9768 9.6575 26.8133 9.66146C23.3683 9.66146 21.01 11.7648 21.01 15.6281V18.9548H17.1133V23.4681H21.01V35.0781H6.66667C6.22464 35.0781 5.80072 34.9025 5.48816 34.59C5.17559 34.2774 5 33.8535 5 33.4115V6.74479C5 6.30276 5.17559 5.87884 5.48816 5.56628C5.80072 5.25372 6.22464 5.07812 6.66667 5.07812H33.3333C33.7754 5.07812 34.1993 5.25372 34.5118 5.56628C34.8244 5.87884 35 6.30276 35 6.74479V33.4115C35 33.8535 34.8244 34.2774 34.5118 34.59C34.1993 34.9025 33.7754 35.0781 33.3333 35.0781H25.67Z" fill="#000033"/>
</g>
<defs>
<clipPath id="clip0_725_1154">
<rect width="40" height="40" fill="white" transform="translate(0 0.078125)"/>
</clipPath>
</defs>
</svg>
