<svg width="40" height="41" viewBox="0 0 40 41" fill="none" xmlns="http://www.w3.org/2000/svg">
<path d="M20 3.41146C24.5283 3.41146 25.0933 3.42812 26.87 3.51146C28.645 3.59479 29.8533 3.87313 30.9167 4.28646C32.0167 4.70979 32.9433 5.28312 33.87 6.20812C34.7175 7.04128 35.3733 8.04911 35.7917 9.16146C36.2033 10.2231 36.4833 11.4331 36.5667 13.2081C36.645 14.9848 36.6667 15.5498 36.6667 20.0781C36.6667 24.6065 36.65 25.1715 36.5667 26.9481C36.4833 28.7231 36.2033 29.9315 35.7917 30.9948C35.3745 32.1077 34.7185 33.1158 33.87 33.9481C33.0366 34.7953 32.0288 35.451 30.9167 35.8698C29.855 36.2815 28.645 36.5615 26.87 36.6448C25.0933 36.7231 24.5283 36.7448 20 36.7448C15.4717 36.7448 14.9067 36.7281 13.13 36.6448C11.355 36.5615 10.1467 36.2815 9.08333 35.8698C7.97054 35.4522 6.96254 34.7964 6.13 33.9481C5.28234 33.1151 4.62655 32.1072 4.20833 30.9948C3.795 29.9331 3.51667 28.7231 3.43333 26.9481C3.355 25.1715 3.33333 24.6065 3.33333 20.0781C3.33333 15.5498 3.35 14.9848 3.43333 13.2081C3.51667 11.4315 3.795 10.2248 4.20833 9.16146C4.62539 8.04842 5.28134 7.04033 6.13 6.20812C6.96278 5.36018 7.97071 4.70434 9.08333 4.28646C10.1467 3.87313 11.3533 3.59479 13.13 3.51146C14.9067 3.43312 15.4717 3.41146 20 3.41146ZM20 11.7448C17.7899 11.7448 15.6702 12.6228 14.1074 14.1856C12.5446 15.7484 11.6667 17.868 11.6667 20.0781C11.6667 22.2883 12.5446 24.4079 14.1074 25.9707C15.6702 27.5335 17.7899 28.4115 20 28.4115C22.2101 28.4115 24.3298 27.5335 25.8926 25.9707C27.4554 24.4079 28.3333 22.2883 28.3333 20.0781C28.3333 17.868 27.4554 15.7484 25.8926 14.1856C24.3298 12.6228 22.2101 11.7448 20 11.7448ZM30.8333 11.3281C30.8333 10.7756 30.6138 10.2457 30.2231 9.85499C29.8324 9.46428 29.3025 9.24479 28.75 9.24479C28.1975 9.24479 27.6676 9.46428 27.2769 9.85499C26.8862 10.2457 26.6667 10.7756 26.6667 11.3281C26.6667 11.8807 26.8862 12.4106 27.2769 12.8013C27.6676 13.192 28.1975 13.4115 28.75 13.4115C29.3025 13.4115 29.8324 13.192 30.2231 12.8013C30.6138 12.4106 30.8333 11.8807 30.8333 11.3281ZM20 15.0781C21.3261 15.0781 22.5979 15.6049 23.5355 16.5426C24.4732 17.4803 25 18.752 25 20.0781C25 21.4042 24.4732 22.676 23.5355 23.6137C22.5979 24.5513 21.3261 25.0781 20 25.0781C18.6739 25.0781 17.4021 24.5513 16.4645 23.6137C15.5268 22.676 15 21.4042 15 20.0781C15 18.752 15.5268 17.4803 16.4645 16.5426C17.4021 15.6049 18.6739 15.0781 20 15.0781Z" fill="#000033"/>
</svg>
