<svg width="40" height="41" viewBox="0 0 40 41" fill="none" xmlns="http://www.w3.org/2000/svg">
<g clip-path="url(#clip0_725_1155)">
<path d="M26.1167 30.6431V23.6815C26.1167 22.0215 26.0833 19.8848 23.8 19.8848C21.485 19.8848 21.1317 21.6915 21.1317 23.5598V30.6431H16.6883V16.3281H20.955V18.2781H21.0133C21.61 17.1548 23.06 15.9665 25.2267 15.9665C29.7267 15.9665 30.56 18.9298 30.56 22.7848V30.6431H26.1167ZM11.6717 14.3698C11.3326 14.3702 10.9968 14.3037 10.6834 14.1741C10.3701 14.0445 10.0854 13.8544 9.84576 13.6145C9.60608 13.3747 9.41609 13.0899 9.28668 12.7765C9.15728 12.4631 9.09101 12.1272 9.09167 11.7881C9.092 11.2778 9.24363 10.7791 9.5274 10.355C9.81117 9.93094 10.2143 9.60051 10.6859 9.40555C11.1574 9.21058 11.6762 9.15982 12.1766 9.25969C12.677 9.35956 13.1366 9.60558 13.4972 9.96664C13.8578 10.3277 14.1032 10.7876 14.2024 11.2881C14.3016 11.7886 14.2502 12.3073 14.0546 12.7787C13.8591 13.25 13.5281 13.6527 13.1037 13.9359C12.6792 14.2191 12.1819 14.3701 11.6717 14.3698ZM9.44333 30.6431V16.3281H13.9V30.6431H9.44333ZM32.7833 5.07812H7.215C5.98833 5.07812 5 6.04479 5 7.23979V32.9165C5 34.1115 5.99 35.0781 7.21333 35.0781H32.7767C34 35.0781 35 34.1115 35 32.9165V7.23979C35 6.04479 34 5.07812 32.7767 5.07812H32.7833Z" fill="#000033"/>
</g>
<defs>
<clipPath id="clip0_725_1155">
<rect width="40" height="40" fill="white" transform="translate(0 0.078125)"/>
</clipPath>
</defs>
</svg>
