<svg width="40" height="41" viewBox="0 0 40 41" fill="none" xmlns="http://www.w3.org/2000/svg">
<g clip-path="url(#clip0_725_1153)">
<path d="M35.905 10.9081C36.6667 13.8781 36.6667 20.0781 36.6667 20.0781C36.6667 20.0781 36.6667 26.2781 35.905 29.2481C35.4817 30.8898 34.2433 32.1815 32.675 32.6181C29.8267 33.4115 20 33.4115 20 33.4115C20 33.4115 10.1783 33.4115 7.325 32.6181C5.75 32.1748 4.51333 30.8848 4.095 29.2481C3.33333 26.2781 3.33333 20.0781 3.33333 20.0781C3.33333 20.0781 3.33333 13.8781 4.095 10.9081C4.51833 9.26646 5.75667 7.97479 7.325 7.53812C10.1783 6.74479 20 6.74479 20 6.74479C20 6.74479 29.8267 6.74479 32.675 7.53812C34.25 7.98146 35.4867 9.27146 35.905 10.9081ZM16.6667 25.9115L26.6667 20.0781L16.6667 14.2448V25.9115Z" fill="#000033"/>
</g>
<defs>
<clipPath id="clip0_725_1153">
<rect width="40" height="40" fill="white" transform="translate(0 0.078125)"/>
</clipPath>
</defs>
</svg>
