<svg width="41" height="40" viewBox="0 0 41 40" fill="none" xmlns="http://www.w3.org/2000/svg">
<g clip-path="url(#clip0_4123_14968)">
<path d="M9.41699 35C9.16977 35 8.92809 34.9267 8.72253 34.7893C8.51697 34.652 8.35675 34.4568 8.26214 34.2284C8.16753 33.9999 8.14278 33.7486 8.19101 33.5061C8.23924 33.2637 8.35829 33.0409 8.53311 32.8661C8.70793 32.6913 8.93065 32.5723 9.17313 32.524C9.41561 32.4758 9.66694 32.5005 9.89535 32.5952C10.1238 32.6898 10.319 32.85 10.4563 33.0555C10.5937 33.2611 10.667 33.5028 10.667 33.75C10.667 34.0815 10.5353 34.3995 10.3009 34.6339C10.0665 34.8683 9.74851 35 9.41699 35Z" fill="#100FA8"/>
<path d="M31.917 20C31.6698 20 31.4281 19.9267 31.2225 19.7893C31.017 19.652 30.8568 19.4568 30.7621 19.2284C30.6675 18.9999 30.6428 18.7486 30.691 18.5061C30.7392 18.2637 30.8583 18.0409 31.0331 17.8661C31.2079 17.6913 31.4307 17.5723 31.6731 17.524C31.9156 17.4758 32.1669 17.5005 32.3953 17.5952C32.6238 17.6898 32.819 17.85 32.9563 18.0555C33.0937 18.2611 33.167 18.5028 33.167 18.75C33.167 19.0815 33.0353 19.3995 32.8009 19.6339C32.5665 19.8683 32.2485 20 31.917 20Z" fill="#100FA8"/>
<path d="M29.417 36.25H21.917C21.5855 36.25 21.2675 36.1183 21.0331 35.8839C20.7987 35.6495 20.667 35.3315 20.667 35C20.667 34.6685 20.7987 34.3505 21.0331 34.1161C21.2675 33.8817 21.5855 33.75 21.917 33.75H29.417C29.7485 33.75 30.0665 33.6183 30.3009 33.3839C30.5353 33.1495 30.667 32.8315 30.667 32.5V28.75C30.667 28.4185 30.7987 28.1005 31.0331 27.8661C31.2675 27.6317 31.5855 27.5 31.917 27.5C32.2485 27.5 32.5665 27.6317 32.8009 27.8661C33.0353 28.1005 33.167 28.4185 33.167 28.75V32.5C33.167 33.4946 32.7719 34.4484 32.0686 35.1517C31.3654 35.8549 30.4116 36.25 29.417 36.25Z" fill="#100FA8"/>
<path d="M14.417 15H4.41699C3.42243 15 2.4686 15.3951 1.76534 16.0983C1.06208 16.8016 0.666992 17.7554 0.666992 18.75L0.666992 36.25C0.666992 37.2446 1.06208 38.1984 1.76534 38.9017C2.4686 39.6049 3.42243 40 4.41699 40H14.417C15.4116 40 16.3654 39.6049 17.0686 38.9017C17.7719 38.1984 18.167 37.2446 18.167 36.25V18.75C18.167 17.7554 17.7719 16.8016 17.0686 16.0983C16.3654 15.3951 15.4116 15 14.417 15ZM15.667 36.25C15.667 36.5815 15.5353 36.8995 15.3009 37.1339C15.0665 37.3683 14.7485 37.5 14.417 37.5H4.41699C4.08547 37.5 3.76753 37.3683 3.53311 37.1339C3.29869 36.8995 3.16699 36.5815 3.16699 36.25V18.75C3.16699 18.4185 3.29869 18.1005 3.53311 17.8661C3.76753 17.6317 4.08547 17.5 4.41699 17.5H5.66699C5.66699 17.8315 5.79869 18.1495 6.03311 18.3839C6.26753 18.6183 6.58547 18.75 6.91699 18.75H11.917C12.2485 18.75 12.5665 18.6183 12.8009 18.3839C13.0353 18.1495 13.167 17.8315 13.167 17.5H14.417C14.7485 17.5 15.0665 17.6317 15.3009 17.8661C15.5353 18.1005 15.667 18.4185 15.667 18.75V36.25Z" fill="#000033"/>
<path d="M39.417 11.25C39.7485 11.25 40.0665 11.1183 40.3009 10.8839C40.5353 10.6495 40.667 10.3315 40.667 10V3.75C40.667 2.75544 40.2719 1.80161 39.5686 1.09835C38.8654 0.395088 37.9116 0 36.917 0L26.917 0C25.9224 0 24.9686 0.395088 24.2653 1.09835C23.5621 1.80161 23.167 2.75544 23.167 3.75V21.25C23.167 22.2446 23.5621 23.1984 24.2653 23.9017C24.9686 24.6049 25.9224 25 26.917 25H36.917C37.9116 25 38.8654 24.6049 39.5686 23.9017C40.2719 23.1984 40.667 22.2446 40.667 21.25V15C40.667 14.6685 40.5353 14.3505 40.3009 14.1161C40.0665 13.8817 39.7485 13.75 39.417 13.75C39.0855 13.75 38.7675 13.8817 38.5331 14.1161C38.2987 14.3505 38.167 14.6685 38.167 15V21.25C38.167 21.5815 38.0353 21.8995 37.8009 22.1339C37.5665 22.3683 37.2485 22.5 36.917 22.5H26.917C26.5855 22.5 26.2675 22.3683 26.0331 22.1339C25.7987 21.8995 25.667 21.5815 25.667 21.25V3.75C25.667 3.41848 25.7987 3.10054 26.0331 2.86612C26.2675 2.6317 26.5855 2.5 26.917 2.5H28.167C28.167 2.83152 28.2987 3.14946 28.5331 3.38388C28.7675 3.6183 29.0855 3.75 29.417 3.75H34.417C34.7485 3.75 35.0665 3.6183 35.3009 3.38388C35.5353 3.14946 35.667 2.83152 35.667 2.5H36.917C37.2485 2.5 37.5665 2.6317 37.8009 2.86612C38.0353 3.10054 38.167 3.41848 38.167 3.75V10C38.167 10.3315 38.2987 10.6495 38.5331 10.8839C38.7675 11.1183 39.0855 11.25 39.417 11.25Z" fill="#000033"/>
</g>
<defs>
<clipPath id="clip0_4123_14968">
<rect width="40" height="40" fill="white" transform="translate(0.666992)"/>
</clipPath>
</defs>
</svg>
