<svg width="41" height="40" viewBox="0 0 41 40" fill="none" xmlns="http://www.w3.org/2000/svg">
<g clip-path="url(#clip0_4123_14910)">
<path d="M16.3335 39.599C16.1693 39.5662 16.0133 39.5014 15.8742 39.4082C15.7351 39.3151 15.6157 39.1954 15.5228 39.0561C15.43 38.9169 15.3655 38.7606 15.333 38.5964C15.3005 38.4322 15.3007 38.2632 15.3335 38.099C15.3663 37.9349 15.4312 37.7788 15.5243 37.6397C15.6175 37.5006 15.7371 37.3812 15.8764 37.2884C16.0157 37.1955 16.1719 37.131 16.3361 37.0985C16.5003 37.066 16.6693 37.0662 16.8335 37.099C21.1502 37.9425 25.6262 37.1296 29.3706 34.822C33.115 32.5145 35.8532 28.8816 37.0402 24.6465C38.2271 20.4113 37.7758 15.8845 35.776 11.9671C33.7762 8.04971 30.3746 5.02897 26.2483 3.50617C22.122 1.98337 17.5736 2.07019 13.5085 3.74934C9.44327 5.42849 6.15944 8.57684 4.31061 12.5677C2.46178 16.5586 2.18352 21.0993 3.53122 25.2861C4.87893 29.4728 7.75376 32.9986 11.5835 35.1615C11.7263 35.2436 11.8516 35.353 11.9521 35.4835C12.0526 35.614 12.1265 35.763 12.1694 35.922C12.2124 36.081 12.2236 36.2469 12.2024 36.4103C12.1812 36.5736 12.1281 36.7312 12.046 36.874C11.9639 37.0169 11.8545 37.1421 11.724 37.2426C11.5936 37.3432 11.4446 37.417 11.2855 37.46C11.1265 37.5029 10.9606 37.5141 10.7972 37.4929C10.6339 37.4718 10.4763 37.4186 10.3335 37.3365C5.97645 34.8303 2.72284 30.7754 1.22024 25.9788C-0.282362 21.1822 0.0762261 15.9957 2.22463 11.4516C4.37304 6.9074 8.15373 3.33882 12.8142 1.45605C17.4747 -0.426714 22.6733 -0.485593 27.3752 1.29113C32.0771 3.06786 35.9377 6.5499 38.1885 11.0442C40.4392 15.5386 40.9152 20.7156 39.5216 25.545C38.1281 30.3744 34.9671 34.502 30.668 37.1062C26.3688 39.7105 21.2467 40.6005 16.321 39.599H16.3335Z" fill="#000033"/>
<path d="M31.3546 36.6693C31.2154 36.7622 31.0591 36.8267 30.8949 36.8592C30.7307 36.8917 30.5617 36.8915 30.3975 36.8587C30.2334 36.8258 30.0773 36.761 29.9382 36.6678C29.7991 36.5747 29.6797 36.455 29.5869 36.3158C29.494 36.1765 29.4295 36.0203 29.397 35.856C29.3645 35.6918 29.3647 35.5228 29.3975 35.3587C29.4304 35.1945 29.4952 35.0384 29.5884 34.8993C29.6815 34.7602 29.8011 34.6409 29.9404 34.548C33.5892 32.0921 36.1794 28.3522 37.1954 24.0728C38.2115 19.7935 37.5788 15.2884 35.4234 11.4544C33.268 7.62044 29.748 4.73864 25.5639 3.38267C21.3798 2.0267 16.8385 2.29599 12.844 4.13695C8.84948 5.9779 5.69465 9.2555 4.00747 13.3174C2.3203 17.3792 2.2245 21.9274 3.73915 26.0567C5.2538 30.186 8.26782 33.5936 12.1813 35.6011C16.0947 37.6086 20.6206 38.0689 24.8581 36.8903C25.0171 36.8473 25.183 36.8361 25.3464 36.8573C25.5097 36.8785 25.6673 36.9316 25.8101 37.0137C25.953 37.0958 26.0782 37.2052 26.1787 37.3357C26.2793 37.4661 26.3531 37.6151 26.3961 37.7742C26.439 37.9332 26.4502 38.0991 26.429 38.2625C26.4079 38.4258 26.3547 38.5834 26.2726 38.7262C26.1906 38.869 26.0812 38.9943 25.9507 39.0948C25.8202 39.1953 25.6712 39.2692 25.5122 39.3121C20.6591 40.6209 15.4912 40.0542 11.037 37.725C6.58281 35.3958 3.16895 31.4749 1.4749 26.7425C-0.21915 22.0102 -0.0691744 16.8134 1.89498 12.1867C3.85913 7.55987 7.49343 3.8423 12.0745 1.77387C16.6556 -0.294575 21.8476 -0.562213 26.6171 1.02422C31.3867 2.61065 35.3839 5.93482 37.8134 10.3351C40.2429 14.7354 40.9264 19.8892 39.728 24.7706C38.5295 29.6521 35.5369 33.9033 31.3458 36.6782L31.3546 36.6693Z" fill="#000033"/>
<path d="M20.333 35C17.3663 35 14.4662 34.1203 11.9995 32.4721C9.53272 30.8238 7.61014 28.4812 6.47482 25.7403C5.33951 22.9994 5.04246 19.9834 5.62124 17.0737C6.20001 14.1639 7.62863 11.4912 9.72641 9.39341C11.8242 7.29562 14.4969 5.86701 17.4067 5.28823C20.3164 4.70945 23.3324 5.0065 26.0733 6.14181C28.8142 7.27713 31.1568 9.19972 32.8051 11.6665C34.4533 14.1332 35.333 17.0333 35.333 20C35.333 23.9783 33.7527 27.7936 30.9396 30.6066C28.1266 33.4197 24.3113 35 20.333 35ZM20.333 7.50001C17.8607 7.50001 15.444 8.23312 13.3884 9.60664C11.3328 10.9802 9.73062 12.9324 8.78452 15.2165C7.83843 17.5005 7.59088 20.0139 8.0732 22.4386C8.55551 24.8634 9.74602 27.0907 11.4942 28.8388C13.2423 30.587 15.4696 31.7775 17.8944 32.2598C20.3191 32.7421 22.8325 32.4946 25.1166 31.5485C27.4006 30.6024 29.3529 29.0002 30.7264 26.9446C32.0999 24.889 32.833 22.4723 32.833 20C32.833 16.6848 31.5161 13.5054 29.1718 11.1612C26.8276 8.81697 23.6482 7.50001 20.333 7.50001V7.50001Z" fill="#000033"/>
<path d="M20.333 28.75C20.0015 28.75 19.6835 28.6183 19.4491 28.3839C19.2147 28.1495 19.083 27.8315 19.083 27.5V18.75C19.083 18.4185 19.2147 18.1005 19.4491 17.8661C19.6835 17.6317 20.0015 17.5 20.333 17.5C20.6645 17.5 20.9825 17.6317 21.2169 17.8661C21.4513 18.1005 21.583 18.4185 21.583 18.75V27.5C21.583 27.8315 21.4513 28.1495 21.2169 28.3839C20.9825 28.6183 20.6645 28.75 20.333 28.75Z" fill="#100FA8"/>
<path d="M20.333 13.75C20.0858 13.75 19.8441 13.6767 19.6385 13.5393C19.433 13.402 19.2728 13.2068 19.1782 12.9784C19.0835 12.7499 19.0588 12.4986 19.107 12.2561C19.1553 12.0137 19.2743 11.7909 19.4491 11.6161C19.6239 11.4413 19.8467 11.3223 20.0891 11.274C20.3316 11.2258 20.583 11.2505 20.8114 11.3452C21.0398 11.4398 21.235 11.6 21.3723 11.8055C21.5097 12.0111 21.583 12.2528 21.583 12.5C21.583 12.8315 21.4513 13.1495 21.2169 13.3839C20.9825 13.6183 20.6645 13.75 20.333 13.75Z" fill="#100FA8"/>
</g>
<defs>
<clipPath id="clip0_4123_14910">
<rect width="40" height="40" fill="white" transform="translate(0.333008)"/>
</clipPath>
</defs>
</svg>
