<svg width="40" height="40" viewBox="0 0 40 40" fill="none" xmlns="http://www.w3.org/2000/svg">
<g clip-path="url(#clip0_4123_14978)">
<path d="M38.75 18.75H36.25C35.947 14.8786 34.2676 11.2438 31.516 8.50365C28.7645 5.76354 25.1226 4.09937 21.25 3.8125V1.25C21.25 0.918479 21.1183 0.600537 20.8839 0.366117C20.6495 0.131696 20.3315 0 20 0C19.6685 0 19.3505 0.131696 19.1161 0.366117C18.8817 0.600537 18.75 0.918479 18.75 1.25V3.8125C14.8885 4.11361 11.2616 5.78407 8.52283 8.52283C5.78407 11.2616 4.11361 14.8885 3.8125 18.75H1.25C0.918479 18.75 0.600537 18.8817 0.366117 19.1161C0.131696 19.3505 0 19.6685 0 20C0 20.3315 0.131696 20.6495 0.366117 20.8839C0.600537 21.1183 0.918479 21.25 1.25 21.25H3.8125C4.13367 25.4642 6.08411 29.3875 9.25 32.1875C9.3717 32.3044 9.5158 32.3954 9.67362 32.4551C9.83145 32.5148 9.99972 32.542 10.1683 32.5349C10.3369 32.5278 10.5023 32.4867 10.6546 32.414C10.8069 32.3412 10.9428 32.2385 11.0543 32.1118C11.1658 31.9851 11.2504 31.8372 11.3032 31.6769C11.356 31.5166 11.3758 31.3473 11.3613 31.1792C11.3469 31.0111 11.2986 30.8476 11.2193 30.6987C11.14 30.5497 11.0314 30.4183 10.9 30.3125C8.2763 27.9832 6.63634 24.7435 6.3125 21.25H7.5C7.83152 21.25 8.14946 21.1183 8.38388 20.8839C8.6183 20.6495 8.75 20.3315 8.75 20C8.75 19.6685 8.6183 19.3505 8.38388 19.1161C8.14946 18.8817 7.83152 18.75 7.5 18.75H6.25C6.54551 15.5406 7.95905 12.537 10.2438 10.2637C12.5285 7.99039 15.5391 6.59192 18.75 6.3125V7.5C18.75 7.83152 18.8817 8.14946 19.1161 8.38388C19.3505 8.6183 19.6685 8.75 20 8.75C20.3315 8.75 20.6495 8.6183 20.8839 8.38388C21.1183 8.14946 21.25 7.83152 21.25 7.5V6.25C24.4706 6.53161 27.489 7.93902 29.775 10.225C32.061 12.511 33.4684 15.5294 33.75 18.75H32.5C32.1685 18.75 31.8505 18.8817 31.6161 19.1161C31.3817 19.3505 31.25 19.6685 31.25 20C31.25 20.3315 31.3817 20.6495 31.6161 20.8839C31.8505 21.1183 32.1685 21.25 32.5 21.25H33.75C33.4684 24.4706 32.061 27.489 29.775 29.775C27.489 32.061 24.4706 33.4684 21.25 33.75V32.5C21.25 32.1685 21.1183 31.8505 20.8839 31.6161C20.6495 31.3817 20.3315 31.25 20 31.25C19.6685 31.25 19.3505 31.3817 19.1161 31.6161C18.8817 31.8505 18.75 32.1685 18.75 32.5V33.75C17.6109 33.653 16.4891 33.4094 15.4125 33.025C15.0992 32.9156 14.7553 32.9351 14.4564 33.0793C14.1575 33.2235 13.9282 33.4805 13.8188 33.7937C13.7093 34.107 13.7289 34.451 13.873 34.7498C14.0172 35.0487 14.2742 35.2781 14.5875 35.3875C15.9312 35.856 17.3307 36.146 18.75 36.25V38.75C18.75 39.0815 18.8817 39.3995 19.1161 39.6339C19.3505 39.8683 19.6685 40 20 40C20.3315 40 20.6495 39.8683 20.8839 39.6339C21.1183 39.3995 21.25 39.0815 21.25 38.75V36.25C25.1325 35.9612 28.7823 34.2882 31.5352 31.5352C34.2882 28.7823 35.9612 25.1325 36.25 21.25H38.75C39.0815 21.25 39.3995 21.1183 39.6339 20.8839C39.8683 20.6495 40 20.3315 40 20C40 19.6685 39.8683 19.3505 39.6339 19.1161C39.3995 18.8817 39.0815 18.75 38.75 18.75Z" fill="#000033"/>
<path d="M1.25 18.75H3.75C4.05303 14.8786 5.7324 11.2438 8.48397 8.50365C11.2355 5.76354 14.8774 4.09937 18.75 3.8125V1.25C18.75 0.918479 18.8817 0.600537 19.1161 0.366117C19.3505 0.131696 19.6685 0 20 0C20.3315 0 20.6495 0.131696 20.8839 0.366117C21.1183 0.600537 21.25 0.918479 21.25 1.25V3.8125C25.1115 4.11361 28.7384 5.78407 31.4772 8.52283C34.2159 11.2616 35.8864 14.8885 36.1875 18.75H38.75C39.0815 18.75 39.3995 18.8817 39.6339 19.1161C39.8683 19.3505 40 19.6685 40 20C40 20.3315 39.8683 20.6495 39.6339 20.8839C39.3995 21.1183 39.0815 21.25 38.75 21.25H36.1875C35.8663 25.4642 33.9159 29.3875 30.75 32.1875C30.6283 32.3044 30.4842 32.3954 30.3264 32.4551C30.1686 32.5148 30.0003 32.542 29.8317 32.5349C29.6631 32.5278 29.4977 32.4867 29.3454 32.414C29.1931 32.3412 29.0572 32.2385 28.9457 32.1118C28.8342 31.9851 28.7496 31.8372 28.6968 31.6769C28.644 31.5166 28.6242 31.3473 28.6387 31.1792C28.6531 31.0111 28.7014 30.8476 28.7807 30.6987C28.86 30.5497 28.9686 30.4183 29.1 30.3125C31.7237 27.9832 33.3637 24.7435 33.6875 21.25H32.5C32.1685 21.25 31.8505 21.1183 31.6161 20.8839C31.3817 20.6495 31.25 20.3315 31.25 20C31.25 19.6685 31.3817 19.3505 31.6161 19.1161C31.8505 18.8817 32.1685 18.75 32.5 18.75H33.75C33.4545 15.5406 32.0409 12.537 29.7562 10.2637C27.4715 7.99039 24.4609 6.59192 21.25 6.3125V7.5C21.25 7.83152 21.1183 8.14946 20.8839 8.38388C20.6495 8.6183 20.3315 8.75 20 8.75C19.6685 8.75 19.3505 8.6183 19.1161 8.38388C18.8817 8.14946 18.75 7.83152 18.75 7.5V6.25C15.5294 6.53161 12.511 7.93902 10.225 10.225C7.93902 12.511 6.53161 15.5294 6.25 18.75H7.5C7.83152 18.75 8.14946 18.8817 8.38389 19.1161C8.61831 19.3505 8.75 19.6685 8.75 20C8.75 20.3315 8.61831 20.6495 8.38389 20.8839C8.14946 21.1183 7.83152 21.25 7.5 21.25H6.25C6.53161 24.4706 7.93902 27.489 10.225 29.775C12.511 32.061 15.5294 33.4684 18.75 33.75V32.5C18.75 32.1685 18.8817 31.8505 19.1161 31.6161C19.3505 31.3817 19.6685 31.25 20 31.25C20.3315 31.25 20.6495 31.3817 20.8839 31.6161C21.1183 31.8505 21.25 32.1685 21.25 32.5V33.75C22.3891 33.653 23.5109 33.4094 24.5875 33.025C24.9008 32.9156 25.2447 32.9351 25.5436 33.0793C25.8425 33.2235 26.0718 33.4805 26.1812 33.7937C26.2907 34.107 26.2711 34.451 26.127 34.7498C25.9828 35.0487 25.7258 35.2781 25.4125 35.3875C24.0688 35.856 22.6693 36.146 21.25 36.25V38.75C21.25 39.0815 21.1183 39.3995 20.8839 39.6339C20.6495 39.8683 20.3315 40 20 40C19.6685 40 19.3505 39.8683 19.1161 39.6339C18.8817 39.3995 18.75 39.0815 18.75 38.75V36.25C14.8675 35.9612 11.2177 34.2882 8.46476 31.5352C5.71183 28.7823 4.03876 25.1325 3.75 21.25H1.25C0.91848 21.25 0.600537 21.1183 0.366117 20.8839C0.131696 20.6495 9.53674e-07 20.3315 9.53674e-07 20C9.53674e-07 19.6685 0.131696 19.3505 0.366117 19.1161C0.600537 18.8817 0.91848 18.75 1.25 18.75Z" fill="#000033"/>
<path d="M1.25 8.75C1.58152 8.75 1.89946 8.6183 2.13388 8.38388C2.3683 8.14946 2.5 7.83152 2.5 7.5V3.75C2.5 3.41848 2.6317 3.10054 2.86612 2.86612C3.10054 2.6317 3.41848 2.5 3.75 2.5H7.5C7.83152 2.5 8.14946 2.3683 8.38388 2.13388C8.6183 1.89946 8.75 1.58152 8.75 1.25C8.75 0.918479 8.6183 0.600537 8.38388 0.366117C8.14946 0.131696 7.83152 0 7.5 0L3.75 0C2.75544 0 1.80161 0.395088 1.09835 1.09835C0.395088 1.80161 0 2.75544 0 3.75L0 7.5C0 7.83152 0.131696 8.14946 0.366117 8.38388C0.600537 8.6183 0.918479 8.75 1.25 8.75Z" fill="#000033"/>
<path d="M36.25 0H32.5C32.1685 0 31.8505 0.131696 31.6161 0.366117C31.3817 0.600537 31.25 0.918479 31.25 1.25C31.25 1.58152 31.3817 1.89946 31.6161 2.13388C31.8505 2.3683 32.1685 2.5 32.5 2.5H36.25C36.5815 2.5 36.8995 2.6317 37.1339 2.86612C37.3683 3.10054 37.5 3.41848 37.5 3.75V7.5C37.5 7.83152 37.6317 8.14946 37.8661 8.38388C38.1005 8.6183 38.4185 8.75 38.75 8.75C39.0815 8.75 39.3995 8.6183 39.6339 8.38388C39.8683 8.14946 40 7.83152 40 7.5V3.75C40 2.75544 39.6049 1.80161 38.9017 1.09835C38.1984 0.395088 37.2446 0 36.25 0V0Z" fill="#000033"/>
<path d="M38.75 31.25C38.4185 31.25 38.1005 31.3817 37.8661 31.6161C37.6317 31.8505 37.5 32.1685 37.5 32.5V36.25C37.5 36.5815 37.3683 36.8995 37.1339 37.1339C36.8995 37.3683 36.5815 37.5 36.25 37.5H32.5C32.1685 37.5 31.8505 37.6317 31.6161 37.8661C31.3817 38.1005 31.25 38.4185 31.25 38.75C31.25 39.0815 31.3817 39.3995 31.6161 39.6339C31.8505 39.8683 32.1685 40 32.5 40H36.25C37.2446 40 38.1984 39.6049 38.9017 38.9017C39.6049 38.1984 40 37.2446 40 36.25V32.5C40 32.1685 39.8683 31.8505 39.6339 31.6161C39.3995 31.3817 39.0815 31.25 38.75 31.25Z" fill="#000033"/>
<path d="M7.5 37.5H3.75C3.41848 37.5 3.10054 37.3683 2.86612 37.1339C2.6317 36.8995 2.5 36.5815 2.5 36.25V32.5C2.5 32.1685 2.3683 31.8505 2.13388 31.6161C1.89946 31.3817 1.58152 31.25 1.25 31.25C0.918479 31.25 0.600537 31.3817 0.366117 31.6161C0.131696 31.8505 0 32.1685 0 32.5L0 36.25C0 37.2446 0.395088 38.1984 1.09835 38.9017C1.80161 39.6049 2.75544 40 3.75 40H7.5C7.83152 40 8.14946 39.8683 8.38388 39.6339C8.6183 39.3995 8.75 39.0815 8.75 38.75C8.75 38.4185 8.6183 38.1005 8.38388 37.8661C8.14946 37.6317 7.83152 37.5 7.5 37.5Z" fill="#000033"/>
<path d="M26.25 11.25C25.9185 11.25 25.6005 11.3817 25.3661 11.6161C25.1317 11.8505 25 12.1685 25 12.5V12.975L18.45 16.25H15C14.337 16.25 13.7011 16.5134 13.2322 16.9822C12.7634 17.4511 12.5 18.087 12.5 18.75V21.25C12.5014 21.7421 12.6481 22.2229 12.9216 22.6321C13.1951 23.0412 13.5833 23.3605 14.0375 23.55L15.0625 26.65C15.1686 26.9649 15.3954 27.2248 15.6932 27.3725C15.9909 27.5202 16.3351 27.5436 16.65 27.4375C16.9649 27.3314 17.2248 27.1046 17.3725 26.8068C17.5202 26.5091 17.5436 26.1649 17.4375 25.85L16.7375 23.75H18.45L25 27.025V27.5C25 27.8315 25.1317 28.1495 25.3661 28.3839C25.6005 28.6183 25.9185 28.75 26.25 28.75C26.5815 28.75 26.8995 28.6183 27.1339 28.3839C27.3683 28.1495 27.5 27.8315 27.5 27.5V12.5C27.5 12.1685 27.3683 11.8505 27.1339 11.6161C26.8995 11.3817 26.5815 11.25 26.25 11.25ZM15 18.75H17.5V21.25H15V18.75ZM20 21.725V18.275L25 15.775V24.225L20 21.725Z" fill="#100FA8"/>
</g>
<defs>
<clipPath id="clip0_4123_14978">
<rect width="40" height="40" fill="white"/>
</clipPath>
</defs>
</svg>
