<svg width="43" height="54" viewBox="0 0 43 54" fill="none" xmlns="http://www.w3.org/2000/svg">
<path d="M42.3154 43.7486V53.7051H2.41371V45.7851L22.7794 26.5509C24.9417 24.4891 26.4 22.7291 27.1543 21.2709C27.9086 19.7623 28.2857 18.2789 28.2857 16.8206C28.2857 14.7086 27.5566 13.0994 26.0983 11.9931C24.6903 10.8366 22.6034 10.2583 19.8377 10.2583C17.5246 10.2583 15.4377 10.7109 13.5771 11.616C11.7166 12.4709 10.1577 13.7783 8.90057 15.5383L0 9.80572C2.06171 6.73829 4.90286 4.34971 8.52343 2.64C12.144 0.879999 16.2926 0 20.9691 0C24.8914 0 28.3109 0.653715 31.2274 1.96114C34.1943 3.21829 36.4823 5.02857 38.0914 7.392C39.7509 9.70514 40.5806 12.4457 40.5806 15.6137C40.5806 18.48 39.9771 21.1703 38.7703 23.6846C37.5634 26.1989 35.2251 29.0651 31.7554 32.2834L19.6114 43.7486H42.3154Z" fill="#CECFFB"/>
</svg>
