<svg width="43" height="54" viewBox="0 0 43 54" fill="none" xmlns="http://www.w3.org/2000/svg">
<path d="M27.6823 21.4971C32.3086 22.2514 35.8537 23.9863 38.3177 26.7017C40.7817 29.3669 42.0137 32.6857 42.0137 36.6583C42.0137 39.7257 41.2091 42.5669 39.6 45.1817C37.9909 47.7463 35.5269 49.808 32.208 51.3669C28.9394 52.9257 24.9166 53.7051 20.1394 53.7051C16.4183 53.7051 12.7474 53.2274 9.12686 52.272C5.55657 51.2663 2.51429 49.8583 0 48.048L4.752 38.6949C6.76343 40.2034 9.07657 41.3851 11.6914 42.24C14.3566 43.0446 17.072 43.4469 19.8377 43.4469C22.9051 43.4469 25.3189 42.8686 27.0789 41.712C28.8389 40.5051 29.7189 38.8206 29.7189 36.6583C29.7189 32.3337 26.4251 30.1714 19.8377 30.1714H14.256V22.1006L25.1177 9.80572H2.64V0H39.6V7.92L27.6823 21.4971Z" fill="#CECFFB"/>
</svg>
