<svg width="44" height="55" viewBox="0 0 44 55" fill="none" xmlns="http://www.w3.org/2000/svg">
<path d="M25.4194 20.592C28.7886 20.592 31.856 21.2709 34.6217 22.6286C37.3874 23.9863 39.5749 25.9223 41.184 28.4366C42.7931 30.9006 43.5977 33.7669 43.5977 37.0354C43.5977 40.5554 42.7177 43.648 40.9577 46.3131C39.1977 48.9783 36.784 51.04 33.7166 52.4983C30.6994 53.9063 27.3303 54.6103 23.6091 54.6103C16.2171 54.6103 10.4343 52.3474 6.26057 47.8217C2.08686 43.296 0 36.8343 0 28.4366C0 22.4526 1.13143 17.3234 3.39429 13.0491C5.65714 8.77486 8.8 5.53143 12.8229 3.31885C16.896 1.10628 21.5977 0 26.928 0C29.744 0 32.4343 0.326856 34.9989 0.980568C37.6137 1.584 39.8263 2.464 41.6366 3.62057L37.1109 12.5966C34.496 10.8366 31.2023 9.95657 27.2297 9.95657C22.7543 9.95657 19.2091 11.264 16.5943 13.8789C13.9794 16.4937 12.5714 20.2903 12.3703 25.2686C15.488 22.1509 19.8377 20.592 25.4194 20.592ZM22.9303 45.4834C25.5451 45.4834 27.6571 44.7794 29.2663 43.3714C30.9257 41.9634 31.7554 40.0526 31.7554 37.6389C31.7554 35.2251 30.9257 33.3143 29.2663 31.9063C27.6571 30.448 25.4949 29.7189 22.7794 29.7189C20.1143 29.7189 17.9269 30.4731 16.2171 31.9817C14.5074 33.44 13.6526 35.3257 13.6526 37.6389C13.6526 39.952 14.4823 41.8377 16.1417 43.296C17.8011 44.7543 20.064 45.4834 22.9303 45.4834Z" fill="#CECFFB"/>
</svg>
