<svg width="43" height="54" viewBox="0 0 43 54" fill="none" xmlns="http://www.w3.org/2000/svg">
<path d="M20.2903 19.8377C27.7326 19.8377 33.2137 21.3211 36.7337 24.288C40.304 27.2549 42.0891 31.2274 42.0891 36.2057C42.0891 39.424 41.2846 42.3657 39.6754 45.0309C38.0663 47.6457 35.6023 49.7577 32.2834 51.3669C29.0149 52.9257 24.9669 53.7051 20.1394 53.7051C16.4183 53.7051 12.7474 53.2274 9.12686 52.272C5.55657 51.2663 2.51429 49.8583 0 48.048L4.82743 38.6949C6.83886 40.2034 9.152 41.3851 11.7669 42.24C14.3817 43.0446 17.072 43.4469 19.8377 43.4469C22.9051 43.4469 25.3189 42.8434 27.0789 41.6366C28.8389 40.4297 29.7189 38.7451 29.7189 36.5829C29.7189 34.32 28.7886 32.6103 26.928 31.4537C25.1177 30.2971 21.9497 29.7189 17.424 29.7189H3.92229L6.63771 0H38.8457V9.80572H16.8206L15.9909 19.8377H20.2903Z" fill="#CECFFB"/>
</svg>
