<svg width="33" height="32" viewBox="0 0 33 32" fill="none" xmlns="http://www.w3.org/2000/svg">
<g clip-path="url(#clip0_3471_9912)">
<path d="M5.95312 6H1.95312C1.68791 6 1.43355 5.89464 1.24602 5.70711C1.05848 5.51957 0.953125 5.26522 0.953125 5V1C0.953125 0.734784 1.05848 0.48043 1.24602 0.292893C1.43355 0.105357 1.68791 0 1.95312 0L5.95312 0C6.21834 0 6.4727 0.105357 6.66023 0.292893C6.84777 0.48043 6.95312 0.734784 6.95312 1V5C6.95312 5.26522 6.84777 5.51957 6.66023 5.70711C6.4727 5.89464 6.21834 6 5.95312 6ZM2.95312 4H4.95312V2H2.95312V4Z" fill="#05058C"/>
<path d="M31.9531 6H27.9531C27.6879 6 27.4336 5.89464 27.246 5.70711C27.0585 5.51957 26.9531 5.26522 26.9531 5V1C26.9531 0.734784 27.0585 0.48043 27.246 0.292893C27.4336 0.105357 27.6879 0 27.9531 0L31.9531 0C32.2183 0 32.4727 0.105357 32.6602 0.292893C32.8478 0.48043 32.9531 0.734784 32.9531 1V5C32.9531 5.26522 32.8478 5.51957 32.6602 5.70711C32.4727 5.89464 32.2183 6 31.9531 6ZM28.9531 4H30.9531V2H28.9531V4Z" fill="#05058C"/>
<path d="M11.9531 4H9.95312C9.68791 4 9.43355 3.89464 9.24602 3.70711C9.05848 3.51957 8.95312 3.26522 8.95312 3C8.95312 2.73478 9.05848 2.48043 9.24602 2.29289C9.43355 2.10536 9.68791 2 9.95312 2H11.9531C12.2183 2 12.4727 2.10536 12.6602 2.29289C12.8478 2.48043 12.9531 2.73478 12.9531 3C12.9531 3.26522 12.8478 3.51957 12.6602 3.70711C12.4727 3.89464 12.2183 4 11.9531 4Z" fill="#000033"/>
<path d="M23.9531 4H21.9531C21.6879 4 21.4336 3.89464 21.246 3.70711C21.0585 3.51957 20.9531 3.26522 20.9531 3C20.9531 2.73478 21.0585 2.48043 21.246 2.29289C21.4336 2.10536 21.6879 2 21.9531 2H23.9531C24.2183 2 24.4727 2.10536 24.6602 2.29289C24.8478 2.48043 24.9531 2.73478 24.9531 3C24.9531 3.26522 24.8478 3.51957 24.6602 3.70711C24.4727 3.89464 24.2183 4 23.9531 4Z" fill="#000033"/>
<path d="M17.9531 4H15.9531C15.6879 4 15.4336 3.89464 15.246 3.70711C15.0585 3.51957 14.9531 3.26522 14.9531 3C14.9531 2.73478 15.0585 2.48043 15.246 2.29289C15.4336 2.10536 15.6879 2 15.9531 2H17.9531C18.2183 2 18.4727 2.10536 18.6602 2.29289C18.8478 2.48043 18.9531 2.73478 18.9531 3C18.9531 3.26522 18.8478 3.51957 18.6602 3.70711C18.4727 3.89464 18.2183 4 17.9531 4Z" fill="#000033"/>
<path d="M31.9531 33H27.9531C27.6879 33 27.4336 32.8946 27.246 32.7071C27.0585 32.5196 26.9531 32.2652 26.9531 32V28C26.9531 27.7348 27.0585 27.4804 27.246 27.2929C27.4336 27.1054 27.6879 27 27.9531 27H31.9531C32.2183 27 32.4727 27.1054 32.6602 27.2929C32.8478 27.4804 32.9531 27.7348 32.9531 28V32C32.9531 32.2652 32.8478 32.5196 32.6602 32.7071C32.4727 32.8946 32.2183 33 31.9531 33ZM28.9531 31H30.9531V29H28.9531V31Z" fill="#05058C"/>
<path d="M11.9531 31H9.95312C9.68791 31 9.43355 30.8946 9.24602 30.7071C9.05848 30.5196 8.95312 30.2652 8.95312 30C8.95312 29.7348 9.05848 29.4804 9.24602 29.2929C9.43355 29.1054 9.68791 29 9.95312 29H11.9531C12.2183 29 12.4727 29.1054 12.6602 29.2929C12.8478 29.4804 12.9531 29.7348 12.9531 30C12.9531 30.2652 12.8478 30.5196 12.6602 30.7071C12.4727 30.8946 12.2183 31 11.9531 31Z" fill="#000033"/>
<path d="M23.9531 31H21.9531C21.6879 31 21.4336 30.8946 21.246 30.7071C21.0585 30.5196 20.9531 30.2652 20.9531 30C20.9531 29.7348 21.0585 29.4804 21.246 29.2929C21.4336 29.1054 21.6879 29 21.9531 29H23.9531C24.2183 29 24.4727 29.1054 24.6602 29.2929C24.8478 29.4804 24.9531 29.7348 24.9531 30C24.9531 30.2652 24.8478 30.5196 24.6602 30.7071C24.4727 30.8946 24.2183 31 23.9531 31Z" fill="#000033"/>
<path d="M17.9531 31H15.9531C15.6879 31 15.4336 30.8946 15.246 30.7071C15.0585 30.5196 14.9531 30.2652 14.9531 30C14.9531 29.7348 15.0585 29.4804 15.246 29.2929C15.4336 29.1054 15.6879 29 15.9531 29H17.9531C18.2183 29 18.4727 29.1054 18.6602 29.2929C18.8478 29.4804 18.9531 29.7348 18.9531 30C18.9531 30.2652 18.8478 30.5196 18.6602 30.7071C18.4727 30.8946 18.2183 31 17.9531 31Z" fill="#000033"/>
<path d="M5.95312 32H1.95312C1.68791 32 1.43355 31.8946 1.24602 31.7071C1.05848 31.5196 0.953125 31.2652 0.953125 31V27C0.953125 26.7348 1.05848 26.4804 1.24602 26.2929C1.43355 26.1054 1.68791 26 1.95312 26H5.95312C6.21834 26 6.4727 26.1054 6.66023 26.2929C6.84777 26.4804 6.95312 26.7348 6.95312 27V31C6.95312 31.2652 6.84777 31.5196 6.66023 31.7071C6.4727 31.8946 6.21834 32 5.95312 32ZM2.95312 30H4.95312V28H2.95312V30Z" fill="#05058C"/>
<path d="M3.95312 24C3.68791 24 3.43355 23.8946 3.24602 23.7071C3.05848 23.5196 2.95313 23.2652 2.95312 23V21C2.95312 20.7348 3.05848 20.4804 3.24602 20.2929C3.43355 20.1054 3.68791 20 3.95312 20C4.21834 20 4.4727 20.1054 4.66023 20.2929C4.84777 20.4804 4.95312 20.7348 4.95312 21V23C4.95312 23.2652 4.84777 23.5196 4.66023 23.7071C4.4727 23.8946 4.21834 24 3.95312 24Z" fill="#000033"/>
<path d="M3.95312 12C3.68791 12 3.43355 11.8946 3.24602 11.7071C3.05848 11.5196 2.95313 11.2652 2.95312 11V9C2.95312 8.73478 3.05848 8.48043 3.24602 8.29289C3.43355 8.10536 3.68791 8 3.95312 8C4.21834 8 4.4727 8.10536 4.66023 8.29289C4.84777 8.48043 4.95312 8.73478 4.95312 9V11C4.95312 11.2652 4.84777 11.5196 4.66023 11.7071C4.4727 11.8946 4.21834 12 3.95312 12Z" fill="#000033"/>
<path d="M3.95312 18C3.68791 18 3.43355 17.8946 3.24602 17.7071C3.05848 17.5196 2.95313 17.2652 2.95312 17V15C2.95312 14.7348 3.05848 14.4804 3.24602 14.2929C3.43355 14.1054 3.68791 14 3.95312 14C4.21834 14 4.4727 14.1054 4.66023 14.2929C4.84777 14.4804 4.95312 14.7348 4.95312 15V17C4.95312 17.2652 4.84777 17.5196 4.66023 17.7071C4.4727 17.8946 4.21834 18 3.95312 18Z" fill="#000033"/>
<path d="M29.9531 24C29.6879 24 29.4336 23.8946 29.246 23.7071C29.0585 23.5196 28.9531 23.2652 28.9531 23V21C28.9531 20.7348 29.0585 20.4804 29.246 20.2929C29.4336 20.1054 29.6879 20 29.9531 20C30.2183 20 30.4727 20.1054 30.6602 20.2929C30.8478 20.4804 30.9531 20.7348 30.9531 21V23C30.9531 23.2652 30.8478 23.5196 30.6602 23.7071C30.4727 23.8946 30.2183 24 29.9531 24Z" fill="#000033"/>
<path d="M29.9531 12C29.6879 12 29.4336 11.8946 29.246 11.7071C29.0585 11.5196 28.9531 11.2652 28.9531 11V9C28.9531 8.73478 29.0585 8.48043 29.246 8.29289C29.4336 8.10536 29.6879 8 29.9531 8C30.2183 8 30.4727 8.10536 30.6602 8.29289C30.8478 8.48043 30.9531 8.73478 30.9531 9V11C30.9531 11.2652 30.8478 11.5196 30.6602 11.7071C30.4727 11.8946 30.2183 12 29.9531 12Z" fill="#000033"/>
<path d="M29.9531 18C29.6879 18 29.4336 17.8946 29.246 17.7071C29.0585 17.5196 28.9531 17.2652 28.9531 17V15C28.9531 14.7348 29.0585 14.4804 29.246 14.2929C29.4336 14.1054 29.6879 14 29.9531 14C30.2183 14 30.4727 14.1054 30.6602 14.2929C30.8478 14.4804 30.9531 14.7348 30.9531 15V17C30.9531 17.2652 30.8478 17.5196 30.6602 17.7071C30.4727 17.8946 30.2183 18 29.9531 18Z" fill="#000033"/>
<path d="M14.9531 25H8.95312C8.68791 25 8.43355 24.8946 8.24602 24.7071C8.05848 24.5196 7.95312 24.2652 7.95312 24V19C7.95312 18.7348 8.05848 18.4804 8.24602 18.2929C8.43355 18.1054 8.68791 18 8.95312 18H14.9531C15.2183 18 15.4727 18.1054 15.6602 18.2929C15.8478 18.4804 15.9531 18.7348 15.9531 19V24C15.9531 24.2652 15.8478 24.5196 15.6602 24.7071C15.4727 24.8946 15.2183 25 14.9531 25ZM9.95312 23H13.9531V20H9.95312V23Z" fill="#000033"/>
<path d="M24.9531 25H18.9531C18.6879 25 18.4336 24.8946 18.246 24.7071C18.0585 24.5196 17.9531 24.2652 17.9531 24V19C17.9531 18.7348 18.0585 18.4804 18.246 18.2929C18.4336 18.1054 18.6879 18 18.9531 18H24.9531C25.2183 18 25.4727 18.1054 25.6602 18.2929C25.8478 18.4804 25.9531 18.7348 25.9531 19V24C25.9531 24.2652 25.8478 24.5196 25.6602 24.7071C25.4727 24.8946 25.2183 25 24.9531 25ZM19.9531 23H23.9531V20H19.9531V23Z" fill="#000033"/>
<path d="M25.9548 7.81C25.8948 7.49 25.9548 7.62 25.8548 7.52C25.8146 7.432 25.7606 7.35099 25.6948 7.28L25.3748 7.08C25.0348 7 8.95485 7 8.86485 7C8.70356 6.99777 8.54703 7.05469 8.42485 7.16C8.34964 7.1913 8.2816 7.23759 8.22486 7.29605C8.16813 7.3545 8.12389 7.4239 8.09485 7.5L8.03485 7.58C7.89984 10.1782 7.89984 12.7818 8.03485 15.38C8.11596 15.5582 8.24486 15.7105 8.40726 15.82C8.56965 15.9294 8.75919 15.9917 8.95485 16H24.9548C25.1484 15.9936 25.3364 15.9342 25.4986 15.8285C25.6608 15.7227 25.7909 15.5745 25.8748 15.4C25.9548 15.14 25.9548 8.18 25.9548 7.81ZM9.95485 9.53L14.4648 11.53L9.95485 13.47V9.53ZM13.7348 9H20.1748L16.9548 10.41L13.7348 9ZM16.9548 12.59L20.1748 14H13.7348L16.9548 12.59ZM19.4448 11.5L23.9548 9.5V13.44L19.4448 11.5Z" fill="#000033"/>
</g>
<defs>
<clipPath id="clip0_3471_9912">
<rect width="32" height="32" fill="white" transform="translate(0.953125)"/>
</clipPath>
</defs>
</svg>
