<svg width="33" height="32" viewBox="0 0 33 32" fill="none" xmlns="http://www.w3.org/2000/svg">
<g clip-path="url(#clip0_3471_9919)">
<path d="M19.3898 22.72C20.1534 22.0492 20.6945 21.1615 20.9408 20.1754C21.1871 19.1893 21.1271 18.1515 20.7686 17.2004C20.4102 16.2493 19.7703 15.43 18.9344 14.8517C18.0986 14.2734 17.1063 13.9637 16.0898 13.9637C15.0734 13.9637 14.0811 14.2734 13.2452 14.8517C12.4093 15.43 11.7695 16.2493 11.4111 17.2004C11.0526 18.1515 10.9926 19.1893 11.2389 20.1754C11.4852 21.1615 12.0262 22.0492 12.7898 22.72C11.39 23.3539 10.2023 24.3775 9.36882 25.6685C8.53534 26.9596 8.09132 28.4633 8.08984 30V31C8.08984 31.2652 8.1952 31.5196 8.38274 31.7071C8.57027 31.8946 8.82463 32 9.08984 32H12.0898C12.3551 32 12.6094 31.8946 12.797 31.7071C12.9845 31.5196 13.0898 31.2652 13.0898 31C13.0898 30.7348 12.9845 30.4804 12.797 30.2929C12.6094 30.1054 12.3551 30 12.0898 30H10.0898C10.0898 28.4087 10.722 26.8826 11.8472 25.7574C12.9724 24.6321 14.4985 24 16.0898 24C17.6811 24 19.2073 24.6321 20.3325 25.7574C21.4577 26.8826 22.0898 28.4087 22.0898 30H16.0898C15.8246 30 15.5703 30.1054 15.3827 30.2929C15.1952 30.4804 15.0898 30.7348 15.0898 31C15.0898 31.2652 15.1952 31.5196 15.3827 31.7071C15.5703 31.8946 15.8246 32 16.0898 32H23.0898C23.3551 32 23.6094 31.8946 23.797 31.7071C23.9845 31.5196 24.0898 31.2652 24.0898 31V30C24.0884 28.4633 23.6443 26.9596 22.8109 25.6685C21.9774 24.3775 20.7897 23.3539 19.3898 22.72ZM13.0898 19C13.0898 18.4067 13.2658 17.8266 13.5954 17.3333C13.9251 16.8399 14.3936 16.4554 14.9418 16.2284C15.49 16.0013 16.0932 15.9419 16.6751 16.0576C17.2571 16.1734 17.7916 16.4591 18.2112 16.8787C18.6307 17.2982 18.9164 17.8328 19.0322 18.4147C19.148 18.9967 19.0885 19.5999 18.8615 20.148C18.6344 20.6962 18.2499 21.1648 17.7566 21.4944C17.2632 21.824 16.6832 22 16.0898 22C15.2942 22 14.5311 21.6839 13.9685 21.1213C13.4059 20.5587 13.0898 19.7956 13.0898 19Z" fill="#000033"/>
<path d="M18.692 10C18.322 10 18.252 9.9 16.092 8.76L13.962 9.88C13.7973 9.9662 13.6117 10.0047 13.4262 9.9913C13.2407 9.97785 13.0626 9.91293 12.912 9.80386C12.7614 9.69478 12.6441 9.54586 12.5735 9.37382C12.5028 9.20179 12.4816 9.01346 12.512 8.83L12.912 6.46L11.192 4.77C11.0602 4.63982 10.967 4.47555 10.9231 4.29552C10.8791 4.1155 10.886 3.9268 10.9431 3.75048C11.0001 3.57417 11.105 3.41717 11.2461 3.29701C11.3872 3.17685 11.5589 3.09826 11.742 3.07L14.092 2.72L15.192 0.559998C15.2739 0.390927 15.4018 0.24834 15.561 0.148571C15.7201 0.0488029 15.9042 -0.00411224 16.092 -0.00411224C16.2799 -0.00411224 16.464 0.0488029 16.6231 0.148571C16.7823 0.24834 16.9102 0.390927 16.992 0.559998L18.092 2.72L20.482 3.07C20.6652 3.09826 20.8369 3.17685 20.978 3.29701C21.119 3.41717 21.224 3.57417 21.281 3.75048C21.338 3.9268 21.345 4.1155 21.301 4.29552C21.257 4.47555 21.1639 4.63982 21.032 4.77L19.272 6.46L19.672 8.83C19.6967 8.97314 19.69 9.11994 19.6522 9.26019C19.6144 9.40044 19.5465 9.53078 19.4532 9.64213C19.3599 9.75348 19.2435 9.84318 19.1121 9.90498C18.9806 9.96678 18.8373 9.99921 18.692 10V10ZM17.362 7.17C17.092 5.6 17.092 5.83 18.152 4.75C16.632 4.53 16.802 4.69 16.092 3.26C15.382 4.69 15.562 4.53 14.032 4.75C15.132 5.82 15.092 5.6 14.822 7.17C16.192 6.45 15.962 6.44 17.362 7.17Z" fill="#05058C"/>
<path d="M8.68814 17C8.31814 17 8.24814 16.9 6.08814 15.76L3.95814 16.88C3.79737 16.9624 3.61729 16.9997 3.43702 16.9879C3.25676 16.9762 3.08304 16.9158 2.93433 16.8133C2.78562 16.7107 2.66746 16.5698 2.59242 16.4055C2.51738 16.2411 2.48825 16.0595 2.50814 15.88L2.90814 13.51L1.18814 11.77C1.05625 11.6398 0.963129 11.4755 0.919169 11.2955C0.875209 11.1155 0.882137 10.9268 0.939181 10.7505C0.996224 10.5742 1.10114 10.4172 1.24222 10.297C1.3833 10.1769 1.55499 10.0983 1.73814 10.07L4.08814 9.72L5.18814 7.56C5.27002 7.39093 5.39787 7.24834 5.55705 7.14857C5.71622 7.0488 5.90028 6.99589 6.08814 6.99589C6.27599 6.99589 6.46005 7.0488 6.61922 7.14857C6.7784 7.24834 6.90625 7.39093 6.98814 7.56L8.08814 9.72L10.4781 10.07C10.6613 10.0983 10.833 10.1769 10.9741 10.297C11.1151 10.4172 11.22 10.5742 11.2771 10.7505C11.3341 10.9268 11.3411 11.1155 11.2971 11.2955C11.2531 11.4755 11.16 11.6398 11.0281 11.77L9.26814 13.46L9.66814 15.83C9.69283 15.9731 9.68605 16.1199 9.64826 16.2602C9.61046 16.4004 9.54257 16.5308 9.4493 16.6421C9.35603 16.7535 9.23962 16.8432 9.10817 16.905C8.97672 16.9668 8.83339 16.9992 8.68814 17V17ZM7.35814 14.17C7.08814 12.6 7.08814 12.83 8.14814 11.75C6.62814 11.53 6.79814 11.69 6.08814 10.26C5.37814 11.69 5.55814 11.53 4.02814 11.75C5.12814 12.82 5.08814 12.6 4.81814 14.17C6.18814 13.45 5.95814 13.44 7.35814 14.17Z" fill="#05058C"/>
<path d="M28.6881 17C28.3181 17 28.2481 16.9 26.0881 15.76L23.9581 16.88C23.7974 16.9624 23.6173 16.9997 23.437 16.9879C23.2568 16.9762 23.083 16.9158 22.9343 16.8133C22.7856 16.7107 22.6675 16.5698 22.5924 16.4055C22.5174 16.2411 22.4883 16.0595 22.5081 15.88L22.9081 13.51L21.1881 11.77C21.0562 11.6398 20.9631 11.4755 20.9192 11.2955C20.8752 11.1155 20.8821 10.9268 20.9392 10.7505C20.9962 10.5742 21.1011 10.4172 21.2422 10.297C21.3833 10.1769 21.555 10.0983 21.7381 10.07L24.0881 9.72L25.1881 7.56C25.27 7.39093 25.3979 7.24834 25.557 7.14857C25.7162 7.0488 25.9003 6.99589 26.0881 6.99589C26.276 6.99589 26.46 7.0488 26.6192 7.14857C26.7784 7.24834 26.9063 7.39093 26.9881 7.56L28.0881 9.72L30.4781 10.07C30.6613 10.0983 30.833 10.1769 30.9741 10.297C31.1151 10.4172 31.22 10.5742 31.2771 10.7505C31.3341 10.9268 31.3411 11.1155 31.2971 11.2955C31.2531 11.4755 31.16 11.6398 31.0281 11.77L29.3081 13.46L29.7081 15.83C29.7335 15.9765 29.7259 16.1268 29.6858 16.27C29.6458 16.4132 29.5743 16.5457 29.4766 16.6577C29.3789 16.7698 29.2574 16.8587 29.121 16.9179C28.9846 16.9771 28.8367 17.0052 28.6881 17ZM27.3581 14.17C27.0881 12.6 27.0381 12.83 28.1481 11.75C26.6281 11.53 26.7981 11.69 26.0881 10.26C25.3781 11.69 25.5581 11.53 24.0281 11.75C25.1281 12.82 25.0881 12.6 24.8181 14.17C26.1881 13.45 25.9581 13.44 27.3581 14.17V14.17Z" fill="#05058C"/>
</g>
<defs>
<clipPath id="clip0_3471_9919">
<rect width="32" height="32" fill="white" transform="translate(0.0898438)"/>
</clipPath>
</defs>
</svg>
