<svg width="33" height="32" viewBox="0 0 33 32" fill="none" xmlns="http://www.w3.org/2000/svg">
<g clip-path="url(#clip0_3471_9891)">
<path d="M3.28129 19.73C2.94929 18.5145 2.78113 17.26 2.78129 16C2.78129 15.7348 2.67593 15.4804 2.48839 15.2929C2.30086 15.1054 2.0465 15 1.78129 15C1.51607 15 1.26172 15.1054 1.07418 15.2929C0.886643 15.4804 0.781286 15.7348 0.781286 16C0.778201 17.4432 0.973358 18.8799 1.36129 20.27C1.39282 20.3984 1.44951 20.5193 1.52807 20.6256C1.60663 20.732 1.7055 20.8217 1.81896 20.8896C1.93242 20.9575 2.05821 21.0022 2.18906 21.0211C2.31992 21.0401 2.45323 21.0329 2.58129 21C2.71252 20.9657 2.8354 20.905 2.94244 20.8217C3.04949 20.7383 3.13845 20.6341 3.20394 20.5153C3.26942 20.3965 3.31004 20.2656 3.32334 20.1306C3.33664 19.9956 3.32233 19.8593 3.28129 19.73V19.73Z" fill="#000033"/>
<path d="M16.7812 -9.35779e-07C14.5071 -0.00626527 12.2582 0.477253 10.1875 1.41768C8.11685 2.3581 6.27297 3.73338 4.78125 5.45V5C4.78125 4.73478 4.67589 4.48043 4.48836 4.29289C4.30082 4.10536 4.04647 4 3.78125 4C3.51603 4 3.26168 4.10536 3.07414 4.29289C2.88661 4.48043 2.78125 4.73478 2.78125 5V8C2.78125 8.26521 2.88661 8.51957 3.07414 8.7071C3.26168 8.89464 3.51603 9 3.78125 9H6.78125C7.04647 9 7.30082 8.89464 7.48836 8.7071C7.67589 8.51957 7.78125 8.26521 7.78125 8C7.78125 7.73478 7.67589 7.48043 7.48836 7.29289C7.30082 7.10536 7.04647 7 6.78125 7H6.09125C7.39394 5.42963 9.02796 4.16695 10.8762 3.3025C12.7243 2.43806 14.7409 1.99326 16.7812 2C20.4943 2 24.0552 3.47499 26.6807 6.1005C29.3063 8.72601 30.7812 12.287 30.7812 16C30.7812 16.2652 30.8866 16.5196 31.0741 16.7071C31.2617 16.8946 31.516 17 31.7812 17C32.0465 17 32.3008 16.8946 32.4884 16.7071C32.6759 16.5196 32.7812 16.2652 32.7812 16C32.7812 11.7565 31.0955 7.68687 28.095 4.68629C25.0944 1.68571 21.0247 -9.35779e-07 16.7812 -9.35779e-07V-9.35779e-07Z" fill="#000033"/>
<path d="M29.7847 23H26.7847C26.5195 23 26.2651 23.1054 26.0776 23.2929C25.8901 23.4805 25.7847 23.7348 25.7847 24C25.7847 24.2652 25.8901 24.5196 26.0776 24.7071C26.2651 24.8947 26.5195 25 26.7847 25H27.4747C26.0274 26.7181 24.1879 28.0626 22.1116 28.9201C20.0353 29.7776 17.7831 30.1229 15.5453 29.9267C13.3074 29.7306 11.1496 28.9988 9.25415 27.7932C7.35865 26.5877 5.78109 24.9436 4.6547 23C4.52209 22.7693 4.30325 22.6007 4.04633 22.5313C3.7894 22.4619 3.51543 22.4974 3.2847 22.63C3.05396 22.7626 2.88535 22.9815 2.81596 23.2384C2.74657 23.4953 2.78209 23.7693 2.9147 24C4.18657 26.1991 5.9638 28.0637 8.09934 29.4396C10.2349 30.8155 12.6673 31.6631 15.1955 31.9123C17.7236 32.1615 20.2747 31.8051 22.6378 30.8726C25.0009 29.9402 27.1079 28.4584 28.7847 26.55V27C28.7847 27.2652 28.8901 27.5196 29.0776 27.7071C29.2651 27.8947 29.5195 28 29.7847 28C30.0499 28 30.3043 27.8947 30.4918 27.7071C30.6793 27.5196 30.7847 27.2652 30.7847 27V24C30.7847 23.7348 30.6793 23.4805 30.4918 23.2929C30.3043 23.1054 30.0499 23 29.7847 23Z" fill="#000033"/>
<path d="M24.1812 14.07C24.5173 13.6182 24.7542 13.1005 24.8764 12.5508C24.9986 12.0012 25.0033 11.4319 24.8904 10.8802C24.7774 10.3286 24.5492 9.80702 24.2208 9.34964C23.8923 8.89226 23.471 8.50937 22.9844 8.22604C22.4978 7.94271 21.9568 7.76532 21.3969 7.70546C20.837 7.64561 20.2707 7.70464 19.7352 7.87871C19.1997 8.05277 18.707 8.33794 18.2893 8.71556C17.8716 9.09317 17.5383 9.55473 17.3112 10.07C16.9614 9.99999 16.6011 9.99999 16.2512 10.07C16.0242 9.55473 15.6909 9.09317 15.2732 8.71556C14.8555 8.33794 14.3628 8.05277 13.8273 7.87871C13.2917 7.70464 12.7255 7.64561 12.1656 7.70546C11.6057 7.76532 11.0647 7.94271 10.5781 8.22604C10.0915 8.50937 9.67018 8.89226 9.34174 9.34964C9.01329 9.80702 8.78511 10.3286 8.67213 10.8802C8.55915 11.4319 8.56392 12.0012 8.68612 12.5508C8.80831 13.1005 9.04519 13.6182 9.38125 14.07C8.58137 14.6201 7.92692 15.3561 7.47406 16.2148C7.0212 17.0735 6.78347 18.0292 6.78125 19V20C6.78125 20.2652 6.88661 20.5196 7.07414 20.7071C7.26168 20.8947 7.51603 21 7.78125 21H10.7812V22C10.7812 22.2652 10.8866 22.5196 11.0741 22.7071C11.2617 22.8947 11.516 23 11.7812 23H21.7812C22.0465 23 22.3008 22.8947 22.4884 22.7071C22.6759 22.5196 22.7812 22.2652 22.7812 22V21H25.7812C26.0465 21 26.3008 20.8947 26.4884 20.7071C26.6759 20.5196 26.7812 20.2652 26.7812 20V19C26.779 18.0292 26.5413 17.0735 26.0884 16.2148C25.6356 15.3561 24.9811 14.6201 24.1812 14.07V14.07ZM22.7812 12C22.7812 12.5305 22.5705 13.0392 22.1955 13.4142C21.8204 13.7893 21.3117 14 20.7812 14C20.7782 13.3824 20.6321 12.7739 20.3545 12.2222C20.0769 11.6705 19.6753 11.1906 19.1812 10.82C19.4321 10.4855 19.7814 10.2381 20.1802 10.1124C20.5789 9.98672 21.007 9.98916 21.4043 10.1194C21.8016 10.2496 22.1481 10.5011 22.395 10.8384C22.642 11.1757 22.7771 11.582 22.7812 12ZM18.7812 14C18.7812 14.3956 18.664 14.7823 18.4442 15.1112C18.2244 15.4401 17.9121 15.6964 17.5466 15.8478C17.1812 15.9992 16.779 16.0388 16.3911 15.9616C16.0031 15.8844 15.6467 15.6939 15.367 15.4142C15.0873 15.1345 14.8968 14.7782 14.8197 14.3902C14.7425 14.0022 14.7821 13.6001 14.9335 13.2347C15.0849 12.8692 15.3412 12.5568 15.6701 12.3371C15.999 12.1173 16.3857 12 16.7812 12C17.3117 12 17.8204 12.2107 18.1955 12.5858C18.5705 12.9609 18.7812 13.4696 18.7812 14ZM14.3812 10.82C13.8872 11.1906 13.4856 11.6705 13.208 12.2222C12.9304 12.7739 12.7843 13.3824 12.7812 14C12.4387 14.0026 12.1012 13.917 11.8011 13.7517C11.5011 13.5863 11.2486 13.3467 11.0677 13.0557C10.8869 12.7647 10.7839 12.4321 10.7685 12.0899C10.7531 11.7477 10.8259 11.4072 10.9799 11.1012C11.1339 10.7951 11.3639 10.5338 11.6479 10.3422C11.9319 10.1505 12.2603 10.0351 12.6017 10.0069C12.9432 9.97866 13.2861 10.0386 13.5977 10.181C13.9093 10.3234 14.1791 10.5434 14.3812 10.82V10.82ZM8.78125 19C8.78206 18.2811 8.9766 17.5758 9.34438 16.9581C9.71217 16.3404 10.2396 15.8333 10.8712 15.49C11.4529 15.8229 12.1111 15.9987 12.7812 16C13.4512 16 13.2312 15.84 13.3812 16.07C12.3418 16.7857 11.5544 17.811 11.1312 19H8.78125ZM12.7812 21C12.7821 20.2811 12.9766 19.5758 13.3444 18.9581C13.7122 18.3404 14.2396 17.8333 14.8712 17.49C15.4521 17.8196 16.1084 17.9929 16.7762 17.9929C17.4441 17.9929 18.1004 17.8196 18.6812 17.49C19.3205 17.8251 19.8548 18.3301 20.2253 18.9494C20.5959 19.5687 20.7882 20.2783 20.7812 21H12.7812ZM22.4312 19C22.0193 17.8049 21.2295 16.7764 20.1812 16.07C20.3312 15.84 20.1112 16 20.7812 16C21.4514 15.9987 22.1096 15.8229 22.6912 15.49C23.3229 15.8333 23.8503 16.3404 24.2181 16.9581C24.5859 17.5758 24.7804 18.2811 24.7812 19H22.4312Z" fill="#05058C"/>
</g>
<defs>
<clipPath id="clip0_3471_9891">
<rect width="32" height="32" fill="white" transform="translate(0.78125)"/>
</clipPath>
</defs>
</svg>
