<svg width="33" height="32" viewBox="0 0 33 32" fill="none" xmlns="http://www.w3.org/2000/svg">
<g clip-path="url(#clip0_3471_9905)">
<path d="M24.3164 14H17.3164V10C17.3164 9.73478 17.2111 9.48043 17.0235 9.29289C16.836 9.10536 16.5816 9 16.3164 9C16.0512 9 15.7968 9.10536 15.6093 9.29289C15.4218 9.48043 15.3164 9.73478 15.3164 10V14H8.31641C7.52076 14 6.7577 14.3161 6.19509 14.8787C5.63248 15.4413 5.31641 16.2044 5.31641 17V22C5.31641 22.2652 5.42176 22.5196 5.6093 22.7071C5.79684 22.8946 6.05119 23 6.31641 23C6.58162 23 6.83598 22.8946 7.02351 22.7071C7.21105 22.5196 7.31641 22.2652 7.31641 22V17C7.31641 16.7348 7.42176 16.4804 7.6093 16.2929C7.79684 16.1054 8.05119 16 8.31641 16H24.3164C24.5816 16 24.836 16.1054 25.0235 16.2929C25.2111 16.4804 25.3164 16.7348 25.3164 17V22C25.3164 22.2652 25.4218 22.5196 25.6093 22.7071C25.7968 22.8946 26.0512 23 26.3164 23C26.5816 23 26.836 22.8946 27.0235 22.7071C27.2111 22.5196 27.3164 22.2652 27.3164 22V17C27.3164 16.2044 27.0003 15.4413 26.4377 14.8787C25.8751 14.3161 25.1121 14 24.3164 14Z" fill="#05058C"/>
<path d="M21.3164 25H11.3164C11.0512 25 10.7968 25.1054 10.6093 25.2929C10.4218 25.4804 10.3164 25.7348 10.3164 26C10.3164 26.2652 10.4218 26.5196 10.6093 26.7071C10.7968 26.8946 11.0512 27 11.3164 27H21.3164C21.5816 27 21.836 26.8946 22.0235 26.7071C22.2111 26.5196 22.3164 26.2652 22.3164 26C22.3164 25.7348 22.2111 25.4804 22.0235 25.2929C21.836 25.1054 21.5816 25 21.3164 25Z" fill="#05058C"/>
<path d="M20.3164 11H12.3164C11.786 11 11.2773 10.7893 10.9022 10.4142C10.5271 10.0391 10.3164 9.53043 10.3164 9V3C10.3164 2.46957 10.5271 1.96086 10.9022 1.58579C11.2773 1.21071 11.786 1 12.3164 1H20.3164C20.8468 1 21.3555 1.21071 21.7306 1.58579C22.1057 1.96086 22.3164 2.46957 22.3164 3V4C22.3164 4.26522 22.2111 4.51957 22.0235 4.70711C21.836 4.89464 21.5816 5 21.3164 5C21.0512 5 20.7968 4.89464 20.6093 4.70711C20.4218 4.51957 20.3164 4.26522 20.3164 4V3H12.3164V9H20.3164V8C20.3164 7.73478 20.4218 7.48043 20.6093 7.29289C20.7968 7.10536 21.0512 7 21.3164 7C21.5816 7 21.836 7.10536 22.0235 7.29289C22.2111 7.48043 22.3164 7.73478 22.3164 8V9C22.3164 9.53043 22.1057 10.0391 21.7306 10.4142C21.3555 10.7893 20.8468 11 20.3164 11Z" fill="#000033"/>
<path d="M10.3164 31H2.31641C1.78597 31 1.27727 30.7893 0.902193 30.4142C0.52712 30.0391 0.316406 29.5304 0.316406 29V23C0.316406 22.4696 0.52712 21.9609 0.902193 21.5858C1.27727 21.2107 1.78597 21 2.31641 21H10.3164C10.8468 21 11.3555 21.2107 11.7306 21.5858C12.1057 21.9609 12.3164 22.4696 12.3164 23V29C12.3164 29.5304 12.1057 30.0391 11.7306 30.4142C11.3555 30.7893 10.8468 31 10.3164 31ZM2.31641 23V29H10.3164V23H2.31641Z" fill="#000033"/>
<path d="M30.3164 31H22.3164C21.786 31 21.2773 30.7893 20.9022 30.4142C20.5271 30.0391 20.3164 29.5304 20.3164 29V23C20.3164 22.4696 20.5271 21.9609 20.9022 21.5858C21.2773 21.2107 21.786 21 22.3164 21H30.3164C30.8468 21 31.3555 21.2107 31.7306 21.5858C32.1057 21.9609 32.3164 22.4696 32.3164 23V29C32.3164 29.5304 32.1057 30.0391 31.7306 30.4142C31.3555 30.7893 30.8468 31 30.3164 31ZM22.3164 23V29H30.3164V23H22.3164Z" fill="#000033"/>
<path d="M17.3164 7H15.3164C15.0512 7 14.7968 6.89464 14.6093 6.70711C14.4218 6.51957 14.3164 6.26522 14.3164 6C14.3164 5.73478 14.4218 5.48043 14.6093 5.29289C14.7968 5.10536 15.0512 5 15.3164 5H17.3164C17.5816 5 17.836 5.10536 18.0235 5.29289C18.211 5.48043 18.3164 5.73478 18.3164 6C18.3164 6.26522 18.211 6.51957 18.0235 6.70711C17.836 6.89464 17.5816 7 17.3164 7Z" fill="#05058C"/>
<path d="M7.31641 27H5.31641C5.05119 27 4.79684 26.8946 4.6093 26.7071C4.42176 26.5196 4.31641 26.2652 4.31641 26C4.31641 25.7348 4.42176 25.4804 4.6093 25.2929C4.79684 25.1054 5.05119 25 5.31641 25H7.31641C7.58162 25 7.83598 25.1054 8.02351 25.2929C8.21105 25.4804 8.31641 25.7348 8.31641 26C8.31641 26.2652 8.21105 26.5196 8.02351 26.7071C7.83598 26.8946 7.58162 27 7.31641 27Z" fill="#05058C"/>
<path d="M27.3164 27H25.3164C25.0512 27 24.7968 26.8946 24.6093 26.7071C24.4218 26.5196 24.3164 26.2652 24.3164 26C24.3164 25.7348 24.4218 25.4804 24.6093 25.2929C24.7968 25.1054 25.0512 25 25.3164 25H27.3164C27.5816 25 27.836 25.1054 28.0235 25.2929C28.211 25.4804 28.3164 25.7348 28.3164 26C28.3164 26.2652 28.211 26.5196 28.0235 26.7071C27.836 26.8946 27.5816 27 27.3164 27Z" fill="#05058C"/>
</g>
<defs>
<clipPath id="clip0_3471_9905">
<rect width="32" height="32" fill="white" transform="translate(0.316406)"/>
</clipPath>
</defs>
</svg>
