<svg width="33" height="32" viewBox="0 0 33 32" fill="none" xmlns="http://www.w3.org/2000/svg">
<g clip-path="url(#clip0_3471_9926)">
<path d="M31.5977 23H3.59766V6C3.59766 5.73478 3.70301 5.48043 3.89055 5.29289C4.07809 5.10536 4.33244 5 4.59766 5H28.5977C28.8629 5 29.1172 5.10536 29.3048 5.29289C29.4923 5.48043 29.5977 5.73478 29.5977 6V20C29.5977 20.2652 29.703 20.5196 29.8905 20.7071C30.0781 20.8946 30.3324 21 30.5977 21C30.8629 21 31.1172 20.8946 31.3048 20.7071C31.4923 20.5196 31.5977 20.2652 31.5977 20V6C31.5977 5.20435 31.2816 4.44129 30.719 3.87868C30.1564 3.31607 29.3933 3 28.5977 3H4.59766C3.80201 3 3.03894 3.31607 2.47634 3.87868C1.91373 4.44129 1.59766 5.20435 1.59766 6V23C1.33244 23 1.07809 23.1054 0.890549 23.2929C0.703013 23.4804 0.597656 23.7348 0.597656 24L0.597656 26C0.597656 26.7956 0.913727 27.5587 1.47634 28.1213C2.03894 28.6839 2.80201 29 3.59766 29H29.5977C30.3933 29 31.1564 28.6839 31.719 28.1213C32.2816 27.5587 32.5977 26.7956 32.5977 26V24C32.5977 23.7348 32.4923 23.4804 32.3048 23.2929C32.1172 23.1054 31.8629 23 31.5977 23ZM30.5977 26C30.5977 26.2652 30.4923 26.5196 30.3048 26.7071C30.1172 26.8946 29.8629 27 29.5977 27H3.59766C3.33244 27 3.07809 26.8946 2.89055 26.7071C2.70301 26.5196 2.59766 26.2652 2.59766 26V25H30.5977V26Z" fill="#000033"/>
<path d="M11.5956 18C11.464 18.0008 11.3336 17.9755 11.2117 17.9258C11.0899 17.876 10.9791 17.8027 10.8856 17.71L7.88564 14.71C7.79191 14.617 7.71752 14.5064 7.66675 14.3846C7.61598 14.2627 7.58984 14.132 7.58984 14C7.58984 13.868 7.61598 13.7373 7.66675 13.6154C7.71752 13.4936 7.79191 13.383 7.88564 13.29L10.8856 10.29C11.0739 10.1017 11.3293 9.99591 11.5956 9.99591C11.8619 9.99591 12.1173 10.1017 12.3056 10.29C12.4939 10.4783 12.5997 10.7337 12.5997 11C12.5997 11.2663 12.4939 11.5217 12.3056 11.71L10.0056 14L12.3056 16.29C12.4467 16.4299 12.5429 16.6086 12.5819 16.8033C12.621 16.9981 12.6012 17.2 12.525 17.3835C12.4488 17.5669 12.3198 17.7235 12.1543 17.8333C11.9887 17.9431 11.7943 18.0012 11.5956 18Z" fill="#05058C"/>
<path d="M21.5957 18C21.397 18.0012 21.2026 17.9431 21.037 17.8333C20.8715 17.7235 20.7425 17.5669 20.6663 17.3835C20.5901 17.2 20.5703 16.9981 20.6094 16.8033C20.6484 16.6086 20.7446 16.4299 20.8857 16.29L23.1857 14L20.8857 11.71C20.7924 11.6168 20.7185 11.5061 20.668 11.3843C20.6175 11.2624 20.5916 11.1319 20.5916 11C20.5916 10.7337 20.6974 10.4783 20.8857 10.29C21.074 10.1017 21.3294 9.99591 21.5957 9.99591C21.7275 9.99591 21.8581 10.0219 21.9799 10.0723C22.1017 10.1228 22.2124 10.1968 22.3057 10.29L25.3057 13.29C25.3994 13.383 25.4738 13.4936 25.5246 13.6154C25.5753 13.7373 25.6015 13.868 25.6015 14C25.6015 14.132 25.5753 14.2627 25.5246 14.3846C25.4738 14.5064 25.3994 14.617 25.3057 14.71L22.3057 17.71C22.2122 17.8027 22.1014 17.876 21.9796 17.9258C21.8577 17.9755 21.7273 18.0008 21.5957 18Z" fill="#05058C"/>
<path d="M15.5984 20C15.4484 20.003 15.2996 19.9723 15.1632 19.91C15.0267 19.8478 14.9059 19.7556 14.8099 19.6404C14.7139 19.5251 14.645 19.3898 14.6084 19.2443C14.5718 19.0988 14.5683 18.947 14.5984 18.8L16.5984 8.8C16.6514 8.53479 16.8076 8.3015 17.0327 8.15147C17.2577 8.00145 17.5332 7.94696 17.7984 8C18.0636 8.05305 18.2969 8.20927 18.4469 8.43432C18.5969 8.65936 18.6514 8.93479 18.5984 9.2L16.5984 19.2C16.5516 19.4293 16.4259 19.6349 16.2432 19.7811C16.0605 19.9272 15.8323 20.0047 15.5984 20V20Z" fill="#05058C"/>
</g>
<defs>
<clipPath id="clip0_3471_9926">
<rect width="32" height="32" fill="white" transform="translate(0.597656)"/>
</clipPath>
</defs>
</svg>
