<svg width="33" height="32" viewBox="0 0 33 32" fill="none" xmlns="http://www.w3.org/2000/svg">
<g clip-path="url(#clip0_3471_9898)">
<path d="M31.0156 15H26.0156C25.7504 15 25.4961 15.1054 25.3085 15.2929C25.121 15.4804 25.0156 15.7348 25.0156 16C25.0156 16.5304 24.8049 17.0391 24.4298 17.4142C24.0548 17.7893 23.5461 18 23.0156 18C22.4852 18 21.9765 17.7893 21.6014 17.4142C21.2263 17.0391 21.0156 16.5304 21.0156 16C21.0156 15.7348 20.9103 15.4804 20.7227 15.2929C20.5352 15.1054 20.2808 15 20.0156 15H17.0156V12.87C17.8716 12.6463 18.6293 12.1451 19.17 11.4448C19.7108 10.7445 20.0041 9.88475 20.0041 9C20.0041 8.11525 19.7108 7.25546 19.17 6.5552C18.6293 5.85494 17.8716 5.35373 17.0156 5.13V2C17.0156 1.73478 16.9103 1.48043 16.7227 1.29289C16.5352 1.10536 16.2808 1 16.0156 1H3.01562C2.21998 1 1.45691 1.31607 0.894305 1.87868C0.331695 2.44129 0.015625 3.20435 0.015625 4L0.015625 28C0.015625 28.7956 0.331695 29.5587 0.894305 30.1213C1.45691 30.6839 2.21998 31 3.01562 31H6.01562C6.28084 31 6.53519 30.8946 6.72273 30.7071C6.91027 30.5196 7.01562 30.2652 7.01562 30C7.01562 29.7348 6.91027 29.4804 6.72273 29.2929C6.53519 29.1054 6.28084 29 6.01562 29H3.01562C2.75041 29 2.49605 28.8946 2.30852 28.7071C2.12098 28.5196 2.01562 28.2652 2.01562 28V17H6.01562C6.28084 17 6.53519 16.8946 6.72273 16.7071C6.91027 16.5196 7.01562 16.2652 7.01562 16C7.01562 15.4696 7.22634 14.9609 7.60141 14.5858C7.97648 14.2107 8.48519 14 9.01562 14C9.54606 14 10.0548 14.2107 10.4298 14.5858C10.8049 14.9609 11.0156 15.4696 11.0156 16C11.0156 16.2652 11.121 16.5196 11.3085 16.7071C11.4961 16.8946 11.7504 17 12.0156 17H15.0156V19.13C14.1596 19.3537 13.402 19.8549 12.8612 20.5552C12.3204 21.2555 12.0271 22.1152 12.0271 23C12.0271 23.8848 12.3204 24.7445 12.8612 25.4448C13.402 26.1451 14.1596 26.6463 15.0156 26.87V29H10.0156C9.75041 29 9.49605 29.1054 9.30852 29.2929C9.12098 29.4804 9.01562 29.7348 9.01562 30C9.01562 30.2652 9.12098 30.5196 9.30852 30.7071C9.49605 30.8946 9.75041 31 10.0156 31H29.0156C29.8113 31 30.5743 30.6839 31.1369 30.1213C31.6996 29.5587 32.0156 28.7956 32.0156 28V16C32.0156 15.7348 31.9103 15.4804 31.7227 15.2929C31.5352 15.1054 31.2808 15 31.0156 15ZM12.8856 15C12.6619 14.144 12.1607 13.3863 11.4604 12.8456C10.7602 12.3048 9.90038 12.0115 9.01562 12.0115C8.13087 12.0115 7.27109 12.3048 6.57083 12.8456C5.87057 13.3863 5.36935 14.144 5.14562 15H2.01562V4C2.01562 3.73478 2.12098 3.48043 2.30852 3.29289C2.49605 3.10536 2.75041 3 3.01562 3H15.0156V6C15.0156 6.26522 15.121 6.51957 15.3085 6.70711C15.4961 6.89464 15.7504 7 16.0156 7C16.5461 7 17.0548 7.21071 17.4298 7.58579C17.8049 7.96086 18.0156 8.46957 18.0156 9C18.0156 9.53043 17.8049 10.0391 17.4298 10.4142C17.0548 10.7893 16.5461 11 16.0156 11C15.7504 11 15.4961 11.1054 15.3085 11.2929C15.121 11.4804 15.0156 11.7348 15.0156 12V15H12.8856ZM30.0156 28C30.0156 28.2652 29.9103 28.5196 29.7227 28.7071C29.5352 28.8946 29.2808 29 29.0156 29H17.0156V26C17.0156 25.7348 16.9103 25.4804 16.7227 25.2929C16.5352 25.1054 16.2808 25 16.0156 25C15.4852 25 14.9765 24.7893 14.6014 24.4142C14.2263 24.0391 14.0156 23.5304 14.0156 23C14.0156 22.4696 14.2263 21.9609 14.6014 21.5858C14.9765 21.2107 15.4852 21 16.0156 21C16.2808 21 16.5352 20.8946 16.7227 20.7071C16.9103 20.5196 17.0156 20.2652 17.0156 20V17H19.1456C19.3694 17.856 19.8706 18.6137 20.5708 19.1544C21.2711 19.6952 22.1309 19.9885 23.0156 19.9885C23.9004 19.9885 24.7602 19.6952 25.4604 19.1544C26.1607 18.6137 26.6619 17.856 26.8856 17H30.0156V28Z" fill="#000033"/>
<path d="M23.0156 20C22.1294 19.9993 21.2684 19.7044 20.5679 19.1614C19.8675 18.6184 19.3672 17.8581 19.1456 17H16.0156C15.7504 17 15.4961 16.8946 15.3085 16.7071C15.121 16.5196 15.0156 16.2652 15.0156 16V12C15.0156 11.7348 15.121 11.4804 15.3085 11.2929C15.4961 11.1054 15.7504 11 16.0156 11C16.5461 11 17.0548 10.7893 17.4298 10.4142C17.8049 10.0391 18.0156 9.53043 18.0156 9C18.0156 8.46957 17.8049 7.96086 17.4298 7.58579C17.0548 7.21071 16.5461 7 16.0156 7C15.7504 7 15.4961 6.89464 15.3085 6.70711C15.121 6.51957 15.0156 6.26522 15.0156 6V2C15.0156 1.73478 15.121 1.48043 15.3085 1.29289C15.4961 1.10536 15.7504 1 16.0156 1H29.0156C29.8113 1 30.5743 1.31607 31.1369 1.87868C31.6996 2.44129 32.0156 3.20435 32.0156 4V16C32.0156 16.2652 31.9103 16.5196 31.7227 16.7071C31.5352 16.8946 31.2808 17 31.0156 17H26.8856C26.6641 17.8581 26.1638 18.6184 25.4633 19.1614C24.7629 19.7044 23.9019 19.9993 23.0156 20ZM17.0156 15H20.0156C20.2808 15 20.5352 15.1054 20.7227 15.2929C20.9103 15.4804 21.0156 15.7348 21.0156 16C21.0156 16.5304 21.2263 17.0391 21.6014 17.4142C21.9765 17.7893 22.4852 18 23.0156 18C23.5461 18 24.0548 17.7893 24.4298 17.4142C24.8049 17.0391 25.0156 16.5304 25.0156 16C25.0156 15.7348 25.121 15.4804 25.3085 15.2929C25.4961 15.1054 25.7504 15 26.0156 15H30.0156V4C30.0156 3.73478 29.9103 3.48043 29.7227 3.29289C29.5352 3.10536 29.2808 3 29.0156 3H17.0156V5.13C17.8716 5.35373 18.6293 5.85494 19.17 6.5552C19.7108 7.25546 20.0041 8.11525 20.0041 9C20.0041 9.88475 19.7108 10.7445 19.17 11.4448C18.6293 12.1451 17.8716 12.6463 17.0156 12.87V15Z" fill="#05058C"/>
</g>
<defs>
<clipPath id="clip0_3471_9898">
<rect width="32" height="32" fill="white" transform="translate(0.015625)"/>
</clipPath>
</defs>
</svg>
