<svg width="41" height="40" viewBox="0 0 41 40" fill="none" xmlns="http://www.w3.org/2000/svg">
<g clip-path="url(#clip0_5203_31039)">
<rect width="40" height="40" transform="translate(0.5)" fill="white"/>
<path d="M4.25 3.75H18.7C18.9621 3.74932 19.2177 3.83102 19.4308 3.98355C19.6439 4.13608 19.8036 4.35172 19.8875 4.6L21.25 8.75C21.5093 9.48346 21.9903 10.1181 22.6264 10.566C23.2624 11.014 24.0221 11.253 24.8 11.25H39.25C39.5815 11.25 39.8995 11.1183 40.1339 10.8839C40.3683 10.6495 40.5 10.3315 40.5 10V7.5C40.5 6.50544 40.1049 5.55161 39.4017 4.84835C38.6984 4.14509 37.7446 3.75 36.75 3.75H22.225C21.9671 3.02056 21.4899 2.38875 20.8588 1.94117C20.2278 1.4936 19.4737 1.25217 18.7 1.25H4.25C3.25544 1.25 2.30161 1.64509 1.59835 2.34835C0.895088 3.05161 0.5 4.00544 0.5 5L0.5 35C0.5 35.9946 0.895088 36.9484 1.59835 37.6517C2.30161 38.3549 3.25544 38.75 4.25 38.75H36.75C37.7446 38.75 38.6984 38.3549 39.4017 37.6517C40.1049 36.9484 40.5 35.9946 40.5 35V15C40.5 14.6685 40.3683 14.3505 40.1339 14.1161C39.8995 13.8817 39.5815 13.75 39.25 13.75C38.9185 13.75 38.6005 13.8817 38.3661 14.1161C38.1317 14.3505 38 14.6685 38 15V35C38 35.3315 37.8683 35.6495 37.6339 35.8839C37.3995 36.1183 37.0815 36.25 36.75 36.25H4.25C3.91848 36.25 3.60054 36.1183 3.36612 35.8839C3.1317 35.6495 3 35.3315 3 35V5C3 4.66848 3.1317 4.35054 3.36612 4.11612C3.60054 3.8817 3.91848 3.75 4.25 3.75V3.75ZM38 7.5V8.75H24.8C24.5274 8.76423 24.2577 8.68884 24.032 8.53536C23.8062 8.38187 23.637 8.15873 23.55 7.9L23.0625 6.25H36.75C37.0815 6.25 37.3995 6.3817 37.6339 6.61612C37.8683 6.85054 38 7.16848 38 7.5Z" fill="#000033"/>
<path d="M40.1384 36.6115L33.7509 30.224C35.0744 28.4519 35.6776 26.2444 35.4393 24.0455C35.201 21.8467 34.1388 19.8196 32.4665 18.3722C30.7942 16.9248 28.6357 16.1644 26.4254 16.244C24.2151 16.3235 22.117 17.2372 20.5531 18.8011C18.9891 20.365 18.0755 22.4632 17.9959 24.6735C17.9163 26.8838 18.6767 29.0422 20.1242 30.7146C21.5716 32.3869 23.5986 33.449 25.7975 33.6873C27.9963 33.9256 30.2039 33.3224 31.9759 31.999L38.3634 38.3865C38.4802 38.5023 38.6188 38.594 38.7711 38.6562C38.9234 38.7184 39.0864 38.7499 39.2509 38.749C39.4992 38.7504 39.7423 38.6779 39.9492 38.5407C40.1561 38.4034 40.3174 38.2076 40.4127 37.9783C40.5079 37.749 40.5326 37.4966 40.4838 37.2531C40.435 37.0097 40.3147 36.7863 40.1384 36.6115ZM20.5009 24.999C20.5007 23.9714 20.7539 22.9597 21.2379 22.0533C21.722 21.1469 22.4221 20.3739 23.2762 19.8026C24.1303 19.2313 25.112 18.8795 26.1346 18.7781C27.1571 18.6768 28.1888 18.8291 29.1384 19.2216C30.0881 19.6142 30.9262 20.2348 31.5788 21.0285C32.2314 21.8222 32.6782 22.7646 32.8796 23.7722C33.0811 24.7798 33.031 25.8215 32.7339 26.8052C32.4367 27.7888 31.9016 28.684 31.1759 29.4115C30.3026 30.2871 29.1891 30.8839 27.9764 31.1263C26.7637 31.3688 25.5063 31.2461 24.3634 30.7737C23.2205 30.3013 22.2435 29.5004 21.5559 28.4724C20.8683 27.4445 20.5012 26.2357 20.5009 24.999V24.999Z" fill="#05058C"/>
<path d="M14.25 16.25H6.75C6.41848 16.25 6.10054 16.1183 5.86612 15.8839C5.6317 15.6495 5.5 15.3315 5.5 15C5.5 14.6685 5.6317 14.3505 5.86612 14.1161C6.10054 13.8817 6.41848 13.75 6.75 13.75H14.25C14.5815 13.75 14.8995 13.8817 15.1339 14.1161C15.3683 14.3505 15.5 14.6685 15.5 15C15.5 15.3315 15.3683 15.6495 15.1339 15.8839C14.8995 16.1183 14.5815 16.25 14.25 16.25Z" fill="#05058C"/>
<path d="M11.75 21.25H6.75C6.41848 21.25 6.10054 21.1183 5.86612 20.8839C5.6317 20.6495 5.5 20.3315 5.5 20C5.5 19.6685 5.6317 19.3505 5.86612 19.1161C6.10054 18.8817 6.41848 18.75 6.75 18.75H11.75C12.0815 18.75 12.3995 18.8817 12.6339 19.1161C12.8683 19.3505 13 19.6685 13 20C13 20.3315 12.8683 20.6495 12.6339 20.8839C12.3995 21.1183 12.0815 21.25 11.75 21.25Z" fill="#05058C"/>
</g>
<defs>
<clipPath id="clip0_5203_31039">
<rect width="40" height="40" fill="white" transform="translate(0.5)"/>
</clipPath>
</defs>
</svg>
