<svg width="41" height="40" viewBox="0 0 41 40" fill="none" xmlns="http://www.w3.org/2000/svg">
<g clip-path="url(#clip0_5203_31044)">
<rect width="40" height="40" transform="translate(0.5)" fill="white"/>
<path d="M39.362 33.337L32.262 26.2495C31.7936 25.7839 31.16 25.5225 30.4995 25.5225C29.8391 25.5225 29.2055 25.7839 28.737 26.2495L28.6245 26.362L26.937 24.6745C28.9888 22.2468 30.2163 19.23 30.4425 16.0595C30.6686 12.889 29.8818 9.72854 28.1954 7.03417C26.5091 4.33979 24.0104 2.25076 21.0599 1.06845C18.1093 -0.113853 14.8595 -0.328312 11.7792 0.456015C8.69888 1.24034 5.94735 2.98291 3.92155 5.43232C1.89575 7.88173 0.700418 10.9113 0.50799 14.0841C0.315562 17.2569 1.13599 20.4088 2.85092 23.085C4.56584 25.7613 7.0866 27.8237 10.0495 28.9745C10.2049 29.0483 10.3737 29.0893 10.5456 29.0948C10.7175 29.1004 10.8887 29.0704 11.0484 29.0068C11.2082 28.9432 11.3531 28.8473 11.4741 28.7251C11.5951 28.6029 11.6896 28.4571 11.7517 28.2967C11.8138 28.1363 11.8421 27.9649 11.8349 27.7931C11.8277 27.6213 11.7851 27.4528 11.7098 27.2982C11.6345 27.1436 11.5281 27.0062 11.3973 26.8946C11.2665 26.7829 11.1141 26.6995 10.9495 26.6495C8.04729 25.5208 5.67084 23.3494 4.28547 20.5606C2.90009 17.7717 2.60556 14.5662 3.45953 11.5716C4.31351 8.57694 6.25449 6.00889 8.90247 4.37022C11.5504 2.73154 14.7147 2.14024 17.7758 2.71209C20.8368 3.28393 23.5742 4.97774 25.452 7.46188C27.3298 9.94603 28.2127 13.0416 27.9279 16.1426C27.6432 19.2435 26.2112 22.1265 23.9124 24.2272C21.6136 26.3278 18.6135 27.4947 15.4995 27.4995C15.168 27.4995 14.8501 27.6312 14.6157 27.8656C14.3812 28.1 14.2495 28.418 14.2495 28.7495C14.2495 29.081 14.3812 29.399 14.6157 29.6334C14.8501 29.8678 15.168 29.9995 15.4995 29.9995C19.0463 30.0045 22.4779 28.7409 25.1745 26.437L26.862 28.1245L26.7495 28.237C26.2839 28.7054 26.0226 29.339 26.0226 29.9995C26.0226 30.66 26.2839 31.2936 26.7495 31.762L33.837 38.862C34.5821 39.5305 35.5551 39.8879 36.5557 39.8608C37.5564 39.8337 38.5085 39.4241 39.2164 38.7163C39.9242 38.0085 40.3338 37.0563 40.3609 36.0557C40.388 35.055 40.0305 34.0821 39.362 33.337V33.337ZM36.5995 37.4995C36.4157 37.5002 36.2336 37.4641 36.064 37.3933C35.8944 37.3224 35.7407 37.2183 35.612 37.087L28.512 29.9995L30.4995 28.012L37.587 35.112C37.7819 35.3078 37.9144 35.5568 37.968 35.8277C38.0216 36.0987 37.9939 36.3794 37.8884 36.6346C37.7828 36.8898 37.6041 37.1081 37.3748 37.262C37.1455 37.4159 36.8757 37.4985 36.5995 37.4995V37.4995Z" fill="#000033"/>
<path d="M12.9992 20.0019C12.7371 20.0026 12.4815 19.9209 12.2684 19.7683C12.0553 19.6158 11.8955 19.4002 11.8117 19.1519L10.4992 15.2019L9.24915 19.1519C9.14307 19.4668 8.91621 19.7267 8.6185 19.8744C8.32079 20.0221 7.9766 20.0455 7.66165 19.9394C7.34671 19.8333 7.08681 19.6064 6.93912 19.3087C6.79144 19.011 6.76807 18.6668 6.87415 18.3519L9.37415 10.8519C9.45635 10.6018 9.61541 10.384 9.82864 10.2297C10.0419 10.0753 10.2984 9.99219 10.5617 9.99219C10.8249 9.99219 11.0814 10.0753 11.2947 10.2297C11.5079 10.384 11.667 10.6018 11.7492 10.8519L14.2492 18.3519C14.3148 18.5453 14.3321 18.7518 14.2994 18.9535C14.2667 19.1551 14.1852 19.3457 14.0618 19.5085C13.9385 19.6713 13.7771 19.8014 13.5919 19.8874C13.4066 19.9734 13.2031 20.0127 12.9992 20.0019Z" fill="#05058C"/>
<path d="M19.25 20H18C17.6685 20 17.3505 19.8683 17.1161 19.6339C16.8817 19.3995 16.75 19.0815 16.75 18.75V11.25C16.75 10.9185 16.8817 10.6005 17.1161 10.3661C17.3505 10.1317 17.6685 10 18 10H19.25C20.5761 10 21.8479 10.5268 22.7855 11.4645C23.7232 12.4021 24.25 13.6739 24.25 15C24.25 16.3261 23.7232 17.5979 22.7855 18.5355C21.8479 19.4732 20.5761 20 19.25 20ZM19.25 12.5V17.5C19.913 17.5 20.5489 17.2366 21.0178 16.7678C21.4866 16.2989 21.75 15.663 21.75 15C21.75 14.337 21.4866 13.7011 21.0178 13.2322C20.5489 12.7634 19.913 12.5 19.25 12.5Z" fill="#05058C"/>
</g>
<defs>
<clipPath id="clip0_5203_31044">
<rect width="40" height="40" fill="white" transform="translate(0.5)"/>
</clipPath>
</defs>
</svg>
