<svg width="41" height="40" viewBox="0 0 41 40" fill="none" xmlns="http://www.w3.org/2000/svg">
<g clip-path="url(#clip0_5203_31048)">
<rect width="40" height="40" transform="translate(0.5)" fill="white"/>
<path d="M39.0995 31.8245L32.262 24.9995C31.7936 24.5339 31.16 24.2725 30.4995 24.2725C29.8391 24.2725 29.2055 24.5339 28.737 24.9995L27.9995 25.737L26.937 24.6745C28.9888 22.2468 30.2163 19.23 30.4425 16.0595C30.6686 12.889 29.8818 9.72854 28.1954 7.03417C26.5091 4.33979 24.0104 2.25076 21.0599 1.06845C18.1093 -0.113853 14.8595 -0.328312 11.7792 0.456015C8.69888 1.24034 5.94735 2.98291 3.92155 5.43232C1.89575 7.88173 0.700418 10.9113 0.50799 14.0841C0.315562 17.2569 1.13599 20.4088 2.85092 23.085C4.56584 25.7613 7.0866 27.8237 10.0495 28.9745C10.2049 29.0483 10.3737 29.0893 10.5456 29.0948C10.7175 29.1004 10.8887 29.0704 11.0484 29.0068C11.2082 28.9432 11.3531 28.8473 11.4741 28.7251C11.5951 28.6029 11.6896 28.4571 11.7517 28.2967C11.8138 28.1363 11.8421 27.9649 11.8349 27.7931C11.8277 27.6213 11.7851 27.4528 11.7098 27.2982C11.6345 27.1436 11.5281 27.0062 11.3973 26.8946C11.2665 26.7829 11.1141 26.6995 10.9495 26.6495C8.04729 25.5208 5.67084 23.3494 4.28547 20.5606C2.90009 17.7717 2.60556 14.5662 3.45953 11.5716C4.31351 8.57694 6.25449 6.00889 8.90247 4.37022C11.5504 2.73154 14.7147 2.14024 17.7758 2.71209C20.8368 3.28393 23.5742 4.97774 25.452 7.46188C27.3298 9.94603 28.2127 13.0416 27.9279 16.1426C27.6432 19.2435 26.2112 22.1265 23.9124 24.2272C21.6136 26.3278 18.6135 27.4947 15.4995 27.4995C15.168 27.4995 14.8501 27.6312 14.6157 27.8656C14.3812 28.1 14.2495 28.418 14.2495 28.7495C14.2495 29.081 14.3812 29.399 14.6157 29.6334C14.8501 29.8678 15.168 29.9995 15.4995 29.9995C19.0463 30.0045 22.4779 28.7409 25.1745 26.437L26.237 27.4995C25.437 28.2995 24.762 28.7495 24.762 29.9995C24.7648 30.6615 25.0301 31.2953 25.4995 31.762L32.3245 38.5995C33.223 39.4979 34.4415 40.0026 35.712 40.0026C36.9826 40.0026 38.2011 39.4979 39.0995 38.5995C39.998 37.7011 40.5027 36.4826 40.5027 35.212C40.5027 33.9414 39.998 32.7229 39.0995 31.8245ZM35.712 37.4995C35.1067 37.4955 34.5273 37.2529 34.0995 36.8245L27.262 29.9995L30.4995 26.762L37.3245 33.5995C37.6424 33.9194 37.8587 34.3261 37.9462 34.7685C38.0336 35.2109 37.9883 35.6693 37.816 36.0861C37.6437 36.5028 37.352 36.8593 36.9777 37.1108C36.6033 37.3623 36.163 37.4975 35.712 37.4995Z" fill="#000033"/>
<path d="M0.516527 16.0595C0.290355 12.889 1.0772 9.72854 2.76356 7.03417C4.44992 4.33979 6.94859 2.25076 9.89912 1.06845C12.8497 -0.113853 16.0995 -0.328312 19.1798 0.456015C22.2601 1.24034 25.0116 2.98291 27.0374 5.43232C29.0632 7.88173 30.2586 10.9113 30.451 14.0841C30.6434 17.2569 29.823 20.4088 28.1081 23.085C26.3931 25.7613 23.8724 27.8237 20.9094 28.9745C20.7541 29.0483 20.5852 29.0893 20.4134 29.0948C20.2415 29.1004 20.0703 29.0704 19.9106 29.0068C19.7508 28.9432 19.6059 28.8473 19.4849 28.7251C19.3639 28.6029 19.2694 28.4571 19.2073 28.2967C19.1452 28.1363 19.1169 27.9649 19.1241 27.7931C19.1313 27.6213 19.1739 27.4528 19.2492 27.2982C19.3245 27.1436 19.4308 27.0062 19.5617 26.8946C19.6925 26.7829 19.8449 26.6995 20.0094 26.6495C22.9117 25.5208 25.2881 23.3494 26.6735 20.5606C28.0589 17.7717 28.3534 14.5662 27.4995 11.5716C26.6455 8.57694 24.7045 6.00889 22.0565 4.37022C19.4085 2.73154 16.2443 2.14024 13.1832 2.71209C10.1222 3.28393 7.38478 4.97774 5.50701 7.46188C3.62923 9.94603 2.74629 13.0416 3.03105 16.1426C3.31581 19.2435 4.74776 22.1265 7.04656 24.2272C9.34535 26.3278 12.3454 27.4947 15.4594 27.4995C15.791 27.4995 16.1089 27.6312 16.3433 27.8656C16.5777 28.1 16.7094 28.418 16.7094 28.7495C16.7094 29.081 16.5777 29.399 16.3433 29.6334C16.1089 29.8678 15.791 29.9995 15.4594 29.9995C7.4667 29.8525 1.90586 24.3407 0.516527 16.0595Z" fill="#000033"/>
<path d="M15.5 6.25C13.7694 6.25 12.0777 6.76318 10.6388 7.72464C9.19983 8.6861 8.07832 10.0527 7.41606 11.6515C6.75379 13.2504 6.58051 15.0097 6.91813 16.707C7.25575 18.4044 8.08911 19.9635 9.31282 21.1872C10.5365 22.4109 12.0956 23.2442 13.793 23.5819C15.4903 23.9195 17.2496 23.7462 18.8485 23.0839C20.4473 22.4217 21.8139 21.3002 22.7754 19.8612C23.7368 18.4223 24.25 16.7306 24.25 15C24.25 12.6794 23.3281 10.4538 21.6872 8.81282C20.0462 7.17187 17.8206 6.25 15.5 6.25V6.25ZM20.7125 18.4375L16.75 14.4875V8.875C17.7506 9.08021 18.6856 9.5275 19.4733 10.1778C20.2609 10.828 20.8772 11.6614 21.2682 12.605C21.6592 13.5486 21.813 14.5736 21.7162 15.5904C21.6193 16.6072 21.2747 17.5847 20.7125 18.4375V18.4375ZM9.25 15C9.24971 13.5592 9.74723 12.1625 10.6584 11.0464C11.5695 9.93023 12.8383 9.16316 14.25 8.875V15C14.2491 15.1645 14.2806 15.3276 14.3428 15.4799C14.405 15.6322 14.4967 15.7707 14.6125 15.8875L18.9375 20.2125C17.9957 20.8327 16.9037 21.1866 15.7772 21.2366C14.6507 21.2866 13.5316 21.0309 12.5386 20.4966C11.5456 19.9623 10.7156 19.1693 10.1366 18.2016C9.55768 17.2339 9.25132 16.1276 9.25 15V15Z" fill="#05058C"/>
</g>
<defs>
<clipPath id="clip0_5203_31048">
<rect width="40" height="40" fill="white" transform="translate(0.5)"/>
</clipPath>
</defs>
</svg>
