<svg width="41" height="40" viewBox="0 0 41 40" fill="none" xmlns="http://www.w3.org/2000/svg">
<g clip-path="url(#clip0_5203_31056)">
<rect width="40" height="40" transform="translate(0.5)" fill="white"/>
<path d="M37.25 28.837C37.7193 28.0798 37.9778 27.2108 37.9986 26.3202C38.0195 25.4295 37.802 24.5494 37.3686 23.771C36.9352 22.9926 36.3018 22.3441 35.5337 21.8926C34.7657 21.4412 33.8909 21.2031 33 21.2031C32.1091 21.2031 31.2343 21.4412 30.4663 21.8926C29.6982 22.3441 29.0647 22.9926 28.6314 23.771C28.198 24.5494 27.9805 25.4295 28.0014 26.3202C28.0222 27.2108 28.2807 28.0798 28.75 28.837C27.4842 29.7063 26.5191 30.9465 25.9875 32.387C25.6174 31.9851 25.1973 31.6322 24.7375 31.337C25.2068 30.5798 25.4653 29.7108 25.4861 28.8202C25.507 27.9295 25.2895 27.0494 24.8561 26.271C24.4227 25.4926 23.7893 24.8441 23.0212 24.3926C22.2532 23.9412 21.3784 23.7031 20.4875 23.7031C19.5966 23.7031 18.7218 23.9412 17.9538 24.3926C17.1857 24.8441 16.5522 25.4926 16.1189 26.271C15.6855 27.0494 15.468 27.9295 15.4889 28.8202C15.5097 29.7108 15.7682 30.5798 16.2375 31.337C15.7848 31.6371 15.3658 31.9849 14.9875 32.3745C14.4684 30.9376 13.5108 29.7001 12.25 28.837C12.7193 28.0798 12.9778 27.2108 12.9986 26.3202C13.0195 25.4295 12.802 24.5494 12.3686 23.771C11.9352 22.9926 11.3018 22.3441 10.5337 21.8926C9.76565 21.4412 8.89092 21.2031 8 21.2031C7.10908 21.2031 6.23435 21.4412 5.46629 21.8926C4.69823 22.3441 4.06475 22.9926 3.63139 23.771C3.19802 24.5494 2.98052 25.4295 3.00137 26.3202C3.02222 27.2108 3.28068 28.0798 3.75 28.837C2.75015 29.5247 1.93209 30.4447 1.36601 31.518C0.799943 32.5914 0.502769 33.7861 0.5 34.9995L0.5 36.2495C0.5 36.5811 0.631696 36.899 0.866116 37.1334C1.10054 37.3678 1.41848 37.4995 1.75 37.4995H4.25C4.58152 37.4995 4.89946 37.3678 5.13388 37.1334C5.3683 36.899 5.5 36.5811 5.5 36.2495C5.5 35.918 5.3683 35.6001 5.13388 35.3657C4.89946 35.1312 4.58152 34.9995 4.25 34.9995H3C3.00102 34.1009 3.24418 33.2192 3.70392 32.4471C4.16365 31.675 4.82296 31.0411 5.6125 30.612C6.33772 31.0264 7.1585 31.2443 7.99375 31.2443C8.82899 31.2443 9.64978 31.0264 10.375 30.612C11.174 31.0308 11.8419 31.6621 12.3051 32.4363C12.7683 33.2104 13.0087 34.0974 13 34.9995H9.25C8.91848 34.9995 8.60054 35.1312 8.36612 35.3657C8.1317 35.6001 8 35.918 8 36.2495C8 36.5811 8.1317 36.899 8.36612 37.1334C8.60054 37.3678 8.91848 37.4995 9.25 37.4995H13V38.7495C13 39.0811 13.1317 39.399 13.3661 39.6334C13.6005 39.8678 13.9185 39.9995 14.25 39.9995H26.75C27.0815 39.9995 27.3995 39.8678 27.6339 39.6334C27.8683 39.399 28 39.0811 28 38.7495V37.4995H39.25C39.5815 37.4995 39.8995 37.3678 40.1339 37.1334C40.3683 36.899 40.5 36.5811 40.5 36.2495V34.9995C40.5037 33.7849 40.2093 32.5878 39.6427 31.5134C39.076 30.439 38.2545 29.52 37.25 28.837ZM5.5 26.2495C5.5 25.7551 5.64662 25.2717 5.92133 24.8606C6.19603 24.4495 6.58648 24.1291 7.04329 23.9398C7.50011 23.7506 8.00277 23.7011 8.48772 23.7976C8.97268 23.894 9.41813 24.1321 9.76777 24.4818C10.1174 24.8314 10.3555 25.2769 10.452 25.7618C10.5484 26.2468 10.4989 26.7494 10.3097 27.2062C10.1205 27.6631 9.80005 28.0535 9.38892 28.3282C8.9778 28.6029 8.49445 28.7495 8 28.7495C7.33696 28.7495 6.70107 28.4861 6.23223 28.0173C5.76339 27.5485 5.5 26.9126 5.5 26.2495ZM20.5 26.2495C20.9945 26.2495 21.4778 26.3962 21.8889 26.6709C22.3 26.9456 22.6205 27.336 22.8097 27.7928C22.9989 28.2496 23.0484 28.7523 22.952 29.2373C22.8555 29.7222 22.6174 30.1677 22.2678 30.5173C21.9181 30.8669 21.4727 31.105 20.9877 31.2015C20.5028 31.298 20.0001 31.2485 19.5433 31.0592C19.0865 30.87 18.696 30.5496 18.4213 30.1385C18.1466 29.7273 18 29.244 18 28.7495C18 28.0865 18.2634 27.4506 18.7322 26.9818C19.2011 26.5129 19.837 26.2495 20.5 26.2495ZM15.5 37.4995C15.501 36.6009 15.7442 35.7192 16.2039 34.9471C16.6636 34.175 17.323 33.5411 18.1125 33.112C18.8377 33.5264 19.6585 33.7443 20.4937 33.7443C21.329 33.7443 22.1498 33.5264 22.875 33.112C23.674 33.5308 24.3419 34.1621 24.8051 34.9363C25.2683 35.7104 25.5087 36.5974 25.5 37.4995H15.5ZM33 23.7495C33.4944 23.7495 33.9778 23.8962 34.3889 24.1709C34.8 24.4456 35.1205 24.836 35.3097 25.2928C35.4989 25.7496 35.5484 26.2523 35.452 26.7373C35.3555 27.2222 35.1174 27.6677 34.7678 28.0173C34.4181 28.3669 33.9727 28.605 33.4877 28.7015C33.0028 28.798 32.5001 28.7485 32.0433 28.5592C31.5865 28.37 31.196 28.0496 30.9213 27.6385C30.6466 27.2273 30.5 26.744 30.5 26.2495C30.5 25.5865 30.7634 24.9506 31.2322 24.4818C31.7011 24.0129 32.337 23.7495 33 23.7495ZM28 34.9995C28.001 34.1009 28.2442 33.2192 28.7039 32.4471C29.1636 31.675 29.823 31.0411 30.6125 30.612C31.3377 31.0264 32.1585 31.2443 32.9937 31.2443C33.829 31.2443 34.6498 31.0264 35.375 30.612C36.174 31.0308 36.8419 31.6621 37.3051 32.4363C37.7683 33.2104 38.0087 34.0974 38 34.9995H28Z" fill="#000033"/>
<path d="M23.0008 20H18.0008C17.6693 20 17.3513 19.8683 17.1169 19.6339C16.8825 19.3995 16.7508 19.0815 16.7508 18.75C16.768 18.5156 16.7188 18.281 16.6088 18.0733C16.4988 17.8656 16.3324 17.6931 16.1288 17.5756C15.9252 17.4581 15.6926 17.4005 15.4577 17.4092C15.2228 17.4179 14.9951 17.4927 14.8008 17.625C14.6581 17.7076 14.5005 17.7613 14.3371 17.7827C14.1736 17.8042 14.0075 17.7931 13.8483 17.7502C13.6891 17.7072 13.54 17.6331 13.4096 17.5323C13.2792 17.4314 13.17 17.3057 13.0883 17.1625L10.5883 12.8375C10.5057 12.6948 10.4521 12.5372 10.4306 12.3738C10.4091 12.2103 10.4202 12.0442 10.4632 11.885C10.5061 11.7258 10.5802 11.5767 10.6811 11.4463C10.7819 11.3159 10.9076 11.2067 11.0508 11.125C11.2621 11.0226 11.4404 10.8628 11.5651 10.6639C11.6898 10.4649 11.7559 10.2348 11.7559 10C11.7559 9.76518 11.6898 9.53511 11.5651 9.33614C11.4404 9.13717 11.2621 8.97736 11.0508 8.875C10.9076 8.79334 10.7819 8.68414 10.6811 8.55371C10.5802 8.42328 10.5061 8.27418 10.4632 8.115C10.4202 7.95583 10.4091 7.78972 10.4306 7.62625C10.4521 7.46278 10.5057 7.30517 10.5883 7.1625L13.0883 2.8375C13.17 2.69427 13.2792 2.5686 13.4096 2.46775C13.54 2.36689 13.6891 2.29284 13.8483 2.24985C14.0075 2.20686 14.1736 2.19579 14.3371 2.21726C14.5005 2.23874 14.6581 2.29235 14.8008 2.375C14.9951 2.50727 15.2228 2.58207 15.4577 2.5908C15.6926 2.59954 15.9252 2.54187 16.1288 2.4244C16.3324 2.30693 16.4988 2.13443 16.6088 1.9267C16.7188 1.71897 16.768 1.48443 16.7508 1.25C16.7508 0.918479 16.8825 0.600537 17.1169 0.366117C17.3513 0.131696 17.6693 0 18.0008 0L23.0008 0C23.3323 0 23.6503 0.131696 23.8847 0.366117C24.1191 0.600537 24.2508 0.918479 24.2508 1.25C24.2336 1.48443 24.2828 1.71897 24.3928 1.9267C24.5028 2.13443 24.6692 2.30693 24.8728 2.4244C25.0764 2.54187 25.309 2.59954 25.5439 2.5908C25.7788 2.58207 26.0065 2.50727 26.2008 2.375C26.3435 2.29235 26.5011 2.23874 26.6646 2.21726C26.828 2.19579 26.9941 2.20686 27.1533 2.24985C27.3125 2.29284 27.4616 2.36689 27.592 2.46775C27.7225 2.5686 27.8316 2.69427 27.9133 2.8375L30.4133 7.1625C30.496 7.30517 30.5496 7.46278 30.571 7.62625C30.5925 7.78972 30.5814 7.95583 30.5385 8.115C30.4955 8.27418 30.4214 8.42328 30.3206 8.55371C30.2197 8.68414 30.094 8.79334 29.9508 8.875C29.7395 8.97736 29.5612 9.13717 29.4365 9.33614C29.3118 9.53511 29.2457 9.76518 29.2457 10C29.2457 10.2348 29.3118 10.4649 29.4365 10.6639C29.5612 10.8628 29.7395 11.0226 29.9508 11.125C30.094 11.2067 30.2197 11.3159 30.3206 11.4463C30.4214 11.5767 30.4955 11.7258 30.5385 11.885C30.5814 12.0442 30.5925 12.2103 30.571 12.3738C30.5496 12.5372 30.496 12.6948 30.4133 12.8375L27.9133 17.1625C27.8316 17.3057 27.7225 17.4314 27.592 17.5323C27.4616 17.6331 27.3125 17.7072 27.1533 17.7502C26.9941 17.7931 26.828 17.8042 26.6646 17.7827C26.5011 17.7613 26.3435 17.7076 26.2008 17.625C26.0065 17.4927 25.7788 17.4179 25.5439 17.4092C25.309 17.4005 25.0764 17.4581 24.8728 17.5756C24.6692 17.6931 24.5028 17.8656 24.3928 18.0733C24.2828 18.281 24.2336 18.5156 24.2508 18.75C24.2508 19.0815 24.1191 19.3995 23.8847 19.6339C23.6503 19.8683 23.3323 20 23.0008 20ZM19.0383 17.5H21.9633C22.2508 16.6299 22.8469 15.8951 23.6392 15.4345C24.4314 14.9739 25.3649 14.8193 26.2633 15L27.7258 12.5C27.1109 11.8125 26.7709 10.9224 26.7709 10C26.7709 9.07758 27.1109 8.18753 27.7258 7.5L26.2633 5C25.3649 5.18067 24.4314 5.0261 23.6392 4.5655C22.8469 4.1049 22.2508 3.37014 21.9633 2.5H19.0383C18.7508 3.37014 18.1547 4.1049 17.3624 4.5655C16.5702 5.0261 15.6367 5.18067 14.7383 5L13.2758 7.5C13.8908 8.18753 14.2307 9.07758 14.2307 10C14.2307 10.9224 13.8908 11.8125 13.2758 12.5L14.7383 15C15.6367 14.8193 16.5702 14.9739 17.3624 15.4345C18.1547 15.8951 18.7508 16.6299 19.0383 17.5Z" fill="#05058C"/>
<path d="M20.5 13.75C19.7583 13.75 19.0333 13.5301 18.4166 13.118C17.7999 12.706 17.3193 12.1203 17.0355 11.4351C16.7516 10.7498 16.6774 9.99584 16.8221 9.26841C16.9668 8.54098 17.3239 7.8728 17.8484 7.34835C18.3728 6.8239 19.041 6.46675 19.7684 6.32206C20.4958 6.17736 21.2498 6.25162 21.9351 6.53545C22.6203 6.81928 23.206 7.29993 23.618 7.91661C24.0301 8.5333 24.25 9.25832 24.25 10C24.25 10.9946 23.8549 11.9484 23.1517 12.6517C22.4484 13.3549 21.4946 13.75 20.5 13.75ZM20.5 8.75C20.2528 8.75 20.0111 8.82331 19.8055 8.96066C19.6 9.09802 19.4398 9.29324 19.3452 9.52165C19.2505 9.75006 19.2258 10.0014 19.274 10.2439C19.3223 10.4863 19.4413 10.7091 19.6161 10.8839C19.7909 11.0587 20.0137 11.1778 20.2561 11.226C20.4986 11.2742 20.7499 11.2495 20.9784 11.1549C21.2068 11.0602 21.402 10.9 21.5393 10.6945C21.6767 10.4889 21.75 10.2472 21.75 10C21.75 9.66848 21.6183 9.35054 21.3839 9.11612C21.1495 8.8817 20.8315 8.75 20.5 8.75Z" fill="#05058C"/>
</g>
<defs>
<clipPath id="clip0_5203_31056">
<rect width="40" height="40" fill="white" transform="translate(0.5)"/>
</clipPath>
</defs>
</svg>
