<svg width="41" height="40" viewBox="0 0 41 40" fill="none" xmlns="http://www.w3.org/2000/svg">
<g clip-path="url(#clip0_5203_31052)">
<rect width="40" height="40" transform="translate(0.5)" fill="white"/>
<path d="M20.5 27.5C17.8478 27.5 15.3043 26.4464 13.4289 24.5711C11.5536 22.6957 10.5 20.1522 10.5 17.5C10.5 17.1685 10.6317 16.8505 10.8661 16.6161C11.1005 16.3817 11.4185 16.25 11.75 16.25C12.0815 16.25 12.3995 16.3817 12.6339 16.6161C12.8683 16.8505 13 17.1685 13 17.5C13 19.4891 13.7902 21.3968 15.1967 22.8033C16.6032 24.2098 18.5109 25 20.5 25C22.4891 25 24.3968 24.2098 25.8033 22.8033C27.2098 21.3968 28 19.4891 28 17.5C28 17.1685 28.1317 16.8505 28.3661 16.6161C28.6005 16.3817 28.9185 16.25 29.25 16.25C29.5815 16.25 29.8995 16.3817 30.1339 16.6161C30.3683 16.8505 30.5 17.1685 30.5 17.5C30.5 20.1522 29.4464 22.6957 27.5711 24.5711C25.6957 26.4464 23.1522 27.5 20.5 27.5Z" fill="#05058C"/>
<path d="M39.25 18.75H1.75C1.41848 18.75 1.10054 18.6183 0.866117 18.3839C0.631696 18.1495 0.5 17.8315 0.5 17.5C0.5 17.1685 0.631696 16.8505 0.866117 16.6161C1.10054 16.3817 1.41848 16.25 1.75 16.25H39.25C39.5815 16.25 39.8995 16.3817 40.1339 16.6161C40.3683 16.8505 40.5 17.1685 40.5 17.5C40.5 17.8315 40.3683 18.1495 40.1339 18.3839C39.8995 18.6183 39.5815 18.75 39.25 18.75Z" fill="#000033"/>
<path d="M37.25 10.087C37.7193 9.32976 37.9778 8.46083 37.9986 7.57016C38.0195 6.67949 37.802 5.79942 37.3686 5.021C36.9352 4.24259 36.3018 3.5941 35.5337 3.14264C34.7657 2.69117 33.8909 2.45313 33 2.45312C32.1091 2.45312 31.2343 2.69117 30.4663 3.14264C29.6982 3.5941 29.0647 4.24259 28.6314 5.021C28.198 5.79942 27.9805 6.67949 28.0014 7.57016C28.0222 8.46083 28.2807 9.32976 28.75 10.087C27.9614 10.6245 27.2825 11.3076 26.75 12.0995C26.2353 11.2931 25.5532 10.6068 24.75 10.087C25.2193 9.32976 25.4778 8.46083 25.4986 7.57016C25.5195 6.67949 25.302 5.79942 24.8686 5.021C24.4352 4.24259 23.8018 3.5941 23.0337 3.14264C22.2657 2.69117 21.3909 2.45313 20.5 2.45312C19.6091 2.45312 18.7343 2.69117 17.9663 3.14264C17.1982 3.5941 16.5647 4.24259 16.1314 5.021C15.698 5.79942 15.4805 6.67949 15.5014 7.57016C15.5222 8.46083 15.7807 9.32976 16.25 10.087C15.4614 10.6245 14.7825 11.3076 14.25 12.0995C13.7317 11.296 13.0503 10.6104 12.25 10.087C12.7193 9.32976 12.9778 8.46083 12.9986 7.57016C13.0195 6.67949 12.802 5.79942 12.3686 5.021C11.9352 4.24259 11.3018 3.5941 10.5337 3.14264C9.76565 2.69117 8.89092 2.45313 8 2.45312C7.10908 2.45313 6.23435 2.69117 5.46629 3.14264C4.69823 3.5941 4.06475 4.24259 3.63139 5.021C3.19802 5.79942 2.98052 6.67949 3.00137 7.57016C3.02222 8.46083 3.28068 9.32976 3.75 10.087C2.75015 10.7747 1.93209 11.6947 1.36601 12.768C0.799943 13.8414 0.502769 15.0361 0.5 16.2495L0.5 21.362C0.503284 21.9942 0.755878 22.5996 1.20291 23.0466C1.64994 23.4937 2.25531 23.7463 2.8875 23.7495H5.5L3.6375 25.5245C3.41262 25.7456 3.23402 26.0092 3.11209 26.3C2.99017 26.5908 2.92738 26.903 2.92738 27.2183C2.92738 27.5336 2.99017 27.8458 3.11209 28.1366C3.23402 28.4274 3.41262 28.691 3.6375 28.912L4.625 29.8995C4.86038 30.1333 5.17896 30.2639 5.51067 30.2627C5.67491 30.2622 5.83743 30.2292 5.98895 30.1658C6.14047 30.1024 6.27802 30.0098 6.39375 29.8933C6.50948 29.7767 6.60111 29.6385 6.66343 29.4866C6.72575 29.3346 6.75752 29.1719 6.75694 29.0076C6.75636 28.8434 6.72344 28.6809 6.66005 28.5293C6.59666 28.3778 6.50405 28.2403 6.3875 28.1245L5.5 27.2245L7.3375 25.387C7.64484 25.0339 7.84683 24.6015 7.9205 24.1392C7.99416 23.6769 7.93652 23.2031 7.75415 22.772C7.57178 22.3408 7.272 21.9695 6.88895 21.7003C6.5059 21.4312 6.05497 21.275 5.5875 21.2495H3V18.7495H38V21.2495H35.4125C34.9472 21.2793 34.4994 21.4386 34.1199 21.7095C33.7403 21.9804 33.4441 22.352 33.2646 22.7824C33.0852 23.2128 33.0297 23.6848 33.1044 24.1451C33.1792 24.6053 33.3811 25.0355 33.6875 25.387L35.5 27.2245L30.225 32.4995L28.3875 30.662C28.0343 30.3547 27.602 30.1527 27.1397 30.079C26.6773 30.0054 26.2036 30.063 25.7724 30.2454C25.3413 30.4278 24.9699 30.7275 24.7008 31.1106C24.4316 31.4936 24.2754 31.9446 24.25 32.412V34.9995H16.75V32.412C16.7202 31.9467 16.5609 31.499 16.29 31.1194C16.0191 30.7399 15.6475 30.4436 15.2171 30.2642C14.7867 30.0848 14.3148 30.0293 13.8545 30.104C13.3942 30.1787 12.964 30.3807 12.6125 30.687L10.775 32.4995L9.875 31.587C9.63962 31.3517 9.32038 31.2194 8.9875 31.2194C8.65462 31.2194 8.33538 31.3517 8.1 31.587C7.86462 31.8224 7.73238 32.1417 7.73238 32.4745C7.73238 32.8074 7.86462 33.1267 8.1 33.362L9.075 34.337C9.53586 34.7587 10.1379 34.9925 10.7625 34.9925C11.3871 34.9925 11.9891 34.7587 12.45 34.337L14.25 32.4995V35.062C14.245 35.3793 14.303 35.6944 14.4206 35.9891C14.5382 36.2838 14.7131 36.5523 14.9352 36.7789C15.1572 37.0056 15.422 37.186 15.7142 37.3097C16.0064 37.4334 16.3202 37.4979 16.6375 37.4995H24.3625C24.9947 37.4963 25.6001 37.2437 26.0471 36.7966C26.4941 36.3496 26.7467 35.7442 26.75 35.112V32.4995L28.5875 34.3245C28.8094 34.5479 29.0733 34.7252 29.364 34.8461C29.6547 34.9671 29.9664 35.0294 30.2812 35.0294C30.5961 35.0294 30.9078 34.9671 31.1985 34.8461C31.4892 34.7252 31.7531 34.5479 31.975 34.3245L37.425 28.8745C37.6528 28.6543 37.8334 28.39 37.9559 28.0977C38.0784 27.8055 38.1402 27.4914 38.1375 27.1745C38.1375 25.9245 37.4875 25.5495 35.6375 23.6995H38.2C38.8084 23.6744 39.3844 23.4189 39.8115 22.9849C40.2385 22.5509 40.4847 21.9707 40.5 21.362V16.2495C40.5037 15.0349 40.2093 13.8379 39.6427 12.7634C39.076 11.689 38.2545 10.77 37.25 10.087ZM33 4.99954C33.4944 4.99954 33.9778 5.14616 34.3889 5.42086C34.8 5.69557 35.1205 6.08601 35.3097 6.54283C35.4989 6.99965 35.5484 7.50231 35.452 7.98726C35.3555 8.47222 35.1174 8.91767 34.7678 9.26731C34.4181 9.61694 33.9727 9.85504 33.4877 9.9515C33.0028 10.048 32.5001 9.99846 32.0433 9.80924C31.5865 9.62002 31.196 9.29959 30.9213 8.88846C30.6466 8.47734 30.5 7.99399 30.5 7.49954C30.5 6.8365 30.7634 6.20061 31.2322 5.73177C31.7011 5.26293 32.337 4.99954 33 4.99954ZM20.5 4.99954C20.9945 4.99954 21.4778 5.14616 21.8889 5.42086C22.3 5.69557 22.6205 6.08601 22.8097 6.54283C22.9989 6.99965 23.0484 7.50231 22.952 7.98726C22.8555 8.47222 22.6174 8.91767 22.2678 9.26731C21.9181 9.61694 21.4727 9.85504 20.9877 9.9515C20.5028 10.048 20.0001 9.99846 19.5433 9.80924C19.0865 9.62002 18.696 9.29959 18.4213 8.88846C18.1466 8.47734 18 7.99399 18 7.49954C18 6.8365 18.2634 6.20061 18.7322 5.73177C19.2011 5.26293 19.837 4.99954 20.5 4.99954ZM8 4.99954C8.49445 4.99954 8.9778 5.14616 9.38892 5.42086C9.80005 5.69557 10.1205 6.08601 10.3097 6.54283C10.4989 6.99965 10.5484 7.50231 10.452 7.98726C10.3555 8.47222 10.1174 8.91767 9.76777 9.26731C9.41813 9.61694 8.97268 9.85504 8.48772 9.9515C8.00277 10.048 7.50011 9.99846 7.04329 9.80924C6.58648 9.62002 6.19603 9.29959 5.92133 8.88846C5.64662 8.47734 5.5 7.99399 5.5 7.49954C5.5 6.8365 5.76339 6.20061 6.23223 5.73177C6.70107 5.26293 7.33696 4.99954 8 4.99954ZM5.6125 11.862C6.33851 12.274 7.15899 12.4906 7.99375 12.4906C8.82851 12.4906 9.64898 12.274 10.375 11.862C11.174 12.2808 11.8419 12.9121 12.3051 13.6863C12.7683 14.4604 13.0087 15.3474 13 16.2495H3C3.00102 15.3509 3.24418 14.4692 3.70392 13.6971C4.16365 12.925 4.82296 12.2911 5.6125 11.862ZM18.1125 11.862C18.8377 12.2764 19.6585 12.4943 20.4937 12.4943C21.329 12.4943 22.1498 12.2764 22.875 11.862C23.674 12.2808 24.3419 12.9121 24.8051 13.6863C25.2683 14.4604 25.5087 15.3474 25.5 16.2495H15.5C15.501 15.3509 15.7442 14.4692 16.2039 13.6971C16.6636 12.925 17.323 12.2911 18.1125 11.862ZM30.6125 11.862C31.3377 12.2764 32.1585 12.4943 32.9937 12.4943C33.829 12.4943 34.6498 12.2764 35.375 11.862C36.174 12.2808 36.8419 12.9121 37.3051 13.6863C37.7683 14.4604 38.0087 15.3474 38 16.2495H28C28.001 15.3509 28.2442 14.4692 28.7039 13.6971C29.1636 12.925 29.823 12.2911 30.6125 11.862Z" fill="#000033"/>
</g>
<defs>
<clipPath id="clip0_5203_31052">
<rect width="40" height="40" fill="white" transform="translate(0.5)"/>
</clipPath>
</defs>
</svg>
