<svg width="41" height="40" viewBox="0 0 41 40" fill="none" xmlns="http://www.w3.org/2000/svg">
<g clip-path="url(#clip0_5203_31061)">
<rect width="40" height="40" transform="translate(0.5)" fill="white"/>
<path d="M31.75 18.75H21.75V15C21.75 14.6685 21.6183 14.3505 21.3839 14.1161C21.1495 13.8817 20.8315 13.75 20.5 13.75C20.1685 13.75 19.8505 13.8817 19.6161 14.1161C19.3817 14.3505 19.25 14.6685 19.25 15V18.75H8C7.66848 18.75 7.35054 18.8817 7.11612 19.1161C6.8817 19.3505 6.75 19.6685 6.75 20V25C6.75 25.3315 6.8817 25.6495 7.11612 25.8839C7.35054 26.1183 7.66848 26.25 8 26.25C8.33152 26.25 8.64946 26.1183 8.88388 25.8839C9.1183 25.6495 9.25 25.3315 9.25 25V21.25H19.25V25C19.25 25.3315 19.3817 25.6495 19.6161 25.8839C19.8505 26.1183 20.1685 26.25 20.5 26.25C20.8315 26.25 21.1495 26.1183 21.3839 25.8839C21.6183 25.6495 21.75 25.3315 21.75 25V21.25H30.5V25C30.5 25.3315 30.6317 25.6495 30.8661 25.8839C31.1005 26.1183 31.4185 26.25 31.75 26.25C32.0815 26.25 32.3995 26.1183 32.6339 25.8839C32.8683 25.6495 33 25.3315 33 25V20C33 19.6685 32.8683 19.3505 32.6339 19.1161C32.3995 18.8817 32.0815 18.75 31.75 18.75Z" fill="#05058C"/>
<path d="M24.75 7.58704C25.2193 6.82976 25.4778 5.96083 25.4986 5.07016C25.5195 4.17949 25.302 3.29942 24.8686 2.521C24.4352 1.74259 23.8018 1.0941 23.0337 0.642637C22.2657 0.191172 21.3909 -0.046875 20.5 -0.046875C19.6091 -0.046875 18.7343 0.191172 17.9663 0.642637C17.1982 1.0941 16.5647 1.74259 16.1314 2.521C15.698 3.29942 15.4805 4.17949 15.5014 5.07016C15.5222 5.96083 15.7807 6.82976 16.25 7.58704C15.2502 8.27468 14.4321 9.19465 13.866 10.268C13.2999 11.3414 13.0028 12.5361 13 13.7495V14.9995C13 15.3311 13.1317 15.649 13.3661 15.8834C13.6005 16.1178 13.9185 16.2495 14.25 16.2495H26.75C27.0815 16.2495 27.3995 16.1178 27.6339 15.8834C27.8683 15.649 28 15.3311 28 14.9995V13.7495C28.0048 12.5347 27.7108 11.3373 27.1441 10.2627C26.5774 9.18807 25.7552 8.26924 24.75 7.58704ZM20.5 2.49954C20.9945 2.49954 21.4778 2.64616 21.8889 2.92086C22.3 3.19557 22.6205 3.58601 22.8097 4.04283C22.9989 4.49964 23.0484 5.00231 22.952 5.48726C22.8555 5.97222 22.6174 6.41767 22.2678 6.7673C21.9181 7.11694 21.4727 7.35504 20.9877 7.4515C20.5028 7.54796 20.0001 7.49846 19.5433 7.30924C19.0865 7.12002 18.696 6.79959 18.4213 6.38846C18.1466 5.97734 18 5.49399 18 4.99954C18 4.3365 18.2634 3.70061 18.7322 3.23177C19.2011 2.76293 19.837 2.49954 20.5 2.49954ZM15.5 13.7495C15.501 12.8509 15.7442 11.9692 16.2039 11.1971C16.6637 10.425 17.323 9.79112 18.1125 9.36204C18.8377 9.7764 19.6585 9.99435 20.4937 9.99435C21.329 9.99435 22.1498 9.7764 22.875 9.36204C23.675 9.77973 24.3436 10.4107 24.807 11.1852C25.2703 11.9596 25.5102 12.8472 25.5 13.7495H15.5Z" fill="#000033"/>
<path d="M37.25 31.337C37.7193 30.5798 37.9778 29.7108 37.9986 28.8202C38.0195 27.9295 37.802 27.0494 37.3686 26.271C36.9352 25.4926 36.3018 24.8441 35.5337 24.3926C34.7657 23.9412 33.8909 23.7031 33 23.7031C32.1091 23.7031 31.2343 23.9412 30.4663 24.3926C29.6982 24.8441 29.0648 25.4926 28.6314 26.271C28.198 27.0494 27.9805 27.9295 28.0014 28.8202C28.0222 29.7108 28.2807 30.5798 28.75 31.337C27.9614 31.8745 27.2825 32.5576 26.75 33.3495C26.2317 32.546 25.5503 31.8604 24.75 31.337C25.2193 30.5798 25.4778 29.7108 25.4986 28.8202C25.5195 27.9295 25.302 27.0494 24.8686 26.271C24.4352 25.4926 23.8018 24.8441 23.0337 24.3926C22.2657 23.9412 21.3909 23.7031 20.5 23.7031C19.6091 23.7031 18.7343 23.9412 17.9663 24.3926C17.1982 24.8441 16.5648 25.4926 16.1314 26.271C15.698 27.0494 15.4805 27.9295 15.5014 28.8202C15.5222 29.7108 15.7807 30.5798 16.25 31.337C15.4614 31.8745 14.7825 32.5576 14.25 33.3495C13.7317 32.546 13.0503 31.8604 12.25 31.337C12.7193 30.5798 12.9778 29.7108 12.9986 28.8202C13.0195 27.9295 12.802 27.0494 12.3686 26.271C11.9353 25.4926 11.3018 24.8441 10.5337 24.3926C9.76565 23.9412 8.89092 23.7031 8 23.7031C7.10908 23.7031 6.23435 23.9412 5.46629 24.3926C4.69823 24.8441 4.06475 25.4926 3.63139 26.271C3.19802 27.0494 2.98052 27.9295 3.00137 28.8202C3.02222 29.7108 3.28068 30.5798 3.75 31.337C2.75015 32.0247 1.93209 32.9447 1.36602 34.018C0.799943 35.0914 0.502769 36.2861 0.5 37.4995L0.5 38.7495C0.5 39.0811 0.631696 39.399 0.866117 39.6334C1.10054 39.8678 1.41848 39.9995 1.75 39.9995C2.08152 39.9995 2.39946 39.8678 2.63388 39.6334C2.8683 39.399 3 39.0811 3 38.7495V37.4995C3.00102 36.6009 3.24418 35.7192 3.70392 34.9471C4.16365 34.175 4.82296 33.5411 5.6125 33.112C6.33772 33.5264 7.15851 33.7443 7.99375 33.7443C8.82899 33.7443 9.64978 33.5264 10.375 33.112C11.175 33.5297 11.8436 34.1608 12.307 34.9352C12.7703 35.7096 13.0102 36.5972 13 37.4995H6.75C6.41848 37.4995 6.10054 37.6312 5.86612 37.8657C5.6317 38.1001 5.5 38.418 5.5 38.7495C5.5 39.0811 5.6317 39.399 5.86612 39.6334C6.10054 39.8678 6.41848 39.9995 6.75 39.9995H39.25C39.5815 39.9995 39.8995 39.8678 40.1339 39.6334C40.3683 39.399 40.5 39.0811 40.5 38.7495V37.4995C40.5048 36.2847 40.2108 35.0873 39.6441 34.0127C39.0774 32.9381 38.2552 32.0192 37.25 31.337ZM5.5 28.7495C5.5 28.2551 5.64662 27.7717 5.92133 27.3606C6.19603 26.9495 6.58648 26.6291 7.04329 26.4398C7.50011 26.2506 8.00277 26.2011 8.48773 26.2976C8.97268 26.394 9.41814 26.6321 9.76777 26.9818C10.1174 27.3314 10.3555 27.7769 10.452 28.2618C10.5484 28.7468 10.4989 29.2494 10.3097 29.7062C10.1205 30.1631 9.80005 30.5535 9.38893 30.8282C8.9778 31.1029 8.49445 31.2495 8 31.2495C7.33696 31.2495 6.70107 30.9861 6.23223 30.5173C5.76339 30.0485 5.5 29.4126 5.5 28.7495ZM33 26.2495C33.4945 26.2495 33.9778 26.3962 34.3889 26.6709C34.8 26.9456 35.1205 27.336 35.3097 27.7928C35.4989 28.2496 35.5484 28.7523 35.452 29.2373C35.3555 29.7222 35.1174 30.1677 34.7678 30.5173C34.4181 30.8669 33.9727 31.105 33.4877 31.2015C33.0028 31.298 32.5001 31.2485 32.0433 31.0592C31.5865 30.87 31.196 30.5496 30.9213 30.1385C30.6466 29.7273 30.5 29.244 30.5 28.7495C30.5 28.0865 30.7634 27.4506 31.2322 26.9818C31.7011 26.5129 32.337 26.2495 33 26.2495ZM20.5 26.2495C20.9945 26.2495 21.4778 26.3962 21.8889 26.6709C22.3 26.9456 22.6205 27.336 22.8097 27.7928C22.9989 28.2496 23.0484 28.7523 22.952 29.2373C22.8555 29.7222 22.6174 30.1677 22.2678 30.5173C21.9181 30.8669 21.4727 31.105 20.9877 31.2015C20.5028 31.298 20.0001 31.2485 19.5433 31.0592C19.0865 30.87 18.696 30.5496 18.4213 30.1385C18.1466 29.7273 18 29.244 18 28.7495C18 28.0865 18.2634 27.4506 18.7322 26.9818C19.2011 26.5129 19.837 26.2495 20.5 26.2495ZM18.1125 33.112C18.8377 33.5264 19.6585 33.7443 20.4937 33.7443C21.329 33.7443 22.1498 33.5264 22.875 33.112C23.675 33.5297 24.3436 34.1608 24.807 34.9352C25.2703 35.7096 25.5102 36.5972 25.5 37.4995H15.5C15.501 36.6009 15.7442 35.7192 16.2039 34.9471C16.6637 34.175 17.323 33.5411 18.1125 33.112ZM28 37.4995C28.001 36.6009 28.2442 35.7192 28.7039 34.9471C29.1637 34.175 29.823 33.5411 30.6125 33.112C31.3377 33.5264 32.1585 33.7443 32.9938 33.7443C33.829 33.7443 34.6498 33.5264 35.375 33.112C36.1749 33.5297 36.8436 34.1608 37.307 34.9352C37.7703 35.7096 38.0102 36.5972 38 37.4995H28Z" fill="#000033"/>
</g>
<defs>
<clipPath id="clip0_5203_31061">
<rect width="40" height="40" fill="white" transform="translate(0.5)"/>
</clipPath>
</defs>
</svg>
