<svg width="41" height="40" viewBox="0 0 41 40" fill="none" xmlns="http://www.w3.org/2000/svg">
<g clip-path="url(#clip0_5203_31034)">
<rect width="40" height="40" transform="translate(0.5)" fill="white"/>
<path d="M27.2625 27.6766L21.0125 23.9891C20.8711 23.8862 20.7096 23.8142 20.5386 23.7776C20.3675 23.7411 20.1907 23.7408 20.0196 23.7769C19.8484 23.8129 19.6868 23.8845 19.545 23.987C19.4033 24.0894 19.2846 24.2205 19.1967 24.3717C19.1088 24.5229 19.0536 24.6909 19.0347 24.8648C19.0158 25.0387 19.0335 25.2146 19.0869 25.3811C19.1402 25.5477 19.2279 25.7012 19.3443 25.8318C19.4607 25.9624 19.6032 26.067 19.7625 26.1391L26.0125 29.8891C25.504 31.2154 25.3827 32.6589 25.6625 34.0516C25.7289 34.3831 25.9241 34.6747 26.2054 34.8622C26.4867 35.0498 26.831 35.1179 27.1625 35.0516C27.4941 34.9853 27.7857 34.79 27.9732 34.5087C28.1607 34.2274 28.2289 33.8831 28.1625 33.5516C27.9397 32.4544 28.0916 31.3142 28.5938 30.3136C29.096 29.313 29.9195 28.5099 30.9324 28.0329C31.9453 27.556 33.089 27.4327 34.1802 27.683C35.2715 27.9333 36.2471 28.5426 36.951 29.4132C37.6548 30.2839 38.046 31.3656 38.062 32.4851C38.078 33.6045 37.7178 34.6969 37.0392 35.5874C36.3605 36.4778 35.4027 37.1147 34.319 37.396C33.2354 37.6774 32.0887 37.5869 31.0625 37.1391C30.9109 37.063 30.7453 37.0186 30.5759 37.0086C30.4065 36.9986 30.2368 37.0232 30.0772 37.0809C29.9176 37.1386 29.7714 37.2282 29.6476 37.3442C29.5238 37.4602 29.4248 37.6003 29.3569 37.7558C29.2889 37.9112 29.2533 38.0789 29.2522 38.2486C29.2512 38.4183 29.2847 38.5865 29.3507 38.7428C29.4167 38.8991 29.5139 39.0404 29.6363 39.1579C29.7587 39.2755 29.9037 39.3669 30.0625 39.4266C31.3379 39.9837 32.743 40.175 34.1209 39.9791C35.4987 39.7832 36.7949 39.2078 37.8644 38.3172C38.9338 37.4266 39.7344 36.2561 40.1765 34.9365C40.6187 33.6169 40.6849 32.2003 40.3678 30.8451C40.0508 29.49 39.3629 28.2499 38.3812 27.2634C37.3995 26.2769 36.1627 25.5831 34.8092 25.2594C33.4556 24.9358 32.0387 24.9951 30.717 25.4309C29.3952 25.8666 28.2208 26.6614 27.325 27.7266L27.2625 27.6766Z" fill="#000033"/>
<path d="M20.3621 16.2502C20.8621 16.2502 20.4371 16.4127 27.2621 12.3877C28.4612 13.8364 30.1609 14.7818 32.0242 15.0364C33.8875 15.291 35.7785 14.8363 37.3224 13.7624C38.8663 12.6885 39.9504 11.0738 40.3598 9.23826C40.7692 7.40272 40.4741 5.48035 39.5329 3.85214C38.5918 2.22394 37.0733 1.00873 35.2784 0.447379C33.4834 -0.113976 31.5431 0.0194864 29.842 0.821316C28.1408 1.62315 26.803 3.03482 26.0937 4.77655C25.3843 6.51829 25.3552 8.46296 26.0121 10.2252L19.7621 13.9752C19.55 14.1211 19.3882 14.3289 19.2987 14.5703C19.2092 14.8116 19.1964 15.0747 19.262 15.3237C19.3277 15.5726 19.4686 15.7951 19.6655 15.961C19.8623 16.1268 20.1056 16.2278 20.3621 16.2502ZM32.9996 2.50015C33.9885 2.50015 34.9552 2.7934 35.7774 3.34281C36.5997 3.89221 37.2405 4.67311 37.619 5.58674C37.9974 6.50037 38.0964 7.5057 37.9035 8.4756C37.7106 9.44551 37.2344 10.3364 36.5351 11.0357C35.8358 11.7349 34.9449 12.2112 33.975 12.4041C33.0051 12.597 31.9998 12.498 31.0862 12.1196C30.1725 11.7411 29.3916 11.1002 28.8422 10.278C28.2928 9.45576 27.9996 8.48906 27.9996 7.50015C27.9996 6.17407 28.5264 4.9023 29.464 3.96462C30.4017 3.02694 31.6735 2.50015 32.9996 2.50015Z" fill="#000033"/>
<path d="M20.5875 26.938C21.8943 25.2789 22.7078 23.2856 22.9348 21.1859C23.1618 19.0862 22.7933 16.965 21.8712 15.065C20.9492 13.165 19.511 11.5629 17.7211 10.442C15.9312 9.32103 13.8619 8.72656 11.75 8.72656C9.63809 8.72656 7.56882 9.32103 5.77893 10.442C3.98904 11.5629 2.55081 13.165 1.62878 15.065C0.706759 16.965 0.338173 19.0862 0.565193 21.1859C0.792213 23.2856 1.60567 25.2789 2.91251 26.938C3.96537 28.2746 5.30769 29.3549 6.83845 30.0978C8.36921 30.8406 10.0485 31.2266 11.75 31.2266C13.4515 31.2266 15.1308 30.8406 16.6616 30.0978C18.1923 29.3549 19.5346 28.2746 20.5875 26.938ZM11.75 11.2505C13.2326 11.2517 14.6905 11.6296 15.987 12.3487C17.2835 13.0678 18.376 14.1046 19.162 15.3616C19.948 16.6187 20.4017 18.0549 20.4805 19.5354C20.5593 21.0158 20.2606 22.4921 19.6125 23.8255C18.6857 22.6498 17.5067 21.6972 16.1625 21.038C16.5685 20.2761 16.7704 19.4221 16.7484 18.5591C16.7264 17.6961 16.4813 16.8535 16.0371 16.1133C15.5928 15.3731 14.9644 14.7605 14.2132 14.3352C13.4619 13.9099 12.6133 13.6864 11.75 13.6864C10.8867 13.6864 10.0381 13.9099 9.28685 14.3352C8.53558 14.7605 7.90722 15.3731 7.46294 16.1133C7.01867 16.8535 6.77361 17.6961 6.75163 18.5591C6.72965 19.4221 6.93149 20.2761 7.33751 21.038C5.99335 21.6972 4.81435 22.6498 3.88751 23.8255C3.23941 22.4921 2.94075 21.0158 3.01956 19.5354C3.09836 18.0549 3.55205 16.6187 4.33803 15.3616C5.12401 14.1046 6.21652 13.0678 7.51301 12.3487C8.80949 11.6296 10.2674 11.2517 11.75 11.2505V11.2505ZM9.25001 18.7505C9.25001 18.256 9.39663 17.7727 9.67133 17.3615C9.94604 16.9504 10.3365 16.63 10.7933 16.4408C11.2501 16.2515 11.7528 16.202 12.2377 16.2985C12.7227 16.395 13.1681 16.6331 13.5178 16.9827C13.8674 17.3323 14.1055 17.7778 14.202 18.2627C14.2984 18.7477 14.2489 19.2504 14.0597 19.7072C13.8705 20.164 13.5501 20.5544 13.1389 20.8291C12.7278 21.1038 12.2445 21.2505 11.75 21.2505C11.087 21.2505 10.4511 20.9871 9.98224 20.5182C9.5134 20.0494 9.25001 19.4135 9.25001 18.7505ZM5.41251 26.013C6.2958 24.6196 7.61383 23.5564 9.16251 22.988C9.948 23.4845 10.8582 23.7481 11.7875 23.7481C12.7168 23.7481 13.627 23.4845 14.4125 22.988C15.9612 23.5564 17.2792 24.6196 18.1625 26.013C17.3443 26.8832 16.3566 27.5768 15.2602 28.0508C14.1638 28.5249 12.982 28.7695 11.7875 28.7695C10.593 28.7695 9.41118 28.5249 8.31479 28.0508C7.21841 27.5768 6.2307 26.8832 5.41251 26.013V26.013Z" fill="#05058C"/>
</g>
<defs>
<clipPath id="clip0_5203_31034">
<rect width="40" height="40" fill="white" transform="translate(0.5)"/>
</clipPath>
</defs>
</svg>
