<svg width="40" height="41" viewBox="0 0 40 41" fill="none" xmlns="http://www.w3.org/2000/svg">
<rect y="0.5" width="40" height="40" rx="20" fill="#F4F2FA"/>
<g clip-path="url(#clip0_5203_30356)">
<path d="M29 11.5C29.2652 11.5 29.5196 11.6054 29.7071 11.7929C29.8946 11.9804 30 12.2348 30 12.5V28.5C30 28.7652 29.8946 29.0196 29.7071 29.2071C29.5196 29.3946 29.2652 29.5 29 29.5H11C10.7348 29.5 10.4804 29.3946 10.2929 29.2071C10.1054 29.0196 10 28.7652 10 28.5V12.5C10 12.2348 10.1054 11.9804 10.2929 11.7929C10.4804 11.6054 10.7348 11.5 11 11.5H29ZM17.399 16.5H15.399L12.199 24.5H14.353L14.753 23.5H18.043L18.443 24.5H20.598L17.399 16.5ZM27 16.5H25V18.5H24C23.2191 18.4992 22.4687 18.803 21.9082 19.3468C21.3477 19.8905 21.0213 20.6314 20.9984 21.412C20.9755 22.1925 21.2578 22.9513 21.7855 23.527C22.3131 24.1027 23.0444 24.4499 23.824 24.495L24 24.5H27V16.5ZM25 20.5V22.5H24L23.883 22.493C23.64 22.4641 23.4159 22.347 23.2534 22.164C23.0909 21.981 23.0011 21.7448 23.0011 21.5C23.0011 21.2552 23.0909 21.019 23.2534 20.836C23.4159 20.653 23.64 20.5359 23.883 20.507L24 20.5H25ZM16.399 19.385L17.244 21.5H15.552L16.399 19.385Z" fill="#05058C"/>
</g>
<defs>
<clipPath id="clip0_5203_30356">
<rect width="24" height="24" fill="white" transform="translate(8 8.5)"/>
</clipPath>
</defs>
</svg>
