<svg width="40" height="41" viewBox="0 0 40 41" fill="none" xmlns="http://www.w3.org/2000/svg">
<rect y="0.5" width="40" height="40" rx="20" fill="#F4F2FA"/>
<g clip-path="url(#clip0_5203_29777)">
<path d="M22 10.5C23.83 10.4991 25.6049 11.1257 27.0289 12.2751C28.4528 13.4246 29.4396 15.0275 29.8247 16.8165C30.2098 18.6055 29.9699 20.4724 29.1451 22.1059C28.3202 23.7395 26.9602 25.0408 25.292 25.793C24.7588 26.9719 23.9475 28.0039 22.9279 28.8004C21.9082 29.597 20.7106 30.1343 19.4376 30.3663C18.1647 30.5984 16.8545 30.5182 15.6194 30.1327C14.3842 29.7472 13.261 29.0678 12.3461 28.1529C11.4312 27.238 10.7518 26.1148 10.3663 24.8796C9.9808 23.6445 9.90062 22.3343 10.1327 21.0614C10.3647 19.7884 10.902 18.5908 11.6986 17.5711C12.4951 16.5515 13.5271 15.7402 14.706 15.207C15.3401 13.8039 16.3656 12.6135 17.6593 11.7786C18.9531 10.9437 20.4602 10.4998 22 10.5ZM19 17.5H17V18.5C16.3501 18.4984 15.7252 18.75 15.2576 19.2013C14.79 19.6527 14.5166 20.2684 14.4953 20.918C14.4739 21.5675 14.7064 22.1998 15.1433 22.6809C15.5803 23.1619 16.1874 23.4539 16.836 23.495L17 23.5H19L19.09 23.508C19.2053 23.5289 19.3096 23.5896 19.3847 23.6795C19.4598 23.7694 19.5009 23.8828 19.5009 24C19.5009 24.1172 19.4598 24.2306 19.3847 24.3205C19.3096 24.4104 19.2053 24.4711 19.09 24.492L19 24.5H15V26.5H17V27.5H19V26.5C19.6499 26.5016 20.2748 26.25 20.7424 25.7987C21.21 25.3473 21.4834 24.7316 21.5047 24.082C21.5261 23.4325 21.2936 22.8002 20.8567 22.3191C20.4197 21.8381 19.8126 21.5461 19.164 21.505L19 21.5H17L16.91 21.492C16.7947 21.4711 16.6904 21.4104 16.6153 21.3205C16.5402 21.2306 16.4991 21.1172 16.4991 21C16.4991 20.8828 16.5402 20.7694 16.6153 20.6795C16.6904 20.5896 16.7947 20.5289 16.91 20.508L17 20.5H21V18.5H19V17.5ZM22 12.5C21.1527 12.499 20.3148 12.6779 19.5418 13.025C18.7688 13.372 18.0783 13.8792 17.516 14.513C18.6463 14.4444 19.7782 14.6165 20.837 15.0179C21.8958 15.4194 22.8573 16.041 23.6579 16.8418C24.4586 17.6425 25.0801 18.6041 25.4814 19.6629C25.8828 20.7218 26.0547 21.8537 25.986 22.984C26.8952 22.1756 27.5372 21.1099 27.8268 19.9283C28.1164 18.7467 28.04 17.5049 27.6076 16.3677C27.1753 15.2305 26.4074 14.2516 25.4059 13.5609C24.4044 12.8701 23.2166 12.5001 22 12.5Z" fill="#05058C"/>
</g>
<defs>
<clipPath id="clip0_5203_29777">
<rect width="24" height="24" fill="white" transform="translate(8 8.5)"/>
</clipPath>
</defs>
</svg>
