<svg width="40" height="41" viewBox="0 0 40 41" fill="none" xmlns="http://www.w3.org/2000/svg">
<rect y="0.5" width="40" height="40" rx="20" fill="#F4F2FA"/>
<g clip-path="url(#clip0_5203_30354)">
<path d="M10 12.493C10.0018 12.2304 10.1069 11.979 10.2925 11.7932C10.4781 11.6074 10.7294 11.5021 10.992 11.5H29.008C29.556 11.5 30 11.945 30 12.493V28.507C29.9982 28.7696 29.8931 29.021 29.7075 29.2068C29.5219 29.3926 29.2706 29.4979 29.008 29.5H10.992C10.7288 29.4997 10.4765 29.395 10.2905 29.2088C10.1045 29.0226 10 28.7702 10 28.507V12.493ZM14 23.5V25.5H26V23.5H14ZM14 15.5V21.5H20V15.5H14ZM22 15.5V17.5H26V15.5H22ZM22 19.5V21.5H26V19.5H22ZM16 17.5H18V19.5H16V17.5Z" fill="#05058C"/>
</g>
<defs>
<clipPath id="clip0_5203_30354">
<rect width="24" height="24" fill="white" transform="translate(8 8.5)"/>
</clipPath>
</defs>
</svg>
