<svg width="24" height="24" viewBox="0 0 24 24" fill="none" xmlns="http://www.w3.org/2000/svg">
<g clip-path="url(#clip0_2932_1376)">
<path d="M22.05 17.3024C22.3316 16.848 22.4867 16.3267 22.4992 15.7923C22.5117 15.2579 22.3812 14.7298 22.1212 14.2628C21.8611 13.7957 21.4811 13.4066 21.0202 13.1358C20.5594 12.8649 20.0345 12.722 19.5 12.722C18.9655 12.722 18.4406 12.8649 17.9798 13.1358C17.5189 13.4066 17.1389 13.7957 16.8788 14.2628C16.6188 14.7298 16.4883 15.2579 16.5008 15.7923C16.5133 16.3267 16.6684 16.848 16.95 17.3024C16.1906 17.8239 15.6115 18.5681 15.2925 19.4324C15.0704 19.1912 14.8184 18.9795 14.5425 18.8024C14.8241 18.348 14.9792 17.8267 14.9917 17.2923C15.0042 16.7579 14.8737 16.2298 14.6137 15.7628C14.3536 15.2957 13.9736 14.9066 13.5127 14.6358C13.0519 14.3649 12.5271 14.222 11.9925 14.222C11.4579 14.222 10.9331 14.3649 10.4723 14.6358C10.0114 14.9066 9.63135 15.2957 9.37133 15.7628C9.11131 16.2298 8.98081 16.7579 8.99332 17.2923C9.00583 17.8267 9.16091 18.348 9.4425 18.8024C9.17091 18.9824 8.91946 19.1911 8.6925 19.4249C8.38103 18.5627 7.80646 17.8202 7.05 17.3024C7.33159 16.848 7.48667 16.3267 7.49918 15.7923C7.51169 15.2579 7.38119 14.7298 7.12117 14.2628C6.86115 13.7957 6.48106 13.4066 6.02023 13.1358C5.55939 12.8649 5.03455 12.722 4.5 12.722C3.96545 12.722 3.44061 12.8649 2.97977 13.1358C2.51894 13.4066 2.13885 13.7957 1.87883 14.2628C1.61881 14.7298 1.48831 15.2579 1.50082 15.7923C1.51333 16.3267 1.66841 16.848 1.95 17.3024C1.35009 17.715 0.859252 18.267 0.519609 18.911C0.179966 19.555 0.00166169 20.2718 0 20.9999L0 21.7499C0 21.9488 0.0790176 22.1396 0.21967 22.2802C0.360322 22.4209 0.551088 22.4999 0.75 22.4999H2.25C2.44891 22.4999 2.63968 22.4209 2.78033 22.2802C2.92098 22.1396 3 21.9488 3 21.7499C3 21.551 2.92098 21.3602 2.78033 21.2196C2.63968 21.0789 2.44891 20.9999 2.25 20.9999H1.5C1.50061 20.4607 1.64651 19.9317 1.92235 19.4685C2.19819 19.0052 2.59378 18.6248 3.0675 18.3674C3.50263 18.616 3.9951 18.7468 4.49625 18.7468C4.9974 18.7468 5.48987 18.616 5.925 18.3674C6.40442 18.6187 6.80516 18.9974 7.08307 19.4619C7.36097 19.9264 7.50525 20.4586 7.5 20.9999H5.25C5.05109 20.9999 4.86032 21.0789 4.71967 21.2196C4.57902 21.3602 4.5 21.551 4.5 21.7499C4.5 21.9488 4.57902 22.1396 4.71967 22.2802C4.86032 22.4209 5.05109 22.4999 5.25 22.4999H7.5V23.2499C7.5 23.4488 7.57902 23.6396 7.71967 23.7802C7.86032 23.9209 8.05109 23.9999 8.25 23.9999H15.75C15.9489 23.9999 16.1397 23.9209 16.2803 23.7802C16.421 23.6396 16.5 23.4488 16.5 23.2499V22.4999H23.25C23.4489 22.4999 23.6397 22.4209 23.7803 22.2802C23.921 22.1396 24 21.9488 24 21.7499V20.9999C24.0022 20.2711 23.8256 19.5529 23.4856 18.9082C23.1456 18.2636 22.6527 17.7122 22.05 17.3024ZM3 15.7499C3 15.4532 3.08797 15.1632 3.2528 14.9165C3.41762 14.6699 3.65189 14.4776 3.92597 14.3641C4.20006 14.2505 4.50166 14.2208 4.79264 14.2787C5.08361 14.3366 5.35088 14.4795 5.56066 14.6892C5.77044 14.899 5.9133 15.1663 5.97118 15.4573C6.02906 15.7482 5.99935 16.0498 5.88582 16.3239C5.77229 16.598 5.58003 16.8323 5.33335 16.9971C5.08668 17.1619 4.79667 17.2499 4.5 17.2499C4.10218 17.2499 3.72064 17.0919 3.43934 16.8106C3.15804 16.5292 3 16.1477 3 15.7499ZM12 15.7499C12.2967 15.7499 12.5867 15.8379 12.8334 16.0027C13.08 16.1675 13.2723 16.4018 13.3858 16.6759C13.4994 16.95 13.5291 17.2516 13.4712 17.5425C13.4133 17.8335 13.2704 18.1008 13.0607 18.3106C12.8509 18.5203 12.5836 18.6632 12.2926 18.7211C12.0017 18.7789 11.7001 18.7492 11.426 18.6357C11.1519 18.5222 10.9176 18.3299 10.7528 18.0832C10.588 17.8366 10.5 17.5466 10.5 17.2499C10.5 16.8521 10.658 16.4705 10.9393 16.1892C11.2206 15.9079 11.6022 15.7499 12 15.7499ZM9 22.4999C9.00061 21.9607 9.14651 21.4317 9.42235 20.9685C9.69819 20.5052 10.0938 20.1248 10.5675 19.8674C11.0026 20.116 11.4951 20.2468 11.9963 20.2468C12.4974 20.2468 12.9899 20.116 13.425 19.8674C13.9044 20.1187 14.3052 20.4974 14.5831 20.9619C14.861 21.4264 15.0052 21.9586 15 22.4999H9ZM19.5 14.2499C19.7967 14.2499 20.0867 14.3379 20.3334 14.5027C20.58 14.6675 20.7723 14.9018 20.8858 15.1759C20.9994 15.45 21.0291 15.7516 20.9712 16.0425C20.9133 16.3335 20.7704 16.6008 20.5607 16.8106C20.3509 17.0203 20.0836 17.1632 19.7926 17.2211C19.5017 17.2789 19.2001 17.2492 18.926 17.1357C18.6519 17.0222 18.4176 16.8299 18.2528 16.5832C18.088 16.3366 18 16.0466 18 15.7499C18 15.3521 18.158 14.9705 18.4393 14.6892C18.7206 14.4079 19.1022 14.2499 19.5 14.2499ZM16.5 20.9999C16.5006 20.4607 16.6465 19.9317 16.9223 19.4685C17.1982 19.0052 17.5938 18.6248 18.0675 18.3674C18.5026 18.616 18.9951 18.7468 19.4963 18.7468C19.9974 18.7468 20.4899 18.616 20.925 18.3674C21.4044 18.6187 21.8052 18.9974 22.0831 19.4619C22.361 19.9264 22.5052 20.4586 22.5 20.9999H16.5Z" fill="white"/>
<path d="M14.25 12.7499C14.0511 12.7499 13.8603 12.6709 13.7197 12.5302C13.579 12.3896 13.5 12.1988 13.5 11.9999V6.7499C13.5 6.55099 13.579 6.36022 13.7197 6.21957C13.8603 6.07892 14.0511 5.9999 14.25 5.9999H15.6L12 1.8899L8.40003 5.9999H9.75003C9.94894 5.9999 10.1397 6.07892 10.2804 6.21957C10.421 6.36022 10.5 6.55099 10.5 6.7499V11.9999C10.5 12.1988 10.421 12.3896 10.2804 12.5302C10.1397 12.6709 9.94894 12.7499 9.75003 12.7499C9.55112 12.7499 9.36035 12.6709 9.2197 12.5302C9.07905 12.3896 9.00003 12.1988 9.00003 11.9999V7.4999H6.75003C6.6059 7.49972 6.46487 7.45801 6.34382 7.37976C6.22278 7.30151 6.12684 7.19005 6.0675 7.0587C6.00815 6.92735 5.98791 6.78168 6.0092 6.63913C6.03049 6.49658 6.0924 6.36318 6.18753 6.2549L11.4375 0.254898C11.5079 0.175093 11.5945 0.111178 11.6915 0.0673982C11.7884 0.0236185 11.8936 0.000976563 12 0.000976562C12.1064 0.000976563 12.2116 0.0236185 12.3086 0.0673982C12.4056 0.111178 12.4921 0.175093 12.5625 0.254898L17.8125 6.2549C17.9077 6.36318 17.9696 6.49658 17.9909 6.63913C18.0121 6.78168 17.9919 6.92735 17.9326 7.0587C17.8732 7.19005 17.7773 7.30151 17.6562 7.37976C17.5352 7.45801 17.3942 7.49972 17.25 7.4999H15V11.9999C15 12.1988 14.921 12.3896 14.7804 12.5302C14.6397 12.6709 14.4489 12.7499 14.25 12.7499Z" fill="white"/>
</g>
<defs>
<clipPath id="clip0_2932_1376">
<rect width="24" height="24" fill="white"/>
</clipPath>
</defs>
</svg>
