<svg width="25" height="24" viewBox="0 0 25 24" fill="none" xmlns="http://www.w3.org/2000/svg">
<g clip-path="url(#clip0_2932_1382)">
<path d="M23.75 12.75C23.3375 12.75 23.345 12.6525 21.5 10.8075L19.7825 12.5325C19.6776 12.6383 19.5436 12.7104 19.3975 12.7397C19.2515 12.769 19.1 12.7542 18.9624 12.697C18.8248 12.6399 18.7074 12.5431 18.625 12.419C18.5427 12.2948 18.4992 12.149 18.5 12C18.5 10.4087 17.8679 8.88259 16.7427 7.75737C15.6174 6.63215 14.0913 6.00001 12.5 6.00001C12.4013 6.00058 12.3035 5.98166 12.2121 5.94434C12.1207 5.90702 12.0376 5.85202 11.9675 5.78251L9.71752 3.53251C9.64722 3.46279 9.59143 3.37984 9.55335 3.28844C9.51528 3.19705 9.49567 3.09902 9.49567 3.00001C9.49567 2.901 9.51528 2.80297 9.55335 2.71158C9.59143 2.62019 9.64722 2.53723 9.71752 2.46751L11.9675 0.217513C12.0376 0.148001 12.1207 0.0930076 12.2121 0.0556841C12.3035 0.0183607 12.4013 -0.000558134 12.5 1.25357e-05C15.6826 1.25357e-05 18.7349 1.26429 20.9853 3.51473C23.2357 5.76517 24.5 8.81741 24.5 12C24.5 12.1989 24.421 12.3897 24.2804 12.5303C24.1397 12.671 23.9489 12.75 23.75 12.75ZM12.815 4.50001C14.4645 4.56922 16.0451 5.18078 17.3117 6.23985C18.5782 7.29891 19.4599 8.74629 19.82 10.3575L20.9675 9.21001C21.0372 9.13972 21.1202 9.08392 21.2116 9.04584C21.303 9.00777 21.401 8.98816 21.5 8.98816C21.599 8.98816 21.6971 9.00777 21.7885 9.04584C21.8798 9.08392 21.9628 9.13972 22.0325 9.21001L22.7825 9.96001C22.3221 7.62939 21.085 5.52378 19.2732 3.98717C17.4614 2.45055 15.182 1.57375 12.8075 1.50001L11.3075 3.00001L12.815 4.50001Z" fill="white"/>
<path d="M24.2825 11.4675L22.0325 9.2175C21.9628 9.1472 21.8799 9.09141 21.7885 9.05333C21.6971 9.01525 21.599 8.99565 21.5 8.99565C21.401 8.99565 21.303 9.01525 21.2116 9.05333C21.1202 9.09141 21.0373 9.1472 20.9675 9.2175L18.7175 11.4675C18.648 11.5376 18.593 11.6207 18.5557 11.7121C18.5184 11.8034 18.4995 11.9013 18.5 12C18.5 13.1867 18.1481 14.3467 17.4888 15.3334C16.8296 16.3201 15.8925 17.0892 14.7961 17.5433C13.6998 17.9974 12.4934 18.1162 11.3295 17.8847C10.1656 17.6532 9.09651 17.0818 8.25739 16.2426C7.41828 15.4035 6.84683 14.3344 6.61532 13.1705C6.38381 12.0067 6.50263 10.8003 6.95675 9.7039C7.41088 8.60754 8.17991 7.67047 9.16661 7.01118C10.1533 6.35189 11.3133 6 12.5 6C12.4013 6.00057 12.3035 5.98165 12.2121 5.94433C12.1207 5.907 12.0376 5.85201 11.9675 5.7825L10.865 4.68C9.25242 5.03867 7.80335 5.91974 6.74283 7.18641C5.6823 8.45307 5.06966 10.0345 5.00003 11.685L3.50003 13.185L2.00003 11.685C2.07059 9.30129 2.95048 7.01261 4.49492 5.19554C6.03936 3.37847 8.15635 2.14126 10.4975 1.6875C12.0725 0.1125 12.0875 0 12.5 0C10.0705 0.000460267 7.69827 0.738381 5.69716 2.11617C3.69605 3.49397 2.16029 5.44673 1.29297 7.7162C0.425662 9.98568 0.267659 12.465 0.839859 14.8262C1.41206 17.1874 2.68751 19.3193 4.49753 20.94C4.57091 21.006 4.65656 21.0569 4.74961 21.0898C4.84265 21.1227 4.94126 21.1369 5.03981 21.1317C5.13835 21.1264 5.2349 21.1019 5.32395 21.0593C5.413 21.0168 5.49279 20.9571 5.55878 20.8837C5.62477 20.8104 5.67566 20.7247 5.70855 20.6317C5.74143 20.5386 5.75567 20.44 5.75045 20.3415C5.74522 20.2429 5.72064 20.1464 5.6781 20.0573C5.63557 19.9683 5.57591 19.8885 5.50253 19.8225C3.79458 18.2953 2.63303 16.2514 2.19503 14.0025L2.94503 14.7525C3.01475 14.8228 3.0977 14.8786 3.1891 14.9167C3.28049 14.9547 3.37852 14.9743 3.47753 14.9743C3.57654 14.9743 3.67457 14.9547 3.76596 14.9167C3.85736 14.8786 3.94031 14.8228 4.01003 14.7525L5.15753 13.605C5.51142 15.2267 6.39332 16.6853 7.66504 17.7521C8.93676 18.8188 10.5265 19.4336 12.185 19.5L13.685 21L12.185 22.5C10.8435 22.464 9.52171 22.1685 8.29253 21.63C8.10953 21.5504 7.90242 21.5468 7.71676 21.62C7.5311 21.6931 7.3821 21.837 7.30253 22.02C7.22297 22.203 7.21936 22.4101 7.2925 22.5958C7.36563 22.7814 7.50953 22.9304 7.69253 23.01C9.51997 23.809 11.5177 24.14 13.5052 23.9729C15.4927 23.8059 17.4072 23.146 19.0756 22.0531C20.744 20.9602 22.1137 19.4687 23.0608 17.7134C24.0079 15.9581 24.5025 13.9945 24.5 12C24.5006 11.9013 24.4817 11.8034 24.4444 11.7121C24.407 11.6207 24.352 11.5376 24.2825 11.4675ZM14.5325 22.3125L15.2825 21.5625C15.3528 21.4928 15.4086 21.4098 15.4467 21.3184C15.4848 21.227 15.5044 21.129 15.5044 21.03C15.5044 20.931 15.4848 20.833 15.4467 20.7416C15.4086 20.6502 15.3528 20.5672 15.2825 20.4975L14.135 19.35C15.7524 18.99 17.2051 18.1045 18.2661 16.8318C19.3272 15.559 19.9369 13.9708 20 12.315L21.5 10.815L23 12.315C22.9295 14.6987 22.0496 16.9874 20.5051 18.8045C18.9607 20.6215 16.8437 21.8587 14.5025 22.3125H14.5325Z" fill="white"/>
</g>
<defs>
<clipPath id="clip0_2932_1382">
<rect width="24" height="24" fill="white" transform="translate(0.5)"/>
</clipPath>
</defs>
</svg>
