<svg width="25" height="24" viewBox="0 0 25 24" fill="none" xmlns="http://www.w3.org/2000/svg">
<g clip-path="url(#clip0_2932_1388)">
<path d="M24.4025 11.625C18.9125 2.10745 6.08749 2.09245 0.59749 11.625C0.531664 11.739 0.497009 11.8683 0.497009 12C0.497009 12.1316 0.531664 12.2609 0.59749 12.375C0.912734 12.9189 1.25828 13.4447 1.63249 13.95C1.69158 14.0287 1.76562 14.0951 1.85037 14.1453C1.93512 14.1955 2.02892 14.2285 2.12642 14.2424C2.22393 14.2563 2.32322 14.2509 2.41863 14.2265C2.51404 14.202 2.6037 14.159 2.68249 14.1C2.76128 14.0409 2.82767 13.9668 2.87785 13.8821C2.92803 13.7973 2.96102 13.7035 2.97495 13.606C2.98888 13.5085 2.98347 13.4092 2.95903 13.3138C2.93458 13.2184 2.89158 13.1287 2.83249 13.05C2.58499 12.72 2.35249 12.3675 2.11999 12C3.17278 10.259 4.62219 8.79163 6.34999 7.71745C5.46624 8.97344 4.99195 10.4717 4.99195 12.0075C4.99195 13.5432 5.46624 15.0415 6.34999 16.2975C5.80427 15.9658 5.2852 15.5922 4.79749 15.18C4.72264 15.1159 4.63591 15.0673 4.54225 15.0368C4.4486 15.0063 4.34985 14.9945 4.25165 15.0022C4.15346 15.0098 4.05773 15.0368 3.96994 15.0814C3.88215 15.1261 3.80401 15.1876 3.73999 15.2625C3.67597 15.3373 3.62732 15.424 3.59682 15.5177C3.56632 15.6113 3.55456 15.7101 3.56222 15.8083C3.56989 15.9065 3.59681 16.0022 3.64147 16.09C3.68613 16.1778 3.74764 16.2559 3.82249 16.32C9.74749 21.3975 19.6175 20.64 24.3875 12.375C24.4556 12.2623 24.4929 12.1336 24.4955 12.002C24.4981 11.8703 24.466 11.7403 24.4025 11.625ZM6.49999 12C6.49999 10.8133 6.85188 9.65323 7.51117 8.66653C8.17046 7.67984 9.10753 6.9108 10.2039 6.45668C11.3002 6.00255 12.5066 5.88373 13.6705 6.11524C14.8344 6.34675 15.9035 6.9182 16.7426 7.75731C17.5817 8.59643 18.1532 9.66552 18.3847 10.8294C18.6162 11.9933 18.4974 13.1997 18.0433 14.2961C17.5891 15.3924 16.8201 16.3295 15.8334 16.9888C14.8467 17.6481 13.6867 18 12.5 18C10.9087 18 9.38257 17.3678 8.25735 16.2426C7.13213 15.1174 6.49999 13.5913 6.49999 12ZM18.65 16.2825C19.5243 15.0255 19.9929 13.5311 19.9929 12C19.9929 10.4688 19.5243 8.97442 18.65 7.71745C20.3778 8.79163 21.8272 10.259 22.88 12C21.8272 13.7409 20.3778 15.2083 18.65 16.2825Z" fill="white"/>
<path d="M12.5 3C12.3011 3 12.1103 2.92098 11.9696 2.78033C11.829 2.63968 11.75 2.44891 11.75 2.25V0.75C11.75 0.551088 11.829 0.360322 11.9696 0.21967C12.1103 0.0790176 12.3011 0 12.5 0C12.6989 0 12.8896 0.0790176 13.0303 0.21967C13.171 0.360322 13.25 0.551088 13.25 0.75V2.25C13.25 2.44891 13.171 2.63968 13.0303 2.78033C12.8896 2.92098 12.6989 3 12.5 3Z" fill="white"/>
<path d="M7.24999 3.75002C6.85249 3.75002 6.74749 3.55502 5.96749 2.78252C5.89756 2.71259 5.84209 2.62957 5.80424 2.5382C5.7664 2.44684 5.74692 2.34891 5.74692 2.25002C5.74692 2.15112 5.7664 2.0532 5.80424 1.96183C5.84209 1.87046 5.89756 1.78745 5.96749 1.71752C6.03742 1.64759 6.12043 1.59212 6.2118 1.55427C6.30317 1.51643 6.40109 1.49695 6.49999 1.49695C6.59888 1.49695 6.69681 1.51643 6.78817 1.55427C6.87954 1.59212 6.96256 1.64759 7.03249 1.71752L7.78249 2.46752C7.88826 2.57242 7.96039 2.70645 7.9897 2.85251C8.019 2.99857 8.00414 3.15005 7.94701 3.28763C7.88989 3.42521 7.79309 3.54267 7.66895 3.62502C7.54481 3.70737 7.39896 3.75088 7.24999 3.75002Z" fill="white"/>
<path d="M17.7499 3.75002C17.601 3.75088 17.4551 3.70737 17.331 3.62502C17.2068 3.54267 17.11 3.42521 17.0529 3.28763C16.9958 3.15005 16.9809 2.99857 17.0102 2.85251C17.0395 2.70645 17.1117 2.57242 17.2174 2.46752L17.9674 1.71752C18.1087 1.57629 18.3002 1.49695 18.4999 1.49695C18.6997 1.49695 18.8912 1.57629 19.0324 1.71752C19.1737 1.85874 19.253 2.05029 19.253 2.25002C19.253 2.44974 19.1737 2.64129 19.0324 2.78252C18.2374 3.57752 18.1399 3.75002 17.7499 3.75002Z" fill="white"/>
<path d="M12.5 24.0001C12.3011 24.0001 12.1103 23.9211 11.9696 23.7805C11.829 23.6398 11.75 23.449 11.75 23.2501V21.7501C11.75 21.5512 11.829 21.3604 11.9696 21.2198C12.1103 21.0791 12.3011 21.0001 12.5 21.0001C12.6989 21.0001 12.8896 21.0791 13.0303 21.2198C13.171 21.3604 13.25 21.5512 13.25 21.7501V23.2501C13.25 23.449 13.171 23.6398 13.0303 23.7805C12.8896 23.9211 12.6989 24.0001 12.5 24.0001Z" fill="white"/>
<path d="M6.5 22.5C6.35103 22.5009 6.20518 22.4574 6.08104 22.375C5.9569 22.2927 5.86009 22.1752 5.80297 22.0376C5.74584 21.9 5.73099 21.7486 5.76029 21.6025C5.78959 21.4564 5.86173 21.3224 5.9675 21.2175L6.7175 20.4675C6.78743 20.3976 6.87044 20.3421 6.96181 20.3043C7.05318 20.2664 7.1511 20.2469 7.25 20.2469C7.34889 20.2469 7.44682 20.2664 7.53819 20.3043C7.62955 20.3421 7.71257 20.3976 7.7825 20.4675C7.85243 20.5374 7.9079 20.6205 7.94574 20.7118C7.98359 20.8032 8.00307 20.9011 8.00307 21C8.00307 21.0989 7.98359 21.1968 7.94574 21.2882C7.9079 21.3796 7.85243 21.4626 7.7825 21.5325C6.9875 22.3275 6.89 22.5 6.5 22.5Z" fill="white"/>
<path d="M18.4999 22.5C18.1024 22.5 17.9974 22.305 17.2174 21.5325C17.0762 21.3913 16.9969 21.1997 16.9969 21C16.9969 20.8003 17.0762 20.6087 17.2174 20.4675C17.3587 20.3263 17.5502 20.2469 17.7499 20.2469C17.9497 20.2469 18.1412 20.3263 18.2824 20.4675L19.0324 21.2175C19.1382 21.3224 19.2103 21.4564 19.2396 21.6025C19.2689 21.7486 19.2541 21.9 19.197 22.0376C19.1398 22.1752 19.043 22.2927 18.9189 22.375C18.7947 22.4574 18.6489 22.5009 18.4999 22.5Z" fill="white"/>
<path d="M16.1975 9.86241C16.07 9.50991 16.1225 9.62991 12.8975 7.61241C12.7783 7.53792 12.6405 7.49841 12.5 7.49841C12.3594 7.49841 12.2216 7.53792 12.1025 7.61241C8.87745 9.62991 8.95995 9.52491 8.82495 9.80991C8.68995 10.0949 8.74995 9.80991 8.74995 13.8749C8.7497 14.0024 8.78193 14.1278 8.8436 14.2393C8.90528 14.3509 8.99437 14.4449 9.10245 14.5124C12.425 16.5899 12.0425 16.3499 12.17 16.4174C12.2712 16.4726 12.3847 16.5014 12.5 16.5014C12.6152 16.5014 12.7287 16.4726 12.83 16.4174C12.9725 16.3424 12.635 16.5524 15.8975 14.5124C16.0055 14.4449 16.0946 14.3509 16.1563 14.2393C16.218 14.1278 16.2502 14.0024 16.25 13.8749C16.25 9.80242 16.25 10.0649 16.1975 9.86241ZM12.5 9.11241L14.0825 10.1024L12.5 11.1149L10.9175 10.1249L12.5 9.11241ZM10.25 11.4749L11.75 12.4124V14.3999L10.25 13.4999V11.4749ZM13.25 14.3999V12.4124L14.75 11.4749V13.4999L13.25 14.3999Z" fill="white"/>
</g>
<defs>
<clipPath id="clip0_2932_1388">
<rect width="24" height="24" fill="white" transform="translate(0.5)"/>
</clipPath>
</defs>
</svg>
