<svg width="40" height="40" viewBox="0 0 40 40" fill="none" xmlns="http://www.w3.org/2000/svg">
<rect width="40" height="40" rx="20" fill="#F4F2FA"/>
<g clip-path="url(#clip0_2932_1644)">
<path d="M28 30H14C13.2044 30 12.4413 29.6839 11.8787 29.1213C11.3161 28.5587 11 27.7956 11 27V13C11 12.2044 11.3161 11.4413 11.8787 10.8787C12.4413 10.3161 13.2044 10 14 10H28C28.2652 10 28.5196 10.1054 28.7071 10.2929C28.8946 10.4804 29 10.7348 29 11V29C29 29.2652 28.8946 29.5196 28.7071 29.7071C28.5196 29.8946 28.2652 30 28 30ZM27 28V26H14C13.7348 26 13.4804 26.1054 13.2929 26.2929C13.1054 26.4804 13 26.7348 13 27C13 27.2652 13.1054 27.5196 13.2929 27.7071C13.4804 27.8946 13.7348 28 14 28H27ZM20 18C20.5304 18 21.0391 17.7893 21.4142 17.4142C21.7893 17.0391 22 16.5304 22 16C22 15.4696 21.7893 14.9609 21.4142 14.5858C21.0391 14.2107 20.5304 14 20 14C19.4696 14 18.9609 14.2107 18.5858 14.5858C18.2107 14.9609 18 15.4696 18 16C18 16.5304 18.2107 17.0391 18.5858 17.4142C18.9609 17.7893 19.4696 18 20 18ZM17 22H23C23 21.2044 22.6839 20.4413 22.1213 19.8787C21.5587 19.3161 20.7956 19 20 19C19.2044 19 18.4413 19.3161 17.8787 19.8787C17.3161 20.4413 17 21.2044 17 22Z" fill="#05058C"/>
</g>
<defs>
<clipPath id="clip0_2932_1644">
<rect width="24" height="24" fill="white" transform="translate(8 8)"/>
</clipPath>
</defs>
</svg>
