<svg width="40" height="40" viewBox="0 0 40 40" fill="none" xmlns="http://www.w3.org/2000/svg">
<rect width="40" height="40" rx="20" fill="#F4F2FA"/>
<g clip-path="url(#clip0_2932_1656)">
<path d="M21 12.055C25.5 12.552 29 16.367 29 21V30H11V21C11 16.367 14.5 12.552 19 12.055V9H21V12.055ZM20 26C21.3261 26 22.5979 25.4732 23.5355 24.5355C24.4732 23.5979 25 22.3261 25 21C25 19.6739 24.4732 18.4021 23.5355 17.4645C22.5979 16.5268 21.3261 16 20 16C18.6739 16 17.4021 16.5268 16.4645 17.4645C15.5268 18.4021 15 19.6739 15 21C15 22.3261 15.5268 23.5979 16.4645 24.5355C17.4021 25.4732 18.6739 26 20 26ZM20 24C19.2044 24 18.4413 23.6839 17.8787 23.1213C17.3161 22.5587 17 21.7956 17 21C17 20.2044 17.3161 19.4413 17.8787 18.8787C18.4413 18.3161 19.2044 18 20 18C20.7956 18 21.5587 18.3161 22.1213 18.8787C22.6839 19.4413 23 20.2044 23 21C23 21.7956 22.6839 22.5587 22.1213 23.1213C21.5587 23.6839 20.7956 24 20 24ZM20 22C20.2652 22 20.5196 21.8946 20.7071 21.7071C20.8946 21.5196 21 21.2652 21 21C21 20.7348 20.8946 20.4804 20.7071 20.2929C20.5196 20.1054 20.2652 20 20 20C19.7348 20 19.4804 20.1054 19.2929 20.2929C19.1054 20.4804 19 20.7348 19 21C19 21.2652 19.1054 21.5196 19.2929 21.7071C19.4804 21.8946 19.7348 22 20 22Z" fill="#05058C"/>
</g>
<defs>
<clipPath id="clip0_2932_1656">
<rect width="24" height="24" fill="white" transform="translate(8 8)"/>
</clipPath>
</defs>
</svg>
