<svg width="40" height="40" viewBox="0 0 40 40" fill="none" xmlns="http://www.w3.org/2000/svg">
<circle cx="20" cy="20" r="20" fill="white"/>
<g clip-path="url(#clip0_2932_1443)">
<path d="M26 30C27.933 30 29.5 28.433 29.5 26.5C29.5 24.567 27.933 23 26 23C24.415 23 23.076 24.054 22.645 25.5H17V23.5H15V17.742L17.243 15.5H23V17.5H29V11.5H23V13.5H17.243L14 10.256L9.757 14.5L13 17.741V23.5H11V29.5H17V27.5H22.645C23.075 28.946 24.415 30 26 30ZM26 25C26.828 25 27.5 25.672 27.5 26.5C27.5 27.328 26.828 28 26 28C25.172 28 24.5 27.328 24.5 26.5C24.5 25.672 25.172 25 26 25ZM13 25.5H15V27.5H13V25.5ZM14 13.086L15.414 14.5L14 15.914L12.586 14.5L14 13.086ZM25 13.5H27V15.5H25V13.5Z" fill="#000033"/>
</g>
<defs>
<clipPath id="clip0_2932_1443">
<rect width="24" height="24" fill="white" transform="matrix(-1 0 0 1 32 8.5)"/>
</clipPath>
</defs>
</svg>
