<svg width="40" height="40" viewBox="0 0 40 40" fill="none" xmlns="http://www.w3.org/2000/svg">
<g clip-path="url(#clip0_2932_1476)">
<rect width="40" height="40" fill="#000033"/>
<path d="M17.5 32.5C17.3355 32.5009 17.1724 32.4694 17.0201 32.4072C16.8678 32.345 16.7293 32.2533 16.6125 32.1375L12.8625 28.3875C12.7453 28.2713 12.6523 28.133 12.5889 27.9807C12.5254 27.8284 12.4928 27.665 12.4928 27.5C12.4928 27.335 12.5254 27.1716 12.5889 27.0193C12.6523 26.8669 12.7453 26.7287 12.8625 26.6125L16.6125 22.8625C16.729 22.7459 16.8674 22.6535 17.0197 22.5904C17.172 22.5273 17.3352 22.4949 17.5 22.4949C17.6648 22.4949 17.828 22.5273 17.9803 22.5904C18.1326 22.6535 18.271 22.7459 18.3875 22.8625C18.504 22.979 18.5965 23.1174 18.6596 23.2697C18.7227 23.422 18.7551 23.5852 18.7551 23.75C18.7551 23.9148 18.7227 24.078 18.6596 24.2303C18.5965 24.3826 18.504 24.5209 18.3875 24.6375L15.5125 27.5L18.3875 30.3625C18.5638 30.5373 18.684 30.7607 18.7328 31.0041C18.7817 31.2476 18.7569 31.5 18.6617 31.7293C18.5665 31.9586 18.4052 32.1544 18.1983 32.2917C17.9914 32.4289 17.7483 32.5014 17.5 32.5Z" fill="white"/>
<path d="M30 32.5C29.7517 32.5014 29.5086 32.4289 29.3017 32.2917C29.0948 32.1544 28.9335 31.9586 28.8383 31.7293C28.7431 31.5 28.7183 31.2476 28.7671 31.0041C28.816 30.7607 28.9362 30.5373 29.1125 30.3625L31.9875 27.5L29.1125 24.6375C28.8771 24.4021 28.7449 24.0829 28.7449 23.75C28.7449 23.4171 28.8771 23.0979 29.1125 22.8625C29.3479 22.6271 29.6671 22.4949 30 22.4949C30.3329 22.4949 30.6521 22.6271 30.8875 22.8625L34.6375 26.6125C34.7547 26.7287 34.8476 26.8669 34.9111 27.0193C34.9746 27.1716 35.0072 27.335 35.0072 27.5C35.0072 27.665 34.9746 27.8284 34.9111 27.9807C34.8476 28.133 34.7547 28.2713 34.6375 28.3875L30.8875 32.1375C30.7707 32.2533 30.6322 32.345 30.4799 32.4072C30.3276 32.4694 30.1645 32.5009 30 32.5Z" fill="white"/>
<path d="M22.5 35C22.3125 35.0038 22.1266 34.9653 21.956 34.8875C21.7854 34.8097 21.6345 34.6945 21.5144 34.5505C21.3944 34.4064 21.3083 34.2372 21.2625 34.0554C21.2167 33.8735 21.2125 33.6837 21.25 33.5L23.75 21C23.8163 20.6685 24.0116 20.3769 24.2929 20.1893C24.5742 20.0018 24.9185 19.9337 25.25 20C25.5815 20.0663 25.8731 20.2616 26.0607 20.5429C26.2482 20.8242 26.3163 21.1685 26.25 21.5L23.75 34C23.6916 34.2866 23.5345 34.5436 23.3061 34.7263C23.0777 34.909 22.7924 35.0059 22.5 35Z" fill="white"/>
<path d="M10 17.5H38.75C39.0815 17.5 39.3995 17.3683 39.6339 17.1339C39.8683 16.8995 40 16.5815 40 16.25V11.25C40 10.2554 39.6049 9.30161 38.9017 8.59835C38.1984 7.89509 37.2446 7.5 36.25 7.5H32.5V3.75C32.5 2.75544 32.1049 1.80161 31.4017 1.09835C30.6984 0.395088 29.7446 0 28.75 0L3.75 0C2.75544 0 1.80161 0.395088 1.09835 1.09835C0.395088 1.80161 0 2.75544 0 3.75L0 28.75C0 29.7446 0.395088 30.6984 1.09835 31.4017C1.80161 32.1049 2.75544 32.5 3.75 32.5H7.5V36.25C7.5 37.2446 7.89509 38.1984 8.59835 38.9017C9.30161 39.6049 10.2554 40 11.25 40H36.25C37.2446 40 38.1984 39.6049 38.9017 38.9017C39.6049 38.1984 40 37.2446 40 36.25V21.25C40 20.9185 39.8683 20.6005 39.6339 20.3661C39.3995 20.1317 39.0815 20 38.75 20C38.4185 20 38.1005 20.1317 37.8661 20.3661C37.6317 20.6005 37.5 20.9185 37.5 21.25V36.25C37.5 36.5815 37.3683 36.8995 37.1339 37.1339C36.8995 37.3683 36.5815 37.5 36.25 37.5H11.25C10.9185 37.5 10.6005 37.3683 10.3661 37.1339C10.1317 36.8995 10 36.5815 10 36.25V17.5ZM37.5 11.25V15H10V11.25C10 10.9185 10.1317 10.6005 10.3661 10.3661C10.6005 10.1317 10.9185 10 11.25 10H36.25C36.5815 10 36.8995 10.1317 37.1339 10.3661C37.3683 10.6005 37.5 10.9185 37.5 11.25ZM3.75 30C3.41848 30 3.10054 29.8683 2.86612 29.6339C2.6317 29.3995 2.5 29.0815 2.5 28.75V3.75C2.5 3.41848 2.6317 3.10054 2.86612 2.86612C3.10054 2.6317 3.41848 2.5 3.75 2.5H28.75C29.0815 2.5 29.3995 2.6317 29.6339 2.86612C29.8683 3.10054 30 3.41848 30 3.75V7.5H11.25C10.2554 7.5 9.30161 7.89509 8.59835 8.59835C7.89509 9.30161 7.5 10.2554 7.5 11.25V30H3.75Z" fill="white"/>
</g>
<defs>
<clipPath id="clip0_2932_1476">
<rect width="40" height="40" fill="white"/>
</clipPath>
</defs>
</svg>
