<svg width="40" height="40" viewBox="0 0 40 40" fill="none" xmlns="http://www.w3.org/2000/svg">
<g clip-path="url(#clip0_2932_1470)">
<rect width="40" height="40" fill="#000033"/>
<path d="M38.75 12.5C39.0815 12.5 39.3995 12.3683 39.6339 12.1339C39.8683 11.8995 40 11.5815 40 11.25V3.75C40 2.75544 39.6049 1.80161 38.9017 1.09835C38.1984 0.395088 37.2446 0 36.25 0L3.75 0C2.75544 0 1.80161 0.395088 1.09835 1.09835C0.395088 1.80161 0 2.75544 0 3.75L0 36.25C0 37.2446 0.395088 38.1984 1.09835 38.9017C1.80161 39.6049 2.75544 40 3.75 40H36.25C37.2446 40 38.1984 39.6049 38.9017 38.9017C39.6049 38.1984 40 37.2446 40 36.25V16.25C40 15.9185 39.8683 15.6005 39.6339 15.3661C39.3995 15.1317 39.0815 15 38.75 15C38.4185 15 38.1005 15.1317 37.8661 15.3661C37.6317 15.6005 37.5 15.9185 37.5 16.25V36.25C37.5 36.5815 37.3683 36.8995 37.1339 37.1339C36.8995 37.3683 36.5815 37.5 36.25 37.5H3.75C3.41848 37.5 3.10054 37.3683 2.86612 37.1339C2.6317 36.8995 2.5 36.5815 2.5 36.25V12.5H38.75ZM2.5 3.75C2.5 3.41848 2.6317 3.10054 2.86612 2.86612C3.10054 2.6317 3.41848 2.5 3.75 2.5H36.25C36.5815 2.5 36.8995 2.6317 37.1339 2.86612C37.3683 3.10054 37.5 3.41848 37.5 3.75V10H2.5V3.75Z" fill="white"/>
<path d="M33.75 5C33.5028 5 33.2611 5.07331 33.0555 5.21066C32.85 5.34801 32.6898 5.54324 32.5952 5.77165C32.5005 6.00005 32.4758 6.25139 32.524 6.49386C32.5723 6.73634 32.6913 6.95907 32.8661 7.13388C33.0409 7.3087 33.2637 7.42775 33.5061 7.47598C33.7486 7.52421 33.9999 7.49946 34.2284 7.40485C34.4568 7.31024 34.652 7.15002 34.7893 6.94446C34.9267 6.7389 35 6.49723 35 6.25C35 5.91848 34.8683 5.60054 34.6339 5.36612C34.3995 5.1317 34.0815 5 33.75 5V5Z" fill="white"/>
<path d="M28.75 5C28.5028 5 28.2611 5.07331 28.0555 5.21066C27.85 5.34801 27.6898 5.54324 27.5952 5.77165C27.5005 6.00005 27.4758 6.25139 27.524 6.49386C27.5723 6.73634 27.6913 6.95907 27.8661 7.13388C28.0409 7.3087 28.2637 7.42775 28.5061 7.47598C28.7486 7.52421 28.9999 7.49946 29.2284 7.40485C29.4568 7.31024 29.652 7.15002 29.7893 6.94446C29.9267 6.7389 30 6.49723 30 6.25C30 5.91848 29.8683 5.60054 29.6339 5.36612C29.3995 5.1317 29.0815 5 28.75 5V5Z" fill="white"/>
<path d="M23.75 5C23.5028 5 23.2611 5.07331 23.0555 5.21066C22.85 5.34801 22.6898 5.54324 22.5952 5.77165C22.5005 6.00005 22.4758 6.25139 22.524 6.49386C22.5723 6.73634 22.6913 6.95907 22.8661 7.13388C23.0409 7.3087 23.2637 7.42775 23.5061 7.47598C23.7486 7.52421 23.9999 7.49946 24.2284 7.40485C24.4568 7.31024 24.652 7.15002 24.7893 6.94446C24.9267 6.7389 25 6.49723 25 6.25C25 5.91848 24.8683 5.60054 24.6339 5.36612C24.3995 5.1317 24.0815 5 23.75 5V5Z" fill="white"/>
<path d="M29.6375 32.8625L24.6375 27.8625C25.8456 26.2104 26.3857 24.1633 26.1499 22.1302C25.914 20.0971 24.9196 18.228 23.3653 16.8964C21.811 15.5648 19.8115 14.8688 17.7663 14.9476C15.7211 15.0263 13.781 15.8741 12.3338 17.3213C10.8865 18.7685 10.0388 20.7086 9.96002 22.7538C9.88124 24.799 10.5772 26.7986 11.9088 28.3528C13.2405 29.9071 15.1096 30.9015 17.1427 31.1374C19.1757 31.3733 21.2229 30.8332 22.875 29.625L27.875 34.625C28.1058 34.8606 28.4203 34.9953 28.75 35C28.9983 35.0015 29.2414 34.929 29.4483 34.7917C29.6552 34.6545 29.8165 34.4587 29.9117 34.2294C30.0069 34.0001 30.0317 33.7476 29.9829 33.5042C29.934 33.2608 29.8138 33.0374 29.6375 32.8625ZM12.5 23.125C12.5 22.0125 12.8299 20.925 13.448 20C14.0661 19.0749 14.9446 18.354 15.9724 17.9282C17.0002 17.5025 18.1312 17.3911 19.2224 17.6081C20.3135 17.8252 21.3158 18.3609 22.1025 19.1476C22.8891 19.9342 23.4249 20.9365 23.6419 22.0277C23.859 23.1188 23.7476 24.2498 23.3218 25.2776C22.8961 26.3055 22.1751 27.184 21.2501 27.8021C20.3251 28.4201 19.2375 28.75 18.125 28.75C16.6342 28.7467 15.2054 28.153 14.1512 27.0989C13.097 26.0447 12.5033 24.6159 12.5 23.125V23.125Z" fill="white"/>
</g>
<defs>
<clipPath id="clip0_2932_1470">
<rect width="40" height="40" fill="white"/>
</clipPath>
</defs>
</svg>
