<svg width="40" height="40" viewBox="0 0 40 40" fill="none" xmlns="http://www.w3.org/2000/svg">
<g clip-path="url(#clip0_2932_1464)">
<rect width="40" height="40" fill="#000033"/>
<path d="M33.4625 15.7249C33.2004 15.5233 32.869 15.4338 32.541 15.476C32.213 15.5182 31.9151 15.6886 31.7125 15.9499L28.225 20.4124C27.3716 20.039 26.4296 19.916 25.5089 20.0576C24.5882 20.1993 23.7267 20.5998 23.025 21.2124L18.425 17.9874C18.737 17.1816 18.8347 16.3087 18.7088 15.4538C18.5829 14.5989 18.2376 13.7912 17.7065 13.1095C17.1754 12.4278 16.4768 11.8954 15.6786 11.5642C14.8805 11.233 14.0102 11.1143 13.1525 11.2197C12.2948 11.3251 11.4791 11.6509 10.7849 12.1655C10.0907 12.68 9.54164 13.3657 9.19137 14.1557C8.84111 14.9456 8.70155 15.8129 8.78631 16.6728C8.87107 17.5328 9.17725 18.3561 9.675 19.0624L7.2375 21.7999C6.47682 21.4193 5.6316 21.239 4.7818 21.2761C3.93199 21.3132 3.10571 21.5665 2.38111 22.012C1.65651 22.4576 1.05755 23.0806 0.640885 23.8222C0.224224 24.5637 0.00364006 25.3993 0 26.2499C0 26.5815 0.131696 26.8994 0.366117 27.1338C0.600537 27.3682 0.918479 27.4999 1.25 27.4999C1.58152 27.4999 1.89946 27.3682 2.13388 27.1338C2.3683 26.8994 2.5 26.5815 2.5 26.2499C2.5 25.7555 2.64662 25.2721 2.92133 24.861C3.19603 24.4499 3.58648 24.1295 4.04329 23.9402C4.50011 23.751 5.00277 23.7015 5.48773 23.798C5.97268 23.8944 6.41814 24.1325 6.76777 24.4822C7.1174 24.8318 7.3555 25.2773 7.45196 25.7622C7.54843 26.2472 7.49892 26.7498 7.3097 27.2067C7.12048 27.6635 6.80005 28.0539 6.38893 28.3286C5.9778 28.6033 5.49445 28.7499 5 28.7499C4.66848 28.7499 4.35054 28.8816 4.11612 29.1161C3.8817 29.3505 3.75 29.6684 3.75 29.9999C3.75 30.3315 3.8817 30.6494 4.11612 30.8838C4.35054 31.1182 4.66848 31.2499 5 31.2499C5.90823 31.2483 6.79886 30.9993 7.57626 30.5297C8.35366 30.0601 8.98847 29.3877 9.41254 28.5845C9.8366 27.7814 10.0339 26.8779 9.98324 25.9711C9.93258 25.0643 9.63588 24.1884 9.125 23.4374L11.5125 20.6999C12.3875 21.1475 13.3773 21.3201 14.3521 21.1952C15.3269 21.0703 16.2411 20.6536 16.975 19.9999L21.575 23.2249C21.2582 24.0396 21.1605 24.923 21.2916 25.7872C21.4226 26.6513 21.778 27.466 22.3221 28.1501C22.8663 28.8341 23.5802 29.3635 24.3928 29.6855C25.2054 30.0075 26.0882 30.1109 26.9532 29.9854C27.8182 29.8599 28.6351 29.5098 29.3226 28.97C30.0101 28.4303 30.5441 27.7197 30.8713 26.9092C31.1986 26.0988 31.3076 25.2166 31.1877 24.3509C31.0677 23.4851 30.7228 22.6659 30.1875 21.9749L33.75 17.4999C33.8505 17.3656 33.9229 17.2123 33.9629 17.0494C34.0029 16.8864 34.0097 16.7171 33.9829 16.5514C33.9561 16.3858 33.8962 16.2273 33.8068 16.0853C33.7174 15.9433 33.6003 15.8207 33.4625 15.7249ZM13.75 18.7499C13.2555 18.7499 12.7722 18.6033 12.3611 18.3286C11.95 18.0539 11.6295 17.6635 11.4403 17.2067C11.2511 16.7498 11.2016 16.2472 11.298 15.7622C11.3945 15.2773 11.6326 14.8318 11.9822 14.4822C12.3319 14.1325 12.7773 13.8944 13.2623 13.798C13.7472 13.7015 14.2499 13.751 14.7067 13.9402C15.1635 14.1295 15.554 14.4499 15.8287 14.861C16.1034 15.2721 16.25 15.7555 16.25 16.2499C16.25 16.913 15.9866 17.5489 15.5178 18.0177C15.0489 18.4866 14.413 18.7499 13.75 18.7499ZM26.25 27.4999C25.7555 27.4999 25.2722 27.3533 24.8611 27.0786C24.45 26.8039 24.1295 26.4135 23.9403 25.9567C23.7511 25.4998 23.7016 24.9972 23.798 24.5122C23.8945 24.0273 24.1326 23.5818 24.4822 23.2322C24.8319 22.8825 25.2773 22.6444 25.7623 22.548C26.2472 22.4515 26.7499 22.501 27.2067 22.6902C27.6635 22.8795 28.054 23.1999 28.3287 23.611C28.6034 24.0221 28.75 24.5055 28.75 24.9999C28.75 25.663 28.4866 26.2989 28.0178 26.7677C27.5489 27.2366 26.913 27.4999 26.25 27.4999Z" fill="white"/>
<path d="M35 18.75C34.0111 18.75 33.0444 18.4568 32.2222 17.9074C31.3999 17.3579 30.759 16.5771 30.3806 15.6634C30.0022 14.7498 29.9031 13.7445 30.0961 12.7746C30.289 11.8046 30.7652 10.9137 31.4645 10.2145C32.1637 9.51521 33.0546 9.039 34.0246 8.84608C34.9945 8.65315 35.9998 8.75217 36.9134 9.1306C37.8271 9.50904 38.6079 10.1499 39.1574 10.9722C39.7068 11.7944 40 12.7611 40 13.75C40 15.0761 39.4732 16.3479 38.5355 17.2855C37.5979 18.2232 36.3261 18.75 35 18.75ZM35 11.25C34.5055 11.25 34.0222 11.3966 33.6111 11.6713C33.2 11.946 32.8795 12.3365 32.6903 12.7933C32.5011 13.2501 32.4516 13.7528 32.548 14.2377C32.6445 14.7227 32.8826 15.1681 33.2322 15.5178C33.5819 15.8674 34.0273 16.1055 34.5123 16.202C34.9972 16.2984 35.4999 16.2489 35.9567 16.0597C36.4135 15.8705 36.804 15.5501 37.0787 15.1389C37.3534 14.7278 37.5 14.2445 37.5 13.75C37.5 13.087 37.2366 12.4511 36.7678 11.9822C36.2989 11.5134 35.663 11.25 35 11.25Z" fill="white"/>
</g>
<defs>
<clipPath id="clip0_2932_1464">
<rect width="40" height="40" fill="white"/>
</clipPath>
</defs>
</svg>
