<svg width="40" height="40" viewBox="0 0 40 40" fill="none" xmlns="http://www.w3.org/2000/svg">
<rect width="40" height="40" fill="white"/>
<path d="M10 17.5C9.66848 17.5 9.35054 17.3683 9.11612 17.1339C8.8817 16.8995 8.75 16.5815 8.75 16.25V8.75C8.75 8.41848 8.8817 8.10054 9.11612 7.86612C9.35054 7.6317 9.66848 7.5 10 7.5C10.3315 7.5 10.6495 7.6317 10.8839 7.86612C11.1183 8.10054 11.25 8.41848 11.25 8.75V16.25C11.25 16.5815 11.1183 16.8995 10.8839 17.1339C10.6495 17.3683 10.3315 17.5 10 17.5Z" fill="#05058C"/>
<path d="M10 32.5C9.66848 32.5 9.35054 32.3683 9.11612 32.1339C8.8817 31.8995 8.75 31.5815 8.75 31.25V23.75C8.75 23.4185 8.8817 23.1005 9.11612 22.8661C9.35054 22.6317 9.66848 22.5 10 22.5C10.3315 22.5 10.6495 22.6317 10.8839 22.8661C11.1183 23.1005 11.25 23.4185 11.25 23.75V31.25C11.25 31.5815 11.1183 31.8995 10.8839 32.1339C10.6495 32.3683 10.3315 32.5 10 32.5Z" fill="#05058C"/>
<path d="M12.5 10H7.5C6.83696 10 6.20107 9.73661 5.73223 9.26777C5.26339 8.79893 5 8.16304 5 7.5V2.5C5 1.83696 5.26339 1.20107 5.73223 0.732233C6.20107 0.263392 6.83696 0 7.5 0L12.5 0C13.163 0 13.7989 0.263392 14.2678 0.732233C14.7366 1.20107 15 1.83696 15 2.5V7.5C15 8.16304 14.7366 8.79893 14.2678 9.26777C13.7989 9.73661 13.163 10 12.5 10ZM7.5 2.5V7.5H12.5V2.5H7.5Z" fill="#000033"/>
<path d="M12.5 25H7.5C6.83696 25 6.20107 24.7366 5.73223 24.2678C5.26339 23.7989 5 23.163 5 22.5V17.5C5 16.837 5.26339 16.2011 5.73223 15.7322C6.20107 15.2634 6.83696 15 7.5 15H12.5C13.163 15 13.7989 15.2634 14.2678 15.7322C14.7366 16.2011 15 16.837 15 17.5V22.5C15 23.163 14.7366 23.7989 14.2678 24.2678C13.7989 24.7366 13.163 25 12.5 25ZM7.5 17.5V22.5H12.5V17.5H7.5Z" fill="#000033"/>
<path d="M12.5 40H7.5C6.83696 40 6.20107 39.7366 5.73223 39.2678C5.26339 38.7989 5 38.163 5 37.5V32.5C5 31.837 5.26339 31.2011 5.73223 30.7322C6.20107 30.2634 6.83696 30 7.5 30H12.5C15.175 30 15.875 33.75 13.75 33.75C13.4185 33.75 13.1005 33.6183 12.8661 33.3839C12.6317 33.1495 12.5 32.8315 12.5 32.5H7.5V37.5H12.5C12.5 37.1685 12.6317 36.8505 12.8661 36.6161C13.1005 36.3817 13.4185 36.25 13.75 36.25C15.875 36.25 15.1625 40 12.5 40Z" fill="#000033"/>
<path d="M33.75 3.75H18.75C18.4185 3.75 18.1005 3.6183 17.8661 3.38388C17.6317 3.14946 17.5 2.83152 17.5 2.5C17.5 2.16848 17.6317 1.85054 17.8661 1.61612C18.1005 1.3817 18.4185 1.25 18.75 1.25H33.75C34.0815 1.25 34.3995 1.3817 34.6339 1.61612C34.8683 1.85054 35 2.16848 35 2.5C35 2.83152 34.8683 3.14946 34.6339 3.38388C34.3995 3.6183 34.0815 3.75 33.75 3.75Z" fill="#000033"/>
<path d="M31.25 8.75H18.75C18.4185 8.75 18.1005 8.6183 17.8661 8.38388C17.6317 8.14946 17.5 7.83152 17.5 7.5C17.5 7.16848 17.6317 6.85054 17.8661 6.61612C18.1005 6.3817 18.4185 6.25 18.75 6.25H31.25C31.5815 6.25 31.8995 6.3817 32.1339 6.61612C32.3683 6.85054 32.5 7.16848 32.5 7.5C32.5 7.83152 32.3683 8.14946 32.1339 8.38388C31.8995 8.6183 31.5815 8.75 31.25 8.75Z" fill="#000033"/>
<path d="M33.75 18.75H18.75C18.4185 18.75 18.1005 18.6183 17.8661 18.3839C17.6317 18.1495 17.5 17.8315 17.5 17.5C17.5 17.1685 17.6317 16.8505 17.8661 16.6161C18.1005 16.3817 18.4185 16.25 18.75 16.25H33.75C34.0815 16.25 34.3995 16.3817 34.6339 16.6161C34.8683 16.8505 35 17.1685 35 17.5C35 17.8315 34.8683 18.1495 34.6339 18.3839C34.3995 18.6183 34.0815 18.75 33.75 18.75Z" fill="#000033"/>
<path d="M31.25 23.75H18.75C18.4185 23.75 18.1005 23.6183 17.8661 23.3839C17.6317 23.1495 17.5 22.8315 17.5 22.5C17.5 22.1685 17.6317 21.8505 17.8661 21.6161C18.1005 21.3817 18.4185 21.25 18.75 21.25H31.25C31.5815 21.25 31.8995 21.3817 32.1339 21.6161C32.3683 21.8505 32.5 22.1685 32.5 22.5C32.5 22.8315 32.3683 23.1495 32.1339 23.3839C31.8995 23.6183 31.5815 23.75 31.25 23.75Z" fill="#000033"/>
<path d="M33.75 33.75H18.75C18.4185 33.75 18.1005 33.6183 17.8661 33.3839C17.6317 33.1495 17.5 32.8315 17.5 32.5C17.5 32.1685 17.6317 31.8505 17.8661 31.6161C18.1005 31.3817 18.4185 31.25 18.75 31.25H33.75C34.0815 31.25 34.3995 31.3817 34.6339 31.6161C34.8683 31.8505 35 32.1685 35 32.5C35 32.8315 34.8683 33.1495 34.6339 33.3839C34.3995 33.6183 34.0815 33.75 33.75 33.75Z" fill="#000033"/>
<path d="M31.25 38.75H18.75C18.4185 38.75 18.1005 38.6183 17.8661 38.3839C17.6317 38.1495 17.5 37.8315 17.5 37.5C17.5 37.1685 17.6317 36.8505 17.8661 36.6161C18.1005 36.3817 18.4185 36.25 18.75 36.25H31.25C31.5815 36.25 31.8995 36.3817 32.1339 36.6161C32.3683 36.8505 32.5 37.1685 32.5 37.5C32.5 37.8315 32.3683 38.1495 32.1339 38.3839C31.8995 38.6183 31.5815 38.75 31.25 38.75Z" fill="#000033"/>
</svg>
