<svg width="40" height="40" viewBox="0 0 40 40" fill="none" xmlns="http://www.w3.org/2000/svg">
<g clip-path="url(#clip0_5284_30644)">
<rect width="40" height="40" fill="white"/>
<path d="M38.75 28.75H3.75V7.5C3.75 7.16848 3.8817 6.85054 4.11612 6.61612C4.35054 6.3817 4.66848 6.25 5 6.25H35C35.3315 6.25 35.6495 6.3817 35.8839 6.61612C36.1183 6.85054 36.25 7.16848 36.25 7.5V25C36.25 25.3315 36.3817 25.6495 36.6161 25.8839C36.8505 26.1183 37.1685 26.25 37.5 26.25C37.8315 26.25 38.1495 26.1183 38.3839 25.8839C38.6183 25.6495 38.75 25.3315 38.75 25V7.5C38.75 6.50544 38.3549 5.55161 37.6516 4.84835C36.9484 4.14509 35.9946 3.75 35 3.75H5C4.00544 3.75 3.05161 4.14509 2.34835 4.84835C1.64509 5.55161 1.25 6.50544 1.25 7.5V28.75C0.918479 28.75 0.600537 28.8817 0.366117 29.1161C0.131696 29.3505 0 29.6685 0 30L0 32.5C0 33.4946 0.395088 34.4484 1.09835 35.1517C1.80161 35.8549 2.75544 36.25 3.75 36.25H36.25C37.2446 36.25 38.1984 35.8549 38.9016 35.1517C39.6049 34.4484 40 33.4946 40 32.5V30C40 29.6685 39.8683 29.3505 39.6339 29.1161C39.3995 28.8817 39.0815 28.75 38.75 28.75ZM37.5 32.5C37.5 32.8315 37.3683 33.1495 37.1339 33.3839C36.8995 33.6183 36.5815 33.75 36.25 33.75H3.75C3.41848 33.75 3.10054 33.6183 2.86612 33.3839C2.6317 33.1495 2.5 32.8315 2.5 32.5V31.25H37.5V32.5Z" fill="#000033"/>
<path d="M28.75 17.4963C28.7527 15.547 28.1043 13.6526 26.9078 12.1136C25.7113 10.5747 24.0352 9.47939 22.1453 9.00145C20.2555 8.52351 18.2602 8.69033 16.4759 9.47543C14.6917 10.2605 13.2207 11.619 12.2963 13.3352C11.372 15.0515 11.0472 17.0272 11.3735 18.9491C11.6998 20.8709 12.6585 22.6288 14.0975 23.9437C15.5365 25.2587 17.3735 26.0555 19.3169 26.2077C21.2603 26.3599 23.1988 25.8587 24.825 24.7838C26.0299 23.9874 27.0188 22.9051 27.7037 21.6335C28.3886 20.362 28.748 18.9406 28.75 17.4963ZM24.4375 21.8963L22.9875 19.7338C23.2127 19.4319 23.3937 19.0994 23.525 18.7463H26.125C25.8811 19.9382 25.2946 21.0329 24.4375 21.8963ZM20 16.2463C20.2472 16.2463 20.4889 16.3196 20.6945 16.457C20.9 16.5943 21.0602 16.7896 21.1549 17.018C21.2495 17.2464 21.2742 17.4977 21.226 17.7402C21.1778 17.9827 21.0587 18.2054 20.8839 18.3802C20.7091 18.555 20.4863 18.6741 20.2439 18.7223C20.0014 18.7705 19.7501 18.7458 19.5216 18.6512C19.2932 18.5566 19.098 18.3964 18.9607 18.1908C18.8233 17.9852 18.75 17.7436 18.75 17.4963C18.75 17.1648 18.8817 16.8469 19.1161 16.6124C19.3505 16.378 19.6685 16.2463 20 16.2463ZM26.125 16.2463H23.525C23.3384 15.7221 23.0374 15.2459 22.6439 14.8525C22.2504 14.459 21.7743 14.158 21.25 13.9713V11.3713C22.4511 11.6163 23.5537 12.2091 24.4205 13.0759C25.2873 13.9427 25.88 15.0452 26.125 16.2463ZM13.75 17.4963C13.7497 16.0555 14.2472 14.6588 15.1584 13.5427C16.0695 12.4266 17.3383 11.6595 18.75 11.3713V13.9713C17.8816 14.3216 17.1756 14.9841 16.7709 15.8286C16.3662 16.6731 16.2922 17.6384 16.5633 18.5347C16.8344 19.4311 17.431 20.1935 18.2358 20.6722C19.0407 21.1508 19.9955 21.3111 20.9125 21.1213L22.35 23.2838C21.4014 23.6687 20.3729 23.8147 19.3547 23.7091C18.3365 23.6034 17.3598 23.2492 16.5105 22.6776C15.6613 22.1061 14.9654 21.3347 14.484 20.4313C14.0027 19.5278 13.7506 18.52 13.75 17.4963Z" fill="#05058C"/>
</g>
<defs>
<clipPath id="clip0_5284_30644">
<rect width="40" height="40" fill="white"/>
</clipPath>
</defs>
</svg>
