<svg width="40" height="40" viewBox="0 0 40 40" fill="none" xmlns="http://www.w3.org/2000/svg">
<g clip-path="url(#clip0_5284_30306)">
<rect width="40" height="40" fill="white"/>
<path d="M17.5 21.25C17.1685 21.25 16.8505 21.1183 16.6161 20.8839C16.3817 20.6495 16.25 20.3315 16.25 20V16.25C16.25 15.9185 16.3817 15.6005 16.6161 15.3661C16.8505 15.1317 17.1685 15 17.5 15C17.8315 15 18.1495 15.1317 18.3839 15.3661C18.6183 15.6005 18.75 15.9185 18.75 16.25V20C18.75 20.3315 18.6183 20.6495 18.3839 20.8839C18.1495 21.1183 17.8315 21.25 17.5 21.25Z" fill="#05058C"/>
<path d="M39.1872 24.8485L37.3747 23.1235C37.1376 22.8959 36.858 22.7173 36.5518 22.5979C36.2456 22.4785 35.9189 22.4206 35.5904 22.4275C35.2618 22.4345 34.9378 22.5062 34.637 22.6385C34.3362 22.7708 34.0644 22.9611 33.8372 23.1985C33.0997 22.5235 32.7622 22.336 32.7497 21.836C32.7399 21.3923 32.642 20.9549 32.4617 20.5494C32.2815 20.1438 32.0224 19.7781 31.6997 19.4735L28.3622 16.2485C28.1188 16.0477 27.8086 15.9464 27.4936 15.9648C27.1787 15.9832 26.8824 16.12 26.6641 16.3478C26.4458 16.5755 26.3217 16.8774 26.3167 17.1928C26.3117 17.5083 26.4262 17.8139 26.6372 18.0485C30.3122 21.561 30.2372 21.3735 30.2497 21.7985C30.2917 22.4381 30.4804 23.0595 30.8012 23.6144C31.122 24.1693 31.5663 24.6429 32.0997 24.9985L25.1997 32.2485L24.3747 31.4985C23.7364 30.9042 22.8967 30.5737 22.0247 30.5735C23.2747 29.3235 24.1747 28.736 24.4247 27.361C24.4843 27.0295 24.4099 26.6878 24.2176 26.4112C24.0254 26.1346 23.7312 25.9457 23.3997 25.886C23.0681 25.8263 22.7265 25.9008 22.4499 26.093C22.1733 26.2852 21.9843 26.5795 21.9247 26.911C21.8714 27.1318 21.754 27.3319 21.5872 27.486C18.4622 30.4735 18.4997 30.5735 17.9747 30.5735C17.3486 30.6061 16.7369 30.7725 16.1806 31.0614C15.6243 31.3503 15.1364 31.7551 14.7497 32.2485L7.89966 24.9985L8.74965 24.286C9.40084 23.6598 9.77823 22.8017 9.79965 21.8985C9.79965 21.386 9.88715 21.4735 13.4122 18.1485C13.6641 17.9131 13.8122 17.5873 13.824 17.2427C13.8357 16.8981 13.71 16.563 13.4747 16.311C13.2393 16.059 12.9134 15.9109 12.5688 15.8992C12.2243 15.8875 11.8891 16.0131 11.6372 16.2485L8.29965 19.4735C7.64921 20.0951 7.27165 20.9491 7.24966 21.8485C7.24966 22.336 6.96215 22.486 6.16215 23.211C5.93577 22.9727 5.66463 22.7814 5.36424 22.6481C5.06386 22.5147 4.74012 22.4418 4.41155 22.4337C4.08298 22.4256 3.75604 22.4823 3.44942 22.6007C3.14281 22.7191 2.86254 22.8967 2.62465 23.1235L0.812155 24.8485C0.336426 25.3069 0.0614948 25.935 0.0474414 26.5955C0.033388 27.256 0.281355 27.8953 0.737155 28.3735L5.48715 33.3735C5.60336 33.4907 5.74161 33.5837 5.89393 33.6471C6.04626 33.7106 6.20964 33.7432 6.37465 33.7432C6.53967 33.7432 6.70305 33.7106 6.85538 33.6471C7.0077 33.5837 7.14595 33.4907 7.26216 33.3735C7.49497 33.1393 7.62565 32.8225 7.62565 32.4923C7.62565 32.162 7.49497 31.8452 7.26216 31.611L2.49966 26.6485L4.31216 24.9235L14.6747 35.7735L12.8997 37.4985L10.8997 35.411C10.6655 35.1782 10.3486 35.0475 10.0184 35.0475C9.68817 35.0475 9.37136 35.1782 9.13715 35.411C9.01999 35.5272 8.927 35.6655 8.86354 35.8178C8.80008 35.9701 8.76741 36.1335 8.76741 36.2985C8.76741 36.4635 8.80008 36.6269 8.86354 36.7792C8.927 36.9315 9.01999 37.0698 9.13715 37.186L11.1372 39.2735C11.5939 39.7509 12.2211 40.0282 12.8816 40.0445C13.5421 40.0609 14.1823 39.8152 14.6622 39.361L16.4747 37.636C16.9538 37.1809 17.2333 36.5547 17.252 35.8941C17.2708 35.2336 17.0272 34.5925 16.5747 34.111C17.4497 33.2985 17.5372 33.1235 18.0872 33.1235C18.7735 33.1153 19.4409 32.8972 19.9997 32.4985C20.5927 32.9148 21.3001 33.1375 22.0247 33.136C22.5122 33.136 22.7247 33.436 23.4622 34.1235C23.0096 34.605 22.766 35.2461 22.7848 35.9066C22.8035 36.5672 23.083 37.1934 23.5622 37.6485L25.3747 39.3735C25.8545 39.8277 26.4947 40.0734 27.1552 40.057C27.8157 40.0406 28.4429 39.7634 28.8997 39.286L39.2622 28.4485C39.4993 28.2103 39.686 27.9267 39.8111 27.6147C39.9361 27.3027 39.997 26.9686 39.99 26.6326C39.983 26.2965 39.9083 25.9653 39.7703 25.6587C39.6324 25.3522 39.434 25.0766 39.1872 24.8485ZM27.0997 37.4985L25.2872 35.7735L35.6497 24.9235L37.4997 26.6485L27.0997 37.4985Z" fill="#000033"/>
<path d="M27.5 7.5H12.5C11.837 7.5 11.2011 7.23661 10.7322 6.76777C10.2634 6.29893 10 5.66304 10 5V2.5C10 1.83696 10.2634 1.20107 10.7322 0.732233C11.2011 0.263392 11.837 0 12.5 0L27.5 0C28.163 0 28.7989 0.263392 29.2678 0.732233C29.7366 1.20107 30 1.83696 30 2.5V5C30 5.66304 29.7366 6.29893 29.2678 6.76777C28.7989 7.23661 28.163 7.5 27.5 7.5ZM12.5 2.5V5H27.5V2.5H12.5Z" fill="#05058C"/>
<path d="M19.0876 27.9375C18.2769 27.7341 17.5574 27.2657 17.0433 26.6067C16.5292 25.9477 16.25 25.1358 16.2501 24.3V21.25H15.0001C14.0055 21.25 13.0517 20.8549 12.3484 20.1516C11.6451 19.4484 11.2501 18.4946 11.2501 17.5V13.3875C11.2475 12.942 11.3334 12.5004 11.5029 12.0884C11.6725 11.6764 11.9222 11.3022 12.2376 10.9875C12.5876 10.65 12.5001 10.7625 12.5001 6.25C12.5001 5.91848 12.6318 5.60054 12.8662 5.36612C13.1006 5.1317 13.4185 5 13.7501 5C14.0816 5 14.3995 5.1317 14.6339 5.36612C14.8684 5.60054 15.0001 5.91848 15.0001 6.25V10.3625C15.0027 10.808 14.9167 11.2496 14.7472 11.6616C14.5777 12.0736 14.3279 12.4478 14.0126 12.7625C13.6626 13.1 13.7501 12.9875 13.7501 17.5C13.7501 17.8315 13.8818 18.1495 14.1162 18.3839C14.3506 18.6183 14.6685 18.75 15.0001 18.75H17.5001C17.8316 18.75 18.1495 18.8817 18.3839 19.1161C18.6184 19.3505 18.7501 19.6685 18.7501 20V24.3C18.7417 24.5855 18.8315 24.8653 19.0043 25.0928C19.1772 25.3202 19.4227 25.4816 19.7001 25.55L21.9001 26.1C22.5126 26.25 22.5876 26.1 25.5626 24.6125C25.7706 24.5077 25.9452 24.3468 26.0667 24.148C26.1882 23.9492 26.2517 23.7205 26.2501 23.4875C26.2501 12.6 26.3626 13.1625 25.9876 12.8C25.6676 12.4809 25.4153 12.1006 25.2456 11.6818C25.0759 11.263 24.9924 10.8143 25.0001 10.3625V6.25C25.0001 5.91848 25.1318 5.60054 25.3662 5.36612C25.6006 5.1317 25.9185 5 26.2501 5C26.5816 5 26.8995 5.1317 27.1339 5.36612C27.3684 5.60054 27.5001 5.91848 27.5001 6.25C27.5001 10.6125 27.4001 10.6375 27.7626 10.9875C28.0779 11.3022 28.3277 11.6764 28.4972 12.0884C28.6667 12.5004 28.7527 12.942 28.7501 13.3875V23.45C28.7514 24.1481 28.5579 24.8326 28.1913 25.4267C27.8247 26.0208 27.2996 26.5007 26.6751 26.8125C22.2626 29.025 23.0626 28.925 19.0876 27.9375Z" fill="#05058C"/>
</g>
<defs>
<clipPath id="clip0_5284_30306">
<rect width="40" height="40" fill="white"/>
</clipPath>
</defs>
</svg>
