<svg width="40" height="40" viewBox="0 0 40 40" fill="none" xmlns="http://www.w3.org/2000/svg">
<g clip-path="url(#clip0_5284_30647)">
<rect width="40" height="40" fill="white"/>
<path d="M38.75 2.5H35C34.6685 2.5 34.3505 2.3683 34.1161 2.13388C33.8817 1.89946 33.75 1.58152 33.75 1.25C33.75 0.918479 33.8817 0.600537 34.1161 0.366117C34.3505 0.131696 34.6685 0 35 0L38.75 0C39.0815 0 39.3995 0.131696 39.6339 0.366117C39.8683 0.600537 40 0.918479 40 1.25C40 1.58152 39.8683 1.89946 39.6339 2.13388C39.3995 2.3683 39.0815 2.5 38.75 2.5Z" fill="#05058C"/>
<path d="M6.25 34.9973H1.25C0.918479 34.9973 0.600537 34.8656 0.366117 34.6312C0.131696 34.3968 0 34.0788 0 33.7473C0 33.4158 0.131696 33.0978 0.366117 32.8634C0.600537 32.629 0.918479 32.4973 1.25 32.4973H5.7375L11.6125 26.6098C11.729 26.4933 11.8674 26.4008 12.0197 26.3377C12.172 26.2747 12.3352 26.2422 12.5 26.2422C12.6648 26.2422 12.828 26.2747 12.9803 26.3377C13.1326 26.4008 13.271 26.4933 13.3875 26.6098C13.504 26.7264 13.5965 26.8647 13.6596 27.017C13.7227 27.1693 13.7551 27.3325 13.7551 27.4973C13.7551 27.6621 13.7227 27.8253 13.6596 27.9776C13.5965 28.1299 13.504 28.2683 13.3875 28.3848L7.1375 34.6348C7.0207 34.7507 6.88218 34.8423 6.72988 34.9045C6.57759 34.9667 6.41451 34.9983 6.25 34.9973Z" fill="#05058C"/>
<path d="M5 40H1.25C0.918479 40 0.600537 39.8683 0.366117 39.6339C0.131696 39.3995 0 39.0815 0 38.75C0 38.4185 0.131696 38.1005 0.366117 37.8661C0.600537 37.6317 0.918479 37.5 1.25 37.5H5C5.33152 37.5 5.64946 37.6317 5.88388 37.8661C6.1183 38.1005 6.25 38.4185 6.25 38.75C6.25 39.0815 6.1183 39.3995 5.88388 39.6339C5.64946 39.8683 5.33152 40 5 40Z" fill="#05058C"/>
<path d="M38.7503 4.99928H33.7503C33.1003 4.99928 32.9753 5.26178 31.4378 6.78678C29.6467 5.24212 27.5612 4.07654 25.307 3.36045C23.0529 2.64436 20.677 2.39262 18.3229 2.62044C15.9688 2.84826 13.6853 3.55091 11.6103 4.68594C9.53529 5.82098 7.71192 7.36484 6.2503 9.22428C6.10006 9.48266 6.04738 9.78632 6.10181 10.0802C6.15623 10.3741 6.31416 10.6388 6.54696 10.8262C6.77976 11.0137 7.07202 11.1115 7.37075 11.102C7.66948 11.0924 7.95491 10.9762 8.1753 10.7743C9.4453 9.14169 11.0416 7.79165 12.8623 6.81025C14.6831 5.82885 16.6884 5.23763 18.7503 5.07428V18.7493H5.0003C5.09836 17.6067 5.32478 16.4787 5.6753 15.3868C5.76405 15.0758 5.72881 14.7425 5.57697 14.4569C5.42514 14.1713 5.16853 13.9557 4.86106 13.8554C4.55359 13.7551 4.21921 13.7778 3.92816 13.9189C3.63711 14.0599 3.41206 14.3083 3.3003 14.6118C2.36261 17.5184 2.20193 20.6198 2.83424 23.6078C3.46655 26.5957 4.86982 29.3662 6.90459 31.6438C8.93936 33.9214 11.5348 35.6268 14.4329 36.5906C17.331 37.5543 20.4308 37.7428 23.4243 37.1374C26.4178 36.5319 29.2008 35.1536 31.4966 33.1393C33.7923 31.1251 35.521 28.5451 36.5107 25.6558C37.5004 22.7664 37.7168 19.6684 37.1382 16.6696C36.5597 13.6707 35.2063 10.8755 33.2128 8.56178L34.2628 7.49928H38.7503C39.0818 7.49928 39.3998 7.36758 39.6342 7.13316C39.8686 6.89874 40.0003 6.5808 40.0003 6.24928C40.0003 5.91776 39.8686 5.59982 39.6342 5.3654C39.3998 5.13098 39.0818 4.99928 38.7503 4.99928ZM5.0628 21.2493H18.7503V34.9993C15.2099 34.6997 11.8909 33.1532 9.38426 30.6351C6.87764 28.117 5.34623 24.791 5.0628 21.2493ZM21.2503 34.9993V21.2493H35.0003C34.7148 24.8008 33.1745 28.1347 30.6551 30.6541C28.1357 33.1735 24.8018 34.7138 21.2503 34.9993ZM35.0003 18.7493H21.2503V5.06178C24.3559 5.31719 27.3029 6.54145 29.6753 8.56178L26.6128 11.6118C26.4365 11.7866 26.3163 12.01 26.2674 12.2534C26.2186 12.4969 26.2434 12.7493 26.3386 12.9786C26.4338 13.2079 26.5951 13.4037 26.802 13.5409C27.0089 13.6782 27.252 13.7507 27.5003 13.7493C28.1878 13.7493 28.1628 13.5993 31.4378 10.3243C33.4807 12.6887 34.7272 15.6365 35.0003 18.7493Z" fill="#000033"/>
<path d="M13.75 15C14.0815 15 14.3995 14.8683 14.6339 14.6339C14.8683 14.3995 15 14.0815 15 13.75C15 13.4185 14.8683 13.1005 14.6339 12.8661C14.3995 12.6317 14.0815 12.5 13.75 12.5H11.25C10.9185 12.5 10.6005 12.6317 10.3661 12.8661C10.1317 13.1005 10 13.4185 10 13.75C10 14.0815 10.1317 14.3995 10.3661 14.6339C10.6005 14.8683 10.9185 15 11.25 15H13.75Z" fill="#000033"/>
<path d="M28.75 25H26.25C25.9185 25 25.6005 25.1317 25.3661 25.3661C25.1317 25.6005 25 25.9185 25 26.25C25 26.5815 25.1317 26.8995 25.3661 27.1339C25.6005 27.3683 25.9185 27.5 26.25 27.5H28.75C29.0815 27.5 29.3995 27.3683 29.6339 27.1339C29.8683 26.8995 30 26.5815 30 26.25C30 25.9185 29.8683 25.6005 29.6339 25.3661C29.3995 25.1317 29.0815 25 28.75 25Z" fill="#000033"/>
</g>
<defs>
<clipPath id="clip0_5284_30647">
<rect width="40" height="40" fill="white"/>
</clipPath>
</defs>
</svg>
