<svg width="40" height="40" viewBox="0 0 40 40" fill="none" xmlns="http://www.w3.org/2000/svg">
<g clip-path="url(#clip0_5295_28506)">
<rect width="40" height="40" fill="white"/>
<path d="M38.75 32.5H3.75V11.25C3.75 10.9185 3.8817 10.6005 4.11612 10.3661C4.35054 10.1317 4.66848 10 5 10H12.5C12.8315 10 13.1495 9.8683 13.3839 9.63388C13.6183 9.39946 13.75 9.08152 13.75 8.75C13.75 8.41848 13.6183 8.10054 13.3839 7.86612C13.1495 7.6317 12.8315 7.5 12.5 7.5H5C4.00544 7.5 3.05161 7.89509 2.34835 8.59835C1.64509 9.30161 1.25 10.2554 1.25 11.25V32.5C0.918479 32.5 0.600537 32.6317 0.366117 32.8661C0.131696 33.1005 0 33.4185 0 33.75L0 36.25C0 37.2446 0.395088 38.1984 1.09835 38.9017C1.80161 39.6049 2.75544 40 3.75 40H36.25C37.2446 40 38.1984 39.6049 38.9016 38.9017C39.6049 38.1984 40 37.2446 40 36.25V33.75C40 33.4185 39.8683 33.1005 39.6339 32.8661C39.3995 32.6317 39.0815 32.5 38.75 32.5ZM37.5 36.25C37.5 36.5815 37.3683 36.8995 37.1339 37.1339C36.8995 37.3683 36.5815 37.5 36.25 37.5H3.75C3.41848 37.5 3.10054 37.3683 2.86612 37.1339C2.6317 36.8995 2.5 36.5815 2.5 36.25V35H37.5V36.25Z" fill="#000033"/>
<path d="M27.5 10H35C35.3315 10 35.6495 10.1317 35.8839 10.3661C36.1183 10.6005 36.25 10.9185 36.25 11.25V32.4851C36.25 32.8166 36.3817 33.1346 36.6161 33.369C36.8505 33.6034 37.1685 33.7351 37.5 33.7351C37.8315 33.7351 38.1495 33.6034 38.3839 33.369C38.6183 33.1346 38.75 32.8166 38.75 32.4851V11.25C38.75 10.2554 38.3549 9.30161 37.6517 8.59835C36.9484 7.89509 35.9946 7.5 35 7.5H27.5C27.1685 7.5 26.8505 7.6317 26.6161 7.86612C26.3817 8.10054 26.25 8.41848 26.25 8.75C26.25 9.08152 26.3817 9.39946 26.6161 9.63388C26.8505 9.8683 27.1685 10 27.5 10Z" fill="#05058C"/>
<path d="M33.3884 20.3654L27.0009 13.9779C28.3244 12.2058 28.9276 9.99828 28.6893 7.79943C28.451 5.60058 27.3888 3.57355 25.7165 2.12612C24.0442 0.6787 21.8857 -0.0817138 19.6754 -0.00214289C17.4651 0.077428 15.367 0.99108 13.8031 2.55501C12.2391 4.11894 11.3255 6.2171 11.2459 8.42739C11.1663 10.6377 11.9267 12.7961 13.3742 14.4685C14.8216 16.1408 16.8486 17.203 19.0475 17.4413C21.2463 17.6796 23.4539 17.0763 25.2259 15.7529L31.6134 22.1404C31.7302 22.2562 31.8688 22.3479 32.0211 22.4101C32.1734 22.4723 32.3364 22.5038 32.5009 22.5029C32.7492 22.5043 32.9923 22.4318 33.1992 22.2946C33.4061 22.1573 33.5674 21.9615 33.6627 21.7322C33.7579 21.5029 33.7826 21.2505 33.7338 21.007C33.685 20.7636 33.5647 20.5402 33.3884 20.3654ZM13.7509 8.75289C13.7507 7.72535 14.0039 6.71361 14.4879 5.80723C14.972 4.90086 15.6721 4.12781 16.5262 3.55653C17.3803 2.98526 18.362 2.63337 19.3846 2.53203C20.4071 2.4307 21.4388 2.58303 22.3884 2.97555C23.3381 3.36808 24.1763 3.98868 24.8288 4.78241C25.4814 5.57614 25.9282 6.51852 26.1296 7.52611C26.3311 8.53371 26.281 9.57544 25.9839 10.5591C25.6867 11.5427 25.1516 12.4379 24.4259 13.1654C23.5526 14.041 22.4391 14.6378 21.2264 14.8802C20.0137 15.1227 18.7563 15 17.6134 14.5276C16.4705 14.0552 15.4935 13.2543 14.8059 12.2263C14.1183 11.1984 13.7512 9.98959 13.7509 8.75289Z" fill="#05058C"/>
<path d="M17.5 30C17.1685 30 16.8505 29.8683 16.6161 29.6339C16.3817 29.3995 16.25 29.0815 16.25 28.75V25C16.25 24.6685 16.3817 24.3505 16.6161 24.1161C16.8505 23.8817 17.1685 23.75 17.5 23.75C17.8315 23.75 18.1495 23.8817 18.3839 24.1161C18.6183 24.3505 18.75 24.6685 18.75 25V28.75C18.75 29.0815 18.6183 29.3995 18.3839 29.6339C18.1495 29.8683 17.8315 30 17.5 30Z" fill="#05058C"/>
<path d="M22.5 30C22.1685 30 21.8505 29.8683 21.6161 29.6339C21.3817 29.3995 21.25 29.0815 21.25 28.75V21.25C21.25 20.9185 21.3817 20.6005 21.6161 20.3661C21.8505 20.1317 22.1685 20 22.5 20C22.8315 20 23.1495 20.1317 23.3839 20.3661C23.6183 20.6005 23.75 20.9185 23.75 21.25V28.75C23.75 29.0815 23.6183 29.3995 23.3839 29.6339C23.1495 29.8683 22.8315 30 22.5 30Z" fill="#05058C"/>
<path d="M12.5 30C12.1685 30 11.8505 29.8683 11.6161 29.6339C11.3817 29.3995 11.25 29.0815 11.25 28.75V23.75C11.25 23.4185 11.3817 23.1005 11.6161 22.8661C11.8505 22.6317 12.1685 22.5 12.5 22.5C12.8315 22.5 13.1495 22.6317 13.3839 22.8661C13.6183 23.1005 13.75 23.4185 13.75 23.75V28.75C13.75 29.0815 13.6183 29.3995 13.3839 29.6339C13.1495 29.8683 12.8315 30 12.5 30Z" fill="#05058C"/>
<path d="M7.5 30C7.16848 30 6.85054 29.8683 6.61612 29.6339C6.3817 29.3995 6.25 29.0815 6.25 28.75V27.5C6.25 27.1685 6.3817 26.8505 6.61612 26.6161C6.85054 26.3817 7.16848 26.25 7.5 26.25C7.83152 26.25 8.14946 26.3817 8.38388 26.6161C8.6183 26.8505 8.75 27.1685 8.75 27.5V28.75C8.75 29.0815 8.6183 29.3995 8.38388 29.6339C8.14946 29.8683 7.83152 30 7.5 30Z" fill="#05058C"/>
</g>
<defs>
<clipPath id="clip0_5295_28506">
<rect width="40" height="40" fill="white"/>
</clipPath>
</defs>
</svg>
