<svg width="40" height="40" viewBox="0 0 40 40" fill="none" xmlns="http://www.w3.org/2000/svg">
<rect width="40" height="40" rx="20" fill="#F4F2FA"/>
<g clip-path="url(#clip0_5284_30679)">
<path d="M22.121 18.48C21.9335 18.2925 21.6792 18.1872 21.414 18.1872C21.1488 18.1872 20.8945 18.2925 20.707 18.48L20 19.186C19.8155 19.377 19.5948 19.5294 19.3508 19.6342C19.1068 19.739 18.8444 19.7942 18.5788 19.7965C18.3132 19.7988 18.0499 19.7482 17.8041 19.6476C17.5583 19.5471 17.335 19.3986 17.1472 19.2108C16.9594 19.023 16.8109 18.7997 16.7104 18.5539C16.6098 18.3081 16.5592 18.0448 16.5615 17.7792C16.5638 17.5136 16.619 17.2512 16.7238 17.0072C16.8286 16.7632 16.981 16.5425 17.172 16.358L22.802 10.726C24.1349 10.4228 25.5295 10.5476 26.7874 11.0826C28.0454 11.6176 29.1026 12.5355 29.8089 13.7059C30.5151 14.8763 30.8344 16.2395 30.7213 17.6018C30.6082 18.9641 30.0686 20.2561 29.179 21.294L27.071 23.429L22.121 18.48ZM11.161 12.468C12.1958 11.4334 13.5492 10.778 15.0026 10.6078C16.4559 10.4376 17.9242 10.7625 19.17 11.53L15.757 14.944C15.0178 15.6817 14.5964 16.6793 14.5829 17.7236C14.5694 18.7678 14.9649 19.7759 15.6848 20.5325C16.4047 21.2891 17.3919 21.7342 18.4356 21.7725C19.4792 21.8109 20.4965 21.4396 21.27 20.738L21.414 20.601L25.657 24.843L21.414 29.086C21.0389 29.4609 20.5303 29.6716 20 29.6716C19.4697 29.6716 18.9611 29.4609 18.586 29.086L11.16 21.66C9.94113 20.441 9.25639 18.7878 9.25639 17.064C9.25639 15.3402 9.94213 13.687 11.161 12.468Z" fill="#05058C"/>
</g>
<defs>
<clipPath id="clip0_5284_30679">
<rect width="24" height="24" fill="white" transform="translate(8 8)"/>
</clipPath>
</defs>
</svg>
