<svg width="40" height="40" viewBox="0 0 40 40" fill="none" xmlns="http://www.w3.org/2000/svg">
<rect width="40" height="40" rx="20" fill="#F4F2FA"/>
<g clip-path="url(#clip0_5295_28545)">
<path d="M17.827 29.763L22.31 22L25.842 28.117C24.1416 29.3443 22.0971 30.0033 20 30C19.254 30 18.527 29.918 17.827 29.763ZM15.89 29.12C14.6052 28.5391 13.4573 27.6938 12.5214 26.6393C11.5854 25.5847 10.8823 24.3447 10.458 23H19.423L15.89 29.119V29.12ZM10.05 21C9.90689 19.5973 10.0631 18.1801 10.5084 16.8422C10.9537 15.5044 11.6778 14.2762 12.633 13.239L17.112 21H10.05ZM14.159 11.883C15.8591 10.6559 17.9033 9.99689 20 10C20.746 10 21.473 10.082 22.173 10.237L17.69 18L14.159 11.883ZM24.11 10.88C25.3948 11.4609 26.5427 12.3062 27.4786 13.3607C28.4146 14.4153 29.1177 15.6553 29.542 17H20.577L24.11 10.88ZM29.95 19C30.0931 20.4027 29.9369 21.8199 29.4916 23.1578C29.0463 24.4956 28.3222 25.7238 27.367 26.761L22.888 19H29.952H29.95Z" fill="#05058C"/>
</g>
<defs>
<clipPath id="clip0_5295_28545">
<rect width="24" height="24" fill="white" transform="translate(8 8)"/>
</clipPath>
</defs>
</svg>
