<svg width="40" height="40" viewBox="0 0 40 40" fill="none" xmlns="http://www.w3.org/2000/svg">
<rect width="40" height="40" rx="20" fill="#F4F2FA"/>
<g clip-path="url(#clip0_5295_28543)">
<path d="M18 10C18.552 10 19 10.448 19 11V15C19 15.552 18.552 16 18 16H16V18H21V17C21 16.448 21.448 16 22 16H28C28.552 16 29 16.448 29 17V21C29 21.552 28.552 22 28 22H22C21.448 22 21 21.552 21 21V20H16V26H21V25C21 24.448 21.448 24 22 24H28C28.552 24 29 24.448 29 25V29C29 29.552 28.552 30 28 30H22C21.448 30 21 29.552 21 29V28H15C14.448 28 14 27.552 14 27V16H12C11.448 16 11 15.552 11 15V11C11 10.448 11.448 10 12 10H18ZM27 26H23V28H27V26ZM27 18H23V20H27V18ZM17 12H13V14H17V12Z" fill="#05058C"/>
</g>
<defs>
<clipPath id="clip0_5295_28543">
<rect width="24" height="24" fill="white" transform="translate(8 8)"/>
</clipPath>
</defs>
</svg>
