<svg width="40" height="40" viewBox="0 0 40 40" fill="none" xmlns="http://www.w3.org/2000/svg">
<rect width="40" height="40" rx="20" fill="#F4F2FA"/>
<g clip-path="url(#clip0_5284_30396)">
<path d="M29 17V28.993C29.0009 29.1243 28.976 29.2545 28.9266 29.3762C28.8772 29.4979 28.8043 29.6087 28.7121 29.7022C28.6199 29.7957 28.5101 29.8701 28.3892 29.9212C28.2682 29.9723 28.1383 29.9991 28.007 30H11.993C11.7298 30 11.4774 29.8955 11.2912 29.7095C11.105 29.5235 11.0003 29.2712 11 29.008V10.992C11 10.455 11.447 10 11.998 10H22V16C22 16.2652 22.1054 16.5196 22.2929 16.7071C22.4804 16.8946 22.7348 17 23 17H29ZM29 15H24V10.003L29 15ZM16 15V17H19V15H16ZM16 19V21H24V19H16ZM16 23V25H24V23H16Z" fill="#05058C"/>
</g>
<defs>
<clipPath id="clip0_5284_30396">
<rect width="24" height="24" fill="white" transform="translate(8 8)"/>
</clipPath>
</defs>
</svg>
