<svg width="40" height="40" viewBox="0 0 40 40" fill="none" xmlns="http://www.w3.org/2000/svg">
<rect width="40" height="40" rx="20" fill="#F4F2FA"/>
<g clip-path="url(#clip0_5284_30394)">
<path d="M26.031 24.617L30.314 28.899L28.899 30.314L24.617 26.031C23.0237 27.3082 21.042 28.0029 19 28C14.032 28 10 23.968 10 19C10 14.032 14.032 10 19 10C23.968 10 28 14.032 28 19C28.0029 21.042 27.3082 23.0237 26.031 24.617ZM24.025 23.875C25.2941 22.5699 26.0029 20.8204 26 19C26 15.132 22.867 12 19 12C15.132 12 12 15.132 12 19C12 22.867 15.132 26 19 26C20.8204 26.0029 22.5699 25.2941 23.875 24.025L24.025 23.875ZM20.178 15.176C19.8831 15.3092 19.625 15.5119 19.4257 15.7669C19.2264 16.0218 19.0919 16.3212 19.0338 16.6395C18.9757 16.9578 18.9957 17.2855 19.0921 17.5943C19.1885 17.9032 19.3583 18.1841 19.5871 18.4129C19.8159 18.6417 20.0968 18.8115 20.4057 18.9079C20.7145 19.0043 21.0422 19.0243 21.3605 18.9662C21.6788 18.9081 21.9782 18.7736 22.2331 18.5743C22.4881 18.375 22.6908 18.1169 22.824 17.822C23.0868 18.6756 23.0563 19.5926 22.7375 20.427C22.4186 21.2613 21.8297 21.9648 21.0646 22.4256C20.2994 22.8864 19.4021 23.0778 18.5155 22.9694C17.629 22.8609 16.8042 22.4589 16.1726 21.8274C15.5411 21.1958 15.1391 20.371 15.0306 19.4845C14.9222 18.5979 15.1136 17.7006 15.5744 16.9354C16.0352 16.1703 16.7387 15.5814 17.573 15.2625C18.4074 14.9437 19.3244 14.9132 20.178 15.176Z" fill="#05058C"/>
</g>
<defs>
<clipPath id="clip0_5284_30394">
<rect width="24" height="24" fill="white" transform="translate(8 8)"/>
</clipPath>
</defs>
</svg>
