<svg width="40" height="40" viewBox="0 0 40 40" fill="none" xmlns="http://www.w3.org/2000/svg">
<rect width="40" height="40" rx="20" fill="#F4F2FA"/>
<g clip-path="url(#clip0_5284_30677)">
<path d="M22 22.252V30H12C11.9997 28.7789 12.2789 27.5739 12.8163 26.4774C13.3537 25.3809 14.1349 24.4219 15.1002 23.674C16.0655 22.9261 17.1892 22.4091 18.3852 22.1626C19.5811 21.9162 20.8177 21.9467 22 22.252ZM20 21C16.685 21 14 18.315 14 15C14 11.685 16.685 9 20 9C23.315 9 26 11.685 26 15C26 18.315 23.315 21 20 21ZM26 25V22H28V25H31V27H28V30H26V27H23V25H26Z" fill="#05058C"/>
</g>
<defs>
<clipPath id="clip0_5284_30677">
<rect width="24" height="24" fill="white" transform="translate(8 8)"/>
</clipPath>
</defs>
</svg>
