<svg width="40" height="40" viewBox="0 0 40 40" fill="none" xmlns="http://www.w3.org/2000/svg">
<rect width="40" height="40" rx="20" fill="#F4F2FA"/>
<g clip-path="url(#clip0_5284_30681)">
<path d="M22 10C23.83 9.99913 25.6049 10.6257 27.0289 11.7751C28.4528 12.9246 29.4396 14.5275 29.8247 16.3165C30.2098 18.1055 29.9699 19.9724 29.1451 21.6059C28.3202 23.2395 26.9602 24.5408 25.292 25.293C24.7588 26.4719 23.9475 27.5039 22.9279 28.3004C21.9082 29.097 20.7106 29.6343 19.4376 29.8663C18.1647 30.0984 16.8545 30.0182 15.6194 29.6327C14.3842 29.2472 13.261 28.5678 12.3461 27.6529C11.4312 26.738 10.7518 25.6148 10.3663 24.3796C9.9808 23.1445 9.90062 21.8343 10.1327 20.5614C10.3647 19.2884 10.902 18.0908 11.6986 17.0711C12.4951 16.0515 13.5271 15.2402 14.706 14.707C15.3401 13.3039 16.3656 12.1135 17.6593 11.2786C18.9531 10.4437 20.4602 9.99976 22 10ZM19 17H17V18C16.3501 17.9984 15.7252 18.25 15.2576 18.7013C14.79 19.1527 14.5166 19.7684 14.4953 20.418C14.4739 21.0675 14.7064 21.6998 15.1433 22.1809C15.5803 22.6619 16.1874 22.9539 16.836 22.995L17 23H19L19.09 23.008C19.2053 23.0289 19.3096 23.0896 19.3847 23.1795C19.4598 23.2694 19.5009 23.3828 19.5009 23.5C19.5009 23.6172 19.4598 23.7306 19.3847 23.8205C19.3096 23.9104 19.2053 23.9711 19.09 23.992L19 24H15V26H17V27H19V26C19.6499 26.0016 20.2748 25.75 20.7424 25.2987C21.21 24.8473 21.4834 24.2316 21.5047 23.582C21.5261 22.9325 21.2936 22.3002 20.8567 21.8191C20.4197 21.3381 19.8126 21.0461 19.164 21.005L19 21H17L16.91 20.992C16.7947 20.9711 16.6904 20.9104 16.6153 20.8205C16.5402 20.7306 16.4991 20.6172 16.4991 20.5C16.4991 20.3828 16.5402 20.2694 16.6153 20.1795C16.6904 20.0896 16.7947 20.0289 16.91 20.008L17 20H21V18H19V17ZM22 12C21.1527 11.999 20.3148 12.1779 19.5418 12.525C18.7688 12.872 18.0783 13.3792 17.516 14.013C18.6463 13.9444 19.7782 14.1165 20.837 14.5179C21.8958 14.9194 22.8573 15.541 23.6579 16.3418C24.4586 17.1425 25.0801 18.1041 25.4814 19.1629C25.8828 20.2218 26.0547 21.3537 25.986 22.484C26.8952 21.6756 27.5372 20.6099 27.8268 19.4283C28.1164 18.2467 28.04 17.0049 27.6076 15.8677C27.1753 14.7305 26.4074 13.7516 25.4059 13.0609C24.4044 12.3701 23.2166 12.0001 22 12Z" fill="#05058C"/>
</g>
<defs>
<clipPath id="clip0_5284_30681">
<rect width="24" height="24" fill="white" transform="translate(8 8)"/>
</clipPath>
</defs>
</svg>
