<svg width="160" height="59" viewBox="0 0 160 59" fill="none" xmlns="http://www.w3.org/2000/svg">
<g clip-path="url(#clip0_1920_8806)">
<path d="M87.9197 16.5527C88.5155 15.5849 89.5867 15.0159 90.7196 15.0657C91.8559 15.0478 92.8999 15.692 93.3958 16.7181C93.5444 16.6049 93.6701 16.4647 93.7666 16.3048C94.7558 15.1039 96.4155 14.7001 97.843 15.3137C98.83 15.7217 99.5112 16.6437 99.6137 17.7093C99.672 18.0645 99.6998 18.4236 99.6959 18.7834C99.6959 20.3119 99.6959 21.8401 99.6959 23.3685C99.6959 23.4925 99.6959 23.5751 99.6959 23.6991C99.6959 23.8131 99.6038 23.9054 99.4899 23.9054H99.4487C99.1194 23.9054 98.7075 24.0295 98.4607 23.8229C98.2136 23.6163 98.3782 23.2033 98.3782 22.9143C98.3782 21.5511 98.3782 20.1879 98.3782 18.8659C98.3888 18.5038 98.3471 18.1423 98.2547 17.7921C97.9906 16.7456 96.9679 16.0795 95.9076 16.2636C94.6313 16.429 93.8077 17.3789 93.8077 18.7833C93.8077 20.1879 93.8077 21.7575 93.8077 23.2445C93.8077 23.9881 93.9311 23.9054 93.1901 23.9054C92.4488 23.9054 92.5311 24.0294 92.5311 23.2445C92.5311 21.84 92.5311 20.422 92.5311 18.9899C92.5143 18.6406 92.4592 18.2943 92.3666 17.9572C92.2196 17.0435 91.4738 16.3461 90.5547 16.2636C89.6411 16.1257 88.7335 16.5486 88.2489 17.3376C87.9408 17.8476 87.7834 18.4351 87.7958 19.0312C87.7958 20.4769 87.7958 21.8814 87.7958 23.3271C87.7958 23.4512 87.7958 23.5337 87.7958 23.6574C87.7958 23.7816 87.7136 23.9054 87.549 23.9054H86.8077C86.6018 23.9054 86.5195 23.8641 86.5195 23.6574C86.5195 23.4512 86.5195 23.4925 86.5195 23.3684C86.5195 20.8349 86.5195 18.2877 86.5195 15.7265C86.5195 15.644 86.5195 15.5616 86.5195 15.4375C86.5195 15.3137 86.6018 15.1896 86.7666 15.1896H87.549C87.7547 15.1896 87.8372 15.2724 87.7958 15.4788C87.7547 15.6853 87.7958 16.1398 87.7958 16.4702L87.9197 16.5527Z" fill="#7D888E"/>
<path d="M123.785 15.3145L122.508 16.6364L120.491 18.7429C120.244 18.9908 120.244 18.9908 120.45 19.2387L123.702 23.5346C123.808 23.629 123.868 23.7646 123.867 23.9063H122.55C122.385 23.9063 122.303 23.7412 122.22 23.6172L119.997 20.6845L119.544 20.0649C119.461 19.9409 119.338 19.9409 119.255 20.0649L117.773 21.5519C117.683 21.6536 117.638 21.7881 117.65 21.9236C117.65 22.4606 117.65 23.0389 117.65 23.576C117.65 24.1129 117.65 23.9064 117.32 23.9064H116.62C116.373 23.9064 116.332 23.8239 116.332 23.6172C116.332 23.411 116.332 23.4521 116.332 23.3694C116.332 19.6518 116.332 15.9205 116.332 12.1753C116.332 12.0927 116.332 12.01 116.332 11.9275C116.332 11.8447 116.373 11.597 116.62 11.6384H117.361C117.609 11.6384 117.65 11.7209 117.65 11.9275C117.65 12.1338 117.65 12.1338 117.65 12.2578C117.65 14.6536 117.65 17.0633 117.65 19.4867V19.9823C117.856 19.9823 117.897 19.8171 118.02 19.7344L121.973 15.5626C122.176 15.3221 122.484 15.1984 122.797 15.2318H123.785V15.3145Z" fill="#7D888E"/>
<path d="M143.302 16.5544C143.467 16.5131 143.508 16.3478 143.59 16.2241C144.908 14.6129 147.584 14.737 148.696 16.0587C149.243 16.7034 149.535 17.5259 149.52 18.372C149.52 19.9691 149.52 21.5664 149.52 23.1636C149.52 23.3287 149.52 23.4527 149.52 23.6179C149.52 23.7832 149.437 23.907 149.231 23.8658C149.026 23.8245 148.532 23.9898 148.284 23.8245C148.037 23.659 148.202 23.2049 148.202 22.9158C148.202 21.5526 148.202 20.1895 148.202 18.8675C148.206 18.5899 148.178 18.3129 148.12 18.0416C147.831 16.6783 146.802 16.1415 145.608 16.224C144.338 16.2862 143.323 17.3048 143.261 18.5783C143.179 19.2807 143.22 19.9415 143.22 20.6439C143.22 21.3459 143.22 22.5852 143.22 23.5765C143.22 23.8244 143.138 23.9069 142.891 23.9069H142.19C141.985 23.9069 141.943 23.8244 141.943 23.6178C141.943 23.4115 141.943 23.2874 141.943 23.1223C141.943 20.6988 141.943 18.2616 141.943 15.8109C141.943 15.6869 141.943 15.5631 141.943 15.439C141.943 15.3251 142.036 15.2326 142.149 15.2326H142.191C143.22 15.1498 143.22 15.1498 143.22 16.1414C143.22 16.2651 143.22 16.3479 143.22 16.4717L143.302 16.5544Z" fill="#7D888E"/>
<path d="M137.536 22.6253C137.583 22.786 137.597 22.9545 137.577 23.121C137.577 23.7407 137.577 23.7407 136.96 23.9057C136.383 24.0754 135.772 24.0897 135.189 23.9471C134.36 23.7769 133.73 23.0959 133.624 22.2534C133.57 21.9676 133.543 21.6771 133.542 21.3859C133.542 19.9403 133.542 18.4533 133.542 17.0076C133.542 16.925 133.542 16.8422 133.542 16.7596C133.542 16.6771 133.542 16.3465 133.171 16.3465H132.677C132.43 16.388 132.348 16.264 132.389 16.0161C132.43 15.7682 132.389 15.7269 132.389 15.562C132.389 15.3965 132.389 15.1899 132.76 15.1899H133.13C133.583 15.1899 133.583 15.1899 133.583 14.6944C133.583 14.1986 133.583 13.5376 133.583 12.9593C133.583 12.381 133.583 12.5876 133.954 12.5876C134.324 12.5876 134.612 12.4638 134.818 12.6702C135.024 12.8767 134.86 13.207 134.901 13.4962C134.942 13.7855 134.901 14.3637 134.901 14.7769C134.901 15.1898 134.901 15.1486 135.271 15.1486H137.206C137.618 15.1486 137.618 15.1486 137.618 15.5619C137.618 15.9748 137.742 16.3051 136.877 16.3051H135.189C134.983 16.3051 134.901 16.3879 134.901 16.5943C134.901 18.2467 134.901 19.899 134.901 21.51C134.832 22.1449 135.289 22.7156 135.922 22.7847C135.979 22.7909 136.037 22.793 136.095 22.7904C136.473 22.8176 136.852 22.7611 137.206 22.6253C137.33 22.6665 137.412 22.6253 137.536 22.6253Z" fill="#7D888E"/>
<path d="M111.637 17.2566L112.09 16.5954C112.681 15.7536 113.619 15.2225 114.643 15.1498C115.055 15.1086 115.055 15.1498 115.055 15.5631C115.105 15.8516 115.091 16.1478 115.013 16.4304C114.89 16.6782 114.478 16.5542 114.231 16.5954C112.831 16.9261 112.09 17.7935 111.719 19.1152C111.599 19.6015 111.544 20.1015 111.555 20.6025C111.555 21.5937 111.555 22.5437 111.555 23.5351C111.555 24.5267 111.555 23.9482 111.184 23.9069C110.813 23.8656 110.525 24.0309 110.319 23.8243C110.113 23.6177 110.278 23.2874 110.278 22.9982C110.278 20.63 110.278 18.2614 110.278 15.8934C110.278 15.8108 110.278 15.728 110.278 15.6043C110.278 15.4803 110.278 15.2326 110.649 15.2739C111.019 15.3152 111.266 15.1498 111.472 15.3152C111.678 15.4804 111.555 15.8522 111.555 16.1414C111.555 16.4305 111.555 16.8847 111.555 17.2567H111.637V17.2566Z" fill="#7D888E"/>
<path d="M140.378 19.5692C140.378 20.891 140.378 22.1991 140.378 23.4935C140.378 23.9064 140.378 23.9064 139.966 23.9064C139.555 23.9064 139.308 24.0304 139.143 23.865C138.978 23.6999 139.061 23.2868 139.061 22.9977C139.061 20.6434 139.061 18.2887 139.061 15.9341C139.061 15.8103 139.061 15.7275 139.061 15.6038C139.061 15.4798 139.061 15.2734 139.39 15.2734H140.09C140.337 15.2734 140.42 15.3559 140.42 15.6038C140.42 16.4712 140.42 17.38 140.42 18.2474C140.419 19.1147 140.378 19.1147 140.378 19.5692Z" fill="#7D888E"/>
<path d="M139.676 13.3736C138.894 13.3736 138.935 13.4973 138.935 12.63C138.935 11.7626 138.852 11.9279 139.676 11.9279C140.5 11.9279 140.211 11.8452 140.376 11.9692C140.541 12.0931 140.458 12.465 140.458 12.7128C140.458 12.9605 140.541 13.3736 139.8 13.3736H139.676Z" fill="#7D888E"/>
<path d="M159.525 16.0579C159.525 15.8928 159.525 15.6862 159.525 15.5211C159.525 15.3558 159.484 15.232 159.278 15.232H158.578C158.248 15.232 158.248 15.232 158.248 15.6037C158.248 15.9755 158.248 16.3058 158.248 16.6363H158.166C156.764 14.8112 154.152 14.4719 152.333 15.8784C152.135 16.0315 151.951 16.2023 151.784 16.3885C150.43 17.9953 150.465 20.358 151.866 21.9236C153.447 23.5641 156.053 23.6081 157.688 22.0227C157.863 21.8527 158.023 21.6674 158.166 21.4694L158.248 21.5519C158.248 21.8824 158.248 22.254 158.248 22.5846C158.166 24.3196 157.178 25.2282 155.695 25.3935C154.569 25.5161 153.432 25.2849 152.442 24.7325C152.195 24.6087 152.031 24.2782 151.742 24.4433C151.454 24.6088 151.454 24.8979 151.29 25.1457C151.125 25.3936 151.207 25.3936 151.372 25.4761L151.701 25.6827C153.106 26.5006 154.76 26.7793 156.354 26.4673C157.897 26.2581 159.129 25.0727 159.401 23.5346C159.487 23.1412 159.528 22.7394 159.525 22.3369C159.525 20.2712 159.525 18.1647 159.525 16.0579ZM157.548 21.0561C156.769 21.9148 155.585 22.2789 154.46 22.0064C153.087 21.7427 152.109 20.5165 152.154 19.1146C152.113 17.2561 153.719 15.9754 155.654 16.2645C156.362 16.3601 157.016 16.6951 157.507 17.2148C158.516 18.2951 158.516 19.9759 157.507 21.0562H157.548V21.0561Z" fill="#7D888E"/>
<path d="M125.515 20.065H131.65C132.02 20.065 132.02 20.065 132.02 19.693C132.032 19.2494 131.99 18.8054 131.897 18.3714C131.56 16.2076 129.538 14.7278 127.381 15.0663C126.28 15.2389 125.304 15.8691 124.691 16.8017C124.019 17.7792 123.727 18.9689 123.868 20.1476C124.01 22.4929 126.021 24.2781 128.359 24.1352C128.441 24.1301 128.522 24.1227 128.603 24.1131C129.81 24.0291 130.929 23.4456 131.691 22.502L131.444 22.2542C131.279 22.1303 131.115 21.8825 130.909 21.8412C130.703 21.8 130.579 22.0891 130.415 22.213C128.685 23.6174 125.721 23.2044 125.185 20.3955C125.185 20.065 125.185 20.065 125.515 20.065ZM125.268 18.6194C125.379 18.0543 125.635 17.528 126.009 17.0909C126.945 16.0029 128.583 15.8821 129.667 16.8214C129.95 17.0663 130.177 17.3697 130.332 17.7104C130.493 18.0507 130.604 18.4122 130.662 18.7845C130.703 19.0736 130.703 19.0736 130.414 19.0736H125.638C125.144 19.0736 125.144 19.0736 125.267 18.5778V18.6194H125.268Z" fill="#7D888E"/>
<path d="M108.426 21.3455C108.426 20.313 108.426 19.2803 108.426 18.2475C108.454 16.6731 107.271 15.3415 105.708 15.1907C104.569 15.0222 103.407 15.1503 102.332 15.5628C101.591 15.8105 101.591 15.8106 101.879 16.554C102.167 17.2975 102.002 16.9259 102.373 16.7605C103.228 16.3879 104.161 16.2315 105.09 16.306C105.481 16.332 105.861 16.4449 106.202 16.6365C106.976 17.0872 107.362 17.9951 107.149 18.8671C107.024 18.8853 106.897 18.8709 106.779 18.8258C105.809 18.5945 104.807 18.5247 103.814 18.6194C103.219 18.6747 102.644 18.8577 102.126 19.1562C100.899 19.8979 100.503 21.4973 101.243 22.7284C101.435 23.0487 101.694 23.3238 102.002 23.5348C102.873 24.0805 103.919 24.2725 104.926 24.0719C105.805 23.9102 106.611 23.477 107.232 22.8326C107.232 23.1219 107.232 23.3695 107.232 23.6586C107.232 23.9479 107.314 23.9894 107.561 23.9479H108.179C108.426 23.9479 108.508 23.8653 108.467 23.6174C108.426 23.3696 108.426 22.0892 108.426 21.3455ZM107.191 20.9327C107.127 21.5831 106.761 22.1655 106.202 22.5021C105.296 23.1395 104.122 23.2494 103.114 22.7912C102.5 22.5608 102.102 21.9617 102.126 21.3043C102.121 20.64 102.533 20.0443 103.155 19.8173H106.861C107.191 19.8998 107.191 19.8998 107.191 20.2714C107.204 20.4916 107.204 20.7125 107.191 20.9327Z" fill="#7D888E"/>
<path d="M114.891 44.144C114.75 44.2363 114.637 44.3649 114.562 44.516C113.327 46.127 110.856 45.9616 109.744 44.9702C109.209 44.496 108.847 43.8564 108.715 43.1528C108.654 42.8398 108.627 42.5213 108.633 42.2028C108.633 40.5505 108.633 38.8982 108.633 37.2871C108.633 36.8742 108.633 36.8329 109.044 36.8742C109.456 36.9155 109.662 36.7501 109.826 36.9155C109.991 37.0807 109.909 37.4525 109.909 37.7003C109.909 39.0633 109.909 40.4264 109.909 41.7483C109.906 42.1535 109.962 42.5569 110.074 42.9463C110.333 43.8142 111.107 44.4256 112.009 44.4748C113.779 44.6399 114.891 43.3182 114.891 41.7484C114.891 40.1787 114.891 38.7329 114.891 37.2459C114.891 36.833 114.891 36.833 115.303 36.833H115.921C116.085 36.833 116.127 36.9155 116.127 37.0394C116.127 37.1635 116.127 37.2048 116.127 37.3284C116.127 39.8896 116.127 42.4508 116.127 45.0118C116.127 45.5486 116.168 45.5073 115.591 45.5073H115.097C114.891 45.5073 114.85 45.4248 114.85 45.2182C114.85 45.0117 114.891 44.5571 114.891 44.144Z" fill="#7D888E"/>
<path d="M91.0504 45.7141C88.5945 45.7598 86.5672 43.8 86.5216 41.3366C86.5212 41.3225 86.5212 41.3084 86.5209 41.2942C86.472 39.3009 87.7245 37.5084 89.6091 36.8746C91.2 36.348 92.9509 36.7632 94.1386 37.9484C94.3855 38.1962 94.3855 38.1962 94.1386 38.4853C93.8912 38.7746 93.7679 38.9812 93.5619 39.0223C93.3563 39.0637 93.1503 38.7333 92.9442 38.5682C91.5855 37.4941 89.8973 37.5767 88.7855 38.7333C87.4426 40.191 87.5316 42.4646 88.9846 43.8118C89.0004 43.8265 89.0164 43.841 89.0325 43.8553C90.1145 44.7591 91.6649 44.8265 92.8209 44.0206L93.2324 43.7315C93.3973 43.6077 93.4796 43.4012 93.6443 43.4012C93.809 43.4012 93.9736 43.6491 94.1385 43.7728L94.2619 43.8969C94.468 44.0207 94.468 44.1446 94.2619 44.3098C93.4401 45.2158 92.2716 45.7268 91.0504 45.7141Z" fill="#7D888E"/>
<path d="M95.5797 39.3531C95.5797 37.5082 95.5797 35.6629 95.5797 33.818C95.5797 33.694 95.5797 33.5701 95.5797 33.4463C95.5797 33.3223 95.662 33.2397 95.8266 33.2397H96.6915C96.8052 33.2397 96.8971 33.3321 96.8971 33.4463C96.8971 33.5701 96.8971 33.6526 96.8971 33.7766C96.8971 37.4944 96.8971 41.2257 96.8971 44.9708C96.8971 45.5077 96.9386 45.4665 96.403 45.4665C95.868 45.4665 95.7853 45.5906 95.6209 45.384C95.456 45.1774 95.5796 44.8882 95.5796 44.6404C95.5797 42.9056 95.5797 41.1294 95.5797 39.3531Z" fill="#7D888E"/>
<path d="M125.349 33.281C125.101 33.281 125.019 33.3635 125.019 33.6114C125.019 33.8592 125.019 33.7767 125.019 33.9005C125.019 35.25 125.019 36.5856 125.019 37.9072C125.034 38.0601 125.021 38.2143 124.978 38.3617C124.772 38.3205 124.731 38.1552 124.648 38.0313C123.2 36.393 120.701 36.243 119.068 37.6962C118.845 37.8948 118.645 38.1181 118.472 38.3617C117.349 40.0026 117.285 42.1498 118.307 43.8554C119.243 45.3108 120.997 46.0083 122.672 45.5906C123.452 45.3686 124.144 44.9061 124.648 44.2687C124.731 44.1447 124.772 44.0207 124.937 43.9796C125.101 43.9384 124.978 44.2275 124.978 44.3513C124.978 44.4753 124.978 44.9709 124.978 45.2599C124.978 45.5492 125.06 45.5492 125.225 45.5492H126.172V33.2397L125.349 33.281ZM123.619 44.0207C122.254 44.9282 120.414 44.5539 119.51 43.1848C119.368 42.9698 119.254 42.7371 119.172 42.4925C118.882 41.6658 118.868 40.767 119.131 39.9315C119.45 38.7399 120.497 37.8898 121.725 37.8247C122.934 37.7203 124.087 38.3557 124.648 39.4358C125.526 41.003 125.082 42.982 123.619 44.0207Z" fill="#7D888E"/>
<path d="M102.868 36.6672C100.39 36.6678 98.3805 38.6838 98.3809 41.1705C98.3813 43.657 100.391 45.6726 102.87 45.6722C105.316 45.6717 107.312 43.706 107.357 41.2522C107.425 38.7893 105.49 36.7373 103.035 36.6688C102.98 36.6672 102.924 36.6667 102.868 36.6672ZM104.31 44.1851C102.95 44.914 101.263 44.5262 100.356 43.2762C99.4747 42.0111 99.4747 40.3282 100.356 39.0629C101.401 37.6812 103.363 37.4101 104.741 38.4574C105.162 38.7773 105.495 39.1989 105.71 39.6827C105.941 40.1721 106.054 40.7103 106.039 41.2521C106.069 42.4926 105.378 43.6374 104.268 44.185H104.31V44.1851Z" fill="#7D888E"/>
<path d="M22.9007 0.649563C25.6079 0.970954 28.1794 2.01605 30.3463 3.67551C31.2689 4.37588 32.1078 5.18089 32.8463 6.07446L33.1995 6.48334L34.2865 5.50191C37.2485 3.04851 40.6452 1.9581 44.4496 2.36703C48.8517 2.83044 52.2485 5.06582 54.6671 8.77325L54.7757 8.93675C55.0475 9.40015 55.0475 9.40015 55.5638 9.18213C64.3681 5.55649 74.5313 10.1908 77.6291 19.2413C80.4823 27.5558 76.7052 36.6335 68.9063 40.2864C66.6615 41.3406 64.2109 41.8809 61.7323 41.8675C60.8209 41.8709 59.9111 41.7887 59.0149 41.6222C58.5529 41.5403 58.5529 41.5403 58.3084 41.9219C56.4333 44.8935 53.7974 46.8017 50.3736 47.5377C47.9143 48.0806 45.3473 47.8325 43.0366 46.8289L42.955 46.7745C42.4659 46.5564 42.5474 46.529 42.3299 46.9925C41.8641 48.0177 41.2706 48.9795 40.5637 49.8548C38.2959 52.7301 34.9819 54.5835 31.3517 55.0071L30.6451 55.0888C30.0852 55.1417 29.5226 55.1599 28.9603 55.1435H28.5256C25.5093 55.0343 22.9007 53.8895 20.5908 52.0084C18.9042 50.6268 17.5718 48.8602 16.7049 46.8562C16.3788 46.1201 16.3788 46.1474 15.5637 46.2565C11.4332 46.7745 7.81899 45.575 4.80275 42.7127C2.67049 40.708 1.2809 38.0357 0.8626 35.1342C0.838699 34.9079 0.829624 34.6803 0.835269 34.4526C0.774962 33.5451 0.774962 32.6344 0.835269 31.7267C0.93826 29.994 1.43048 28.3071 2.27551 26.7924C3.29777 24.8274 4.80376 23.157 6.65058 21.94C7.03099 21.6948 7.05817 21.4222 6.9222 21.0404C6.2679 19.2893 5.94537 17.4311 5.97117 15.5611C5.96125 12.1491 7.12232 8.83782 9.25924 6.18349C11.4054 3.44649 14.43 1.53926 17.819 0.785911C18.3576 0.685449 18.9022 0.621722 19.4495 0.595098H20.0744C20.2103 0.567786 20.3734 0.649563 20.5093 0.540527H21.8679C22.0039 0.649563 22.1667 0.567786 22.3026 0.595098H22.52C22.6289 0.595098 22.7649 0.567786 22.9007 0.649563Z" fill="#139CD8"/>
<path d="M44.7492 22.6216C45.1646 22.6626 45.5824 22.6718 45.9992 22.6488C46.2437 22.6488 46.2982 22.7307 46.2437 22.9759C46.0264 24.0663 46.1622 23.8755 45.2113 23.9027C44.2602 23.9301 44.5046 23.7393 44.3416 24.6388C43.9884 26.5471 43.6896 28.4553 43.3091 30.3636C43.2377 30.681 43.1377 30.9912 43.0101 31.2904C42.521 32.4626 41.6515 33.0078 40.4015 32.8988C40.1429 32.8869 39.8872 32.841 39.6407 32.7625C39.4504 32.6807 39.3417 32.599 39.4505 32.3808V32.2717C39.5061 32.0407 39.5978 31.8199 39.7221 31.6175C39.9123 31.3994 40.1569 31.6175 40.4015 31.6175C41.0807 31.6175 41.3797 31.4539 41.6515 30.8269C41.8921 30.1571 42.0562 29.4621 42.1406 28.7552C42.4124 27.2831 42.6568 25.8383 42.9286 24.3662L42.9831 24.0663C42.998 23.9772 42.9381 23.8928 42.8494 23.8778C42.8398 23.8761 42.8298 23.8753 42.82 23.8755H42.1405C41.9503 23.8755 41.8417 23.7664 41.9232 23.5756V23.5211C42.0319 22.676 42.0319 22.6488 42.847 22.6488C43.1187 22.6488 43.2547 22.567 43.2818 22.2672C43.3188 21.9774 43.3917 21.6936 43.4993 21.4221C43.9341 20.1499 44.8307 19.532 46.1894 19.5684H46.2982C47.521 19.7319 47.3036 19.6774 46.9503 20.6861C46.896 20.8769 46.7601 20.9041 46.597 20.8769C46.3655 20.8244 46.1275 20.8061 45.8907 20.8223C45.5363 20.851 45.2201 21.0556 45.0482 21.3676C44.823 21.7451 44.719 22.1827 44.7492 22.6216Z" fill="white"/>
<path d="M24.1245 26.9561C24.1245 27.6376 24.1245 28.3463 24.1245 29.0279C24.1245 29.2732 24.0703 29.4095 23.7984 29.464C22.63 29.7094 21.4615 29.9547 20.2658 29.7639L19.8039 29.6548C19.0159 29.4368 18.4724 28.9462 18.3365 28.1556C18.2006 27.365 18.3365 26.4381 19.0973 25.8384C19.6762 25.4248 20.3705 25.2054 21.0812 25.2114C21.4993 25.2007 21.9178 25.2282 22.3311 25.2932C22.6301 25.3478 22.6572 25.2932 22.6572 24.9934C22.7189 24.4246 22.3091 23.9134 21.7421 23.8517C21.7302 23.8505 21.7181 23.8494 21.7062 23.8485C20.9325 23.7215 20.1385 23.8257 19.4236 24.1483C19.0159 24.3119 19.0159 24.3119 18.8801 23.9303L18.7984 23.7394C18.5811 23.167 18.6082 23.1396 19.1789 22.9216C20.1305 22.5542 21.163 22.4507 22.168 22.6217C23.3909 22.8397 24.0431 23.6303 24.0703 24.9661C24.0974 25.6476 24.0703 26.3292 24.0703 26.9834L24.1245 26.9561Z" fill="white"/>
<path d="M68.2825 26.5473H66.2989C65.9456 26.5473 65.9456 26.5746 65.9727 26.9018C65.988 27.7028 66.5707 28.3789 67.3586 28.5101C68.0941 28.6464 68.8522 28.5901 69.5596 28.3465C69.9945 28.2102 69.9945 28.2102 70.1302 28.6463C70.2662 29.0825 70.4021 29.4369 69.6412 29.6277C68.7378 29.8821 67.786 29.9101 66.8695 29.7095C65.6194 29.4097 64.8042 28.6736 64.5052 27.3924C64.2777 26.443 64.3344 25.4472 64.6683 24.53C65.4293 22.4037 67.8205 22.1311 69.1792 22.8671C69.6388 23.1086 70.01 23.4905 70.239 23.9575C70.5756 24.6608 70.7073 25.4451 70.6194 26.2202C70.5923 26.4656 70.5107 26.5473 70.2662 26.5473H68.2825Z" fill="white"/>
<path d="M32.1676 26.5471H30.2112C29.9667 26.5471 29.885 26.6016 29.9122 26.8742C30.0209 27.8284 30.4828 28.3463 31.434 28.5099C32.1363 28.6222 32.8557 28.5566 33.5264 28.3191C33.9339 28.1827 33.9339 28.1827 34.097 28.5644L34.1513 28.7553C34.3415 29.3277 34.3686 29.3277 33.798 29.5185C32.8079 29.8533 31.7433 29.9007 30.7275 29.6547C29.5753 29.4242 28.6746 28.5207 28.4447 27.3649C28.2008 26.3987 28.2578 25.3807 28.6078 24.448C29.3415 22.4853 32.0046 21.7764 33.5535 23.1395C33.9043 23.4462 34.1669 23.8415 34.3143 24.2845C34.5139 24.8618 34.588 25.4752 34.5317 26.0837C34.5046 26.5199 34.4774 26.5199 34.0699 26.5199L32.1676 26.5471Z" fill="white"/>
<path d="M46.4069 26.1652C46.3782 25.6777 46.4334 25.1889 46.57 24.7203C46.9776 23.2755 48.2276 22.376 49.8852 22.485C51.5429 22.594 52.6027 23.6844 52.8201 25.3745C52.9159 26.0463 52.8882 26.73 52.7384 27.3919C52.3309 29.1365 50.9179 29.9816 49.206 29.7907C47.494 29.5999 46.5429 28.4823 46.3799 26.7375C46.4069 26.5468 46.4069 26.356 46.4069 26.1652Z" fill="white"/>
<path d="M38.1728 29.8456C37.3045 29.8568 36.4498 29.6307 35.7 29.1914C35.4554 29.0551 35.3739 28.8915 35.5098 28.6462V28.5917C35.6185 28.3736 35.5912 28.0193 35.8358 27.9101C36.0805 27.8011 36.2434 28.101 36.4609 28.2101C37.0008 28.484 37.595 28.633 38.2 28.6462C38.4433 28.664 38.6871 28.617 38.9065 28.5099C39.1801 28.3929 39.3606 28.1267 39.3684 27.8285C39.3762 27.54 39.2021 27.2779 38.9337 27.1742C38.6381 27.0258 38.3285 26.9072 38.0097 26.8198C37.5631 26.7012 37.1268 26.5463 36.7054 26.3564C36.0531 26.0292 35.6456 25.5385 35.6185 24.7753C35.551 24.0174 35.9201 23.2873 36.5695 22.8942C37.1104 22.574 37.7374 22.4311 38.363 22.4854C39.0539 22.5122 39.7305 22.6889 40.3468 23.0034C40.5642 23.1125 40.6727 23.2487 40.537 23.4941L40.4825 23.6303C40.2652 24.2573 40.2652 24.2573 39.613 24.012C39.1114 23.8123 38.5764 23.7106 38.0369 23.712C37.7799 23.7075 37.5296 23.7945 37.3303 23.9574C37.0527 24.1632 36.9939 24.5558 37.199 24.8343C37.2361 24.8846 37.2803 24.9289 37.3303 24.9661C37.4899 25.1011 37.6747 25.2031 37.8738 25.2659L38.9879 25.6476C39.2768 25.756 39.5582 25.8835 39.8303 26.0292C40.4572 26.3139 40.8533 26.9475 40.8357 27.6376C40.8699 28.4019 40.47 29.1198 39.8032 29.4914C39.3034 29.7594 38.7385 29.8821 38.1728 29.8456Z" fill="white"/>
<path d="M14.8047 29.8455C13.9544 29.8509 13.1186 29.6248 12.3862 29.1912C12.0601 29.0004 12.033 28.9731 12.1687 28.6187C12.3046 28.2644 12.2503 28.0463 12.4677 27.9373C12.6851 27.8283 12.9297 28.1009 13.1471 28.2099C13.6708 28.4753 14.2455 28.624 14.8319 28.646C15.1505 28.675 15.4687 28.5878 15.7287 28.4007C16.0541 28.1847 16.1434 27.745 15.9281 27.4185C15.8697 27.33 15.7923 27.2557 15.7015 27.2013C15.4213 27.0334 15.1196 26.905 14.8047 26.8196C14.4089 26.7126 14.0189 26.5852 13.6361 26.438C12.6307 26.0018 12.2503 25.4294 12.3318 24.4479C12.3927 23.5492 13.0329 22.7964 13.9079 22.5942C14.9695 22.3263 16.0925 22.4623 17.0602 22.9758C17.2775 23.085 17.3318 23.2212 17.2504 23.4666C16.9785 24.2299 17.0059 24.2299 16.2722 23.9845C15.7882 23.7891 15.2719 23.6873 14.7502 23.6847C14.5943 23.6743 14.4378 23.6928 14.2884 23.7392C13.9957 23.8158 13.7799 24.0647 13.7449 24.3662C13.6947 24.662 13.8515 24.9542 14.1253 25.075C14.4636 25.2476 14.8188 25.3847 15.1852 25.4839C15.6155 25.6099 16.0338 25.7742 16.4352 25.9746C17.1144 26.3291 17.522 26.8741 17.4949 27.6647C17.5135 28.4471 17.0791 29.1696 16.3807 29.5185C15.8928 29.7636 15.3496 29.8763 14.8047 29.8455Z" fill="white"/>
<path d="M58.4993 26.247C58.4952 25.8251 58.5409 25.4042 58.635 24.993C58.9165 23.6822 59.9977 22.6961 61.3253 22.5396C62.1 22.4367 62.8876 22.5017 63.6349 22.7304C63.8525 22.7848 63.9611 22.8939 63.8525 23.1392C63.7835 23.3874 63.6831 23.6257 63.5535 23.8481C63.3362 24.0934 63.0643 23.8208 62.8198 23.8208C62.5752 23.8208 62.1676 23.7391 61.8414 23.7663C61.0504 23.7815 60.3693 24.3304 60.184 25.102C59.9748 25.7662 59.9654 26.4772 60.1568 27.1466C60.4285 28.1552 61.1893 28.5914 62.3035 28.5642C62.6655 28.566 63.0246 28.5013 63.3633 28.3733C63.4654 28.3099 63.5993 28.3416 63.6625 28.4441C63.6749 28.4643 63.684 28.4865 63.6893 28.5096C64.0426 29.5727 64.2056 29.4636 63.0915 29.709C62.5193 29.8284 61.931 29.8469 61.3525 29.7635C59.423 29.5182 58.6895 28.0734 58.5535 26.792C58.5264 26.6013 58.4993 26.3833 58.4993 26.247Z" fill="white"/>
<path d="M27.0319 24.748C27.0319 26.2201 27.0319 27.6922 27.0319 29.1642C27.0319 29.6549 27.0319 29.6549 26.5155 29.6823C25.5645 29.6823 25.5645 29.6823 25.5645 28.7826C25.5645 26.002 25.5645 23.2124 25.5645 20.4136C25.5645 20.3046 25.5645 20.1682 25.5645 20.0592C25.5645 19.9502 25.6459 19.7866 25.8361 19.7866H26.6242C27.0046 19.7866 27.0319 19.7866 27.0319 20.1956C27.0319 21.5313 27.0319 22.8671 27.0319 24.2029C27.0319 24.3846 27.0319 24.5664 27.0319 24.748Z" fill="white"/>
<path d="M55.5912 23.1673C55.7272 23.1673 55.8086 23.0582 55.8902 22.9764C56.5694 22.513 57.3031 22.4858 58.0639 22.6766C58.2542 22.7312 58.2814 22.813 58.2271 22.9764L58.1728 23.1128C58.1089 23.3626 58.0082 23.6016 57.8738 23.8215C57.6836 24.0397 57.3848 23.8761 57.1401 23.8761C56.3403 23.874 55.6754 24.4934 55.6184 25.2936C55.5667 25.6731 55.5393 26.0556 55.5369 26.4386C55.5369 27.3382 55.5369 28.2377 55.5369 29.1374C55.5369 30.0369 55.5369 29.6281 55.0206 29.6281H54.3954C54.1509 29.6553 54.0424 29.5191 54.0695 29.2737C54.0967 29.0283 54.0695 29.0555 54.0695 28.9738C54.0695 27.0655 54.0695 25.1664 54.0695 23.2763C54.0695 23.14 54.0695 23.0037 54.0695 22.8674C54.0695 22.747 54.1669 22.6493 54.2868 22.6493H55.2651C55.4009 22.6493 55.4824 22.7312 55.4824 22.8674C55.4825 23.0038 55.4825 23.0855 55.5912 23.1673Z" fill="white"/>
<path d="M22.6839 27.4468C22.6839 27.6649 22.6839 27.8557 22.6839 28.0737C22.6839 28.2918 22.6839 28.5099 22.2763 28.5645C21.7473 28.665 21.2052 28.6742 20.673 28.5917C19.9937 28.4554 19.6677 28.0193 19.7764 27.3104C19.8399 26.8677 20.1797 26.5159 20.6187 26.4382C21.0525 26.3215 21.5054 26.2937 21.9502 26.3564C22.6567 26.4382 22.6838 26.4382 22.6838 27.1742C22.6839 27.265 22.6839 27.3559 22.6839 27.4468Z" fill="#139CD8"/>
<path d="M67.5214 25.4293H66.2171C66.0269 25.4293 65.9725 25.3475 65.9997 25.1839C66.2443 24.0934 66.8965 23.6846 67.7116 23.7392C68.464 23.7931 69.0584 24.401 69.0977 25.1567C69.0977 25.3747 69.0432 25.4293 68.8258 25.4293H67.5214Z" fill="#139CD8"/>
<path d="M31.4614 25.4292H30.2114C29.9941 25.4292 29.8853 25.3747 29.9396 25.1294C30.1298 24.3388 30.5918 23.7118 31.5972 23.7391C32.3709 23.7662 32.9958 24.3813 33.0375 25.1567C33.0375 25.3475 33.0103 25.4565 32.793 25.4292H31.4343H31.4614Z" fill="#139CD8"/>
<path d="M51.3794 26.2472C51.3791 26.7416 51.287 27.2315 51.1078 27.6921C50.8797 28.2948 50.2809 28.673 49.6404 28.6189C48.9338 28.6189 48.4446 28.3191 48.2001 27.6648C47.8434 26.716 47.8434 25.6694 48.2001 24.7207C48.4083 24.1113 48.9999 23.7193 49.6404 23.7666C50.288 23.7162 50.889 24.1072 51.1078 24.7207C51.2947 25.2074 51.3868 25.7256 51.3794 26.2472Z" fill="#139CD8"/>
</g>
<defs>
<clipPath id="clip0_1920_8806">
<rect width="159.552" height="58.17" fill="white" transform="translate(0.0957031)"/>
</clipPath>
</defs>
</svg>
