<svg width="40" height="40" viewBox="0 0 40 40" fill="none" xmlns="http://www.w3.org/2000/svg">
<g clip-path="url(#clip0_5203_27741)">
<rect width="40" height="40" fill="white"/>
<path d="M8.75 25H3.75C3.41848 25 3.10054 24.8683 2.86612 24.6339C2.6317 24.3995 2.5 24.0815 2.5 23.75V18.75C2.5 18.4185 2.6317 18.1005 2.86612 17.8661C3.10054 17.6317 3.41848 17.5 3.75 17.5H8.75C9.08152 17.5 9.39946 17.6317 9.63388 17.8661C9.8683 18.1005 10 18.4185 10 18.75V23.75C10 24.0815 9.8683 24.3995 9.63388 24.6339C9.39946 24.8683 9.08152 25 8.75 25ZM5 22.5H7.5V20H5V22.5Z" fill="#05058C"/>
<path d="M21.25 33.75C21.0028 33.75 20.7611 33.6767 20.5555 33.5393C20.35 33.402 20.1898 33.2068 20.0952 32.9784C20.0005 32.7499 19.9758 32.4986 20.024 32.2561C20.0723 32.0137 20.1913 31.7909 20.3661 31.6161C20.5409 31.4413 20.7637 31.3223 21.0061 31.274C21.2486 31.2258 21.4999 31.2505 21.7284 31.3452C21.9568 31.4398 22.152 31.6 22.2893 31.8055C22.4267 32.0111 22.5 32.2528 22.5 32.5C22.5 32.8315 22.3683 33.1495 22.1339 33.3839C21.8995 33.6183 21.5815 33.75 21.25 33.75Z" fill="#05058C"/>
<path d="M37.5 37.5H27.5V35C31.1467 34.8342 34.5782 33.2266 37.0397 30.5308C39.5011 27.8349 40.7908 24.2717 40.625 20.625C40.4592 16.9783 38.8516 13.5468 36.1558 11.0853C33.4599 8.62393 29.8967 7.33424 26.25 7.5H17.5C17.1685 7.5 16.8505 7.6317 16.6161 7.86612C16.3817 8.10054 16.25 8.41848 16.25 8.75C16.25 9.08152 16.3817 9.39946 16.6161 9.63388C16.8505 9.8683 17.1685 10 17.5 10H26.25C29.1173 10.0117 31.8719 11.1179 33.9511 13.0924C36.0302 15.067 37.2769 17.7609 37.4365 20.6238C37.5961 23.4867 36.6565 26.3025 34.8097 28.4959C32.9629 30.6892 30.3482 32.0947 27.5 32.425V29.925C29.7127 29.6348 31.7309 28.5102 33.1418 26.7811C34.5527 25.052 35.2495 22.8491 35.0899 20.6232C34.9302 18.3973 33.926 16.3164 32.2828 14.8064C30.6396 13.2964 28.4815 12.4714 26.25 12.5H12.5V10C12.8315 10 13.1495 9.8683 13.3839 9.63388C13.6183 9.39946 13.75 9.08152 13.75 8.75C13.75 8.41848 13.6183 8.10054 13.3839 7.86612C13.1495 7.6317 12.8315 7.5 12.5 7.5C12.5 6.83696 12.2366 6.20107 11.7678 5.73223C11.2989 5.26339 10.663 5 10 5V1.25C10 0.918479 9.8683 0.600537 9.63388 0.366117C9.39946 0.131696 9.08152 0 8.75 0L3.75 0C3.41848 0 3.10054 0.131696 2.86612 0.366117C2.6317 0.600537 2.5 0.918479 2.5 1.25V5C1.83696 5 1.20107 5.26339 0.732233 5.73223C0.263392 6.20107 0 6.83696 0 7.5L0 17.5C0 18.163 0.263392 18.7989 0.732233 19.2678C1.20107 19.7366 1.83696 20 2.5 20H10C10.663 20 11.2989 19.7366 11.7678 19.2678C12.2366 18.7989 12.5 18.163 12.5 17.5V15H26.25C27.9076 15 29.4973 15.6585 30.6694 16.8306C31.8415 18.0027 32.5 19.5924 32.5 21.25C32.5 22.9076 31.8415 24.4973 30.6694 25.6694C29.4973 26.8415 27.9076 27.5 26.25 27.5H25C24.0714 26.8036 22.9673 26.3795 21.8113 26.2753C20.6553 26.171 19.4931 26.3907 18.4549 26.9098C17.4168 27.4289 16.5436 28.2268 15.9334 29.2142C15.3232 30.2015 15 31.3393 15 32.5H8.75C8.41848 32.5 8.10054 32.3683 7.86612 32.1339C7.6317 31.8995 7.5 31.5815 7.5 31.25V30H11.25C11.5815 30 11.8995 29.8683 12.1339 29.6339C12.3683 29.3995 12.5 29.0815 12.5 28.75C12.5 28.4185 12.3683 28.1005 12.1339 27.8661C11.8995 27.6317 11.5815 27.5 11.25 27.5H1.25C0.918479 27.5 0.600537 27.6317 0.366117 27.8661C0.131696 28.1005 0 28.4185 0 28.75C0 29.0815 0.131696 29.3995 0.366117 29.6339C0.600537 29.8683 0.918479 30 1.25 30H5V31.25C5 32.2446 5.39509 33.1984 6.09835 33.9016C6.80161 34.6049 7.75544 35 8.75 35H15V37.5H5C4.66848 37.5 4.35054 37.6317 4.11612 37.8661C3.8817 38.1005 3.75 38.4185 3.75 38.75C3.75 39.0815 3.8817 39.3995 4.11612 39.6339C4.35054 39.8683 4.66848 40 5 40H37.5C37.8315 40 38.1495 39.8683 38.3839 39.6339C38.6183 39.3995 38.75 39.0815 38.75 38.75C38.75 38.4185 38.6183 38.1005 38.3839 37.8661C38.1495 37.6317 37.8315 37.5 37.5 37.5ZM5 2.5H7.5V5H5V2.5ZM10 17.5H2.5V7.5H10V17.5ZM17.5 37.5V32.5C17.5 31.5054 17.8951 30.5516 18.5983 29.8483C19.3016 29.1451 20.2554 28.75 21.25 28.75C22.2446 28.75 23.1984 29.1451 23.9017 29.8483C24.6049 30.5516 25 31.5054 25 32.5V37.5H17.5Z" fill="#000033"/>
</g>
<defs>
<clipPath id="clip0_5203_27741">
<rect width="40" height="40" fill="white"/>
</clipPath>
</defs>
</svg>
