<svg width="40" height="40" viewBox="0 0 40 40" fill="none" xmlns="http://www.w3.org/2000/svg">
<g clip-path="url(#clip0_5203_27856)">
<rect width="40" height="40" fill="white"/>
<path d="M38.75 28.75H3.75V7.5C3.75 7.16848 3.8817 6.85054 4.11612 6.61612C4.35054 6.3817 4.66848 6.25 5 6.25H35C35.3315 6.25 35.6495 6.3817 35.8839 6.61612C36.1183 6.85054 36.25 7.16848 36.25 7.5V25C36.25 25.3315 36.3817 25.6495 36.6161 25.8839C36.8505 26.1183 37.1685 26.25 37.5 26.25C37.8315 26.25 38.1495 26.1183 38.3839 25.8839C38.6183 25.6495 38.75 25.3315 38.75 25V7.5C38.75 6.50544 38.3549 5.55161 37.6516 4.84835C36.9484 4.14509 35.9946 3.75 35 3.75H5C4.00544 3.75 3.05161 4.14509 2.34835 4.84835C1.64509 5.55161 1.25 6.50544 1.25 7.5V28.75C0.918479 28.75 0.600537 28.8817 0.366117 29.1161C0.131696 29.3505 0 29.6685 0 30L0 32.5C0 33.4946 0.395088 34.4484 1.09835 35.1517C1.80161 35.8549 2.75544 36.25 3.75 36.25H36.25C37.2446 36.25 38.1984 35.8549 38.9016 35.1517C39.6049 34.4484 40 33.4946 40 32.5V30C40 29.6685 39.8683 29.3505 39.6339 29.1161C39.3995 28.8817 39.0815 28.75 38.75 28.75ZM37.5 32.5C37.5 32.8315 37.3683 33.1495 37.1339 33.3839C36.8995 33.6183 36.5815 33.75 36.25 33.75H3.75C3.41848 33.75 3.10054 33.6183 2.86612 33.3839C2.6317 33.1495 2.5 32.8315 2.5 32.5V31.25H37.5V32.5Z" fill="#000033"/>
<path d="M13.7494 22.4973C13.5849 22.4983 13.4218 22.4667 13.2696 22.4045C13.1173 22.3423 12.9787 22.2507 12.8619 22.1348L9.11194 18.3848C8.99477 18.2686 8.90178 18.1303 8.83832 17.978C8.77486 17.8257 8.74219 17.6623 8.74219 17.4973C8.74219 17.3323 8.77486 17.1689 8.83832 17.0166C8.90178 16.8643 8.99477 16.726 9.11194 16.6098L12.8619 12.8598C13.0973 12.6244 13.4166 12.4922 13.7494 12.4922C14.0823 12.4922 14.4016 12.6244 14.6369 12.8598C14.8723 13.0952 15.0045 13.4144 15.0045 13.7473C15.0045 14.0802 14.8723 14.3994 14.6369 14.6348L11.7619 17.4973L14.6369 20.3598C14.8132 20.5346 14.9334 20.758 14.9823 21.0015C15.0311 21.2449 15.0064 21.4973 14.9111 21.7267C14.8159 21.956 14.6546 22.1517 14.4477 22.289C14.2408 22.4262 13.9977 22.4987 13.7494 22.4973Z" fill="#05058C"/>
<path d="M26.2495 22.4973C26.0012 22.4987 25.7581 22.4262 25.5512 22.289C25.3443 22.1517 25.183 21.956 25.0877 21.7267C24.9925 21.4973 24.9678 21.2449 25.0166 21.0015C25.0654 20.758 25.1857 20.5346 25.362 20.3598L28.237 17.4973L25.362 14.6348C25.2454 14.5183 25.153 14.3799 25.0899 14.2276C25.0268 14.0753 24.9943 13.9121 24.9943 13.7473C24.9943 13.4144 25.1266 13.0952 25.362 12.8598C25.5973 12.6244 25.9166 12.4922 26.2495 12.4922C26.4143 12.4922 26.5775 12.5247 26.7298 12.5877C26.882 12.6508 27.0204 12.7433 27.137 12.8598L30.887 16.6098C31.0041 16.726 31.0971 16.8643 31.1606 17.0166C31.224 17.1689 31.2567 17.3323 31.2567 17.4973C31.2567 17.6623 31.224 17.8257 31.1606 17.978C31.0971 18.1303 31.0041 18.2686 30.887 18.3848L27.137 22.1348C27.0202 22.2507 26.8816 22.3423 26.7293 22.4045C26.577 22.4667 26.414 22.4983 26.2495 22.4973Z" fill="#05058C"/>
<path d="M18.7519 25.0013C18.5644 25.0051 18.3785 24.9667 18.2079 24.8889C18.0372 24.8111 17.8863 24.6959 17.7663 24.5518C17.6462 24.4078 17.5601 24.2385 17.5144 24.0567C17.4686 23.8749 17.4643 23.685 17.5019 23.5013L20.0019 11.0013C20.0682 10.6698 20.2635 10.3782 20.5448 10.1907C20.8261 10.0031 21.1704 9.93502 21.5019 10.0013C21.8334 10.0676 22.125 10.2629 22.3125 10.5442C22.5001 10.8255 22.5682 11.1698 22.5019 11.5013L20.0019 24.0013C19.9434 24.2879 19.7863 24.5449 19.5579 24.7277C19.3295 24.9104 19.0443 25.0072 18.7519 25.0013Z" fill="#05058C"/>
</g>
<defs>
<clipPath id="clip0_5203_27856">
<rect width="40" height="40" fill="white"/>
</clipPath>
</defs>
</svg>
