<svg width="41" height="40" viewBox="0 0 41 40" fill="none" xmlns="http://www.w3.org/2000/svg">
<g clip-path="url(#clip0_5203_28810)">
<rect width="40" height="40" transform="translate(0.5)" fill="white"/>
<path d="M15.5 6.25C13.7694 6.25 12.0777 6.76318 10.6388 7.72464C9.19983 8.6861 8.07832 10.0527 7.41606 11.6515C6.75379 13.2504 6.58051 15.0097 6.91813 16.707C7.25575 18.4044 8.08911 19.9635 9.31282 21.1872C10.5365 22.4109 12.0956 23.2442 13.793 23.5819C15.4903 23.9195 17.2496 23.7462 18.8485 23.0839C20.4473 22.4217 21.8139 21.3002 22.7754 19.8612C23.7368 18.4223 24.25 16.7306 24.25 15C24.25 12.6794 23.3281 10.4538 21.6872 8.81282C20.0462 7.17187 17.8206 6.25 15.5 6.25ZM9.25 15C9.24971 13.5592 9.74723 12.1625 10.6584 11.0464C11.5695 9.93023 12.8383 9.16316 14.25 8.875V15C14.25 15.6125 14.1625 15.35 18.4375 20.475C17.4883 20.9805 16.4247 21.2325 15.3496 21.2066C14.2745 21.1807 13.2242 20.8779 12.3004 20.3274C11.3766 19.7769 10.6104 18.9973 10.0761 18.064C9.54168 17.1308 9.25716 16.0754 9.25 15ZM20.3625 18.875L16.75 14.55V8.875C17.7925 9.09394 18.7618 9.57572 19.5657 10.2746C20.3697 10.9734 20.9817 11.8662 21.3436 12.8681C21.7056 13.8699 21.8054 14.9477 21.6337 15.999C21.462 17.0504 21.0244 18.0403 20.3625 18.875Z" fill="#05058C"/>
<path d="M39.0995 31.8245L32.262 24.9995C31.7936 24.5339 31.16 24.2725 30.4995 24.2725C29.8391 24.2725 29.2055 24.5339 28.737 24.9995L27.9995 25.737L26.937 24.6745C28.9888 22.2468 30.2163 19.23 30.4425 16.0595C30.6686 12.889 29.8818 9.72855 28.1954 7.03417C26.5091 4.33979 24.0104 2.25076 21.0599 1.06845C18.1093 -0.113853 14.8595 -0.328312 11.7792 0.456015C8.69888 1.24034 5.94735 2.98291 3.92155 5.43232C1.89575 7.88173 0.700418 10.9113 0.50799 14.0841C0.315562 17.2569 1.13599 20.4088 2.85092 23.085C4.56584 25.7613 7.0866 27.8237 10.0495 28.9745C10.2049 29.0483 10.3737 29.0893 10.5456 29.0948C10.7175 29.1004 10.8887 29.0704 11.0484 29.0068C11.2082 28.9432 11.3531 28.8473 11.4741 28.7251C11.5951 28.6029 11.6896 28.4571 11.7517 28.2967C11.8138 28.1363 11.8421 27.9649 11.8349 27.7931C11.8277 27.6213 11.7851 27.4528 11.7098 27.2982C11.6345 27.1436 11.5281 27.0062 11.3973 26.8946C11.2665 26.7829 11.1141 26.6995 10.9495 26.6495C8.04729 25.5208 5.67084 23.3494 4.28547 20.5606C2.90009 17.7717 2.60556 14.5662 3.45953 11.5716C4.31351 8.57694 6.25449 6.00889 8.90247 4.37022C11.5504 2.73154 14.7147 2.14024 17.7758 2.71209C20.8368 3.28393 23.5742 4.97774 25.452 7.46188C27.3298 9.94603 28.2127 13.0416 27.9279 16.1426C27.6432 19.2435 26.2112 22.1265 23.9124 24.2272C21.6136 26.3278 18.6135 27.4947 15.4995 27.4995C15.168 27.4995 14.8501 27.6312 14.6157 27.8656C14.3812 28.1 14.2495 28.418 14.2495 28.7495C14.2495 29.081 14.3812 29.399 14.6157 29.6334C14.8501 29.8678 15.168 29.9995 15.4995 29.9995C19.0463 30.0045 22.4779 28.7409 25.1745 26.437L26.237 27.4995C25.437 28.2995 24.762 28.7495 24.762 29.9995C24.7648 30.6615 25.0301 31.2953 25.4995 31.762L32.3245 38.5995C33.223 39.4979 34.4415 40.0027 35.712 40.0026C36.9826 40.0026 38.2011 39.4979 39.0995 38.5995C39.998 37.7011 40.5027 36.4826 40.5027 35.212C40.5027 33.9414 39.998 32.7229 39.0995 31.8245ZM35.712 37.4995C35.1067 37.4955 34.5273 37.2529 34.0995 36.8245L27.262 29.9995L30.4995 26.762L37.3245 33.5995C37.6424 33.9194 37.8587 34.3261 37.9462 34.7685C38.0336 35.2109 37.9883 35.6693 37.816 36.0861C37.6437 36.5028 37.352 36.8593 36.9777 37.1108C36.6033 37.3623 36.163 37.4975 35.712 37.4995Z" fill="#05058C"/>
<path d="M0.51848 16.0595C0.292309 12.889 1.07916 9.72855 2.76551 7.03417C4.45187 4.33979 6.95055 2.25076 9.90108 1.06845C12.8516 -0.113853 16.1014 -0.328312 19.1818 0.456015C22.2621 1.24034 25.0136 2.98291 27.0394 5.43232C29.0652 7.88173 30.2605 10.9113 30.4529 14.0841C30.6454 17.2569 29.8249 20.4088 28.11 23.085C26.3951 25.7613 23.8743 27.8237 20.9114 28.9745C20.7561 29.0483 20.5872 29.0893 20.4153 29.0948C20.2434 29.1004 20.0723 29.0704 19.9125 29.0068C19.7527 28.9432 19.6078 28.8473 19.4868 28.7251C19.3658 28.6029 19.2713 28.4571 19.2092 28.2967C19.1472 28.1363 19.1188 27.9649 19.126 27.7931C19.1332 27.6213 19.1758 27.4528 19.2511 27.2982C19.3264 27.1436 19.4328 27.0062 19.5636 26.8946C19.6944 26.7829 19.8469 26.6995 20.0114 26.6495C22.9136 25.5208 25.2901 23.3494 26.6755 20.5606C28.0608 17.7717 28.3554 14.5662 27.5014 11.5716C26.6474 8.57694 24.7064 6.00889 22.0585 4.37022C19.4105 2.73154 16.2462 2.14024 13.1852 2.71209C10.1241 3.28393 7.38674 4.97774 5.50896 7.46188C3.63118 9.94603 2.74824 13.0416 3.033 16.1426C3.31776 19.2435 4.74972 22.1265 7.04851 24.2272C9.3473 26.3278 12.3474 27.4947 15.4614 27.4995C15.7929 27.4995 16.1109 27.6312 16.3453 27.8656C16.5797 28.1 16.7114 28.418 16.7114 28.7495C16.7114 29.081 16.5797 29.399 16.3453 29.6334C16.1109 29.8678 15.7929 29.9995 15.4614 29.9995C7.46866 29.8525 1.90781 24.3407 0.51848 16.0595Z" fill="#000033"/>
</g>
<defs>
<clipPath id="clip0_5203_28810">
<rect width="40" height="40" fill="white" transform="translate(0.5)"/>
</clipPath>
</defs>
</svg>
