<svg width="41" height="40" viewBox="0 0 41 40" fill="none" xmlns="http://www.w3.org/2000/svg">
<g clip-path="url(#clip0_5203_28182)">
<rect width="40" height="40" transform="translate(0.5)" fill="white"/>
<path d="M33.9625 15.7223C33.7004 15.5206 33.369 15.4311 33.041 15.4733C32.713 15.5155 32.4151 15.6859 32.2125 15.9473L28.725 20.4098C27.8716 20.0364 26.9296 19.9133 26.0089 20.055C25.0882 20.1966 24.2267 20.5971 23.525 21.2098L18.925 17.9848C19.237 17.1789 19.3347 16.306 19.2088 15.4511C19.0829 14.5962 18.7376 13.7885 18.2065 13.1068C17.6754 12.4252 16.9768 11.8928 16.1786 11.5615C15.3805 11.2303 14.5102 11.1116 13.6525 11.217C12.7948 11.3224 11.9791 11.6482 11.2849 12.1628C10.5907 12.6773 10.0416 13.363 9.69137 14.153C9.34111 14.9429 9.20155 15.8102 9.28631 16.6701C9.37107 17.5301 9.67725 18.3534 10.175 19.0598L7.7375 21.7973C6.97682 21.4166 6.1316 21.2363 5.2818 21.2734C4.43199 21.3105 3.60571 21.5638 2.88111 22.0094C2.15651 22.4549 1.55755 23.0779 1.14088 23.8195C0.724224 24.561 0.50364 25.3967 0.5 26.2473C0.5 26.5788 0.631696 26.8967 0.866117 27.1311C1.10054 27.3656 1.41848 27.4973 1.75 27.4973C2.08152 27.4973 2.39946 27.3656 2.63388 27.1311C2.8683 26.8967 3 26.5788 3 26.2473C3 25.7528 3.14662 25.2695 3.42133 24.8583C3.69603 24.4472 4.08648 24.1268 4.54329 23.9376C5.00011 23.7483 5.50277 23.6988 5.98773 23.7953C6.47268 23.8918 6.91814 24.1299 7.26777 24.4795C7.6174 24.8291 7.8555 25.2746 7.95196 25.7595C8.04843 26.2445 7.99892 26.7472 7.8097 27.204C7.62048 27.6608 7.30005 28.0512 6.88893 28.3259C6.4778 28.6006 5.99445 28.7473 5.5 28.7473C5.16848 28.7473 4.85054 28.879 4.61612 29.1134C4.3817 29.3478 4.25 29.6657 4.25 29.9973C4.25 30.3288 4.3817 30.6467 4.61612 30.8811C4.85054 31.1156 5.16848 31.2473 5.5 31.2473C6.40823 31.2456 7.29886 30.9966 8.07626 30.5271C8.85366 30.0575 9.48847 29.385 9.91254 28.5818C10.3366 27.7787 10.5339 26.8752 10.4832 25.9684C10.4326 25.0616 10.1359 24.1857 9.625 23.4348L12.0125 20.6973C12.8875 21.1448 13.8773 21.3174 14.8521 21.1925C15.8269 21.0676 16.7411 20.6509 17.475 19.9973L22.075 23.2223C21.7582 24.0369 21.6605 24.9203 21.7916 25.7845C21.9226 26.6487 22.278 27.4634 22.8221 28.1474C23.3663 28.8314 24.0802 29.3608 24.8928 29.6828C25.7054 30.0049 26.5882 30.1083 27.4532 29.9827C28.3182 29.8572 29.1351 29.5071 29.8226 28.9673C30.5101 28.4276 31.0441 27.717 31.3713 26.9066C31.6986 26.0961 31.8076 25.214 31.6877 24.3482C31.5677 23.4824 31.2228 22.6632 30.6875 21.9723L34.25 17.4973C34.3505 17.3629 34.4229 17.2097 34.4629 17.0467C34.5029 16.8837 34.5097 16.7144 34.4829 16.5488C34.4561 16.3831 34.3962 16.2246 34.3068 16.0826C34.2174 15.9406 34.1003 15.818 33.9625 15.7223ZM14.25 18.7473C13.7555 18.7473 13.2722 18.6006 12.8611 18.3259C12.45 18.0512 12.1295 17.6608 11.9403 17.204C11.7511 16.7472 11.7016 16.2445 11.798 15.7595C11.8945 15.2746 12.1326 14.8291 12.4822 14.4795C12.8319 14.1299 13.2773 13.8918 13.7623 13.7953C14.2472 13.6988 14.7499 13.7483 15.2067 13.9376C15.6635 14.1268 16.054 14.4472 16.3287 14.8583C16.6034 15.2695 16.75 15.7528 16.75 16.2473C16.75 16.9103 16.4866 17.5462 16.0178 18.015C15.5489 18.4839 14.913 18.7473 14.25 18.7473ZM26.75 27.4973C26.2555 27.4973 25.7722 27.3506 25.3611 27.0759C24.95 26.8012 24.6295 26.4108 24.4403 25.954C24.2511 25.4972 24.2016 24.9945 24.298 24.5095C24.3945 24.0246 24.6326 23.5791 24.9822 23.2295C25.3319 22.8799 25.7773 22.6418 26.2623 22.5453C26.7472 22.4488 27.2499 22.4983 27.7067 22.6876C28.1635 22.8768 28.554 23.1972 28.8287 23.6083C29.1034 24.0195 29.25 24.5028 29.25 24.9973C29.25 25.6603 28.9866 26.2962 28.5178 26.765C28.0489 27.2339 27.413 27.4973 26.75 27.4973Z" fill="#000033"/>
<path d="M35.5 18.75C34.5111 18.75 33.5444 18.4568 32.7222 17.9074C31.8999 17.3579 31.259 16.5771 30.8806 15.6634C30.5022 14.7498 30.4031 13.7445 30.5961 12.7746C30.789 11.8046 31.2652 10.9137 31.9645 10.2145C32.6637 9.51521 33.5546 9.039 34.5246 8.84608C35.4945 8.65315 36.4998 8.75217 37.4134 9.1306C38.3271 9.50904 39.1079 10.1499 39.6574 10.9722C40.2068 11.7944 40.5 12.7611 40.5 13.75C40.5 15.0761 39.9732 16.3479 39.0355 17.2855C38.0979 18.2232 36.8261 18.75 35.5 18.75ZM35.5 11.25C35.0055 11.25 34.5222 11.3966 34.1111 11.6713C33.7 11.946 33.3795 12.3365 33.1903 12.7933C33.0011 13.2501 32.9516 13.7528 33.048 14.2377C33.1445 14.7227 33.3826 15.1681 33.7322 15.5178C34.0819 15.8674 34.5273 16.1055 35.0123 16.202C35.4972 16.2984 35.9999 16.2489 36.4567 16.0597C36.9135 15.8705 37.304 15.5501 37.5787 15.1389C37.8534 14.7278 38 14.2445 38 13.75C38 13.087 37.7366 12.4511 37.2678 11.9822C36.7989 11.5134 36.163 11.25 35.5 11.25Z" fill="#05058C"/>
</g>
<defs>
<clipPath id="clip0_5203_28182">
<rect width="40" height="40" fill="white" transform="translate(0.5)"/>
</clipPath>
</defs>
</svg>
