<svg width="40" height="40" viewBox="0 0 40 40" fill="none" xmlns="http://www.w3.org/2000/svg">
<g clip-path="url(#clip0_5203_28542)">
<rect width="40" height="40" fill="white"/>
<path d="M38.75 12.5C39.0815 12.5 39.3995 12.3683 39.6339 12.1339C39.8683 11.8995 40 11.5815 40 11.25V3.75C40 2.75544 39.6049 1.80161 38.9016 1.09835C38.1984 0.395088 37.2446 0 36.25 0L3.75 0C2.75544 0 1.80161 0.395088 1.09835 1.09835C0.395088 1.80161 0 2.75544 0 3.75L0 36.25C0 37.2446 0.395088 38.1984 1.09835 38.9016C1.80161 39.6049 2.75544 40 3.75 40H36.25C37.2446 40 38.1984 39.6049 38.9016 38.9016C39.6049 38.1984 40 37.2446 40 36.25V16.25C40 15.9185 39.8683 15.6005 39.6339 15.3661C39.3995 15.1317 39.0815 15 38.75 15C38.4185 15 38.1005 15.1317 37.8661 15.3661C37.6317 15.6005 37.5 15.9185 37.5 16.25V36.25C37.5 36.5815 37.3683 36.8995 37.1339 37.1339C36.8995 37.3683 36.5815 37.5 36.25 37.5H3.75C3.41848 37.5 3.10054 37.3683 2.86612 37.1339C2.6317 36.8995 2.5 36.5815 2.5 36.25V12.5H38.75ZM2.5 3.75C2.5 3.41848 2.6317 3.10054 2.86612 2.86612C3.10054 2.6317 3.41848 2.5 3.75 2.5H36.25C36.5815 2.5 36.8995 2.6317 37.1339 2.86612C37.3683 3.10054 37.5 3.41848 37.5 3.75V10H2.5V3.75Z" fill="#000033"/>
<path d="M33.75 5C33.5028 5 33.2611 5.07331 33.0555 5.21066C32.85 5.34801 32.6898 5.54324 32.5952 5.77165C32.5005 6.00005 32.4758 6.25139 32.524 6.49386C32.5723 6.73634 32.6913 6.95907 32.8661 7.13388C33.0409 7.3087 33.2637 7.42775 33.5061 7.47598C33.7486 7.52421 33.9999 7.49946 34.2284 7.40485C34.4568 7.31024 34.652 7.15002 34.7893 6.94446C34.9267 6.7389 35 6.49723 35 6.25C35 5.91848 34.8683 5.60054 34.6339 5.36612C34.3995 5.1317 34.0815 5 33.75 5Z" fill="#05058C"/>
<path d="M28.75 5C28.5028 5 28.2611 5.07331 28.0555 5.21066C27.85 5.34801 27.6898 5.54324 27.5952 5.77165C27.5005 6.00005 27.4758 6.25139 27.524 6.49386C27.5723 6.73634 27.6913 6.95907 27.8661 7.13388C28.0409 7.3087 28.2637 7.42775 28.5061 7.47598C28.7486 7.52421 28.9999 7.49946 29.2284 7.40485C29.4568 7.31024 29.652 7.15002 29.7893 6.94446C29.9267 6.7389 30 6.49723 30 6.25C30 5.91848 29.8683 5.60054 29.6339 5.36612C29.3995 5.1317 29.0815 5 28.75 5Z" fill="#000033"/>
<path d="M23.75 5C23.5028 5 23.2611 5.07331 23.0555 5.21066C22.85 5.34801 22.6898 5.54324 22.5952 5.77165C22.5005 6.00005 22.4758 6.25139 22.524 6.49386C22.5723 6.73634 22.6913 6.95907 22.8661 7.13388C23.0409 7.3087 23.2637 7.42775 23.5061 7.47598C23.7486 7.52421 23.9999 7.49946 24.2284 7.40485C24.4568 7.31024 24.652 7.15002 24.7893 6.94446C24.9267 6.7389 25 6.49723 25 6.25C25 5.91848 24.8683 5.60054 24.6339 5.36612C24.3995 5.1317 24.0815 5 23.75 5Z" fill="#000033"/>
<path d="M22.4981 35H17.4981C17.1666 35 16.8486 34.8683 16.6142 34.6339C16.3798 34.3995 16.2481 34.0815 16.2481 33.75C16.2653 33.5229 16.2202 33.2953 16.1175 33.092C16.0148 32.8886 15.8585 32.7172 15.6654 32.5963C15.4724 32.4753 15.25 32.4094 15.0222 32.4056C14.7945 32.4019 14.57 32.4604 14.3731 32.575C14.0787 32.747 13.7297 32.8002 13.3975 32.7235C13.0652 32.6468 12.7748 32.4461 12.5856 32.1625L10.0856 27.8375C10.0024 27.6956 9.94809 27.5386 9.9257 27.3757C9.90331 27.2127 9.9133 27.0469 9.95511 26.8878C9.99691 26.7287 10.0697 26.5795 10.1693 26.4486C10.2689 26.3177 10.3934 26.2077 10.5356 26.125C10.7416 26.0272 10.917 25.8749 11.0426 25.6845C11.1683 25.4942 11.2395 25.2731 11.2485 25.0452C11.2575 24.8173 11.204 24.5913 11.0937 24.3916C10.9835 24.192 10.8207 24.0263 10.6231 23.9125C10.3255 23.746 10.1036 23.4712 10.0035 23.1453C9.90341 22.8193 9.9328 22.4673 10.0856 22.1625L12.5856 17.8375C12.6673 17.6943 12.7764 17.5686 12.9069 17.4677C13.0373 17.3669 13.1864 17.2928 13.3456 17.2498C13.5048 17.2069 13.6709 17.1958 13.8343 17.2173C13.9978 17.2387 14.1554 17.2924 14.2981 17.375C14.4862 17.5022 14.7055 17.5757 14.9322 17.5876C15.159 17.5996 15.3847 17.5496 15.5852 17.4429C15.7857 17.3362 15.9533 17.177 16.0701 16.9822C16.1869 16.7875 16.2484 16.5646 16.2481 16.3375C16.2474 15.9974 16.3762 15.6698 16.6084 15.4214C16.8406 15.1729 17.1587 15.0222 17.4981 15H22.4981C22.8296 15 23.1476 15.1317 23.382 15.3661C23.6164 15.6005 23.7481 15.9185 23.7481 16.25C23.731 16.4848 23.7806 16.7197 23.8912 16.9276C24.0018 17.1355 24.1688 17.3079 24.3731 17.425C25.3606 17.9875 25.6231 17.0375 26.6106 17.275C26.7749 17.3102 26.9304 17.3781 27.0679 17.4748C27.2053 17.5714 27.3219 17.6948 27.4106 17.8375L29.9106 22.1625C29.9965 22.3113 30.0508 22.4761 30.0702 22.6468C30.0895 22.8175 30.0734 22.9904 30.023 23.1546C29.9726 23.3188 29.8888 23.4708 29.777 23.6012C29.6652 23.7316 29.5277 23.8376 29.3731 23.9125C29.1807 24.0215 29.0207 24.1796 28.9094 24.3707C28.7981 24.5617 28.7394 24.7789 28.7394 25C28.7394 25.2211 28.7981 25.4383 28.9094 25.6293C29.0207 25.8204 29.1807 25.9785 29.3731 26.0875C29.6684 26.2562 29.8883 26.531 29.9882 26.8561C30.088 27.1812 30.0603 27.5321 29.9106 27.8375L27.4106 32.1625C27.2457 32.4484 26.9744 32.6575 26.6559 32.7442C26.3374 32.8308 25.9976 32.788 25.7106 32.625C25.5224 32.4944 25.3018 32.418 25.0731 32.4043C24.8445 32.3905 24.6164 32.4399 24.4138 32.5469C24.2113 32.654 24.0421 32.8147 23.9247 33.0114C23.8073 33.2082 23.7462 33.4334 23.7481 33.6625C23.7488 34.0026 23.62 34.3302 23.3878 34.5786C23.1556 34.8271 22.8374 34.9778 22.4981 35ZM18.5731 32.5H21.4356C21.7236 31.6222 22.3256 30.8815 23.1261 30.4202C23.9265 29.9588 24.8691 29.8092 25.7731 30L27.2106 27.5C26.5956 26.8125 26.2557 25.9224 26.2557 25C26.2557 24.0776 26.5956 23.1875 27.2106 22.5L25.7731 20C24.8673 20.1942 23.9216 20.0462 23.1184 19.5846C22.3152 19.123 21.7113 18.3804 21.4231 17.5H18.5606C18.2725 18.3778 17.6706 19.1185 16.8701 19.5798C16.0697 20.0412 15.1271 20.1908 14.2231 20L12.7856 22.5C13.4005 23.1875 13.7405 24.0776 13.7405 25C13.7405 25.9224 13.4005 26.8125 12.7856 27.5L14.2231 30C15.1289 29.8058 16.0746 29.9538 16.8778 30.4154C17.681 30.877 18.2849 31.6196 18.5731 32.5Z" fill="#05058C"/>
<path d="M20 28.75C19.2583 28.75 18.5333 28.5301 17.9166 28.118C17.2999 27.706 16.8193 27.1203 16.5355 26.4351C16.2516 25.7498 16.1774 24.9958 16.3221 24.2684C16.4668 23.541 16.8239 22.8728 17.3484 22.3484C17.8728 21.8239 18.541 21.4668 19.2684 21.3221C19.9958 21.1774 20.7498 21.2516 21.4351 21.5355C22.1203 21.8193 22.706 22.2999 23.118 22.9166C23.5301 23.5333 23.75 24.2583 23.75 25C23.75 25.9946 23.3549 26.9484 22.6517 27.6517C21.9484 28.3549 20.9946 28.75 20 28.75ZM20 23.75C19.7528 23.75 19.5111 23.8233 19.3055 23.9607C19.1 24.098 18.9398 24.2932 18.8452 24.5216C18.7505 24.7501 18.7258 25.0014 18.774 25.2439C18.8223 25.4863 18.9413 25.7091 19.1161 25.8839C19.2909 26.0587 19.5137 26.1778 19.7561 26.226C19.9986 26.2742 20.2499 26.2495 20.4784 26.1549C20.7068 26.0602 20.902 25.9 21.0393 25.6945C21.1767 25.4889 21.25 25.2472 21.25 25C21.25 24.6685 21.1183 24.3505 20.8839 24.1161C20.6495 23.8817 20.3315 23.75 20 23.75Z" fill="#05058C"/>
</g>
<defs>
<clipPath id="clip0_5203_28542">
<rect width="40" height="40" fill="white"/>
</clipPath>
</defs>
</svg>
