<svg width="41" height="40" viewBox="0 0 41 40" fill="none" xmlns="http://www.w3.org/2000/svg">
<g clip-path="url(#clip0_5203_28193)">
<rect width="40" height="40" transform="translate(0.5)" fill="white"/>
<path d="M23 40H18C17.337 40 16.7011 39.7366 16.2322 39.2678C15.7634 38.7989 15.5 38.163 15.5 37.5V34.5125C15.5 34.181 15.6317 33.863 15.8661 33.6286C16.1005 33.3942 16.4185 33.2625 16.75 33.2625C17.0815 33.2625 17.3995 33.3942 17.6339 33.6286C17.8683 33.863 18 34.181 18 34.5125V37.5H23V35.4375C23.0029 34.9056 23.1754 34.3885 23.4924 33.9614C23.8093 33.5343 24.2543 33.2194 24.7625 33.0625C25.4436 32.8395 26.1078 32.568 26.75 32.25C27.2207 32.0023 27.7581 31.9111 28.2841 31.9898C28.8102 32.0685 29.2974 32.3129 29.675 32.6875L31.1375 34.1375L34.6625 30.6125L33.2125 29.15C32.8393 28.7772 32.5936 28.2959 32.5106 27.7751C32.4275 27.2542 32.5113 26.7204 32.75 26.25C33.0669 25.6159 33.3384 24.96 33.5625 24.2875C33.715 23.7746 34.028 23.3242 34.4555 23.0024C34.883 22.6807 35.4025 22.5046 35.9375 22.5H38V17.5H35.9375C35.4056 17.4971 34.8885 17.3246 34.4614 17.0076C34.0343 16.6907 33.7194 16.2457 33.5625 15.7375C33.3395 15.0564 33.068 14.3922 32.75 13.75C32.5023 13.2793 32.4111 12.7419 32.4898 12.2159C32.5685 11.6898 32.8129 11.2026 33.1875 10.825L34.6375 9.3625L31.1125 5.8625L29.65 7.3125C29.2743 7.68159 28.7917 7.92261 28.2709 8.00117C27.7501 8.07974 27.2179 7.99183 26.75 7.75C26.1159 7.43313 25.46 7.16162 24.7875 6.9375C24.2746 6.78503 23.8242 6.47203 23.5024 6.04452C23.1807 5.61701 23.0046 5.09754 23 4.5625V2.5H18V4.5625C17.9971 5.09438 17.8246 5.61146 17.5076 6.03858C17.1907 6.4657 16.7457 6.7806 16.2375 6.9375C15.5564 7.16051 14.8922 7.43204 14.25 7.75C13.7793 7.99771 13.2419 8.08885 12.7159 8.01017C12.1898 7.93149 11.7026 7.68709 11.325 7.3125L9.8875 5.8625L6.3625 9.3875L7.8125 10.85C8.18159 11.2257 8.42261 11.7083 8.50117 12.2291C8.57974 12.7499 8.49183 13.2821 8.25 13.75C7.93313 14.3841 7.66162 15.04 7.4375 15.7125C7.28503 16.2254 6.97203 16.6758 6.54452 16.9976C6.11701 17.3193 5.59754 17.4954 5.0625 17.5H3V22.5H5.0625C5.59438 22.5029 6.11146 22.6754 6.53858 22.9924C6.9657 23.3093 7.2806 23.7543 7.4375 24.2625C7.66051 24.9436 7.93204 25.6078 8.25 26.25C8.49771 26.7207 8.58885 27.2581 8.51017 27.7841C8.43149 28.3102 8.18709 28.7974 7.8125 29.175L6.3625 30.6125L9.8875 34.1375L10.8625 33.175C10.9787 33.0578 11.117 32.9648 11.2693 32.9014C11.4216 32.8379 11.585 32.8053 11.75 32.8053C11.915 32.8053 12.0784 32.8379 12.2307 32.9014C12.383 32.9648 12.5213 33.0578 12.6375 33.175C12.8703 33.4092 13.001 33.726 13.001 34.0563C13.001 34.3865 12.8703 34.7033 12.6375 34.9375L11.6625 35.9125C11.4303 36.1449 11.1546 36.3293 10.8511 36.4552C10.5476 36.581 10.2223 36.6457 9.89375 36.6457C9.56521 36.6457 9.23989 36.581 8.9364 36.4552C8.6329 36.3293 8.35718 36.1449 8.125 35.9125L4.5875 32.375C4.35506 32.1428 4.17066 31.8671 4.04485 31.5636C3.91904 31.2601 3.85428 30.9348 3.85428 30.6063C3.85428 30.2777 3.91904 29.9524 4.04485 29.6489C4.17066 29.3454 4.35506 29.0697 4.5875 28.8375L6.05 27.3875C5.65884 26.6187 5.32866 25.8205 5.0625 25H3C2.33696 25 1.70107 24.7366 1.23223 24.2678C0.763392 23.7989 0.5 23.163 0.5 22.5V17.5C0.5 16.837 0.763392 16.2011 1.23223 15.7322C1.70107 15.2634 2.33696 15 3 15H5.0625C5.3193 14.1919 5.64119 13.406 6.025 12.65L4.5875 11.1625C4.35506 10.9303 4.17066 10.6546 4.04485 10.3511C3.91904 10.0476 3.85428 9.72229 3.85428 9.39375C3.85428 9.06521 3.91904 8.73989 4.04485 8.4364C4.17066 8.1329 4.35506 7.85718 4.5875 7.625L8.125 4.0875C8.35718 3.85506 8.6329 3.67066 8.9364 3.54485C9.23989 3.41904 9.56521 3.35428 9.89375 3.35428C10.2223 3.35428 10.5476 3.41904 10.8511 3.54485C11.1546 3.67066 11.4303 3.85506 11.6625 4.0875L13.1125 5.55C13.8813 5.15884 14.6795 4.82866 15.5 4.5625V2.5C15.5 1.83696 15.7634 1.20107 16.2322 0.732233C16.7011 0.263392 17.337 0 18 0L23 0C23.663 0 24.2989 0.263392 24.7678 0.732233C25.2366 1.20107 25.5 1.83696 25.5 2.5V4.5625C26.3081 4.8193 27.094 5.14119 27.85 5.525L29.3375 4.0875C29.5697 3.85506 29.8454 3.67066 30.1489 3.54485C30.4524 3.41904 30.7777 3.35428 31.1063 3.35428C31.4348 3.35428 31.7601 3.41904 32.0636 3.54485C32.3671 3.67066 32.6428 3.85506 32.875 4.0875L36.4125 7.625C36.6449 7.85718 36.8293 8.1329 36.9552 8.4364C37.081 8.73989 37.1457 9.06521 37.1457 9.39375C37.1457 9.72229 37.081 10.0476 36.9552 10.3511C36.8293 10.6546 36.6449 10.9303 36.4125 11.1625L34.95 12.6125C35.3412 13.3813 35.6713 14.1795 35.9375 15H38C38.663 15 39.2989 15.2634 39.7678 15.7322C40.2366 16.2011 40.5 16.837 40.5 17.5V22.5C40.5 23.163 40.2366 23.7989 39.7678 24.2678C39.2989 24.7366 38.663 25 38 25H35.9375C35.6807 25.8081 35.3588 26.594 34.975 27.35L36.4125 28.8375C36.6449 29.0697 36.8293 29.3454 36.9552 29.6489C37.081 29.9524 37.1457 30.2777 37.1457 30.6063C37.1457 30.9348 37.081 31.2601 36.9552 31.5636C36.8293 31.8671 36.6449 32.1428 36.4125 32.375L32.875 35.9125C32.6428 36.1449 32.3671 36.3293 32.0636 36.4552C31.7601 36.581 31.4348 36.6457 31.1063 36.6457C30.7777 36.6457 30.4524 36.581 30.1489 36.4552C29.8454 36.3293 29.5697 36.1449 29.3375 35.9125L27.8875 34.45C27.1308 34.8394 26.3452 35.1695 25.5375 35.4375L25.5 37.5C25.5 38.163 25.2366 38.7989 24.7678 39.2678C24.2989 39.7366 23.663 40 23 40Z" fill="#000033"/>
<path d="M20.5 30C18.5222 30 16.5888 29.4135 14.9443 28.3147C13.2998 27.2159 12.0181 25.6541 11.2612 23.8268C10.5043 21.9996 10.3063 19.9889 10.6922 18.0491C11.078 16.1093 12.0304 14.3275 13.4289 12.9289C14.8275 11.5304 16.6093 10.578 18.5491 10.1922C20.4889 9.8063 22.4996 10.0043 24.3268 10.7612C26.1541 11.5181 27.7159 12.7998 28.8147 14.4443C29.9135 16.0888 30.5 18.0222 30.5 20C30.5 22.6522 29.4464 25.1957 27.5711 27.0711C25.6957 28.9464 23.1522 30 20.5 30ZM20.5 12.5C19.0166 12.5 17.5666 12.9399 16.3332 13.764C15.0999 14.5881 14.1386 15.7594 13.5709 17.1299C13.0033 18.5003 12.8547 20.0083 13.1441 21.4632C13.4335 22.918 14.1478 24.2544 15.1967 25.3033C16.2456 26.3522 17.582 27.0665 19.0368 27.3559C20.4917 27.6453 21.9997 27.4968 23.3701 26.9291C24.7406 26.3614 25.9119 25.4002 26.736 24.1668C27.5601 22.9334 28 21.4834 28 20C28 18.0109 27.2098 16.1032 25.8033 14.6967C24.3968 13.2902 22.4891 12.5 20.5 12.5Z" fill="#05058C"/>
</g>
<defs>
<clipPath id="clip0_5203_28193">
<rect width="40" height="40" fill="white" transform="translate(0.5)"/>
</clipPath>
</defs>
</svg>
