<svg width="41" height="40" viewBox="0 0 41 40" fill="none" xmlns="http://www.w3.org/2000/svg">
<g clip-path="url(#clip0_5203_28201)">
<rect width="40" height="40" transform="translate(0.5)" fill="white"/>
<path d="M36.75 0H31.75C31.4185 0 31.1005 0.131696 30.8661 0.366116C30.6317 0.600537 30.5 0.918479 30.5 1.25C30.5 1.58152 30.6317 1.89946 30.8661 2.13388C31.1005 2.3683 31.4185 2.5 31.75 2.5H33.65L31.6375 4.35C24.1642 11.2046 14.3908 15.0051 4.25 15C3.91848 15 3.60054 15.1317 3.36612 15.3661C3.1317 15.6005 3 15.9185 3 16.25C3 16.5815 3.1317 16.8995 3.36612 17.1339C3.60054 17.3683 3.91848 17.5 4.25 17.5C15.0093 17.5275 25.3864 13.5123 33.325 6.25L35.5 4.2V6.25C35.5 6.58152 35.6317 6.89946 35.8661 7.13388C36.1005 7.3683 36.4185 7.5 36.75 7.5C37.0815 7.5 37.3995 7.3683 37.6339 7.13388C37.8683 6.89946 38 6.58152 38 6.25V1.25C38 0.918479 37.8683 0.600537 37.6339 0.366116C37.3995 0.131696 37.0815 0 36.75 0V0Z" fill="#05058C"/>
<path d="M9.25 22.5H6.75C5.75544 22.5 4.80161 22.8951 4.09835 23.5983C3.39509 24.3016 3 25.2554 3 26.25V36.25C3 37.2446 3.39509 38.1984 4.09835 38.9017C4.80161 39.6049 5.75544 40 6.75 40H9.25C10.2446 40 11.1984 39.6049 11.9017 38.9017C12.6049 38.1984 13 37.2446 13 36.25V26.25C13 25.2554 12.6049 24.3016 11.9017 23.5983C11.1984 22.8951 10.2446 22.5 9.25 22.5ZM6.75 25H9.25C9.58152 25 9.89946 25.1317 10.1339 25.3661C10.3683 25.6005 10.5 25.9185 10.5 26.25V28.75H5.5V26.25C5.5 25.9185 5.6317 25.6005 5.86612 25.3661C6.10054 25.1317 6.41848 25 6.75 25ZM9.25 37.5H6.75C6.41848 37.5 6.10054 37.3683 5.86612 37.1339C5.6317 36.8995 5.5 36.5815 5.5 36.25V31.25H10.5V36.25C10.5 36.5815 10.3683 36.8995 10.1339 37.1339C9.89946 37.3683 9.58152 37.5 9.25 37.5Z" fill="#05058C"/>
<path d="M21.75 17.5H19.25C18.2554 17.5 17.3016 17.8951 16.5983 18.5983C15.8951 19.3016 15.5 20.2554 15.5 21.25V36.25C15.5 37.2446 15.8951 38.1984 16.5983 38.9017C17.3016 39.6049 18.2554 40 19.25 40H21.75C22.7446 40 23.6984 39.6049 24.4017 38.9017C25.1049 38.1984 25.5 37.2446 25.5 36.25V21.25C25.5 20.2554 25.1049 19.3016 24.4017 18.5983C23.6984 17.8951 22.7446 17.5 21.75 17.5ZM19.25 20H21.75C22.0815 20 22.3995 20.1317 22.6339 20.3661C22.8683 20.6005 23 20.9185 23 21.25V23.75H18V21.25C18 20.9185 18.1317 20.6005 18.3661 20.3661C18.6005 20.1317 18.9185 20 19.25 20ZM21.75 37.5H19.25C18.9185 37.5 18.6005 37.3683 18.3661 37.1339C18.1317 36.8995 18 36.5815 18 36.25V26.25H23V36.25C23 36.5815 22.8683 36.8995 22.6339 37.1339C22.3995 37.3683 22.0815 37.5 21.75 37.5Z" fill="#000033"/>
<path d="M34.25 12.5H31.75C30.7554 12.5 29.8016 12.8951 29.0983 13.5983C28.3951 14.3016 28 15.2554 28 16.25V36.25C28 37.2446 28.3951 38.1984 29.0983 38.9017C29.8016 39.6049 30.7554 40 31.75 40H34.25C35.2446 40 36.1984 39.6049 36.9017 38.9017C37.6049 38.1984 38 37.2446 38 36.25V28.75C38 28.4185 37.8683 28.1005 37.6339 27.8661C37.3995 27.6317 37.0815 27.5 36.75 27.5C36.4185 27.5 36.1005 27.6317 35.8661 27.8661C35.6317 28.1005 35.5 28.4185 35.5 28.75V36.25C35.5 36.5815 35.3683 36.8995 35.1339 37.1339C34.8995 37.3683 34.5815 37.5 34.25 37.5H31.75C31.4185 37.5 31.1005 37.3683 30.8661 37.1339C30.6317 36.8995 30.5 36.5815 30.5 36.25V21.25H35.5V23.75C35.5 24.0815 35.6317 24.3995 35.8661 24.6339C36.1005 24.8683 36.4185 25 36.75 25C37.0815 25 37.3995 24.8683 37.6339 24.6339C37.8683 24.3995 38 24.0815 38 23.75V16.25C38 15.2554 37.6049 14.3016 36.9017 13.5983C36.1984 12.8951 35.2446 12.5 34.25 12.5ZM30.5 18.75V16.25C30.5 15.9185 30.6317 15.6005 30.8661 15.3661C31.1005 15.1317 31.4185 15 31.75 15H34.25C34.5815 15 34.8995 15.1317 35.1339 15.3661C35.3683 15.6005 35.5 15.9185 35.5 16.25V18.75H30.5Z" fill="#000033"/>
</g>
<defs>
<clipPath id="clip0_5203_28201">
<rect width="40" height="40" fill="white" transform="translate(0.5)"/>
</clipPath>
</defs>
</svg>
