<svg width="40" height="40" viewBox="0 0 40 40" fill="none" xmlns="http://www.w3.org/2000/svg">
<rect width="40" height="40" fill="white"/>
<path d="M35 27.5C35.3315 27.5 35.6495 27.3683 35.8839 27.1339C36.1183 26.8995 36.25 26.5815 36.25 26.25V3.75C36.25 2.75544 35.8549 1.80161 35.1517 1.09835C34.4484 0.395088 33.4946 0 32.5 0L7.5 0C6.50544 0 5.55161 0.395088 4.84835 1.09835C4.14509 1.80161 3.75 2.75544 3.75 3.75V36.25C3.75 37.2446 4.14509 38.1984 4.84835 38.9016C5.55161 39.6049 6.50544 40 7.5 40H32.5C33.4946 40 34.4484 39.6049 35.1517 38.9016C35.8549 38.1984 36.25 37.2446 36.25 36.25V31.25C36.25 30.9185 36.1183 30.6005 35.8839 30.3661C35.6495 30.1317 35.3315 30 35 30C34.6685 30 34.3505 30.1317 34.1161 30.3661C33.8817 30.6005 33.75 30.9185 33.75 31.25V36.25C33.75 36.5815 33.6183 36.8995 33.3839 37.1339C33.1495 37.3683 32.8315 37.5 32.5 37.5H7.5C7.16848 37.5 6.85054 37.3683 6.61612 37.1339C6.3817 36.8995 6.25 36.5815 6.25 36.25V3.75C6.25 3.41848 6.3817 3.10054 6.61612 2.86612C6.85054 2.6317 7.16848 2.5 7.5 2.5H32.5C32.8315 2.5 33.1495 2.6317 33.3839 2.86612C33.6183 3.10054 33.75 3.41848 33.75 3.75V26.25C33.75 26.5815 33.8817 26.8995 34.1161 27.1339C34.3505 27.3683 34.6685 27.5 35 27.5Z" fill="#000033"/>
<path d="M10 5C9.66848 5 9.35054 5.1317 9.11612 5.36612C8.8817 5.60054 8.75 5.91848 8.75 6.25C8.75 6.58152 8.8817 6.89946 9.11612 7.13388C9.35054 7.3683 9.66848 7.5 10 7.5H15C15.3315 7.5 15.6495 7.3683 15.8839 7.13388C16.1183 6.89946 16.25 6.58152 16.25 6.25C16.25 5.91848 16.1183 5.60054 15.8839 5.36612C15.6495 5.1317 15.3315 5 15 5H10Z" fill="#05058C"/>
<path d="M20 5C19.6685 5 19.3505 5.1317 19.1161 5.36612C18.8817 5.60054 18.75 5.91848 18.75 6.25C18.75 6.58152 18.8817 6.89946 19.1161 7.13388C19.3505 7.3683 19.6685 7.5 20 7.5H30C30.3315 7.5 30.6495 7.3683 30.8839 7.13388C31.1183 6.89946 31.25 6.58152 31.25 6.25C31.25 5.91848 31.1183 5.60054 30.8839 5.36612C30.6495 5.1317 30.3315 5 30 5H20Z" fill="#000033"/>
<path d="M30 12.5H10C9.66848 12.5 9.35054 12.6317 9.11612 12.8661C8.8817 13.1005 8.75 13.4185 8.75 13.75V33.75C8.75 34.0815 8.8817 34.3995 9.11612 34.6339C9.35054 34.8683 9.66848 35 10 35H30C30.3315 35 30.6495 34.8683 30.8839 34.6339C31.1183 34.3995 31.25 34.0815 31.25 33.75V13.75C31.25 13.4185 31.1183 13.1005 30.8839 12.8661C30.6495 12.6317 30.3315 12.5 30 12.5ZM16.25 22.5H11.25V20H16.25V22.5ZM18.75 20H28.75V22.5H18.75V20ZM11.25 25H16.25V27.5H11.25V25ZM18.75 25H28.75V27.5H18.75V25ZM28.75 17.5H18.75V15H28.75V17.5ZM16.25 15V17.5H11.25V15H16.25ZM11.25 30H16.25V32.5H11.25V30ZM18.75 32.5V30H28.75V32.5H18.75Z" fill="#05058C"/>
</svg>
