<svg width="40" height="40" viewBox="0 0 40 40" fill="none" xmlns="http://www.w3.org/2000/svg">
<g clip-path="url(#clip0_5203_27502)">
<rect width="40" height="40" fill="white"/>
<path d="M36.25 32.5H31.25C30.9185 32.5 30.6005 32.3683 30.3661 32.1339C30.1317 31.8995 30 31.5815 30 31.25C30 30.9185 30.1317 30.6005 30.3661 30.3661C30.6005 30.1317 30.9185 30 31.25 30H36.25C36.5815 30 36.8995 29.8683 37.1339 29.6339C37.3683 29.3995 37.5 29.0815 37.5 28.75V3.75C37.5 3.41848 37.3683 3.10054 37.1339 2.86612C36.8995 2.6317 36.5815 2.5 36.25 2.5H11.25C10.9185 2.5 10.6005 2.6317 10.3661 2.86612C10.1317 3.10054 10 3.41848 10 3.75V8.75C10 9.08152 9.8683 9.39946 9.63388 9.63388C9.39946 9.8683 9.08152 10 8.75 10C8.41848 10 8.10054 9.8683 7.86612 9.63388C7.6317 9.39946 7.5 9.08152 7.5 8.75V3.75C7.5 2.75544 7.89509 1.80161 8.59835 1.09835C9.30161 0.395088 10.2554 0 11.25 0L36.25 0C37.2446 0 38.1984 0.395088 38.9017 1.09835C39.6049 1.80161 40 2.75544 40 3.75V28.75C40 29.7446 39.6049 30.6984 38.9017 31.4017C38.1984 32.1049 37.2446 32.5 36.25 32.5Z" fill="#000033"/>
<path d="M28.75 7.5H3.75C2.75544 7.5 1.80161 7.89509 1.09835 8.59835C0.395088 9.30161 0 10.2554 0 11.25L0 16.25C0 16.5815 0.131696 16.8995 0.366117 17.1339C0.600537 17.3683 0.918479 17.5 1.25 17.5H30V36.25C30 36.5815 29.8683 36.8995 29.6339 37.1339C29.3995 37.3683 29.0815 37.5 28.75 37.5H3.75C3.41848 37.5 3.10054 37.3683 2.86612 37.1339C2.6317 36.8995 2.5 36.5815 2.5 36.25V21.25C2.5 20.9185 2.3683 20.6005 2.13388 20.3661C1.89946 20.1317 1.58152 20 1.25 20C0.918479 20 0.600537 20.1317 0.366117 20.3661C0.131696 20.6005 0 20.9185 0 21.25L0 36.25C0 37.2446 0.395088 38.1984 1.09835 38.9017C1.80161 39.6049 2.75544 40 3.75 40H28.75C29.7446 40 30.6984 39.6049 31.4017 38.9017C32.1049 38.1984 32.5 37.2446 32.5 36.25V11.25C32.5 10.2554 32.1049 9.30161 31.4017 8.59835C30.6984 7.89509 29.7446 7.5 28.75 7.5ZM2.5 15V11.25C2.5 10.9185 2.6317 10.6005 2.86612 10.3661C3.10054 10.1317 3.41848 10 3.75 10H28.75C29.0815 10 29.3995 10.1317 29.6339 10.3661C29.8683 10.6005 30 10.9185 30 11.25V15H2.5Z" fill="#05058C"/>
<path d="M6.25 11.25C6.00277 11.25 5.7611 11.3233 5.55554 11.4607C5.34998 11.598 5.18976 11.7932 5.09515 12.0216C5.00054 12.2501 4.97579 12.5014 5.02402 12.7439C5.07225 12.9863 5.1913 13.2091 5.36612 13.3839C5.54093 13.5587 5.76366 13.6777 6.00614 13.726C6.24861 13.7742 6.49995 13.7495 6.72836 13.6548C6.95676 13.5602 7.15199 13.4 7.28934 13.1945C7.42669 12.9889 7.5 12.7472 7.5 12.5C7.5 12.1685 7.3683 11.8505 7.13388 11.6161C6.89946 11.3817 6.58152 11.25 6.25 11.25Z" fill="#000033"/>
<path d="M11.25 11.25C11.0028 11.25 10.7611 11.3233 10.5555 11.4607C10.35 11.598 10.1898 11.7932 10.0952 12.0216C10.0005 12.2501 9.97579 12.5014 10.024 12.7439C10.0723 12.9863 10.1913 13.2091 10.3661 13.3839C10.5409 13.5587 10.7637 13.6777 11.0061 13.726C11.2486 13.7742 11.4999 13.7495 11.7284 13.6548C11.9568 13.5602 12.152 13.4 12.2893 13.1945C12.4267 12.9889 12.5 12.7472 12.5 12.5C12.5 12.1685 12.3683 11.8505 12.1339 11.6161C11.8995 11.3817 11.5815 11.25 11.25 11.25Z" fill="#000033"/>
<path d="M16.25 11.25C16.0028 11.25 15.7611 11.3233 15.5555 11.4607C15.35 11.598 15.1898 11.7932 15.0952 12.0216C15.0005 12.2501 14.9758 12.5014 15.024 12.7439C15.0723 12.9863 15.1913 13.2091 15.3661 13.3839C15.5409 13.5587 15.7637 13.6777 16.0061 13.726C16.2486 13.7742 16.4999 13.7495 16.7284 13.6548C16.9568 13.5602 17.152 13.4 17.2893 13.1945C17.4267 12.9889 17.5 12.7472 17.5 12.5C17.5 12.1685 17.3683 11.8505 17.1339 11.6161C16.8995 11.3817 16.5815 11.25 16.25 11.25Z" fill="#000033"/>
</g>
<defs>
<clipPath id="clip0_5203_27502">
<rect width="40" height="40" fill="white"/>
</clipPath>
</defs>
</svg>
