<svg width="41" height="40" viewBox="0 0 41 40" fill="none" xmlns="http://www.w3.org/2000/svg">
<g clip-path="url(#clip0_5203_28185)">
<rect width="40" height="40" transform="translate(0.5)" fill="white"/>
<path d="M9.24946 38.7473C9.00118 38.7487 8.75809 38.6762 8.55119 38.539C8.34429 38.4017 8.18295 38.206 8.08774 37.9767C7.99254 37.7474 7.96777 37.4949 8.01661 37.2515C8.06544 37.008 8.18567 36.7846 8.36196 36.6098L9.98696 34.9973L8.36196 33.3848C8.12658 33.1494 7.99434 32.8302 7.99434 32.4973C7.99434 32.1644 8.12658 31.8452 8.36196 31.6098C8.59734 31.3744 8.91658 31.2422 9.24946 31.2422C9.58233 31.2422 9.90158 31.3744 10.137 31.6098L12.637 34.1098C12.7541 34.226 12.8471 34.3643 12.9106 34.5166C12.974 34.6689 13.0067 34.8323 13.0067 34.9973C13.0067 35.1623 12.974 35.3257 12.9106 35.478C12.8471 35.6303 12.7541 35.7686 12.637 35.8848C9.91196 38.6098 9.92446 38.7473 9.24946 38.7473Z" fill="#000033"/>
<path d="M14.25 10H19.25V16.25C19.25 16.5815 19.3817 16.8995 19.6161 17.1339C19.8505 17.3683 20.1685 17.5 20.5 17.5C20.8315 17.5 21.1495 17.3683 21.3839 17.1339C21.6183 16.8995 21.75 16.5815 21.75 16.25V10H26.75C27.0815 10 27.3995 9.8683 27.6339 9.63388C27.8683 9.39946 28 9.08152 28 8.75V1.25C28 0.918479 27.8683 0.600537 27.6339 0.366117C27.3995 0.131696 27.0815 0 26.75 0L23 0C22.6685 0 22.3505 0.131696 22.1161 0.366117C21.8817 0.600537 21.75 0.918479 21.75 1.25C21.75 1.58152 21.8817 1.89946 22.1161 2.13388C22.3505 2.3683 22.6685 2.5 23 2.5H25.5V7.5H15.5V2.5H18C18.3315 2.5 18.6495 2.3683 18.8839 2.13388C19.1183 1.89946 19.25 1.58152 19.25 1.25C19.25 0.918479 19.1183 0.600537 18.8839 0.366117C18.6495 0.131696 18.3315 0 18 0L14.25 0C13.9185 0 13.6005 0.131696 13.3661 0.366117C13.1317 0.600537 13 0.918479 13 1.25V8.75C13 9.08152 13.1317 9.39946 13.3661 9.63388C13.6005 9.8683 13.9185 10 14.25 10Z" fill="#05058C"/>
<path d="M21.7481 29.6V23.75C21.7481 23.4185 21.6165 23.1005 21.382 22.8661C21.1476 22.6317 20.8297 22.5 20.4981 22.5C20.1666 22.5 19.8487 22.6317 19.6143 22.8661C19.3798 23.1005 19.2481 23.4185 19.2481 23.75V29.6L13.2356 38.025C13.1028 38.2116 13.0238 38.431 13.0072 38.6595C12.9906 38.8879 13.0371 39.1165 13.1416 39.3203C13.246 39.5241 13.4045 39.6952 13.5997 39.8151C13.7948 39.935 14.0191 39.9989 14.2481 40H26.7481C26.9772 39.9989 27.2015 39.935 27.3966 39.8151C27.5918 39.6952 27.7503 39.5241 27.8547 39.3203C27.9592 39.1165 28.0057 38.8879 27.9891 38.6595C27.9725 38.431 27.8935 38.2116 27.7606 38.025L21.7481 29.6ZM16.6731 37.5L20.4981 32.15L24.3231 37.5H16.6731Z" fill="#000033"/>
<path d="M11.75 33.75H5.5C5.16848 33.75 4.85054 33.6183 4.61612 33.3839C4.3817 33.1495 4.25 32.8315 4.25 32.5V7.5C4.25 7.16848 4.3817 6.85054 4.61612 6.61612C4.85054 6.3817 5.16848 6.25 5.5 6.25H10.5C10.8315 6.25 11.1495 6.1183 11.3839 5.88388C11.6183 5.64946 11.75 5.33152 11.75 5C11.75 4.66848 11.6183 4.35054 11.3839 4.11612C11.1495 3.8817 10.8315 3.75 10.5 3.75H5.5C4.50544 3.75 3.55161 4.14509 2.84835 4.84835C2.14509 5.55161 1.75 6.50544 1.75 7.5V32.5C1.75 33.4946 2.14509 34.4484 2.84835 35.1517C3.55161 35.8549 4.50544 36.25 5.5 36.25H11.75C12.0815 36.25 12.3995 36.1183 12.6339 35.8839C12.8683 35.6495 13 35.3315 13 35C13 34.6685 12.8683 34.3505 12.6339 34.1161C12.3995 33.8817 12.0815 33.75 11.75 33.75Z" fill="#000033"/>
<path d="M35.5 3.7473H33.5125L33.8875 3.3848C34.1229 3.14942 34.2551 2.83018 34.2551 2.4973C34.2551 2.16442 34.1229 1.84518 33.8875 1.6098C33.6521 1.37442 33.3329 1.24219 33 1.24219C32.6671 1.24219 32.3479 1.37442 32.1125 1.6098C29.5125 4.2223 29.4875 4.1848 29.35 4.5223C29.2543 4.74994 29.2281 5.00083 29.2748 5.24332C29.3216 5.48581 29.4391 5.70902 29.6125 5.8848C32.3375 8.6098 32.325 8.7473 33 8.7473C33.2483 8.74875 33.4914 8.67622 33.6983 8.53897C33.9052 8.40172 34.0665 8.20596 34.1617 7.97665C34.2569 7.74735 34.2817 7.49489 34.2329 7.25145C34.184 7.00802 34.0638 6.78464 33.8875 6.6098L33.5125 6.2473H35.5C35.8315 6.2473 36.1495 6.379 36.3839 6.61342C36.6183 6.84784 36.75 7.16578 36.75 7.4973V32.4973C36.75 32.8288 36.6183 33.1468 36.3839 33.3812C36.1495 33.6156 35.8315 33.7473 35.5 33.7473H29.25C28.9185 33.7473 28.6005 33.879 28.3661 34.1134C28.1317 34.3478 28 34.6658 28 34.9973C28 35.3288 28.1317 35.6468 28.3661 35.8812C28.6005 36.1156 28.9185 36.2473 29.25 36.2473H35.5C36.4946 36.2473 37.4484 35.8522 38.1517 35.149C38.8549 34.4457 39.25 33.4919 39.25 32.4973V7.4973C39.25 6.50274 38.8549 5.54891 38.1517 4.84565C37.4484 4.14239 36.4946 3.7473 35.5 3.7473Z" fill="#000033"/>
<path d="M25.4993 25.0018H12.9993C12.8006 25.0023 12.6046 24.9554 12.4275 24.865C12.2505 24.7746 12.0976 24.6433 11.9815 24.4819C11.8654 24.3206 11.7895 24.1339 11.76 23.9374C11.7304 23.7408 11.7482 23.5401 11.8118 23.3518L14.3118 15.8518C14.3957 15.6035 14.5554 15.3878 14.7685 15.2353C14.9816 15.0828 15.2373 15.0011 15.4993 15.0018H27.9993C28.2033 14.9909 28.4068 15.0302 28.5921 15.1162C28.7773 15.2023 28.9387 15.3324 29.062 15.4952C29.1854 15.658 29.2669 15.8485 29.2996 16.0502C29.3322 16.2518 29.315 16.4583 29.2493 16.6518L26.7493 24.1518C26.6624 24.4105 26.4931 24.6336 26.2674 24.7871C26.0417 24.9406 25.7719 25.016 25.4993 25.0018ZM14.7368 22.5018H24.5993L26.2618 17.5018H16.3993L14.7368 22.5018Z" fill="#05058C"/>
</g>
<defs>
<clipPath id="clip0_5203_28185">
<rect width="40" height="40" fill="white" transform="translate(0.5)"/>
</clipPath>
</defs>
</svg>
