<svg width="40" height="40" viewBox="0 0 40 40" fill="none" xmlns="http://www.w3.org/2000/svg">
<g clip-path="url(#clip0_5202_29697)">
<rect width="40" height="40" fill="white"/>
<path d="M3.12505 24.6625C2.71004 23.1431 2.49985 21.5751 2.50005 20C2.50005 19.6685 2.36835 19.3505 2.13393 19.1161C1.89951 18.8817 1.58157 18.75 1.25005 18.75C0.918524 18.75 0.600582 18.8817 0.366162 19.1161C0.131741 19.3505 4.50219e-05 19.6685 4.50219e-05 20C-0.00381171 21.804 0.240135 23.5999 0.725045 25.3375C0.764469 25.498 0.83533 25.6491 0.933528 25.782C1.03173 25.915 1.15531 26.0271 1.29714 26.112C1.43896 26.1968 1.5962 26.2527 1.75977 26.2764C1.92333 26.3001 2.08997 26.2911 2.25004 26.25C2.41409 26.2071 2.56769 26.1312 2.70149 26.0271C2.83529 25.9229 2.94651 25.7926 3.02836 25.6441C3.11021 25.4956 3.16099 25.332 3.17761 25.1632C3.19424 24.9945 3.17635 24.8241 3.12505 24.6625Z" fill="#000033"/>
<path d="M20 7.51242e-05C17.1573 -0.00775529 14.3461 0.596642 11.7578 1.77217C9.1695 2.9477 6.86465 4.6668 5 6.81257V6.25008C5 5.91855 4.8683 5.60061 4.63388 5.36619C4.39946 5.13177 4.08152 5.00008 3.75 5.00008C3.41848 5.00008 3.10054 5.13177 2.86612 5.36619C2.6317 5.60061 2.5 5.91855 2.5 6.25008V10.0001C2.5 10.3316 2.6317 10.6495 2.86612 10.884C3.10054 11.1184 3.41848 11.2501 3.75 11.2501H7.5C7.83152 11.2501 8.14946 11.1184 8.38388 10.884C8.6183 10.6495 8.75 10.3316 8.75 10.0001C8.75 9.66855 8.6183 9.35061 8.38388 9.11619C8.14946 8.88177 7.83152 8.75008 7.5 8.75008H6.6375C8.26586 6.78711 10.3084 5.20877 12.6186 4.12821C14.9289 3.04765 17.4496 2.49165 20 2.50008C24.6413 2.50008 29.0925 4.34382 32.3744 7.62571C35.6563 10.9076 37.5 15.3588 37.5 20.0001C37.5 20.3316 37.6317 20.6495 37.8661 20.884C38.1005 21.1184 38.4185 21.2501 38.75 21.2501C39.0815 21.2501 39.3995 21.1184 39.6339 20.884C39.8683 20.6495 40 20.3316 40 20.0001C40 14.6957 37.8929 9.60867 34.1421 5.85794C30.3914 2.10721 25.3043 7.51242e-05 20 7.51242e-05Z" fill="#05058C"/>
<path d="M36.2504 28.7504H32.5004C32.1689 28.7504 31.8509 28.8821 31.6165 29.1165C31.3821 29.3509 31.2504 29.6689 31.2504 30.0004C31.2504 30.3319 31.3821 30.6499 31.6165 30.8843C31.8509 31.1187 32.1689 31.2504 32.5004 31.2504H33.3629C31.5538 33.398 29.2544 35.0786 26.659 36.1505C24.0636 37.2224 21.2484 37.6539 18.4511 37.4088C15.6538 37.1636 12.9566 36.2489 10.5872 34.7419C8.21784 33.2349 6.24589 31.1799 4.8379 28.7504C4.67214 28.462 4.39859 28.2512 4.07744 28.1645C3.75628 28.0777 3.41382 28.1221 3.1254 28.2879C2.83698 28.4537 2.62622 28.7272 2.53948 29.0484C2.45275 29.3695 2.49714 29.712 2.6629 30.0004C4.25275 32.7492 6.47428 35.08 9.1437 36.7998C11.8131 38.5197 14.8537 39.5792 18.0139 39.8907C21.174 40.2022 24.363 39.7567 27.3168 38.5912C30.2706 37.4256 32.9045 35.5734 35.0004 33.1879V33.7504C35.0004 34.0819 35.1321 34.3999 35.3665 34.6343C35.6009 34.8687 35.9189 35.0004 36.2504 35.0004C36.5819 35.0004 36.8999 34.8687 37.1343 34.6343C37.3687 34.3999 37.5004 34.0819 37.5004 33.7504V30.0004C37.5004 29.6689 37.3687 29.3509 37.1343 29.1165C36.8999 28.8821 36.5819 28.7504 36.2504 28.7504Z" fill="#000033"/>
<path d="M29.25 17.5856C29.6701 17.0208 29.9662 16.3737 30.1189 15.6866C30.2717 14.9995 30.2776 14.2879 30.1364 13.5984C29.9952 12.9088 29.71 12.2568 29.2994 11.6851C28.8888 11.1134 28.3622 10.6348 27.7539 10.2806C27.1456 9.92645 26.4694 9.70471 25.7696 9.62989C25.0697 9.55507 24.3619 9.62887 23.6925 9.84645C23.0231 10.064 22.4072 10.4205 21.885 10.8925C21.3629 11.3645 20.9463 11.9415 20.6625 12.5856C20.2252 12.498 19.7748 12.498 19.3375 12.5856C19.0537 11.9415 18.6371 11.3645 18.115 10.8925C17.5928 10.4205 16.9769 10.064 16.3075 9.84645C15.6381 9.62887 14.9303 9.55507 14.2304 9.62989C13.5306 9.70471 12.8544 9.92645 12.2461 10.2806C11.6378 10.6348 11.1112 11.1134 10.7006 11.6851C10.29 12.2568 10.0048 12.9088 9.8636 13.5984C9.72238 14.2879 9.72833 14.9995 9.88108 15.6866C10.0338 16.3737 10.3299 17.0208 10.75 17.5856C9.75015 18.2732 8.93209 19.1932 8.36601 20.2666C7.79994 21.3399 7.50277 22.5346 7.5 23.7481V24.9981C7.5 25.3296 7.6317 25.6476 7.86612 25.882C8.10054 26.1164 8.41848 26.2481 8.75 26.2481H12.5V27.4981C12.5 27.8296 12.6317 28.1476 12.8661 28.382C13.1005 28.6164 13.4185 28.7481 13.75 28.7481H26.25C26.5815 28.7481 26.8995 28.6164 27.1339 28.382C27.3683 28.1476 27.5 27.8296 27.5 27.4981V26.2481H31.25C31.5815 26.2481 31.8995 26.1164 32.1339 25.882C32.3683 25.6476 32.5 25.3296 32.5 24.9981V23.7481C32.4972 22.5346 32.2001 21.3399 31.634 20.2666C31.0679 19.1932 30.2498 18.2732 29.25 17.5856ZM27.5 14.9981C27.5 15.6611 27.2366 16.297 26.7678 16.7659C26.2989 17.2347 25.663 17.4981 25 17.4981C24.9961 16.7261 24.8136 15.9655 24.4666 15.2758C24.1196 14.5862 23.6176 13.9863 23 13.5231C23.3135 13.105 23.7502 12.7956 24.2486 12.6386C24.7471 12.4815 25.2822 12.4845 25.7788 12.6473C26.2754 12.8101 26.7085 13.1244 27.0173 13.546C27.326 13.9677 27.4948 14.4755 27.5 14.9981ZM22.5 17.4981C22.5 17.9925 22.3534 18.4759 22.0787 18.887C21.804 19.2981 21.4135 19.6186 20.9567 19.8078C20.4999 19.997 19.9972 20.0465 19.5123 19.9501C19.0273 19.8536 18.5819 19.6155 18.2322 19.2659C17.8826 18.9162 17.6445 18.4708 17.548 17.9858C17.4516 17.5009 17.5011 16.9982 17.6903 16.5414C17.8795 16.0846 18.2 15.6941 18.6111 15.4194C19.0222 15.1447 19.5055 14.9981 20 14.9981C20.663 14.9981 21.2989 15.2615 21.7678 15.7303C22.2366 16.1992 22.5 16.8351 22.5 17.4981ZM17 13.5231C16.3824 13.9863 15.8804 14.5862 15.5334 15.2758C15.1864 15.9655 15.0039 16.7261 15 17.4981C14.5718 17.5013 14.1499 17.3944 13.7749 17.1877C13.3998 16.981 13.0841 16.6814 12.8581 16.3177C12.6321 15.9539 12.5033 15.5382 12.4841 15.1104C12.4648 14.6826 12.5558 14.2571 12.7483 13.8745C12.9408 13.492 13.2283 13.1653 13.5833 12.9258C13.9383 12.6862 14.3488 12.5419 14.7756 12.5067C15.2024 12.4714 15.6311 12.5463 16.0206 12.7243C16.4101 12.9023 16.7473 13.1773 17 13.5231ZM10 23.7481C10.001 22.8495 10.2442 21.9678 10.7039 21.1957C11.1637 20.4236 11.823 19.7897 12.6125 19.3606C13.3395 19.7767 14.1623 19.9964 15 19.9981C15.8375 19.9981 15.5625 19.7981 15.75 20.0856C14.4506 20.9802 13.4665 22.2618 12.9375 23.7481H10ZM15 26.2481C15.001 25.3495 15.2442 24.4678 15.7039 23.6957C16.1637 22.9236 16.823 22.2897 17.6125 21.8606C18.3385 22.2726 19.159 22.4891 19.9937 22.4891C20.8285 22.4891 21.649 22.2726 22.375 21.8606C23.174 22.2794 23.8419 22.9107 24.3051 23.6848C24.7683 24.459 25.0087 25.346 25 26.2481H15ZM27.0625 23.7481C26.5476 22.2542 25.5604 20.9686 24.25 20.0856C24.4375 19.7981 24.1625 19.9981 25 19.9981C25.8377 19.9964 26.6605 19.7767 27.3875 19.3606C28.177 19.7897 28.8363 20.4236 29.2961 21.1957C29.7558 21.9678 29.999 22.8495 30 23.7481H27.0625Z" fill="#05058C"/>
</g>
<defs>
<clipPath id="clip0_5202_29697">
<rect width="40" height="40" fill="white"/>
</clipPath>
</defs>
</svg>
