<svg width="41" height="40" viewBox="0 0 41 40" fill="none" xmlns="http://www.w3.org/2000/svg">
<g clip-path="url(#clip0_5203_28814)">
<rect width="40" height="40" transform="translate(0.5)" fill="white"/>
<path d="M39.25 12.5C39.5815 12.5 39.8995 12.3683 40.1339 12.1339C40.3683 11.8995 40.5 11.5815 40.5 11.25V3.75C40.5 2.75544 40.1049 1.80161 39.4016 1.09835C38.6984 0.395088 37.7446 0 36.75 0L4.25 0C3.25544 0 2.30161 0.395088 1.59835 1.09835C0.895088 1.80161 0.5 2.75544 0.5 3.75L0.5 36.25C0.5 37.2446 0.895088 38.1984 1.59835 38.9016C2.30161 39.6049 3.25544 40 4.25 40H36.75C37.7446 40 38.6984 39.6049 39.4016 38.9016C40.1049 38.1984 40.5 37.2446 40.5 36.25V16.25C40.5 15.9185 40.3683 15.6005 40.1339 15.3661C39.8995 15.1317 39.5815 15 39.25 15C38.9185 15 38.6005 15.1317 38.3661 15.3661C38.1317 15.6005 38 15.9185 38 16.25V36.25C38 36.5815 37.8683 36.8995 37.6339 37.1339C37.3995 37.3683 37.0815 37.5 36.75 37.5H4.25C3.91848 37.5 3.60054 37.3683 3.36612 37.1339C3.1317 36.8995 3 36.5815 3 36.25V12.5H39.25ZM3 3.75C3 3.41848 3.1317 3.10054 3.36612 2.86612C3.60054 2.6317 3.91848 2.5 4.25 2.5H36.75C37.0815 2.5 37.3995 2.6317 37.6339 2.86612C37.8683 3.10054 38 3.41848 38 3.75V10H3V3.75Z" fill="#000033"/>
<path d="M34.25 5C34.0028 5 33.7611 5.07331 33.5555 5.21066C33.35 5.34801 33.1898 5.54324 33.0952 5.77165C33.0005 6.00005 32.9758 6.25139 33.024 6.49386C33.0723 6.73634 33.1913 6.95907 33.3661 7.13388C33.5409 7.3087 33.7637 7.42775 34.0061 7.47598C34.2486 7.52421 34.4999 7.49946 34.7284 7.40485C34.9568 7.31024 35.152 7.15002 35.2893 6.94446C35.4267 6.7389 35.5 6.49723 35.5 6.25C35.5 5.91848 35.3683 5.60054 35.1339 5.36612C34.8995 5.1317 34.5815 5 34.25 5Z" fill="#05058C"/>
<path d="M29.25 5C29.0028 5 28.7611 5.07331 28.5555 5.21066C28.35 5.34801 28.1898 5.54324 28.0952 5.77165C28.0005 6.00005 27.9758 6.25139 28.024 6.49386C28.0723 6.73634 28.1913 6.95907 28.3661 7.13388C28.5409 7.3087 28.7637 7.42775 29.0061 7.47598C29.2486 7.52421 29.4999 7.49946 29.7284 7.40485C29.9568 7.31024 30.152 7.15002 30.2893 6.94446C30.4267 6.7389 30.5 6.49723 30.5 6.25C30.5 5.91848 30.3683 5.60054 30.1339 5.36612C29.8995 5.1317 29.5815 5 29.25 5Z" fill="#000033"/>
<path d="M24.25 5C24.0028 5 23.7611 5.07331 23.5555 5.21066C23.35 5.34801 23.1898 5.54324 23.0952 5.77165C23.0005 6.00005 22.9758 6.25139 23.024 6.49386C23.0723 6.73634 23.1913 6.95907 23.3661 7.13388C23.5409 7.3087 23.7637 7.42775 24.0061 7.47598C24.2486 7.52421 24.4999 7.49946 24.7284 7.40485C24.9568 7.31024 25.152 7.15002 25.2893 6.94446C25.4267 6.7389 25.5 6.49723 25.5 6.25C25.5 5.91848 25.3683 5.60054 25.1339 5.36612C24.8995 5.1317 24.5815 5 24.25 5Z" fill="#000033"/>
<path d="M34.25 25H24.25C23.9185 25 23.6005 24.8683 23.3661 24.6339C23.1317 24.3995 23 24.0815 23 23.75V16.25C23 15.9185 23.1317 15.6005 23.3661 15.3661C23.6005 15.1317 23.9185 15 24.25 15H34.25C34.5815 15 34.8995 15.1317 35.1339 15.3661C35.3683 15.6005 35.5 15.9185 35.5 16.25V23.75C35.5 24.0815 35.3683 24.3995 35.1339 24.6339C34.8995 24.8683 34.5815 25 34.25 25ZM25.5 22.5H33V17.5H25.5V22.5Z" fill="#000033"/>
<path d="M34.25 35H24.25C23.9185 35 23.6005 34.8683 23.3661 34.6339C23.1317 34.3995 23 34.0815 23 33.75C23 33.4185 23.1317 33.1005 23.3661 32.8661C23.6005 32.6317 23.9185 32.5 24.25 32.5H34.25C34.5815 32.5 34.8995 32.6317 35.1339 32.8661C35.3683 33.1005 35.5 33.4185 35.5 33.75C35.5 34.0815 35.3683 34.3995 35.1339 34.6339C34.8995 34.8683 34.5815 35 34.25 35Z" fill="#000033"/>
<path d="M34.25 30H24.25C23.9185 30 23.6005 29.8683 23.3661 29.6339C23.1317 29.3995 23 29.0815 23 28.75C23 28.4185 23.1317 28.1005 23.3661 27.8661C23.6005 27.6317 23.9185 27.5 24.25 27.5H34.25C34.5815 27.5 34.8995 27.6317 35.1339 27.8661C35.3683 28.1005 35.5 28.4185 35.5 28.75C35.5 29.0815 35.3683 29.3995 35.1339 29.6339C34.8995 29.8683 34.5815 30 34.25 30Z" fill="#000033"/>
<path d="M20.4999 16.25C20.4817 16.132 20.4567 16.0151 20.4249 15.9C20.3894 15.7494 20.3211 15.6086 20.2249 15.4875C20.1484 15.3976 20.0648 15.314 19.9749 15.2375C19.8627 15.174 19.7457 15.1197 19.6249 15.075L19.2499 15C5.78736 15 6.57486 15 6.14986 15.175C5.23736 15.6875 5.49986 15 5.49986 33.75C5.51801 33.868 5.54305 33.9849 5.57486 34.1C5.61033 34.2506 5.67862 34.3914 5.77486 34.5125C5.85135 34.6024 5.93495 34.686 6.02486 34.7625C6.24045 34.9061 6.4911 34.9882 6.74986 35C20.4999 35 19.5374 35.125 20.0499 34.6875C20.295 34.4742 20.4474 34.1738 20.4749 33.85C20.4999 33.475 20.4999 36.45 20.4999 16.25ZM11.4624 25L7.99986 29.85V20.15L11.4624 25ZM9.17486 17.5H16.8249L12.9999 22.85L9.17486 17.5ZM12.9999 27.15L16.8249 32.5H9.17486L12.9999 27.15ZM14.5374 25L17.9999 20.15V29.85L14.5374 25Z" fill="#05058C"/>
</g>
<defs>
<clipPath id="clip0_5203_28814">
<rect width="40" height="40" fill="white" transform="translate(0.5)"/>
</clipPath>
</defs>
</svg>
