<svg width="40" height="40" viewBox="0 0 40 40" fill="none" xmlns="http://www.w3.org/2000/svg">
<g clip-path="url(#clip0_5203_27746)">
<rect width="40" height="40" fill="white"/>
<path d="M33.7492 26.2524C28.0367 26.2524 24.1367 26.7399 19.3117 23.5399C15.2367 20.8399 11.9367 21.2524 7.19922 21.2524C6.8677 21.2524 6.54976 21.1207 6.31533 20.8863C6.08091 20.6518 5.94922 20.3339 5.94922 20.0024C5.94922 19.6708 6.08091 19.3529 6.31533 19.1185C6.54976 18.8841 6.8677 18.7524 7.19922 18.7524C12.2742 18.7524 15.9492 18.3399 20.6867 21.4649C22.933 22.9531 25.5671 23.7486 28.2617 23.7524H33.7492C34.0807 23.7524 34.3987 23.8841 34.6331 24.1185C34.8675 24.3529 34.9992 24.6708 34.9992 25.0024C34.9992 25.3339 34.8675 25.6518 34.6331 25.8863C34.3987 26.1207 34.0807 26.2524 33.7492 26.2524Z" fill="#05058C"/>
<path d="M13.75 28.75C13.5028 28.75 13.2611 28.6767 13.0555 28.5393C12.85 28.402 12.6898 28.2068 12.5952 27.9784C12.5005 27.7499 12.4758 27.4986 12.524 27.2561C12.5723 27.0137 12.6913 26.7909 12.8661 26.6161C13.0409 26.4413 13.2637 26.3223 13.5061 26.274C13.7486 26.2258 13.9999 26.2505 14.2284 26.3452C14.4568 26.4398 14.652 26.6 14.7893 26.8055C14.9267 27.0111 15 27.2528 15 27.5C15 27.8315 14.8683 28.1495 14.6339 28.3839C14.3995 28.6183 14.0815 28.75 13.75 28.75Z" fill="#05058C"/>
<path d="M20 35C19.7528 35 19.5111 34.9267 19.3055 34.7893C19.1 34.652 18.9398 34.4568 18.8452 34.2284C18.7505 33.9999 18.7258 33.7486 18.774 33.5061C18.8223 33.2637 18.9413 33.0409 19.1161 32.8661C19.2909 32.6913 19.5137 32.5723 19.7561 32.524C19.9986 32.4758 20.2499 32.5005 20.4784 32.5952C20.7068 32.6898 20.902 32.85 21.0393 33.0555C21.1767 33.2611 21.25 33.5028 21.25 33.75C21.25 34.0815 21.1183 34.3995 20.8839 34.6339C20.6495 34.8683 20.3315 35 20 35Z" fill="#05058C"/>
<path d="M26.25 31.25C26.0028 31.25 25.7611 31.1767 25.5555 31.0393C25.35 30.902 25.1898 30.7068 25.0952 30.4784C25.0005 30.2499 24.9758 29.9986 25.024 29.7561C25.0723 29.5137 25.1913 29.2909 25.3661 29.1161C25.5409 28.9413 25.7637 28.8223 26.0061 28.774C26.2486 28.7258 26.4999 28.7505 26.7284 28.8452C26.9568 28.9398 27.152 29.1 27.2893 29.3055C27.4267 29.5111 27.5 29.7528 27.5 30C27.5 30.3315 27.3683 30.6495 27.1339 30.8839C26.8995 31.1183 26.5815 31.25 26.25 31.25Z" fill="#05058C"/>
<path d="M25.7997 11.175C25.5628 11.0836 25.3593 10.9222 25.2164 10.7123C25.0735 10.5024 24.9979 10.2539 24.9997 10V2.5C25.3312 2.5 25.6492 2.3683 25.8836 2.13388C26.118 1.89946 26.2497 1.58152 26.2497 1.25C26.2497 0.918479 26.118 0.600537 25.8836 0.366117C25.6492 0.131696 25.3312 0 24.9997 0L14.9997 0C14.6682 0 14.3502 0.131696 14.1158 0.366117C13.8814 0.600537 13.7497 0.918479 13.7497 1.25C13.7497 1.58152 13.8814 1.89946 14.1158 2.13388C14.3502 2.3683 14.6682 2.5 14.9997 2.5V10C14.9965 10.2497 14.9185 10.4926 14.7759 10.6976C14.6334 10.9026 14.4327 11.0601 14.1997 11.15C11.8184 12.1485 9.73519 13.7448 8.15168 15.7844C6.56817 17.824 5.53799 20.2379 5.16086 22.7923C4.78372 25.3468 5.0724 27.9554 5.99895 30.3656C6.9255 32.7758 8.45854 34.906 10.4497 36.55C10.6746 36.7364 10.9576 36.8381 11.2497 36.8375C11.5101 36.8412 11.7652 36.7636 11.9793 36.6153C12.1934 36.467 12.3558 36.2556 12.4439 36.0106C12.532 35.7655 12.5414 35.499 12.4707 35.2484C12.4 34.9977 12.2529 34.7754 12.0497 34.6125C10.3944 33.2419 9.12039 31.4677 8.35074 29.4611C7.58109 27.4546 7.34178 25.2835 7.65591 23.1574C7.97003 21.0314 8.82699 19.0223 10.144 17.3241C11.4611 15.6258 13.1937 14.2958 15.1747 13.4625C15.8615 13.1804 16.4491 12.7007 16.863 12.0843C17.2769 11.4679 17.4985 10.7425 17.4997 10V2.5H22.4997V10C22.4995 10.746 22.7218 11.4752 23.1381 12.0942C23.5545 12.7132 24.1461 13.194 24.8372 13.475C27.7475 14.7246 30.0749 17.0324 31.3491 19.932C32.6234 22.8315 32.7494 26.1067 31.7018 29.0956C30.6541 32.0846 28.511 34.5644 25.7053 36.034C22.8997 37.5035 19.6408 37.8533 16.5872 37.0125C16.4288 36.9682 16.2632 36.9555 16.0999 36.9752C15.9366 36.9948 15.7788 37.0465 15.6354 37.1272C15.3459 37.2901 15.133 37.5613 15.0434 37.8813C14.9991 38.0397 14.9864 38.2052 15.0061 38.3686C15.0258 38.5319 15.0774 38.6897 15.1581 38.8331C15.321 39.1226 15.5923 39.3355 15.9122 39.425C19.5774 40.4335 23.4888 40.0128 26.8556 38.248C30.2225 36.4831 32.7938 33.5057 34.0496 29.9178C35.3054 26.3298 35.152 22.3988 33.6206 18.9196C32.0891 15.4403 29.2938 12.6722 25.7997 11.175Z" fill="#000033"/>
</g>
<defs>
<clipPath id="clip0_5203_27746">
<rect width="40" height="40" fill="white"/>
</clipPath>
</defs>
</svg>
