<svg width="40" height="40" viewBox="0 0 40 40" fill="none" xmlns="http://www.w3.org/2000/svg">
<g clip-path="url(#clip0_5203_28431)">
<rect width="40" height="40" fill="white"/>
<path d="M38.7494 21.25C38.0619 21.25 38.0744 21.0875 34.9994 18.0125L32.1369 20.8875C31.9621 21.0638 31.7387 21.184 31.4953 21.2329C31.2519 21.2817 30.9994 21.2569 30.7701 21.1617C30.5408 21.0665 30.345 20.9052 30.2078 20.6983C30.0705 20.4914 29.998 20.2483 29.9994 20C29.9994 17.3479 28.9459 14.8043 27.0705 12.929C25.1951 11.0536 22.6516 10 19.9994 10C19.8349 10.001 19.6718 9.96944 19.5196 9.90724C19.3673 9.84503 19.2287 9.75337 19.1119 9.63752L15.3619 5.88752C15.2448 5.77132 15.1518 5.63307 15.0883 5.48074C15.0249 5.32842 14.9922 5.16504 14.9922 5.00002C14.9922 4.83501 15.0249 4.67162 15.0883 4.5193C15.1518 4.36698 15.2448 4.22872 15.3619 4.11252L19.1119 0.362521C19.2287 0.246669 19.3673 0.155013 19.5196 0.0928069C19.6718 0.0306011 19.8349 -0.000930223 19.9994 2.08929e-05C25.3038 2.08929e-05 30.3908 2.10716 34.1416 5.85789C37.8923 9.60861 39.9994 14.6957 39.9994 20C39.9994 20.3315 39.8677 20.6495 39.6333 20.8839C39.3989 21.1183 39.081 21.25 38.7494 21.25ZM20.5244 7.50002C23.2736 7.61537 25.908 8.63464 28.0189 10.3997C30.1298 12.1648 31.5992 14.5771 32.1994 17.2625L34.1119 15.35C34.2281 15.2329 34.3664 15.1399 34.5187 15.0764C34.671 15.0129 34.8344 14.9803 34.9994 14.9803C35.1644 14.9803 35.3278 15.0129 35.4802 15.0764C35.6325 15.1399 35.7707 15.2329 35.8869 15.35L37.1369 16.6C36.3696 12.7157 34.3077 9.20631 31.288 6.64528C28.2684 4.08425 24.4695 2.62292 20.5119 2.50002L18.0119 5.00002L20.5244 7.50002Z" fill="#05058C"/>
<path d="M39.6376 19.1125L35.8876 15.3625C35.7714 15.2453 35.6332 15.1523 35.4808 15.0889C35.3285 15.0254 35.1651 14.9928 35.0001 14.9928C34.8351 14.9928 34.6717 15.0254 34.5194 15.0889C34.3671 15.1523 34.2288 15.2453 34.1126 15.3625L30.3626 19.1125C30.2468 19.2293 30.1551 19.3678 30.0929 19.5201C30.0307 19.6724 29.9992 19.8355 30.0001 20C30.0001 21.9778 29.4136 23.9112 28.3148 25.5557C27.216 27.2002 25.6542 28.4819 23.827 29.2388C21.9997 29.9957 19.989 30.1937 18.0492 29.8079C16.1094 29.422 14.3276 28.4696 12.9291 27.0711C11.5305 25.6725 10.5781 23.8907 10.1923 21.9509C9.80642 20.0111 10.0044 18.0004 10.7613 16.1732C11.5182 14.3459 12.7999 12.7841 14.4444 11.6853C16.0889 10.5865 18.0223 10 20.0001 10C19.8356 10.001 19.6725 9.96942 19.5202 9.90721C19.3679 9.84501 19.2294 9.75335 19.1126 9.6375L17.2751 7.8C14.5874 8.39779 12.1723 9.86624 10.4048 11.9773C8.63723 14.0885 7.61617 16.7241 7.50012 19.475L5.00012 21.975L2.50012 19.475C2.61772 15.5022 4.08421 11.6877 6.65827 8.65923C9.23234 5.63078 12.7606 3.56877 16.6626 2.8125C19.2876 0.1875 19.3126 0 20.0001 0C15.9509 0.000767112 11.9972 1.23063 8.66201 3.52696C5.32682 5.82328 2.76721 9.07788 1.32169 12.8603C-0.123827 16.6428 -0.387166 20.775 0.566501 24.7103C1.52017 28.6457 3.64592 32.1989 6.66262 34.9C6.78491 35.01 6.92767 35.0948 7.08275 35.1496C7.23782 35.2044 7.40217 35.2281 7.56641 35.2194C7.73066 35.2107 7.89158 35.1698 8.03999 35.0989C8.1884 35.028 8.32139 34.9285 8.43137 34.8062C8.54135 34.684 8.62617 34.5412 8.68098 34.3861C8.73579 34.2311 8.75952 34.0667 8.75082 33.9025C8.74211 33.7382 8.70114 33.5773 8.63024 33.4289C8.55935 33.2805 8.45992 33.1475 8.33762 33.0375C5.49104 30.4922 3.55511 27.0857 2.82512 23.3375L4.07512 24.5875C4.19133 24.7047 4.32958 24.7977 4.4819 24.8611C4.63423 24.9246 4.79761 24.9572 4.96262 24.9572C5.12764 24.9572 5.29102 24.9246 5.44334 24.8611C5.59567 24.7977 5.73392 24.7047 5.85012 24.5875L7.76262 22.675C8.35244 25.3779 9.82227 27.8088 11.9418 29.5868C14.0613 31.3647 16.7108 32.3893 19.4751 32.5L21.9751 35L19.4751 37.5C17.2393 37.44 15.0363 36.9476 12.9876 36.05C12.6826 35.9174 12.3374 35.9114 12.028 36.0333C11.7186 36.1552 11.4702 36.395 11.3376 36.7C11.205 37.005 11.199 37.3502 11.3209 37.6596C11.4428 37.9691 11.6826 38.2174 11.9876 38.35C15.0333 39.6817 18.363 40.2333 21.6754 39.9549C24.9879 39.6764 28.1787 38.5767 30.9594 36.7552C33.7401 34.9337 36.0229 32.4478 37.6014 29.5224C39.1799 26.5969 40.0043 23.3241 40.0001 20C40.0011 19.8355 39.9695 19.6724 39.9073 19.5201C39.8451 19.3678 39.7535 19.2293 39.6376 19.1125ZM23.3876 37.1875L24.6376 35.9375C24.7548 35.8213 24.8478 35.683 24.9112 35.5307C24.9747 35.3784 25.0074 35.215 25.0074 35.05C25.0074 34.885 24.9747 34.7216 24.9112 34.5693C24.8478 34.417 24.7548 34.2787 24.6376 34.1625L22.7251 32.25C25.4208 31.65 27.8419 30.1741 29.6103 28.0529C31.3787 25.9317 32.3949 23.2846 32.5001 20.525L35.0001 18.025L37.5001 20.525C37.3825 24.4978 35.916 28.3123 33.342 31.3408C30.7679 34.3692 27.2396 36.4312 23.3376 37.1875H23.3876Z" fill="#000033"/>
</g>
<defs>
<clipPath id="clip0_5203_28431">
<rect width="40" height="40" fill="white"/>
</clipPath>
</defs>
</svg>
