<svg width="40" height="40" viewBox="0 0 40 40" fill="none" xmlns="http://www.w3.org/2000/svg">
<g clip-path="url(#clip0_5203_28536)">
<rect width="40" height="40" fill="white"/>
<path d="M0.913022 14.0252C1.05912 13.5549 1.29641 13.118 1.61136 12.7394C1.92631 12.3608 2.31275 12.048 2.7486 11.8188C3.18446 11.5895 3.6612 11.4484 4.1516 11.4034C4.64201 11.3584 5.13648 11.4104 5.60677 11.5565C6.07707 11.7026 6.51398 11.9399 6.89257 12.2548C7.27116 12.5698 7.58401 12.9562 7.81325 13.3921C8.0425 13.8279 8.18365 14.3047 8.22865 14.7951C8.27365 15.2855 8.22162 15.7799 8.07552 16.2502C7.23639 18.919 7.31674 21.792 8.30373 24.4097C9.29071 27.0274 11.1273 29.2383 13.5195 30.6886C15.9117 32.139 18.7213 32.7449 21.4987 32.4095C24.276 32.0741 26.8606 30.8167 28.8388 28.8385C30.8169 26.8603 32.0743 24.2758 32.4098 21.4984C32.7452 18.721 32.1392 15.9114 30.6889 13.5192C29.2386 11.127 27.0276 9.29043 24.41 8.30344C21.7923 7.31646 18.9193 7.2361 16.2505 8.07524C15.6014 8.27733 14.9097 8.29917 14.2491 8.13844C13.5886 7.97772 12.9842 7.64046 12.5005 7.16274C12.04 6.70487 11.7063 6.13525 11.532 5.50965C11.3577 4.88406 11.3489 4.22393 11.5064 3.59391C11.6639 2.96388 11.9824 2.38556 12.4305 1.91557C12.8787 1.44558 13.4412 1.10002 14.063 0.912739C18.5585 -0.471282 23.3979 -0.226592 27.7308 1.60381C32.0637 3.43421 35.6128 6.73319 37.7545 10.921C39.8961 15.1088 40.4933 19.9174 39.4409 24.5019C38.3886 29.0863 35.7541 33.1532 32.0005 35.9877C31.7353 36.1867 31.4019 36.2721 31.0737 36.2252C30.7456 36.1783 30.4494 36.003 30.2505 35.7377C30.0516 35.4725 29.9662 35.1392 30.0131 34.811C30.06 34.4828 30.2353 34.1866 30.5005 33.9877C33.7916 31.5075 36.1018 27.9453 37.0242 23.9288C37.9465 19.9122 37.4217 15.6991 35.5424 12.0315C33.663 8.3639 30.5496 5.47722 26.7507 3.87999C22.9517 2.28275 18.711 2.07745 14.7755 3.30024C14.5651 3.35869 14.3737 3.47124 14.2204 3.62667C14.067 3.7821 13.957 3.97499 13.9014 4.18614C13.8458 4.39729 13.8464 4.61932 13.9033 4.83014C13.9602 5.04096 14.0713 5.23321 14.2255 5.38774C14.3872 5.54626 14.5888 5.6579 14.809 5.71074C15.0292 5.76357 15.2595 5.75563 15.4755 5.68774C18.6768 4.67479 22.1254 4.76523 25.2692 5.94459C28.413 7.12395 31.0702 9.32402 32.8154 12.1926C34.5606 15.0612 35.2929 18.4323 34.895 21.7664C34.4971 25.1005 32.992 28.2047 30.6208 30.582C28.2495 32.9593 25.1492 34.4722 21.8162 34.8786C18.4831 35.285 15.1101 34.5614 12.2371 32.8235C9.36408 31.0856 7.15723 28.434 5.96986 25.2933C4.78248 22.1525 4.68324 18.7041 5.68802 15.5002C5.75582 15.2896 5.76648 15.0647 5.71889 14.8485C5.67131 14.6324 5.56719 14.4328 5.41718 14.27C5.26717 14.1073 5.07665 13.9873 4.86509 13.9224C4.65352 13.8574 4.4285 13.8498 4.21302 13.9002C3.99688 13.9518 3.79839 14.0601 3.638 14.2139C3.47761 14.3677 3.36112 14.5614 3.30052 14.7752C2.32146 17.9116 2.24511 21.2602 3.08022 24.4379C3.91532 27.6157 5.62815 30.4941 8.02268 32.7439C10.4172 34.9936 13.3967 36.5238 16.6203 37.1594C19.8439 37.795 23.1812 37.5102 26.2505 36.3377C26.4058 36.2639 26.5747 36.223 26.7466 36.2174C26.9185 36.2119 27.0896 36.2418 27.2494 36.3055C27.4092 36.3691 27.5541 36.465 27.6751 36.5872C27.7961 36.7093 27.8906 36.8552 27.9527 37.0155C28.0148 37.1759 28.0431 37.3473 28.0359 37.5192C28.0287 37.691 27.9861 37.8595 27.9108 38.0141C27.8355 38.1687 27.7291 38.3061 27.5983 38.4177C27.4675 38.5293 27.3151 38.6127 27.1505 38.6627C11.588 44.6877 -4.04948 29.8127 0.913022 14.0252Z" fill="#000033"/>
<path d="M20 30C18.0222 30 16.0888 29.4135 14.4443 28.3147C12.7998 27.2159 11.5181 25.6541 10.7612 23.8268C10.0043 21.9996 9.8063 19.9889 10.1922 18.0491C10.578 16.1093 11.5304 14.3275 12.9289 12.9289C14.3275 11.5304 16.1093 10.578 18.0491 10.1922C19.9889 9.8063 21.9996 10.0043 23.8268 10.7612C25.6541 11.5181 27.2159 12.7998 28.3147 14.4443C29.4135 16.0888 30 18.0222 30 20C30 22.6522 28.9464 25.1957 27.0711 27.0711C25.1957 28.9464 22.6522 30 20 30ZM20 12.5C18.5166 12.5 17.0666 12.9399 15.8332 13.764C14.5999 14.5881 13.6386 15.7594 13.0709 17.1299C12.5033 18.5003 12.3547 20.0083 12.6441 21.4632C12.9335 22.918 13.6478 24.2544 14.6967 25.3033C15.7456 26.3522 17.082 27.0665 18.5368 27.3559C19.9917 27.6453 21.4997 27.4968 22.8701 26.9291C24.2406 26.3614 25.4119 25.4002 26.236 24.1668C27.0601 22.9334 27.5 21.4834 27.5 20C27.5 18.0109 26.7098 16.1032 25.3033 14.6967C23.8968 13.2902 21.9891 12.5 20 12.5Z" fill="#05058C"/>
<path d="M22.5 18.75H17.5C17.1685 18.75 16.8505 18.6183 16.6161 18.3839C16.3817 18.1495 16.25 17.8315 16.25 17.5C16.25 17.1685 16.3817 16.8505 16.6161 16.6161C16.8505 16.3817 17.1685 16.25 17.5 16.25H22.5C22.8315 16.25 23.1495 16.3817 23.3839 16.6161C23.6183 16.8505 23.75 17.1685 23.75 17.5C23.75 17.8315 23.6183 18.1495 23.3839 18.3839C23.1495 18.6183 22.8315 18.75 22.5 18.75Z" fill="#05058C"/>
<path d="M22.5 23.75H17.5C17.1685 23.75 16.8505 23.6183 16.6161 23.3839C16.3817 23.1495 16.25 22.8315 16.25 22.5C16.25 22.1685 16.3817 21.8505 16.6161 21.6161C16.8505 21.3817 17.1685 21.25 17.5 21.25H22.5C22.8315 21.25 23.1495 21.3817 23.3839 21.6161C23.6183 21.8505 23.75 22.1685 23.75 22.5C23.75 22.8315 23.6183 23.1495 23.3839 23.3839C23.1495 23.6183 22.8315 23.75 22.5 23.75Z" fill="#05058C"/>
</g>
<defs>
<clipPath id="clip0_5203_28536">
<rect width="40" height="40" fill="white"/>
</clipPath>
</defs>
</svg>
