<svg width="40" height="40" viewBox="0 0 40 40" fill="none" xmlns="http://www.w3.org/2000/svg">
<g clip-path="url(#clip0_5203_28006)">
<rect width="40" height="40" fill="white"/>
<path d="M17.4994 32.4973C17.3349 32.4983 17.1718 32.4667 17.0196 32.4045C16.8673 32.3423 16.7287 32.2507 16.6119 32.1348L12.8619 28.3848C12.7448 28.2686 12.6518 28.1303 12.5883 27.978C12.5249 27.8257 12.4922 27.6623 12.4922 27.4973C12.4922 27.3323 12.5249 27.1689 12.5883 27.0166C12.6518 26.8643 12.7448 26.726 12.8619 26.6098L16.6119 22.8598C16.7285 22.7433 16.8668 22.6508 17.0191 22.5877C17.1714 22.5247 17.3346 22.4922 17.4994 22.4922C17.6643 22.4922 17.8275 22.5247 17.9797 22.5877C18.132 22.6508 18.2704 22.7433 18.3869 22.8598C18.5035 22.9764 18.5959 23.1147 18.659 23.267C18.7221 23.4193 18.7545 23.5825 18.7545 23.7473C18.7545 23.9121 18.7221 24.0753 18.659 24.2276C18.5959 24.3799 18.5035 24.5183 18.3869 24.6348L15.5119 27.4973L18.3869 30.3598C18.5632 30.5346 18.6834 30.758 18.7323 31.0015C18.7811 31.2449 18.7564 31.4974 18.6611 31.7267C18.5659 31.956 18.4046 32.1517 18.1977 32.289C17.9908 32.4262 17.7477 32.4987 17.4994 32.4973Z" fill="#05058C"/>
<path d="M29.9995 32.4973C29.7512 32.4987 29.5081 32.4262 29.3012 32.289C29.0943 32.1517 28.933 31.956 28.8377 31.7267C28.7425 31.4974 28.7178 31.2449 28.7666 31.0015C28.8154 30.758 28.9357 30.5346 29.112 30.3598L31.987 27.4973L29.112 24.6348C28.8766 24.3994 28.7443 24.0802 28.7443 23.7473C28.7443 23.4144 28.8766 23.0952 29.112 22.8598C29.3473 22.6244 29.6666 22.4922 29.9995 22.4922C30.3323 22.4922 30.6516 22.6244 30.887 22.8598L34.637 26.6098C34.7541 26.726 34.8471 26.8643 34.9106 27.0166C34.974 27.1689 35.0067 27.3323 35.0067 27.4973C35.0067 27.6623 34.974 27.8257 34.9106 27.978C34.8471 28.1303 34.7541 28.2686 34.637 28.3848L30.887 32.1348C30.7702 32.2507 30.6316 32.3423 30.4793 32.4045C30.327 32.4667 30.164 32.4983 29.9995 32.4973Z" fill="#05058C"/>
<path d="M22.5019 35.0013C22.3144 35.0051 22.1285 34.9667 21.9579 34.8889C21.7872 34.8111 21.6363 34.6959 21.5163 34.5518C21.3962 34.4078 21.3101 34.2385 21.2644 34.0567C21.2186 33.8749 21.2143 33.685 21.2519 33.5013L23.7519 21.0013C23.8182 20.6698 24.0135 20.3782 24.2948 20.1907C24.5761 20.0031 24.9204 19.935 25.2519 20.0013C25.5834 20.0676 25.875 20.2629 26.0625 20.5442C26.2501 20.8255 26.3182 21.1698 26.2519 21.5013L23.7519 34.0013C23.6934 34.2879 23.5363 34.5449 23.3079 34.7277C23.0795 34.9104 22.7943 35.0072 22.5019 35.0013Z" fill="#05058C"/>
<path d="M10 17.5H38.75C39.0815 17.5 39.3995 17.3683 39.6339 17.1339C39.8683 16.8995 40 16.5815 40 16.25V11.25C40 10.2554 39.6049 9.30161 38.9016 8.59835C38.1984 7.89509 37.2446 7.5 36.25 7.5H32.5V3.75C32.5 2.75544 32.1049 1.80161 31.4017 1.09835C30.6984 0.395088 29.7446 0 28.75 0L3.75 0C2.75544 0 1.80161 0.395088 1.09835 1.09835C0.395088 1.80161 0 2.75544 0 3.75L0 28.75C0 29.7446 0.395088 30.6984 1.09835 31.4017C1.80161 32.1049 2.75544 32.5 3.75 32.5H7.5V36.25C7.5 37.2446 7.89509 38.1984 8.59835 38.9016C9.30161 39.6049 10.2554 40 11.25 40H36.25C37.2446 40 38.1984 39.6049 38.9016 38.9016C39.6049 38.1984 40 37.2446 40 36.25V21.25C40 20.9185 39.8683 20.6005 39.6339 20.3661C39.3995 20.1317 39.0815 20 38.75 20C38.4185 20 38.1005 20.1317 37.8661 20.3661C37.6317 20.6005 37.5 20.9185 37.5 21.25V36.25C37.5 36.5815 37.3683 36.8995 37.1339 37.1339C36.8995 37.3683 36.5815 37.5 36.25 37.5H11.25C10.9185 37.5 10.6005 37.3683 10.3661 37.1339C10.1317 36.8995 10 36.5815 10 36.25V17.5ZM37.5 11.25V15H10V11.25C10 10.9185 10.1317 10.6005 10.3661 10.3661C10.6005 10.1317 10.9185 10 11.25 10H36.25C36.5815 10 36.8995 10.1317 37.1339 10.3661C37.3683 10.6005 37.5 10.9185 37.5 11.25ZM3.75 30C3.41848 30 3.10054 29.8683 2.86612 29.6339C2.6317 29.3995 2.5 29.0815 2.5 28.75V3.75C2.5 3.41848 2.6317 3.10054 2.86612 2.86612C3.10054 2.6317 3.41848 2.5 3.75 2.5H28.75C29.0815 2.5 29.3995 2.6317 29.6339 2.86612C29.8683 3.10054 30 3.41848 30 3.75V7.5H11.25C10.2554 7.5 9.30161 7.89509 8.59835 8.59835C7.89509 9.30161 7.5 10.2554 7.5 11.25V30H3.75Z" fill="#000033"/>
</g>
<defs>
<clipPath id="clip0_5203_28006">
<rect width="40" height="40" fill="white"/>
</clipPath>
</defs>
</svg>
