<svg width="41" height="40" viewBox="0 0 41 40" fill="none" xmlns="http://www.w3.org/2000/svg">
<g clip-path="url(#clip0_5203_28794)">
<rect width="40" height="40" transform="translate(0.5)" fill="white"/>
<path d="M3.62505 24.6625C3.21004 23.1431 2.99985 21.5751 3.00005 20C3.00005 19.6685 2.86835 19.3505 2.63393 19.1161C2.39951 18.8817 2.08157 18.75 1.75005 18.75C1.41852 18.75 1.10058 18.8817 0.866162 19.1161C0.631741 19.3505 0.500045 19.6685 0.500045 20C0.496188 21.804 0.740135 23.5999 1.22504 25.3375C1.26447 25.498 1.33533 25.6491 1.43353 25.782C1.53173 25.915 1.65531 26.0271 1.79714 26.112C1.93896 26.1968 2.0962 26.2527 2.25977 26.2764C2.42333 26.3001 2.58997 26.2911 2.75004 26.25C2.91409 26.2071 3.06769 26.1312 3.20149 26.0271C3.33529 25.9229 3.44651 25.7926 3.52836 25.6441C3.61021 25.4956 3.66099 25.332 3.67761 25.1632C3.69424 24.9945 3.67635 24.8241 3.62505 24.6625Z" fill="#000033"/>
<path d="M20.5 7.51242e-05C17.6573 -0.00775529 14.8461 0.596642 12.2578 1.77217C9.6695 2.9477 7.36465 4.6668 5.5 6.81257V6.25008C5.5 5.91855 5.3683 5.60061 5.13388 5.36619C4.89946 5.13177 4.58152 5.00008 4.25 5.00008C3.91848 5.00008 3.60054 5.13177 3.36612 5.36619C3.1317 5.60061 3 5.91855 3 6.25008V10.0001C3 10.3316 3.1317 10.6495 3.36612 10.884C3.60054 11.1184 3.91848 11.2501 4.25 11.2501H8C8.33152 11.2501 8.64946 11.1184 8.88388 10.884C9.1183 10.6495 9.25 10.3316 9.25 10.0001C9.25 9.66855 9.1183 9.35061 8.88388 9.11619C8.64946 8.88177 8.33152 8.75008 8 8.75008H7.1375C8.76586 6.78711 10.8084 5.20877 13.1186 4.12821C15.4289 3.04765 17.9496 2.49165 20.5 2.50008C25.1413 2.50008 29.5925 4.34382 32.8744 7.62571C36.1563 10.9076 38 15.3588 38 20.0001C38 20.3316 38.1317 20.6495 38.3661 20.884C38.6005 21.1184 38.9185 21.2501 39.25 21.2501C39.5815 21.2501 39.8995 21.1184 40.1339 20.884C40.3683 20.6495 40.5 20.3316 40.5 20.0001C40.5 14.6957 38.3929 9.60867 34.6421 5.85794C30.8914 2.10721 25.8043 7.51242e-05 20.5 7.51242e-05Z" fill="#05058C"/>
<path d="M36.7504 28.7504H33.0004C32.6689 28.7504 32.3509 28.8821 32.1165 29.1165C31.8821 29.3509 31.7504 29.6689 31.7504 30.0004C31.7504 30.3319 31.8821 30.6499 32.1165 30.8843C32.3509 31.1187 32.6689 31.2504 33.0004 31.2504H33.8629C32.0538 33.398 29.7544 35.0786 27.159 36.1505C24.5636 37.2224 21.7484 37.6539 18.9511 37.4088C16.1538 37.1636 13.4566 36.2489 11.0872 34.7419C8.71784 33.2349 6.74589 31.1799 5.3379 28.7504C5.17214 28.462 4.89859 28.2512 4.57744 28.1645C4.25628 28.0777 3.91382 28.1221 3.6254 28.2879C3.33698 28.4537 3.12622 28.7272 3.03948 29.0484C2.95275 29.3695 2.99714 29.712 3.1629 30.0004C4.75275 32.7492 6.97428 35.08 9.6437 36.7998C12.3131 38.5197 15.3537 39.5792 18.5139 39.8907C21.674 40.2022 24.863 39.7567 27.8168 38.5912C30.7706 37.4256 33.4045 35.5734 35.5004 33.1879V33.7504C35.5004 34.0819 35.6321 34.3999 35.8665 34.6343C36.1009 34.8687 36.4189 35.0004 36.7504 35.0004C37.0819 35.0004 37.3999 34.8687 37.6343 34.6343C37.8687 34.3999 38.0004 34.0819 38.0004 33.7504V30.0004C38.0004 29.6689 37.8687 29.3509 37.6343 29.1165C37.3999 28.8821 37.0819 28.7504 36.7504 28.7504Z" fill="#000033"/>
<path d="M29.75 17.5856C30.1701 17.0208 30.4662 16.3737 30.6189 15.6866C30.7717 14.9995 30.7776 14.2879 30.6364 13.5984C30.4952 12.9088 30.21 12.2568 29.7994 11.6851C29.3888 11.1134 28.8622 10.6348 28.2539 10.2806C27.6456 9.92645 26.9694 9.70471 26.2696 9.62989C25.5697 9.55507 24.8619 9.62887 24.1925 9.84645C23.5231 10.064 22.9072 10.4205 22.385 10.8925C21.8629 11.3645 21.4463 11.9415 21.1625 12.5856C20.7252 12.498 20.2748 12.498 19.8375 12.5856C19.5537 11.9415 19.1371 11.3645 18.615 10.8925C18.0928 10.4205 17.4769 10.064 16.8075 9.84645C16.1381 9.62887 15.4303 9.55507 14.7304 9.62989C14.0306 9.70471 13.3544 9.92645 12.7461 10.2806C12.1378 10.6348 11.6112 11.1134 11.2006 11.6851C10.79 12.2568 10.5048 12.9088 10.3636 13.5984C10.2224 14.2879 10.2283 14.9995 10.3811 15.6866C10.5338 16.3737 10.8299 17.0208 11.25 17.5856C10.2502 18.2732 9.43209 19.1932 8.86601 20.2666C8.29994 21.3399 8.00277 22.5346 8 23.7481V24.9981C8 25.3296 8.1317 25.6476 8.36612 25.882C8.60054 26.1164 8.91848 26.2481 9.25 26.2481H13V27.4981C13 27.8296 13.1317 28.1476 13.3661 28.382C13.6005 28.6164 13.9185 28.7481 14.25 28.7481H26.75C27.0815 28.7481 27.3995 28.6164 27.6339 28.382C27.8683 28.1476 28 27.8296 28 27.4981V26.2481H31.75C32.0815 26.2481 32.3995 26.1164 32.6339 25.882C32.8683 25.6476 33 25.3296 33 24.9981V23.7481C32.9972 22.5346 32.7001 21.3399 32.134 20.2666C31.5679 19.1932 30.7498 18.2732 29.75 17.5856ZM28 14.9981C28 15.6611 27.7366 16.297 27.2678 16.7659C26.7989 17.2347 26.163 17.4981 25.5 17.4981C25.4961 16.7261 25.3136 15.9655 24.9666 15.2758C24.6196 14.5862 24.1176 13.9863 23.5 13.5231C23.8135 13.105 24.2502 12.7956 24.7486 12.6386C25.2471 12.4815 25.7822 12.4845 26.2788 12.6473C26.7754 12.8101 27.2085 13.1244 27.5173 13.546C27.826 13.9677 27.9948 14.4755 28 14.9981ZM23 17.4981C23 17.9925 22.8534 18.4759 22.5787 18.887C22.304 19.2981 21.9135 19.6186 21.4567 19.8078C20.9999 19.997 20.4972 20.0465 20.0123 19.9501C19.5273 19.8536 19.0819 19.6155 18.7322 19.2659C18.3826 18.9162 18.1445 18.4708 18.048 17.9858C17.9516 17.5009 18.0011 16.9982 18.1903 16.5414C18.3795 16.0846 18.7 15.6941 19.1111 15.4194C19.5222 15.1447 20.0055 14.9981 20.5 14.9981C21.163 14.9981 21.7989 15.2615 22.2678 15.7303C22.7366 16.1992 23 16.8351 23 17.4981ZM17.5 13.5231C16.8824 13.9863 16.3804 14.5862 16.0334 15.2758C15.6864 15.9655 15.5039 16.7261 15.5 17.4981C15.0718 17.5013 14.6499 17.3944 14.2749 17.1877C13.8998 16.981 13.5841 16.6814 13.3581 16.3177C13.1321 15.9539 13.0033 15.5382 12.9841 15.1104C12.9648 14.6826 13.0558 14.2571 13.2483 13.8745C13.4408 13.492 13.7283 13.1653 14.0833 12.9258C14.4383 12.6862 14.8488 12.5419 15.2756 12.5067C15.7024 12.4714 16.1311 12.5463 16.5206 12.7243C16.9101 12.9023 17.2473 13.1773 17.5 13.5231ZM10.5 23.7481C10.501 22.8495 10.7442 21.9678 11.2039 21.1957C11.6637 20.4236 12.323 19.7897 13.1125 19.3606C13.8395 19.7767 14.6623 19.9964 15.5 19.9981C16.3375 19.9981 16.0625 19.7981 16.25 20.0856C14.9506 20.9802 13.9665 22.2618 13.4375 23.7481H10.5ZM15.5 26.2481C15.501 25.3495 15.7442 24.4678 16.2039 23.6957C16.6637 22.9236 17.323 22.2897 18.1125 21.8606C18.8385 22.2726 19.659 22.4891 20.4937 22.4891C21.3285 22.4891 22.149 22.2726 22.875 21.8606C23.674 22.2794 24.3419 22.9107 24.8051 23.6848C25.2683 24.459 25.5087 25.346 25.5 26.2481H15.5ZM27.5625 23.7481C27.0476 22.2542 26.0604 20.9686 24.75 20.0856C24.9375 19.7981 24.6625 19.9981 25.5 19.9981C26.3377 19.9964 27.1605 19.7767 27.8875 19.3606C28.677 19.7897 29.3363 20.4236 29.7961 21.1957C30.2558 21.9678 30.499 22.8495 30.5 23.7481H27.5625Z" fill="#05058C"/>
</g>
<defs>
<clipPath id="clip0_5203_28794">
<rect width="40" height="40" fill="white" transform="translate(0.5)"/>
</clipPath>
</defs>
</svg>
