<svg width="40" height="40" viewBox="0 0 40 40" fill="none" xmlns="http://www.w3.org/2000/svg">
<g clip-path="url(#clip0_5203_28524)">
<rect width="40" height="40" fill="white"/>
<path d="M15 6.25C13.2694 6.25 11.5777 6.76318 10.1388 7.72464C8.69983 8.6861 7.57832 10.0527 6.91606 11.6515C6.25379 13.2504 6.08051 15.0097 6.41813 16.707C6.75575 18.4044 7.58911 19.9635 8.81282 21.1872C10.0365 22.4109 11.5956 23.2442 13.293 23.5819C14.9903 23.9195 16.7496 23.7462 18.3485 23.0839C19.9473 22.4217 21.3139 21.3002 22.2754 19.8612C23.2368 18.4223 23.75 16.7306 23.75 15C23.75 12.6794 22.8281 10.4538 21.1872 8.81282C19.5462 7.17187 17.3206 6.25 15 6.25ZM8.75 15C8.74971 13.5592 9.24723 12.1625 10.1584 11.0464C11.0695 9.93023 12.3383 9.16316 13.75 8.875V15C13.75 15.6125 13.6625 15.35 17.9375 20.475C16.9883 20.9805 15.9247 21.2325 14.8496 21.2066C13.7745 21.1807 12.7242 20.8779 11.8004 20.3274C10.8766 19.7769 10.1104 18.9973 9.57605 18.064C9.04168 17.1308 8.75716 16.0754 8.75 15ZM19.8625 18.875L16.25 14.55V8.875C17.2925 9.09394 18.2618 9.57572 19.0657 10.2746C19.8697 10.9734 20.4817 11.8662 20.8436 12.8681C21.2056 13.8699 21.3054 14.9477 21.1337 15.999C20.962 17.0504 20.5244 18.0403 19.8625 18.875Z" fill="#05058C"/>
<path d="M38.5995 31.8245L31.762 24.9995C31.2936 24.5339 30.66 24.2725 29.9995 24.2725C29.3391 24.2725 28.7055 24.5339 28.237 24.9995L27.4995 25.737L26.437 24.6745C28.4888 22.2468 29.7163 19.23 29.9425 16.0595C30.1686 12.889 29.3818 9.72855 27.6954 7.03417C26.0091 4.33979 23.5104 2.25076 20.5599 1.06845C17.6093 -0.113853 14.3595 -0.328312 11.2792 0.456015C8.19888 1.24034 5.44735 2.98291 3.42155 5.43232C1.39575 7.88173 0.200418 10.9113 0.00798991 14.0841C-0.184438 17.2569 0.63599 20.4088 2.35092 23.085C4.06584 25.7613 6.5866 27.8237 9.54954 28.9745C9.70487 29.0483 9.87374 29.0893 10.0456 29.0948C10.2175 29.1004 10.3887 29.0704 10.5484 29.0068C10.7082 28.9432 10.8531 28.8473 10.9741 28.7251C11.0951 28.6029 11.1896 28.4571 11.2517 28.2967C11.3138 28.1363 11.3421 27.9649 11.3349 27.7931C11.3277 27.6213 11.2851 27.4528 11.2098 27.2982C11.1345 27.1436 11.0281 27.0062 10.8973 26.8946C10.7665 26.7829 10.6141 26.6995 10.4495 26.6495C7.54729 25.5208 5.17084 23.3494 3.78547 20.5606C2.40009 17.7717 2.10556 14.5662 2.95953 11.5716C3.81351 8.57694 5.75449 6.00889 8.40247 4.37022C11.0504 2.73154 14.2147 2.14024 17.2758 2.71209C20.3368 3.28393 23.0742 4.97774 24.952 7.46188C26.8298 9.94603 27.7127 13.0416 27.4279 16.1426C27.1432 19.2435 25.7112 22.1265 23.4124 24.2272C21.1136 26.3278 18.1135 27.4947 14.9995 27.4995C14.668 27.4995 14.3501 27.6312 14.1157 27.8656C13.8812 28.1 13.7495 28.418 13.7495 28.7495C13.7495 29.081 13.8812 29.399 14.1157 29.6334C14.3501 29.8678 14.668 29.9995 14.9995 29.9995C18.5463 30.0045 21.9779 28.7409 24.6745 26.437L25.737 27.4995C24.937 28.2995 24.262 28.7495 24.262 29.9995C24.2648 30.6615 24.5301 31.2953 24.9995 31.762L31.8245 38.5995C32.723 39.4979 33.9415 40.0027 35.212 40.0026C36.4826 40.0026 37.7011 39.4979 38.5995 38.5995C39.498 37.7011 40.0027 36.4826 40.0027 35.212C40.0027 33.9414 39.498 32.7229 38.5995 31.8245ZM35.212 37.4995C34.6067 37.4955 34.0273 37.2529 33.5995 36.8245L26.762 29.9995L29.9995 26.762L36.8245 33.5995C37.1424 33.9194 37.3587 34.3261 37.4462 34.7685C37.5336 35.2109 37.4883 35.6693 37.316 36.0861C37.1437 36.5028 36.852 36.8593 36.4777 37.1108C36.1033 37.3623 35.663 37.4975 35.212 37.4995Z" fill="#05058C"/>
<path d="M0.0184803 16.0595C-0.207691 12.889 0.579157 9.72855 2.26551 7.03417C3.95187 4.33979 6.45055 2.25076 9.40108 1.06845C12.3516 -0.113853 15.6014 -0.328312 18.6818 0.456015C21.7621 1.24034 24.5136 2.98291 26.5394 5.43232C28.5652 7.88173 29.7605 10.9113 29.9529 14.0841C30.1454 17.2569 29.3249 20.4088 27.61 23.085C25.8951 25.7613 23.3743 27.8237 20.4114 28.9745C20.2561 29.0483 20.0872 29.0893 19.9153 29.0948C19.7434 29.1004 19.5723 29.0704 19.4125 29.0068C19.2527 28.9432 19.1078 28.8473 18.9868 28.7251C18.8658 28.6029 18.7713 28.4571 18.7092 28.2967C18.6472 28.1363 18.6188 27.9649 18.626 27.7931C18.6332 27.6213 18.6758 27.4528 18.7511 27.2982C18.8264 27.1436 18.9328 27.0062 19.0636 26.8946C19.1944 26.7829 19.3469 26.6995 19.5114 26.6495C22.4136 25.5208 24.7901 23.3494 26.1755 20.5606C27.5608 17.7717 27.8554 14.5662 27.0014 11.5716C26.1474 8.57694 24.2064 6.00889 21.5585 4.37022C18.9105 2.73154 15.7462 2.14024 12.6852 2.71209C9.62412 3.28393 6.88674 4.97774 5.00896 7.46188C3.13118 9.94603 2.24824 13.0416 2.533 16.1426C2.81776 19.2435 4.24972 22.1265 6.54851 24.2272C8.8473 26.3278 11.8474 27.4947 14.9614 27.4995C15.2929 27.4995 15.6109 27.6312 15.8453 27.8656C16.0797 28.1 16.2114 28.418 16.2114 28.7495C16.2114 29.081 16.0797 29.399 15.8453 29.6334C15.6109 29.8678 15.2929 29.9995 14.9614 29.9995C6.96866 29.8525 1.40781 24.3407 0.0184803 16.0595Z" fill="#000033"/>
</g>
<defs>
<clipPath id="clip0_5203_28524">
<rect width="40" height="40" fill="white"/>
</clipPath>
</defs>
</svg>
