<svg width="41" height="40" viewBox="0 0 41 40" fill="none" xmlns="http://www.w3.org/2000/svg">
<g clip-path="url(#clip0_5203_28197)">
<rect width="40" height="40" transform="translate(0.5)" fill="white"/>
<path d="M18.0008 13.75C17.6693 13.75 17.3513 13.6183 17.1169 13.3839C16.8825 13.1495 16.7508 12.8315 16.7508 12.5C16.7508 12.1685 16.6191 11.8505 16.3847 11.6161C16.1503 11.3817 15.8323 11.25 15.5008 11.25C15.1693 11.25 14.8513 11.3817 14.6169 11.6161C14.3825 11.8505 14.2508 12.1685 14.2508 12.5C14.2508 12.8315 14.1191 13.1495 13.8847 13.3839C13.6503 13.6183 13.3323 13.75 13.0008 13.75C10.6133 13.75 11.7508 8.75 15.5008 8.75C19.2508 8.75 20.4008 13.75 18.0008 13.75Z" fill="#05058C"/>
<path d="M28.0008 13.75C27.6693 13.75 27.3513 13.6183 27.1169 13.3839C26.8825 13.1495 26.7508 12.8315 26.7508 12.5C26.7508 12.1685 26.6191 11.8505 26.3847 11.6161C26.1503 11.3817 25.8323 11.25 25.5008 11.25C25.1693 11.25 24.8513 11.3817 24.6169 11.6161C24.3825 11.8505 24.2508 12.1685 24.2508 12.5C24.2508 12.8315 24.1191 13.1495 23.8847 13.3839C23.6503 13.6183 23.3323 13.75 23.0008 13.75C20.6133 13.75 21.7508 8.75 25.5008 8.75C29.2508 8.75 30.4008 13.75 28.0008 13.75Z" fill="#05058C"/>
<path d="M34.25 30H26.75V27.5H30.5C31.4946 27.5 32.4484 27.1049 33.1516 26.4017C33.8549 25.6984 34.25 24.7446 34.25 23.75V22.5H35.5C36.4946 22.5 37.4484 22.1049 38.1516 21.4017C38.8549 20.6984 39.25 19.7446 39.25 18.75V1.25C39.25 0.918479 39.1183 0.600537 38.8839 0.366117C38.6495 0.131696 38.3315 0 38 0C37.6685 0 37.3505 0.131696 37.1161 0.366117C36.8817 0.600537 36.75 0.918479 36.75 1.25V10.225C35.9398 9.98539 35.09 9.90891 34.25 10V6.25C34.25 5.25544 33.8549 4.30161 33.1516 3.59835C32.4484 2.89509 31.4946 2.5 30.5 2.5H10.5C9.50544 2.5 8.55161 2.89509 7.84835 3.59835C7.14509 4.30161 6.75 5.25544 6.75 6.25V10C5.90997 9.91121 5.06068 9.98765 4.25 10.225V1.25C4.25 0.918479 4.1183 0.600537 3.88388 0.366117C3.64946 0.131696 3.33152 0 3 0C2.66848 0 2.35054 0.131696 2.11612 0.366117C1.8817 0.600537 1.75 0.918479 1.75 1.25V18.75C1.75 19.7446 2.14509 20.6984 2.84835 21.4017C3.55161 22.1049 4.50544 22.5 5.5 22.5H6.75V23.75C6.75 24.7446 7.14509 25.6984 7.84835 26.4017C8.55161 27.1049 9.50544 27.5 10.5 27.5H14.25V30H6.75C5.0924 30 3.50269 30.6585 2.33058 31.8306C1.15848 33.0027 0.5 34.5924 0.5 36.25L0.5 38.75C0.5 39.0815 0.631696 39.3995 0.866117 39.6339C1.10054 39.8683 1.41848 40 1.75 40H6.75C7.08152 40 7.39946 39.8683 7.63388 39.6339C7.8683 39.3995 8 39.0815 8 38.75C8 38.4185 7.8683 38.1005 7.63388 37.8661C7.39946 37.6317 7.08152 37.5 6.75 37.5H3V36.25C3 35.2554 3.39509 34.3016 4.09835 33.5984C4.80161 32.8951 5.75544 32.5 6.75 32.5H34.25C35.2446 32.5 36.1984 32.8951 36.9016 33.5984C37.6049 34.3016 38 35.2554 38 36.25V37.5H11.75C11.4185 37.5 11.1005 37.6317 10.8661 37.8661C10.6317 38.1005 10.5 38.4185 10.5 38.75C10.5 39.0815 10.6317 39.3995 10.8661 39.6339C11.1005 39.8683 11.4185 40 11.75 40H39.25C39.5815 40 39.8995 39.8683 40.1339 39.6339C40.3683 39.3995 40.5 39.0815 40.5 38.75V36.25C40.5 34.5924 39.8415 33.0027 38.6694 31.8306C37.4973 30.6585 35.9076 30 34.25 30ZM19.25 25V20H21.75V25H19.25ZM14.25 25V21.25C14.25 20.9185 14.3817 20.6005 14.6161 20.3661C14.8505 20.1317 15.1685 20 15.5 20H16.75V25H14.25ZM24.25 25V20H25.5C25.8315 20 26.1495 20.1317 26.3839 20.3661C26.6183 20.6005 26.75 20.9185 26.75 21.25V25H24.25ZM35.5 12.5C35.8315 12.5 36.1495 12.6317 36.3839 12.8661C36.6183 13.1005 36.75 13.4185 36.75 13.75V18.75C36.75 19.0815 36.6183 19.3995 36.3839 19.6339C36.1495 19.8683 35.8315 20 35.5 20H34.25V12.5H35.5ZM5.5 20C5.16848 20 4.85054 19.8683 4.61612 19.6339C4.3817 19.3995 4.25 19.0815 4.25 18.75V13.75C4.25 13.4185 4.3817 13.1005 4.61612 12.8661C4.85054 12.6317 5.16848 12.5 5.5 12.5H6.75V20H5.5ZM9.25 23.75V6.25C9.25 5.91848 9.3817 5.60054 9.61612 5.36612C9.85054 5.1317 10.1685 5 10.5 5H30.5C30.8315 5 31.1495 5.1317 31.3839 5.36612C31.6183 5.60054 31.75 5.91848 31.75 6.25V23.75C31.75 24.0815 31.6183 24.3995 31.3839 24.6339C31.1495 24.8683 30.8315 25 30.5 25H29.25V21.25C29.25 20.2554 28.8549 19.3016 28.1517 18.5983C27.4484 17.8951 26.4946 17.5 25.5 17.5H15.5C14.5054 17.5 13.5516 17.8951 12.8483 18.5983C12.1451 19.3016 11.75 20.2554 11.75 21.25V25H10.5C10.1685 25 9.85054 24.8683 9.61612 24.6339C9.3817 24.3995 9.25 24.0815 9.25 23.75ZM16.75 30V27.5H24.25V30H16.75Z" fill="#000033"/>
</g>
<defs>
<clipPath id="clip0_5203_28197">
<rect width="40" height="40" fill="white" transform="translate(0.5)"/>
</clipPath>
</defs>
</svg>
