<svg width="40" height="40" viewBox="0 0 40 40" fill="none" xmlns="http://www.w3.org/2000/svg">
<g clip-path="url(#clip0_5203_28426)">
<rect width="40" height="40" fill="white"/>
<path d="M38.5995 31.8245L31.762 24.9995C31.2936 24.5339 30.66 24.2725 29.9995 24.2725C29.3391 24.2725 28.7055 24.5339 28.237 24.9995L27.4995 25.737L26.437 24.6745C28.4888 22.2468 29.7163 19.23 29.9425 16.0595C30.1686 12.889 29.3818 9.72855 27.6954 7.03417C26.0091 4.33979 23.5104 2.25076 20.5599 1.06845C17.6093 -0.113853 14.3595 -0.328312 11.2792 0.456015C8.19888 1.24034 5.44735 2.98291 3.42155 5.43232C1.39575 7.88173 0.200418 10.9113 0.00798991 14.0841C-0.184438 17.2569 0.63599 20.4088 2.35092 23.085C4.06584 25.7613 6.5866 27.8237 9.54954 28.9745C9.70487 29.0483 9.87374 29.0893 10.0456 29.0948C10.2175 29.1004 10.3887 29.0704 10.5484 29.0068C10.7082 28.9432 10.8531 28.8473 10.9741 28.7251C11.0951 28.6029 11.1896 28.4571 11.2517 28.2967C11.3138 28.1363 11.3421 27.9649 11.3349 27.7931C11.3277 27.6213 11.2851 27.4528 11.2098 27.2982C11.1345 27.1436 11.0281 27.0062 10.8973 26.8946C10.7665 26.7829 10.6141 26.6995 10.4495 26.6495C7.54729 25.5208 5.17084 23.3494 3.78547 20.5606C2.40009 17.7717 2.10556 14.5662 2.95953 11.5716C3.81351 8.57694 5.75449 6.00889 8.40247 4.37022C11.0504 2.73154 14.2147 2.14024 17.2758 2.71209C20.3368 3.28393 23.0742 4.97774 24.952 7.46188C26.8298 9.94603 27.7127 13.0416 27.4279 16.1426C27.1432 19.2435 25.7112 22.1265 23.4124 24.2272C21.1136 26.3278 18.1135 27.4947 14.9995 27.4995C14.668 27.4995 14.3501 27.6312 14.1157 27.8656C13.8812 28.1 13.7495 28.418 13.7495 28.7495C13.7495 29.081 13.8812 29.399 14.1157 29.6334C14.3501 29.8678 14.668 29.9995 14.9995 29.9995C18.5463 30.0045 21.9779 28.7409 24.6745 26.437L25.737 27.4995C24.937 28.2995 24.262 28.7495 24.262 29.9995C24.2648 30.6615 24.5301 31.2953 24.9995 31.762L31.8245 38.5995C32.723 39.4979 33.9415 40.0027 35.212 40.0026C36.4826 40.0026 37.7011 39.4979 38.5995 38.5995C39.498 37.7011 40.0027 36.4826 40.0027 35.212C40.0027 33.9414 39.498 32.7229 38.5995 31.8245ZM35.212 37.4995C34.9116 37.5017 34.6139 37.443 34.3367 37.327C34.0596 37.211 33.8088 37.04 33.5995 36.8245L26.762 29.9995L29.9995 26.762L36.8245 33.5995C37.1424 33.9194 37.3587 34.3261 37.4462 34.7685C37.5336 35.2109 37.4883 35.6693 37.316 36.0861C37.1437 36.5028 36.852 36.8593 36.4777 37.1108C36.1033 37.3623 35.663 37.4975 35.212 37.4995Z" fill="#000033"/>
<path d="M7.49946 20.0012C7.25118 20.0027 7.00809 19.9301 6.80119 19.7929C6.59429 19.6556 6.43295 19.4599 6.33774 19.2306C6.24254 19.0013 6.21777 18.7488 6.26661 18.5054C6.31544 18.2619 6.43567 18.0385 6.61196 17.8637L11.612 12.8637C11.7282 12.7465 11.8664 12.6536 12.0187 12.5901C12.1711 12.5266 12.3344 12.494 12.4995 12.494C12.6645 12.494 12.8279 12.5266 12.9802 12.5901C13.1325 12.6536 13.2708 12.7465 13.387 12.8637L16.2495 15.7387L20.362 11.6137C20.5973 11.3783 20.9166 11.2461 21.2495 11.2461C21.5823 11.2461 21.9016 11.3783 22.137 11.6137C22.3723 11.8491 22.5046 12.1683 22.5046 12.5012C22.5046 12.8341 22.3723 13.1533 22.137 13.3887L17.137 18.3887C17.0208 18.5059 16.8825 18.5989 16.7302 18.6623C16.5779 18.7258 16.4145 18.7585 16.2495 18.7585C16.0844 18.7585 15.9211 18.7258 15.7687 18.6623C15.6164 18.5989 15.4782 18.5059 15.362 18.3887L12.4995 15.5137L8.38696 19.6387C8.27016 19.7546 8.13164 19.8462 7.97934 19.9084C7.82704 19.9706 7.66397 20.0022 7.49946 20.0012Z" fill="#05058C"/>
<path d="M22.5 16.25C22.1685 16.25 21.8505 16.1183 21.6161 15.8839C21.3817 15.6495 21.25 15.3315 21.25 15V12.5H18.75C18.4185 12.5 18.1005 12.3683 17.8661 12.1339C17.6317 11.8995 17.5 11.5815 17.5 11.25C17.5 10.9185 17.6317 10.6005 17.8661 10.3661C18.1005 10.1317 18.4185 10 18.75 10H22.5C22.8315 10 23.1495 10.1317 23.3839 10.3661C23.6183 10.6005 23.75 10.9185 23.75 11.25V15C23.75 15.3315 23.6183 15.6495 23.3839 15.8839C23.1495 16.1183 22.8315 16.25 22.5 16.25Z" fill="#05058C"/>
<path d="M0.0184803 16.0595C-0.207691 12.889 0.579157 9.72855 2.26551 7.03417C3.95187 4.33979 6.45055 2.25076 9.40108 1.06845C12.3516 -0.113853 15.6014 -0.328312 18.6818 0.456015C21.7621 1.24034 24.5136 2.98291 26.5394 5.43232C28.5652 7.88173 29.7605 10.9113 29.9529 14.0841C30.1454 17.2569 29.3249 20.4088 27.61 23.085C25.8951 25.7613 23.3743 27.8237 20.4114 28.9745C20.2561 29.0483 20.0872 29.0893 19.9153 29.0948C19.7434 29.1004 19.5723 29.0704 19.4125 29.0068C19.2527 28.9432 19.1078 28.8473 18.9868 28.7251C18.8658 28.6029 18.7713 28.4571 18.7092 28.2967C18.6472 28.1363 18.6188 27.9649 18.626 27.7931C18.6332 27.6213 18.6758 27.4528 18.7511 27.2982C18.8264 27.1436 18.9328 27.0062 19.0636 26.8946C19.1944 26.7829 19.3469 26.6995 19.5114 26.6495C22.4136 25.5208 24.7901 23.3494 26.1755 20.5606C27.5608 17.7717 27.8554 14.5662 27.0014 11.5716C26.1474 8.57694 24.2064 6.00889 21.5585 4.37022C18.9105 2.73154 15.7462 2.14024 12.6852 2.71209C9.62412 3.28393 6.88674 4.97774 5.00896 7.46188C3.13118 9.94603 2.24824 13.0416 2.533 16.1426C2.81776 19.2435 4.24972 22.1265 6.54851 24.2272C8.8473 26.3278 11.8474 27.4947 14.9614 27.4995C15.2929 27.4995 15.6109 27.6312 15.8453 27.8656C16.0797 28.1 16.2114 28.418 16.2114 28.7495C16.2114 29.081 16.0797 29.399 15.8453 29.6334C15.6109 29.8678 15.2929 29.9995 14.9614 29.9995C6.96866 29.8525 1.40781 24.3407 0.0184803 16.0595Z" fill="#000033"/>
</g>
<defs>
<clipPath id="clip0_5203_28426">
<rect width="40" height="40" fill="white"/>
</clipPath>
</defs>
</svg>
