<svg width="40" height="40" viewBox="0 0 40 40" fill="none" xmlns="http://www.w3.org/2000/svg">
<g clip-path="url(#clip0_5203_27850)">
<rect width="40" height="40" fill="white"/>
<path d="M13.389 39.2247C10.7871 38.4502 8.38444 37.1199 6.34704 35.3259C4.30964 33.5318 2.68611 31.3167 1.58867 28.8337C0.491234 26.3507 -0.0539403 23.659 -0.00916832 20.9447C0.0356036 18.2303 0.669254 15.5581 1.84798 13.1126C3.02672 10.6672 4.72241 8.50685 6.81787 6.78095C8.91333 5.05506 11.3586 3.80478 13.9846 3.11652C16.6106 2.42826 19.3548 2.31843 22.0274 2.79464C24.7 3.27085 27.2373 4.32173 29.464 5.87465C29.6081 5.9641 29.7325 6.08194 29.8296 6.22101C29.9268 6.36007 29.9946 6.51745 30.0289 6.68356C30.0633 6.84966 30.0635 7.02102 30.0295 7.1872C29.9955 7.35339 29.928 7.51091 29.8312 7.65019C29.7344 7.78947 29.6103 7.90758 29.4663 7.99735C29.3224 8.08711 29.1617 8.14664 28.9941 8.17232C28.8264 8.198 28.6552 8.18928 28.4911 8.1467C28.3269 8.10412 28.1731 8.02857 28.039 7.92465C26.1093 6.57598 23.9095 5.66273 21.592 5.24809C19.2745 4.83346 16.8946 4.92735 14.617 5.52327C12.3393 6.11919 10.2184 7.2029 8.40089 8.6994C6.58341 10.1959 5.11281 12.0695 4.09087 14.1904C3.06893 16.3113 2.52006 18.629 2.48223 20.983C2.44441 23.337 2.91854 25.6711 3.87181 27.8238C4.82508 29.9765 6.23472 31.8963 8.00318 33.4504C9.77164 35.0046 11.8567 36.1559 14.114 36.8247C14.4323 36.9208 14.6993 37.1394 14.8564 37.4324C15.0134 37.7255 15.0476 38.0689 14.9515 38.3872C14.8554 38.7054 14.6367 38.9724 14.3437 39.1295C14.0507 39.2866 13.7073 39.3208 13.389 39.2247Z" fill="#000033"/>
<path d="M18.75 39.9986C18.4185 39.9986 18.1005 39.8669 17.8661 39.6325C17.6317 39.3981 17.5 39.0802 17.5 38.7486C17.5 38.4171 17.6317 38.0992 17.8661 37.8648C18.1005 37.6303 18.4185 37.4986 18.75 37.4986C21.7186 37.4969 24.6299 36.6821 27.1681 35.1426C29.7062 33.603 31.7742 31.3977 33.1474 28.7658C34.5206 26.134 35.1467 23.1763 34.9577 20.2137C34.7686 17.2512 33.7716 14.3971 32.075 11.9611C31.9711 11.8271 31.8955 11.6733 31.853 11.5091C31.8104 11.3449 31.8017 11.1738 31.8273 11.0061C31.853 10.8384 31.9125 10.6777 32.0023 10.5338C32.0921 10.3899 32.2102 10.2657 32.3495 10.1689C32.4887 10.0721 32.6463 10.0047 32.8124 9.97067C32.9786 9.93668 33.15 9.93686 33.3161 9.97122C33.4822 10.0056 33.6396 10.0734 33.7786 10.1705C33.9177 10.2676 34.0356 10.392 34.125 10.5361C36.0816 13.3468 37.2311 16.6397 37.4487 20.0574C37.6662 23.4751 36.9436 26.8871 35.3592 29.9232C33.7749 32.9593 31.3892 35.5035 28.4612 37.2797C25.5332 39.0558 22.1746 39.9962 18.75 39.9986Z" fill="#05058C"/>
<path d="M18.75 33.75C16.2777 33.75 13.861 33.0169 11.8054 31.6434C9.74976 30.2699 8.14761 28.3176 7.20151 26.0335C6.25542 23.7495 6.00787 21.2361 6.49019 18.8114C6.9725 16.3866 8.16301 14.1593 9.91117 12.4112C11.6593 10.663 13.8866 9.4725 16.3114 8.99019C18.7361 8.50787 21.2495 8.75542 23.5335 9.70151C25.8176 10.6476 27.7699 12.2498 29.1434 14.3054C30.5169 16.361 31.25 18.7777 31.25 21.25C31.25 24.5652 29.933 27.7446 27.5888 30.0888C25.2446 32.433 22.0652 33.75 18.75 33.75ZM18.75 11.25C16.7722 11.25 14.8388 11.8365 13.1943 12.9353C11.5498 14.0341 10.2681 15.5959 9.51121 17.4232C8.75433 19.2504 8.5563 21.2611 8.94215 23.2009C9.32801 25.1407 10.2804 26.9225 11.6789 28.3211C13.0775 29.7196 14.8593 30.672 16.7991 31.0579C18.7389 31.4437 20.7496 31.2457 22.5768 30.4888C24.4041 29.7319 25.9659 28.4502 27.0647 26.8057C28.1635 25.1612 28.75 23.2278 28.75 21.25C28.75 18.5978 27.6964 16.0543 25.8211 14.1789C23.9457 12.3036 21.4022 11.25 18.75 11.25Z" fill="#000033"/>
<path d="M18.75 27.5C17.5139 27.5 16.3055 27.1334 15.2777 26.4467C14.2499 25.7599 13.4488 24.7838 12.9758 23.6418C12.5027 22.4997 12.3789 21.2431 12.6201 20.0307C12.8613 18.8183 13.4565 17.7047 14.3306 16.8306C15.2047 15.9565 16.3183 15.3613 17.5307 15.1201C18.7431 14.8789 19.9997 15.0027 21.1418 15.4758C22.2838 15.9488 23.2599 16.7499 23.9467 17.7777C24.6334 18.8055 25 20.0139 25 21.25C25 22.9076 24.3415 24.4973 23.1694 25.6694C21.9973 26.8415 20.4076 27.5 18.75 27.5ZM18.75 17.5C18.0083 17.5 17.2833 17.7199 16.6666 18.132C16.0499 18.544 15.5693 19.1297 15.2855 19.8149C15.0016 20.5002 14.9274 21.2542 15.0721 21.9816C15.2168 22.709 15.5739 23.3772 16.0984 23.9017C16.6228 24.4261 17.291 24.7833 18.0184 24.9279C18.7458 25.0726 19.4998 24.9984 20.1851 24.7146C20.8703 24.4307 21.456 23.9501 21.868 23.3334C22.2801 22.7167 22.5 21.9917 22.5 21.25C22.5 20.2554 22.1049 19.3016 21.4017 18.5984C20.6984 17.8951 19.7446 17.5 18.75 17.5Z" fill="#000033"/>
<path d="M39.0512 6.25134L36.2512 5.57634L38.4387 3.38884C38.5553 3.2723 38.6477 3.13393 38.7108 2.98166C38.7739 2.82938 38.8063 2.66617 38.8063 2.50135C38.8063 2.33652 38.7739 2.17331 38.7108 2.02103C38.6477 1.86876 38.5553 1.73039 38.4387 1.61385C38.3222 1.4973 38.1838 1.40485 38.0315 1.34177C37.8792 1.2787 37.716 1.24623 37.5512 1.24623C37.3864 1.24623 37.2232 1.2787 37.0709 1.34177C36.9186 1.40485 36.7803 1.4973 36.6637 1.61385L34.4262 3.75134L33.7512 0.951345C33.703 0.727945 33.5945 0.522026 33.4375 0.355979C33.2805 0.189931 33.0809 0.0701098 32.8606 0.00954197C32.6402 -0.0510259 32.4075 -0.050022 32.1876 0.0124446C31.9678 0.0749111 31.7693 0.196449 31.6137 0.363845L27.8637 4.11384C27.7479 4.23065 27.6562 4.36916 27.594 4.52146C27.5318 4.67376 27.5003 4.83684 27.5012 5.00134V10.7388L17.8637 20.3638C17.6283 20.5992 17.4961 20.9185 17.4961 21.2513C17.4961 21.5842 17.6283 21.9035 17.8637 22.1388C18.0991 22.3742 18.4183 22.5065 18.7512 22.5065C19.0841 22.5065 19.4033 22.3742 19.6387 22.1388L29.2637 12.5013H35.0012C35.1657 12.5023 35.3288 12.4708 35.4811 12.4086C35.6334 12.3464 35.7719 12.2547 35.8887 12.1388L39.6387 8.38884C39.8061 8.23326 39.9276 8.03476 39.9901 7.81492C40.0526 7.59509 40.0536 7.36234 39.993 7.14197C39.9324 6.92161 39.8126 6.72207 39.6466 6.56504C39.4805 6.40802 39.2746 6.29952 39.0512 6.25134ZM30.0012 5.51384L31.8262 3.75134L32.3637 5.91384L30.0012 8.23884V5.51384ZM34.4887 10.0013H31.7637L34.1387 7.63884L36.2512 8.17634L34.4887 10.0013Z" fill="#05058C"/>
</g>
<defs>
<clipPath id="clip0_5203_27850">
<rect width="40" height="40" fill="white"/>
</clipPath>
</defs>
</svg>
