<svg width="40" height="40" viewBox="0 0 40 40" fill="none" xmlns="http://www.w3.org/2000/svg">
<g clip-path="url(#clip0_5203_27753)">
<rect width="40" height="40" fill="white"/>
<path d="M38.5995 31.8245L31.762 24.9995C31.2936 24.5339 30.66 24.2725 29.9995 24.2725C29.3391 24.2725 28.7055 24.5339 28.237 24.9995L27.4995 25.737L26.437 24.6745C28.4888 22.2468 29.7163 19.23 29.9425 16.0595C30.1686 12.889 29.3818 9.72855 27.6954 7.03417C26.0091 4.33979 23.5104 2.25076 20.5599 1.06845C17.6093 -0.113853 14.3595 -0.328312 11.2792 0.456015C8.19888 1.24034 5.44735 2.98291 3.42155 5.43232C1.39575 7.88173 0.200418 10.9113 0.00798991 14.0841C-0.184438 17.2569 0.63599 20.4088 2.35092 23.085C4.06584 25.7613 6.5866 27.8237 9.54954 28.9745C9.70487 29.0483 9.87374 29.0893 10.0456 29.0948C10.2175 29.1004 10.3887 29.0704 10.5484 29.0068C10.7082 28.9432 10.8531 28.8473 10.9741 28.7251C11.0951 28.6029 11.1896 28.4571 11.2517 28.2967C11.3138 28.1363 11.3421 27.9649 11.3349 27.7931C11.3277 27.6213 11.2851 27.4528 11.2098 27.2982C11.1345 27.1436 11.0281 27.0062 10.8973 26.8946C10.7665 26.7829 10.6141 26.6995 10.4495 26.6495C7.54729 25.5208 5.17084 23.3494 3.78547 20.5606C2.40009 17.7717 2.10556 14.5662 2.95953 11.5716C3.81351 8.57694 5.75449 6.00889 8.40247 4.37022C11.0504 2.73154 14.2147 2.14024 17.2758 2.71209C20.3368 3.28393 23.0742 4.97774 24.952 7.46188C26.8298 9.94603 27.7127 13.0416 27.4279 16.1426C27.1432 19.2435 25.7112 22.1265 23.4124 24.2272C21.1136 26.3278 18.1135 27.4947 14.9995 27.4995C14.668 27.4995 14.3501 27.6312 14.1157 27.8656C13.8812 28.1 13.7495 28.418 13.7495 28.7495C13.7495 29.081 13.8812 29.399 14.1157 29.6334C14.3501 29.8678 14.668 29.9995 14.9995 29.9995C18.5463 30.0045 21.9779 28.7409 24.6745 26.437L25.737 27.4995C24.937 28.2995 24.262 28.7495 24.262 29.9995C24.2648 30.6615 24.5301 31.2953 24.9995 31.762L31.8245 38.5995C32.723 39.4979 33.9415 40.0027 35.212 40.0026C36.4826 40.0026 37.7011 39.4979 38.5995 38.5995C39.498 37.7011 40.0027 36.4826 40.0027 35.212C40.0027 33.9414 39.498 32.7229 38.5995 31.8245ZM35.212 37.4995C34.6067 37.4955 34.0273 37.2529 33.5995 36.8245L26.762 29.9995L29.9995 26.762L36.8245 33.5995C37.1424 33.9194 37.3587 34.3261 37.4462 34.7685C37.5336 35.2109 37.4883 35.6693 37.316 36.0861C37.1437 36.5028 36.852 36.8593 36.4777 37.1108C36.1033 37.3623 35.663 37.4975 35.212 37.4995Z" fill="#000033"/>
<path d="M0.0165234 16.0595C-0.209648 12.889 0.5772 9.72855 2.26356 7.03417C3.94991 4.33979 6.44859 2.25076 9.39912 1.06845C12.3496 -0.113853 15.5995 -0.328312 18.6798 0.456015C21.7601 1.24034 24.5116 2.98291 26.5374 5.43232C28.5632 7.88173 29.7586 10.9114 29.951 14.0841C30.1434 17.2569 29.323 20.4088 27.6081 23.0851C25.8931 25.7613 23.3724 27.8237 20.4094 28.9745C20.2541 29.0483 20.0852 29.0893 19.9134 29.0948C19.7415 29.1004 19.5703 29.0704 19.4106 29.0068C19.2508 28.9432 19.1059 28.8473 18.9849 28.7251C18.8639 28.6029 18.7694 28.4571 18.7073 28.2967C18.6452 28.1364 18.6169 27.9649 18.6241 27.7931C18.6313 27.6213 18.6739 27.4528 18.7492 27.2982C18.8245 27.1436 18.9308 27.0062 19.0617 26.8946C19.1925 26.7829 19.3449 26.6995 19.5094 26.6495C22.4117 25.5208 24.7881 23.3495 26.1735 20.5606C27.5589 17.7717 27.8534 14.5662 26.9995 11.5716C26.1455 8.57694 24.2045 6.0089 21.5565 4.37022C18.9085 2.73154 15.7443 2.14024 12.6832 2.71209C9.62217 3.28393 6.88478 4.97774 5.007 7.46189C3.12923 9.94603 2.24628 13.0416 2.53104 16.1426C2.8158 19.2435 4.24776 22.1266 6.54655 24.2272C8.84535 26.3278 11.8454 27.4947 14.9594 27.4995C15.291 27.4995 15.6089 27.6312 15.8433 27.8656C16.0777 28.1 16.2094 28.418 16.2094 28.7495C16.2094 29.081 16.0777 29.399 15.8433 29.6334C15.6089 29.8678 15.291 29.9995 14.9594 29.9995C6.9667 29.8525 1.40586 24.3407 0.0165234 16.0595Z" fill="#05058C"/>
<path d="M15 6.25C13.2694 6.25 11.5777 6.76318 10.1388 7.72464C8.69983 8.6861 7.57832 10.0527 6.91606 11.6515C6.25379 13.2504 6.08051 15.0097 6.41813 16.707C6.75575 18.4044 7.58911 19.9635 8.81282 21.1872C10.0365 22.4109 11.5956 23.2442 13.293 23.5819C14.9903 23.9195 16.7496 23.7462 18.3485 23.0839C19.9473 22.4217 21.3139 21.3002 22.2754 19.8612C23.2368 18.4223 23.75 16.7306 23.75 15C23.75 12.6794 22.8281 10.4538 21.1872 8.81282C19.5462 7.17187 17.3206 6.25 15 6.25ZM20.2125 18.4375L16.25 14.4875V8.875C17.2506 9.08021 18.1856 9.5275 18.9733 10.1778C19.7609 10.828 20.3772 11.6614 20.7682 12.605C21.1592 13.5486 21.313 14.5736 21.2162 15.5904C21.1193 16.6072 20.7747 17.5847 20.2125 18.4375ZM8.75 15C8.74971 13.5592 9.24723 12.1625 10.1584 11.0464C11.0695 9.93023 12.3383 9.16316 13.75 8.875V15C13.7491 15.1645 13.7806 15.3276 13.8428 15.4799C13.905 15.6322 13.9967 15.7707 14.1125 15.8875L18.4375 20.2125C17.4957 20.8327 16.4037 21.1866 15.2772 21.2366C14.1507 21.2866 13.0316 21.0309 12.0386 20.4966C11.0456 19.9623 10.2156 19.1693 9.63663 18.2016C9.05768 17.2339 8.75132 16.1276 8.75 15Z" fill="#05058C"/>
</g>
<defs>
<clipPath id="clip0_5203_27753">
<rect width="40" height="40" fill="white"/>
</clipPath>
</defs>
</svg>
