<svg width="40" height="40" viewBox="0 0 40 40" fill="none" xmlns="http://www.w3.org/2000/svg">
<g clip-path="url(#clip0_5203_28550)">
<rect width="40" height="40" fill="white"/>
<path d="M26.7625 27.6688L20.5125 23.9813C20.3711 23.8784 20.2096 23.8063 20.0386 23.7698C19.8675 23.7332 19.6907 23.733 19.5196 23.7691C19.3484 23.8051 19.1868 23.8767 19.045 23.9792C18.9033 24.0816 18.7846 24.2127 18.6967 24.3639C18.6088 24.5151 18.5536 24.6831 18.5347 24.857C18.5158 25.0308 18.5335 25.2068 18.5869 25.3733C18.6402 25.5399 18.7279 25.6934 18.8443 25.824C18.9607 25.9545 19.1032 26.0592 19.2625 26.1313L25.5125 29.8813C25.004 31.2076 24.8827 32.6511 25.1625 34.0438C25.2289 34.3753 25.4241 34.6669 25.7054 34.8544C25.9867 35.042 26.331 35.1101 26.6625 35.0438C26.9941 34.9775 27.2857 34.7822 27.4732 34.5009C27.6607 34.2196 27.7289 33.8753 27.6625 33.5438C27.4397 32.4466 27.5916 31.3064 28.0938 30.3058C28.596 29.3052 29.4195 28.5021 30.4324 28.0251C31.4453 27.5481 32.589 27.4249 33.6802 27.6752C34.7715 27.9255 35.7471 28.5347 36.451 29.4054C37.1548 30.2761 37.546 31.3578 37.562 32.4772C37.578 33.5967 37.2178 34.6891 36.5392 35.5796C35.8605 36.47 34.9027 37.1069 33.819 37.3882C32.7354 37.6696 31.5887 37.5791 30.5625 37.1313C30.4109 37.0552 30.2453 37.0108 30.0759 37.0008C29.9065 36.9908 29.7368 37.0154 29.5772 37.0731C29.4176 37.1308 29.2714 37.2204 29.1476 37.3364C29.0238 37.4524 28.9248 37.5924 28.8569 37.7479C28.7889 37.9034 28.7533 38.0711 28.7522 38.2408C28.7512 38.4105 28.7847 38.5787 28.8507 38.735C28.9167 38.8913 29.0139 39.0325 29.1363 39.1501C29.2587 39.2677 29.4037 39.3591 29.5625 39.4188C30.8379 39.9759 32.243 40.1672 33.6209 39.9713C34.9987 39.7754 36.2949 39.2 37.3644 38.3094C38.4338 37.4188 39.2344 36.2483 39.6765 34.9287C40.1187 33.609 40.1849 32.1924 39.8678 30.8373C39.5508 29.4822 38.8629 28.2421 37.8812 27.2556C36.8995 26.2691 35.6627 25.5752 34.3092 25.2516C32.9556 24.928 31.5387 24.9873 30.217 25.423C28.8952 25.8588 27.7208 26.6536 26.825 27.7188L26.7625 27.6688Z" fill="#000033"/>
<path d="M19.864 16.2462C20.364 16.2462 19.939 16.4087 26.764 12.3837C27.9632 13.8325 29.6628 14.7779 31.5262 15.0325C33.3895 15.2871 35.2805 14.8324 36.8244 13.7585C38.3682 12.6846 39.4523 11.0699 39.8617 9.23435C40.2712 7.39881 39.9761 5.47644 39.0349 3.84823C38.0937 2.22003 36.5752 1.00483 34.7803 0.443473C32.9854 -0.117882 31.0451 0.0155802 29.3439 0.81741C27.6428 1.61924 26.305 3.03091 25.5956 4.77265C24.8863 6.51438 24.8571 8.45905 25.514 10.2212L19.264 13.9712C19.052 14.1172 18.8901 14.325 18.8006 14.5664C18.7111 14.8077 18.6983 15.0708 18.764 15.3197C18.8296 15.5687 18.9705 15.7912 19.1674 15.9571C19.3643 16.1229 19.6076 16.2239 19.864 16.2462ZM32.5015 2.49625C33.4904 2.49625 34.4571 2.78949 35.2794 3.3389C36.1016 3.88831 36.7425 4.6692 37.1209 5.58283C37.4994 6.49646 37.5984 7.50179 37.4055 8.4717C37.2125 9.4416 36.7363 10.3325 36.0371 11.0318C35.3378 11.731 34.4469 12.2072 33.477 12.4002C32.5071 12.5931 31.5017 12.4941 30.5881 12.1156C29.6745 11.7372 28.8936 11.0963 28.3442 10.2741C27.7948 9.45185 27.5015 8.48515 27.5015 7.49625C27.5015 6.17016 28.0283 4.8984 28.966 3.96071C29.9037 3.02303 31.1754 2.49625 32.5015 2.49625Z" fill="#05058C"/>
<path d="M20.0875 26.9301C21.3943 25.2711 22.2078 23.2777 22.4348 21.1781C22.6618 19.0784 22.2933 16.9572 21.3712 15.0572C20.4492 13.1572 19.011 11.5551 17.2211 10.4341C15.4312 9.31322 13.3619 8.71875 11.25 8.71875C9.13809 8.71875 7.06882 9.31322 5.27893 10.4341C3.48904 11.5551 2.05081 13.1572 1.12878 15.0572C0.206759 16.9572 -0.161827 19.0784 0.0651929 21.1781C0.292213 23.2777 1.10567 25.2711 2.41251 26.9301C3.46537 28.2668 4.80769 29.3471 6.33845 30.09C7.86921 30.8328 9.54853 31.2188 11.25 31.2188C12.9515 31.2188 14.6308 30.8328 16.1616 30.09C17.6923 29.3471 19.0346 28.2668 20.0875 26.9301ZM11.25 11.2427C12.7326 11.2439 14.1905 11.6218 15.487 12.3409C16.7835 13.06 17.876 14.0968 18.662 15.3538C19.448 16.6109 19.9017 18.0471 19.9805 19.5275C20.0593 21.008 19.7606 22.4842 19.1125 23.8176C18.1857 22.6419 17.0067 21.6894 15.6625 21.0302C16.0685 20.2683 16.2704 19.4143 16.2484 18.5513C16.2264 17.6883 15.9813 16.8456 15.5371 16.1054C15.0928 15.3652 14.4644 14.7527 13.7132 14.3274C12.9619 13.9021 12.1133 13.6786 11.25 13.6786C10.3867 13.6786 9.53812 13.9021 8.78685 14.3274C8.03558 14.7527 7.40722 15.3652 6.96294 16.1054C6.51867 16.8456 6.27361 17.6883 6.25163 18.5513C6.22965 19.4143 6.43149 20.2683 6.83751 21.0302C5.49335 21.6894 4.31435 22.6419 3.38751 23.8176C2.73941 22.4842 2.44075 21.008 2.51956 19.5275C2.59836 18.0471 3.05205 16.6109 3.83803 15.3538C4.62401 14.0968 5.71652 13.06 7.01301 12.3409C8.30949 11.6218 9.76744 11.2439 11.25 11.2427ZM8.75001 18.7427C8.75001 18.2482 8.89663 17.7648 9.17133 17.3537C9.44604 16.9426 9.83648 16.6222 10.2933 16.433C10.7501 16.2437 11.2528 16.1942 11.7377 16.2907C12.2227 16.3871 12.6681 16.6253 13.0178 16.9749C13.3674 17.3245 13.6055 17.77 13.702 18.2549C13.7984 18.7399 13.7489 19.2425 13.5597 19.6994C13.3705 20.1562 13.0501 20.5466 12.6389 20.8213C12.2278 21.096 11.7445 21.2427 11.25 21.2427C10.587 21.2427 9.95108 20.9793 9.48224 20.5104C9.0134 20.0416 8.75001 19.4057 8.75001 18.7427ZM4.91251 26.0051C5.7958 24.6118 7.11383 23.5486 8.66251 22.9801C9.448 23.4767 10.3582 23.7403 11.2875 23.7403C12.2168 23.7403 13.127 23.4767 13.9125 22.9801C15.4612 23.5486 16.7792 24.6118 17.6625 26.0051C16.8443 26.8754 15.8566 27.569 14.7602 28.043C13.6638 28.5171 12.482 28.7617 11.2875 28.7617C10.093 28.7617 8.91118 28.5171 7.81479 28.043C6.71841 27.569 5.7307 26.8754 4.91251 26.0051Z" fill="#05058C"/>
</g>
<defs>
<clipPath id="clip0_5203_28550">
<rect width="40" height="40" fill="white"/>
</clipPath>
</defs>
</svg>
