<svg width="40" height="41" viewBox="0 0 40 41" fill="none" xmlns="http://www.w3.org/2000/svg">
<rect y="0.5" width="40" height="40" rx="20" fill="#F4F2FA"/>
<g clip-path="url(#clip0_5203_28575)">
<path d="M11.897 26.36L15.807 22.45L18.636 25.278L23.207 20.708L25 22.5V17.5H20L21.793 19.293L18.636 22.45L15.808 19.621L10.862 24.567C10.2919 23.287 9.9982 21.9012 10 20.5C10 14.977 14.477 10.5 20 10.5C25.523 10.5 30 14.977 30 20.5C30 26.023 25.523 30.5 20 30.5C18.418 30.501 16.8584 30.1262 15.4496 29.4065C14.0408 28.6867 12.8232 27.6425 11.897 26.36Z" fill="#05058C"/>
</g>
<defs>
<clipPath id="clip0_5203_28575">
<rect width="24" height="24" fill="white" transform="translate(8 8.5)"/>
</clipPath>
</defs>
</svg>
