<svg width="40" height="40" viewBox="0 0 40 40" fill="none" xmlns="http://www.w3.org/2000/svg">
<circle cx="20" cy="20" r="20" fill="#F4F2FA"/>
<g clip-path="url(#clip0_5202_29660)">
<path d="M17 18C16.7348 18 16.4804 18.1054 16.2929 18.2929C16.1054 18.4804 16 18.7348 16 19V23H18V20H21V22.5L24.5 19L21 15.5V18H17ZM20.707 9.393L30.607 19.293C30.7945 19.4805 30.8998 19.7348 30.8998 20C30.8998 20.2652 30.7945 20.5195 30.607 20.707L20.707 30.607C20.5195 30.7945 20.2652 30.8998 20 30.8998C19.7348 30.8998 19.4805 30.7945 19.293 30.607L9.393 20.707C9.20553 20.5195 9.10021 20.2652 9.10021 20C9.10021 19.7348 9.20553 19.4805 9.393 19.293L19.293 9.393C19.4805 9.20553 19.7348 9.10021 20 9.10021C20.2652 9.10021 20.5195 9.20553 20.707 9.393Z" fill="#05058C"/>
</g>
<defs>
<clipPath id="clip0_5202_29660">
<rect width="24" height="24" fill="white" transform="translate(8 8)"/>
</clipPath>
</defs>
</svg>
