<svg width="40" height="41" viewBox="0 0 40 41" fill="none" xmlns="http://www.w3.org/2000/svg">
<rect y="0.5" width="40" height="40" rx="20" fill="#F4F2FA"/>
<g clip-path="url(#clip0_5203_28405)">
<path d="M20 30.5C14.477 30.5 10 26.023 10 20.5C10 14.977 14.477 10.5 20 10.5C25.523 10.5 30 14.977 30 20.5C30 26.023 25.523 30.5 20 30.5ZM15 21.5C15 22.8261 15.5268 24.0979 16.4645 25.0355C17.4021 25.9732 18.6739 26.5 20 26.5C21.3261 26.5 22.5979 25.9732 23.5355 25.0355C24.4732 24.0979 25 22.8261 25 21.5H23C23 22.2956 22.6839 23.0587 22.1213 23.6213C21.5587 24.1839 20.7956 24.5 20 24.5C19.2044 24.5 18.4413 24.1839 17.8787 23.6213C17.3161 23.0587 17 22.2956 17 21.5H15ZM16 19.5C16.3978 19.5 16.7794 19.342 17.0607 19.0607C17.342 18.7794 17.5 18.3978 17.5 18C17.5 17.6022 17.342 17.2206 17.0607 16.9393C16.7794 16.658 16.3978 16.5 16 16.5C15.6022 16.5 15.2206 16.658 14.9393 16.9393C14.658 17.2206 14.5 17.6022 14.5 18C14.5 18.3978 14.658 18.7794 14.9393 19.0607C15.2206 19.342 15.6022 19.5 16 19.5ZM24 19.5C24.3978 19.5 24.7794 19.342 25.0607 19.0607C25.342 18.7794 25.5 18.3978 25.5 18C25.5 17.6022 25.342 17.2206 25.0607 16.9393C24.7794 16.658 24.3978 16.5 24 16.5C23.6022 16.5 23.2206 16.658 22.9393 16.9393C22.658 17.2206 22.5 17.6022 22.5 18C22.5 18.3978 22.658 18.7794 22.9393 19.0607C23.2206 19.342 23.6022 19.5 24 19.5Z" fill="#05058C"/>
</g>
<defs>
<clipPath id="clip0_5203_28405">
<rect width="24" height="24" fill="white" transform="translate(8 8.5)"/>
</clipPath>
</defs>
</svg>
