<svg width="41" height="40" viewBox="0 0 41 40" fill="none" xmlns="http://www.w3.org/2000/svg">
<rect x="0.5" width="40" height="40" rx="20" fill="#F4F2FA"/>
<g clip-path="url(#clip0_5203_28227)">
<path d="M18.813 19.566L26.753 11.626L28.874 13.747L27.46 15.161L29.581 17.282L26.046 20.818L23.925 18.697L20.935 21.687C21.4856 22.7463 21.6391 23.9676 21.3679 25.1302C21.0967 26.2928 20.4186 27.3201 19.4561 28.0264C18.4936 28.7327 17.3103 29.0715 16.1199 28.9816C14.9294 28.8916 13.8104 28.3789 12.965 27.536C12.1192 26.6915 11.6038 25.572 11.5124 24.3802C11.4209 23.1885 11.7594 22.0034 12.4665 21.0397C13.1736 20.0761 14.2025 19.3976 15.3667 19.1272C16.531 18.8569 17.7536 19.0125 18.813 19.566ZM17.914 25.414C18.105 25.2295 18.2574 25.0088 18.3622 24.7648C18.467 24.5208 18.5222 24.2584 18.5245 23.9928C18.5268 23.7272 18.4762 23.4639 18.3756 23.2181C18.2751 22.9723 18.1266 22.749 17.9388 22.5612C17.751 22.3734 17.5277 22.2249 17.2819 22.1244C17.0361 22.0238 16.7728 21.9732 16.5072 21.9755C16.2416 21.9778 15.9792 22.033 15.7352 22.1378C15.4912 22.2426 15.2705 22.395 15.086 22.586C14.7217 22.9632 14.5201 23.4684 14.5247 23.9928C14.5292 24.5172 14.7395 25.0188 15.1104 25.3896C15.4812 25.7605 15.9828 25.9708 16.5072 25.9753C17.0316 25.9799 17.5368 25.7783 17.914 25.414Z" fill="#05058C"/>
</g>
<defs>
<clipPath id="clip0_5203_28227">
<rect width="24" height="24" fill="white" transform="translate(8.5 8)"/>
</clipPath>
</defs>
</svg>
