<svg width="40" height="40" viewBox="0 0 40 40" fill="none" xmlns="http://www.w3.org/2000/svg">
<circle cx="20" cy="20" r="20" fill="#F4F2FA"/>
<g clip-path="url(#clip0_5202_29668)">
<path d="M20 30C14.477 30 10 25.523 10 20C10 14.477 14.477 10 20 10C25.523 10 30 14.477 30 20C30 25.523 25.523 30 20 30ZM16.5 22V24H19V26H21V24H22C22.663 24 23.2989 23.7366 23.7678 23.2678C24.2366 22.7989 24.5 22.163 24.5 21.5C24.5 20.837 24.2366 20.2011 23.7678 19.7322C23.2989 19.2634 22.663 19 22 19H18C17.8674 19 17.7402 18.9473 17.6464 18.8536C17.5527 18.7598 17.5 18.6326 17.5 18.5C17.5 18.3674 17.5527 18.2402 17.6464 18.1464C17.7402 18.0527 17.8674 18 18 18H23.5V16H21V14H19V16H18C17.337 16 16.7011 16.2634 16.2322 16.7322C15.7634 17.2011 15.5 17.837 15.5 18.5C15.5 19.163 15.7634 19.7989 16.2322 20.2678C16.7011 20.7366 17.337 21 18 21H22C22.1326 21 22.2598 21.0527 22.3536 21.1464C22.4473 21.2402 22.5 21.3674 22.5 21.5C22.5 21.6326 22.4473 21.7598 22.3536 21.8536C22.2598 21.9473 22.1326 22 22 22H16.5Z" fill="#05058C"/>
</g>
<defs>
<clipPath id="clip0_5202_29668">
<rect width="24" height="24" fill="white" transform="translate(8 8)"/>
</clipPath>
</defs>
</svg>
