<svg width="40" height="41" viewBox="0 0 40 41" fill="none" xmlns="http://www.w3.org/2000/svg">
<rect y="0.5" width="40" height="40" rx="20" fill="#F4F2FA"/>
<g clip-path="url(#clip0_5203_27593)">
<path d="M23.224 24.008L21.011 28.658C20.9691 28.7459 20.9065 28.8223 20.8285 28.8806C20.7505 28.9389 20.6595 28.9774 20.5633 28.9926C20.4671 29.0079 20.3687 28.9995 20.2765 28.9682C20.1842 28.9369 20.101 28.8836 20.034 28.813L16.492 25.074C16.3974 24.9742 16.2713 24.91 16.135 24.892L11.028 24.224C10.9315 24.2113 10.8396 24.1753 10.7601 24.1191C10.6806 24.063 10.616 23.9883 10.5718 23.9016C10.5276 23.8149 10.5052 23.7187 10.5064 23.6214C10.5077 23.5241 10.5326 23.4285 10.579 23.343L13.041 18.819C13.1064 18.698 13.1283 18.5582 13.103 18.423L12.16 13.36C12.1421 13.2642 12.1478 13.1654 12.1766 13.0723C12.2055 12.9792 12.2566 12.8945 12.3255 12.8255C12.3945 12.7566 12.4792 12.7055 12.5723 12.6766C12.6654 12.6478 12.7642 12.6421 12.86 12.66L17.923 13.603C18.0582 13.6283 18.198 13.6064 18.319 13.541L22.843 11.079C22.9286 11.0326 23.0242 11.0077 23.1216 11.0065C23.219 11.0053 23.3152 11.0278 23.4019 11.0721C23.4887 11.1164 23.5633 11.1812 23.6194 11.2608C23.6755 11.3404 23.7114 11.4324 23.724 11.529L24.392 16.635C24.41 16.7713 24.4742 16.8974 24.574 16.992L28.313 20.534C28.3836 20.601 28.4369 20.6842 28.4682 20.7765C28.4995 20.8687 28.5079 20.9671 28.4926 21.0633C28.4774 21.1595 28.4389 21.2505 28.3806 21.3285C28.3223 21.4065 28.2459 21.4691 28.158 21.511L23.508 23.724C23.3835 23.7832 23.2832 23.8835 23.224 24.008ZM24.021 25.935L25.435 24.521L29.678 28.763L28.263 30.178L24.021 25.935Z" fill="#05058C"/>
</g>
<defs>
<clipPath id="clip0_5203_27593">
<rect width="24" height="24" fill="white" transform="translate(8 8.5)"/>
</clipPath>
</defs>
</svg>
