<svg width="40" height="40" viewBox="0 0 40 40" fill="none" xmlns="http://www.w3.org/2000/svg">
<rect width="40" height="40" rx="20" fill="#F4F2FA"/>
<g clip-path="url(#clip0_5203_27555)">
<path d="M10.132 21.63C9.95263 20.5507 9.95263 19.4493 10.132 18.37C11.234 18.396 12.224 17.868 12.609 16.939C12.994 16.009 12.667 14.935 11.869 14.176C12.5054 13.2853 13.2846 12.5058 14.175 11.869C14.935 12.667 16.009 12.994 16.939 12.609C17.869 12.224 18.396 11.233 18.369 10.132C19.4489 9.9524 20.5511 9.9524 21.631 10.132C21.604 11.234 22.132 12.224 23.061 12.609C23.991 12.994 25.065 12.667 25.824 11.869C26.7147 12.5054 27.4942 13.2846 28.131 14.175C27.333 14.935 27.006 16.009 27.391 16.939C27.776 17.869 28.767 18.396 29.868 18.369C30.0476 19.4489 30.0476 20.5511 29.868 21.631C28.766 21.604 27.776 22.132 27.391 23.061C27.006 23.991 27.333 25.065 28.131 25.824C27.4946 26.7147 26.7154 27.4942 25.825 28.131C25.065 27.333 23.991 27.006 23.061 27.391C22.131 27.776 21.604 28.767 21.631 29.868C20.5511 30.0476 19.4489 30.0476 18.369 29.868C18.396 28.766 17.868 27.776 16.939 27.391C16.009 27.006 14.935 27.333 14.176 28.131C13.2853 27.4946 12.5058 26.7154 11.869 25.825C12.667 25.065 12.994 23.991 12.609 23.061C12.224 22.131 11.233 21.603 10.132 21.63ZM20 23C20.7956 23 21.5587 22.6839 22.1213 22.1213C22.6839 21.5587 23 20.7956 23 20C23 19.2044 22.6839 18.4413 22.1213 17.8787C21.5587 17.3161 20.7956 17 20 17C19.2044 17 18.4413 17.3161 17.8787 17.8787C17.3161 18.4413 17 19.2044 17 20C17 20.7956 17.3161 21.5587 17.8787 22.1213C18.4413 22.6839 19.2044 23 20 23Z" fill="#05058C"/>
</g>
<defs>
<clipPath id="clip0_5203_27555">
<rect width="24" height="24" fill="white" transform="translate(8 8)"/>
</clipPath>
</defs>
</svg>
