<svg width="40" height="41" viewBox="0 0 40 41" fill="none" xmlns="http://www.w3.org/2000/svg">
<rect y="0.5" width="40" height="40" rx="20" fill="#F4F2FA"/>
<g clip-path="url(#clip0_5203_28024)">
<path d="M15.105 17.29C15.2785 17.9248 15.6558 18.4851 16.1789 18.8844C16.702 19.2837 17.3419 19.5 18 19.5H22C23.178 19.5001 24.3182 19.916 25.2196 20.6745C26.1209 21.433 26.7256 22.4853 26.927 23.646C27.6057 23.8674 28.1832 24.3236 28.5559 24.9325C28.9286 25.5414 29.0719 26.2632 28.9603 26.9684C28.8486 27.6735 28.4892 28.3157 27.9467 28.7797C27.4041 29.2437 26.7139 29.4991 26 29.5C25.3015 29.5005 24.6248 29.2574 24.0864 28.8124C23.548 28.3674 23.1818 27.7485 23.0509 27.0624C22.9199 26.3763 23.0325 25.666 23.3691 25.054C23.7058 24.4421 24.2454 23.9667 24.895 23.71C24.7215 23.0752 24.3442 22.5149 23.8211 22.1156C23.298 21.7163 22.6581 21.5 22 21.5H18C16.9179 21.5016 15.8647 21.1505 15 20.5V23.67C15.6675 23.9059 16.2301 24.3702 16.5884 24.9808C16.9466 25.5914 17.0775 26.309 16.9578 27.0068C16.8381 27.7046 16.4756 28.3375 15.9344 28.7939C15.3931 29.2502 14.708 29.5005 14 29.5005C13.292 29.5005 12.6069 29.2502 12.0656 28.7939C11.5244 28.3375 11.1619 27.7046 11.0422 27.0068C10.9225 26.309 11.0534 25.5914 11.4116 24.9808C11.7699 24.3702 12.3325 23.9059 13 23.67V17.33C12.337 17.0959 11.7772 16.6364 11.4184 16.0318C11.0595 15.4271 10.9244 14.7156 11.0365 14.0215C11.1487 13.3274 11.501 12.6946 12.0321 12.2338C12.5631 11.7729 13.2391 11.5131 13.9421 11.4997C14.6451 11.4864 15.3305 11.7203 15.8786 12.1607C16.4268 12.601 16.8029 13.2199 16.9414 13.9093C17.0798 14.5986 16.9718 15.3147 16.6362 15.9326C16.3006 16.5505 15.7587 17.0309 15.105 17.29Z" fill="#05058C"/>
</g>
<defs>
<clipPath id="clip0_5203_28024">
<rect width="24" height="24" fill="white" transform="translate(8 8.5)"/>
</clipPath>
</defs>
</svg>
