<svg width="41" height="40" viewBox="0 0 41 40" fill="none" xmlns="http://www.w3.org/2000/svg">
<rect x="0.5" width="40" height="40" rx="20" fill="#F4F2FA"/>
<g clip-path="url(#clip0_5203_28223)">
<path d="M25.5 23.245V30.117C25.5 30.2055 25.4766 30.2924 25.432 30.3688C25.3875 30.4452 25.3235 30.5085 25.2465 30.5521C25.1696 30.5957 25.0824 30.6181 24.9939 30.6171C24.9055 30.616 24.8189 30.5915 24.743 30.546L20.5 28L16.257 30.546C16.181 30.5915 16.0944 30.616 16.0058 30.6171C15.9173 30.6181 15.83 30.5956 15.753 30.5519C15.676 30.5081 15.612 30.4447 15.5676 30.3681C15.5231 30.2916 15.4998 30.2045 15.5 30.116V23.246C14.2061 22.2101 13.266 20.7979 12.8095 19.2045C12.3529 17.6112 12.4026 15.9154 12.9515 14.3515C13.5004 12.7876 14.5216 11.4327 15.8738 10.4743C17.226 9.51581 18.8425 9.001 20.5 9.001C22.1575 9.001 23.774 9.51581 25.1262 10.4743C26.4784 11.4327 27.4996 12.7876 28.0485 14.3515C28.5974 15.9154 28.6471 17.6112 28.1905 19.2045C27.734 20.7979 26.7939 22.2101 25.5 23.246V23.245ZM20.5 23C22.0913 23 23.6174 22.3679 24.7426 21.2426C25.8679 20.1174 26.5 18.5913 26.5 17C26.5 15.4087 25.8679 13.8826 24.7426 12.7574C23.6174 11.6321 22.0913 11 20.5 11C18.9087 11 17.3826 11.6321 16.2574 12.7574C15.1321 13.8826 14.5 15.4087 14.5 17C14.5 18.5913 15.1321 20.1174 16.2574 21.2426C17.3826 22.3679 18.9087 23 20.5 23ZM20.5 21C19.4391 21 18.4217 20.5786 17.6716 19.8284C16.9214 19.0783 16.5 18.0609 16.5 17C16.5 15.9391 16.9214 14.9217 17.6716 14.1716C18.4217 13.4214 19.4391 13 20.5 13C21.5609 13 22.5783 13.4214 23.3284 14.1716C24.0786 14.9217 24.5 15.9391 24.5 17C24.5 18.0609 24.0786 19.0783 23.3284 19.8284C22.5783 20.5786 21.5609 21 20.5 21Z" fill="#05058C"/>
</g>
<defs>
<clipPath id="clip0_5203_28223">
<rect width="24" height="24" fill="white" transform="translate(8.5 8)"/>
</clipPath>
</defs>
</svg>
