<svg width="40" height="41" viewBox="0 0 40 41" fill="none" xmlns="http://www.w3.org/2000/svg">
<rect y="0.5" width="40" height="40" rx="20" fill="#F4F2FA"/>
<g clip-path="url(#clip0_5203_28026)">
<path d="M21 9.5L21.001 12.562C22.7632 12.7848 24.4013 13.5874 25.6572 14.8435C26.9131 16.0996 27.7155 17.7378 27.938 19.5H31V21.5L27.938 21.501C27.7153 23.2631 26.9128 24.901 25.6569 26.1569C24.401 27.4128 22.7631 28.2153 21.001 28.438L21 31.5H19V28.438C17.2378 28.2155 15.5996 27.4131 14.3435 26.1572C13.0874 24.9013 12.2848 23.2632 12.062 21.501L9 21.5V19.5H12.062C12.2846 17.7376 13.0871 16.0993 14.3432 14.8432C15.5993 13.5871 17.2376 12.7846 19 12.562V9.5H21ZM20 18.5C19.4696 18.5 18.9609 18.7107 18.5858 19.0858C18.2107 19.4609 18 19.9696 18 20.5C18 21.0304 18.2107 21.5391 18.5858 21.9142C18.9609 22.2893 19.4696 22.5 20 22.5C20.5304 22.5 21.0391 22.2893 21.4142 21.9142C21.7893 21.5391 22 21.0304 22 20.5C22 19.9696 21.7893 19.4609 21.4142 19.0858C21.0391 18.7107 20.5304 18.5 20 18.5Z" fill="#05058C"/>
</g>
<defs>
<clipPath id="clip0_5203_28026">
<rect width="24" height="24" fill="white" transform="translate(8 8.5)"/>
</clipPath>
</defs>
</svg>
