<svg width="40" height="41" viewBox="0 0 40 41" fill="none" xmlns="http://www.w3.org/2000/svg">
<rect y="0.5" width="40" height="40" rx="20" fill="#F4F2FA"/>
<g clip-path="url(#clip0_5203_27591)">
<path d="M13.671 12.757C17.599 9.538 23.404 9.762 27.071 13.429C30.976 17.334 30.976 23.666 27.071 27.571C23.166 31.476 16.834 31.476 12.929 27.571C11.7306 26.3743 10.8561 24.8926 10.3875 23.2651C9.91884 21.6376 9.87154 19.9178 10.25 18.267L10.327 17.954L12.261 18.464C11.7815 20.2863 11.9607 22.2193 12.7669 23.9224C13.5731 25.6255 14.9545 26.9894 16.6678 27.7737C18.3811 28.558 20.3163 28.7123 22.1323 28.2096C23.9482 27.7068 25.5284 26.5792 26.5944 25.0254C27.6604 23.4717 28.1437 21.5915 27.9592 19.7163C27.7747 17.841 26.9342 16.0911 25.5859 14.7749C24.2375 13.4587 22.4678 12.6607 20.5887 12.5215C18.7095 12.3823 16.8416 12.9108 15.314 14.014L15.093 14.18L16.11 15.197L11.514 16.257L12.574 11.661L13.671 12.757ZM21 14.5V16.5H23.5V18.5H18C17.8751 18.4998 17.7545 18.5463 17.6622 18.6305C17.5699 18.7147 17.5124 18.8304 17.5011 18.9548C17.4898 19.0793 17.5255 19.2034 17.6012 19.3028C17.6769 19.4023 17.7871 19.4697 17.91 19.492L18 19.5H22C22.663 19.5 23.2989 19.7634 23.7678 20.2322C24.2366 20.7011 24.5 21.337 24.5 22C24.5 22.663 24.2366 23.2989 23.7678 23.7678C23.2989 24.2366 22.663 24.5 22 24.5H21V26.5H19V24.5H16.5V22.5H22C22.1249 22.5002 22.2455 22.4537 22.3378 22.3695C22.4301 22.2853 22.4876 22.1696 22.4989 22.0452C22.5102 21.9207 22.4745 21.7966 22.3988 21.6972C22.3231 21.5977 22.2129 21.5303 22.09 21.508L22 21.5H18C17.337 21.5 16.7011 21.2366 16.2322 20.7678C15.7634 20.2989 15.5 19.663 15.5 19C15.5 18.337 15.7634 17.7011 16.2322 17.2322C16.7011 16.7634 17.337 16.5 18 16.5H19V14.5H21Z" fill="#05058C"/>
</g>
<defs>
<clipPath id="clip0_5203_27591">
<rect width="24" height="24" fill="white" transform="translate(8 8.5)"/>
</clipPath>
</defs>
</svg>
