<svg width="40" height="41" viewBox="0 0 40 41" fill="none" xmlns="http://www.w3.org/2000/svg">
<rect y="0.5" width="40" height="40" rx="20" fill="#F4F2FA"/>
<g clip-path="url(#clip0_5203_27597)">
<path d="M25 10.5V12.5H24V26.5C24 28.71 22.21 30.5 20 30.5C17.79 30.5 16 28.71 16 26.5V12.5H15V10.5H25ZM21 23.5C20.448 23.5 20 23.948 20 24.5C20 25.052 20.448 25.5 21 25.5C21.552 25.5 22 25.052 22 24.5C22 23.948 21.552 23.5 21 23.5ZM19 20.5C18.448 20.5 18 20.948 18 21.5C18 22.052 18.448 22.5 19 22.5C19.552 22.5 20 22.052 20 21.5C20 20.948 19.552 20.5 19 20.5ZM22 12.5H18V16.5H22V12.5Z" fill="#05058C"/>
</g>
<defs>
<clipPath id="clip0_5203_27597">
<rect width="24" height="24" fill="white" transform="translate(8 8.5)"/>
</clipPath>
</defs>
</svg>
