<svg width="40" height="41" viewBox="0 0 40 41" fill="none" xmlns="http://www.w3.org/2000/svg">
<rect y="0.5" width="40" height="40" rx="20" fill="#F4F2FA"/>
<g clip-path="url(#clip0_5203_28577)">
<path d="M20 10.5C25.523 10.5 30 14.977 30 20.5C30 26.023 25.523 30.5 20 30.5C17.6685 30.5034 15.4096 29.6888 13.617 28.198L13.373 27.989L14.275 26.087C15.563 27.4071 17.2675 28.2416 19.1001 28.4493C20.9327 28.657 22.7808 28.2252 24.3315 27.2268C25.8823 26.2285 27.0405 24.725 27.61 22.9708C28.1796 21.2166 28.1256 19.3195 27.4571 17.6006C26.7886 15.8817 25.5467 14.4465 23.9417 13.5381C22.3366 12.6296 20.4669 12.3036 18.6491 12.6153C16.8313 12.927 15.1771 13.8572 13.9663 15.2484C12.7555 16.6397 12.0627 18.4066 12.005 20.25L12 20.5H14.5L11.794 26.216C10.6232 24.5401 9.99683 22.5444 10 20.5C10 14.977 14.477 10.5 20 10.5ZM21 14.5V16.5H23.5V18.5H18C17.8751 18.4998 17.7545 18.5463 17.6622 18.6305C17.5699 18.7147 17.5124 18.8304 17.5011 18.9548C17.4898 19.0793 17.5255 19.2034 17.6012 19.3028C17.6769 19.4023 17.7871 19.4697 17.91 19.492L18 19.5H22C22.663 19.5 23.2989 19.7634 23.7678 20.2322C24.2366 20.7011 24.5 21.337 24.5 22C24.5 22.663 24.2366 23.2989 23.7678 23.7678C23.2989 24.2366 22.663 24.5 22 24.5H21V26.5H19V24.5H16.5V22.5H22C22.1249 22.5002 22.2455 22.4537 22.3378 22.3695C22.4301 22.2853 22.4876 22.1696 22.4989 22.0452C22.5102 21.9207 22.4745 21.7966 22.3988 21.6972C22.3231 21.5977 22.2129 21.5303 22.09 21.508L22 21.5H18C17.337 21.5 16.7011 21.2366 16.2322 20.7678C15.7634 20.2989 15.5 19.663 15.5 19C15.5 18.337 15.7634 17.7011 16.2322 17.2322C16.7011 16.7634 17.337 16.5 18 16.5H19V14.5H21Z" fill="#05058C"/>
</g>
<defs>
<clipPath id="clip0_5203_28577">
<rect width="24" height="24" fill="white" transform="translate(8 8.5)"/>
</clipPath>
</defs>
</svg>
