<svg width="41" height="40" viewBox="0 0 41 40" fill="none" xmlns="http://www.w3.org/2000/svg">
<rect x="0.5" width="40" height="40" rx="20" fill="#F4F2FA"/>
<g clip-path="url(#clip0_5203_28221)">
<path d="M13.429 27.071C12.499 26.1434 11.7615 25.0413 11.2589 23.8278C10.7562 22.6143 10.4983 21.3135 10.5 20C10.5 14.477 14.977 10 20.5 10C26.023 10 30.5 14.477 30.5 20C30.5 25.523 26.023 30 20.5 30H10.5L13.429 27.071ZM16.5 21C16.5 22.0609 16.9214 23.0783 17.6716 23.8284C18.4217 24.5786 19.4391 25 20.5 25C21.5609 25 22.5783 24.5786 23.3284 23.8284C24.0786 23.0783 24.5 22.0609 24.5 21H16.5Z" fill="#05058C"/>
</g>
<defs>
<clipPath id="clip0_5203_28221">
<rect width="24" height="24" fill="white" transform="translate(8.5 8)"/>
</clipPath>
</defs>
</svg>
