<svg width="41" height="40" viewBox="0 0 41 40" fill="none" xmlns="http://www.w3.org/2000/svg">
<rect x="0.5" width="40" height="40" rx="20" fill="#F4F2FA"/>
<g clip-path="url(#clip0_5203_28229)">
<path d="M20.5 30C14.977 30 10.5 25.523 10.5 20C10.5 14.477 14.977 10 20.5 10C26.023 10 30.5 14.477 30.5 20C30.5 25.523 26.023 30 20.5 30ZM25.32 25.076C26.5271 23.9319 27.2874 22.3953 27.4647 20.7416C27.6419 19.0879 27.2246 17.4251 26.2874 16.0511C25.3503 14.6771 23.9545 13.6817 22.3502 13.2432C20.7458 12.8047 19.0378 12.9517 17.532 13.658L18.507 15.413C19.2679 15.0823 20.0992 14.9461 20.9259 15.0168C21.7525 15.0875 22.5486 15.3627 23.2424 15.8178C23.9361 16.2729 24.5057 16.8934 24.8999 17.6235C25.294 18.3536 25.5002 19.1703 25.5 20H22.5L25.32 25.076ZM23.468 26.342L22.493 24.587C21.7321 24.9177 20.9008 25.0539 20.0741 24.9832C19.2475 24.9125 18.4514 24.6373 17.7576 24.1822C17.0639 23.7271 16.4943 23.1066 16.1001 22.3765C15.706 21.6464 15.4998 20.8297 15.5 20H18.5L15.68 14.924C14.4729 16.0681 13.7126 17.6047 13.5353 19.2584C13.3581 20.9121 13.7754 22.5749 14.7126 23.9489C15.6497 25.3229 17.0455 26.3183 18.6498 26.7568C20.2542 27.1953 21.9622 27.0483 23.468 26.342Z" fill="#05058C"/>
</g>
<defs>
<clipPath id="clip0_5203_28229">
<rect width="24" height="24" fill="white" transform="translate(8.5 8)"/>
</clipPath>
</defs>
</svg>
