<svg width="40" height="40" viewBox="0 0 40 40" fill="none" xmlns="http://www.w3.org/2000/svg">
<rect width="40" height="40" rx="20" fill="#F4F2FA"/>
<g clip-path="url(#clip0_5203_27870)">
<path d="M24 10L29 15V29.008C28.9997 29.2712 28.895 29.5235 28.7088 29.7095C28.5226 29.8955 28.2702 30 28.007 30H11.993C11.7304 29.9982 11.479 29.8931 11.2932 29.7075C11.1074 29.5219 11.0021 29.2706 11 29.008V10.992C11 10.444 11.445 10 11.993 10H24ZM21.529 22.446L23.739 24.656L25.154 23.243L22.944 21.033C23.4365 20.1941 23.6066 19.2045 23.4224 18.2493C23.2383 17.2941 22.7125 16.4386 21.9434 15.8429C21.1743 15.2472 20.2146 14.9521 19.2436 15.0126C18.2727 15.0732 17.3571 15.4854 16.668 16.172C15.979 16.8604 15.5649 17.7765 15.5033 18.7485C15.4416 19.7205 15.7368 20.6816 16.3333 21.4515C16.9298 22.2214 17.7867 22.7472 18.7432 22.9303C19.6998 23.1134 20.6903 22.9412 21.529 22.446ZM20.911 20.414C20.7265 20.605 20.5058 20.7574 20.2618 20.8622C20.0178 20.967 19.7554 21.0222 19.4898 21.0245C19.2242 21.0268 18.9609 20.9762 18.7151 20.8756C18.4693 20.7751 18.246 20.6266 18.0582 20.4388C17.8704 20.251 17.7219 20.0277 17.6214 19.7819C17.5208 19.5361 17.4702 19.2728 17.4725 19.0072C17.4748 18.7416 17.53 18.4792 17.6348 18.2352C17.7396 17.9912 17.892 17.7705 18.083 17.586C18.4602 17.2217 18.9654 17.0201 19.4898 17.0247C20.0142 17.0292 20.5158 17.2395 20.8866 17.6104C21.2575 17.9812 21.4678 18.4828 21.4723 19.0072C21.4769 19.5316 21.2753 20.0368 20.911 20.414Z" fill="#05058C"/>
</g>
<defs>
<clipPath id="clip0_5203_27870">
<rect width="24" height="24" fill="white" transform="translate(8 8)"/>
</clipPath>
</defs>
</svg>
