<svg width="40" height="41" viewBox="0 0 40 41" fill="none" xmlns="http://www.w3.org/2000/svg">
<rect y="0.5" width="40" height="40" rx="20" fill="#F4F2FA"/>
<g clip-path="url(#clip0_5203_27595)">
<path d="M20 22.5V30.5H12C12 28.3783 12.8429 26.3434 14.3431 24.8431C15.8434 23.3429 17.8783 22.5 20 22.5ZM20 21.5C16.685 21.5 14 18.815 14 15.5C14 12.185 16.685 9.5 20 9.5C23.315 9.5 26 12.185 26 15.5C26 18.815 23.315 21.5 20 21.5ZM29.446 28.532L30.95 30.036L29.536 31.45L28.032 29.946C27.1933 30.4405 26.2031 30.6121 25.247 30.4288C24.2908 30.2454 23.4343 29.7196 22.8381 28.9499C22.2419 28.1802 21.9469 27.2195 22.0083 26.2479C22.0698 25.2762 22.4835 24.3604 23.1719 23.6719C23.8604 22.9835 24.7762 22.5698 25.7479 22.5083C26.7195 22.4469 27.6802 22.7419 28.4499 23.3381C29.2196 23.9343 29.7454 24.7908 29.9288 25.747C30.1121 26.7031 29.9405 27.6933 29.446 28.532ZM26 28.5C26.5304 28.5 27.0391 28.2893 27.4142 27.9142C27.7893 27.5391 28 27.0304 28 26.5C28 25.9696 27.7893 25.4609 27.4142 25.0858C27.0391 24.7107 26.5304 24.5 26 24.5C25.4696 24.5 24.9609 24.7107 24.5858 25.0858C24.2107 25.4609 24 25.9696 24 26.5C24 27.0304 24.2107 27.5391 24.5858 27.9142C24.9609 28.2893 25.4696 28.5 26 28.5Z" fill="#05058C"/>
</g>
<defs>
<clipPath id="clip0_5203_27595">
<rect width="24" height="24" fill="white" transform="translate(8 8.5)"/>
</clipPath>
</defs>
</svg>
