<svg width="40" height="41" viewBox="0 0 40 41" fill="none" xmlns="http://www.w3.org/2000/svg">
<rect y="0.5" width="40" height="40" rx="20" fill="#F4F2FA"/>
<g clip-path="url(#clip0_5203_28789)">
<path d="M28 30.5H12C11.7348 30.5 11.4804 30.3946 11.2929 30.2071C11.1054 30.0196 11 29.7652 11 29.5V11.5C11 11.2348 11.1054 10.9804 11.2929 10.7929C11.4804 10.6054 11.7348 10.5 12 10.5H28C28.2652 10.5 28.5196 10.6054 28.7071 10.7929C28.8946 10.9804 29 11.2348 29 11.5V29.5C29 29.7652 28.8946 30.0196 28.7071 30.2071C28.5196 30.3946 28.2652 30.5 28 30.5ZM15 14.5V18.5H19V14.5H15ZM15 20.5V22.5H25V20.5H15ZM15 24.5V26.5H25V24.5H15ZM21 15.5V17.5H25V15.5H21Z" fill="#05058C"/>
</g>
<defs>
<clipPath id="clip0_5203_28789">
<rect width="24" height="24" fill="white" transform="translate(8 8.5)"/>
</clipPath>
</defs>
</svg>
