<svg width="40" height="40" viewBox="0 0 40 40" fill="none" xmlns="http://www.w3.org/2000/svg">
<rect width="40" height="40" rx="20" fill="#F4F2FA"/>
<g clip-path="url(#clip0_5203_27876)">
<path d="M28.083 18.5L29.285 19.221C29.3592 19.2654 29.4205 19.3282 29.4632 19.4034C29.5058 19.4786 29.5282 19.5636 29.5282 19.65C29.5282 19.7364 29.5058 19.8214 29.4632 19.8966C29.4205 19.9718 29.3592 20.0346 29.285 20.079L20 25.65L10.715 20.079C10.6408 20.0346 10.5795 19.9718 10.5368 19.8966C10.4942 19.8214 10.4718 19.7364 10.4718 19.65C10.4718 19.5636 10.4942 19.4786 10.5368 19.4034C10.5795 19.3282 10.6408 19.2654 10.715 19.221L11.917 18.5L20 23.35L28.083 18.5ZM28.083 23.2L29.285 23.921C29.3592 23.9654 29.4205 24.0282 29.4632 24.1034C29.5058 24.1786 29.5282 24.2636 29.5282 24.35C29.5282 24.4364 29.5058 24.5214 29.4632 24.5966C29.4205 24.6718 29.3592 24.7346 29.285 24.779L20.515 30.041C20.3595 30.1344 20.1814 30.1838 20 30.1838C19.8186 30.1838 19.6405 30.1344 19.485 30.041L10.715 24.779C10.6408 24.7346 10.5795 24.6718 10.5368 24.5966C10.4942 24.5214 10.4718 24.4364 10.4718 24.35C10.4718 24.2636 10.4942 24.1786 10.5368 24.1034C10.5795 24.0282 10.6408 23.9654 10.715 23.921L11.917 23.2L20 28.05L28.083 23.2ZM20.514 9.309L29.285 14.571C29.3592 14.6154 29.4205 14.6782 29.4632 14.7534C29.5058 14.8286 29.5282 14.9136 29.5282 15C29.5282 15.0864 29.5058 15.1714 29.4632 15.2466C29.4205 15.3218 29.3592 15.3846 29.285 15.429L20 21L10.715 15.429C10.6408 15.3846 10.5795 15.3218 10.5368 15.2466C10.4942 15.1714 10.4718 15.0864 10.4718 15C10.4718 14.9136 10.4942 14.8286 10.5368 14.7534C10.5795 14.6782 10.6408 14.6154 10.715 14.571L19.485 9.309C19.6405 9.21556 19.8186 9.16619 20 9.16619C20.1814 9.16619 20.3595 9.21556 20.515 9.309H20.514Z" fill="#05058C"/>
</g>
<defs>
<clipPath id="clip0_5203_27876">
<rect width="24" height="24" fill="white" transform="translate(8 8)"/>
</clipPath>
</defs>
</svg>
