<svg width="41" height="40" viewBox="0 0 41 40" fill="none" xmlns="http://www.w3.org/2000/svg">
<rect x="0.5" width="40" height="40" rx="20" fill="#F4F2FA"/>
<g clip-path="url(#clip0_5203_28225)">
<path d="M14.5 29.5C12.567 29.5 11 27.933 11 26C11 24.067 12.567 22.5 14.5 22.5C16.085 22.5 17.424 23.554 17.855 25H23.5V23H25.5V17.242L23.257 15H17.5V17H11.5V11H17.5V13H23.257L26.5 9.756L30.743 14L27.5 17.241V23H29.5V29H23.5V27H17.855C17.425 28.446 16.085 29.5 14.5 29.5ZM14.5 24.5C13.672 24.5 13 25.172 13 26C13 26.828 13.672 27.5 14.5 27.5C15.328 27.5 16 26.828 16 26C16 25.172 15.328 24.5 14.5 24.5ZM27.5 25H25.5V27H27.5V25ZM26.5 12.586L25.086 14L26.5 15.414L27.914 14L26.5 12.586ZM15.5 13H13.5V15H15.5V13Z" fill="#05058C"/>
</g>
<defs>
<clipPath id="clip0_5203_28225">
<rect width="24" height="24" fill="white" transform="translate(8.5 8)"/>
</clipPath>
</defs>
</svg>
