<svg width="41" height="40" viewBox="0 0 41 40" fill="none" xmlns="http://www.w3.org/2000/svg">
<g clip-path="url(#clip0_4343_16341)">
<path d="M40.3496 24.4125C37.1121 18.3375 29.9746 11.25 20.4996 11.25C11.0246 11.25 3.8871 18.3375 0.649597 24.4125C0.553296 24.5934 0.50293 24.7951 0.50293 25C0.50293 25.2049 0.553296 25.4066 0.649597 25.5875C1.13033 26.4935 1.66461 27.37 2.2496 28.2125C2.45979 28.4136 2.73353 28.5351 3.02366 28.556C3.31379 28.577 3.60214 28.4961 3.83905 28.3273C4.07595 28.1585 4.24657 27.9124 4.32151 27.6313C4.39645 27.3502 4.37102 27.0518 4.2496 26.7875C3.8496 26.2125 3.4746 25.6125 3.1246 25C4.47913 22.6607 6.19632 20.5511 8.2121 18.75C7.21155 20.6814 6.68932 22.8248 6.68932 25C6.68932 27.1752 7.21155 29.3186 8.2121 31.25C7.8996 30.975 7.5746 30.7 7.2621 30.4C7.02268 30.2177 6.72553 30.1279 6.4252 30.147C6.12488 30.1662 5.84155 30.293 5.62725 30.5043C5.41294 30.7156 5.28205 30.9971 5.2586 31.2971C5.23515 31.5971 5.32072 31.8955 5.4996 32.1375C9.09038 35.8299 13.8641 38.1438 18.9871 38.675C27.6621 39.5875 36.1496 33.375 40.2371 25.5875C40.3512 25.4161 40.4212 25.2191 40.4408 25.0141C40.4604 24.8091 40.4291 24.6025 40.3496 24.4125ZM9.2496 25C9.26368 22.7246 9.96742 20.507 11.2679 18.6398C12.5684 16.7727 14.4045 15.3438 16.5339 14.5417C18.6633 13.7396 20.9858 13.6021 23.195 14.1474C25.4041 14.6926 27.396 15.8949 28.9077 17.5955C30.4194 19.2962 31.3799 21.4153 31.6624 23.6732C31.9448 25.931 31.536 28.2214 30.4898 30.2421C29.4436 32.2627 27.8093 33.9187 25.8025 34.9913C23.7958 36.0639 21.5109 36.5028 19.2496 36.25C16.4875 35.9412 13.9375 34.621 12.091 32.5437C10.2446 30.4665 9.23239 27.7792 9.2496 25ZM32.7371 31.25C33.7366 29.3183 34.2583 27.175 34.2583 25C34.2583 22.825 33.7366 20.6817 32.7371 18.75C34.7529 20.5511 36.4701 22.6607 37.8246 25C36.4701 27.3393 34.7529 29.4489 32.7371 31.25Z" fill="#000033"/>
<path d="M0.599625 24.4125C3.83712 18.3375 10.9746 11.25 20.4496 11.25C29.9246 11.25 37.0621 18.3375 40.2996 24.4125C40.3959 24.5934 40.4463 24.7951 40.4463 25C40.4463 25.2049 40.3959 25.4066 40.2996 25.5875C39.8189 26.4935 39.2846 27.37 38.6996 28.2125C38.4894 28.4136 38.2157 28.5351 37.9256 28.556C37.6354 28.577 37.3471 28.4961 37.1102 28.3273C36.8733 28.1585 36.7026 27.9124 36.6277 27.6313C36.5528 27.3502 36.5782 27.0518 36.6996 26.7875C37.0996 26.2125 37.4746 25.6125 37.8246 25C36.4701 22.6607 34.7529 20.5511 32.7371 18.75C33.7377 20.6814 34.2599 22.8248 34.2599 25C34.2599 27.1752 33.7377 29.3186 32.7371 31.25C33.0496 30.975 33.3746 30.7 33.6871 30.4C33.9265 30.2177 34.2237 30.1279 34.524 30.147C34.8243 30.1662 35.1077 30.293 35.322 30.5043C35.5363 30.7156 35.6672 30.9971 35.6906 31.2971C35.7141 31.5971 35.6285 31.8955 35.4496 32.1375C31.8588 35.8299 27.0852 38.1438 21.9621 38.675C13.2871 39.5875 4.79962 33.375 0.712124 25.5875C0.598038 25.4161 0.528071 25.2191 0.508444 25.0141C0.488818 24.8091 0.520141 24.6025 0.599625 24.4125ZM31.6996 25C31.6855 22.7246 30.9818 20.507 29.6813 18.6398C28.3808 16.7727 26.5447 15.3438 24.4153 14.5417C22.2859 13.7396 19.9634 13.6021 17.7542 14.1474C15.5451 14.6926 13.5532 15.8949 12.0415 17.5955C10.5298 19.2962 9.5693 21.4153 9.28685 23.6732C9.0044 25.931 9.41324 28.2214 10.4594 30.2421C11.5056 32.2627 13.1399 33.9187 15.1467 34.9913C17.1534 36.0639 19.4383 36.5028 21.6996 36.25C24.4617 35.9412 27.0117 34.621 28.8582 32.5437C30.7046 30.4665 31.7168 27.7792 31.6996 25ZM8.21212 31.25C7.21258 29.3183 6.69093 27.175 6.69093 25C6.69093 22.825 7.21258 20.6817 8.21212 18.75C6.19634 20.5511 4.47915 22.6607 3.12462 25C4.47915 27.3393 6.19634 29.4489 8.21212 31.25Z" fill="#000033"/>
<path d="M20.5 8.75C20.1685 8.75 19.8505 8.6183 19.6161 8.38388C19.3817 8.14946 19.25 7.83152 19.25 7.5V2.5C19.25 2.16848 19.3817 1.85054 19.6161 1.61612C19.8505 1.3817 20.1685 1.25 20.5 1.25C20.8315 1.25 21.1495 1.3817 21.3839 1.61612C21.6183 1.85054 21.75 2.16848 21.75 2.5V7.5C21.75 7.83152 21.6183 8.14946 21.3839 8.38388C21.1495 8.6183 20.8315 8.75 20.5 8.75Z" fill="#000033"/>
<path d="M10.4993 10.0012C9.82426 10.0012 9.78676 9.81371 7.11176 7.13871C6.87638 6.90333 6.74414 6.58409 6.74414 6.25121C6.74414 5.91833 6.87638 5.59909 7.11176 5.36371C7.34713 5.12833 7.66638 4.99609 7.99926 4.99609C8.33213 4.99609 8.65138 5.12833 8.88676 5.36371L11.3868 7.86371C11.563 8.03855 11.6833 8.26192 11.7321 8.50536C11.7809 8.74879 11.7562 9.00126 11.661 9.23056C11.5658 9.45987 11.4044 9.65562 11.1975 9.79287C10.9906 9.93013 10.7475 10.0027 10.4993 10.0012V10.0012Z" fill="#000033"/>
<path d="M30.4995 10.0012C30.2512 10.0027 30.0081 9.93012 29.8012 9.79287C29.5943 9.65562 29.433 9.45987 29.3377 9.23056C29.2425 9.00126 29.2178 8.74879 29.2666 8.50536C29.3154 8.26192 29.4357 8.03855 29.612 7.86371L32.112 5.36371C32.3473 5.12833 32.6666 4.99609 32.9995 4.99609C33.3323 4.99609 33.6516 5.12833 33.887 5.36371C34.1223 5.59909 34.2546 5.91833 34.2546 6.25121C34.2546 6.58409 34.1223 6.90333 33.887 7.13871C31.162 9.86371 31.1745 10.0012 30.4995 10.0012Z" fill="#000033"/>
<path d="M17.9992 30.0019C17.7371 30.0025 17.4815 29.9208 17.2684 29.7683C17.0553 29.6158 16.8955 29.4001 16.8117 29.1519L15.4992 25.2019L14.2492 29.1519C14.1431 29.4668 13.9162 29.7267 13.6185 29.8744C13.3208 30.0221 12.9766 30.0455 12.6617 29.9394C12.3467 29.8333 12.0868 29.6064 11.9391 29.3087C11.7914 29.011 11.7681 28.6668 11.8742 28.3519L14.3742 20.8519C14.4564 20.6018 14.6154 20.384 14.8286 20.2297C15.0419 20.0753 15.2984 19.9922 15.5617 19.9922C15.8249 19.9922 16.0814 20.0753 16.2947 20.2297C16.5079 20.384 16.667 20.6018 16.7492 20.8519L19.2492 28.3519C19.3148 28.5453 19.3321 28.7518 19.2994 28.9535C19.2667 29.1551 19.1852 29.3456 19.0618 29.5085C18.9385 29.6713 18.7771 29.8014 18.5919 29.8874C18.4066 29.9734 18.2031 30.0127 17.9992 30.0019Z" fill="#100FA8"/>
<path d="M24.25 30H23C22.6685 30 22.3505 29.8683 22.1161 29.6339C21.8817 29.3995 21.75 29.0815 21.75 28.75V21.25C21.75 20.9185 21.8817 20.6005 22.1161 20.3661C22.3505 20.1317 22.6685 20 23 20H24.25C25.5761 20 26.8479 20.5268 27.7855 21.4645C28.7232 22.4021 29.25 23.6739 29.25 25C29.25 26.3261 28.7232 27.5979 27.7855 28.5355C26.8479 29.4732 25.5761 30 24.25 30ZM24.25 22.5V27.5C24.913 27.5 25.5489 27.2366 26.0178 26.7678C26.4866 26.2989 26.75 25.663 26.75 25C26.75 24.337 26.4866 23.7011 26.0178 23.2322C25.5489 22.7634 24.913 22.5 24.25 22.5Z" fill="#100FA8"/>
</g>
<defs>
<clipPath id="clip0_4343_16341">
<rect width="40" height="40" fill="white" transform="translate(0.5)"/>
</clipPath>
</defs>
</svg>
