<svg width="40" height="40" viewBox="0 0 40 40" fill="none" xmlns="http://www.w3.org/2000/svg">
<g clip-path="url(#clip0_5202_28414)">
<rect width="40" height="40" fill="white"/>
<path d="M33.75 17.5001V10.0001C33.75 6.56255 26.625 5.00005 20 5.00005C18.274 4.9973 16.5496 5.10586 14.8375 5.32505C14.6733 5.34639 14.515 5.39985 14.3715 5.48239C14.228 5.56492 14.1022 5.67491 14.0012 5.80607C13.9002 5.93723 13.8261 6.087 13.783 6.24683C13.7399 6.40665 13.7287 6.5734 13.75 6.73755C13.7713 6.9017 13.8248 7.06005 13.9073 7.20354C13.9899 7.34703 14.0999 7.47286 14.231 7.57384C14.3622 7.67482 14.512 7.74898 14.6718 7.79209C14.8316 7.83519 14.9983 7.84639 15.1625 7.82505C16.7663 7.6121 18.3822 7.50354 20 7.50005C27.3125 7.50005 31.05 9.32505 31.25 10.0001C31.25 10.6501 28.5875 11.5251 26.7125 11.9126C24.0645 12.4141 21.3678 12.6112 18.675 12.5001C12.25 12.2751 8.95 10.6501 8.75 10.0001C8.75 9.86255 9.2 9.40005 10.4625 8.90005C10.6153 8.83944 10.7546 8.7493 10.8724 8.63479C10.9903 8.52027 11.0845 8.38364 11.1495 8.23271C11.2145 8.08178 11.2491 7.9195 11.2513 7.75518C11.2536 7.59085 11.2234 7.4277 11.1625 7.27505C11.1019 7.1223 11.0117 6.98299 10.8972 6.86511C10.7827 6.74723 10.6461 6.65309 10.4952 6.58807C10.3442 6.52306 10.182 6.48844 10.0176 6.4862C9.8533 6.48397 9.69015 6.51416 9.5375 6.57505C7.35 7.50005 6.25 8.60005 6.25 10.0001V17.5001C6.2802 18.0143 6.4391 18.5127 6.71212 18.9495C6.98513 19.3863 7.3635 19.7476 7.8125 20.0001C7.3635 20.2525 6.98513 20.6138 6.71212 21.0506C6.4391 21.4874 6.2802 21.9858 6.25 22.5001V30C6.25 36.6751 33.75 36.6625 33.75 30V22.5001C33.7198 21.9858 33.5609 21.4874 33.2879 21.0506C33.0149 20.6138 32.6365 20.2525 32.1875 20.0001C32.6365 19.7476 33.0149 19.3863 33.2879 18.9495C33.5609 18.5127 33.7198 18.0143 33.75 17.5001ZM31.25 13.0376V17.5001C31.0625 18.1876 27.325 20.0001 20 20.0001C12.675 20.0001 8.9375 18.1751 8.75 17.5001V13.0376C13.9375 15.6501 26.0875 15.6376 31.25 13.0376ZM20 32.5C12.675 32.5 8.9375 30.6751 8.75 30V25.5375C13.925 28.1376 26.0625 28.1501 31.25 25.5375V30C31.0625 30.6751 27.325 32.5 20 32.5ZM31.25 22.5001C31.25 22.9001 29.7625 23.6251 28.05 24.0876C24.9841 24.8346 21.8275 25.1418 18.675 25C12.25 24.775 8.95 23.1501 8.75 22.5001C8.75 22.3376 9.275 21.8376 10.725 21.2501C16.8065 22.8374 23.1935 22.8374 29.275 21.2501C30.75 21.8501 31.25 22.3626 31.25 22.5001Z" fill="#000033"/>
<path d="M21.2501 10C21.037 9.99936 20.8277 9.94425 20.6419 9.83992C20.4561 9.73559 20.3 9.5855 20.1886 9.4039C20.0771 9.2223 20.0139 9.01522 20.005 8.80232C19.9961 8.58943 20.0417 8.37779 20.1376 8.1875L23.8876 0.6875C23.9915 0.481357 24.1504 0.308003 24.3468 0.186654C24.5432 0.0653046 24.7693 0.000699632 25.0001 0L38.7501 0C39.0816 0 39.3996 0.131696 39.634 0.366117C39.8684 0.600537 40.0001 0.918479 40.0001 1.25C40.0001 1.58152 39.8684 1.89946 39.634 2.13388C39.3996 2.3683 39.0816 2.5 38.7501 2.5H25.7751L22.3626 9.3125C22.2587 9.51864 22.0998 9.692 21.9035 9.81335C21.7071 9.9347 21.481 9.9993 21.2501 10Z" fill="#05058C"/>
<path d="M38.75 7.5H36.25C35.9185 7.5 35.6005 7.3683 35.3661 7.13388C35.1317 6.89946 35 6.58152 35 6.25C35 5.91848 35.1317 5.60054 35.3661 5.36612C35.6005 5.1317 35.9185 5 36.25 5H38.75C39.0815 5 39.3995 5.1317 39.6339 5.36612C39.8683 5.60054 40 5.91848 40 6.25C40 6.58152 39.8683 6.89946 39.6339 7.13388C39.3995 7.3683 39.0815 7.5 38.75 7.5Z" fill="#05058C"/>
<path d="M15 39.9992H1.25C0.918479 39.9992 0.600537 39.8675 0.366116 39.633C0.131696 39.3986 0 39.0807 0 38.7492C0 38.4176 0.131696 38.0997 0.366116 37.8653C0.600537 37.6308 0.918479 37.4992 1.25 37.4992H14.1L16.3125 30.8492C16.365 30.6932 16.4478 30.5491 16.556 30.4252C16.6642 30.3012 16.7957 30.1997 16.9432 30.1266C17.0906 30.0535 17.2509 30.0101 17.4151 29.999C17.5793 29.9878 17.7441 30.0091 17.9 30.0617C18.0559 30.1142 18.2 30.1969 18.324 30.3051C18.448 30.4133 18.5494 30.5449 18.6225 30.6923C18.6957 30.8397 18.739 31.0001 18.7502 31.1643C18.7613 31.3284 18.74 31.4932 18.6875 31.6492L16.1875 39.1492C16.1036 39.3974 15.9439 39.6131 15.7308 39.7656C15.5177 39.9181 15.2621 39.9998 15 39.9992Z" fill="#05058C"/>
<path d="M3.75 35H1.25C0.918479 35 0.600537 34.8683 0.366117 34.6339C0.131696 34.3995 0 34.0815 0 33.75C0 33.4185 0.131696 33.1005 0.366117 32.8661C0.600537 32.6317 0.918479 32.5 1.25 32.5H3.75C4.08152 32.5 4.39946 32.6317 4.63388 32.8661C4.8683 33.1005 5 33.4185 5 33.75C5 34.0815 4.8683 34.3995 4.63388 34.6339C4.39946 34.8683 4.08152 35 3.75 35Z" fill="#05058C"/>
</g>
<defs>
<clipPath id="clip0_5202_28414">
<rect width="40" height="40" fill="white"/>
</clipPath>
</defs>
</svg>
