<svg width="40" height="40" viewBox="0 0 40 40" fill="none" xmlns="http://www.w3.org/2000/svg">
<rect width="40" height="40" rx="20" fill="#F4F2FA"/>
<g clip-path="url(#clip0_5202_28718)">
<path d="M18.313 19.566L26.253 11.626L28.374 13.747L26.96 15.161L29.081 17.282L25.546 20.818L23.425 18.697L20.435 21.687C20.9856 22.7463 21.1391 23.9676 20.8679 25.1302C20.5967 26.2928 19.9186 27.3201 18.9561 28.0264C17.9936 28.7327 16.8103 29.0715 15.6199 28.9816C14.4294 28.8916 13.3104 28.3789 12.465 27.536C11.6192 26.6915 11.1038 25.572 11.0124 24.3802C10.9209 23.1885 11.2594 22.0034 11.9665 21.0397C12.6736 20.0761 13.7025 19.3976 14.8667 19.1272C16.031 18.8569 17.2536 19.0125 18.313 19.566ZM17.414 25.414C17.605 25.2295 17.7574 25.0088 17.8622 24.7648C17.967 24.5208 18.0222 24.2584 18.0245 23.9928C18.0268 23.7272 17.9762 23.4639 17.8756 23.2181C17.7751 22.9723 17.6266 22.749 17.4388 22.5612C17.251 22.3734 17.0277 22.2249 16.7819 22.1244C16.5361 22.0238 16.2728 21.9732 16.0072 21.9755C15.7416 21.9778 15.4792 22.033 15.2352 22.1378C14.9912 22.2426 14.7705 22.395 14.586 22.586C14.2217 22.9632 14.0201 23.4684 14.0247 23.9928C14.0292 24.5172 14.2395 25.0188 14.6104 25.3896C14.9812 25.7605 15.4828 25.9708 16.0072 25.9753C16.5316 25.9799 17.0368 25.7783 17.414 25.414Z" fill="#05058C"/>
</g>
<defs>
<clipPath id="clip0_5202_28718">
<rect width="24" height="24" fill="white" transform="translate(8 8)"/>
</clipPath>
</defs>
</svg>
