<svg width="40" height="40" viewBox="0 0 40 40" fill="none" xmlns="http://www.w3.org/2000/svg">
<rect width="40" height="40" rx="20" fill="#F4F2FA"/>
<g clip-path="url(#clip0_5201_27051)">
<path d="M24.95 19.95C25.7971 19.1036 26.4128 18.054 26.7381 16.9015C27.0634 15.7491 27.0875 14.5324 26.808 13.368L29.303 12.298C29.3791 12.2654 29.4621 12.2522 29.5445 12.2595C29.627 12.2669 29.7063 12.2946 29.7754 12.3402C29.8445 12.3858 29.9012 12.4479 29.9404 12.5208C29.9796 12.5937 30.0001 12.6752 30 12.758V27L23 30L17 27L10.697 29.701C10.6209 29.7336 10.5379 29.7468 10.4555 29.7395C10.373 29.7321 10.2937 29.7044 10.2246 29.6588C10.1555 29.6132 10.0988 29.5511 10.0596 29.4782C10.0204 29.4053 9.99993 29.3238 10 29.241V15L13.129 13.659C12.9088 14.7846 12.9689 15.947 13.3039 17.0439C13.6389 18.1408 14.2385 19.1385 15.05 19.949L20 24.9L24.95 19.95ZM23.536 18.536L20 22.07L16.464 18.535C15.7649 17.8357 15.2888 16.9448 15.096 15.9749C14.9032 15.005 15.0023 13.9998 15.3807 13.0862C15.7592 12.1727 16.4001 11.3918 17.2223 10.8425C18.0445 10.2931 19.0111 9.99993 20 9.99993C20.9889 9.99993 21.9555 10.2931 22.7777 10.8425C23.5999 11.3918 24.2408 12.1727 24.6193 13.0862C24.9977 13.9998 25.0968 15.005 24.904 15.9749C24.7112 16.9448 24.2351 17.8357 23.536 18.535V18.536Z" fill="#05058C"/>
</g>
<defs>
<clipPath id="clip0_5201_27051">
<rect width="24" height="24" fill="white" transform="translate(8 8)"/>
</clipPath>
</defs>
</svg>
