<svg width="40" height="40" viewBox="0 0 40 40" fill="none" xmlns="http://www.w3.org/2000/svg">
<g clip-path="url(#clip0_5202_29213)">
<rect width="40" height="40" fill="white"/>
<path d="M13.4856 28.7473H9.99813C7.34597 28.8782 4.75041 27.9502 2.78245 26.1675C0.814488 24.3847 -0.364668 21.8932 -0.495618 19.241C-0.626569 16.5889 0.301412 13.9933 2.08418 12.0253C3.86695 10.0574 6.35847 8.87822 9.01063 8.74727C9.24425 7.69217 9.63173 6.67715 10.1606 5.73477C10.2427 5.59196 10.3521 5.46671 10.4826 5.36618C10.6131 5.26565 10.7621 5.1918 10.9211 5.14885C11.0801 5.10591 11.246 5.0947 11.4094 5.11588C11.5727 5.13705 11.7303 5.1902 11.8731 5.27227C12.0159 5.35435 12.1412 5.46375 12.2417 5.59423C12.3423 5.72471 12.4161 5.87372 12.4591 6.03274C12.502 6.19176 12.5132 6.35768 12.492 6.52103C12.4709 6.68438 12.4177 6.84196 12.3356 6.98477C11.7965 7.95993 11.4486 9.02909 11.3106 10.1348C11.2738 10.4397 11.126 10.7203 10.8954 10.9232C10.6649 11.1261 10.3677 11.237 10.0606 11.2348C8.06985 11.2265 6.15731 12.0094 4.74376 13.4112C3.3302 14.813 2.53142 16.719 2.52313 18.7098C2.51484 20.7006 3.29773 22.6131 4.69956 24.0266C6.1014 25.4402 8.00735 26.239 9.99813 26.2473H13.4856C13.8172 26.2473 14.1351 26.379 14.3695 26.6134C14.6039 26.8478 14.7356 27.1658 14.7356 27.4973C14.7356 27.8288 14.6039 28.1467 14.3695 28.3812C14.1351 28.6156 13.8172 28.7473 13.4856 28.7473Z" fill="#000033"/>
<path d="M29.9981 28.7483H26.5106C26.1791 28.7483 25.8611 28.6166 25.6267 28.3822C25.3923 28.1478 25.2606 27.8298 25.2606 27.4983C25.2606 27.1668 25.3923 26.8488 25.6267 26.6144C25.8611 26.38 26.1791 26.2483 26.5106 26.2483H29.9981C31.7035 26.2423 33.3559 25.6553 34.6828 24.5841C36.0098 23.5129 36.9321 22.0214 37.2976 20.3557C37.663 18.6899 37.4499 16.9493 36.6933 15.4209C35.9367 13.8926 34.6818 12.6677 33.1356 11.9483C32.8834 11.8184 32.6829 11.6065 32.567 11.3476C32.4512 11.0886 32.4269 10.7979 32.4981 10.5233C32.5889 10.0926 32.5645 9.64552 32.4271 9.2273C32.2898 8.80907 32.0445 8.43452 31.716 8.14152C31.3874 7.84852 30.9874 7.64746 30.5562 7.55866C30.1251 7.46986 29.6781 7.49647 29.2606 7.63581C28.9781 7.74164 28.6668 7.74173 28.3842 7.63605C28.1016 7.53037 27.8668 7.32606 27.7231 7.06081C27.1655 6.02952 26.4064 5.1208 25.4907 4.38861C24.5751 3.65642 23.5217 3.1157 22.393 2.79856C21.2644 2.48141 20.0835 2.39432 18.9205 2.54244C17.7576 2.69056 16.6362 3.07088 15.6231 3.66081C15.4812 3.74398 15.3242 3.79831 15.1612 3.8207C14.9983 3.8431 14.8325 3.8331 14.6734 3.7913C14.5143 3.74949 14.365 3.6767 14.2341 3.57708C14.1032 3.47747 13.9933 3.353 13.9106 3.21081C13.8279 3.06814 13.7743 2.91054 13.7528 2.74706C13.7314 2.58359 13.7424 2.41748 13.7854 2.25831C13.8284 2.09913 13.9025 1.95003 14.0033 1.8196C14.1042 1.68917 14.2298 1.57997 14.3731 1.49831C16.8495 0.0645923 19.7793 -0.371539 22.566 0.278689C25.3527 0.928918 27.7869 2.61663 29.3731 4.99831C30.0887 4.90787 30.8154 4.97333 31.5033 5.19019C32.1912 5.40706 32.8241 5.77019 33.3585 6.25468C33.8928 6.73917 34.316 7.33354 34.5991 7.997C34.8821 8.66046 35.0182 9.37729 34.9981 10.0983C36.8994 11.2012 38.3844 12.8999 39.2233 14.9316C40.0623 16.9632 40.2085 19.2147 39.6393 21.3378C39.0701 23.4609 37.8172 25.3374 36.0745 26.6769C34.3317 28.0164 32.1961 28.7444 29.9981 28.7483Z" fill="#05058C"/>
<path d="M30 24.9992V19.9992C30 13.3617 10 13.3367 10 19.9992V24.9992C10.0169 25.4812 10.1372 25.9539 10.3529 26.3853C10.5686 26.8166 10.8745 27.1965 11.25 27.4992C10.8782 27.8051 10.5748 28.1858 10.3594 28.6164C10.1441 29.0471 10.0216 29.5182 10 29.9992V34.9992C10 41.6367 30 41.6617 30 34.9992V29.9992C29.9784 29.5182 29.8559 29.0471 29.6406 28.6164C29.4252 28.1858 29.1218 27.8051 28.75 27.4992C29.1255 27.1965 29.4314 26.8166 29.6471 26.3853C29.8628 25.9539 29.9831 25.4812 30 24.9992ZM20 27.4992C15.35 27.4992 12.5 25.8867 12.5 24.9992V23.3992C16.5 25.5617 23.65 25.5117 27.5 23.3992V24.9992C27.5 25.8867 24.65 27.4992 20 27.4992ZM20 17.4992C24.65 17.4992 27.5 19.1117 27.5 19.9992C27.5 20.3242 27.025 20.8742 25.9625 21.3742C22.1258 22.88 17.8617 22.88 14.025 21.3742C12.975 20.8742 12.5 20.3242 12.5 19.9992C12.5 19.1117 15.35 17.4992 20 17.4992ZM27.5 34.9992C27.5 35.8867 24.65 37.4992 20 37.4992C15.35 37.4992 12.5 35.8867 12.5 34.9992V33.3992C16.5 35.5617 23.6375 35.5117 27.5 33.3992V34.9992ZM27.5 29.9992C27.5 30.3242 27.025 30.8742 25.9625 31.3742C22.1258 32.88 17.8617 32.88 14.025 31.3742C12.975 30.8742 12.5 30.3242 12.5 29.9992C12.5 29.6742 12.8375 29.3117 13.55 28.8992C17.7256 30.3617 22.2744 30.3617 26.45 28.8992C27.1625 29.3117 27.5 29.7367 27.5 29.9992Z" fill="#05058C"/>
</g>
<defs>
<clipPath id="clip0_5202_29213">
<rect width="40" height="40" fill="white"/>
</clipPath>
</defs>
</svg>
