<svg width="40" height="40" viewBox="0 0 40 40" fill="none" xmlns="http://www.w3.org/2000/svg">
<g clip-path="url(#clip0_5201_27367)">
<rect width="40" height="40" fill="white"/>
<path d="M20 12.5C18.5166 12.5 17.0666 12.9399 15.8332 13.764C14.5999 14.5881 13.6386 15.7594 13.0709 17.1299C12.5032 18.5003 12.3547 20.0083 12.6441 21.4632C12.9335 22.918 13.6478 24.2544 14.6967 25.3033C15.7456 26.3522 17.082 27.0665 18.5368 27.3559C19.9917 27.6453 21.4997 27.4968 22.8701 26.9291C24.2406 26.3614 25.4119 25.4001 26.236 24.1668C27.0601 22.9334 27.5 21.4834 27.5 20C27.5 18.0109 26.7098 16.1032 25.3033 14.6967C23.8968 13.2902 21.9891 12.5 20 12.5ZM24.825 18.75H21.25V15.175C22.1098 15.3994 22.8943 15.849 23.5227 16.4773C24.151 17.1057 24.6006 17.8902 24.825 18.75ZM20 25C18.7936 24.9855 17.6331 24.5354 16.7326 23.7325C15.8321 22.9296 15.2522 21.8282 15.0999 20.6314C14.9476 19.4346 15.2333 18.2231 15.9041 17.2203C16.5749 16.2175 17.5857 15.4911 18.75 15.175V20C18.75 20.3315 18.8817 20.6495 19.1161 20.8839C19.3505 21.1183 19.6685 21.25 20 21.25H24.825C24.5486 22.3206 23.9251 23.2694 23.0521 23.9479C22.179 24.6264 21.1057 24.9964 20 25Z" fill="#05058C"/>
<path fill-rule="evenodd" clip-rule="evenodd" d="M15.7772 32.1046C15.8593 32.1286 15.9459 32.1481 16.0366 32.1625C25.3366 33.75 34.5741 29.7375 39.8366 20.625C39.9463 20.435 40.0041 20.2194 40.0041 20C40.0041 19.7806 39.9463 19.565 39.8366 19.375C30.6741 3.4875 9.31161 3.5125 0.161609 19.375C0.0518985 19.565 -0.00585938 19.7806 -0.00585938 20C-0.00585938 20.2194 0.0518985 20.435 0.161609 20.625C2.56843 24.9391 6.26064 28.3954 10.7241 30.5125C10.7762 30.5367 10.8279 30.5567 10.8792 30.5727C12.1658 31.1843 13.9015 31.7499 15.7772 32.1046ZM11.9146 28.3246C11.8708 28.2981 11.824 28.2731 11.7741 28.25C7.99686 26.4624 4.83757 23.5903 2.69911 20C10.9366 6.6375 29.0616 6.6375 37.2991 20C35.2394 23.5564 32.1341 26.3919 28.4057 28.1208C24.7704 29.8065 20.7147 30.3604 16.7647 29.7145C16.7113 29.706 16.6587 29.6964 16.6064 29.6879C16.5581 29.6796 16.5099 29.6712 16.4616 29.6625C16.4392 29.6587 16.4166 29.6555 16.394 29.6529C14.5945 29.3507 13.4595 29.0215 11.9146 28.3246Z" fill="#000033"/>
</g>
<defs>
<clipPath id="clip0_5201_27367">
<rect width="40" height="40" fill="white"/>
</clipPath>
</defs>
</svg>
