<svg width="40" height="41" viewBox="0 0 40 41" fill="none" xmlns="http://www.w3.org/2000/svg">
<rect y="0.5" width="40" height="40" rx="20" fill="#F4F2FA"/>
<g clip-path="url(#clip0_5202_28369)">
<path d="M20 30.5C14.477 30.5 10 26.023 10 20.5C10 14.977 14.477 10.5 20 10.5C25.523 10.5 30 14.977 30 20.5C30 26.023 25.523 30.5 20 30.5ZM16.5 22.5V24.5H19V26.5H21V24.5H22C22.663 24.5 23.2989 24.2366 23.7678 23.7678C24.2366 23.2989 24.5 22.663 24.5 22C24.5 21.337 24.2366 20.7011 23.7678 20.2322C23.2989 19.7634 22.663 19.5 22 19.5H18C17.8674 19.5 17.7402 19.4473 17.6464 19.3536C17.5527 19.2598 17.5 19.1326 17.5 19C17.5 18.8674 17.5527 18.7402 17.6464 18.6464C17.7402 18.5527 17.8674 18.5 18 18.5H23.5V16.5H21V14.5H19V16.5H18C17.337 16.5 16.7011 16.7634 16.2322 17.2322C15.7634 17.7011 15.5 18.337 15.5 19C15.5 19.663 15.7634 20.2989 16.2322 20.7678C16.7011 21.2366 17.337 21.5 18 21.5H22C22.1326 21.5 22.2598 21.5527 22.3536 21.6464C22.4473 21.7402 22.5 21.8674 22.5 22C22.5 22.1326 22.4473 22.2598 22.3536 22.3536C22.2598 22.4473 22.1326 22.5 22 22.5H16.5Z" fill="#05058C"/>
</g>
<defs>
<clipPath id="clip0_5202_28369">
<rect width="24" height="24" fill="white" transform="translate(8 8.5)"/>
</clipPath>
</defs>
</svg>
