<svg width="40" height="40" viewBox="0 0 40 40" fill="none" xmlns="http://www.w3.org/2000/svg">
<g clip-path="url(#clip0_5202_28803)">
<rect width="40" height="40" fill="white"/>
<path d="M33.4625 15.7262C33.2004 15.5246 32.869 15.435 32.541 15.4772C32.213 15.5194 31.9151 15.6898 31.7125 15.9512L28.225 20.4137C27.3716 20.0403 26.4296 19.9172 25.5089 20.0589C24.5882 20.2005 23.7267 20.601 23.025 21.2137L18.425 17.9887C18.737 17.1828 18.8347 16.3099 18.7088 15.455C18.5829 14.6001 18.2376 13.7924 17.7065 13.1107C17.1754 12.4291 16.4768 11.8967 15.6786 11.5655C14.8805 11.2342 14.0102 11.1155 13.1525 11.2209C12.2948 11.3263 11.4791 11.6521 10.7849 12.1667C10.0907 12.6812 9.54164 13.3669 9.19137 14.1569C8.84111 14.9468 8.70155 15.8141 8.78631 16.674C8.87107 17.534 9.17725 18.3573 9.675 19.0637L7.2375 21.8012C6.47682 21.4205 5.6316 21.2402 4.7818 21.2773C3.93199 21.3144 3.10571 21.5677 2.38111 22.0133C1.65651 22.4588 1.05755 23.0818 0.640885 23.8234C0.224224 24.565 0.00364006 25.4006 0 26.2512C0 26.5827 0.131696 26.9006 0.366117 27.1351C0.600537 27.3695 0.918479 27.5012 1.25 27.5012C1.58152 27.5012 1.89946 27.3695 2.13388 27.1351C2.3683 26.9006 2.5 26.5827 2.5 26.2512C2.5 25.7567 2.64662 25.2734 2.92133 24.8622C3.19603 24.4511 3.58648 24.1307 4.04329 23.9415C4.50011 23.7522 5.00277 23.7027 5.48773 23.7992C5.97268 23.8957 6.41814 24.1338 6.76777 24.4834C7.1174 24.833 7.3555 25.2785 7.45196 25.7634C7.54843 26.2484 7.49892 26.7511 7.3097 27.2079C7.12048 27.6647 6.80005 28.0551 6.38893 28.3298C5.9778 28.6045 5.49445 28.7512 5 28.7512C4.66848 28.7512 4.35054 28.8829 4.11612 29.1173C3.8817 29.3517 3.75 29.6696 3.75 30.0012C3.75 30.3327 3.8817 30.6506 4.11612 30.8851C4.35054 31.1195 4.66848 31.2512 5 31.2512C5.90823 31.2495 6.79886 31.0006 7.57626 30.531C8.35366 30.0614 8.98847 29.3889 9.41254 28.5857C9.8366 27.7826 10.0339 26.8791 9.98324 25.9723C9.93258 25.0655 9.63588 24.1896 9.125 23.4387L11.5125 20.7012C12.3875 21.1487 13.3773 21.3213 14.3521 21.1964C15.3269 21.0715 16.2411 20.6549 16.975 20.0012L21.575 23.2262C21.2582 24.0408 21.1605 24.9242 21.2916 25.7884C21.4226 26.6526 21.778 27.4673 22.3221 28.1513C22.8663 28.8353 23.5802 29.3647 24.3928 29.6867C25.2054 30.0088 26.0882 30.1122 26.9532 29.9866C27.8182 29.8611 28.6351 29.511 29.3226 28.9712C30.0101 28.4315 30.5441 27.7209 30.8713 26.9105C31.1986 26.1 31.3076 25.2179 31.1877 24.3521C31.0677 23.4863 30.7228 22.6671 30.1875 21.9762L33.75 17.5012C33.8505 17.3668 33.9229 17.2136 33.9629 17.0506C34.0029 16.8876 34.0097 16.7183 33.9829 16.5527C33.9561 16.387 33.8962 16.2285 33.8068 16.0865C33.7174 15.9445 33.6003 15.8219 33.4625 15.7262ZM13.75 18.7512C13.2555 18.7512 12.7722 18.6045 12.3611 18.3298C11.95 18.0551 11.6295 17.6647 11.4403 17.2079C11.2511 16.7511 11.2016 16.2484 11.298 15.7634C11.3945 15.2785 11.6326 14.833 11.9822 14.4834C12.3319 14.1338 12.7773 13.8957 13.2623 13.7992C13.7472 13.7027 14.2499 13.7522 14.7067 13.9415C15.1635 14.1307 15.554 14.4511 15.8287 14.8622C16.1034 15.2734 16.25 15.7567 16.25 16.2512C16.25 16.9142 15.9866 17.5501 15.5178 18.0189C15.0489 18.4878 14.413 18.7512 13.75 18.7512ZM26.25 27.5012C25.7555 27.5012 25.2722 27.3545 24.8611 27.0798C24.45 26.8051 24.1295 26.4147 23.9403 25.9579C23.7511 25.5011 23.7016 24.9984 23.798 24.5134C23.8945 24.0285 24.1326 23.583 24.4822 23.2334C24.8319 22.8838 25.2773 22.6457 25.7623 22.5492C26.2472 22.4527 26.7499 22.5022 27.2067 22.6915C27.6635 22.8807 28.054 23.2011 28.3287 23.6122C28.6034 24.0234 28.75 24.5067 28.75 25.0012C28.75 25.6642 28.4866 26.3001 28.0178 26.7689C27.5489 27.2378 26.913 27.5012 26.25 27.5012Z" fill="#000033"/>
<path d="M35 18.75C34.0111 18.75 33.0444 18.4568 32.2222 17.9074C31.3999 17.3579 30.759 16.5771 30.3806 15.6634C30.0022 14.7498 29.9031 13.7445 30.0961 12.7746C30.289 11.8046 30.7652 10.9137 31.4645 10.2145C32.1637 9.51521 33.0546 9.039 34.0246 8.84608C34.9945 8.65315 35.9998 8.75217 36.9134 9.1306C37.8271 9.50904 38.6079 10.1499 39.1574 10.9722C39.7068 11.7944 40 12.7611 40 13.75C40 15.0761 39.4732 16.3479 38.5355 17.2855C37.5979 18.2232 36.3261 18.75 35 18.75ZM35 11.25C34.5055 11.25 34.0222 11.3966 33.6111 11.6713C33.2 11.946 32.8795 12.3365 32.6903 12.7933C32.5011 13.2501 32.4516 13.7528 32.548 14.2377C32.6445 14.7227 32.8826 15.1681 33.2322 15.5178C33.5819 15.8674 34.0273 16.1055 34.5123 16.202C34.9972 16.2984 35.4999 16.2489 35.9567 16.0597C36.4135 15.8705 36.804 15.5501 37.0787 15.1389C37.3534 14.7278 37.5 14.2445 37.5 13.75C37.5 13.087 37.2366 12.4511 36.7678 11.9822C36.2989 11.5134 35.663 11.25 35 11.25Z" fill="#05058C"/>
</g>
<defs>
<clipPath id="clip0_5202_28803">
<rect width="40" height="40" fill="white"/>
</clipPath>
</defs>
</svg>
