<svg width="40" height="41" viewBox="0 0 40 41" fill="none" xmlns="http://www.w3.org/2000/svg">
<rect y="0.5" width="40" height="40" rx="20" fill="#F4F2FA"/>
<g clip-path="url(#clip0_5201_27344)">
<path d="M17.954 10.71C19.3029 10.4271 20.6958 10.4265 22.045 10.708C22.1349 11.3013 22.3573 11.8667 22.6958 12.3622C23.0342 12.8577 23.48 13.2705 24 13.57C24.5196 13.8705 25.1002 14.0501 25.6987 14.0953C26.2972 14.1404 26.8982 14.0501 27.457 13.831C28.3753 14.8591 29.0709 16.066 29.5 17.376C29.0313 17.7506 28.6531 18.226 28.3934 18.7668C28.1337 19.3076 27.9993 19.9 28 20.5C28 21.764 28.586 22.891 29.502 23.624C29.0703 24.9329 28.3739 26.1389 27.456 27.167C26.8973 26.948 26.2965 26.8578 25.6982 26.903C25.0999 26.9482 24.5194 27.1276 24 27.428C23.4805 27.7274 23.035 28.14 22.6967 28.6351C22.3585 29.1302 22.1361 29.6952 22.046 30.288C20.6972 30.5715 19.3043 30.5729 17.955 30.292C17.8655 29.6982 17.6433 29.1322 17.3048 28.6361C16.9663 28.1401 16.5203 27.7268 16 27.427C15.4804 27.1266 14.8997 26.9473 14.3012 26.9023C13.7027 26.8572 13.1017 26.9477 12.543 27.167C11.6246 26.1386 10.929 24.9313 10.5 23.621C10.9684 23.2466 11.3465 22.7716 11.6061 22.2311C11.8658 21.6906 12.0004 21.0986 12 20.499C12.0005 19.8989 11.8657 19.3064 11.6057 18.7655C11.3456 18.2247 10.967 17.7494 10.498 17.375C10.9297 16.0661 11.6261 14.8601 12.544 13.832C13.1027 14.051 13.7035 14.1412 14.3018 14.096C14.9001 14.0508 15.4806 13.8714 16 13.571C16.5195 13.2716 16.965 12.859 17.3033 12.3639C17.6415 11.8688 17.8639 11.3028 17.954 10.71ZM20 23.5C20.7956 23.5 21.5587 23.1839 22.1213 22.6213C22.6839 22.0587 23 21.2956 23 20.5C23 19.7044 22.6839 18.9413 22.1213 18.3787C21.5587 17.8161 20.7956 17.5 20 17.5C19.2044 17.5 18.4413 17.8161 17.8787 18.3787C17.3161 18.9413 17 19.7044 17 20.5C17 21.2956 17.3161 22.0587 17.8787 22.6213C18.4413 23.1839 19.2044 23.5 20 23.5Z" fill="#05058C"/>
</g>
<defs>
<clipPath id="clip0_5201_27344">
<rect width="24" height="24" fill="white" transform="translate(8 8.5)"/>
</clipPath>
</defs>
</svg>
