<svg width="40" height="40" viewBox="0 0 40 40" fill="none" xmlns="http://www.w3.org/2000/svg">
<g clip-path="url(#clip0_5202_29018)">
<rect width="40" height="40" fill="white"/>
<path d="M40 11.2498C39.999 10.2019 39.7783 9.16594 39.3524 8.20857C38.9264 7.25121 38.3046 6.39372 37.527 5.69139C36.7493 4.98906 35.8332 4.45747 34.8375 4.13089C33.8419 3.80431 32.7888 3.68999 31.7463 3.7953C30.7037 3.9006 29.6948 4.2232 28.7846 4.74229C27.8744 5.26139 27.083 5.96546 26.4615 6.80911C25.84 7.65277 25.4023 8.61729 25.1764 9.6405C24.9505 10.6637 24.9415 11.7229 25.15 12.7498C25.2163 13.0813 25.4116 13.3729 25.6929 13.5604C25.9742 13.748 26.3185 13.8161 26.65 13.7498C26.9815 13.6835 27.2731 13.4882 27.4607 13.2069C27.6482 12.9256 27.7163 12.5813 27.65 12.2498C27.4272 11.1526 27.5791 10.0124 28.0813 9.0118C28.5835 8.01119 29.407 7.20809 30.4199 6.73113C31.4328 6.25417 32.5765 6.13096 33.6677 6.38123C34.7589 6.6315 35.7346 7.24077 36.4384 8.11144C37.1422 8.98211 37.5335 10.0638 37.5495 11.1833C37.5655 12.3027 37.2053 13.3952 36.5266 14.2856C35.848 15.176 34.8901 15.8129 33.8065 16.0943C32.7228 16.3756 31.5761 16.2851 30.55 15.8373C30.3983 15.7612 30.2327 15.7168 30.0633 15.7068C29.8939 15.6968 29.7243 15.7214 29.5647 15.7791C29.4051 15.8368 29.2589 15.9264 29.1351 16.0424C29.0112 16.1585 28.9123 16.2985 28.8443 16.454C28.7764 16.6095 28.7408 16.7772 28.7397 16.9468C28.7386 17.1165 28.7721 17.2847 28.8382 17.441C28.9042 17.5973 29.0014 17.7386 29.1237 17.8561C29.2461 17.9737 29.3912 18.0651 29.55 18.1248C30.1093 18.3691 30.6973 18.5413 31.3 18.6373V26.2498C31.3 26.5813 31.1683 26.8993 30.9339 27.1337C30.6995 27.3681 30.3815 27.4998 30.05 27.4998H27.3875C27.083 25.7616 26.1753 24.1864 24.8241 23.0513C23.4729 21.9162 21.7647 21.2939 20 21.2939C18.2353 21.2939 16.5271 21.9162 15.1759 23.0513C13.8247 24.1864 12.917 25.7616 12.6125 27.4998H10C9.66849 27.4998 9.35055 27.3681 9.11613 27.1337C8.88171 26.8993 8.75001 26.5813 8.75001 26.2498V18.6373C10.6043 18.3239 12.2731 17.3253 13.4258 15.8395C14.5785 14.3536 15.131 12.489 14.9737 10.615C14.8165 8.74103 13.961 6.99453 12.5767 5.72159C11.1925 4.44866 9.38056 3.74219 7.50001 3.74219C5.61946 3.74219 3.80754 4.44866 2.4233 5.72159C1.03907 6.99453 0.183549 8.74103 0.0262858 10.615C-0.130978 12.489 0.421491 14.3536 1.57421 15.8395C2.72693 17.3253 4.39577 18.3239 6.25001 18.6373V26.2498C6.25001 27.2444 6.6451 28.1982 7.34836 28.9014C8.05163 29.6047 9.00545 29.9998 10 29.9998H12.6125C12.917 31.738 13.8247 33.3132 15.1759 34.4483C16.5271 35.5834 18.2353 36.2056 20 36.2056C21.7647 36.2056 23.4729 35.5834 24.8241 34.4483C26.1753 33.3132 27.083 31.738 27.3875 29.9998H30C30.9946 29.9998 31.9484 29.6047 32.6517 28.9014C33.3549 28.1982 33.75 27.2444 33.75 26.2498V18.6373C35.4963 18.3421 37.0819 17.4384 38.2258 16.0863C39.3697 14.7342 39.9982 13.0209 40 11.2498ZM2.50001 11.2498C2.50001 10.2609 2.79326 9.29418 3.34267 8.47194C3.89207 7.64969 4.67297 7.00883 5.5866 6.63039C6.50023 6.25195 7.50556 6.15293 8.47547 6.34586C9.44537 6.53879 10.3363 7.01499 11.0355 7.71425C11.7348 8.41352 12.211 9.30443 12.4039 10.2743C12.5969 11.2442 12.4978 12.2496 12.1194 13.1632C11.741 14.0768 11.1001 14.8577 10.2779 15.4071C9.45562 15.9565 8.48892 16.2498 7.50001 16.2498C6.17393 16.2498 4.90216 15.723 3.96448 14.7853C3.0268 13.8476 2.50001 12.5759 2.50001 11.2498ZM20 33.7498C19.0111 33.7498 18.0444 33.4565 17.2222 32.9071C16.3999 32.3577 15.7591 31.5768 15.3806 30.6632C15.0022 29.7496 14.9032 28.7442 15.0961 27.7743C15.289 26.8044 15.7652 25.9135 16.4645 25.2143C17.1637 24.515 18.0547 24.0388 19.0246 23.8459C19.9945 23.6529 20.9998 23.752 21.9134 24.1304C22.8271 24.5088 23.608 25.1497 24.1574 25.9719C24.7068 26.7942 25 27.7609 25 28.7498C25 30.0759 24.4732 31.3476 23.5355 32.2853C22.5979 33.223 21.3261 33.7498 20 33.7498Z" fill="#000033"/>
<path d="M8.75 12.5H6.25C5.91848 12.5 5.60054 12.3683 5.36612 12.1339C5.1317 11.8995 5 11.5815 5 11.25C5 10.9185 5.1317 10.6005 5.36612 10.3661C5.60054 10.1317 5.91848 10 6.25 10H8.75C9.08152 10 9.39946 10.1317 9.63388 10.3661C9.8683 10.6005 10 10.9185 10 11.25C10 11.5815 9.8683 11.8995 9.63388 12.1339C9.39946 12.3683 9.08152 12.5 8.75 12.5Z" fill="#05058C"/>
<path d="M21.25 30H18.75C18.4185 30 18.1005 29.8683 17.8661 29.6339C17.6317 29.3995 17.5 29.0815 17.5 28.75C17.5 28.4185 17.6317 28.1005 17.8661 27.8661C18.1005 27.6317 18.4185 27.5 18.75 27.5H21.25C21.5815 27.5 21.8995 27.6317 22.1339 27.8661C22.3683 28.1005 22.5 28.4185 22.5 28.75C22.5 29.0815 22.3683 29.3995 22.1339 29.6339C21.8995 29.8683 21.5815 30 21.25 30Z" fill="#05058C"/>
<path d="M33.75 12.5H31.25C30.9185 12.5 30.6005 12.3683 30.3661 12.1339C30.1317 11.8995 30 11.5815 30 11.25C30 10.9185 30.1317 10.6005 30.3661 10.3661C30.6005 10.1317 30.9185 10 31.25 10H33.75C34.0815 10 34.3995 10.1317 34.6339 10.3661C34.8683 10.6005 35 10.9185 35 11.25C35 11.5815 34.8683 11.8995 34.6339 12.1339C34.3995 12.3683 34.0815 12.5 33.75 12.5Z" fill="#05058C"/>
</g>
<defs>
<clipPath id="clip0_5202_29018">
<rect width="40" height="40" fill="white"/>
</clipPath>
</defs>
</svg>
