<svg width="40" height="40" viewBox="0 0 40 40" fill="none" xmlns="http://www.w3.org/2000/svg">
<g clip-path="url(#clip0_5202_28543)">
<rect width="40" height="40" fill="white"/>
<path d="M36.25 9.99834H35.2875L22.7875 3.74834C22.4891 3.60247 22.145 3.58111 21.8309 3.68894C21.5168 3.79677 21.2584 4.02497 21.1125 4.32334C20.9666 4.62171 20.9453 4.96581 21.0531 5.27993C21.1609 5.59405 21.3891 5.85247 21.6875 5.99834L29.65 9.99834H10.35L18.35 6.04834C18.501 5.97612 18.6363 5.87485 18.7482 5.75033C18.8601 5.62581 18.9464 5.48047 19.0021 5.32261C19.0578 5.16475 19.0819 4.99746 19.0729 4.83029C19.064 4.66313 19.0222 4.49936 18.95 4.34834C18.8778 4.19732 18.7765 4.06201 18.652 3.95012C18.5275 3.83824 18.3821 3.75198 18.2243 3.69626C18.0664 3.64055 17.8991 3.61647 17.732 3.62541C17.5648 3.63434 17.401 3.67612 17.25 3.74834L4.75 9.99834H3.75C2.75544 9.99834 1.80161 10.3934 1.09835 11.0967C0.395088 11.8 0 12.7538 0 13.7483L0 36.2483C0 37.2429 0.395088 38.1967 1.09835 38.9C1.80161 39.6033 2.75544 39.9983 3.75 39.9983H7.5C7.83152 39.9983 8.14946 39.8666 8.38388 39.6322C8.6183 39.3978 8.75 39.0799 8.75 38.7483C8.75 38.4168 8.6183 38.0989 8.38388 37.8645C8.14946 37.63 7.83152 37.4983 7.5 37.4983H3.75C3.41848 37.4983 3.10054 37.3666 2.86612 37.1322C2.6317 36.8978 2.5 36.5799 2.5 36.2483V13.7483C2.5 13.4168 2.6317 13.0989 2.86612 12.8645C3.10054 12.63 3.41848 12.4983 3.75 12.4983H36.25C36.5815 12.4983 36.8995 12.63 37.1339 12.8645C37.3683 13.0989 37.5 13.4168 37.5 13.7483V36.2483C37.5 36.5799 37.3683 36.8978 37.1339 37.1322C36.8995 37.3666 36.5815 37.4983 36.25 37.4983H12.5C12.1685 37.4983 11.8505 37.63 11.6161 37.8645C11.3817 38.0989 11.25 38.4168 11.25 38.7483C11.25 39.0799 11.3817 39.3978 11.6161 39.6322C11.8505 39.8666 12.1685 39.9983 12.5 39.9983H36.25C37.2446 39.9983 38.1984 39.6033 38.9016 38.9C39.6049 38.1967 40 37.2429 40 36.2483V13.7483C40 12.7538 39.6049 11.8 38.9016 11.0967C38.1984 10.3934 37.2446 9.99834 36.25 9.99834Z" fill="#000033"/>
<path d="M20 7.5C19.2583 7.5 18.5333 7.28007 17.9166 6.86801C17.2999 6.45596 16.8193 5.87029 16.5355 5.18506C16.2516 4.49984 16.1774 3.74584 16.3221 3.01841C16.4668 2.29098 16.8239 1.6228 17.3484 1.09835C17.8728 0.573904 18.541 0.216751 19.2684 0.0720569C19.9958 -0.0726377 20.7498 0.00162482 21.4351 0.285453C22.1203 0.569282 22.706 1.04993 23.118 1.66661C23.5301 2.2833 23.75 3.00832 23.75 3.75C23.75 4.74456 23.3549 5.69839 22.6517 6.40165C21.9484 7.10491 20.9946 7.5 20 7.5ZM20 2.5C19.7528 2.5 19.5111 2.57331 19.3055 2.71066C19.1 2.84802 18.9398 3.04324 18.8452 3.27165C18.7505 3.50006 18.7258 3.75139 18.774 3.99386C18.8223 4.23634 18.9413 4.45907 19.1161 4.63389C19.2909 4.8087 19.5137 4.92775 19.7561 4.97598C19.9986 5.02422 20.2499 4.99946 20.4784 4.90485C20.7068 4.81024 20.902 4.65003 21.0393 4.44446C21.1767 4.2389 21.25 3.99723 21.25 3.75C21.25 3.41848 21.1183 3.10054 20.8839 2.86612C20.6495 2.6317 20.3315 2.5 20 2.5Z" fill="#05058C"/>
<path d="M11.25 35H8.75C8.08696 35 7.45107 34.7366 6.98223 34.2678C6.51339 33.7989 6.25 33.163 6.25 32.5V25C6.25 24.337 6.51339 23.7011 6.98223 23.2322C7.45107 22.7634 8.08696 22.5 8.75 22.5H11.25C11.913 22.5 12.5489 22.7634 13.0178 23.2322C13.4866 23.7011 13.75 24.337 13.75 25V32.5C13.75 33.163 13.4866 33.7989 13.0178 34.2678C12.5489 34.7366 11.913 35 11.25 35ZM8.75 25V32.5H11.25V25H8.75Z" fill="#05058C"/>
<path d="M21.25 35H18.75C18.087 35 17.4511 34.7366 16.9822 34.2678C16.5134 33.7989 16.25 33.163 16.25 32.5V22.5C16.25 21.837 16.5134 21.2011 16.9822 20.7322C17.4511 20.2634 18.087 20 18.75 20H21.25C21.913 20 22.5489 20.2634 23.0178 20.7322C23.4866 21.2011 23.75 21.837 23.75 22.5V32.5C23.75 33.163 23.4866 33.7989 23.0178 34.2678C22.5489 34.7366 21.913 35 21.25 35ZM18.75 22.5V32.5H21.25V22.5H18.75Z" fill="#05058C"/>
<path d="M31.25 35H28.75C28.087 35 27.4511 34.7366 26.9822 34.2678C26.5134 33.7989 26.25 33.163 26.25 32.5V18.75C26.25 18.087 26.5134 17.4511 26.9822 16.9822C27.4511 16.5134 28.087 16.25 28.75 16.25H31.25C31.913 16.25 32.5489 16.5134 33.0178 16.9822C33.4866 17.4511 33.75 18.087 33.75 18.75V32.5C33.75 33.163 33.4866 33.7989 33.0178 34.2678C32.5489 34.7366 31.913 35 31.25 35ZM28.75 18.75V32.5H31.25V18.75H28.75Z" fill="#05058C"/>
</g>
<defs>
<clipPath id="clip0_5202_28543">
<rect width="40" height="40" fill="white"/>
</clipPath>
</defs>
</svg>
