<svg width="40" height="41" viewBox="0 0 40 41" fill="none" xmlns="http://www.w3.org/2000/svg">
<rect y="0.5" width="40" height="40" rx="20" fill="#F4F2FA"/>
<g clip-path="url(#clip0_5202_28562)">
<path d="M15.941 26.5C15.644 25.227 14.304 24.186 13.754 23.5C12.8122 22.3233 12.2219 20.9045 12.0513 19.407C11.8806 17.9095 12.1364 16.3942 12.7893 15.0357C13.4421 13.6773 14.4654 12.5309 15.7414 11.7286C17.0173 10.9263 18.4939 10.5008 20.0011 10.501C21.5083 10.5012 22.9847 10.9273 24.2604 11.7299C25.5361 12.5326 26.559 13.6794 27.2115 15.0381C27.8639 16.3967 28.1192 17.9121 27.948 19.4095C27.7769 20.907 27.1862 22.3256 26.244 23.502C25.694 24.187 24.356 25.228 24.059 26.5H15.941ZM24 28.5V29.5C24 30.0304 23.7893 30.5391 23.4142 30.9142C23.0391 31.2893 22.5304 31.5 22 31.5H18C17.4696 31.5 16.9609 31.2893 16.5858 30.9142C16.2107 30.5391 16 30.0304 16 29.5V28.5H24ZM21 18.505V14.5L16.5 20.505H19V24.505L23.5 18.505H21Z" fill="#05058C"/>
</g>
<defs>
<clipPath id="clip0_5202_28562">
<rect width="24" height="24" fill="white" transform="translate(8 8.5)"/>
</clipPath>
</defs>
</svg>
