<svg width="40" height="40" viewBox="0 0 40 40" fill="none" xmlns="http://www.w3.org/2000/svg">
<g clip-path="url(#clip0_5202_29203)">
<rect width="40" height="40" fill="white"/>
<path d="M34.2125 30.0875L28.75 27.9V26.25C30.9875 25.4251 32.5 24.2125 32.5 22.5V16.2501C32.474 15.7467 32.3276 15.257 32.0731 14.822C31.8186 14.387 31.4635 14.0194 31.0375 13.7501C31.4635 13.4807 31.8186 13.1131 32.0731 12.6781C32.3276 12.2431 32.474 11.7534 32.5 11.2501V5.00005C32.5 1.56255 26.025 5.31702e-05 20 5.31702e-05C18.6967 -0.00229042 17.3944 0.0728421 16.1 0.225053C15.9366 0.243674 15.7784 0.29437 15.6346 0.374234C15.4908 0.454099 15.3642 0.561562 15.262 0.690462C15.1598 0.819362 15.084 0.967165 15.0391 1.1254C14.9941 1.28363 14.9808 1.44918 15 1.61255C15.0407 1.94037 15.2094 2.23877 15.4694 2.44255C15.7294 2.64632 16.0595 2.7389 16.3875 2.70005C17.5872 2.56824 18.7931 2.50148 20 2.50005C26.5625 2.50005 30 4.36255 30 5.00005C30 5.63755 26.5625 7.50005 20 7.50005C13.4375 7.50005 10 5.63755 10 5.00005C10 4.92505 10.3 4.38755 11.725 3.75005C11.877 3.68711 12.0152 3.59477 12.1314 3.47832C12.2477 3.36188 12.3398 3.22362 12.4026 3.07148C12.4653 2.91934 12.4973 2.75632 12.4969 2.59176C12.4965 2.4272 12.4635 2.26435 12.4 2.11255C12.2728 1.80856 12.0307 1.5671 11.7264 1.44069C11.4221 1.31428 11.0801 1.31315 10.775 1.43755C8.0625 2.60005 7.5 4.01255 7.5 5.00005V11.2501C7.526 11.7534 7.67239 12.2431 7.92688 12.6781C8.18136 13.1131 8.53651 13.4807 8.9625 13.7501C8.53651 14.0194 8.18136 14.387 7.92688 14.822C7.67239 15.257 7.526 15.7467 7.5 16.2501V22.5C7.5 24.1625 9.0125 25.375 11.25 26.25V27.9501L5.7875 30.0875C5.55492 30.1802 5.35551 30.3405 5.2151 30.5478C5.07469 30.755 4.99976 30.9997 5 31.25V33.75C5 34.0816 5.1317 34.3995 5.36612 34.6339C5.60054 34.8684 5.91848 35 6.25 35C6.58152 35 6.89946 34.8684 7.13388 34.6339C7.3683 34.3995 7.5 34.0816 7.5 33.75V32.1L12.9625 29.9125C13.1951 29.8199 13.3945 29.6596 13.5349 29.4523C13.6753 29.2451 13.7502 29.0004 13.75 28.75V26.9001C15.3971 27.2386 17.0696 27.4393 18.75 27.5V33.75C18.75 34.0816 18.8817 34.3995 19.1161 34.6339C19.3505 34.8684 19.6685 35 20 35C20.3315 35 20.6495 34.8684 20.8839 34.6339C21.1183 34.3995 21.25 34.0816 21.25 33.75V27.5C22.9297 27.4475 24.6022 27.2552 26.25 26.9251V28.75C26.2498 29.0004 26.3247 29.2451 26.4651 29.4523C26.6055 29.6596 26.8049 29.8199 27.0375 29.9125L32.5 32.1V33.75C32.5 34.0816 32.6317 34.3995 32.8661 34.6339C33.1005 34.8684 33.4185 35 33.75 35C34.0815 35 34.3995 34.8684 34.6339 34.6339C34.8683 34.3995 35 34.0816 35 33.75V31.25C35.0002 30.9997 34.9253 30.755 34.7849 30.5478C34.6445 30.3405 34.4451 30.1802 34.2125 30.0875ZM30 8.15005V11.2501C30 11.8876 26.5625 13.7501 20 13.7501C13.4375 13.7501 10 11.8876 10 11.2501V8.15005C14.7875 10.6126 25.2125 10.6126 30 8.15005ZM28.35 15.0876C29.6875 15.6501 30 16.1626 30 16.2501C30 16.8876 26.5625 18.7501 20 18.7501C13.4375 18.7501 10 16.8876 10 16.2501C10 16.1626 10.3125 15.6501 11.65 15.0876C17.1088 16.6373 22.8912 16.6373 28.35 15.0876ZM10 22.5V19.4001C14.7875 21.9001 25.2125 21.9001 30 19.4001V22.5C30 23.1376 26.5625 25 20 25C13.4375 25 10 23.1376 10 22.5Z" fill="#000033"/>
<path d="M20 40C19.2583 40 18.5333 39.7801 17.9166 39.368C17.2999 38.956 16.8193 38.3703 16.5355 37.6851C16.2516 36.9998 16.1774 36.2458 16.3221 35.5184C16.4668 34.791 16.8239 34.1228 17.3484 33.5984C17.8728 33.0739 18.541 32.7168 19.2684 32.5721C19.9958 32.4274 20.7498 32.5016 21.4351 32.7855C22.1203 33.0693 22.706 33.5499 23.118 34.1666C23.5301 34.7833 23.75 35.5083 23.75 36.25C23.75 37.2446 23.3549 38.1984 22.6517 38.9017C21.9484 39.6049 20.9946 40 20 40ZM20 35C19.7528 35 19.5111 35.0733 19.3055 35.2107C19.1 35.348 18.9398 35.5432 18.8452 35.7716C18.7505 36.0001 18.7258 36.2514 18.774 36.4939C18.8223 36.7363 18.9413 36.9591 19.1161 37.1339C19.2909 37.3087 19.5137 37.4278 19.7561 37.476C19.9986 37.5242 20.2499 37.4995 20.4784 37.4049C20.7068 37.3102 20.902 37.15 21.0393 36.9445C21.1767 36.7389 21.25 36.4972 21.25 36.25C21.25 35.9185 21.1183 35.6005 20.8839 35.3661C20.6495 35.1317 20.3315 35 20 35Z" fill="#05058C"/>
<path d="M6.25 40C5.50832 40 4.7833 39.7801 4.16661 39.368C3.54993 38.956 3.06928 38.3703 2.78545 37.6851C2.50162 36.9998 2.42736 36.2458 2.57206 35.5184C2.71675 34.791 3.0739 34.1228 3.59835 33.5984C4.1228 33.0739 4.79098 32.7168 5.51841 32.5721C6.24584 32.4274 6.99984 32.5016 7.68506 32.7855C8.37029 33.0693 8.95596 33.5499 9.36801 34.1666C9.78007 34.7833 10 35.5083 10 36.25C10 37.2446 9.60491 38.1984 8.90165 38.9017C8.19839 39.6049 7.24456 40 6.25 40ZM6.25 35C6.00278 35 5.7611 35.0733 5.55554 35.2107C5.34998 35.348 5.18976 35.5432 5.09515 35.7716C5.00054 36.0001 4.97579 36.2514 5.02402 36.4939C5.07225 36.7363 5.1913 36.9591 5.36612 37.1339C5.54093 37.3087 5.76366 37.4278 6.00614 37.476C6.24862 37.5242 6.49995 37.4995 6.72836 37.4049C6.95676 37.3102 7.15199 37.15 7.28934 36.9445C7.42669 36.7389 7.5 36.4972 7.5 36.25C7.5 35.9185 7.36831 35.6005 7.13388 35.3661C6.89946 35.1317 6.58152 35 6.25 35Z" fill="#05058C"/>
<path d="M33.75 40C33.0083 40 32.2833 39.7801 31.6666 39.368C31.0499 38.956 30.5693 38.3703 30.2855 37.6851C30.0016 36.9998 29.9274 36.2458 30.0721 35.5184C30.2168 34.791 30.5739 34.1228 31.0984 33.5984C31.6228 33.0739 32.291 32.7168 33.0184 32.5721C33.7458 32.4274 34.4998 32.5016 35.1851 32.7855C35.8703 33.0693 36.456 33.5499 36.868 34.1666C37.2801 34.7833 37.5 35.5083 37.5 36.25C37.5 37.2446 37.1049 38.1984 36.4017 38.9017C35.6984 39.6049 34.7446 40 33.75 40ZM33.75 35C33.5028 35 33.2611 35.0733 33.0555 35.2107C32.85 35.348 32.6898 35.5432 32.5952 35.7716C32.5005 36.0001 32.4758 36.2514 32.524 36.4939C32.5723 36.7363 32.6913 36.9591 32.8661 37.1339C33.0409 37.3087 33.2637 37.4278 33.5061 37.476C33.7486 37.5242 33.9999 37.4995 34.2284 37.4049C34.4568 37.3102 34.652 37.15 34.7893 36.9445C34.9267 36.7389 35 36.4972 35 36.25C35 35.9185 34.8683 35.6005 34.6339 35.3661C34.3995 35.1317 34.0815 35 33.75 35Z" fill="#05058C"/>
</g>
<defs>
<clipPath id="clip0_5202_29203">
<rect width="40" height="40" fill="white"/>
</clipPath>
</defs>
</svg>
