<svg width="40" height="40" viewBox="0 0 40 40" fill="none" xmlns="http://www.w3.org/2000/svg">
<g clip-path="url(#clip0_5202_29209)">
<rect width="40" height="40" fill="white"/>
<path d="M34.6369 32.8744L30.5619 28.7494C32.3578 26.6289 33.4691 24.014 33.7494 21.2494H37.4994C37.8309 21.2494 38.1488 21.1177 38.3833 20.8833C38.6177 20.6488 38.7494 20.3309 38.7494 19.9994C38.7494 19.6679 38.6177 19.3499 38.3833 19.1155C38.1488 18.8811 37.8309 18.7494 37.4994 18.7494H33.7494C33.487 15.9917 32.3978 13.3775 30.6244 11.2494L34.6369 7.12437C35.435 7.5066 36.3426 7.59424 37.1992 7.37179C38.0557 7.14935 38.806 6.63116 39.3173 5.90887C39.8286 5.18658 40.068 4.30674 39.9931 3.42496C39.9182 2.54319 39.534 1.7163 38.9082 1.09054C38.2825 0.46479 37.4556 0.0804971 36.5738 0.00563517C35.692 -0.0692268 34.8122 0.170166 34.0899 0.681472C33.3676 1.19278 32.8494 1.94305 32.627 2.79958C32.4045 3.65612 32.4921 4.56373 32.8744 5.36187L28.7494 9.43687C26.6212 7.66349 24.0071 6.57426 21.2494 6.31187V2.49937C21.2494 2.16785 21.1177 1.84991 20.8833 1.61549C20.6488 1.38107 20.3309 1.24937 19.9994 1.24937C19.6679 1.24937 19.3499 1.38107 19.1155 1.61549C18.8811 1.84991 18.7494 2.16785 18.7494 2.49937V6.31187C15.9917 6.57426 13.3775 7.66349 11.2494 9.43687L7.12437 5.36187C7.50659 4.56373 7.59423 3.65612 7.37179 2.79958C7.14935 1.94305 6.63116 1.19278 5.90887 0.681472C5.18658 0.170166 4.30674 -0.0692268 3.42496 0.00563517C2.54319 0.0804971 1.7163 0.46479 1.09054 1.09054C0.46479 1.7163 0.0804971 2.54319 0.00563517 3.42496C-0.0692268 4.30674 0.170166 5.18658 0.681471 5.90887C1.19278 6.63116 1.94305 7.14935 2.79958 7.37179C3.65612 7.59424 4.56372 7.5066 5.36187 7.12437L9.43687 11.2494C7.66349 13.3775 6.57426 15.9917 6.31187 18.7494H2.49937C2.16785 18.7494 1.84991 18.8811 1.61549 19.1155C1.38107 19.3499 1.24937 19.6679 1.24937 19.9994C1.24937 20.3309 1.38107 20.6488 1.61549 20.8833C1.84991 21.1177 2.16785 21.2494 2.49937 21.2494H6.32437C6.57034 24.0066 7.65184 26.6231 9.42437 28.7494L5.36187 32.8744C4.56372 32.4922 3.65612 32.4045 2.79958 32.627C1.94305 32.8494 1.19278 33.3676 0.681471 34.0899C0.170166 34.8122 -0.0692268 35.692 0.00563517 36.5738C0.0804971 37.4556 0.46479 38.2825 1.09054 38.9082C1.7163 39.534 2.54319 39.9183 3.42496 39.9931C4.30674 40.068 5.18658 39.8286 5.90887 39.3173C6.63116 38.806 7.14935 38.0557 7.37179 37.1992C7.59423 36.3426 7.50659 35.435 7.12437 34.6369L11.2494 30.5494C11.4369 30.6994 11.5994 30.8619 11.7869 30.9994C11.9182 31.0979 12.0676 31.1695 12.2266 31.2103C12.3857 31.251 12.5511 31.26 12.7136 31.2368C12.8762 31.2136 13.0325 31.1586 13.1737 31.075C13.315 30.9913 13.4384 30.8807 13.5369 30.7494C13.6354 30.6181 13.707 30.4686 13.7478 30.3096C13.7885 30.1506 13.7975 29.9851 13.7743 29.8226C13.7511 29.6601 13.6961 29.5038 13.6125 29.3625C13.5288 29.2213 13.4182 29.0979 13.2869 28.9994C11.877 27.9609 10.7315 26.605 9.94314 25.0413C9.15482 23.4777 8.74586 21.7505 8.74937 19.9994C8.74985 17.6779 9.46849 15.4134 10.8068 13.5164C12.145 11.6195 14.0374 10.183 16.2242 9.40398C18.4111 8.62497 20.7855 8.54157 23.0216 9.16523C25.2578 9.78889 27.2463 11.0891 28.7143 12.8874C30.1824 14.6858 31.0581 16.8943 31.2215 19.2101C31.3848 21.5258 30.8278 23.8354 29.6267 25.822C28.4257 27.8087 26.6394 29.3751 24.513 30.3065C22.3865 31.2379 20.024 31.4887 17.7494 31.0244C17.5852 30.9915 17.4162 30.9914 17.252 31.0239C17.0878 31.0563 16.9316 31.1209 16.7923 31.2137C16.653 31.3066 16.5333 31.426 16.4402 31.5651C16.347 31.7041 16.2822 31.8602 16.2494 32.0244C16.2165 32.1885 16.2164 32.3575 16.2489 32.5218C16.2813 32.686 16.3459 32.8422 16.4387 32.9815C16.5316 33.1208 16.651 33.2404 16.79 33.3336C16.9291 33.4267 17.0852 33.4915 17.2494 33.5244C17.7494 33.6244 18.2494 33.6869 18.7494 33.7369V37.4994C18.7494 37.8309 18.8811 38.1488 19.1155 38.3833C19.3499 38.6177 19.6679 38.7494 19.9994 38.7494C20.3309 38.7494 20.6488 38.6177 20.8833 38.3833C21.1177 38.1488 21.2494 37.8309 21.2494 37.4994V33.7494C24.0071 33.487 26.6212 32.3978 28.7494 30.6244L32.8369 34.6994C32.4547 35.4975 32.367 36.4051 32.5895 37.2617C32.8119 38.1182 33.3301 38.8685 34.0524 39.3798C34.7747 39.8911 35.6545 40.1305 36.5363 40.0556C37.4181 39.9808 38.2449 39.5965 38.8707 38.9707C39.4965 38.345 39.8807 37.5181 39.9556 36.6363C40.0305 35.7545 39.7911 34.8747 39.2798 34.1524C38.7685 33.4301 38.0182 32.9119 37.1617 32.6895C36.3051 32.467 35.3975 32.5547 34.5994 32.9369L34.6369 32.8744ZM3.74937 37.4994C3.54381 37.5002 3.3412 37.4504 3.1595 37.3542C2.9778 37.2581 2.82262 37.1186 2.7077 36.9482C2.59278 36.7777 2.52167 36.5816 2.50067 36.3771C2.47967 36.1726 2.50943 35.9661 2.58731 35.7758C2.66518 35.5856 2.78878 35.4175 2.94714 35.2864C3.10551 35.1553 3.29375 35.0654 3.4952 35.0244C3.69665 34.9835 3.90509 34.9929 4.10205 35.0517C4.29901 35.1106 4.47842 35.2171 4.62437 35.3619C4.7999 35.536 4.91986 35.7582 4.96909 36.0005C5.01833 36.2427 4.99461 36.4942 4.90096 36.7229C4.8073 36.9517 4.6479 37.1476 4.44292 37.2858C4.23795 37.424 3.99659 37.4983 3.74937 37.4994ZM36.2494 2.49937C36.4549 2.49851 36.6575 2.54836 36.8392 2.64451C37.0209 2.74065 37.1761 2.88012 37.291 3.05057C37.406 3.22101 37.4771 3.41717 37.4981 3.62166C37.5191 3.82616 37.4893 4.03267 37.4114 4.22292C37.3336 4.41316 37.21 4.58126 37.0516 4.71233C36.8932 4.8434 36.705 4.93339 36.5035 4.97433C36.3021 5.01526 36.0937 5.00589 35.8967 4.94702C35.6997 4.88816 35.5203 4.78163 35.3744 4.63687C35.1988 4.46278 35.0789 4.24056 35.0297 3.99829C34.9804 3.75602 35.0041 3.5046 35.0978 3.27581C35.1914 3.04702 35.3508 2.85114 35.5558 2.71293C35.7608 2.57473 36.0022 2.50041 36.2494 2.49937ZM2.49937 3.74937C2.49851 3.54381 2.54836 3.3412 2.6445 3.1595C2.74065 2.9778 2.88012 2.82262 3.05057 2.7077C3.22101 2.59278 3.41717 2.52167 3.62166 2.50067C3.82616 2.47967 4.03267 2.50943 4.22292 2.58731C4.41316 2.66518 4.58126 2.78878 4.71233 2.94714C4.8434 3.10551 4.93339 3.29375 4.97432 3.4952C5.01526 3.69666 5.00588 3.90509 4.94702 4.10205C4.88816 4.29901 4.78163 4.47842 4.63687 4.62437C4.46278 4.7999 4.24056 4.91986 3.99829 4.9691C3.75602 5.01833 3.5046 4.99462 3.27581 4.90096C3.04702 4.8073 2.85114 4.6479 2.71293 4.44293C2.57473 4.23795 2.50041 3.99659 2.49937 3.74937ZM36.2494 37.4994C36.0037 37.4984 35.7637 37.4249 35.5595 37.2883C35.3552 37.1517 35.1958 36.9579 35.1011 36.7311C35.0064 36.5044 34.9806 36.2548 35.027 36.0134C35.0734 35.7721 35.1899 35.5499 35.3619 35.3744C35.5063 35.227 35.6849 35.1177 35.8819 35.0562C36.0788 34.9947 36.2879 34.9829 36.4905 35.0219C36.6931 35.0608 36.8829 35.1493 37.043 35.2794C37.2031 35.4095 37.3285 35.5773 37.408 35.7677C37.4875 35.958 37.5186 36.1651 37.4987 36.3705C37.4787 36.5758 37.4082 36.773 37.2935 36.9445C37.1787 37.1159 37.0234 37.2564 36.8412 37.3532C36.659 37.45 36.4557 37.5002 36.2494 37.4994Z" fill="#000033"/>
<path d="M27.1375 15.3753C26.9625 15.1878 26.8 15.1253 20.6375 11.4253C20.4475 11.3156 20.2319 11.2578 20.0125 11.2578C19.7931 11.2578 19.5775 11.3156 19.3875 11.4253C12.45 15.5878 13.075 15.1753 12.9125 15.3503C12.666 15.5872 12.5186 15.9089 12.5 16.2503V23.7503C12.5 23.9672 12.5565 24.1804 12.6639 24.3689C12.7713 24.5574 12.9259 24.7146 13.1125 24.8253C19.625 28.7503 19.5125 28.7503 20 28.7503C20.4875 28.7503 20.3375 28.7503 26.8875 24.8253C27.0741 24.7146 27.2287 24.5574 27.3361 24.3689C27.4435 24.1804 27.5 23.9672 27.5 23.7503C27.5 15.7878 27.625 15.8628 27.1375 15.3753ZM20 13.9628L23.825 16.2503L20 18.5378L16.175 16.2503L20 13.9628ZM15 18.4628L18.75 20.7128V25.2878L15 23.0378V18.4628ZM21.25 25.2878V20.7128L25 18.4628V23.0378L21.25 25.2878Z" fill="#05058C"/>
</g>
<defs>
<clipPath id="clip0_5202_29209">
<rect width="40" height="40" fill="white"/>
</clipPath>
</defs>
</svg>
