<svg width="40" height="40" viewBox="0 0 40 40" fill="none" xmlns="http://www.w3.org/2000/svg">
<rect width="40" height="40" rx="20" fill="#F4F2FA"/>
<g clip-path="url(#clip0_5202_28998)">
<path d="M20 22V30H12C12 27.8783 12.8429 25.8434 14.3431 24.3431C15.8434 22.8429 17.8783 22 20 22ZM20 21C16.685 21 14 18.315 14 15C14 11.685 16.685 9 20 9C23.315 9 26 11.685 26 15C26 18.315 23.315 21 20 21ZM29.446 28.032L30.95 29.536L29.536 30.95L28.032 29.446C27.1933 29.9405 26.2031 30.1121 25.247 29.9288C24.2908 29.7454 23.4343 29.2196 22.8381 28.4499C22.2419 27.6802 21.9469 26.7195 22.0083 25.7479C22.0698 24.7762 22.4835 23.8604 23.1719 23.1719C23.8604 22.4835 24.7762 22.0698 25.7479 22.0083C26.7195 21.9469 27.6802 22.2419 28.4499 22.8381C29.2196 23.4343 29.7454 24.2908 29.9288 25.247C30.1121 26.2031 29.9405 27.1933 29.446 28.032ZM26 28C26.5304 28 27.0391 27.7893 27.4142 27.4142C27.7893 27.0391 28 26.5304 28 26C28 25.4696 27.7893 24.9609 27.4142 24.5858C27.0391 24.2107 26.5304 24 26 24C25.4696 24 24.9609 24.2107 24.5858 24.5858C24.2107 24.9609 24 25.4696 24 26C24 26.5304 24.2107 27.0391 24.5858 27.4142C24.9609 27.7893 25.4696 28 26 28Z" fill="#05058C"/>
</g>
<defs>
<clipPath id="clip0_5202_28998">
<rect width="24" height="24" fill="white" transform="translate(8 8)"/>
</clipPath>
</defs>
</svg>
