<svg width="40" height="40" viewBox="0 0 40 40" fill="none" xmlns="http://www.w3.org/2000/svg">
<rect width="40" height="40" fill="white"/>
<path d="M30 17.5H21.25V12.5C21.25 12.1685 21.1183 11.8505 20.8839 11.6161C20.6495 11.3817 20.3315 11.25 20 11.25C19.6685 11.25 19.3505 11.3817 19.1161 11.6161C18.8817 11.8505 18.75 12.1685 18.75 12.5V17.5H10C9.00544 17.5 8.05161 17.8951 7.34835 18.5983C6.64509 19.3016 6.25 20.2554 6.25 21.25V27.5C6.25 27.8315 6.3817 28.1495 6.61612 28.3839C6.85054 28.6183 7.16848 28.75 7.5 28.75C7.83152 28.75 8.14946 28.6183 8.38388 28.3839C8.6183 28.1495 8.75 27.8315 8.75 27.5V21.25C8.75 20.9185 8.8817 20.6005 9.11612 20.3661C9.35054 20.1317 9.66848 20 10 20H30C30.3315 20 30.6495 20.1317 30.8839 20.3661C31.1183 20.6005 31.25 20.9185 31.25 21.25V27.5C31.25 27.8315 31.3817 28.1495 31.6161 28.3839C31.8505 28.6183 32.1685 28.75 32.5 28.75C32.8315 28.75 33.1495 28.6183 33.3839 28.3839C33.6183 28.1495 33.75 27.8315 33.75 27.5V21.25C33.75 20.2554 33.3549 19.3016 32.6517 18.5983C31.9484 17.8951 30.9946 17.5 30 17.5Z" fill="#05058C"/>
<path d="M26.25 31.25H13.75C13.4185 31.25 13.1005 31.3817 12.8661 31.6161C12.6317 31.8505 12.5 32.1685 12.5 32.5C12.5 32.8315 12.6317 33.1495 12.8661 33.3839C13.1005 33.6183 13.4185 33.75 13.75 33.75H26.25C26.5815 33.75 26.8995 33.6183 27.1339 33.3839C27.3683 33.1495 27.5 32.8315 27.5 32.5C27.5 32.1685 27.3683 31.8505 27.1339 31.6161C26.8995 31.3817 26.5815 31.25 26.25 31.25Z" fill="#05058C"/>
<path d="M25 13.75H15C14.337 13.75 13.7011 13.4866 13.2322 13.0178C12.7634 12.5489 12.5 11.913 12.5 11.25V3.75C12.5 3.08696 12.7634 2.45107 13.2322 1.98223C13.7011 1.51339 14.337 1.25 15 1.25H25C25.663 1.25 26.2989 1.51339 26.7678 1.98223C27.2366 2.45107 27.5 3.08696 27.5 3.75V5C27.5 5.33152 27.3683 5.64946 27.1339 5.88388C26.8995 6.1183 26.5815 6.25 26.25 6.25C25.9185 6.25 25.6005 6.1183 25.3661 5.88388C25.1317 5.64946 25 5.33152 25 5V3.75H15V11.25H25V10C25 9.66848 25.1317 9.35054 25.3661 9.11612C25.6005 8.8817 25.9185 8.75 26.25 8.75C26.5815 8.75 26.8995 8.8817 27.1339 9.11612C27.3683 9.35054 27.5 9.66848 27.5 10V11.25C27.5 11.913 27.2366 12.5489 26.7678 13.0178C26.2989 13.4866 25.663 13.75 25 13.75Z" fill="#000033"/>
<path d="M12.5 38.75H2.5C1.83696 38.75 1.20107 38.4866 0.732233 38.0178C0.263392 37.5489 0 36.913 0 36.25V28.75C0 28.087 0.263392 27.4511 0.732233 26.9822C1.20107 26.5134 1.83696 26.25 2.5 26.25H12.5C13.163 26.25 13.7989 26.5134 14.2678 26.9822C14.7366 27.4511 15 28.087 15 28.75V36.25C15 36.913 14.7366 37.5489 14.2678 38.0178C13.7989 38.4866 13.163 38.75 12.5 38.75ZM2.5 28.75V36.25H12.5V28.75H2.5Z" fill="#000033"/>
<path d="M37.5 38.75H27.5C26.837 38.75 26.2011 38.4866 25.7322 38.0178C25.2634 37.5489 25 36.913 25 36.25V28.75C25 28.087 25.2634 27.4511 25.7322 26.9822C26.2011 26.5134 26.837 26.25 27.5 26.25H37.5C38.163 26.25 38.7989 26.5134 39.2678 26.9822C39.7366 27.4511 40 28.087 40 28.75V36.25C40 36.913 39.7366 37.5489 39.2678 38.0178C38.7989 38.4866 38.163 38.75 37.5 38.75ZM27.5 28.75V36.25H37.5V28.75H27.5Z" fill="#000033"/>
<path d="M21.25 8.75H18.75C18.4185 8.75 18.1005 8.6183 17.8661 8.38388C17.6317 8.14946 17.5 7.83152 17.5 7.5C17.5 7.16848 17.6317 6.85054 17.8661 6.61612C18.1005 6.3817 18.4185 6.25 18.75 6.25H21.25C21.5815 6.25 21.8995 6.3817 22.1339 6.61612C22.3683 6.85054 22.5 7.16848 22.5 7.5C22.5 7.83152 22.3683 8.14946 22.1339 8.38388C21.8995 8.6183 21.5815 8.75 21.25 8.75Z" fill="#05058C"/>
<path d="M8.75 33.75H6.25C5.91848 33.75 5.60054 33.6183 5.36612 33.3839C5.1317 33.1495 5 32.8315 5 32.5C5 32.1685 5.1317 31.8505 5.36612 31.6161C5.60054 31.3817 5.91848 31.25 6.25 31.25H8.75C9.08152 31.25 9.39946 31.3817 9.63388 31.6161C9.8683 31.8505 10 32.1685 10 32.5C10 32.8315 9.8683 33.1495 9.63388 33.3839C9.39946 33.6183 9.08152 33.75 8.75 33.75Z" fill="#05058C"/>
<path d="M33.75 33.75H31.25C30.9185 33.75 30.6005 33.6183 30.3661 33.3839C30.1317 33.1495 30 32.8315 30 32.5C30 32.1685 30.1317 31.8505 30.3661 31.6161C30.6005 31.3817 30.9185 31.25 31.25 31.25H33.75C34.0815 31.25 34.3995 31.3817 34.6339 31.6161C34.8683 31.8505 35 32.1685 35 32.5C35 32.8315 34.8683 33.1495 34.6339 33.3839C34.3995 33.6183 34.0815 33.75 33.75 33.75Z" fill="#05058C"/>
</svg>
