<svg width="40" height="41" viewBox="0 0 40 41" fill="none" xmlns="http://www.w3.org/2000/svg">
<rect y="0.5" width="40" height="40" rx="20" fill="#F4F2FA"/>
<g clip-path="url(#clip0_5201_27464)">
<path d="M25.084 24.312C26.0244 23.3184 26.653 22.071 26.8922 20.724C27.1314 19.377 26.9706 17.9894 26.4297 16.7328C25.8888 15.4762 24.9916 14.4056 23.8489 13.6534C22.7062 12.9011 21.3681 12.5002 20 12.5002C18.6319 12.5002 17.2938 12.9011 16.1511 13.6534C15.0084 14.4056 14.1112 15.4762 13.5703 16.7328C13.0294 17.9894 12.8686 19.377 13.1078 20.724C13.347 22.071 13.9756 23.3184 14.916 24.312C15.4557 23.4508 16.2054 22.741 17.0947 22.2491C17.984 21.7572 18.9837 21.4995 20 21.5C21.0163 21.4995 22.016 21.7572 22.9053 22.2491C23.7946 22.741 24.5443 23.4508 25.084 24.312ZM20 32.228L13.636 25.864C12.3773 24.6053 11.5202 23.0017 11.1729 21.2558C10.8257 19.51 11.0039 17.7004 11.6851 16.0559C12.3663 14.4114 13.5198 13.0058 14.9999 12.0168C16.4799 11.0279 18.22 10.5001 20 10.5001C21.78 10.5001 23.5201 11.0279 25.0001 12.0168C26.4802 13.0058 27.6337 14.4114 28.3149 16.0559C28.9961 17.7004 29.1743 19.51 28.8271 21.2558C28.4798 23.0017 27.6227 24.6053 26.364 25.864L20 32.228ZM20 20.5C19.2044 20.5 18.4413 20.1839 17.8787 19.6213C17.3161 19.0587 17 18.2956 17 17.5C17 16.7044 17.3161 15.9413 17.8787 15.3787C18.4413 14.8161 19.2044 14.5 20 14.5C20.7956 14.5 21.5587 14.8161 22.1213 15.3787C22.6839 15.9413 23 16.7044 23 17.5C23 18.2956 22.6839 19.0587 22.1213 19.6213C21.5587 20.1839 20.7956 20.5 20 20.5Z" fill="#05058C"/>
</g>
<defs>
<clipPath id="clip0_5201_27464">
<rect width="24" height="24" fill="white" transform="translate(8 8.5)"/>
</clipPath>
</defs>
</svg>
