<svg width="40" height="40" viewBox="0 0 40 40" fill="none" xmlns="http://www.w3.org/2000/svg">
<g clip-path="url(#clip0_5201_27362)">
<rect width="40" height="40" fill="white"/>
<path d="M36.75 28.837C37.2193 28.0798 37.4778 27.2108 37.4986 26.3202C37.5195 25.4295 37.302 24.5494 36.8686 23.771C36.4352 22.9926 35.8018 22.3441 35.0337 21.8926C34.2657 21.4412 33.3909 21.2031 32.5 21.2031C31.6091 21.2031 30.7343 21.4412 29.9663 21.8926C29.1982 22.3441 28.5647 22.9926 28.1314 23.771C27.698 24.5494 27.4805 25.4295 27.5014 26.3202C27.5222 27.2108 27.7807 28.0798 28.25 28.837C26.9842 29.7063 26.0191 30.9465 25.4875 32.387C25.1174 31.9851 24.6973 31.6322 24.2375 31.337C24.7068 30.5798 24.9653 29.7108 24.9861 28.8202C25.007 27.9295 24.7895 27.0494 24.3561 26.271C23.9227 25.4926 23.2893 24.8441 22.5212 24.3926C21.7532 23.9412 20.8784 23.7031 19.9875 23.7031C19.0966 23.7031 18.2218 23.9412 17.4538 24.3926C16.6857 24.8441 16.0522 25.4926 15.6189 26.271C15.1855 27.0494 14.968 27.9295 14.9889 28.8202C15.0097 29.7108 15.2682 30.5798 15.7375 31.337C15.2848 31.6371 14.8658 31.9849 14.4875 32.3745C13.9684 30.9376 13.0108 29.7001 11.75 28.837C12.2193 28.0798 12.4778 27.2108 12.4986 26.3202C12.5195 25.4295 12.302 24.5494 11.8686 23.771C11.4352 22.9926 10.8018 22.3441 10.0337 21.8926C9.26565 21.4412 8.39092 21.2031 7.5 21.2031C6.60908 21.2031 5.73435 21.4412 4.96629 21.8926C4.19823 22.3441 3.56475 22.9926 3.13139 23.771C2.69802 24.5494 2.48052 25.4295 2.50137 26.3202C2.52222 27.2108 2.78068 28.0798 3.25 28.837C2.25015 29.5247 1.43209 30.4447 0.866015 31.518C0.299943 32.5914 0.00276949 33.7861 0 34.9995L0 36.2495C0 36.5811 0.131696 36.899 0.366116 37.1334C0.600537 37.3678 0.918479 37.4995 1.25 37.4995H3.75C4.08152 37.4995 4.39946 37.3678 4.63388 37.1334C4.8683 36.899 5 36.5811 5 36.2495C5 35.918 4.8683 35.6001 4.63388 35.3657C4.39946 35.1312 4.08152 34.9995 3.75 34.9995H2.5C2.50102 34.1009 2.74418 33.2192 3.20392 32.4471C3.66365 31.675 4.32296 31.0411 5.1125 30.612C5.83772 31.0264 6.6585 31.2443 7.49375 31.2443C8.32899 31.2443 9.14978 31.0264 9.875 30.612C10.674 31.0308 11.3419 31.6621 11.8051 32.4363C12.2683 33.2104 12.5087 34.0974 12.5 34.9995H8.75C8.41848 34.9995 8.10054 35.1312 7.86612 35.3657C7.6317 35.6001 7.5 35.918 7.5 36.2495C7.5 36.5811 7.6317 36.899 7.86612 37.1334C8.10054 37.3678 8.41848 37.4995 8.75 37.4995H12.5V38.7495C12.5 39.0811 12.6317 39.399 12.8661 39.6334C13.1005 39.8678 13.4185 39.9995 13.75 39.9995H26.25C26.5815 39.9995 26.8995 39.8678 27.1339 39.6334C27.3683 39.399 27.5 39.0811 27.5 38.7495V37.4995H38.75C39.0815 37.4995 39.3995 37.3678 39.6339 37.1334C39.8683 36.899 40 36.5811 40 36.2495V34.9995C40.0037 33.7849 39.7093 32.5878 39.1427 31.5134C38.576 30.439 37.7545 29.52 36.75 28.837ZM5 26.2495C5 25.7551 5.14662 25.2717 5.42133 24.8606C5.69603 24.4495 6.08648 24.1291 6.54329 23.9398C7.00011 23.7506 7.50277 23.7011 7.98772 23.7976C8.47268 23.894 8.91813 24.1321 9.26777 24.4818C9.6174 24.8314 9.8555 25.2769 9.95196 25.7618C10.0484 26.2468 9.99892 26.7494 9.8097 27.2062C9.62048 27.6631 9.30005 28.0535 8.88892 28.3282C8.4778 28.6029 7.99445 28.7495 7.5 28.7495C6.83696 28.7495 6.20107 28.4861 5.73223 28.0173C5.26339 27.5485 5 26.9126 5 26.2495ZM20 26.2495C20.4945 26.2495 20.9778 26.3962 21.3889 26.6709C21.8 26.9456 22.1205 27.336 22.3097 27.7928C22.4989 28.2496 22.5484 28.7523 22.452 29.2373C22.3555 29.7222 22.1174 30.1677 21.7678 30.5173C21.4181 30.8669 20.9727 31.105 20.4877 31.2015C20.0028 31.298 19.5001 31.2485 19.0433 31.0592C18.5865 30.87 18.196 30.5496 17.9213 30.1385C17.6466 29.7273 17.5 29.244 17.5 28.7495C17.5 28.0865 17.7634 27.4506 18.2322 26.9818C18.7011 26.5129 19.337 26.2495 20 26.2495ZM15 37.4995C15.001 36.6009 15.2442 35.7192 15.7039 34.9471C16.1636 34.175 16.823 33.5411 17.6125 33.112C18.3377 33.5264 19.1585 33.7443 19.9937 33.7443C20.829 33.7443 21.6498 33.5264 22.375 33.112C23.174 33.5308 23.8419 34.1621 24.3051 34.9363C24.7683 35.7104 25.0087 36.5974 25 37.4995H15ZM32.5 23.7495C32.9944 23.7495 33.4778 23.8962 33.8889 24.1709C34.3 24.4456 34.6205 24.836 34.8097 25.2928C34.9989 25.7496 35.0484 26.2523 34.952 26.7373C34.8555 27.2222 34.6174 27.6677 34.2678 28.0173C33.9181 28.3669 33.4727 28.605 32.9877 28.7015C32.5028 28.798 32.0001 28.7485 31.5433 28.5592C31.0865 28.37 30.696 28.0496 30.4213 27.6385C30.1466 27.2273 30 26.744 30 26.2495C30 25.5865 30.2634 24.9506 30.7322 24.4818C31.2011 24.0129 31.837 23.7495 32.5 23.7495ZM27.5 34.9995C27.501 34.1009 27.7442 33.2192 28.2039 32.4471C28.6636 31.675 29.323 31.0411 30.1125 30.612C30.8377 31.0264 31.6585 31.2443 32.4937 31.2443C33.329 31.2443 34.1498 31.0264 34.875 30.612C35.674 31.0308 36.3419 31.6621 36.8051 32.4363C37.2683 33.2104 37.5087 34.0974 37.5 34.9995H27.5Z" fill="#000033"/>
<path d="M22.5008 20H17.5008C17.1693 20 16.8513 19.8683 16.6169 19.6339C16.3825 19.3995 16.2508 19.0815 16.2508 18.75C16.268 18.5156 16.2188 18.281 16.1088 18.0733C15.9988 17.8656 15.8324 17.6931 15.6288 17.5756C15.4252 17.4581 15.1926 17.4005 14.9577 17.4092C14.7228 17.4179 14.4951 17.4927 14.3008 17.625C14.1581 17.7076 14.0005 17.7613 13.8371 17.7827C13.6736 17.8042 13.5075 17.7931 13.3483 17.7502C13.1891 17.7072 13.04 17.6331 12.9096 17.5323C12.7792 17.4314 12.67 17.3057 12.5883 17.1625L10.0883 12.8375C10.0057 12.6948 9.95205 12.5372 9.93057 12.3738C9.9091 12.2103 9.92017 12.0442 9.96316 11.885C10.0061 11.7258 10.0802 11.5767 10.1811 11.4463C10.2819 11.3159 10.4076 11.2067 10.5508 11.125C10.7621 11.0226 10.9404 10.8628 11.0651 10.6639C11.1898 10.4649 11.2559 10.2348 11.2559 10C11.2559 9.76518 11.1898 9.53511 11.0651 9.33614C10.9404 9.13717 10.7621 8.97736 10.5508 8.875C10.4076 8.79334 10.2819 8.68414 10.1811 8.55371C10.0802 8.42328 10.0061 8.27418 9.96316 8.115C9.92017 7.95583 9.9091 7.78972 9.93057 7.62625C9.95205 7.46278 10.0057 7.30517 10.0883 7.1625L12.5883 2.8375C12.67 2.69427 12.7792 2.5686 12.9096 2.46775C13.04 2.36689 13.1891 2.29284 13.3483 2.24985C13.5075 2.20686 13.6736 2.19579 13.8371 2.21726C14.0005 2.23874 14.1581 2.29235 14.3008 2.375C14.4951 2.50727 14.7228 2.58207 14.9577 2.5908C15.1926 2.59954 15.4252 2.54187 15.6288 2.4244C15.8324 2.30693 15.9988 2.13443 16.1088 1.9267C16.2188 1.71897 16.268 1.48443 16.2508 1.25C16.2508 0.918479 16.3825 0.600537 16.6169 0.366117C16.8513 0.131696 17.1693 0 17.5008 0L22.5008 0C22.8323 0 23.1503 0.131696 23.3847 0.366117C23.6191 0.600537 23.7508 0.918479 23.7508 1.25C23.7336 1.48443 23.7828 1.71897 23.8928 1.9267C24.0028 2.13443 24.1692 2.30693 24.3728 2.4244C24.5764 2.54187 24.809 2.59954 25.0439 2.5908C25.2788 2.58207 25.5065 2.50727 25.7008 2.375C25.8435 2.29235 26.0011 2.23874 26.1646 2.21726C26.328 2.19579 26.4941 2.20686 26.6533 2.24985C26.8125 2.29284 26.9616 2.36689 27.092 2.46775C27.2225 2.5686 27.3316 2.69427 27.4133 2.8375L29.9133 7.1625C29.996 7.30517 30.0496 7.46278 30.071 7.62625C30.0925 7.78972 30.0814 7.95583 30.0385 8.115C29.9955 8.27418 29.9214 8.42328 29.8206 8.55371C29.7197 8.68414 29.594 8.79334 29.4508 8.875C29.2395 8.97736 29.0612 9.13717 28.9365 9.33614C28.8118 9.53511 28.7457 9.76518 28.7457 10C28.7457 10.2348 28.8118 10.4649 28.9365 10.6639C29.0612 10.8628 29.2395 11.0226 29.4508 11.125C29.594 11.2067 29.7197 11.3159 29.8206 11.4463C29.9214 11.5767 29.9955 11.7258 30.0385 11.885C30.0814 12.0442 30.0925 12.2103 30.071 12.3738C30.0496 12.5372 29.996 12.6948 29.9133 12.8375L27.4133 17.1625C27.3316 17.3057 27.2225 17.4314 27.092 17.5323C26.9616 17.6331 26.8125 17.7072 26.6533 17.7502C26.4941 17.7931 26.328 17.8042 26.1646 17.7827C26.0011 17.7613 25.8435 17.7076 25.7008 17.625C25.5065 17.4927 25.2788 17.4179 25.0439 17.4092C24.809 17.4005 24.5764 17.4581 24.3728 17.5756C24.1692 17.6931 24.0028 17.8656 23.8928 18.0733C23.7828 18.281 23.7336 18.5156 23.7508 18.75C23.7508 19.0815 23.6191 19.3995 23.3847 19.6339C23.1503 19.8683 22.8323 20 22.5008 20ZM18.5383 17.5H21.4633C21.7508 16.6299 22.3469 15.8951 23.1392 15.4345C23.9314 14.9739 24.8649 14.8193 25.7633 15L27.2258 12.5C26.6109 11.8125 26.2709 10.9224 26.2709 10C26.2709 9.07758 26.6109 8.18753 27.2258 7.5L25.7633 5C24.8649 5.18067 23.9314 5.0261 23.1392 4.5655C22.3469 4.1049 21.7508 3.37014 21.4633 2.5H18.5383C18.2508 3.37014 17.6547 4.1049 16.8624 4.5655C16.0702 5.0261 15.1367 5.18067 14.2383 5L12.7758 7.5C13.3908 8.18753 13.7307 9.07758 13.7307 10C13.7307 10.9224 13.3908 11.8125 12.7758 12.5L14.2383 15C15.1367 14.8193 16.0702 14.9739 16.8624 15.4345C17.6547 15.8951 18.2508 16.6299 18.5383 17.5Z" fill="#05058C"/>
<path d="M20 13.75C19.2583 13.75 18.5333 13.5301 17.9166 13.118C17.2999 12.706 16.8193 12.1203 16.5355 11.4351C16.2516 10.7498 16.1774 9.99584 16.3221 9.26841C16.4668 8.54098 16.8239 7.8728 17.3484 7.34835C17.8728 6.8239 18.541 6.46675 19.2684 6.32206C19.9958 6.17736 20.7498 6.25162 21.4351 6.53545C22.1203 6.81928 22.706 7.29993 23.118 7.91661C23.5301 8.5333 23.75 9.25832 23.75 10C23.75 10.9946 23.3549 11.9484 22.6517 12.6517C21.9484 13.3549 20.9946 13.75 20 13.75ZM20 8.75C19.7528 8.75 19.5111 8.82331 19.3055 8.96066C19.1 9.09802 18.9398 9.29324 18.8452 9.52165C18.7505 9.75006 18.7258 10.0014 18.774 10.2439C18.8223 10.4863 18.9413 10.7091 19.1161 10.8839C19.2909 11.0587 19.5137 11.1778 19.7561 11.226C19.9986 11.2742 20.2499 11.2495 20.4784 11.1549C20.7068 11.0602 20.902 10.9 21.0393 10.6945C21.1767 10.4889 21.25 10.2472 21.25 10C21.25 9.66848 21.1183 9.35054 20.8839 9.11612C20.6495 8.8817 20.3315 8.75 20 8.75Z" fill="#05058C"/>
</g>
<defs>
<clipPath id="clip0_5201_27362">
<rect width="40" height="40" fill="white"/>
</clipPath>
</defs>
</svg>
