<svg width="40" height="40" viewBox="0 0 40 40" fill="none" xmlns="http://www.w3.org/2000/svg">
<g clip-path="url(#clip0_5201_27523)">
<rect width="40" height="40" fill="white"/>
<path d="M20 15C18.0222 15 16.0888 15.5865 14.4443 16.6853C12.7998 17.7841 11.5181 19.3459 10.7612 21.1732C10.0043 23.0004 9.8063 25.0111 10.1922 26.9509C10.578 28.8907 11.5304 30.6725 12.9289 32.0711C14.3275 33.4696 16.1093 34.422 18.0491 34.8079C19.9889 35.1937 21.9996 34.9957 23.8268 34.2388C25.6541 33.4819 27.2159 32.2002 28.3147 30.5557C29.4135 28.9112 30 26.9778 30 25C30 22.3478 28.9464 19.8043 27.0711 17.9289C25.1957 16.0536 22.6522 15 20 15ZM27.3875 23.75H24.825C24.6006 22.8902 24.151 22.1057 23.5227 21.4774C22.8943 20.849 22.1098 20.3994 21.25 20.175V17.6125C22.7831 17.873 24.1972 18.6036 25.2968 19.7032C26.3964 20.8028 27.127 22.2169 27.3875 23.75ZM20 22.5C20.4945 22.5 20.9778 22.6466 21.3889 22.9213C21.8001 23.196 22.1205 23.5865 22.3097 24.0433C22.4989 24.5001 22.5484 25.0028 22.452 25.4877C22.3555 25.9727 22.1174 26.4181 21.7678 26.7678C21.4181 27.1174 20.9727 27.3555 20.4877 27.452C20.0028 27.5484 19.5001 27.4989 19.0433 27.3097C18.5865 27.1205 18.196 26.8 17.9213 26.3889C17.6466 25.9778 17.5 25.4945 17.5 25C17.5 24.337 17.7634 23.7011 18.2322 23.2322C18.7011 22.7634 19.337 22.5 20 22.5ZM12.5 25C12.5018 23.2289 13.1303 21.5156 14.2742 20.1635C15.4182 18.8113 17.0037 17.9077 18.75 17.6125V20.175C18.0661 20.3118 17.4184 20.5901 16.8485 20.9921C16.2786 21.3941 15.7992 21.9109 15.4409 22.5093C15.0826 23.1076 14.8534 23.7743 14.7682 24.4665C14.6829 25.1587 14.7434 25.861 14.9457 26.5285C15.148 27.1959 15.4877 27.8136 15.943 28.3419C16.3983 28.8702 16.959 29.2974 17.5893 29.5961C18.2195 29.8948 18.9052 30.0584 19.6024 30.0762C20.2996 30.0941 20.9928 29.966 21.6375 29.7L23.0625 31.8375C21.9211 32.3481 20.6702 32.5652 19.4235 32.4691C18.1769 32.373 16.974 31.9667 15.9244 31.2872C14.8747 30.6078 14.0116 29.6767 13.4136 28.5786C12.8155 27.4805 12.5015 26.2504 12.5 25ZM25.1375 30.45L23.75 28.3125C24.2655 27.7191 24.6338 27.0124 24.825 26.25H27.3875C27.114 27.8574 26.3241 29.3318 25.1375 30.45Z" fill="#05058C"/>
<path d="M38.75 12.5C39.0815 12.5 39.3995 12.3683 39.6339 12.1339C39.8683 11.8995 40 11.5815 40 11.25V3.75C40 2.75544 39.6049 1.80161 38.9016 1.09835C38.1984 0.395088 37.2446 0 36.25 0L3.75 0C2.75544 0 1.80161 0.395088 1.09835 1.09835C0.395088 1.80161 0 2.75544 0 3.75L0 36.25C0 37.2446 0.395088 38.1984 1.09835 38.9016C1.80161 39.6049 2.75544 40 3.75 40H36.25C37.2446 40 38.1984 39.6049 38.9016 38.9016C39.6049 38.1984 40 37.2446 40 36.25V16.25C40 15.9185 39.8683 15.6005 39.6339 15.3661C39.3995 15.1317 39.0815 15 38.75 15C38.4185 15 38.1005 15.1317 37.8661 15.3661C37.6317 15.6005 37.5 15.9185 37.5 16.25V36.25C37.5 36.5815 37.3683 36.8995 37.1339 37.1339C36.8995 37.3683 36.5815 37.5 36.25 37.5H3.75C3.41848 37.5 3.10054 37.3683 2.86612 37.1339C2.6317 36.8995 2.5 36.5815 2.5 36.25V12.5H38.75ZM2.5 3.75C2.5 3.41848 2.6317 3.10054 2.86612 2.86612C3.10054 2.6317 3.41848 2.5 3.75 2.5H36.25C36.5815 2.5 36.8995 2.6317 37.1339 2.86612C37.3683 3.10054 37.5 3.41848 37.5 3.75V10H2.5V3.75Z" fill="#000033"/>
<path d="M6.25 5C6.00277 5 5.7611 5.07331 5.55554 5.21066C5.34998 5.34801 5.18976 5.54324 5.09515 5.77165C5.00054 6.00005 4.97579 6.25139 5.02402 6.49386C5.07225 6.73634 5.1913 6.95907 5.36612 7.13388C5.54093 7.3087 5.76366 7.42775 6.00614 7.47598C6.24861 7.52421 6.49995 7.49946 6.72836 7.40485C6.95676 7.31024 7.15199 7.15002 7.28934 6.94446C7.42669 6.7389 7.5 6.49723 7.5 6.25C7.5 5.91848 7.3683 5.60054 7.13388 5.36612C6.89946 5.1317 6.58152 5 6.25 5Z" fill="#000033"/>
<path d="M11.25 5C11.0028 5 10.7611 5.07331 10.5555 5.21066C10.35 5.34801 10.1898 5.54324 10.0952 5.77165C10.0005 6.00005 9.97579 6.25139 10.024 6.49386C10.0723 6.73634 10.1913 6.95907 10.3661 7.13388C10.5409 7.3087 10.7637 7.42775 11.0061 7.47598C11.2486 7.52421 11.4999 7.49946 11.7284 7.40485C11.9568 7.31024 12.152 7.15002 12.2893 6.94446C12.4267 6.7389 12.5 6.49723 12.5 6.25C12.5 5.91848 12.3683 5.60054 12.1339 5.36612C11.8995 5.1317 11.5815 5 11.25 5Z" fill="#000033"/>
<path d="M16.25 5C16.0028 5 15.7611 5.07331 15.5555 5.21066C15.35 5.34801 15.1898 5.54324 15.0952 5.77165C15.0005 6.00005 14.9758 6.25139 15.024 6.49386C15.0723 6.73634 15.1913 6.95907 15.3661 7.13388C15.5409 7.3087 15.7637 7.42775 16.0061 7.47598C16.2486 7.52421 16.4999 7.49946 16.7284 7.40485C16.9568 7.31024 17.152 7.15002 17.2893 6.94446C17.4267 6.7389 17.5 6.49723 17.5 6.25C17.5 5.91848 17.3683 5.60054 17.1339 5.36612C16.8995 5.1317 16.5815 5 16.25 5Z" fill="#000033"/>
</g>
<defs>
<clipPath id="clip0_5201_27523">
<rect width="40" height="40" fill="white"/>
</clipPath>
</defs>
</svg>
