<svg width="40" height="40" viewBox="0 0 40 40" fill="none" xmlns="http://www.w3.org/2000/svg">
<g clip-path="url(#clip0_5202_29218)">
<rect width="40" height="40" fill="white"/>
<path d="M30 25.1511C30 24.7761 30 26.7011 30 15.0011C29.9925 14.8156 29.9501 14.6333 29.875 14.4636C29.625 13.9386 30.0125 14.2886 20.625 8.91356C20.435 8.80385 20.2194 8.74609 20 8.74609C19.7806 8.74609 19.565 8.80385 19.375 8.91356C9.8375 14.3761 10.3125 13.9136 10.0875 14.5636C10 14.9136 10 14.0386 10 25.0011C10.0211 25.136 10.0503 25.2696 10.0875 25.4011C10.1424 25.5486 10.2182 25.6875 10.3125 25.8136L10.625 26.0886C20 31.4511 19.55 31.2511 20 31.2511C20.45 31.2511 20 31.4261 29.375 26.0886C29.375 26.0886 29.6375 25.8636 29.6875 25.8136C29.8555 25.6289 29.9643 25.3981 30 25.1511ZM12.5 17.1511L18.75 20.7261V27.8511L12.5 24.2761V17.1511ZM21.25 20.7261L27.5 17.1511V24.2761L21.25 27.8511V20.7261ZM20 11.4386L26.25 15.0011L20 18.5636L13.75 15.0011L20 11.4386Z" fill="#05058C"/>
<path d="M3.12505 24.6625C2.71004 23.1431 2.49985 21.5751 2.50005 20C2.50005 19.6685 2.36835 19.3505 2.13393 19.1161C1.89951 18.8817 1.58157 18.75 1.25005 18.75C0.918524 18.75 0.600582 18.8817 0.366162 19.1161C0.131741 19.3505 4.50219e-05 19.6685 4.50219e-05 20C-0.00381171 21.804 0.240135 23.5999 0.725045 25.3375C0.764469 25.498 0.83533 25.6491 0.933528 25.782C1.03173 25.915 1.15531 26.0271 1.29714 26.112C1.43896 26.1968 1.5962 26.2527 1.75977 26.2764C1.92333 26.3001 2.08997 26.2911 2.25004 26.25C2.41409 26.2071 2.56769 26.1312 2.70149 26.0271C2.83529 25.9229 2.94651 25.7926 3.02836 25.6441C3.11021 25.4956 3.16099 25.332 3.17761 25.1632C3.19424 24.9945 3.17635 24.8241 3.12505 24.6625Z" fill="#05058C"/>
<path d="M20 7.51242e-05C17.1573 -0.00775529 14.3461 0.596642 11.7578 1.77217C9.1695 2.9477 6.86465 4.6668 5 6.81257V6.25008C5 5.91855 4.8683 5.60061 4.63388 5.36619C4.39946 5.13177 4.08152 5.00008 3.75 5.00008C3.41848 5.00008 3.10054 5.13177 2.86612 5.36619C2.6317 5.60061 2.5 5.91855 2.5 6.25008V10.0001C2.5 10.3316 2.6317 10.6495 2.86612 10.884C3.10054 11.1184 3.41848 11.2501 3.75 11.2501H7.5C7.83152 11.2501 8.14946 11.1184 8.38388 10.884C8.6183 10.6495 8.75 10.3316 8.75 10.0001C8.75 9.66855 8.6183 9.35061 8.38388 9.11619C8.14946 8.88177 7.83152 8.75008 7.5 8.75008H6.6375C8.26586 6.78711 10.3084 5.20877 12.6186 4.12821C14.9289 3.04765 17.4496 2.49165 20 2.50008C24.6413 2.50008 29.0925 4.34382 32.3744 7.62571C35.6563 10.9076 37.5 15.3588 37.5 20.0001C37.5 20.3316 37.6317 20.6495 37.8661 20.884C38.1005 21.1184 38.4185 21.2501 38.75 21.2501C39.0815 21.2501 39.3995 21.1184 39.6339 20.884C39.8683 20.6495 40 20.3316 40 20.0001C40 14.6957 37.8929 9.60867 34.1421 5.85794C30.3914 2.10721 25.3043 7.51242e-05 20 7.51242e-05Z" fill="#000033"/>
<path d="M36.2504 28.7504H32.5004C32.1689 28.7504 31.8509 28.8821 31.6165 29.1165C31.3821 29.3509 31.2504 29.6689 31.2504 30.0004C31.2504 30.3319 31.3821 30.6499 31.6165 30.8843C31.8509 31.1187 32.1689 31.2504 32.5004 31.2504H33.3629C31.5538 33.398 29.2544 35.0786 26.659 36.1505C24.0636 37.2224 21.2484 37.6539 18.4511 37.4088C15.6538 37.1636 12.9566 36.2489 10.5872 34.7419C8.21784 33.2349 6.24589 31.1799 4.8379 28.7504C4.67214 28.462 4.39859 28.2512 4.07744 28.1645C3.75628 28.0777 3.41382 28.1221 3.1254 28.2879C2.83698 28.4537 2.62622 28.7272 2.53948 29.0484C2.45275 29.3695 2.49714 29.712 2.6629 30.0004C4.25275 32.7492 6.47428 35.08 9.1437 36.7998C11.8131 38.5197 14.8537 39.5792 18.0139 39.8907C21.174 40.2022 24.363 39.7567 27.3168 38.5912C30.2706 37.4256 32.9045 35.5734 35.0004 33.1879V33.7504C35.0004 34.0819 35.1321 34.3999 35.3665 34.6343C35.6009 34.8687 35.9189 35.0004 36.2504 35.0004C36.5819 35.0004 36.8999 34.8687 37.1343 34.6343C37.3687 34.3999 37.5004 34.0819 37.5004 33.7504V30.0004C37.5004 29.6689 37.3687 29.3509 37.1343 29.1165C36.8999 28.8821 36.5819 28.7504 36.2504 28.7504Z" fill="#000033"/>
</g>
<defs>
<clipPath id="clip0_5202_29218">
<rect width="40" height="40" fill="white"/>
</clipPath>
</defs>
</svg>
