<svg width="40" height="41" viewBox="0 0 40 41" fill="none" xmlns="http://www.w3.org/2000/svg">
<rect y="0.5" width="40" height="40" rx="20" fill="#F4F2FA"/>
<g clip-path="url(#clip0_5201_27171)">
<path d="M20 22.5V30.5H12C12 28.3783 12.8429 26.3434 14.3431 24.8431C15.8434 23.3429 17.8783 22.5 20 22.5ZM26 30L23.061 31.545L23.622 28.273L21.245 25.955L24.531 25.477L26 22.5L27.47 25.477L30.755 25.955L28.378 28.273L28.938 31.545L26 30ZM20 21.5C16.685 21.5 14 18.815 14 15.5C14 12.185 16.685 9.5 20 9.5C23.315 9.5 26 12.185 26 15.5C26 18.815 23.315 21.5 20 21.5Z" fill="#05058C"/>
</g>
<defs>
<clipPath id="clip0_5201_27171">
<rect width="24" height="24" fill="white" transform="translate(8 8.5)"/>
</clipPath>
</defs>
</svg>
