<svg width="40" height="41" viewBox="0 0 40 41" fill="none" xmlns="http://www.w3.org/2000/svg">
<rect y="0.5" width="40" height="40" rx="20" fill="#F4F2FA"/>
<g clip-path="url(#clip0_5202_28560)">
<path d="M18.9 10.6L28.799 12.015L30.213 21.915L21.021 31.107C20.8335 31.2945 20.5792 31.3998 20.314 31.3998C20.0488 31.3998 19.7945 31.2945 19.607 31.107L9.707 21.207C9.51953 21.0195 9.41421 20.7652 9.41421 20.5C9.41421 20.2348 9.51953 19.9805 9.707 19.793L18.9 10.6ZM21.728 19.086C21.9138 19.2717 22.1343 19.419 22.3769 19.5194C22.6196 19.6199 22.8797 19.6716 23.1424 19.6716C23.405 19.6715 23.6651 19.6197 23.9077 19.5192C24.1504 19.4186 24.3708 19.2713 24.5565 19.0855C24.7422 18.8997 24.8895 18.6792 24.9899 18.4366C25.0904 18.1939 25.1421 17.9338 25.1421 17.6711C25.142 17.4085 25.0902 17.1484 24.9897 16.9058C24.8891 16.6631 24.7418 16.4427 24.556 16.257C24.3702 16.0713 24.1497 15.924 23.9071 15.8236C23.6644 15.7231 23.4043 15.6714 23.1416 15.6714C22.6112 15.6715 22.1025 15.8824 21.7275 16.2575C21.3525 16.6326 21.1419 17.1414 21.1419 17.6719C21.142 18.2023 21.3529 18.711 21.728 19.086Z" fill="#05058C"/>
</g>
<defs>
<clipPath id="clip0_5202_28560">
<rect width="24" height="24" fill="white" transform="translate(8 8.5)"/>
</clipPath>
</defs>
</svg>
