<svg width="40" height="40" viewBox="0 0 40 40" fill="none" xmlns="http://www.w3.org/2000/svg">
<rect width="40" height="40" rx="20" fill="#F4F2FA"/>
<g clip-path="url(#clip0_5202_28706)">
<path d="M12.929 27.071C11.999 26.1434 11.2615 25.0413 10.7589 23.8278C10.2562 22.6143 9.99833 21.3135 10 20C10 14.477 14.477 10 20 10C25.523 10 30 14.477 30 20C30 25.523 25.523 30 20 30H10L12.929 27.071ZM16 21C16 22.0609 16.4214 23.0783 17.1716 23.8284C17.9217 24.5786 18.9391 25 20 25C21.0609 25 22.0783 24.5786 22.8284 23.8284C23.5786 23.0783 24 22.0609 24 21H16Z" fill="#05058C"/>
</g>
<defs>
<clipPath id="clip0_5202_28706">
<rect width="24" height="24" fill="white" transform="translate(8 8)"/>
</clipPath>
</defs>
</svg>
