<svg width="40" height="40" viewBox="0 0 40 40" fill="none" xmlns="http://www.w3.org/2000/svg">
<g clip-path="url(#clip0_5201_27213)">
<rect width="40" height="40" fill="white"/>
<path d="M36.125 26.825C37.1821 25.3233 37.6514 23.4859 37.444 21.6612C37.2367 19.8365 36.3671 18.1513 35 16.925V8.75C35 7.75544 34.6049 6.80161 33.9016 6.09835C33.1984 5.39509 32.2446 5 31.25 5H21.25V3.75C21.25 2.75544 20.8549 1.80161 20.1517 1.09835C19.4484 0.395088 18.4946 0 17.5 0C16.5054 0 15.5516 0.395088 14.8483 1.09835C14.1451 1.80161 13.75 2.75544 13.75 3.75V5H3.75C2.75544 5 1.80161 5.39509 1.09835 6.09835C0.395088 6.80161 0 7.75544 0 8.75L0 28.75C0 29.7446 0.395088 30.6984 1.09835 31.4017C1.80161 32.1049 2.75544 32.5 3.75 32.5H19.425C18.6125 34.7625 18.75 36.0875 18.75 38.75C18.75 39.0815 18.8817 39.3995 19.1161 39.6339C19.3505 39.8683 19.6685 40 20 40H22.5C22.8315 40 23.1495 39.8683 23.3839 39.6339C23.6183 39.3995 23.75 39.0815 23.75 38.75C23.75 38.4185 23.6183 38.1005 23.3839 37.8661C23.1495 37.6317 22.8315 37.5 22.5 37.5H21.25V36.25C21.2549 34.7017 21.6705 33.1823 22.4545 31.8471C23.2385 30.5119 24.3628 29.4087 25.7125 28.65C26.9692 29.5237 28.4632 29.992 29.9938 29.992C31.5243 29.992 33.0183 29.5237 34.275 28.65C35.6358 29.3969 36.7698 30.4971 37.5574 31.8348C38.345 33.1724 38.757 34.6977 38.75 36.25V37.5H27.5C27.1685 37.5 26.8505 37.6317 26.6161 37.8661C26.3817 38.1005 26.25 38.4185 26.25 38.75C26.25 39.0815 26.3817 39.3995 26.6161 39.6339C26.8505 39.8683 27.1685 40 27.5 40H40C40.3315 40 40.6495 39.8683 40.8839 39.6339C41.1183 39.3995 41.25 39.0815 41.25 38.75V36.25C41.2549 34.3752 40.7881 32.5293 39.8925 30.8823C38.9969 29.2352 37.7013 27.84 36.125 26.825ZM16.25 3.75C16.25 3.41848 16.3817 3.10054 16.6161 2.86612C16.8505 2.6317 17.1685 2.5 17.5 2.5C17.8315 2.5 18.1495 2.6317 18.3839 2.86612C18.6183 3.10054 18.75 3.41848 18.75 3.75V5H16.25V3.75ZM20.6625 30H3.75C3.41848 30 3.10054 29.8683 2.86612 29.6339C2.6317 29.3995 2.5 29.0815 2.5 28.75V8.75C2.5 8.41848 2.6317 8.10054 2.86612 7.86612C3.10054 7.6317 3.41848 7.5 3.75 7.5H31.25C31.5815 7.5 31.8995 7.6317 32.1339 7.86612C32.3683 8.10054 32.5 8.41848 32.5 8.75V15.4375C31.0026 14.9135 29.3776 14.8778 27.8586 15.3356C26.3397 15.7934 25.005 16.721 24.0465 17.9851C23.088 19.2492 22.555 20.7848 22.5242 22.3709C22.4934 23.957 22.9663 25.5121 23.875 26.8125C22.5975 27.6442 21.5042 28.7291 20.6625 30ZM25 22.5C25 21.5111 25.2932 20.5444 25.8427 19.7221C26.3921 18.8999 27.173 18.259 28.0866 17.8806C29.0002 17.5022 30.0055 17.4031 30.9755 17.5961C31.9454 17.789 32.8363 18.2652 33.5355 18.9645C34.2348 19.6637 34.711 20.5546 34.9039 21.5245C35.0969 22.4945 34.9978 23.4998 34.6194 24.4134C34.241 25.327 33.6001 26.1079 32.7779 26.6573C31.9556 27.2068 30.9889 27.5 30 27.5C28.6739 27.5 27.4021 26.9732 26.4645 26.0355C25.5268 25.0979 25 23.8261 25 22.5Z" fill="#000033"/>
<path d="M28.75 12.5H6.25C5.91848 12.5 5.60054 12.3683 5.36612 12.1339C5.1317 11.8995 5 11.5815 5 11.25C5 10.9185 5.1317 10.6005 5.36612 10.3661C5.60054 10.1317 5.91848 10 6.25 10H28.75C29.0815 10 29.3995 10.1317 29.6339 10.3661C29.8683 10.6005 30 10.9185 30 11.25C30 11.5815 29.8683 11.8995 29.6339 12.1339C29.3995 12.3683 29.0815 12.5 28.75 12.5Z" fill="#05058C"/>
<path d="M21.25 17.5H6.25C5.91848 17.5 5.60054 17.3683 5.36612 17.1339C5.1317 16.8995 5 16.5815 5 16.25C5 15.9185 5.1317 15.6005 5.36612 15.3661C5.60054 15.1317 5.91848 15 6.25 15H21.25C21.5815 15 21.8995 15.1317 22.1339 15.3661C22.3683 15.6005 22.5 15.9185 22.5 16.25C22.5 16.5815 22.3683 16.8995 22.1339 17.1339C21.8995 17.3683 21.5815 17.5 21.25 17.5Z" fill="#05058C"/>
<path d="M18.75 22.5H6.25C5.91848 22.5 5.60054 22.3683 5.36612 22.1339C5.1317 21.8995 5 21.5815 5 21.25C5 20.9185 5.1317 20.6005 5.36612 20.3661C5.60054 20.1317 5.91848 20 6.25 20H18.75C19.0815 20 19.3995 20.1317 19.6339 20.3661C19.8683 20.6005 20 20.9185 20 21.25C20 21.5815 19.8683 21.8995 19.6339 22.1339C19.3995 22.3683 19.0815 22.5 18.75 22.5Z" fill="#05058C"/>
<path d="M18.75 27.5H6.25C5.91848 27.5 5.60054 27.3683 5.36612 27.1339C5.1317 26.8995 5 26.5815 5 26.25C5 25.9185 5.1317 25.6005 5.36612 25.3661C5.60054 25.1317 5.91848 25 6.25 25H18.75C19.0815 25 19.3995 25.1317 19.6339 25.3661C19.8683 25.6005 20 25.9185 20 26.25C20 26.5815 19.8683 26.8995 19.6339 27.1339C19.3995 27.3683 19.0815 27.5 18.75 27.5Z" fill="#05058C"/>
</g>
<defs>
<clipPath id="clip0_5201_27213">
<rect width="40" height="40" fill="white"/>
</clipPath>
</defs>
</svg>
