<svg width="40" height="41" viewBox="0 0 40 41" fill="none" xmlns="http://www.w3.org/2000/svg">
<rect y="0.5" width="40" height="40" rx="20" fill="#F4F2FA"/>
<path d="M27 14.5H19C18.7348 14.5 18.4804 14.6054 18.2929 14.7929C18.1054 14.9804 18 15.2348 18 15.5V28.5H12C11.7348 28.5 11.4804 28.3946 11.2929 28.2071C11.1054 28.0196 11 27.7652 11 27.5V11.5C11 11.2348 11.1054 10.9804 11.2929 10.7929C11.4804 10.6054 11.7348 10.5 12 10.5H26C26.2652 10.5 26.5196 10.6054 26.7071 10.7929C26.8946 10.9804 27 11.2348 27 11.5V14.5ZM21 16.5H29C29.2652 16.5 29.5196 16.6054 29.7071 16.7929C29.8946 16.9804 30 17.2348 30 17.5V29.5C30 29.7652 29.8946 30.0196 29.7071 30.2071C29.5196 30.3946 29.2652 30.5 29 30.5H21C20.7348 30.5 20.4804 30.3946 20.2929 30.2071C20.1054 30.0196 20 29.7652 20 29.5V17.5C20 17.2348 20.1054 16.9804 20.2929 16.7929C20.4804 16.6054 20.7348 16.5 21 16.5Z" fill="#05058C"/>
</svg>
