<svg width="40" height="40" viewBox="0 0 40 40" fill="none" xmlns="http://www.w3.org/2000/svg">
<g clip-path="url(#clip0_5202_28814)">
<rect width="40" height="40" fill="white"/>
<path d="M8.74946 38.7512C8.50118 38.7527 8.25809 38.6801 8.05119 38.5429C7.84429 38.4056 7.68295 38.2099 7.58774 37.9806C7.49254 37.7513 7.46777 37.4988 7.51661 37.2554C7.56544 37.0119 7.68567 36.7885 7.86196 36.6137L9.48696 35.0012L7.86196 33.3887C7.62658 33.1533 7.49434 32.8341 7.49434 32.5012C7.49434 32.1683 7.62658 31.8491 7.86196 31.6137C8.09734 31.3783 8.41658 31.2461 8.74946 31.2461C9.08233 31.2461 9.40158 31.3783 9.63696 31.6137L12.137 34.1137C12.2541 34.2299 12.3471 34.3682 12.4106 34.5205C12.474 34.6728 12.5067 34.8362 12.5067 35.0012C12.5067 35.1662 12.474 35.3296 12.4106 35.4819C12.3471 35.6343 12.2541 35.7725 12.137 35.8887C9.41196 38.6137 9.42446 38.7512 8.74946 38.7512Z" fill="#000033"/>
<path d="M13.75 10H18.75V16.25C18.75 16.5815 18.8817 16.8995 19.1161 17.1339C19.3505 17.3683 19.6685 17.5 20 17.5C20.3315 17.5 20.6495 17.3683 20.8839 17.1339C21.1183 16.8995 21.25 16.5815 21.25 16.25V10H26.25C26.5815 10 26.8995 9.8683 27.1339 9.63388C27.3683 9.39946 27.5 9.08152 27.5 8.75V1.25C27.5 0.918479 27.3683 0.600537 27.1339 0.366117C26.8995 0.131696 26.5815 0 26.25 0L22.5 0C22.1685 0 21.8505 0.131696 21.6161 0.366117C21.3817 0.600537 21.25 0.918479 21.25 1.25C21.25 1.58152 21.3817 1.89946 21.6161 2.13388C21.8505 2.3683 22.1685 2.5 22.5 2.5H25V7.5H15V2.5H17.5C17.8315 2.5 18.1495 2.3683 18.3839 2.13388C18.6183 1.89946 18.75 1.58152 18.75 1.25C18.75 0.918479 18.6183 0.600537 18.3839 0.366117C18.1495 0.131696 17.8315 0 17.5 0L13.75 0C13.4185 0 13.1005 0.131696 12.8661 0.366117C12.6317 0.600537 12.5 0.918479 12.5 1.25V8.75C12.5 9.08152 12.6317 9.39946 12.8661 9.63388C13.1005 9.8683 13.4185 10 13.75 10Z" fill="#05058C"/>
<path d="M21.2481 29.6V23.75C21.2481 23.4185 21.1165 23.1005 20.882 22.8661C20.6476 22.6317 20.3297 22.5 19.9981 22.5C19.6666 22.5 19.3487 22.6317 19.1143 22.8661C18.8798 23.1005 18.7481 23.4185 18.7481 23.75V29.6L12.7356 38.025C12.6028 38.2116 12.5238 38.431 12.5072 38.6595C12.4906 38.8879 12.5371 39.1165 12.6416 39.3203C12.746 39.5241 12.9045 39.6952 13.0997 39.8151C13.2948 39.935 13.5191 39.9989 13.7481 40H26.2481C26.4772 39.9989 26.7015 39.935 26.8966 39.8151C27.0918 39.6952 27.2503 39.5241 27.3547 39.3203C27.4592 39.1165 27.5057 38.8879 27.4891 38.6595C27.4725 38.431 27.3935 38.2116 27.2606 38.025L21.2481 29.6ZM16.1731 37.5L19.9981 32.15L23.8231 37.5H16.1731Z" fill="#000033"/>
<path d="M11.25 33.75H5C4.66848 33.75 4.35054 33.6183 4.11612 33.3839C3.8817 33.1495 3.75 32.8315 3.75 32.5V7.5C3.75 7.16848 3.8817 6.85054 4.11612 6.61612C4.35054 6.3817 4.66848 6.25 5 6.25H10C10.3315 6.25 10.6495 6.1183 10.8839 5.88388C11.1183 5.64946 11.25 5.33152 11.25 5C11.25 4.66848 11.1183 4.35054 10.8839 4.11612C10.6495 3.8817 10.3315 3.75 10 3.75H5C4.00544 3.75 3.05161 4.14509 2.34835 4.84835C1.64509 5.55161 1.25 6.50544 1.25 7.5V32.5C1.25 33.4946 1.64509 34.4484 2.34835 35.1517C3.05161 35.8549 4.00544 36.25 5 36.25H11.25C11.5815 36.25 11.8995 36.1183 12.1339 35.8839C12.3683 35.6495 12.5 35.3315 12.5 35C12.5 34.6685 12.3683 34.3505 12.1339 34.1161C11.8995 33.8817 11.5815 33.75 11.25 33.75Z" fill="#000033"/>
<path d="M35 3.75121H33.0125L33.3875 3.38871C33.6229 3.15333 33.7551 2.83409 33.7551 2.50121C33.7551 2.16833 33.6229 1.84909 33.3875 1.61371C33.1521 1.37833 32.8329 1.24609 32.5 1.24609C32.1671 1.24609 31.8479 1.37833 31.6125 1.61371C29.0125 4.22621 28.9875 4.18871 28.85 4.52621C28.7543 4.75385 28.7281 5.00474 28.7748 5.24723C28.8216 5.48971 28.9391 5.71293 29.1125 5.88871C31.8375 8.61371 31.825 8.75121 32.5 8.75121C32.7483 8.75265 32.9914 8.68012 33.1983 8.54287C33.4052 8.40562 33.5665 8.20987 33.6617 7.98056C33.7569 7.75126 33.7817 7.49879 33.7329 7.25536C33.684 7.01192 33.5638 6.78855 33.3875 6.61371L33.0125 6.25121H35C35.3315 6.25121 35.6495 6.3829 35.8839 6.61733C36.1183 6.85175 36.25 7.16969 36.25 7.50121V32.5012C36.25 32.8327 36.1183 33.1507 35.8839 33.3851C35.6495 33.6195 35.3315 33.7512 35 33.7512H28.75C28.4185 33.7512 28.1005 33.8829 27.8661 34.1173C27.6317 34.3517 27.5 34.6697 27.5 35.0012C27.5 35.3327 27.6317 35.6507 27.8661 35.8851C28.1005 36.1195 28.4185 36.2512 28.75 36.2512H35C35.9946 36.2512 36.9484 35.8561 37.6517 35.1529C38.3549 34.4496 38.75 33.4958 38.75 32.5012V7.50121C38.75 6.50665 38.3549 5.55282 37.6517 4.84956C36.9484 4.1463 35.9946 3.75121 35 3.75121Z" fill="#000033"/>
<path d="M24.9993 25.0018H12.4993C12.3006 25.0023 12.1046 24.9554 11.9275 24.865C11.7505 24.7746 11.5976 24.6433 11.4815 24.4819C11.3654 24.3206 11.2895 24.1339 11.26 23.9374C11.2304 23.7408 11.2482 23.5401 11.3118 23.3518L13.8118 15.8518C13.8957 15.6035 14.0554 15.3878 14.2685 15.2353C14.4816 15.0828 14.7373 15.0011 14.9993 15.0018H27.4993C27.7033 14.9909 27.9068 15.0302 28.0921 15.1162C28.2773 15.2023 28.4387 15.3324 28.562 15.4952C28.6854 15.658 28.7669 15.8485 28.7996 16.0502C28.8322 16.2518 28.815 16.4583 28.7493 16.6518L26.2493 24.1518C26.1624 24.4105 25.9931 24.6336 25.7674 24.7871C25.5417 24.9406 25.2719 25.016 24.9993 25.0018ZM14.2368 22.5018H24.0993L25.7618 17.5018H15.8993L14.2368 22.5018Z" fill="#05058C"/>
</g>
<defs>
<clipPath id="clip0_5202_28814">
<rect width="40" height="40" fill="white"/>
</clipPath>
</defs>
</svg>
