<svg width="40" height="40" viewBox="0 0 40 40" fill="none" xmlns="http://www.w3.org/2000/svg">
<g clip-path="url(#clip0_5201_27205)">
<rect width="40" height="40" fill="white"/>
<path d="M36.75 28.837C37.2193 28.0798 37.4778 27.2108 37.4986 26.3202C37.5195 25.4295 37.302 24.5494 36.8686 23.771C36.4352 22.9926 35.8018 22.3441 35.0337 21.8926C34.2657 21.4412 33.3909 21.2031 32.5 21.2031C31.6091 21.2031 30.7343 21.4412 29.9663 21.8926C29.1982 22.3441 28.5648 22.9926 28.1314 23.771C27.698 24.5494 27.4805 25.4295 27.5014 26.3202C27.5222 27.2108 27.7807 28.0798 28.25 28.837C26.9843 29.7063 26.0191 30.9465 25.4875 32.387C25.1143 31.9883 24.6947 31.6358 24.2375 31.337C24.7068 30.5798 24.9653 29.7108 24.9861 28.8202C25.007 27.9295 24.7895 27.0494 24.3561 26.271C23.9227 25.4926 23.2893 24.8441 22.5212 24.3926C21.7532 23.9412 20.8784 23.7031 19.9875 23.7031C19.0966 23.7031 18.2218 23.9412 17.4538 24.3926C16.6857 24.8441 16.0522 25.4926 15.6189 26.271C15.1855 27.0494 14.968 27.9295 14.9889 28.8202C15.0097 29.7108 15.2682 30.5798 15.7375 31.337C15.2848 31.6371 14.8658 31.9849 14.4875 32.3745C13.9699 30.9367 13.0119 29.6988 11.75 28.837C12.2193 28.0798 12.4778 27.2108 12.4986 26.3202C12.5195 25.4295 12.302 24.5494 11.8686 23.771C11.4353 22.9926 10.8018 22.3441 10.0337 21.8926C9.26565 21.4412 8.39092 21.2031 7.5 21.2031C6.60908 21.2031 5.73435 21.4412 4.96629 21.8926C4.19823 22.3441 3.56475 22.9926 3.13139 23.771C2.69802 24.5494 2.48052 25.4295 2.50137 26.3202C2.52222 27.2108 2.78068 28.0798 3.25 28.837C2.25015 29.5247 1.43209 30.4447 0.866015 31.518C0.299943 32.5914 0.00276949 33.7861 0 34.9995L0 36.2495C0 36.5811 0.131696 36.899 0.366117 37.1334C0.600537 37.3678 0.918479 37.4995 1.25 37.4995H3.75C4.08152 37.4995 4.39946 37.3678 4.63388 37.1334C4.8683 36.899 5 36.5811 5 36.2495C5 35.918 4.8683 35.6001 4.63388 35.3657C4.39946 35.1312 4.08152 34.9995 3.75 34.9995H2.5C2.50102 34.1009 2.74418 33.2192 3.20392 32.4471C3.66365 31.675 4.32296 31.0411 5.1125 30.612C5.83852 31.024 6.65899 31.2406 7.49375 31.2406C8.32851 31.2406 9.14898 31.024 9.875 30.612C10.674 31.0308 11.3419 31.6621 11.8051 32.4363C12.2683 33.2104 12.5087 34.0974 12.5 34.9995H8.75C8.41848 34.9995 8.10054 35.1312 7.86612 35.3657C7.6317 35.6001 7.5 35.918 7.5 36.2495C7.5 36.5811 7.6317 36.899 7.86612 37.1334C8.10054 37.3678 8.41848 37.4995 8.75 37.4995H12.5V38.7495C12.5 39.0811 12.6317 39.399 12.8661 39.6334C13.1005 39.8678 13.4185 39.9995 13.75 39.9995H26.25C26.5815 39.9995 26.8995 39.8678 27.1339 39.6334C27.3683 39.399 27.5 39.0811 27.5 38.7495V37.4995H38.75C39.0815 37.4995 39.3995 37.3678 39.6339 37.1334C39.8683 36.899 40 36.5811 40 36.2495V34.9995C40.0048 33.7847 39.7108 32.5873 39.1441 31.5127C38.5774 30.4381 37.7552 29.5192 36.75 28.837ZM5 26.2495C5 25.7551 5.14662 25.2717 5.42133 24.8606C5.69603 24.4495 6.08648 24.1291 6.54329 23.9398C7.00011 23.7506 7.50277 23.7011 7.98773 23.7976C8.47268 23.894 8.91814 24.1321 9.26777 24.4818C9.6174 24.8314 9.8555 25.2769 9.95196 25.7618C10.0484 26.2468 9.99892 26.7494 9.8097 27.2062C9.62048 27.6631 9.30005 28.0535 8.88893 28.3282C8.4778 28.6029 7.99445 28.7495 7.5 28.7495C6.83696 28.7495 6.20107 28.4861 5.73223 28.0173C5.26339 27.5485 5 26.9126 5 26.2495ZM20 26.2495C20.4945 26.2495 20.9778 26.3962 21.3889 26.6709C21.8 26.9456 22.1205 27.336 22.3097 27.7928C22.4989 28.2496 22.5484 28.7523 22.452 29.2373C22.3555 29.7222 22.1174 30.1677 21.7678 30.5173C21.4181 30.8669 20.9727 31.105 20.4877 31.2015C20.0028 31.298 19.5001 31.2485 19.0433 31.0592C18.5865 30.87 18.196 30.5496 17.9213 30.1385C17.6466 29.7273 17.5 29.244 17.5 28.7495C17.5 28.0865 17.7634 27.4506 18.2322 26.9818C18.7011 26.5129 19.337 26.2495 20 26.2495ZM15 37.4995C15.001 36.6009 15.2442 35.7192 15.7039 34.9471C16.1637 34.175 16.823 33.5411 17.6125 33.112C18.3385 33.524 19.159 33.7406 19.9937 33.7406C20.8285 33.7406 21.649 33.524 22.375 33.112C23.174 33.5308 23.8419 34.1621 24.3051 34.9363C24.7683 35.7104 25.0087 36.5974 25 37.4995H15ZM32.5 23.7495C32.9945 23.7495 33.4778 23.8962 33.8889 24.1709C34.3 24.4456 34.6205 24.836 34.8097 25.2928C34.9989 25.7496 35.0484 26.2523 34.952 26.7373C34.8555 27.2222 34.6174 27.6677 34.2678 28.0173C33.9181 28.3669 33.4727 28.605 32.9877 28.7015C32.5028 28.798 32.0001 28.7485 31.5433 28.5592C31.0865 28.37 30.696 28.0496 30.4213 27.6385C30.1466 27.2273 30 26.744 30 26.2495C30 25.5865 30.2634 24.9506 30.7322 24.4818C31.2011 24.0129 31.837 23.7495 32.5 23.7495ZM27.5 34.9995C27.501 34.1009 27.7442 33.2192 28.2039 32.4471C28.6637 31.675 29.323 31.0411 30.1125 30.612C30.8385 31.024 31.659 31.2406 32.4938 31.2406C33.3285 31.2406 34.149 31.024 34.875 30.612C35.674 31.0308 36.3419 31.6621 36.8051 32.4363C37.2683 33.2104 37.5087 34.0974 37.5 34.9995H27.5Z" fill="#000033"/>
<path d="M20 21.25C19.3 21.25 19.325 21.1 16.1 17.8625C15.9832 17.7467 15.8447 17.655 15.6924 17.5928C15.5401 17.5306 15.377 17.4991 15.2125 17.5H10C9.00544 17.5 8.05161 17.1049 7.34835 16.4017C6.64509 15.6984 6.25 14.7446 6.25 13.75V3.75C6.25 2.75544 6.64509 1.80161 7.34835 1.09835C8.05161 0.395088 9.00544 0 10 0L30 0C30.9946 0 31.9484 0.395088 32.6517 1.09835C33.3549 1.80161 33.75 2.75544 33.75 3.75V13.75C33.75 14.7446 33.3549 15.6984 32.6517 16.4017C31.9484 17.1049 30.9946 17.5 30 17.5H24.7875C24.0875 17.5 24.1125 17.65 20.8875 20.8875C20.7707 21.0034 20.6322 21.095 20.4799 21.1572C20.3276 21.2194 20.1645 21.251 20 21.25ZM10 2.5C9.66848 2.5 9.35054 2.6317 9.11612 2.86612C8.8817 3.10054 8.75 3.41848 8.75 3.75V13.75C8.75 14.0815 8.8817 14.3995 9.11612 14.6339C9.35054 14.8683 9.66848 15 10 15H15.2125C16.2067 15.0009 17.1599 15.3965 17.8625 16.1L20 18.2375L22.1375 16.1C22.8401 15.3965 23.7933 15.0009 24.7875 15H30C30.3315 15 30.6495 14.8683 30.8839 14.6339C31.1183 14.3995 31.25 14.0815 31.25 13.75V3.75C31.25 3.41848 31.1183 3.10054 30.8839 2.86612C30.6495 2.6317 30.3315 2.5 30 2.5H10Z" fill="#05058C"/>
<path d="M20 7.5H12.5C12.1685 7.5 11.8505 7.3683 11.6161 7.13388C11.3817 6.89946 11.25 6.58152 11.25 6.25C11.25 5.91848 11.3817 5.60054 11.6161 5.36612C11.8505 5.1317 12.1685 5 12.5 5H20C20.3315 5 20.6495 5.1317 20.8839 5.36612C21.1183 5.60054 21.25 5.91848 21.25 6.25C21.25 6.58152 21.1183 6.89946 20.8839 7.13388C20.6495 7.3683 20.3315 7.5 20 7.5Z" fill="#05058C"/>
<path d="M27.5 7.5H25C24.6685 7.5 24.3505 7.3683 24.1161 7.13388C23.8817 6.89946 23.75 6.58152 23.75 6.25C23.75 5.91848 23.8817 5.60054 24.1161 5.36612C24.3505 5.1317 24.6685 5 25 5H27.5C27.8315 5 28.1495 5.1317 28.3839 5.36612C28.6183 5.60054 28.75 5.91848 28.75 6.25C28.75 6.58152 28.6183 6.89946 28.3839 7.13388C28.1495 7.3683 27.8315 7.5 27.5 7.5Z" fill="#05058C"/>
<path d="M27.5 12.5H20C19.6685 12.5 19.3505 12.3683 19.1161 12.1339C18.8817 11.8995 18.75 11.5815 18.75 11.25C18.75 10.9185 18.8817 10.6005 19.1161 10.3661C19.3505 10.1317 19.6685 10 20 10H27.5C27.8315 10 28.1495 10.1317 28.3839 10.3661C28.6183 10.6005 28.75 10.9185 28.75 11.25C28.75 11.5815 28.6183 11.8995 28.3839 12.1339C28.1495 12.3683 27.8315 12.5 27.5 12.5Z" fill="#05058C"/>
<path d="M15 12.5H12.5C12.1685 12.5 11.8505 12.3683 11.6161 12.1339C11.3817 11.8995 11.25 11.5815 11.25 11.25C11.25 10.9185 11.3817 10.6005 11.6161 10.3661C11.8505 10.1317 12.1685 10 12.5 10H15C15.3315 10 15.6495 10.1317 15.8839 10.3661C16.1183 10.6005 16.25 10.9185 16.25 11.25C16.25 11.5815 16.1183 11.8995 15.8839 12.1339C15.6495 12.3683 15.3315 12.5 15 12.5Z" fill="#05058C"/>
</g>
<defs>
<clipPath id="clip0_5201_27205">
<rect width="40" height="40" fill="white"/>
</clipPath>
</defs>
</svg>
