<svg width="40" height="40" viewBox="0 0 40 40" fill="none" xmlns="http://www.w3.org/2000/svg">
<rect width="40" height="40" rx="20" fill="#F4F2FA"/>
<g clip-path="url(#clip0_5202_29002)">
<path d="M15.39 24.539C14.0015 23.5598 12.9607 22.1639 12.4186 20.5537C11.8765 18.9434 11.8612 17.2023 12.3748 15.5828C12.8884 13.9632 13.9044 12.5492 15.2754 11.5457C16.6465 10.5421 18.3014 10.0012 20.0005 10.0012C21.6996 10.0012 23.3545 10.5421 24.7256 11.5457C26.0966 12.5492 27.1126 13.9632 27.6262 15.5828C28.1398 17.2023 28.1245 18.9434 27.5824 20.5537C27.0403 22.1639 25.9995 23.5598 24.611 24.539L26.694 29.299C26.7275 29.3752 26.7414 29.4585 26.7345 29.5415C26.7276 29.6244 26.7001 29.7043 26.6545 29.7739C26.6089 29.8435 26.5467 29.9007 26.4734 29.9401C26.4002 29.9796 26.3182 30.0002 26.235 30H13.765C13.6819 30.0001 13.6001 29.9795 13.527 29.9401C13.4538 29.9007 13.3917 29.8437 13.3461 29.7742C13.3006 29.7047 13.273 29.625 13.266 29.5422C13.259 29.4594 13.2728 29.3761 13.306 29.3L15.39 24.539ZM16.119 18.97C16.3365 19.8345 16.8365 20.6016 17.5396 21.1497C18.2426 21.6977 19.1086 21.9954 20 21.9954C20.8914 21.9954 21.7574 21.6977 22.4604 21.1497C23.1635 20.6016 23.6635 19.8345 23.881 18.97L21.941 18.485C21.8333 18.9184 21.5837 19.3032 21.232 19.5783C20.8802 19.8534 20.4465 20.0028 20 20.0028C19.5535 20.0028 19.1198 19.8534 18.768 19.5783C18.4163 19.3032 18.1667 18.9184 18.059 18.485L16.119 18.97Z" fill="#05058C"/>
</g>
<defs>
<clipPath id="clip0_5202_29002">
<rect width="24" height="24" fill="white" transform="translate(8 8)"/>
</clipPath>
</defs>
</svg>
