<svg width="40" height="40" viewBox="0 0 40 40" fill="none" xmlns="http://www.w3.org/2000/svg">
<g clip-path="url(#clip0_5202_28822)">
<rect width="40" height="40" fill="white"/>
<path d="M36.25 0H31.25C30.9185 0 30.6005 0.131696 30.3661 0.366116C30.1317 0.600537 30 0.918479 30 1.25C30 1.58152 30.1317 1.89946 30.3661 2.13388C30.6005 2.3683 30.9185 2.5 31.25 2.5H33.15L31.1375 4.35C23.6642 11.2046 13.8908 15.0051 3.75 15C3.41848 15 3.10054 15.1317 2.86612 15.3661C2.6317 15.6005 2.5 15.9185 2.5 16.25C2.5 16.5815 2.6317 16.8995 2.86612 17.1339C3.10054 17.3683 3.41848 17.5 3.75 17.5C14.5093 17.5275 24.8864 13.5123 32.825 6.25L35 4.2V6.25C35 6.58152 35.1317 6.89946 35.3661 7.13388C35.6005 7.3683 35.9185 7.5 36.25 7.5C36.5815 7.5 36.8995 7.3683 37.1339 7.13388C37.3683 6.89946 37.5 6.58152 37.5 6.25V1.25C37.5 0.918479 37.3683 0.600537 37.1339 0.366116C36.8995 0.131696 36.5815 0 36.25 0V0Z" fill="#05058C"/>
<path d="M8.75 22.5H6.25C5.25544 22.5 4.30161 22.8951 3.59835 23.5983C2.89509 24.3016 2.5 25.2554 2.5 26.25V36.25C2.5 37.2446 2.89509 38.1984 3.59835 38.9017C4.30161 39.6049 5.25544 40 6.25 40H8.75C9.74456 40 10.6984 39.6049 11.4017 38.9017C12.1049 38.1984 12.5 37.2446 12.5 36.25V26.25C12.5 25.2554 12.1049 24.3016 11.4017 23.5983C10.6984 22.8951 9.74456 22.5 8.75 22.5ZM6.25 25H8.75C9.08152 25 9.39946 25.1317 9.63388 25.3661C9.8683 25.6005 10 25.9185 10 26.25V28.75H5V26.25C5 25.9185 5.1317 25.6005 5.36612 25.3661C5.60054 25.1317 5.91848 25 6.25 25ZM8.75 37.5H6.25C5.91848 37.5 5.60054 37.3683 5.36612 37.1339C5.1317 36.8995 5 36.5815 5 36.25V31.25H10V36.25C10 36.5815 9.8683 36.8995 9.63388 37.1339C9.39946 37.3683 9.08152 37.5 8.75 37.5Z" fill="#05058C"/>
<path d="M21.25 17.5H18.75C17.7554 17.5 16.8016 17.8951 16.0983 18.5983C15.3951 19.3016 15 20.2554 15 21.25V36.25C15 37.2446 15.3951 38.1984 16.0983 38.9017C16.8016 39.6049 17.7554 40 18.75 40H21.25C22.2446 40 23.1984 39.6049 23.9017 38.9017C24.6049 38.1984 25 37.2446 25 36.25V21.25C25 20.2554 24.6049 19.3016 23.9017 18.5983C23.1984 17.8951 22.2446 17.5 21.25 17.5ZM18.75 20H21.25C21.5815 20 21.8995 20.1317 22.1339 20.3661C22.3683 20.6005 22.5 20.9185 22.5 21.25V23.75H17.5V21.25C17.5 20.9185 17.6317 20.6005 17.8661 20.3661C18.1005 20.1317 18.4185 20 18.75 20ZM21.25 37.5H18.75C18.4185 37.5 18.1005 37.3683 17.8661 37.1339C17.6317 36.8995 17.5 36.5815 17.5 36.25V26.25H22.5V36.25C22.5 36.5815 22.3683 36.8995 22.1339 37.1339C21.8995 37.3683 21.5815 37.5 21.25 37.5Z" fill="#000033"/>
<path d="M33.75 12.5H31.25C30.2554 12.5 29.3016 12.8951 28.5983 13.5983C27.8951 14.3016 27.5 15.2554 27.5 16.25V36.25C27.5 37.2446 27.8951 38.1984 28.5983 38.9017C29.3016 39.6049 30.2554 40 31.25 40H33.75C34.7446 40 35.6984 39.6049 36.4017 38.9017C37.1049 38.1984 37.5 37.2446 37.5 36.25V28.75C37.5 28.4185 37.3683 28.1005 37.1339 27.8661C36.8995 27.6317 36.5815 27.5 36.25 27.5C35.9185 27.5 35.6005 27.6317 35.3661 27.8661C35.1317 28.1005 35 28.4185 35 28.75V36.25C35 36.5815 34.8683 36.8995 34.6339 37.1339C34.3995 37.3683 34.0815 37.5 33.75 37.5H31.25C30.9185 37.5 30.6005 37.3683 30.3661 37.1339C30.1317 36.8995 30 36.5815 30 36.25V21.25H35V23.75C35 24.0815 35.1317 24.3995 35.3661 24.6339C35.6005 24.8683 35.9185 25 36.25 25C36.5815 25 36.8995 24.8683 37.1339 24.6339C37.3683 24.3995 37.5 24.0815 37.5 23.75V16.25C37.5 15.2554 37.1049 14.3016 36.4017 13.5983C35.6984 12.8951 34.7446 12.5 33.75 12.5ZM30 18.75V16.25C30 15.9185 30.1317 15.6005 30.3661 15.3661C30.6005 15.1317 30.9185 15 31.25 15H33.75C34.0815 15 34.3995 15.1317 34.6339 15.3661C34.8683 15.6005 35 15.9185 35 16.25V18.75H30Z" fill="#000033"/>
</g>
<defs>
<clipPath id="clip0_5202_28822">
<rect width="40" height="40" fill="white"/>
</clipPath>
</defs>
</svg>
