<svg width="40" height="41" viewBox="0 0 40 41" fill="none" xmlns="http://www.w3.org/2000/svg">
<rect y="0.5" width="40" height="40" rx="20" fill="#F4F2FA"/>
<g clip-path="url(#clip0_5202_29373)">
<path d="M20 30.5C14.477 30.5 10 26.023 10 20.5C10 14.977 14.477 10.5 20 10.5C25.523 10.5 30 14.977 30 20.5C30 26.023 25.523 30.5 20 30.5ZM24.82 25.576C26.0271 24.4319 26.7874 22.8953 26.9647 21.2416C27.1419 19.5879 26.7246 17.9251 25.7874 16.5511C24.8503 15.1771 23.4545 14.1817 21.8502 13.7432C20.2458 13.3047 18.5378 13.4517 17.032 14.158L18.007 15.913C18.7679 15.5823 19.5992 15.4461 20.4259 15.5168C21.2525 15.5875 22.0486 15.8627 22.7424 16.3178C23.4361 16.7729 24.0057 17.3934 24.3999 18.1235C24.794 18.8536 25.0002 19.6703 25 20.5H22L24.82 25.576ZM22.968 26.842L21.993 25.087C21.2321 25.4177 20.4008 25.5539 19.5741 25.4832C18.7475 25.4125 17.9514 25.1373 17.2576 24.6822C16.5639 24.2271 15.9943 23.6066 15.6001 22.8765C15.206 22.1464 14.9998 21.3297 15 20.5H18L15.18 15.424C13.9729 16.5681 13.2126 18.1047 13.0353 19.7584C12.8581 21.4121 13.2754 23.0749 14.2126 24.4489C15.1497 25.8229 16.5455 26.8183 18.1498 27.2568C19.7542 27.6953 21.4622 27.5483 22.968 26.842Z" fill="#05058C"/>
</g>
<defs>
<clipPath id="clip0_5202_29373">
<rect width="24" height="24" fill="white" transform="translate(8 8.5)"/>
</clipPath>
</defs>
</svg>
