<svg width="40" height="40" viewBox="0 0 40 40" fill="none" xmlns="http://www.w3.org/2000/svg">
<rect width="40" height="40" rx="20" fill="#F4F2FA"/>
<g clip-path="url(#clip0_5201_27049)">
<path d="M20 19C21.3261 19 22.5979 19.5268 23.5355 20.4645C24.4732 21.4021 25 22.6739 25 24V30H15V24C15 22.6739 15.5268 21.4021 16.4645 20.4645C17.4021 19.5268 18.6739 19 20 19ZM13.288 22.006C13.1289 22.5428 13.0348 23.0968 13.008 23.656L13 24V30H10V25.5C9.9998 24.6376 10.318 23.8054 10.8936 23.1632C11.4692 22.521 12.2617 22.1139 13.119 22.02L13.288 22.006ZM26.712 22.006C27.6019 22.0602 28.4376 22.452 29.0486 23.1012C29.6596 23.7505 29.9999 24.6084 30 25.5V30H27V24C27 23.307 26.9 22.638 26.712 22.006ZM13.5 16C14.163 16 14.7989 16.2634 15.2678 16.7322C15.7366 17.2011 16 17.837 16 18.5C16 19.163 15.7366 19.7989 15.2678 20.2678C14.7989 20.7366 14.163 21 13.5 21C12.837 21 12.2011 20.7366 11.7322 20.2678C11.2634 19.7989 11 19.163 11 18.5C11 17.837 11.2634 17.2011 11.7322 16.7322C12.2011 16.2634 12.837 16 13.5 16ZM26.5 16C27.163 16 27.7989 16.2634 28.2678 16.7322C28.7366 17.2011 29 17.837 29 18.5C29 19.163 28.7366 19.7989 28.2678 20.2678C27.7989 20.7366 27.163 21 26.5 21C25.837 21 25.2011 20.7366 24.7322 20.2678C24.2634 19.7989 24 19.163 24 18.5C24 17.837 24.2634 17.2011 24.7322 16.7322C25.2011 16.2634 25.837 16 26.5 16ZM20 10C21.0609 10 22.0783 10.4214 22.8284 11.1716C23.5786 11.9217 24 12.9391 24 14C24 15.0609 23.5786 16.0783 22.8284 16.8284C22.0783 17.5786 21.0609 18 20 18C18.9391 18 17.9217 17.5786 17.1716 16.8284C16.4214 16.0783 16 15.0609 16 14C16 12.9391 16.4214 11.9217 17.1716 11.1716C17.9217 10.4214 18.9391 10 20 10Z" fill="#05058C"/>
</g>
<defs>
<clipPath id="clip0_5201_27049">
<rect width="24" height="24" fill="white" transform="translate(8 8)"/>
</clipPath>
</defs>
</svg>
