<svg width="40" height="41" viewBox="0 0 40 41" fill="none" xmlns="http://www.w3.org/2000/svg">
<rect y="0.5" width="40" height="40" rx="20" fill="#F4F2FA"/>
<g clip-path="url(#clip0_5201_27460)">
<path d="M17 18.5C16.7348 18.5 16.4804 18.6054 16.2929 18.7929C16.1054 18.9804 16 19.2348 16 19.5V23.5H18V20.5H21V23L24.5 19.5L21 16V18.5H17ZM20.707 9.893L30.607 19.793C30.7945 19.9805 30.8998 20.2348 30.8998 20.5C30.8998 20.7652 30.7945 21.0195 30.607 21.207L20.707 31.107C20.5195 31.2945 20.2652 31.3998 20 31.3998C19.7348 31.3998 19.4805 31.2945 19.293 31.107L9.393 21.207C9.20553 21.0195 9.10021 20.7652 9.10021 20.5C9.10021 20.2348 9.20553 19.9805 9.393 19.793L19.293 9.893C19.4805 9.70553 19.7348 9.60021 20 9.60021C20.2652 9.60021 20.5195 9.70553 20.707 9.893Z" fill="#05058C"/>
</g>
<defs>
<clipPath id="clip0_5201_27460">
<rect width="24" height="24" fill="white" transform="translate(8 8.5)"/>
</clipPath>
</defs>
</svg>
