<svg width="40" height="41" viewBox="0 0 40 41" fill="none" xmlns="http://www.w3.org/2000/svg">
<rect y="0.5" width="40" height="40" rx="20" fill="#F4F2FA"/>
<path d="M19 15.5V12.5C19 12.2348 19.1054 11.9804 19.2929 11.7929C19.4804 11.6054 19.7348 11.5 20 11.5H29C29.2652 11.5 29.5196 11.6054 29.7071 11.7929C29.8946 11.9804 30 12.2348 30 12.5V28.5C30 28.7652 29.8946 29.0196 29.7071 29.2071C29.5196 29.3946 29.2652 29.5 29 29.5H11C10.7348 29.5 10.4804 29.3946 10.2929 29.2071C10.1054 29.0196 10 28.7652 10 28.5V16.5C10 16.2348 10.1054 15.9804 10.2929 15.7929C10.4804 15.6054 10.7348 15.5 11 15.5H19ZM13 24.5V26.5H18V24.5H13ZM22 24.5V26.5H27V24.5H22ZM22 21.5V23.5H27V21.5H22ZM22 18.5V20.5H27V18.5H22ZM13 21.5V23.5H18V21.5H13Z" fill="#05058C"/>
</svg>
