<svg width="40" height="40" viewBox="0 0 40 40" fill="none" xmlns="http://www.w3.org/2000/svg">
<rect width="40" height="40" rx="20" fill="#F4F2FA"/>
<g clip-path="url(#clip0_5202_28710)">
<path d="M25 23.245V30.117C25 30.2055 24.9766 30.2924 24.932 30.3688C24.8875 30.4452 24.8235 30.5085 24.7465 30.5521C24.6696 30.5957 24.5824 30.6181 24.4939 30.6171C24.4055 30.616 24.3189 30.5915 24.243 30.546L20 28L15.757 30.546C15.681 30.5915 15.5944 30.616 15.5058 30.6171C15.4173 30.6181 15.33 30.5956 15.253 30.5519C15.176 30.5081 15.112 30.4447 15.0676 30.3681C15.0231 30.2916 14.9998 30.2045 15 30.116V23.246C13.7061 22.2101 12.766 20.7979 12.3095 19.2045C11.8529 17.6112 11.9026 15.9154 12.4515 14.3515C13.0004 12.7876 14.0216 11.4327 15.3738 10.4743C16.726 9.51581 18.3425 9.001 20 9.001C21.6575 9.001 23.274 9.51581 24.6262 10.4743C25.9784 11.4327 26.9996 12.7876 27.5485 14.3515C28.0974 15.9154 28.1471 17.6112 27.6905 19.2045C27.234 20.7979 26.2939 22.2101 25 23.246V23.245ZM20 23C21.5913 23 23.1174 22.3679 24.2426 21.2426C25.3679 20.1174 26 18.5913 26 17C26 15.4087 25.3679 13.8826 24.2426 12.7574C23.1174 11.6321 21.5913 11 20 11C18.4087 11 16.8826 11.6321 15.7574 12.7574C14.6321 13.8826 14 15.4087 14 17C14 18.5913 14.6321 20.1174 15.7574 21.2426C16.8826 22.3679 18.4087 23 20 23ZM20 21C18.9391 21 17.9217 20.5786 17.1716 19.8284C16.4214 19.0783 16 18.0609 16 17C16 15.9391 16.4214 14.9217 17.1716 14.1716C17.9217 13.4214 18.9391 13 20 13C21.0609 13 22.0783 13.4214 22.8284 14.1716C23.5786 14.9217 24 15.9391 24 17C24 18.0609 23.5786 19.0783 22.8284 19.8284C22.0783 20.5786 21.0609 21 20 21Z" fill="#05058C"/>
</g>
<defs>
<clipPath id="clip0_5202_28710">
<rect width="24" height="24" fill="white" transform="translate(8 8)"/>
</clipPath>
</defs>
</svg>
