<svg width="40" height="40" viewBox="0 0 40 40" fill="none" xmlns="http://www.w3.org/2000/svg">
<g clip-path="url(#clip0_5202_28806)">
<rect width="40" height="40" fill="white"/>
<path d="M22.5 40H17.5C16.837 40 16.2011 39.7366 15.7322 39.2678C15.2634 38.7989 15 38.163 15 37.5V34.5125C15 34.181 15.1317 33.863 15.3661 33.6286C15.6005 33.3942 15.9185 33.2625 16.25 33.2625C16.5815 33.2625 16.8995 33.3942 17.1339 33.6286C17.3683 33.863 17.5 34.181 17.5 34.5125V37.5H22.5V35.4375C22.5029 34.9056 22.6754 34.3885 22.9924 33.9614C23.3093 33.5343 23.7543 33.2194 24.2625 33.0625C24.9436 32.8395 25.6078 32.568 26.25 32.25C26.7207 32.0023 27.2581 31.9111 27.7841 31.9898C28.3102 32.0685 28.7974 32.3129 29.175 32.6875L30.6375 34.1375L34.1625 30.6125L32.7125 29.15C32.3393 28.7772 32.0936 28.2959 32.0106 27.7751C31.9275 27.2542 32.0113 26.7204 32.25 26.25C32.5669 25.6159 32.8384 24.96 33.0625 24.2875C33.215 23.7746 33.528 23.3242 33.9555 23.0024C34.383 22.6807 34.9025 22.5046 35.4375 22.5H37.5V17.5H35.4375C34.9056 17.4971 34.3885 17.3246 33.9614 17.0076C33.5343 16.6907 33.2194 16.2457 33.0625 15.7375C32.8395 15.0564 32.568 14.3922 32.25 13.75C32.0023 13.2793 31.9111 12.7419 31.9898 12.2159C32.0685 11.6898 32.3129 11.2026 32.6875 10.825L34.1375 9.3625L30.6125 5.8625L29.15 7.3125C28.7743 7.68159 28.2917 7.92261 27.7709 8.00117C27.2501 8.07974 26.7179 7.99183 26.25 7.75C25.6159 7.43313 24.96 7.16162 24.2875 6.9375C23.7746 6.78503 23.3242 6.47203 23.0024 6.04452C22.6807 5.61701 22.5046 5.09754 22.5 4.5625V2.5H17.5V4.5625C17.4971 5.09438 17.3246 5.61146 17.0076 6.03858C16.6907 6.4657 16.2457 6.7806 15.7375 6.9375C15.0564 7.16051 14.3922 7.43204 13.75 7.75C13.2793 7.99771 12.7419 8.08885 12.2159 8.01017C11.6898 7.93149 11.2026 7.68709 10.825 7.3125L9.3875 5.8625L5.8625 9.3875L7.3125 10.85C7.68159 11.2257 7.92261 11.7083 8.00117 12.2291C8.07974 12.7499 7.99183 13.2821 7.75 13.75C7.43313 14.3841 7.16162 15.04 6.9375 15.7125C6.78503 16.2254 6.47203 16.6758 6.04452 16.9976C5.61701 17.3193 5.09754 17.4954 4.5625 17.5H2.5V22.5H4.5625C5.09438 22.5029 5.61146 22.6754 6.03858 22.9924C6.4657 23.3093 6.7806 23.7543 6.9375 24.2625C7.16051 24.9436 7.43204 25.6078 7.75 26.25C7.99771 26.7207 8.08885 27.2581 8.01017 27.7841C7.93149 28.3102 7.68709 28.7974 7.3125 29.175L5.8625 30.6125L9.3875 34.1375L10.3625 33.175C10.4787 33.0578 10.617 32.9648 10.7693 32.9014C10.9216 32.8379 11.085 32.8053 11.25 32.8053C11.415 32.8053 11.5784 32.8379 11.7307 32.9014C11.883 32.9648 12.0213 33.0578 12.1375 33.175C12.3703 33.4092 12.501 33.726 12.501 34.0563C12.501 34.3865 12.3703 34.7033 12.1375 34.9375L11.1625 35.9125C10.9303 36.1449 10.6546 36.3293 10.3511 36.4552C10.0476 36.581 9.72229 36.6457 9.39375 36.6457C9.06521 36.6457 8.73989 36.581 8.4364 36.4552C8.1329 36.3293 7.85718 36.1449 7.625 35.9125L4.0875 32.375C3.85506 32.1428 3.67066 31.8671 3.54485 31.5636C3.41904 31.2601 3.35428 30.9348 3.35428 30.6063C3.35428 30.2777 3.41904 29.9524 3.54485 29.6489C3.67066 29.3454 3.85506 29.0697 4.0875 28.8375L5.55 27.3875C5.15884 26.6187 4.82866 25.8205 4.5625 25H2.5C1.83696 25 1.20107 24.7366 0.732233 24.2678C0.263392 23.7989 0 23.163 0 22.5V17.5C0 16.837 0.263392 16.2011 0.732233 15.7322C1.20107 15.2634 1.83696 15 2.5 15H4.5625C4.8193 14.1919 5.14119 13.406 5.525 12.65L4.0875 11.1625C3.85506 10.9303 3.67066 10.6546 3.54485 10.3511C3.41904 10.0476 3.35428 9.72229 3.35428 9.39375C3.35428 9.06521 3.41904 8.73989 3.54485 8.4364C3.67066 8.1329 3.85506 7.85718 4.0875 7.625L7.625 4.0875C7.85718 3.85506 8.1329 3.67066 8.4364 3.54485C8.73989 3.41904 9.06521 3.35428 9.39375 3.35428C9.72229 3.35428 10.0476 3.41904 10.3511 3.54485C10.6546 3.67066 10.9303 3.85506 11.1625 4.0875L12.6125 5.55C13.3813 5.15884 14.1795 4.82866 15 4.5625V2.5C15 1.83696 15.2634 1.20107 15.7322 0.732233C16.2011 0.263392 16.837 0 17.5 0L22.5 0C23.163 0 23.7989 0.263392 24.2678 0.732233C24.7366 1.20107 25 1.83696 25 2.5V4.5625C25.8081 4.8193 26.594 5.14119 27.35 5.525L28.8375 4.0875C29.0697 3.85506 29.3454 3.67066 29.6489 3.54485C29.9524 3.41904 30.2777 3.35428 30.6063 3.35428C30.9348 3.35428 31.2601 3.41904 31.5636 3.54485C31.8671 3.67066 32.1428 3.85506 32.375 4.0875L35.9125 7.625C36.1449 7.85718 36.3293 8.1329 36.4552 8.4364C36.581 8.73989 36.6457 9.06521 36.6457 9.39375C36.6457 9.72229 36.581 10.0476 36.4552 10.3511C36.3293 10.6546 36.1449 10.9303 35.9125 11.1625L34.45 12.6125C34.8412 13.3813 35.1713 14.1795 35.4375 15H37.5C38.163 15 38.7989 15.2634 39.2678 15.7322C39.7366 16.2011 40 16.837 40 17.5V22.5C40 23.163 39.7366 23.7989 39.2678 24.2678C38.7989 24.7366 38.163 25 37.5 25H35.4375C35.1807 25.8081 34.8588 26.594 34.475 27.35L35.9125 28.8375C36.1449 29.0697 36.3293 29.3454 36.4552 29.6489C36.581 29.9524 36.6457 30.2777 36.6457 30.6063C36.6457 30.9348 36.581 31.2601 36.4552 31.5636C36.3293 31.8671 36.1449 32.1428 35.9125 32.375L32.375 35.9125C32.1428 36.1449 31.8671 36.3293 31.5636 36.4552C31.2601 36.581 30.9348 36.6457 30.6063 36.6457C30.2777 36.6457 29.9524 36.581 29.6489 36.4552C29.3454 36.3293 29.0697 36.1449 28.8375 35.9125L27.3875 34.45C26.6308 34.8394 25.8452 35.1695 25.0375 35.4375L25 37.5C25 38.163 24.7366 38.7989 24.2678 39.2678C23.7989 39.7366 23.163 40 22.5 40Z" fill="#000033"/>
<path d="M20 30C18.0222 30 16.0888 29.4135 14.4443 28.3147C12.7998 27.2159 11.5181 25.6541 10.7612 23.8268C10.0043 21.9996 9.8063 19.9889 10.1922 18.0491C10.578 16.1093 11.5304 14.3275 12.9289 12.9289C14.3275 11.5304 16.1093 10.578 18.0491 10.1922C19.9889 9.8063 21.9996 10.0043 23.8268 10.7612C25.6541 11.5181 27.2159 12.7998 28.3147 14.4443C29.4135 16.0888 30 18.0222 30 20C30 22.6522 28.9464 25.1957 27.0711 27.0711C25.1957 28.9464 22.6522 30 20 30ZM20 12.5C18.5166 12.5 17.0666 12.9399 15.8332 13.764C14.5999 14.5881 13.6386 15.7594 13.0709 17.1299C12.5033 18.5003 12.3547 20.0083 12.6441 21.4632C12.9335 22.918 13.6478 24.2544 14.6967 25.3033C15.7456 26.3522 17.082 27.0665 18.5368 27.3559C19.9917 27.6453 21.4997 27.4968 22.8701 26.9291C24.2406 26.3614 25.4119 25.4002 26.236 24.1668C27.0601 22.9334 27.5 21.4834 27.5 20C27.5 18.0109 26.7098 16.1032 25.3033 14.6967C23.8968 13.2902 21.9891 12.5 20 12.5Z" fill="#05058C"/>
</g>
<defs>
<clipPath id="clip0_5202_28806">
<rect width="40" height="40" fill="white"/>
</clipPath>
</defs>
</svg>
