<svg width="40" height="40" viewBox="0 0 40 40" fill="none" xmlns="http://www.w3.org/2000/svg">
<g clip-path="url(#clip0_5202_28810)">
<rect width="40" height="40" fill="white"/>
<path d="M17.5008 13.75C17.1693 13.75 16.8513 13.6183 16.6169 13.3839C16.3825 13.1495 16.2508 12.8315 16.2508 12.5C16.2508 12.1685 16.1191 11.8505 15.8847 11.6161C15.6503 11.3817 15.3323 11.25 15.0008 11.25C14.6693 11.25 14.3513 11.3817 14.1169 11.6161C13.8825 11.8505 13.7508 12.1685 13.7508 12.5C13.7508 12.8315 13.6191 13.1495 13.3847 13.3839C13.1503 13.6183 12.8323 13.75 12.5008 13.75C10.1133 13.75 11.2508 8.75 15.0008 8.75C18.7508 8.75 19.9008 13.75 17.5008 13.75Z" fill="#05058C"/>
<path d="M27.5008 13.75C27.1693 13.75 26.8513 13.6183 26.6169 13.3839C26.3825 13.1495 26.2508 12.8315 26.2508 12.5C26.2508 12.1685 26.1191 11.8505 25.8847 11.6161C25.6503 11.3817 25.3323 11.25 25.0008 11.25C24.6693 11.25 24.3513 11.3817 24.1169 11.6161C23.8825 11.8505 23.7508 12.1685 23.7508 12.5C23.7508 12.8315 23.6191 13.1495 23.3847 13.3839C23.1503 13.6183 22.8323 13.75 22.5008 13.75C20.1133 13.75 21.2508 8.75 25.0008 8.75C28.7508 8.75 29.9008 13.75 27.5008 13.75Z" fill="#05058C"/>
<path d="M33.75 30H26.25V27.5H30C30.9946 27.5 31.9484 27.1049 32.6516 26.4017C33.3549 25.6984 33.75 24.7446 33.75 23.75V22.5H35C35.9946 22.5 36.9484 22.1049 37.6516 21.4017C38.3549 20.6984 38.75 19.7446 38.75 18.75V1.25C38.75 0.918479 38.6183 0.600537 38.3839 0.366117C38.1495 0.131696 37.8315 0 37.5 0C37.1685 0 36.8505 0.131696 36.6161 0.366117C36.3817 0.600537 36.25 0.918479 36.25 1.25V10.225C35.4398 9.98539 34.59 9.90891 33.75 10V6.25C33.75 5.25544 33.3549 4.30161 32.6516 3.59835C31.9484 2.89509 30.9946 2.5 30 2.5H10C9.00544 2.5 8.05161 2.89509 7.34835 3.59835C6.64509 4.30161 6.25 5.25544 6.25 6.25V10C5.40997 9.91121 4.56068 9.98765 3.75 10.225V1.25C3.75 0.918479 3.6183 0.600537 3.38388 0.366117C3.14946 0.131696 2.83152 0 2.5 0C2.16848 0 1.85054 0.131696 1.61612 0.366117C1.3817 0.600537 1.25 0.918479 1.25 1.25V18.75C1.25 19.7446 1.64509 20.6984 2.34835 21.4017C3.05161 22.1049 4.00544 22.5 5 22.5H6.25V23.75C6.25 24.7446 6.64509 25.6984 7.34835 26.4017C8.05161 27.1049 9.00544 27.5 10 27.5H13.75V30H6.25C4.5924 30 3.00269 30.6585 1.83058 31.8306C0.65848 33.0027 0 34.5924 0 36.25L0 38.75C0 39.0815 0.131696 39.3995 0.366117 39.6339C0.600537 39.8683 0.918479 40 1.25 40H6.25C6.58152 40 6.89946 39.8683 7.13388 39.6339C7.3683 39.3995 7.5 39.0815 7.5 38.75C7.5 38.4185 7.3683 38.1005 7.13388 37.8661C6.89946 37.6317 6.58152 37.5 6.25 37.5H2.5V36.25C2.5 35.2554 2.89509 34.3016 3.59835 33.5984C4.30161 32.8951 5.25544 32.5 6.25 32.5H33.75C34.7446 32.5 35.6984 32.8951 36.4016 33.5984C37.1049 34.3016 37.5 35.2554 37.5 36.25V37.5H11.25C10.9185 37.5 10.6005 37.6317 10.3661 37.8661C10.1317 38.1005 10 38.4185 10 38.75C10 39.0815 10.1317 39.3995 10.3661 39.6339C10.6005 39.8683 10.9185 40 11.25 40H38.75C39.0815 40 39.3995 39.8683 39.6339 39.6339C39.8683 39.3995 40 39.0815 40 38.75V36.25C40 34.5924 39.3415 33.0027 38.1694 31.8306C36.9973 30.6585 35.4076 30 33.75 30ZM18.75 25V20H21.25V25H18.75ZM13.75 25V21.25C13.75 20.9185 13.8817 20.6005 14.1161 20.3661C14.3505 20.1317 14.6685 20 15 20H16.25V25H13.75ZM23.75 25V20H25C25.3315 20 25.6495 20.1317 25.8839 20.3661C26.1183 20.6005 26.25 20.9185 26.25 21.25V25H23.75ZM35 12.5C35.3315 12.5 35.6495 12.6317 35.8839 12.8661C36.1183 13.1005 36.25 13.4185 36.25 13.75V18.75C36.25 19.0815 36.1183 19.3995 35.8839 19.6339C35.6495 19.8683 35.3315 20 35 20H33.75V12.5H35ZM5 20C4.66848 20 4.35054 19.8683 4.11612 19.6339C3.8817 19.3995 3.75 19.0815 3.75 18.75V13.75C3.75 13.4185 3.8817 13.1005 4.11612 12.8661C4.35054 12.6317 4.66848 12.5 5 12.5H6.25V20H5ZM8.75 23.75V6.25C8.75 5.91848 8.8817 5.60054 9.11612 5.36612C9.35054 5.1317 9.66848 5 10 5H30C30.3315 5 30.6495 5.1317 30.8839 5.36612C31.1183 5.60054 31.25 5.91848 31.25 6.25V23.75C31.25 24.0815 31.1183 24.3995 30.8839 24.6339C30.6495 24.8683 30.3315 25 30 25H28.75V21.25C28.75 20.2554 28.3549 19.3016 27.6517 18.5983C26.9484 17.8951 25.9946 17.5 25 17.5H15C14.0054 17.5 13.0516 17.8951 12.3483 18.5983C11.6451 19.3016 11.25 20.2554 11.25 21.25V25H10C9.66848 25 9.35054 24.8683 9.11612 24.6339C8.8817 24.3995 8.75 24.0815 8.75 23.75ZM16.25 30V27.5H23.75V30H16.25Z" fill="#000033"/>
</g>
<defs>
<clipPath id="clip0_5202_28810">
<rect width="40" height="40" fill="white"/>
</clipPath>
</defs>
</svg>
