<svg width="40" height="40" viewBox="0 0 40 40" fill="none" xmlns="http://www.w3.org/2000/svg">
<g clip-path="url(#clip0_5201_27663)">
<rect width="40" height="40" fill="white"/>
<path d="M20 12.5C18.5166 12.5 17.0666 12.9399 15.8332 13.764C14.5999 14.5881 13.6386 15.7594 13.0709 17.1299C12.5032 18.5003 12.3547 20.0083 12.6441 21.4632C12.9335 22.918 13.6478 24.2544 14.6967 25.3033C15.7456 26.3522 17.082 27.0665 18.5368 27.3559C19.9917 27.6453 21.4997 27.4968 22.8701 26.9291C24.2406 26.3614 25.4119 25.4001 26.236 24.1668C27.0601 22.9334 27.5 21.4834 27.5 20C27.5 18.0109 26.7098 16.1032 25.3033 14.6967C23.8968 13.2902 21.9891 12.5 20 12.5ZM24.825 18.75H21.25V15.175C22.1098 15.3994 22.8943 15.849 23.5227 16.4773C24.151 17.1057 24.6006 17.8902 24.825 18.75ZM20 25C18.7936 24.9855 17.6331 24.5354 16.7326 23.7325C15.8321 22.9296 15.2522 21.8282 15.0999 20.6314C14.9476 19.4346 15.2333 18.2231 15.9041 17.2203C16.5749 16.2175 17.5857 15.4911 18.75 15.175V20C18.75 20.3315 18.8817 20.6495 19.1161 20.8839C19.3505 21.1183 19.6685 21.25 20 21.25H24.825C24.5486 22.3206 23.9251 23.2694 23.0521 23.9479C22.179 24.6264 21.1057 24.9964 20 25Z" fill="#05058C"/>
<path fill-rule="evenodd" clip-rule="evenodd" d="M15.7791 32.1046C15.8613 32.1286 15.9478 32.1481 16.0386 32.1625C25.3386 33.75 34.5761 29.7375 39.8386 20.625C39.9483 20.435 40.006 20.2194 40.006 20C40.006 19.7806 39.9483 19.565 39.8386 19.375C30.6761 3.4875 9.31356 3.5125 0.163562 19.375C0.0538516 19.565 -0.00390625 19.7806 -0.00390625 20C-0.00390625 20.2194 0.0538516 20.435 0.163562 20.625C2.57039 24.9391 6.26259 28.3954 10.7261 30.5125C10.7781 30.5367 10.8299 30.5567 10.8812 30.5727C12.1678 31.1843 13.9035 31.7499 15.7791 32.1046ZM11.9166 28.3246C11.8727 28.2981 11.8259 28.2731 11.7761 28.25C7.99881 26.4624 4.83953 23.5903 2.70106 20C10.9386 6.6375 29.0636 6.6375 37.3011 20C35.2414 23.5564 32.1361 26.3919 28.4077 28.1208C24.7723 29.8065 20.7167 30.3604 16.7667 29.7145C16.7133 29.706 16.6606 29.6964 16.6083 29.6879C16.5601 29.6796 16.5118 29.6712 16.4636 29.6625C16.4411 29.6587 16.4186 29.6555 16.396 29.6529C14.5965 29.3507 13.4614 29.0215 11.9166 28.3246Z" fill="#000033"/>
</g>
<defs>
<clipPath id="clip0_5201_27663">
<rect width="40" height="40" fill="white"/>
</clipPath>
</defs>
</svg>
