<svg width="40" height="40" viewBox="0 0 40 40" fill="none" xmlns="http://www.w3.org/2000/svg">
<g clip-path="url(#clip0_5202_29015)">
<rect width="40" height="40" fill="white"/>
<path d="M38.75 28.75H3.75V7.5C3.75 7.16848 3.8817 6.85054 4.11612 6.61612C4.35054 6.3817 4.66848 6.25 5 6.25H35C35.3315 6.25 35.6495 6.3817 35.8839 6.61612C36.1183 6.85054 36.25 7.16848 36.25 7.5V25C36.25 25.3315 36.3817 25.6495 36.6161 25.8839C36.8505 26.1183 37.1685 26.25 37.5 26.25C37.8315 26.25 38.1495 26.1183 38.3839 25.8839C38.6183 25.6495 38.75 25.3315 38.75 25V7.5C38.75 6.50544 38.3549 5.55161 37.6516 4.84835C36.9484 4.14509 35.9946 3.75 35 3.75H5C4.00544 3.75 3.05161 4.14509 2.34835 4.84835C1.64509 5.55161 1.25 6.50544 1.25 7.5V28.75C0.918479 28.75 0.600537 28.8817 0.366117 29.1161C0.131696 29.3505 0 29.6685 0 30L0 32.5C0 33.4946 0.395088 34.4484 1.09835 35.1517C1.80161 35.8549 2.75544 36.25 3.75 36.25H36.25C37.2446 36.25 38.1984 35.8549 38.9016 35.1517C39.6049 34.4484 40 33.4946 40 32.5V30C40 29.6685 39.8683 29.3505 39.6339 29.1161C39.3995 28.8817 39.0815 28.75 38.75 28.75ZM37.5 32.5C37.5 32.8315 37.3683 33.1495 37.1339 33.3839C36.8995 33.6183 36.5815 33.75 36.25 33.75H3.75C3.41848 33.75 3.10054 33.6183 2.86612 33.3839C2.6317 33.1495 2.5 32.8315 2.5 32.5V31.25H37.5V32.5Z" fill="#000033"/>
<path d="M28.75 17.5002C28.7527 15.5509 28.1043 13.6565 26.9078 12.1175C25.7113 10.5786 24.0352 9.48329 22.1453 9.00536C20.2555 8.52742 18.2602 8.69423 16.4759 9.47934C14.6917 10.2644 13.2207 11.6229 12.2963 13.3391C11.372 15.0554 11.0472 17.0311 11.3735 18.953C11.6998 20.8748 12.6585 22.6327 14.0975 23.9476C15.5365 25.2626 17.3735 26.0594 19.3169 26.2116C21.2603 26.3638 23.1988 25.8627 24.825 24.7877C26.0299 23.9913 27.0188 22.909 27.7037 21.6374C28.3886 20.3659 28.748 18.9445 28.75 17.5002ZM24.4375 21.9002L22.9875 19.7377C23.2127 19.4358 23.3937 19.1033 23.525 18.7502H26.125C25.8811 19.9421 25.2946 21.0368 24.4375 21.9002ZM20 16.2502C20.2472 16.2502 20.4889 16.3235 20.6945 16.4609C20.9 16.5982 21.0602 16.7935 21.1549 17.0219C21.2495 17.2503 21.2742 17.5016 21.226 17.7441C21.1778 17.9866 21.0587 18.2093 20.8839 18.3841C20.7091 18.5589 20.4863 18.678 20.2439 18.7262C20.0014 18.7744 19.7501 18.7497 19.5216 18.6551C19.2932 18.5605 19.098 18.4003 18.9607 18.1947C18.8233 17.9891 18.75 17.7475 18.75 17.5002C18.75 17.1687 18.8817 16.8508 19.1161 16.6164C19.3505 16.3819 19.6685 16.2502 20 16.2502ZM26.125 16.2502H23.525C23.3384 15.726 23.0374 15.2499 22.6439 14.8564C22.2504 14.4629 21.7743 14.1619 21.25 13.9752V11.3752C22.4511 11.6202 23.5537 12.213 24.4205 13.0798C25.2873 13.9466 25.88 15.0491 26.125 16.2502ZM13.75 17.5002C13.7497 16.0594 14.2472 14.6628 15.1584 13.5466C16.0695 12.4305 17.3383 11.6634 18.75 11.3752V13.9752C17.8816 14.3255 17.1756 14.988 16.7709 15.8325C16.3662 16.677 16.2922 17.6423 16.5633 18.5386C16.8344 19.435 17.431 20.1974 18.2358 20.6761C19.0407 21.1548 19.9955 21.315 20.9125 21.1252L22.35 23.2877C21.4014 23.6726 20.3729 23.8187 19.3547 23.713C18.3365 23.6073 17.3598 23.2531 16.5105 22.6816C15.6613 22.11 14.9654 21.3386 14.484 20.4352C14.0027 19.5318 13.7506 18.5239 13.75 17.5002Z" fill="#05058C"/>
</g>
<defs>
<clipPath id="clip0_5202_29015">
<rect width="40" height="40" fill="white"/>
</clipPath>
</defs>
</svg>
