<svg width="40" height="40" viewBox="0 0 40 40" fill="none" xmlns="http://www.w3.org/2000/svg">
<g clip-path="url(#clip0_5202_28536)">
<rect width="40" height="40" fill="white"/>
<path d="M27.1375 14.625C28.2625 15.1625 28.3875 15 36.25 15C37.2446 15 38.1984 14.6049 38.9016 13.9017C39.6049 13.1984 40 12.2446 40 11.25V3.75C40 2.75544 39.6049 1.80161 38.9016 1.09835C38.1984 0.395088 37.2446 0 36.25 0L28.75 0C27.7554 0 26.8016 0.395088 26.0983 1.09835C25.3951 1.80161 25 2.75544 25 3.75C25 11.675 24.875 11.8 25.375 12.8625L20 18.2375L14.625 12.8625C15.1625 11.7375 15 11.6125 15 3.75C15 2.75544 14.6049 1.80161 13.9016 1.09835C13.1984 0.395088 12.2446 0 11.25 0L3.75 0C2.75544 0 1.80161 0.395088 1.09835 1.09835C0.395088 1.80161 0 2.75544 0 3.75L0 11.25C0 12.2446 0.395088 13.1984 1.09835 13.9017C1.80161 14.6049 2.75544 15 3.75 15C11.675 15 11.8 15.125 12.8625 14.625L18.2375 20L12.8625 25.375C11.7375 24.8375 11.6125 25 3.75 25C2.75544 25 1.80161 25.3951 1.09835 26.0983C0.395088 26.8016 0 27.7554 0 28.75L0 36.25C0 37.2446 0.395088 38.1984 1.09835 38.9016C1.80161 39.6049 2.75544 40 3.75 40H11.25C12.2446 40 13.1984 39.6049 13.9016 38.9016C14.6049 38.1984 15 37.2446 15 36.25C15 28.325 15.125 28.2 14.625 27.1375L20 21.7625L25.375 27.1375C24.8375 28.2625 25 28.3875 25 36.25C25 37.2446 25.3951 38.1984 26.0983 38.9016C26.8016 39.6049 27.7554 40 28.75 40H36.25C37.2446 40 38.1984 39.6049 38.9016 38.9016C39.6049 38.1984 40 37.2446 40 36.25V33.75C40 33.4185 39.8683 33.1005 39.6339 32.8661C39.3995 32.6317 39.0815 32.5 38.75 32.5C38.4185 32.5 38.1005 32.6317 37.8661 32.8661C37.6317 33.1005 37.5 33.4185 37.5 33.75V36.25C37.5 36.5815 37.3683 36.8995 37.1339 37.1339C36.8995 37.3683 36.5815 37.5 36.25 37.5H28.75C28.4185 37.5 28.1005 37.3683 27.8661 37.1339C27.6317 36.8995 27.5 36.5815 27.5 36.25V28.75C27.5 28.4185 27.6317 28.1005 27.8661 27.8661C28.1005 27.6317 28.4185 27.5 28.75 27.5H36.25C36.5815 27.5 36.8995 27.6317 37.1339 27.8661C37.3683 28.1005 37.5 28.4185 37.5 28.75C37.5 29.0815 37.6317 29.3995 37.8661 29.6339C38.1005 29.8683 38.4185 30 38.75 30C41.1375 30 40 25 36.25 25C28.325 25 28.2 24.875 27.1375 25.375L21.7625 20L27.1375 14.625ZM27.5 3.75C27.5 3.41848 27.6317 3.10054 27.8661 2.86612C28.1005 2.6317 28.4185 2.5 28.75 2.5H36.25C36.5815 2.5 36.8995 2.6317 37.1339 2.86612C37.3683 3.10054 37.5 3.41848 37.5 3.75V11.25C37.5 11.5815 37.3683 11.8995 37.1339 12.1339C36.8995 12.3683 36.5815 12.5 36.25 12.5H28.75C28.4185 12.5 28.1005 12.3683 27.8661 12.1339C27.6317 11.8995 27.5 11.5815 27.5 11.25V3.75ZM3.75 12.5C3.41848 12.5 3.10054 12.3683 2.86612 12.1339C2.6317 11.8995 2.5 11.5815 2.5 11.25V3.75C2.5 3.41848 2.6317 3.10054 2.86612 2.86612C3.10054 2.6317 3.41848 2.5 3.75 2.5H11.25C11.5815 2.5 11.8995 2.6317 12.1339 2.86612C12.3683 3.10054 12.5 3.41848 12.5 3.75V11.25C12.5 11.5815 12.3683 11.8995 12.1339 12.1339C11.8995 12.3683 11.5815 12.5 11.25 12.5H3.75ZM12.5 36.25C12.5 36.5815 12.3683 36.8995 12.1339 37.1339C11.8995 37.3683 11.5815 37.5 11.25 37.5H3.75C3.41848 37.5 3.10054 37.3683 2.86612 37.1339C2.6317 36.8995 2.5 36.5815 2.5 36.25V28.75C2.5 28.4185 2.6317 28.1005 2.86612 27.8661C3.10054 27.6317 3.41848 27.5 3.75 27.5H11.25C11.5815 27.5 11.8995 27.6317 12.1339 27.8661C12.3683 28.1005 12.5 28.4185 12.5 28.75V36.25Z" fill="#000033"/>
<path d="M24.9 32.0262C24.775 31.7137 24.9 31.8637 22.1375 29.1137C21.9021 28.8783 21.5829 28.7461 21.25 28.7461C20.9171 28.7461 20.5979 28.8783 20.3625 29.1137C20.1271 29.3491 19.9949 29.6683 19.9949 30.0012C19.9949 30.3341 20.1271 30.6533 20.3625 30.8887L20.7375 31.2512H7.5C7.16848 31.2512 6.85054 31.3829 6.61612 31.6173C6.3817 31.8517 6.25 32.1697 6.25 32.5012C6.25 32.8327 6.3817 33.1507 6.61612 33.3851C6.85054 33.6195 7.16848 33.7512 7.5 33.7512H20.7375L20.3625 34.1137C20.1862 34.2885 20.066 34.5119 20.0172 34.7554C19.9683 34.9988 19.9931 35.2513 20.0883 35.4806C20.1835 35.7099 20.3448 35.9056 20.5517 36.0429C20.7586 36.1801 21.0017 36.2527 21.25 36.2512C21.925 36.2512 21.95 36.0637 24.6375 33.3887C24.8109 33.2129 24.9284 32.9897 24.9752 32.7472C25.0219 32.5047 24.9957 32.2538 24.9 32.0262Z" fill="#05058C"/>
<path d="M35.8887 17.8641C33.2762 15.2641 33.3137 15.2391 32.9762 15.1016C32.7486 15.0059 32.4977 14.9798 32.2552 15.0265C32.0127 15.0732 31.7895 15.1907 31.6137 15.3641L29.1137 17.8641C28.8783 18.0995 28.7461 18.4188 28.7461 18.7516C28.7461 19.0845 28.8783 19.4038 29.1137 19.6391C29.3491 19.8745 29.6683 20.0068 30.0012 20.0068C30.3341 20.0068 30.6533 19.8745 30.8887 19.6391L31.2512 19.2641V32.5016C31.2512 32.8332 31.3829 33.1511 31.6173 33.3855C31.8517 33.6199 32.1697 33.7516 32.5012 33.7516C32.8327 33.7516 33.1507 33.6199 33.3851 33.3855C33.6195 33.1511 33.7512 32.8332 33.7512 32.5016V19.2641C34.1887 19.7016 34.4262 20.0016 35.0012 20.0016C35.2495 20.0031 35.4926 19.9306 35.6995 19.7933C35.9064 19.6561 36.0677 19.4603 36.1629 19.231C36.2581 19.0017 36.2829 18.7492 36.2341 18.5058C36.1852 18.2624 36.065 18.039 35.8887 17.8641Z" fill="#05058C"/>
<path d="M7.02621 24.9C7.17542 24.9677 7.33737 25.0027 7.50121 25.0027C7.66505 25.0027 7.827 24.9677 7.97621 24.9C8.28871 24.775 8.13871 24.9 10.8887 22.1375C11.1241 21.9021 11.2563 21.5829 11.2563 21.25C11.2563 20.9171 11.1241 20.5979 10.8887 20.3625C10.6533 20.1271 10.3341 19.9949 10.0012 19.9949C9.66833 19.9949 9.34909 20.1271 9.11371 20.3625L8.75121 20.7375V7.5C8.75121 7.16848 8.61951 6.85054 8.38509 6.61612C8.15067 6.3817 7.83273 6.25 7.50121 6.25C7.16969 6.25 6.85175 6.3817 6.61732 6.61612C6.3829 6.85054 6.25121 7.16848 6.25121 7.5V20.7375L5.88871 20.3625C5.65333 20.1271 5.33409 19.9949 5.00121 19.9949C4.66833 19.9949 4.34909 20.1271 4.11371 20.3625C3.87833 20.5979 3.74609 20.9171 3.74609 21.25C3.74609 21.5829 3.87833 21.9021 4.11371 22.1375C6.72621 24.7375 6.68871 24.7625 7.02621 24.9Z" fill="#05058C"/>
<path d="M32.5 10C32.0055 10 31.5222 9.85338 31.1111 9.57868C30.7 9.30397 30.3795 8.91353 30.1903 8.45671C30.0011 7.9999 29.9516 7.49723 30.048 7.01228C30.1445 6.52732 30.3826 6.08187 30.7322 5.73223C31.0819 5.3826 31.5273 5.1445 32.0123 5.04804C32.4972 4.95157 32.9999 5.00108 33.4567 5.1903C33.9135 5.37952 34.304 5.69995 34.5787 6.11108C34.8534 6.5222 35 7.00555 35 7.5C35 8.16304 34.7366 8.79893 34.2678 9.26777C33.7989 9.73661 33.163 10 32.5 10Z" fill="#000033"/>
</g>
<defs>
<clipPath id="clip0_5202_28536">
<rect width="40" height="40" fill="white"/>
</clipPath>
</defs>
</svg>
