<svg width="40" height="40" viewBox="0 0 40 40" fill="none" xmlns="http://www.w3.org/2000/svg">
<rect width="40" height="40" rx="20" fill="#F4F2FA"/>
<g clip-path="url(#clip0_5202_28722)">
<path d="M20 30C14.477 30 10 25.523 10 20C10 14.477 14.477 10 20 10C25.523 10 30 14.477 30 20C30 25.523 25.523 30 20 30ZM24.82 25.076C26.0271 23.9319 26.7874 22.3953 26.9647 20.7416C27.1419 19.0879 26.7246 17.4251 25.7874 16.0511C24.8503 14.6771 23.4545 13.6817 21.8502 13.2432C20.2458 12.8047 18.5378 12.9517 17.032 13.658L18.007 15.413C18.7679 15.0823 19.5992 14.9461 20.4259 15.0168C21.2525 15.0875 22.0486 15.3627 22.7424 15.8178C23.4361 16.2729 24.0057 16.8934 24.3999 17.6235C24.794 18.3536 25.0002 19.1703 25 20H22L24.82 25.076ZM22.968 26.342L21.993 24.587C21.2321 24.9177 20.4008 25.0539 19.5741 24.9832C18.7475 24.9125 17.9514 24.6373 17.2576 24.1822C16.5639 23.7271 15.9943 23.1066 15.6001 22.3765C15.206 21.6464 14.9998 20.8297 15 20H18L15.18 14.924C13.9729 16.0681 13.2126 17.6047 13.0353 19.2584C12.8581 20.9121 13.2754 22.5749 14.2126 23.9489C15.1497 25.3229 16.5455 26.3183 18.1498 26.7568C19.7542 27.1953 21.4622 27.0483 22.968 26.342Z" fill="#05058C"/>
</g>
<defs>
<clipPath id="clip0_5202_28722">
<rect width="24" height="24" fill="white" transform="translate(8 8)"/>
</clipPath>
</defs>
</svg>
