<svg width="40" height="40" viewBox="0 0 40 40" fill="none" xmlns="http://www.w3.org/2000/svg">
<rect width="40" height="40" rx="20" fill="#F4F2FA"/>
<g clip-path="url(#clip0_5202_28714)">
<path d="M14 29.5C12.067 29.5 10.5 27.933 10.5 26C10.5 24.067 12.067 22.5 14 22.5C15.585 22.5 16.924 23.554 17.355 25H23V23H25V17.242L22.757 15H17V17H11V11H17V13H22.757L26 9.756L30.243 14L27 17.241V23H29V29H23V27H17.355C16.925 28.446 15.585 29.5 14 29.5ZM14 24.5C13.172 24.5 12.5 25.172 12.5 26C12.5 26.828 13.172 27.5 14 27.5C14.828 27.5 15.5 26.828 15.5 26C15.5 25.172 14.828 24.5 14 24.5ZM27 25H25V27H27V25ZM26 12.586L24.586 14L26 15.414L27.414 14L26 12.586ZM15 13H13V15H15V13Z" fill="#05058C"/>
</g>
<defs>
<clipPath id="clip0_5202_28714">
<rect width="24" height="24" fill="white" transform="translate(8 8)"/>
</clipPath>
</defs>
</svg>
