<svg width="40" height="40" viewBox="0 0 40 40" fill="none" xmlns="http://www.w3.org/2000/svg">
<g clip-path="url(#clip0_5201_27357)">
<rect width="40" height="40" fill="white"/>
<path d="M3.75 3.75H18.2C18.4621 3.74932 18.7177 3.83102 18.9308 3.98355C19.1439 4.13608 19.3036 4.35172 19.3875 4.6L20.75 8.75C21.0093 9.48346 21.4903 10.1181 22.1264 10.566C22.7624 11.014 23.5221 11.253 24.3 11.25H38.75C39.0815 11.25 39.3995 11.1183 39.6339 10.8839C39.8683 10.6495 40 10.3315 40 10V7.5C40 6.50544 39.6049 5.55161 38.9016 4.84835C38.1984 4.14509 37.2446 3.75 36.25 3.75H21.725C21.4671 3.02056 20.9899 2.38875 20.3588 1.94117C19.7278 1.4936 18.9737 1.25217 18.2 1.25H3.75C2.75544 1.25 1.80161 1.64509 1.09835 2.34835C0.395088 3.05161 0 4.00544 0 5L0 35C0 35.9946 0.395088 36.9484 1.09835 37.6516C1.80161 38.3549 2.75544 38.75 3.75 38.75H36.25C37.2446 38.75 38.1984 38.3549 38.9016 37.6516C39.6049 36.9484 40 35.9946 40 35V15C40 14.6685 39.8683 14.3505 39.6339 14.1161C39.3995 13.8817 39.0815 13.75 38.75 13.75C38.4185 13.75 38.1005 13.8817 37.8661 14.1161C37.6317 14.3505 37.5 14.6685 37.5 15V35C37.5 35.3315 37.3683 35.6495 37.1339 35.8839C36.8995 36.1183 36.5815 36.25 36.25 36.25H3.75C3.41848 36.25 3.10054 36.1183 2.86612 35.8839C2.6317 35.6495 2.5 35.3315 2.5 35V5C2.5 4.66848 2.6317 4.35054 2.86612 4.11612C3.10054 3.8817 3.41848 3.75 3.75 3.75ZM37.5 7.5V8.75H24.3C24.0274 8.76423 23.7577 8.68884 23.532 8.53536C23.3062 8.38187 23.137 8.15873 23.05 7.9L22.5625 6.25H36.25C36.5815 6.25 36.8995 6.3817 37.1339 6.61612C37.3683 6.85054 37.5 7.16848 37.5 7.5Z" fill="#000033"/>
<path d="M39.6384 36.6115L33.2509 30.224C34.5744 28.4519 35.1776 26.2444 34.9393 24.0455C34.701 21.8467 33.6388 19.8196 31.9665 18.3722C30.2942 16.9248 28.1357 16.1644 25.9254 16.244C23.7151 16.3235 21.617 17.2372 20.0531 18.8011C18.4891 20.365 17.5755 22.4632 17.4959 24.6735C17.4163 26.8838 18.1767 29.0422 19.6242 30.7146C21.0716 32.3869 23.0986 33.449 25.2975 33.6873C27.4963 33.9256 29.7039 33.3224 31.4759 31.999L37.8634 38.3865C37.9802 38.5023 38.1188 38.594 38.2711 38.6562C38.4234 38.7184 38.5864 38.7499 38.7509 38.749C38.9992 38.7504 39.2423 38.6779 39.4492 38.5407C39.6561 38.4034 39.8174 38.2076 39.9127 37.9783C40.0079 37.749 40.0326 37.4966 39.9838 37.2531C39.935 37.0097 39.8147 36.7863 39.6384 36.6115ZM20.0009 24.999C20.0007 23.9714 20.2539 22.9597 20.7379 22.0533C21.222 21.1469 21.9221 20.3739 22.7762 19.8026C23.6303 19.2313 24.612 18.8795 25.6346 18.7781C26.6571 18.6768 27.6888 18.8291 28.6384 19.2216C29.5881 19.6142 30.4262 20.2348 31.0788 21.0285C31.7314 21.8222 32.1782 22.7646 32.3796 23.7722C32.5811 24.7798 32.531 25.8215 32.2339 26.8052C31.9367 27.7888 31.4016 28.684 30.6759 29.4115C29.8026 30.2871 28.6891 30.8839 27.4764 31.1263C26.2637 31.3688 25.0063 31.2461 23.8634 30.7737C22.7205 30.3013 21.7435 29.5004 21.0559 28.4724C20.3683 27.4445 20.0012 26.2357 20.0009 24.999Z" fill="#05058C"/>
<path d="M13.75 16.25H6.25C5.91848 16.25 5.60054 16.1183 5.36612 15.8839C5.1317 15.6495 5 15.3315 5 15C5 14.6685 5.1317 14.3505 5.36612 14.1161C5.60054 13.8817 5.91848 13.75 6.25 13.75H13.75C14.0815 13.75 14.3995 13.8817 14.6339 14.1161C14.8683 14.3505 15 14.6685 15 15C15 15.3315 14.8683 15.6495 14.6339 15.8839C14.3995 16.1183 14.0815 16.25 13.75 16.25Z" fill="#05058C"/>
<path d="M11.25 21.25H6.25C5.91848 21.25 5.60054 21.1183 5.36612 20.8839C5.1317 20.6495 5 20.3315 5 20C5 19.6685 5.1317 19.3505 5.36612 19.1161C5.60054 18.8817 5.91848 18.75 6.25 18.75H11.25C11.5815 18.75 11.8995 18.8817 12.1339 19.1161C12.3683 19.3505 12.5 19.6685 12.5 20C12.5 20.3315 12.3683 20.6495 12.1339 20.8839C11.8995 21.1183 11.5815 21.25 11.25 21.25Z" fill="#05058C"/>
</g>
<defs>
<clipPath id="clip0_5201_27357">
<rect width="40" height="40" fill="white"/>
</clipPath>
</defs>
</svg>
