<svg width="40" height="40" viewBox="0 0 40 40" fill="none" xmlns="http://www.w3.org/2000/svg">
<g clip-path="url(#clip0_5202_29024)">
<rect width="40" height="40" fill="white"/>
<path d="M20 13.75C19.6685 13.75 19.3505 13.6183 19.1161 13.3839C18.8817 13.1495 18.75 12.8315 18.75 12.5V6.25C18.75 5.91848 18.8817 5.60054 19.1161 5.36612C19.3505 5.1317 19.6685 5 20 5C20.3315 5 20.6495 5.1317 20.8839 5.36612C21.1183 5.60054 21.25 5.91848 21.25 6.25V12.5C21.25 12.8315 21.1183 13.1495 20.8839 13.3839C20.6495 13.6183 20.3315 13.75 20 13.75Z" fill="#000033"/>
<path d="M12.5 21.25H6.25C5.91848 21.25 5.60054 21.1183 5.36612 20.8839C5.1317 20.6495 5 20.3315 5 20C5 19.6685 5.1317 19.3505 5.36612 19.1161C5.60054 18.8817 5.91848 18.75 6.25 18.75H12.5C12.8315 18.75 13.1495 18.8817 13.3839 19.1161C13.6183 19.3505 13.75 19.6685 13.75 20C13.75 20.3315 13.6183 20.6495 13.3839 20.8839C13.1495 21.1183 12.8315 21.25 12.5 21.25Z" fill="#05058C"/>
<path d="M20 35C19.6685 35 19.3505 34.8683 19.1161 34.6339C18.8817 34.3995 18.75 34.0815 18.75 33.75V27.5C18.75 27.1685 18.8817 26.8505 19.1161 26.6161C19.3505 26.3817 19.6685 26.25 20 26.25C20.3315 26.25 20.6495 26.3817 20.8839 26.6161C21.1183 26.8505 21.25 27.1685 21.25 27.5V33.75C21.25 34.0815 21.1183 34.3995 20.8839 34.6339C20.6495 34.8683 20.3315 35 20 35Z" fill="#000033"/>
<path d="M33.75 21.25H27.5C27.1685 21.25 26.8505 21.1183 26.6161 20.8839C26.3817 20.6495 26.25 20.3315 26.25 20C26.25 19.6685 26.3817 19.3505 26.6161 19.1161C26.8505 18.8817 27.1685 18.75 27.5 18.75H33.75C34.0815 18.75 34.3995 18.8817 34.6339 19.1161C34.8683 19.3505 35 19.6685 35 20C35 20.3315 34.8683 20.6495 34.6339 20.8839C34.3995 21.1183 34.0815 21.25 33.75 21.25Z" fill="#000033"/>
<path d="M14.7004 15.9504C14.5359 15.9514 14.3728 15.9198 14.2205 15.8576C14.0682 15.7954 13.9297 15.7038 13.8129 15.5879L8.37543 10.1504C8.14005 9.91505 8.00781 9.5958 8.00781 9.26293C8.00781 8.93005 8.14005 8.61081 8.37543 8.37543C8.61081 8.14005 8.93005 8.00781 9.26293 8.00781C9.5958 8.00781 9.91505 8.14005 10.1504 8.37543L15.5879 13.8129C15.7642 13.9878 15.8844 14.2111 15.9333 14.4546C15.9821 14.698 15.9573 14.9505 15.8621 15.1798C15.7669 15.4091 15.6056 15.6048 15.3987 15.7421C15.1918 15.8793 14.9487 15.9519 14.7004 15.9504Z" fill="#000033"/>
<path d="M9.26118 31.9883C9.0129 31.9898 8.76981 31.9173 8.56291 31.78C8.35601 31.6428 8.19467 31.447 8.09946 31.2177C8.00425 30.9884 7.97949 30.7359 8.02833 30.4925C8.07716 30.2491 8.19739 30.0257 8.37368 29.8508L13.8112 24.4133C14.0548 24.178 14.382 24.049 14.7208 24.0549C15.0595 24.0607 15.382 24.2009 15.6174 24.4446C15.8528 24.6883 15.9817 25.0155 15.9759 25.3542C15.97 25.6929 15.8298 26.0155 15.5862 26.2508L10.1487 31.6258C10.0319 31.7417 9.89336 31.8334 9.74106 31.8956C9.58876 31.9578 9.42568 31.9893 9.26118 31.9883Z" fill="#000033"/>
<path d="M30.7368 31.9868C30.5723 31.9878 30.4092 31.9562 30.2569 31.894C30.1046 31.8318 29.9661 31.7402 29.8493 31.6243L24.4118 26.2493C24.2912 26.1287 24.1954 25.9854 24.1302 25.8278C24.0649 25.6701 24.0312 25.5012 24.0312 25.3306C24.0312 25.1599 24.0649 24.991 24.1302 24.8333C24.1954 24.6757 24.2912 24.5325 24.4118 24.4118C24.5325 24.2912 24.6757 24.1954 24.8333 24.1302C24.991 24.0649 25.1599 24.0312 25.3306 24.0312C25.5012 24.0312 25.6701 24.0649 25.8278 24.1302C25.9854 24.1954 26.1287 24.2912 26.2493 24.4118L31.6868 29.8493C31.8676 30.0278 31.9897 30.2571 32.0369 30.5067C32.0841 30.7563 32.0541 31.0144 31.9509 31.2465C31.8477 31.4787 31.6763 31.6739 31.4594 31.8061C31.2425 31.9384 30.9904 32.0014 30.7368 31.9868Z" fill="#000033"/>
<path d="M25.3002 15.9504C25.052 15.9519 24.8089 15.8793 24.602 15.7421C24.3951 15.6048 24.2337 15.4091 24.1385 15.1798C24.0433 14.9505 24.0186 14.698 24.0674 14.4546C24.1162 14.2111 24.2365 13.9878 24.4127 13.8129L29.8502 8.37543C30.0856 8.14005 30.4049 8.00781 30.7377 8.00781C31.0706 8.00781 31.3899 8.14005 31.6252 8.37543C31.8606 8.61081 31.9929 8.93005 31.9929 9.26293C31.9929 9.5958 31.8606 9.91505 31.6252 10.1504L26.2502 15.5879C26.1261 15.7115 25.9774 15.8077 25.8138 15.8701C25.6501 15.9326 25.4751 15.9599 25.3002 15.9504Z" fill="#000033"/>
<path fill-rule="evenodd" clip-rule="evenodd" d="M13.6553 26.0881C13.7026 26.1464 13.7552 26.2005 13.8126 26.2496C14.17 26.607 14.5555 26.9307 14.9643 27.2183C15.0924 27.3085 15.2228 27.3951 15.3554 27.4781C15.6701 27.6752 15.9984 27.853 16.3387 28.0098C18.1749 28.8557 20.2474 29.0397 22.2039 28.5305C22.2078 28.5295 22.2117 28.5284 22.2156 28.5273C23.1456 28.2839 24.0359 27.8871 24.8479 27.3467C25.9131 26.6377 26.8021 25.7092 27.4614 24.6329C27.5059 24.5717 27.5448 24.5064 27.5777 24.4377C28.5885 22.6869 28.9619 20.6401 28.6344 18.6451C28.3069 16.6502 27.2987 14.8302 25.7812 13.4945C25.6622 13.3898 25.5407 13.2886 25.4169 13.1909C25.0243 12.8815 24.6039 12.6046 24.1592 12.3643C22.3806 11.4033 20.3241 11.0879 18.3391 11.4716C16.3542 11.8553 14.5634 12.9145 13.2711 14.4691C11.9787 16.0238 11.2646 17.978 11.2501 19.9996C11.2501 20.0039 11.2501 20.0082 11.2501 20.0125C11.2425 21.3468 11.5402 22.6745 12.1316 23.8902C12.5268 24.7026 13.0422 25.4426 13.6553 26.0881ZM21.7065 26.0853C22.3219 25.9106 22.9112 25.6412 23.4522 25.2827C24.233 24.7653 24.8819 24.0828 25.3577 23.2905C25.369 23.2704 25.3807 23.2505 25.3931 23.2309C25.634 22.8195 25.8286 22.3793 25.9712 21.9178C26.3971 20.5389 26.3328 19.0551 25.7892 17.7183C25.2455 16.3815 24.256 15.274 22.9886 14.5839C21.7212 13.8937 20.254 13.6634 18.836 13.9321C17.4181 14.2008 16.1369 14.9519 15.2098 16.0579C15.195 16.0756 15.1803 16.0933 15.1656 16.1112C14.5786 16.8313 14.1554 17.6784 13.9345 18.5937C13.5959 19.9966 13.7532 21.4734 14.3797 22.7734C15.0062 24.0735 16.0633 25.1167 17.3716 25.7259C18.6798 26.3351 20.1586 26.4729 21.5568 26.1157C21.6063 26.1025 21.6563 26.0923 21.7065 26.0853Z" fill="#05058C"/>
<path d="M20 7.5C19.2583 7.5 18.5333 7.28007 17.9166 6.86801C17.2999 6.45596 16.8193 5.87029 16.5355 5.18506C16.2516 4.49984 16.1774 3.74584 16.3221 3.01841C16.4668 2.29098 16.8239 1.6228 17.3484 1.09835C17.8728 0.573904 18.541 0.216751 19.2684 0.0720569C19.9958 -0.0726377 20.7498 0.00162482 21.4351 0.285453C22.1203 0.569282 22.706 1.04993 23.118 1.66661C23.5301 2.2833 23.75 3.00832 23.75 3.75C23.75 4.74456 23.3549 5.69839 22.6517 6.40165C21.9484 7.10491 20.9946 7.5 20 7.5ZM20 2.5C19.7528 2.5 19.5111 2.57331 19.3055 2.71066C19.1 2.84802 18.9398 3.04324 18.8452 3.27165C18.7505 3.50006 18.7258 3.75139 18.774 3.99386C18.8223 4.23634 18.9413 4.45907 19.1161 4.63389C19.2909 4.8087 19.5137 4.92775 19.7561 4.97598C19.9986 5.02422 20.2499 4.99946 20.4784 4.90485C20.7068 4.81024 20.902 4.65003 21.0393 4.44446C21.1767 4.2389 21.25 3.99723 21.25 3.75C21.25 3.41848 21.1183 3.10054 20.8839 2.86612C20.6495 2.6317 20.3315 2.5 20 2.5Z" fill="#000033"/>
<path d="M20 40C19.2583 40 18.5333 39.7801 17.9166 39.368C17.2999 38.956 16.8193 38.3703 16.5355 37.6851C16.2516 36.9998 16.1774 36.2458 16.3221 35.5184C16.4668 34.791 16.8239 34.1228 17.3484 33.5984C17.8728 33.0739 18.541 32.7168 19.2684 32.5721C19.9958 32.4274 20.7498 32.5016 21.4351 32.7855C22.1203 33.0693 22.706 33.5499 23.118 34.1666C23.5301 34.7833 23.75 35.5083 23.75 36.25C23.75 37.2446 23.3549 38.1984 22.6517 38.9017C21.9484 39.6049 20.9946 40 20 40ZM20 35C19.7528 35 19.5111 35.0733 19.3055 35.2107C19.1 35.348 18.9398 35.5432 18.8452 35.7716C18.7505 36.0001 18.7258 36.2514 18.774 36.4939C18.8223 36.7363 18.9413 36.9591 19.1161 37.1339C19.2909 37.3087 19.5137 37.4278 19.7561 37.476C19.9986 37.5242 20.2499 37.4995 20.4784 37.4049C20.7068 37.3102 20.902 37.15 21.0393 36.9445C21.1767 36.7389 21.25 36.4972 21.25 36.25C21.25 35.9185 21.1183 35.6005 20.8839 35.3661C20.6495 35.1317 20.3315 35 20 35Z" fill="#000033"/>
<path d="M3.75 23.75C3.00832 23.75 2.2833 23.5301 1.66661 23.118C1.04993 22.706 0.569282 22.1203 0.285453 21.4351C0.00162482 20.7498 -0.0726377 19.9958 0.0720569 19.2684C0.216751 18.541 0.573904 17.8728 1.09835 17.3484C1.6228 16.8239 2.29098 16.4668 3.01841 16.3221C3.74584 16.1774 4.49984 16.2516 5.18506 16.5355C5.87029 16.8193 6.45596 17.2999 6.86801 17.9166C7.28007 18.5333 7.5 19.2583 7.5 20C7.5 20.9946 7.10491 21.9484 6.40165 22.6517C5.69839 23.3549 4.74456 23.75 3.75 23.75ZM3.75 18.75C3.50278 18.75 3.2611 18.8233 3.05554 18.9607C2.84998 19.098 2.68976 19.2932 2.59515 19.5216C2.50054 19.7501 2.47579 20.0014 2.52402 20.2439C2.57225 20.4863 2.6913 20.7091 2.86612 20.8839C3.04093 21.0587 3.26366 21.1778 3.50614 21.226C3.74862 21.2742 3.99995 21.2495 4.22836 21.1549C4.45676 21.0602 4.65199 20.9 4.78934 20.6945C4.92669 20.4889 5 20.2472 5 20C5 19.6685 4.86831 19.3505 4.63389 19.1161C4.39947 18.8817 4.08152 18.75 3.75 18.75Z" fill="#000033"/>
<path d="M36.25 23.75C35.5083 23.75 34.7833 23.5301 34.1666 23.118C33.5499 22.706 33.0693 22.1203 32.7855 21.4351C32.5016 20.7498 32.4274 19.9958 32.5721 19.2684C32.7168 18.541 33.0739 17.8728 33.5984 17.3484C34.1228 16.8239 34.791 16.4668 35.5184 16.3221C36.2458 16.1774 36.9998 16.2516 37.6851 16.5355C38.3703 16.8193 38.956 17.2999 39.368 17.9166C39.7801 18.5333 40 19.2583 40 20C40 20.9946 39.6049 21.9484 38.9017 22.6517C38.1984 23.3549 37.2446 23.75 36.25 23.75ZM36.25 18.75C36.0028 18.75 35.7611 18.8233 35.5555 18.9607C35.35 19.098 35.1898 19.2932 35.0952 19.5216C35.0005 19.7501 34.9758 20.0014 35.024 20.2439C35.0723 20.4863 35.1913 20.7091 35.3661 20.8839C35.5409 21.0587 35.7637 21.1778 36.0061 21.226C36.2486 21.2742 36.4999 21.2495 36.7284 21.1549C36.9568 21.0602 37.152 20.9 37.2893 20.6945C37.4267 20.4889 37.5 20.2472 37.5 20C37.5 19.6685 37.3683 19.3505 37.1339 19.1161C36.8995 18.8817 36.5815 18.75 36.25 18.75Z" fill="#000033"/>
<path d="M7.49939 11.25C6.88246 11.2505 6.27493 11.0989 5.73065 10.8084C5.18636 10.518 4.72214 10.0977 4.37913 9.58496C4.03613 9.07218 3.82493 8.48269 3.76427 7.86875C3.7036 7.25481 3.79535 6.63538 4.03136 6.06538C4.26738 5.49539 4.64037 4.99242 5.11729 4.60107C5.59421 4.20972 6.16031 3.94208 6.76541 3.82188C7.37052 3.70167 7.99593 3.73261 8.58622 3.91195C9.17651 4.09129 9.71343 4.41349 10.1494 4.85C10.6732 5.37443 11.0298 6.04232 11.1742 6.76932C11.3186 7.49631 11.2444 8.2498 10.9608 8.93462C10.6773 9.61943 10.1971 10.2049 9.58105 10.617C8.96498 11.0291 8.24059 11.2493 7.49939 11.25ZM6.24939 7.5C6.25059 7.70503 6.3022 7.90663 6.39968 8.08701C6.49716 8.26739 6.63751 8.42103 6.80837 8.53437C6.97924 8.64772 7.17536 8.71729 7.37945 8.73696C7.58354 8.75664 7.78934 8.7258 7.9787 8.64717C8.16807 8.56855 8.33518 8.44455 8.46532 8.2861C8.59546 8.12766 8.68462 7.93963 8.72495 7.7386C8.76528 7.53757 8.75554 7.3297 8.69659 7.13332C8.63763 6.93694 8.53128 6.75808 8.38689 6.6125C8.21205 6.43621 7.98868 6.31599 7.74524 6.26715C7.50181 6.21831 7.24935 6.24308 7.02004 6.33829C6.79074 6.43349 6.59498 6.59483 6.45773 6.80173C6.32048 7.00863 6.24795 7.25172 6.24939 7.5Z" fill="#000033"/>
<path d="M32.4994 11.25C31.8825 11.2505 31.2749 11.0989 30.7306 10.8084C30.1864 10.518 29.7221 10.0977 29.3791 9.58496C29.0361 9.07218 28.8249 8.48269 28.7643 7.86875C28.7036 7.25481 28.7953 6.63538 29.0314 6.06538C29.2674 5.49539 29.6404 4.99242 30.1173 4.60107C30.5942 4.20972 31.1603 3.94208 31.7654 3.82188C32.3705 3.70167 32.9959 3.73261 33.5862 3.91195C34.1765 4.09129 34.7134 4.41349 35.1494 4.85C35.6732 5.37443 36.0298 6.04232 36.1742 6.76932C36.3186 7.49631 36.2444 8.2498 35.9608 8.93462C35.6773 9.61943 35.1971 10.2049 34.5811 10.617C33.965 11.0291 33.2406 11.2493 32.4994 11.25ZM31.2494 7.5C31.2506 7.70503 31.3022 7.90663 31.3997 8.08701C31.4972 8.26739 31.6375 8.42103 31.8084 8.53437C31.9792 8.64772 32.1754 8.71729 32.3795 8.73696C32.5835 8.75664 32.7893 8.7258 32.9787 8.64717C33.1681 8.56855 33.3352 8.44455 33.4653 8.2861C33.5955 8.12766 33.6846 7.93963 33.725 7.7386C33.7653 7.53757 33.7555 7.3297 33.6966 7.13332C33.6376 6.93694 33.5313 6.75808 33.3869 6.6125C33.2121 6.43621 32.9887 6.31599 32.7452 6.26715C32.5018 6.21831 32.2493 6.24308 32.02 6.33829C31.7907 6.43349 31.595 6.59483 31.4577 6.80173C31.3205 7.00863 31.2479 7.25172 31.2494 7.5Z" fill="#000033"/>
<path d="M32.4994 36.25C31.8825 36.2505 31.2749 36.0989 30.7306 35.8084C30.1864 35.518 29.7221 35.0977 29.3791 34.585C29.0361 34.0722 28.8249 33.4827 28.7643 32.8687C28.7036 32.2548 28.7953 31.6354 29.0314 31.0654C29.2674 30.4954 29.6404 29.9924 30.1173 29.6011C30.5942 29.2097 31.1603 28.9421 31.7654 28.8219C32.3705 28.7017 32.9959 28.7326 33.5862 28.9119C34.1765 29.0913 34.7134 29.4135 35.1494 29.85C35.6732 30.3744 36.0298 31.0423 36.1742 31.7693C36.3186 32.4963 36.2444 33.2498 35.9608 33.9346C35.6773 34.6194 35.1971 35.2049 34.5811 35.617C33.965 36.0291 33.2406 36.2493 32.4994 36.25ZM31.2494 32.5C31.2506 32.705 31.3022 32.9066 31.3997 33.087C31.4972 33.2674 31.6375 33.421 31.8084 33.5344C31.9792 33.6477 32.1754 33.7173 32.3795 33.737C32.5835 33.7566 32.7893 33.7258 32.9787 33.6472C33.1681 33.5685 33.3352 33.4446 33.4653 33.2861C33.5955 33.1277 33.6846 32.9396 33.725 32.7386C33.7653 32.5376 33.7555 32.3297 33.6966 32.1333C33.6376 31.9369 33.5313 31.7581 33.3869 31.6125C33.2121 31.4362 32.9887 31.316 32.7452 31.2671C32.5018 31.2183 32.2493 31.2431 32.02 31.3383C31.7907 31.4335 31.595 31.5948 31.4577 31.8017C31.3205 32.0086 31.2479 32.2517 31.2494 32.5Z" fill="#000033"/>
<path d="M7.49939 36.25C6.88246 36.2505 6.27493 36.0989 5.73065 35.8084C5.18636 35.518 4.72214 35.0977 4.37913 34.585C4.03613 34.0722 3.82493 33.4827 3.76427 32.8687C3.7036 32.2548 3.79535 31.6354 4.03136 31.0654C4.26738 30.4954 4.64037 29.9924 5.11729 29.6011C5.59421 29.2097 6.16031 28.9421 6.76541 28.8219C7.37052 28.7017 7.99593 28.7326 8.58622 28.9119C9.17651 29.0913 9.71343 29.4135 10.1494 29.85C10.6732 30.3744 11.0298 31.0423 11.1742 31.7693C11.3186 32.4963 11.2444 33.2498 10.9608 33.9346C10.6773 34.6194 10.1971 35.2049 9.58105 35.617C8.96498 36.0291 8.24059 36.2493 7.49939 36.25ZM6.24939 32.5C6.25059 32.705 6.3022 32.9066 6.39968 33.087C6.49716 33.2674 6.63751 33.421 6.80837 33.5344C6.97924 33.6477 7.17536 33.7173 7.37945 33.737C7.58354 33.7566 7.78934 33.7258 7.9787 33.6472C8.16807 33.5685 8.33518 33.4446 8.46532 33.2861C8.59546 33.1277 8.68462 32.9396 8.72495 32.7386C8.76528 32.5376 8.75554 32.3297 8.69659 32.1333C8.63763 31.9369 8.53128 31.7581 8.38689 31.6125C8.21205 31.4362 7.98868 31.316 7.74524 31.2671C7.50181 31.2183 7.24935 31.2431 7.02004 31.3383C6.79074 31.4335 6.59498 31.5948 6.45773 31.8017C6.32048 32.0086 6.24795 32.2517 6.24939 32.5Z" fill="#000033"/>
</g>
<defs>
<clipPath id="clip0_5202_29024">
<rect width="40" height="40" fill="white"/>
</clipPath>
</defs>
</svg>
