<svg width="40" height="40" viewBox="0 0 40 40" fill="none" xmlns="http://www.w3.org/2000/svg">
<g clip-path="url(#clip0_5201_27508)">
<rect width="40" height="40" transform="matrix(-1 0 0 1 40 0)" fill="white"/>
<path d="M8.75 37.5H25C25.9946 37.5 26.9484 37.1049 27.6517 36.4017C28.3549 35.6984 28.75 34.7446 28.75 33.75V32.5C28.75 32.1685 28.6183 31.8505 28.3839 31.6161C28.1495 31.3817 27.8315 31.25 27.5 31.25C27.1685 31.25 26.8505 31.3817 26.6161 31.6161C26.3817 31.8505 26.25 32.1685 26.25 32.5V33.75C26.25 34.0815 26.1183 34.3995 25.8839 34.6339C25.6495 34.8683 25.3315 35 25 35H8.75C8.41848 35 8.10054 35.1317 7.86612 35.3661C7.63169 35.6005 7.5 35.9185 7.5 36.25C7.5 36.5815 7.63169 36.8995 7.86612 37.1339C8.10054 37.3683 8.41848 37.5 8.75 37.5Z" fill="#05058C"/>
<path d="M15 17.5V11.25C15 7.81253 21.475 6.25003 27.5 6.25003C28.8033 6.24841 30.1055 6.32354 31.4 6.47503C31.5642 6.49472 31.7228 6.54656 31.8669 6.62758C32.0111 6.7086 32.1378 6.81721 32.2399 6.94721C32.3421 7.07721 32.4176 7.22606 32.4623 7.38525C32.5069 7.54445 32.5197 7.71087 32.5 7.87503C32.4803 8.03918 32.4285 8.19784 32.3474 8.34196C32.2664 8.48608 32.1578 8.61283 32.0278 8.71497C31.8978 8.81712 31.749 8.89266 31.5898 8.93728C31.4306 8.9819 31.2642 8.99472 31.1 8.97502C29.9049 8.83531 28.7032 8.7602 27.5 8.75003C20.9375 8.75003 17.5 10.6125 17.5 11.25C17.5 11.8875 20.9375 13.75 27.5 13.75C34.0625 13.75 37.5 11.8875 37.5 11.25C37.5 11.175 37.2 10.6375 35.775 10C35.4683 9.87405 35.2243 9.63141 35.0965 9.32549C34.9688 9.01957 34.9678 8.67543 35.0938 8.36878C35.2197 8.06212 35.4624 7.81807 35.7683 7.69031C36.0742 7.56255 36.4183 7.56155 36.725 7.68753C39.4375 8.85003 40 10.2625 40 11.25V17.5C39.974 18.0033 39.8276 18.4931 39.5731 18.9281C39.3186 19.3631 38.9635 19.7307 38.5375 20C38.9635 20.2693 39.3186 20.6369 39.5731 21.072C39.8276 21.507 39.974 21.9967 40 22.5V28.75C40 35.425 15 35.4125 15 28.75V22.5C15.026 21.9967 15.1724 21.507 15.4269 21.072C15.6814 20.6369 16.0365 20.2693 16.4625 20C16.0365 19.7307 15.6814 19.3631 15.4269 18.9281C15.1724 18.4931 15.026 18.0033 15 17.5ZM17.5 14.4V17.5C17.5 18.1375 20.9375 20 27.5 20C34.0625 20 37.5 18.1375 37.5 17.5V14.4C32.7125 16.8625 22.2875 16.8625 17.5 14.4ZM27.5 31.25C34.0625 31.25 37.5 29.3875 37.5 28.75V25.65C32.7125 28.15 22.2875 28.15 17.5 25.65V28.75C17.5 29.3875 20.9375 31.25 27.5 31.25ZM17.5 22.5C17.5 23.1375 20.9375 25 27.5 25C34.0625 25 37.5 23.1375 37.5 22.5C37.5 22.4125 37.1875 21.9 35.85 21.3375C30.3912 22.8872 24.6088 22.8872 19.15 21.3375C17.8125 21.9 17.5 22.4125 17.5 22.5Z" fill="#05058C"/>
<path d="M5 17.5C5.33152 17.5 5.64946 17.3683 5.88388 17.1339C6.1183 16.8995 6.25 16.5815 6.25 16.25V8.75C6.25 8.41848 6.1183 8.10054 5.88388 7.86612C5.64946 7.6317 5.33152 7.5 5 7.5C4.66848 7.5 4.35054 7.6317 4.11612 7.86612C3.8817 8.10054 3.75 8.41848 3.75 8.75V16.25C3.75 16.5815 3.8817 16.8995 4.11612 17.1339C4.35054 17.3683 4.66848 17.5 5 17.5Z" fill="#05058C"/>
<path d="M5 32.5C5.33152 32.5 5.64946 32.3683 5.88388 32.1339C6.1183 31.8995 6.25 31.5815 6.25 31.25V23.75C6.25 23.4185 6.1183 23.1005 5.88388 22.8661C5.64946 22.6317 5.33152 22.5 5 22.5C4.66848 22.5 4.35054 22.6317 4.11612 22.8661C3.8817 23.1005 3.75 23.4185 3.75 23.75V31.25C3.75 31.5815 3.8817 31.8995 4.11612 32.1339C4.35054 32.3683 4.66848 32.5 5 32.5Z" fill="#05058C"/>
<path d="M1.25 25H8.75C9.08152 25 9.39946 24.8683 9.63388 24.6339C9.8683 24.3995 10 24.0815 10 23.75V16.25C10 15.9185 9.8683 15.6005 9.63388 15.3661C9.39946 15.1317 9.08152 15 8.75 15H1.25C0.918479 15 0.600536 15.1317 0.366116 15.3661C0.131695 15.6005 0 15.9185 0 16.25V23.75C0 24.0815 0.131695 24.3995 0.366116 24.6339C0.600536 24.8683 0.918479 25 1.25 25ZM7.5 22.5H2.5V17.5H7.5V22.5Z" fill="#000033"/>
<path d="M1.25 40H8.75C9.08152 40 9.39946 39.8683 9.63388 39.6339C9.8683 39.3995 10 39.0815 10 38.75V31.25C10 30.9185 9.8683 30.6005 9.63388 30.3661C9.39946 30.1317 9.08152 30 8.75 30H1.25C0.918479 30 0.600536 30.1317 0.366116 30.3661C0.131695 30.6005 0 30.9185 0 31.25V38.75C0 39.0815 0.131695 39.3995 0.366116 39.6339C0.600536 39.8683 0.918479 40 1.25 40ZM7.5 37.5H2.5V32.5H7.5V37.5Z" fill="#000033"/>
<path d="M27.5 11.25C27.8315 11.25 28.1495 11.1183 28.3839 10.8839C28.6183 10.6495 28.75 10.3315 28.75 10V6.25C28.75 5.25544 28.3549 4.30161 27.6517 3.59835C26.9484 2.89509 25.9946 2.5 25 2.5H8.75C8.41848 2.5 8.10054 2.6317 7.86612 2.86612C7.63169 3.10054 7.5 3.41848 7.5 3.75C7.5 4.08152 7.63169 4.39946 7.86612 4.63388C8.10054 4.8683 8.41848 5 8.75 5H25C25.3315 5 25.6495 5.1317 25.8839 5.36612C26.1183 5.60054 26.25 5.91848 26.25 6.25V10C26.25 10.3315 26.3817 10.6495 26.6161 10.8839C26.8505 11.1183 27.1685 11.25 27.5 11.25Z" fill="#05058C"/>
<path d="M1.25 10H8.75C9.08152 10 9.39946 9.8683 9.63388 9.63388C9.8683 9.39946 10 9.08152 10 8.75V1.25C10 0.918479 9.8683 0.600537 9.63388 0.366117C9.39946 0.131696 9.08152 0 8.75 0L1.25 0C0.918479 0 0.600536 0.131696 0.366116 0.366117C0.131695 0.600537 0 0.918479 0 1.25V8.75C0 9.08152 0.131695 9.39946 0.366116 9.63388C0.600536 9.8683 0.918479 10 1.25 10ZM7.5 7.5H2.5V2.5H7.5V7.5Z" fill="#000033"/>
</g>
<defs>
<clipPath id="clip0_5201_27508">
<rect width="40" height="40" fill="white" transform="matrix(-1 0 0 1 40 0)"/>
</clipPath>
</defs>
</svg>
