<svg width="24" height="25" viewBox="0 0 24 25" fill="none" xmlns="http://www.w3.org/2000/svg">
<g clip-path="url(#clip0_5201_27461)">
<path d="M9 10.5C8.73478 10.5 8.48043 10.6054 8.29289 10.7929C8.10536 10.9804 8 11.2348 8 11.5V15.5H10V12.5H13V15L16.5 11.5L13 8V10.5H9ZM12.707 1.893L22.607 11.793C22.7945 11.9805 22.8998 12.2348 22.8998 12.5C22.8998 12.7652 22.7945 13.0195 22.607 13.207L12.707 23.107C12.5195 23.2945 12.2652 23.3998 12 23.3998C11.7348 23.3998 11.4805 23.2945 11.293 23.107L1.393 13.207C1.20553 13.0195 1.10021 12.7652 1.10021 12.5C1.10021 12.2348 1.20553 11.9805 1.393 11.793L11.293 1.893C11.4805 1.70553 11.7348 1.60021 12 1.60021C12.2652 1.60021 12.5195 1.70553 12.707 1.893Z" fill="#05058C"/>
</g>
<defs>
<clipPath id="clip0_5201_27461">
<rect width="24" height="24" fill="white" transform="translate(0 0.5)"/>
</clipPath>
</defs>
</svg>
