<svg width="24" height="25" viewBox="0 0 24 25" fill="none" xmlns="http://www.w3.org/2000/svg">
<g clip-path="url(#clip0_5201_27465)">
<path d="M17.084 16.312C18.0244 15.3184 18.653 14.071 18.8922 12.724C19.1314 11.377 18.9706 9.9894 18.4297 8.73278C17.8888 7.47616 16.9916 6.40558 15.8489 5.65336C14.7062 4.90114 13.3681 4.50025 12 4.50025C10.6319 4.50025 9.29383 4.90114 8.15112 5.65336C7.00841 6.40558 6.11117 7.47616 5.57029 8.73278C5.02942 9.9894 4.86863 11.377 5.10779 12.724C5.34696 14.071 5.97559 15.3184 6.916 16.312C7.45566 15.4508 8.20536 14.741 9.09467 14.2491C9.98398 13.7572 10.9837 13.4995 12 13.5C13.0163 13.4995 14.016 13.7572 14.9053 14.2491C15.7946 14.741 16.5443 15.4508 17.084 16.312ZM12 24.228L5.636 17.864C4.37734 16.6053 3.52018 15.0017 3.17292 13.2558C2.82567 11.51 3.0039 9.70043 3.68509 8.0559C4.36629 6.41137 5.51984 5.00577 6.99988 4.01684C8.47992 3.02792 10.22 2.50008 12 2.50008C13.78 2.50008 15.5201 3.02792 17.0001 4.01684C18.4802 5.00577 19.6337 6.41137 20.3149 8.0559C20.9961 9.70043 21.1743 11.51 20.8271 13.2558C20.4798 15.0017 19.6227 16.6053 18.364 17.864L12 24.228ZM12 12.5C11.2044 12.5 10.4413 12.1839 9.87868 11.6213C9.31607 11.0587 9 10.2956 9 9.5C9 8.70435 9.31607 7.94129 9.87868 7.37868C10.4413 6.81607 11.2044 6.5 12 6.5C12.7956 6.5 13.5587 6.81607 14.1213 7.37868C14.6839 7.94129 15 8.70435 15 9.5C15 10.2956 14.6839 11.0587 14.1213 11.6213C13.5587 12.1839 12.7956 12.5 12 12.5Z" fill="#05058C"/>
</g>
<defs>
<clipPath id="clip0_5201_27465">
<rect width="24" height="24" fill="white" transform="translate(0 0.5)"/>
</clipPath>
</defs>
</svg>
