<svg width="69" height="69" viewBox="0 0 69 69" fill="none" xmlns="http://www.w3.org/2000/svg">
<g clip-path="url(#clip0_4989_12142)">
<rect width="68.5714" height="68.5714" fill="white"/>
<path d="M22.95 67.2429C18.4896 65.9151 14.3707 63.6347 10.878 60.5592C7.38533 57.4837 4.60214 53.6864 2.72082 49.4298C0.839499 45.1732 -0.0950849 40.5589 -0.0183329 35.9057C0.058419 31.2526 1.14468 26.6716 3.16536 22.4794C5.18604 18.2872 8.09295 14.5838 11.6852 11.6251C15.2774 8.66641 19.4692 6.52307 23.971 5.34319C28.4727 4.16331 33.177 3.97505 37.7586 4.79141C42.3402 5.60776 46.6899 7.40927 50.5071 10.0714C50.7542 10.2248 50.9674 10.4268 51.1339 10.6652C51.3004 10.9036 51.4167 11.1734 51.4755 11.4581C51.5344 11.7429 51.5348 12.0366 51.4765 12.3215C51.4182 12.6064 51.3026 12.8764 51.1366 13.1152C50.9706 13.354 50.7578 13.5564 50.5111 13.7103C50.2644 13.8642 49.9889 13.9663 49.7015 14.0103C49.414 14.0543 49.1207 14.0394 48.8392 13.9664C48.5577 13.8934 48.2941 13.7639 48.0642 13.5857C44.7561 11.2737 40.9852 9.70812 37.0123 8.99732C33.0394 8.28652 28.9596 8.44748 25.055 9.46905C21.1505 10.4906 17.5146 12.3484 14.3989 14.9138C11.2832 17.4793 8.76221 20.6911 7.01031 24.327C5.25841 27.9629 4.31748 31.936 4.25264 35.9715C4.18779 40.0069 5.00059 44.0082 6.63477 47.6985C8.26895 51.3889 10.6855 54.68 13.7171 57.3442C16.7488 60.0084 20.3231 61.9821 24.1928 63.1286C24.7384 63.2934 25.1962 63.6682 25.4654 64.1705C25.7347 64.6728 25.7933 65.2615 25.6285 65.8071C25.4637 66.3527 25.0889 66.8105 24.5866 67.0797C24.0843 67.349 23.4955 67.4077 22.95 67.2429Z" fill="#000033"/>
<path d="M32.1429 68.5714C31.5745 68.5714 31.0295 68.3457 30.6276 67.9438C30.2258 67.5419 30 66.9969 30 66.4286C30 65.8602 30.2258 65.3152 30.6276 64.9133C31.0295 64.5115 31.5745 64.2857 32.1429 64.2857C37.2318 64.2828 42.2227 62.8859 46.5739 60.2467C50.925 57.6075 54.47 53.8269 56.8241 49.3152C59.1783 44.8035 60.2515 39.7331 59.9274 34.6544C59.6033 29.5758 57.8943 24.683 54.9857 20.5071C54.8076 20.2773 54.6781 20.0136 54.6051 19.7322C54.5321 19.4507 54.5171 19.1573 54.5611 18.8699C54.6052 18.5825 54.7072 18.307 54.8611 18.0603C55.015 17.8136 55.2175 17.6007 55.4562 17.4348C55.695 17.2688 55.965 17.1532 56.2499 17.0949C56.5348 17.0366 56.8286 17.0369 57.1133 17.0958C57.3981 17.1547 57.6679 17.271 57.9062 17.4375C58.1446 17.6039 58.3467 17.8172 58.5 18.0643C61.8542 22.8826 63.8247 28.5274 64.1977 34.3864C64.5707 40.2453 63.3319 46.0945 60.6159 51.2992C57.8998 56.504 53.8101 60.8654 48.7906 63.9103C43.7712 66.9552 38.0137 68.5672 32.1429 68.5714Z" fill="#000033"/>
<path d="M32.1428 57.8572C27.9046 57.8572 23.7616 56.6004 20.2377 54.2458C16.7138 51.8912 13.9673 48.5445 12.3454 44.6289C10.7235 40.7134 10.2992 36.4048 11.126 32.2481C11.9528 28.0913 13.9937 24.2731 16.9905 21.2763C19.9874 18.2795 23.8056 16.2386 27.9623 15.4118C32.119 14.5849 36.4276 15.0093 40.3432 16.6312C44.2587 18.253 47.6054 20.9996 49.96 24.5235C52.3146 28.0474 53.5714 32.1904 53.5714 36.4286C53.5714 42.1118 51.3137 47.5622 47.2951 51.5809C43.2765 55.5995 37.826 57.8572 32.1428 57.8572ZM32.1428 19.2857C28.7523 19.2857 25.4379 20.2911 22.6188 22.1748C19.7996 24.0585 17.6024 26.7358 16.3049 29.8683C15.0074 33.0007 14.6679 36.4476 15.3294 39.773C15.9908 43.0984 17.6235 46.1529 20.021 48.5504C22.4185 50.9479 25.473 52.5806 28.7984 53.242C32.1238 53.9035 35.5707 53.564 38.7031 52.2665C41.8356 50.969 44.5129 48.7718 46.3966 45.9526C48.2803 43.1335 49.2857 39.8191 49.2857 36.4286C49.2857 31.882 47.4796 27.5217 44.2646 24.3067C41.0497 21.0918 36.6894 19.2857 32.1428 19.2857Z" fill="#000033"/>
<path d="M32.1429 47.1429C30.0238 47.1429 27.9523 46.5145 26.1903 45.3372C24.4284 44.1599 23.0551 42.4865 22.2442 40.5288C21.4332 38.571 21.2211 36.4167 21.6345 34.3383C22.0479 32.26 23.0683 30.3509 24.5667 28.8524C26.0652 27.354 27.9743 26.3336 30.0526 25.9202C32.131 25.5068 34.2853 25.7189 36.2431 26.5299C38.2008 27.3408 39.8742 28.7141 41.0515 30.476C42.2288 32.238 42.8572 34.3095 42.8572 36.4286C42.8572 39.2702 41.7283 41.9954 39.719 44.0047C37.7097 46.014 34.9845 47.1429 32.1429 47.1429ZM32.1429 30C30.8714 30 29.6285 30.377 28.5714 31.0834C27.5142 31.7898 26.6902 32.7938 26.2037 33.9685C25.7171 35.1431 25.5898 36.4357 25.8378 37.6827C26.0859 38.9298 26.6981 40.0752 27.5972 40.9743C28.4962 41.8733 29.6417 42.4856 30.8887 42.7336C32.1357 42.9817 33.4283 42.8544 34.603 42.3678C35.7777 41.8812 36.7817 41.0573 37.488 40.0001C38.1944 38.9429 38.5715 37.7 38.5715 36.4286C38.5715 34.7236 37.8942 33.0885 36.6886 31.8829C35.483 30.6773 33.8478 30 32.1429 30Z" fill="#000033"/>
<path d="M66.9428 10.7143L62.1428 9.55716L65.8928 5.80716C66.0926 5.60736 66.2511 5.37017 66.3592 5.10912C66.4674 4.84807 66.523 4.56828 66.523 4.28573C66.523 4.00317 66.4674 3.72338 66.3592 3.46234C66.2511 3.20129 66.0926 2.9641 65.8928 2.7643C65.693 2.5645 65.4558 2.40601 65.1948 2.29788C64.9338 2.18976 64.654 2.1341 64.3714 2.1341C64.0889 2.1341 63.8091 2.18976 63.548 2.29788C63.287 2.40601 63.0498 2.5645 62.85 2.7643L59.0143 6.42858L57.8571 1.62858C57.7745 1.24561 57.5885 0.892609 57.3193 0.607956C57.0502 0.323303 56.7081 0.117895 56.3303 0.0140645C55.9526 -0.0897661 55.5536 -0.0880451 55.1767 0.0190404C54.7998 0.126126 54.4596 0.334477 54.1928 0.621442L47.7643 7.05001C47.5657 7.25024 47.4085 7.4877 47.3019 7.74878C47.1953 8.00986 47.1412 8.28943 47.1428 8.57144V18.4072L30.6214 34.9072C30.2179 35.3107 29.9912 35.8579 29.9912 36.4286C29.9912 36.9992 30.2179 37.5465 30.6214 37.95C31.0249 38.3535 31.5722 38.5802 32.1428 38.5802C32.7135 38.5802 33.2608 38.3535 33.6643 37.95L50.1643 21.4286H60C60.282 21.4302 60.5616 21.3762 60.8226 21.2695C61.0837 21.1629 61.3212 21.0058 61.5214 20.8072L67.95 14.3786C68.2369 14.1119 68.4453 13.7716 68.5524 13.3947C68.6595 13.0179 68.6612 12.6189 68.5574 12.2411C68.4535 11.8633 68.2481 11.5213 67.9635 11.2521C67.6788 10.9829 67.3258 10.7969 66.9428 10.7143ZM51.4285 9.45001L54.5571 6.42858L55.4785 10.1357L51.4285 14.1214V9.45001ZM59.1214 17.1429H54.45L58.5214 13.0929L62.1428 14.0143L59.1214 17.1429Z" fill="#05058C"/>
</g>
<defs>
<clipPath id="clip0_4989_12142">
<rect width="68.5714" height="68.5714" fill="white"/>
</clipPath>
</defs>
</svg>
