<svg width="40" height="41" viewBox="0 0 40 41" fill="none" xmlns="http://www.w3.org/2000/svg">
<rect y="0.5" width="40" height="40" rx="20" fill="#F4F2FA"/>
<g clip-path="url(#clip0_5203_29379)">
<path d="M24.95 20.45C25.7971 19.6036 26.4128 18.554 26.7381 17.4015C27.0634 16.2491 27.0875 15.0324 26.808 13.868L29.303 12.798C29.3791 12.7654 29.4621 12.7522 29.5445 12.7595C29.627 12.7669 29.7063 12.7946 29.7754 12.8402C29.8445 12.8858 29.9012 12.9479 29.9404 13.0208C29.9796 13.0937 30.0001 13.1752 30 13.258V27.5L23 30.5L17 27.5L10.697 30.201C10.6209 30.2336 10.5379 30.2468 10.4555 30.2395C10.373 30.2321 10.2937 30.2044 10.2246 30.1588C10.1555 30.1132 10.0988 30.0511 10.0596 29.9782C10.0204 29.9053 9.99993 29.8238 10 29.741V15.5L13.129 14.159C12.9088 15.2846 12.9689 16.447 13.3039 17.5439C13.6389 18.6408 14.2385 19.6385 15.05 20.449L20 25.4L24.95 20.45ZM23.536 19.036L20 22.57L16.464 19.035C15.7649 18.3357 15.2888 17.4448 15.096 16.4749C14.9032 15.505 15.0023 14.4998 15.3807 13.5862C15.7592 12.6727 16.4001 11.8918 17.2223 11.3425C18.0445 10.7931 19.0111 10.4999 20 10.4999C20.9889 10.4999 21.9555 10.7931 22.7777 11.3425C23.5999 11.8918 24.2408 12.6727 24.6193 13.5862C24.9977 14.4998 25.0968 15.505 24.904 16.4749C24.7112 17.4448 24.2351 18.3357 23.536 19.035V19.036Z" fill="#05058C"/>
</g>
<defs>
<clipPath id="clip0_5203_29379">
<rect width="24" height="24" fill="white" transform="translate(8 8.5)"/>
</clipPath>
</defs>
</svg>
