<svg width="40" height="41" viewBox="0 0 40 41" fill="none" xmlns="http://www.w3.org/2000/svg">
<rect y="0.5" width="40" height="40" rx="20" fill="#F4F2FA"/>
<g clip-path="url(#clip0_5203_29342)">
<path d="M14 30C12.067 30 10.5 28.433 10.5 26.5C10.5 24.567 12.067 23 14 23C15.585 23 16.924 24.054 17.355 25.5H23V23.5H25V17.742L22.757 15.5H17V17.5H11V11.5H17V13.5H22.757L26 10.256L30.243 14.5L27 17.741V23.5H29V29.5H23V27.5H17.355C16.925 28.946 15.585 30 14 30ZM14 25C13.172 25 12.5 25.672 12.5 26.5C12.5 27.328 13.172 28 14 28C14.828 28 15.5 27.328 15.5 26.5C15.5 25.672 14.828 25 14 25ZM27 25.5H25V27.5H27V25.5ZM26 13.086L24.586 14.5L26 15.914L27.414 14.5L26 13.086ZM15 13.5H13V15.5H15V13.5Z" fill="#05058C"/>
</g>
<defs>
<clipPath id="clip0_5203_29342">
<rect width="24" height="24" fill="white" transform="translate(8 8.5)"/>
</clipPath>
</defs>
</svg>
