<svg width="40" height="40" viewBox="0 0 40 40" fill="none" xmlns="http://www.w3.org/2000/svg">
<rect width="40" height="40" rx="20" fill="#F4F2FA"/>
<g clip-path="url(#clip0_5203_29100)">
<path d="M12 24V28H16V30H10V24H12ZM30 24V30H24V28H28V24H30ZM15.5 15C15.5 16.1935 15.9741 17.3381 16.818 18.182C17.6619 19.0259 18.8065 19.5 20 19.5C21.1935 19.5 22.3381 19.0259 23.182 18.182C24.0259 17.3381 24.5 16.1935 24.5 15H26.5C26.5002 16.1894 26.1741 17.356 25.5571 18.3729C24.9402 19.3898 24.056 20.2179 23.001 20.767L23 27H17V20.768C15.9446 20.2189 15.0602 19.3907 14.443 18.3737C13.8259 17.3566 13.4997 16.1897 13.5 15H15.5ZM20 13C20.663 13 21.2989 13.2634 21.7678 13.7322C22.2366 14.2011 22.5 14.837 22.5 15.5C22.5 16.163 22.2366 16.7989 21.7678 17.2678C21.2989 17.7366 20.663 18 20 18C19.337 18 18.7011 17.7366 18.2322 17.2678C17.7634 16.7989 17.5 16.163 17.5 15.5C17.5 14.837 17.7634 14.2011 18.2322 13.7322C18.7011 13.2634 19.337 13 20 13ZM16 10V12L12 11.999V16H10V10H16ZM30 10V16H28V12H24V10H30Z" fill="#05058C"/>
</g>
<defs>
<clipPath id="clip0_5203_29100">
<rect width="24" height="24" fill="white" transform="translate(8 8)"/>
</clipPath>
</defs>
</svg>
