<svg width="40" height="41" viewBox="0 0 40 41" fill="none" xmlns="http://www.w3.org/2000/svg">
<rect y="0.5" width="40" height="40" rx="20" fill="#F4F2FA"/>
<g clip-path="url(#clip0_5203_29375)">
<path d="M19.141 10.5H20.859C22.873 10.5 23.953 10.778 24.931 11.301C25.8973 11.8125 26.6875 12.6027 27.199 13.569C27.722 14.547 28 15.627 28 17.641V23.359C28 25.373 27.722 26.453 27.199 27.431C26.6875 28.3973 25.8973 29.1875 24.931 29.699C23.953 30.222 22.873 30.5 20.859 30.5H19.14C17.126 30.5 16.046 30.222 15.068 29.699C14.1017 29.1875 13.3115 28.3973 12.8 27.431C12.278 26.453 12 25.373 12 23.359V17.64C12 15.626 12.278 14.546 12.801 13.568C13.3129 12.6019 14.1035 11.8121 15.07 11.301C16.047 10.778 17.127 10.5 19.141 10.5ZM19 14.5V19.5H21V14.5H19Z" fill="#05058C"/>
</g>
<defs>
<clipPath id="clip0_5203_29375">
<rect width="24" height="24" fill="white" transform="translate(8 8.5)"/>
</clipPath>
</defs>
</svg>
