<svg width="40" height="41" viewBox="0 0 40 41" fill="none" xmlns="http://www.w3.org/2000/svg">
<rect y="0.5" width="40" height="40" rx="20" fill="#F4F2FA"/>
<g clip-path="url(#clip0_5203_29381)">
<path d="M25.654 10.2L22.872 12.733C24.1671 13.1242 25.3591 13.7981 26.362 14.706C29.874 17.906 29.874 23.094 26.362 26.294C23.77 28.654 19.764 30.156 14.346 30.8L17.128 28.267C15.8329 27.8758 14.6409 27.2019 13.638 26.294C10.126 23.094 10.105 17.925 13.638 14.706C16.23 12.346 20.237 10.844 25.655 10.2H25.654ZM20 16.5C17.515 16.5 15.5 18.29 15.5 20.5C15.5 22.71 17.515 24.5 20 24.5C22.485 24.5 24.5 22.71 24.5 20.5C24.5 18.29 22.485 16.5 20 16.5Z" fill="#05058C"/>
</g>
<defs>
<clipPath id="clip0_5203_29381">
<rect width="24" height="24" fill="white" transform="translate(8 8.5)"/>
</clipPath>
</defs>
</svg>
