<svg width="40" height="41" viewBox="0 0 40 41" fill="none" xmlns="http://www.w3.org/2000/svg">
<rect y="0.5" width="40" height="40" rx="20" fill="#F4F2FA"/>
<g clip-path="url(#clip0_5203_29377)">
<path d="M20 28.5C22.1217 28.5 24.1566 27.6571 25.6569 26.1569C27.1571 24.6566 28 22.6217 28 20.5C28 18.3783 27.1571 16.3434 25.6569 14.8431C24.1566 13.3429 22.1217 12.5 20 12.5C17.8783 12.5 15.8434 13.3429 14.3431 14.8431C12.8429 16.3434 12 18.3783 12 20.5C12 22.6217 12.8429 24.6566 14.3431 26.1569C15.8434 27.6571 17.8783 28.5 20 28.5ZM20 30.5C14.477 30.5 10 26.023 10 20.5C10 14.977 14.477 10.5 20 10.5C25.523 10.5 30 14.977 30 20.5C30 26.023 25.523 30.5 20 30.5ZM20 24.5C21.0609 24.5 22.0783 24.0786 22.8284 23.3284C23.5786 22.5783 24 21.5609 24 20.5C24 19.4391 23.5786 18.4217 22.8284 17.6716C22.0783 16.9214 21.0609 16.5 20 16.5C18.9391 16.5 17.9217 16.9214 17.1716 17.6716C16.4214 18.4217 16 19.4391 16 20.5C16 21.5609 16.4214 22.5783 17.1716 23.3284C17.9217 24.0786 18.9391 24.5 20 24.5ZM20 26.5C18.4087 26.5 16.8826 25.8679 15.7574 24.7426C14.6321 23.6174 14 22.0913 14 20.5C14 18.9087 14.6321 17.3826 15.7574 16.2574C16.8826 15.1321 18.4087 14.5 20 14.5C21.5913 14.5 23.1174 15.1321 24.2426 16.2574C25.3679 17.3826 26 18.9087 26 20.5C26 22.0913 25.3679 23.6174 24.2426 24.7426C23.1174 25.8679 21.5913 26.5 20 26.5ZM20 22.5C19.4696 22.5 18.9609 22.2893 18.5858 21.9142C18.2107 21.5391 18 21.0304 18 20.5C18 19.9696 18.2107 19.4609 18.5858 19.0858C18.9609 18.7107 19.4696 18.5 20 18.5C20.5304 18.5 21.0391 18.7107 21.4142 19.0858C21.7893 19.4609 22 19.9696 22 20.5C22 21.0304 21.7893 21.5391 21.4142 21.9142C21.0391 22.2893 20.5304 22.5 20 22.5Z" fill="#05058C"/>
</g>
<defs>
<clipPath id="clip0_5203_29377">
<rect width="24" height="24" fill="white" transform="translate(8 8.5)"/>
</clipPath>
</defs>
</svg>
