<svg width="40" height="41" viewBox="0 0 40 41" fill="none" xmlns="http://www.w3.org/2000/svg">
<rect y="0.5" width="40" height="40" rx="20" fill="#F4F2FA"/>
<g clip-path="url(#clip0_5203_29338)">
<path d="M29 18V21C29 23.485 24.97 25.5 20 25.5C15.03 25.5 11 23.485 11 21V18C11 20.485 15.03 22.5 20 22.5C24.97 22.5 29 20.485 29 18ZM11 23C11 25.485 15.03 27.5 20 27.5C24.97 27.5 29 25.485 29 23V26C29 28.485 24.97 30.5 20 30.5C15.03 30.5 11 28.485 11 26V23ZM20 20.5C15.03 20.5 11 18.485 11 16C11 13.515 15.03 11.5 20 11.5C24.97 11.5 29 13.515 29 16C29 18.485 24.97 20.5 20 20.5Z" fill="#05058C"/>
</g>
<defs>
<clipPath id="clip0_5203_29338">
<rect width="24" height="24" fill="white" transform="translate(8 8.5)"/>
</clipPath>
</defs>
</svg>
