<svg width="33" height="32" viewBox="0 0 33 32" fill="none" xmlns="http://www.w3.org/2000/svg">
<g clip-path="url(#clip0_2490_6295)">
<g clip-path="url(#clip1_2490_6295)">
<path fill-rule="evenodd" clip-rule="evenodd" d="M1.82471 14.5509C1.82471 16.3349 2.83271 17.9653 4.42791 18.7637L6.11431 19.6069C6.47992 19.7899 6.88624 19.8765 7.2947 19.8582C7.70315 19.84 8.10017 19.7177 8.44805 19.5029C8.79593 19.2881 9.08311 18.9879 9.28233 18.6309C9.48155 18.2738 9.58619 17.8718 9.58631 17.4629C9.58631 15.2229 11.2039 13.3109 13.4135 12.9429L15.4071 12.6117C16.1259 12.4917 16.8101 12.2173 17.4126 11.8075C18.0152 11.3977 18.5218 10.8622 18.8975 10.2378C19.2733 9.61345 19.5093 8.91507 19.5892 8.19076C19.6692 7.46645 19.5912 6.73341 19.3607 6.04212L19.1879 5.52052C18.6515 3.91285 17.623 2.51465 16.248 1.52389C14.8729 0.533125 13.2211 0 11.5263 0C9.83152 0 8.17967 0.533125 6.80465 1.52389C5.42963 2.51465 4.4011 3.91285 3.86471 5.52052L2.74471 8.88052C2.13538 10.7089 1.82473 12.6236 1.82471 14.5509Z" fill="#CECFFB"/>
<path fill-rule="evenodd" clip-rule="evenodd" d="M3.14795 11.2526C3.14795 12.4702 3.83595 13.5838 4.92395 14.1278L6.07595 14.7038C6.32547 14.8284 6.60268 14.8872 6.88129 14.8746C7.1599 14.8619 7.43066 14.7783 7.66788 14.6317C7.9051 14.485 8.10091 14.2802 8.23673 14.0366C8.37255 13.793 8.44388 13.5187 8.44395 13.2398C8.44395 11.7118 9.54955 10.4078 11.0567 10.1566L12.4167 9.92944C12.9075 9.84794 13.3747 9.66097 13.7862 9.38144C14.1976 9.1019 14.5436 8.73645 14.8002 8.31029C15.0568 7.88412 15.2179 7.40737 15.2724 6.91292C15.3269 6.41847 15.2735 5.91808 15.116 5.44625L14.9976 5.09105C14.6316 3.99379 13.9297 3.03947 12.9912 2.36324C12.0528 1.687 10.9254 1.32312 9.76875 1.32312C8.61206 1.32312 7.48469 1.687 6.54627 2.36324C5.60785 3.03947 4.90594 3.99379 4.53995 5.09105L3.77675 7.38224C3.36035 8.63071 3.14802 9.93657 3.14795 11.2526Z" fill="#6E6DEC"/>
<path d="M24.1126 1.9877H8.88535C5.35073 1.9877 2.48535 4.85308 2.48535 8.3877V23.6149C2.48535 27.1495 5.35073 30.0149 8.88535 30.0149H24.1126C27.6472 30.0149 30.5126 27.1495 30.5126 23.6149V8.3877C30.5126 4.85308 27.6472 1.9877 24.1126 1.9877Z" stroke="#05058C" stroke-width="3.98051"/>
<path d="M24.1382 21.3213L19.583 16.7677L22.8998 15.3373C23.0255 15.2831 23.1318 15.1918 23.2042 15.0755C23.2766 14.9593 23.3118 14.8237 23.305 14.6869C23.2982 14.5501 23.2498 14.4186 23.1662 14.3101C23.0826 14.2016 22.9679 14.1212 22.8374 14.0797L11.9686 10.6173C11.851 10.5797 11.7254 10.5752 11.6054 10.6043C11.4855 10.6334 11.3759 10.6949 11.2886 10.7822C11.2014 10.8695 11.1398 10.9791 11.1107 11.099C11.0816 11.219 11.0861 11.3446 11.1237 11.4621L14.5862 22.3309C14.6274 22.4616 14.7077 22.5764 14.8161 22.6602C14.9245 22.7439 15.0559 22.7925 15.1927 22.7995C15.3295 22.8065 15.4652 22.7714 15.5816 22.6991C15.6979 22.6268 15.7894 22.5207 15.8438 22.3949L17.2742 19.0765L21.8278 23.6317C21.8902 23.6942 21.9642 23.7437 22.0458 23.7774C22.1273 23.8112 22.2147 23.8286 22.303 23.8286C22.3912 23.8286 22.4786 23.8112 22.5601 23.7774C22.6417 23.7437 22.7157 23.6942 22.7782 23.6317L24.1382 22.2717C24.2006 22.2093 24.2501 22.1353 24.2838 22.0537C24.3176 21.9722 24.335 21.8848 24.335 21.7965C24.335 21.7083 24.3176 21.6209 24.2838 21.5394C24.2501 21.4578 24.2006 21.3837 24.1382 21.3213Z" fill="#05058C"/>
</g>
</g>
<defs>
<clipPath id="clip0_2490_6295">
<rect width="32" height="32" fill="white" transform="translate(0.5)"/>
</clipPath>
<clipPath id="clip1_2490_6295">
<rect width="32" height="32" fill="white" transform="translate(0.5)"/>
</clipPath>
</defs>
</svg>
