<svg width="33" height="32" viewBox="0 0 33 32" fill="none" xmlns="http://www.w3.org/2000/svg">
<g clip-path="url(#clip0_2490_6305)">
<g clip-path="url(#clip1_2490_6305)">
<path d="M9.38916 16.0013C9.38916 19.9284 12.5732 23.1124 16.5003 23.1124C20.4274 23.1124 23.6114 19.9284 23.6114 16.0013C23.6114 12.0742 20.4274 8.8902 16.5003 8.8902C12.5732 8.8902 9.38916 12.0742 9.38916 16.0013Z" fill="#CECFFB"/>
<path d="M4.05566 15.9993C4.05566 22.8722 9.62722 28.4438 16.5001 28.4438C23.373 28.4438 28.9446 22.8722 28.9446 15.9993C28.9446 9.12646 23.373 3.5549 16.5001 3.5549C9.62722 3.5549 4.05566 9.12646 4.05566 15.9993Z" stroke="#05058C" stroke-width="3.54286"/>
<path d="M12.9444 16C12.9444 16.943 13.319 17.8474 13.9858 18.5142C14.6526 19.181 15.557 19.5556 16.5 19.5556C17.443 19.5556 18.3474 19.181 19.0142 18.5142C19.681 17.8474 20.0556 16.943 20.0556 16C20.0556 15.057 19.681 14.1526 19.0142 13.4858C18.3474 12.819 17.443 12.4444 16.5 12.4444C15.557 12.4444 14.6526 12.819 13.9858 13.4858C13.319 14.1526 12.9444 15.057 12.9444 16ZM16.5 32C16.0285 32 15.5763 31.8127 15.2429 31.4793C14.9095 31.1459 14.7222 30.6937 14.7222 30.2222V24.2963C14.7222 23.8248 14.9095 23.3726 15.2429 23.0392C15.5763 22.7058 16.0285 22.5185 16.5 22.5185C16.9715 22.5185 17.4237 22.7058 17.7571 23.0392C18.0905 23.3726 18.2778 23.8248 18.2778 24.2963V30.2222C18.2778 30.6937 18.0905 31.1459 17.7571 31.4793C17.4237 31.8127 16.9715 32 16.5 32ZM16.5 9.48148C16.0285 9.48148 15.5763 9.29418 15.2429 8.96078C14.9095 8.62739 14.7222 8.1752 14.7222 7.7037V1.77778C14.7222 1.30628 14.9095 0.854097 15.2429 0.520699C15.5763 0.187301 16.0285 0 16.5 0C16.9715 0 17.4237 0.187301 17.7571 0.520699C18.0905 0.854097 18.2778 1.30628 18.2778 1.77778V7.7037C18.2778 8.1752 18.0905 8.62739 17.7571 8.96078C17.4237 9.29418 16.9715 9.48148 16.5 9.48148ZM0.5 16C0.5 15.5285 0.687301 15.0763 1.0207 14.7429C1.3541 14.4095 1.80628 14.2222 2.27778 14.2222H8.2037C8.6752 14.2222 9.12739 14.4095 9.46078 14.7429C9.79418 15.0763 9.98148 15.5285 9.98148 16C9.98148 16.4715 9.79418 16.9237 9.46078 17.2571C9.12739 17.5905 8.6752 17.7778 8.2037 17.7778H2.27778C1.80628 17.7778 1.3541 17.5905 1.0207 17.2571C0.687301 16.9237 0.5 16.4715 0.5 16ZM23.0185 16C23.0185 15.5285 23.2058 15.0763 23.5392 14.7429C23.8726 14.4095 24.3248 14.2222 24.7963 14.2222H30.7222C31.1937 14.2222 31.6459 14.4095 31.9793 14.7429C32.3127 15.0763 32.5 15.5285 32.5 16C32.5 16.4715 32.3127 16.9237 31.9793 17.2571C31.6459 17.5905 31.1937 17.7778 30.7222 17.7778H24.7963C24.3248 17.7778 23.8726 17.5905 23.5392 17.2571C23.2058 16.9237 23.0185 16.4715 23.0185 16Z" fill="#05058C"/>
</g>
</g>
<defs>
<clipPath id="clip0_2490_6305">
<rect width="32" height="32" fill="white" transform="translate(0.5)"/>
</clipPath>
<clipPath id="clip1_2490_6305">
<rect width="32" height="32" fill="white" transform="translate(0.5)"/>
</clipPath>
</defs>
</svg>
