<svg width="23" height="32" viewBox="0 0 23 32" fill="none" xmlns="http://www.w3.org/2000/svg">
<g clip-path="url(#clip0_2490_6316)">
<path d="M18.5873 4.1788V27.831H4.67421V4.1788H18.5873ZM21.3699 4.1788C21.3699 3.44081 21.0767 2.73304 20.5549 2.2112C20.033 1.68936 19.3252 1.39619 18.5873 1.39619H4.67421C3.93622 1.39619 3.22845 1.68936 2.70661 2.2112C2.18477 2.73304 1.8916 3.44081 1.8916 4.1788V27.831C1.8916 28.569 2.18477 29.2767 2.70661 29.7986C3.22845 30.3204 3.93622 30.6136 4.67421 30.6136H18.5873C19.3252 30.6136 20.033 30.3204 20.5549 29.7986C21.0767 29.2767 21.3699 28.569 21.3699 27.831V4.1788Z" fill="#05058C" stroke="#05058C" stroke-width="0.1394"/>
<path d="M10.935 17.392L6.06543 25.0442V6.9572H17.1959L10.935 17.392Z" fill="#CECFFB"/>
</g>
<defs>
<clipPath id="clip0_2490_6316">
<rect width="22.2609" height="32" fill="white" transform="translate(0.5)"/>
</clipPath>
</defs>
</svg>
