<svg width="41" height="40" viewBox="0 0 41 40" fill="none" xmlns="http://www.w3.org/2000/svg">
<path d="M36.75 17.5C36.4185 17.5 36.1005 17.6317 35.8661 17.8661C35.6317 18.1005 35.5 18.4185 35.5 18.75V36.25C35.5 36.5815 35.3683 36.8995 35.1339 37.1339C34.8995 37.3683 34.5815 37.5 34.25 37.5H14.25C13.9185 37.5 13.6005 37.3683 13.3661 37.1339C13.1317 36.8995 13 36.5815 13 36.25V8.75C13 8.41848 13.1317 8.10054 13.3661 7.86612C13.6005 7.6317 13.9185 7.5 14.25 7.5H28V13.75C28 14.0815 28.1317 14.3995 28.3661 14.6339C28.6005 14.8683 28.9185 15 29.25 15H36.75C36.9983 15.0014 37.2414 14.9289 37.4483 14.7917C37.6552 14.6544 37.8165 14.4587 37.9117 14.2294C38.0069 14 38.0317 13.7476 37.9829 13.5041C37.934 13.2607 37.8138 13.0373 37.6375 12.8625L30.5 5.7375V3.75C30.5 2.75544 30.1049 1.80161 29.4017 1.09835C28.6984 0.395088 27.7446 0 26.75 0L6.75 0C5.75544 0 4.80161 0.395088 4.09835 1.09835C3.39509 1.80161 3 2.75544 3 3.75V31.25C3 32.2446 3.39509 33.1984 4.09835 33.9017C4.80161 34.6049 5.75544 35 6.75 35H10.5V36.25C10.5 37.2446 10.8951 38.1984 11.5983 38.9017C12.3016 39.6049 13.2554 40 14.25 40H34.25C35.2446 40 36.1984 39.6049 36.9017 38.9017C37.6049 38.1984 38 37.2446 38 36.25V18.75C38 18.4185 37.8683 18.1005 37.6339 17.8661C37.3995 17.6317 37.0815 17.5 36.75 17.5ZM30.5 12.5V9.2625L33.7375 12.5H30.5ZM6.75 32.5C6.41848 32.5 6.10054 32.3683 5.86612 32.1339C5.6317 31.8995 5.5 31.5815 5.5 31.25V3.75C5.5 3.41848 5.6317 3.10054 5.86612 2.86612C6.10054 2.6317 6.41848 2.5 6.75 2.5H26.75C27.0815 2.5 27.3995 2.6317 27.6339 2.86612C27.8683 3.10054 28 3.41848 28 3.75V5H14.25C13.2554 5 12.3016 5.39509 11.5983 6.09835C10.8951 6.80161 10.5 7.75544 10.5 8.75V32.5H6.75Z" fill="#000033"/>
<path d="M31.7502 20H28.0002C27.6687 20 27.3508 20.1317 27.1163 20.3661C26.8819 20.6005 26.7502 20.9185 26.7502 21.25C26.7502 21.5815 26.8819 21.8995 27.1163 22.1339C27.3508 22.3683 27.6687 22.5 28.0002 22.5H28.7377L24.2502 26.9875L21.3877 24.1125C21.2715 23.9953 21.1333 23.9023 20.981 23.8389C20.8286 23.7754 20.6652 23.7428 20.5002 23.7428C20.3352 23.7428 20.1718 23.7754 20.0195 23.8389C19.8672 23.9023 19.7289 23.9953 19.6127 24.1125L15.8627 27.8625C15.7462 27.979 15.6537 28.1174 15.5907 28.2697C15.5276 28.422 15.4951 28.5852 15.4951 28.75C15.4951 28.9148 15.5276 29.078 15.5907 29.2303C15.6537 29.3826 15.7462 29.521 15.8627 29.6375C16.0981 29.8729 16.4174 30.0051 16.7502 30.0051C16.9151 30.0051 17.0783 29.9727 17.2305 29.9096C17.3828 29.8465 17.5212 29.754 17.6377 29.6375L20.5002 26.7625L23.3627 29.6375C23.4789 29.7547 23.6172 29.8477 23.7695 29.9111C23.9218 29.9746 24.0852 30.0072 24.2502 30.0072C24.4152 30.0072 24.5786 29.9746 24.731 29.9111C24.8833 29.8477 25.0215 29.7547 25.1377 29.6375L30.5002 24.2625V25C30.5002 25.3315 30.6319 25.6495 30.8663 25.8839C31.1008 26.1183 31.4187 26.25 31.7502 26.25C32.0818 26.25 32.3997 26.1183 32.6341 25.8839C32.8685 25.6495 33.0002 25.3315 33.0002 25V21.25C33.0002 20.9185 32.8685 20.6005 32.6341 20.3661C32.3997 20.1317 32.0818 20 31.7502 20Z" fill="#100FA8"/>
</svg>
