<svg width="41" height="40" viewBox="0 0 41 40" fill="none" xmlns="http://www.w3.org/2000/svg">
<g clip-path="url(#clip0_4343_16362)">
<path d="M20.5 12.5C19.0166 12.5 17.5666 12.9399 16.3332 13.764C15.0999 14.5881 14.1386 15.7594 13.5709 17.1299C13.0032 18.5003 12.8547 20.0083 13.1441 21.4632C13.4335 22.918 14.1478 24.2544 15.1967 25.3033C16.2456 26.3522 17.582 27.0665 19.0368 27.3559C20.4917 27.6453 21.9997 27.4968 23.3701 26.9291C24.7406 26.3614 25.9119 25.4001 26.736 24.1668C27.5601 22.9334 28 21.4834 28 20C28 18.0109 27.2098 16.1032 25.8033 14.6967C24.3968 13.2902 22.4891 12.5 20.5 12.5ZM25.325 18.75H21.75V15.175C22.6098 15.3994 23.3943 15.849 24.0227 16.4773C24.651 17.1057 25.1006 17.8902 25.325 18.75V18.75ZM20.5 25C19.2936 24.9855 18.1331 24.5354 17.2326 23.7325C16.3321 22.9296 15.7522 21.8282 15.5999 20.6314C15.4476 19.4346 15.7333 18.2231 16.4041 17.2203C17.0749 16.2175 18.0857 15.4911 19.25 15.175V20C19.25 20.3315 19.3817 20.6495 19.6161 20.8839C19.8505 21.1183 20.1685 21.25 20.5 21.25H25.325C25.0486 22.3206 24.4251 23.2694 23.5521 23.9479C22.679 24.6264 21.6057 24.9964 20.5 25Z" fill="#100FA8"/>
<path fill-rule="evenodd" clip-rule="evenodd" d="M16.2781 32.1046C16.3603 32.1286 16.4468 32.1481 16.5376 32.1625C25.8376 33.75 35.0751 29.7375 40.3376 20.625C40.4473 20.435 40.5051 20.2194 40.5051 20C40.5051 19.7806 40.4473 19.565 40.3376 19.375C31.1751 3.4875 9.81259 3.5125 0.662585 19.375C0.552875 19.565 0.495117 19.7806 0.495117 20C0.495117 20.2194 0.552875 20.435 0.662585 20.625C3.06941 24.9391 6.76162 28.3954 11.2251 30.5125C11.2771 30.5367 11.3289 30.5567 11.3802 30.5727C12.6668 31.1843 14.4025 31.7499 16.2781 32.1046ZM12.4156 28.3246C12.3717 28.2981 12.3249 28.2731 12.2751 28.25C8.49783 26.4624 5.33855 23.5903 3.20009 20C11.4376 6.6375 29.5626 6.6375 37.8001 20C35.7404 23.5564 32.6351 26.3919 28.9067 28.1208C25.2714 29.8065 21.2157 30.3604 17.2657 29.7145C17.2123 29.706 17.1596 29.6964 17.1074 29.6879C17.0591 29.6796 17.0108 29.6712 16.9626 29.6625C16.9401 29.6587 16.9176 29.6555 16.895 29.6529C15.0955 29.3507 13.9604 29.0215 12.4156 28.3246Z" fill="#000033"/>
</g>
<defs>
<clipPath id="clip0_4343_16362">
<rect width="40" height="40" fill="white" transform="translate(0.5)"/>
</clipPath>
</defs>
</svg>
