<svg width="41" height="40" viewBox="0 0 41 40" fill="none" xmlns="http://www.w3.org/2000/svg">
<g clip-path="url(#clip0_4343_16541)">
<path d="M24.2499 32.5028H16.7499C16.4184 32.5028 16.1004 32.3711 15.866 32.1367C15.6316 31.9023 15.4999 31.5844 15.4999 31.2528V23.6028C15.4972 23.4172 15.4531 23.2345 15.371 23.068C15.2888 22.9015 15.1706 22.7554 15.0249 22.6403C13.8279 21.6611 12.9119 20.3821 12.37 18.9336C11.8282 17.4851 11.68 15.9189 11.9404 14.3945C12.2008 12.8701 12.8606 11.4419 13.8526 10.2555C14.8445 9.06904 16.1332 8.16669 17.5874 7.64034C17.7705 7.57601 17.9661 7.55521 18.1587 7.57959C18.3513 7.60398 18.5355 7.67288 18.6969 7.78083C18.8582 7.88878 18.9922 8.03282 19.0881 8.20154C19.1841 8.37025 19.2395 8.55901 19.2499 8.75284V13.7528L20.4999 14.3778L21.7499 13.7528V8.75284C21.7507 8.55366 21.7991 8.35755 21.891 8.18085C21.9829 8.00416 22.1158 7.85199 22.2784 7.73703C22.4411 7.62207 22.6289 7.54764 22.8261 7.51995C23.0234 7.49226 23.2244 7.51211 23.4124 7.57784C24.88 8.0983 26.1821 9.00098 27.1844 10.1927C28.1866 11.3844 28.8527 12.822 29.1139 14.3571C29.375 15.8922 29.2218 17.4692 28.67 18.9253C28.1182 20.3814 27.1878 21.6639 25.9749 22.6403C25.8292 22.7554 25.711 22.9015 25.6288 23.068C25.5467 23.2345 25.5026 23.4172 25.4999 23.6028V31.2528C25.4999 31.5844 25.3682 31.9023 25.1338 32.1367C24.8994 32.3711 24.5814 32.5028 24.2499 32.5028ZM17.9999 30.0028H22.9999V23.6028C23.0029 23.0427 23.1313 22.4903 23.3757 21.9863C23.6202 21.4823 23.9744 21.0395 24.4124 20.6903C25.1557 20.0938 25.7528 19.3352 26.1579 18.4726C26.563 17.6099 26.7655 16.666 26.7498 15.713C26.7341 14.7601 26.5007 13.8234 26.0674 12.9745C25.6341 12.1256 25.0124 11.3871 24.2499 10.8153V14.5653C24.2492 14.7962 24.1846 15.0223 24.0633 15.2187C23.9419 15.415 23.7685 15.574 23.5624 15.6778L21.0624 16.9278C20.8879 17.0158 20.6953 17.0616 20.4999 17.0616C20.3045 17.0616 20.1119 17.0158 19.9374 16.9278L17.4374 15.6778C17.2313 15.574 17.0579 15.415 16.9366 15.2187C16.8152 15.0223 16.7506 14.7962 16.7499 14.5653V10.8153C15.9874 11.3871 15.3657 12.1256 14.9324 12.9745C14.4991 13.8234 14.2657 14.7601 14.25 15.713C14.2344 16.666 14.4368 17.6099 14.8419 18.4726C15.2471 19.3352 15.8441 20.0938 16.5874 20.6903C17.0254 21.0395 17.3797 21.4823 17.6241 21.9863C17.8685 22.4903 17.9969 23.0427 17.9999 23.6028V30.0028Z" fill="#100FA8"/>
<path d="M35.5 27.5C35.8315 27.5 36.1495 27.3683 36.3839 27.1339C36.6183 26.8995 36.75 26.5815 36.75 26.25V5C36.75 3.67392 36.2232 2.40215 35.2855 1.46447C34.3479 0.526784 33.0761 0 31.75 0L9.25 0C7.92392 0 6.65215 0.526784 5.71447 1.46447C4.77678 2.40215 4.25 3.67392 4.25 5V35C4.25 36.3261 4.77678 37.5979 5.71447 38.5355C6.65215 39.4732 7.92392 40 9.25 40H35.5C35.8315 40 36.1495 39.8683 36.3839 39.6339C36.6183 39.3995 36.75 39.0815 36.75 38.75V31.25C36.75 30.9185 36.6183 30.6005 36.3839 30.3661C36.1495 30.1317 35.8315 30 35.5 30H9.25C8.3688 30.0037 7.50499 30.2456 6.75 30.7V5C6.75 4.33696 7.01339 3.70107 7.48223 3.23223C7.95107 2.76339 8.58696 2.5 9.25 2.5H31.75C32.413 2.5 33.0489 2.76339 33.5178 3.23223C33.9866 3.70107 34.25 4.33696 34.25 5V26.25C34.25 26.5815 34.3817 26.8995 34.6161 27.1339C34.8505 27.3683 35.1685 27.5 35.5 27.5ZM9.25 32.5H34.25V37.5H9.25C8.58696 37.5 7.95107 37.2366 7.48223 36.7678C7.01339 36.2989 6.75 35.663 6.75 35C6.75 34.337 7.01339 33.7011 7.48223 33.2322C7.95107 32.7634 8.58696 32.5 9.25 32.5V32.5Z" fill="#000033"/>
</g>
<defs>
<clipPath id="clip0_4343_16541">
<rect width="40" height="40" fill="white" transform="translate(0.5)"/>
</clipPath>
</defs>
</svg>
