<svg width="40" height="40" viewBox="0 0 40 40" fill="none" xmlns="http://www.w3.org/2000/svg">
<g clip-path="url(#clip0_5284_29416)">
<rect width="40" height="40" fill="white"/>
<path d="M8.75 35C8.50277 35 8.2611 34.9267 8.05554 34.7893C7.84998 34.652 7.68976 34.4568 7.59515 34.2284C7.50054 33.9999 7.47579 33.7486 7.52402 33.5061C7.57225 33.2637 7.6913 33.0409 7.86612 32.8661C8.04093 32.6913 8.26366 32.5723 8.50614 32.524C8.74861 32.4758 8.99995 32.5005 9.22836 32.5952C9.45676 32.6898 9.65199 32.85 9.78934 33.0555C9.92669 33.2611 10 33.5028 10 33.75C10 34.0815 9.8683 34.3995 9.63388 34.6339C9.39946 34.8683 9.08152 35 8.75 35Z" fill="#05058C"/>
<path d="M31.25 20C31.0028 20 30.7611 19.9267 30.5555 19.7893C30.35 19.652 30.1898 19.4568 30.0952 19.2284C30.0005 18.9999 29.9758 18.7486 30.024 18.5061C30.0723 18.2637 30.1913 18.0409 30.3661 17.8661C30.5409 17.6913 30.7637 17.5723 31.0061 17.524C31.2486 17.4758 31.4999 17.5005 31.7284 17.5952C31.9568 17.6898 32.152 17.85 32.2893 18.0555C32.4267 18.2611 32.5 18.5028 32.5 18.75C32.5 19.0815 32.3683 19.3995 32.1339 19.6339C31.8995 19.8683 31.5815 20 31.25 20Z" fill="#05058C"/>
<path d="M28.75 36.25H21.25C20.9185 36.25 20.6005 36.1183 20.3661 35.8839C20.1317 35.6495 20 35.3315 20 35C20 34.6685 20.1317 34.3505 20.3661 34.1161C20.6005 33.8817 20.9185 33.75 21.25 33.75H28.75C29.0815 33.75 29.3995 33.6183 29.6339 33.3839C29.8683 33.1495 30 32.8315 30 32.5V28.75C30 28.4185 30.1317 28.1005 30.3661 27.8661C30.6005 27.6317 30.9185 27.5 31.25 27.5C31.5815 27.5 31.8995 27.6317 32.1339 27.8661C32.3683 28.1005 32.5 28.4185 32.5 28.75V32.5C32.5 33.4946 32.1049 34.4484 31.4017 35.1517C30.6984 35.8549 29.7446 36.25 28.75 36.25Z" fill="#05058C"/>
<path d="M13.75 15H3.75C2.75544 15 1.80161 15.3951 1.09835 16.0983C0.395088 16.8016 0 17.7554 0 18.75L0 36.25C0 37.2446 0.395088 38.1984 1.09835 38.9017C1.80161 39.6049 2.75544 40 3.75 40H13.75C14.7446 40 15.6984 39.6049 16.4017 38.9017C17.1049 38.1984 17.5 37.2446 17.5 36.25V18.75C17.5 17.7554 17.1049 16.8016 16.4017 16.0983C15.6984 15.3951 14.7446 15 13.75 15ZM15 36.25C15 36.5815 14.8683 36.8995 14.6339 37.1339C14.3995 37.3683 14.0815 37.5 13.75 37.5H3.75C3.41848 37.5 3.10054 37.3683 2.86612 37.1339C2.6317 36.8995 2.5 36.5815 2.5 36.25V18.75C2.5 18.4185 2.6317 18.1005 2.86612 17.8661C3.10054 17.6317 3.41848 17.5 3.75 17.5H5C5 17.8315 5.1317 18.1495 5.36612 18.3839C5.60054 18.6183 5.91848 18.75 6.25 18.75H11.25C11.5815 18.75 11.8995 18.6183 12.1339 18.3839C12.3683 18.1495 12.5 17.8315 12.5 17.5H13.75C14.0815 17.5 14.3995 17.6317 14.6339 17.8661C14.8683 18.1005 15 18.4185 15 18.75V36.25Z" fill="#000033"/>
<path d="M38.75 11.25C39.0815 11.25 39.3995 11.1183 39.6339 10.8839C39.8683 10.6495 40 10.3315 40 10V3.75C40 2.75544 39.6049 1.80161 38.9017 1.09835C38.1984 0.395088 37.2446 0 36.25 0L26.25 0C25.2554 0 24.3016 0.395088 23.5983 1.09835C22.8951 1.80161 22.5 2.75544 22.5 3.75V21.25C22.5 22.2446 22.8951 23.1984 23.5983 23.9017C24.3016 24.6049 25.2554 25 26.25 25H36.25C37.2446 25 38.1984 24.6049 38.9017 23.9017C39.6049 23.1984 40 22.2446 40 21.25V15C40 14.6685 39.8683 14.3505 39.6339 14.1161C39.3995 13.8817 39.0815 13.75 38.75 13.75C38.4185 13.75 38.1005 13.8817 37.8661 14.1161C37.6317 14.3505 37.5 14.6685 37.5 15V21.25C37.5 21.5815 37.3683 21.8995 37.1339 22.1339C36.8995 22.3683 36.5815 22.5 36.25 22.5H26.25C25.9185 22.5 25.6005 22.3683 25.3661 22.1339C25.1317 21.8995 25 21.5815 25 21.25V3.75C25 3.41848 25.1317 3.10054 25.3661 2.86612C25.6005 2.6317 25.9185 2.5 26.25 2.5H27.5C27.5 2.83152 27.6317 3.14946 27.8661 3.38388C28.1005 3.6183 28.4185 3.75 28.75 3.75H33.75C34.0815 3.75 34.3995 3.6183 34.6339 3.38388C34.8683 3.14946 35 2.83152 35 2.5H36.25C36.5815 2.5 36.8995 2.6317 37.1339 2.86612C37.3683 3.10054 37.5 3.41848 37.5 3.75V10C37.5 10.3315 37.6317 10.6495 37.8661 10.8839C38.1005 11.1183 38.4185 11.25 38.75 11.25Z" fill="#000033"/>
</g>
<defs>
<clipPath id="clip0_5284_29416">
<rect width="40" height="40" fill="white"/>
</clipPath>
</defs>
</svg>
