<svg width="40" height="40" viewBox="0 0 40 40" fill="none" xmlns="http://www.w3.org/2000/svg">
<g clip-path="url(#clip0_5284_29195)">
<rect width="40" height="40" fill="white"/>
<path d="M38.75 2.5H21.25V1.25C21.25 0.918479 21.1183 0.600537 20.8839 0.366117C20.6495 0.131696 20.3315 0 20 0C19.6685 0 19.3505 0.131696 19.1161 0.366117C18.8817 0.600537 18.75 0.918479 18.75 1.25V2.5H1.25C0.918479 2.5 0.600537 2.6317 0.366117 2.86612C0.131696 3.10054 0 3.41848 0 3.75C0 4.08152 0.131696 4.39946 0.366117 4.63388C0.600537 4.8683 0.918479 5 1.25 5H2.5V21.25C2.5 21.5815 2.6317 21.8995 2.86612 22.1339C3.10054 22.3683 3.41848 22.5 3.75 22.5C4.08152 22.5 4.39946 22.3683 4.63388 22.1339C4.8683 21.8995 5 21.5815 5 21.25V5H35V21.25C35 21.5815 35.1317 21.8995 35.3661 22.1339C35.6005 22.3683 35.9185 22.5 36.25 22.5C36.5815 22.5 36.8995 22.3683 37.1339 22.1339C37.3683 21.8995 37.5 21.5815 37.5 21.25V5H38.75C39.0815 5 39.3995 4.8683 39.6339 4.63388C39.8683 4.39946 40 4.08152 40 3.75C40 3.41848 39.8683 3.10054 39.6339 2.86612C39.3995 2.6317 39.0815 2.5 38.75 2.5Z" fill="#000033"/>
<path d="M29.8995 9.525C29.8057 9.29673 29.6464 9.10132 29.4418 8.9634C29.2371 8.82548 28.9962 8.75123 28.7495 8.75H24.9995C24.6679 8.75 24.35 8.8817 24.1156 9.11612C23.8812 9.35054 23.7495 9.66848 23.7495 10C23.7495 10.3315 23.8812 10.6495 24.1156 10.8839C24.35 11.1183 24.6679 11.25 24.9995 11.25H25.737L21.2495 15.7375L18.387 12.8625C18.2708 12.7453 18.1325 12.6523 17.9802 12.5889C17.8279 12.5254 17.6645 12.4928 17.4995 12.4928C17.3344 12.4928 17.1711 12.5254 17.0187 12.5889C16.8664 12.6523 16.7282 12.7453 16.612 12.8625L10.362 19.1125C10.1857 19.2873 10.0654 19.5107 10.0166 19.7541C9.96777 19.9976 9.99254 20.25 10.0877 20.4794C10.183 20.7087 10.3443 20.9044 10.5512 21.0417C10.7581 21.1789 11.0012 21.2514 11.2495 21.25C11.414 21.251 11.577 21.2194 11.7293 21.1572C11.8816 21.095 12.0202 21.0034 12.137 20.8875L17.4995 15.5125L20.362 18.3875C20.4782 18.5047 20.6164 18.5977 20.7687 18.6611C20.9211 18.7246 21.0844 18.7572 21.2495 18.7572C21.4145 18.7572 21.5779 18.7246 21.7302 18.6611C21.8825 18.5977 22.0208 18.5047 22.137 18.3875L27.4995 13.0125V13.75C27.4995 14.0815 27.6312 14.3995 27.8656 14.6339C28.1 14.8683 28.4179 15 28.7495 15C29.081 15 29.3989 14.8683 29.6333 14.6339C29.8678 14.3995 29.9995 14.0815 29.9995 13.75C29.9995 9.7375 29.9995 9.85 29.8995 9.525Z" fill="#05058C"/>
<path d="M36.75 31.337C37.2193 30.5798 37.4778 29.7108 37.4986 28.8202C37.5195 27.9295 37.302 27.0494 36.8686 26.271C36.4352 25.4926 35.8018 24.8441 35.0337 24.3926C34.2657 23.9412 33.3909 23.7031 32.5 23.7031C31.6091 23.7031 30.7343 23.9412 29.9663 24.3926C29.1982 24.8441 28.5648 25.4926 28.1314 26.271C27.698 27.0494 27.4805 27.9295 27.5014 28.8202C27.5222 29.7108 27.7807 30.5798 28.25 31.337C27.4614 31.8745 26.7825 32.5576 26.25 33.3495C25.7317 32.546 25.0503 31.8604 24.25 31.337C24.7193 30.5798 24.9778 29.7108 24.9986 28.8202C25.0195 27.9295 24.802 27.0494 24.3686 26.271C23.9352 25.4926 23.3018 24.8441 22.5337 24.3926C21.7657 23.9412 20.8909 23.7031 20 23.7031C19.1091 23.7031 18.2343 23.9412 17.4663 24.3926C16.6982 24.8441 16.0648 25.4926 15.6314 26.271C15.198 27.0494 14.9805 27.9295 15.0014 28.8202C15.0222 29.7108 15.2807 30.5798 15.75 31.337C14.9614 31.8745 14.2825 32.5576 13.75 33.3495C13.2317 32.546 12.5503 31.8604 11.75 31.337C12.2193 30.5798 12.4778 29.7108 12.4986 28.8202C12.5195 27.9295 12.302 27.0494 11.8686 26.271C11.4353 25.4926 10.8018 24.8441 10.0337 24.3926C9.26565 23.9412 8.39092 23.7031 7.5 23.7031C6.60908 23.7031 5.73435 23.9412 4.96629 24.3926C4.19823 24.8441 3.56475 25.4926 3.13139 26.271C2.69802 27.0494 2.48052 27.9295 2.50137 28.8202C2.52222 29.7108 2.78068 30.5798 3.25 31.337C2.25015 32.0247 1.43209 32.9447 0.866015 34.018C0.299943 35.0914 0.00276949 36.2861 0 37.4995L0 38.7495C0 39.0811 0.131696 39.399 0.366117 39.6334C0.600537 39.8678 0.918479 39.9995 1.25 39.9995H38.75C39.0815 39.9995 39.3995 39.8678 39.6339 39.6334C39.8683 39.399 40 39.0811 40 38.7495V37.4995C40.0059 36.2845 39.7124 35.0867 39.1456 34.0119C38.5788 32.9371 37.756 32.0185 36.75 31.337ZM32.5 26.2495C32.9945 26.2495 33.4778 26.3962 33.8889 26.6709C34.3 26.9456 34.6205 27.336 34.8097 27.7928C34.9989 28.2496 35.0484 28.7523 34.952 29.2373C34.8555 29.7222 34.6174 30.1677 34.2678 30.5173C33.9181 30.8669 33.4727 31.105 32.9877 31.2015C32.5028 31.298 32.0001 31.2485 31.5433 31.0592C31.0865 30.87 30.696 30.5496 30.4213 30.1385C30.1466 29.7273 30 29.244 30 28.7495C30 28.0865 30.2634 27.4506 30.7322 26.9818C31.2011 26.5129 31.837 26.2495 32.5 26.2495ZM20 26.2495C20.4945 26.2495 20.9778 26.3962 21.3889 26.6709C21.8 26.9456 22.1205 27.336 22.3097 27.7928C22.4989 28.2496 22.5484 28.7523 22.452 29.2373C22.3555 29.7222 22.1174 30.1677 21.7678 30.5173C21.4181 30.8669 20.9727 31.105 20.4877 31.2015C20.0028 31.298 19.5001 31.2485 19.0433 31.0592C18.5865 30.87 18.196 30.5496 17.9213 30.1385C17.6466 29.7273 17.5 29.244 17.5 28.7495C17.5 28.0865 17.7634 27.4506 18.2322 26.9818C18.7011 26.5129 19.337 26.2495 20 26.2495ZM7.5 26.2495C7.99445 26.2495 8.4778 26.3962 8.88893 26.6709C9.30005 26.9456 9.62048 27.336 9.8097 27.7928C9.99892 28.2496 10.0484 28.7523 9.95196 29.2373C9.8555 29.7222 9.6174 30.1677 9.26777 30.5173C8.91814 30.8669 8.47268 31.105 7.98773 31.2015C7.50277 31.298 7.00011 31.2485 6.54329 31.0592C6.08648 30.87 5.69603 30.5496 5.42133 30.1385C5.14662 29.7273 5 29.244 5 28.7495C5 28.0865 5.26339 27.4506 5.73223 26.9818C6.20107 26.5129 6.83696 26.2495 7.5 26.2495ZM5.1125 33.112C5.83772 33.5264 6.65851 33.7443 7.49375 33.7443C8.32899 33.7443 9.14978 33.5264 9.875 33.112C10.674 33.5308 11.3419 34.1621 11.8051 34.9363C12.2683 35.7104 12.5087 36.5974 12.5 37.4995H2.5C2.50102 36.6009 2.74418 35.7192 3.20392 34.9471C3.66365 34.175 4.32296 33.5411 5.1125 33.112ZM17.6125 33.112C18.3377 33.5264 19.1585 33.7443 19.9937 33.7443C20.829 33.7443 21.6498 33.5264 22.375 33.112C23.174 33.5308 23.8419 34.1621 24.3051 34.9363C24.7683 35.7104 25.0087 36.5974 25 37.4995H15C15.001 36.6009 15.2442 35.7192 15.7039 34.9471C16.1637 34.175 16.823 33.5411 17.6125 33.112ZM27.5 37.4995C27.501 36.6009 27.7442 35.7192 28.2039 34.9471C28.6637 34.175 29.323 33.5411 30.1125 33.112C30.8377 33.5264 31.6585 33.7443 32.4938 33.7443C33.329 33.7443 34.1498 33.5264 34.875 33.112C35.674 33.5308 36.3419 34.1621 36.8051 34.9363C37.2683 35.7104 37.5087 36.5974 37.5 37.4995H27.5Z" fill="#000033"/>
</g>
<defs>
<clipPath id="clip0_5284_29195">
<rect width="40" height="40" fill="white"/>
</clipPath>
</defs>
</svg>
