<svg width="40" height="40" viewBox="0 0 40 40" fill="none" xmlns="http://www.w3.org/2000/svg">
<g clip-path="url(#clip0_5284_29184)">
<rect width="40" height="40" fill="white"/>
<path d="M27.9002 21.8878C27.6576 21.8896 27.4197 21.8209 27.2155 21.6898C27.0114 21.5588 26.8497 21.3712 26.7503 21.1499C26.651 20.9286 26.6181 20.6832 26.6558 20.4435C26.6935 20.2039 26.8002 19.9804 26.9627 19.8003L33.6627 12.3003C33.8817 12.0519 34.1903 11.9006 34.5207 11.8795C34.8511 11.8584 35.1764 11.9693 35.4252 12.1878C35.55 12.2964 35.652 12.4287 35.7254 12.577C35.7987 12.7253 35.8418 12.8867 35.8523 13.0518C35.8627 13.2169 35.8403 13.3824 35.7863 13.5388C35.7323 13.6952 35.6478 13.8393 35.5377 13.9628L28.8377 21.4628C28.7206 21.5961 28.5764 21.703 28.4147 21.7763C28.2531 21.8495 28.0777 21.8876 27.9002 21.8878Z" fill="#000033"/>
<path d="M38.75 40H16.25C15.9185 40 15.6005 39.8683 15.3661 39.6339C15.1317 39.3995 15 39.0815 15 38.75C15 38.4185 15.1317 38.1005 15.3661 37.8661C15.6005 37.6317 15.9185 37.5 16.25 37.5H38.75C39.0815 37.5 39.3995 37.6317 39.6339 37.8661C39.8683 38.1005 40 38.4185 40 38.75C40 39.0815 39.8683 39.3995 39.6339 39.6339C39.3995 39.8683 39.0815 40 38.75 40Z" fill="#05058C"/>
<path d="M11.25 40H3.75C2.75544 40 1.80161 39.6049 1.09835 38.9016C0.395088 38.1984 0 37.2446 0 36.25L0 1.25C0 0.918479 0.131696 0.600537 0.366117 0.366117C0.600537 0.131696 0.918479 0 1.25 0C1.58152 0 1.89946 0.131696 2.13388 0.366117C2.3683 0.600537 2.5 0.918479 2.5 1.25V36.25C2.5 36.5815 2.6317 36.8995 2.86612 37.1339C3.10054 37.3683 3.41848 37.5 3.75 37.5H11.25C11.5815 37.5 11.8995 37.6317 12.1339 37.8661C12.3683 38.1005 12.5 38.4185 12.5 38.75C12.5 39.0815 12.3683 39.3995 12.1339 39.6339C11.8995 39.8683 11.5815 40 11.25 40Z" fill="#000033"/>
<path d="M10.3871 24.3751C10.1469 24.3748 9.91182 24.3053 9.71008 24.1749C9.50834 24.0445 9.34845 23.8587 9.24954 23.6398C9.15063 23.4209 9.1169 23.1781 9.15238 22.9405C9.18786 22.7029 9.29105 22.4806 9.44959 22.3001L14.9246 16.0501C15.1477 15.8178 15.4519 15.6806 15.7737 15.6671C16.0955 15.6536 16.4101 15.7648 16.6519 15.9776C16.8937 16.1904 17.044 16.4883 17.0715 16.8092C17.099 17.1301 17.0016 17.4493 16.7996 17.7001L11.3246 23.9501C11.2075 24.0834 11.0633 24.1903 10.9016 24.2636C10.74 24.3369 10.5646 24.3749 10.3871 24.3751Z" fill="#000033"/>
<path d="M24.3618 22.1251C23.7368 22.1251 23.8993 22.1251 18.5743 17.5751C18.3223 17.3596 18.1663 17.0528 18.1405 16.7223C18.1147 16.3918 18.2213 16.0645 18.4368 15.8126C18.6523 15.5606 18.959 15.4046 19.2896 15.3788C19.6201 15.353 19.9473 15.4596 20.1993 15.6751L25.1993 19.9251C25.3952 20.0925 25.5346 20.3164 25.5983 20.5661C25.6621 20.8159 25.6471 21.0792 25.5554 21.32C25.4637 21.5609 25.2998 21.7675 25.0861 21.9117C24.8725 22.0558 24.6195 22.1303 24.3618 22.1251Z" fill="#000033"/>
<path d="M8.75 28.75C8.00832 28.75 7.2833 28.5301 6.66661 28.118C6.04993 27.706 5.56928 27.1203 5.28545 26.4351C5.00162 25.7498 4.92736 24.9958 5.07206 24.2684C5.21675 23.541 5.5739 22.8728 6.09835 22.3484C6.6228 21.8239 7.29098 21.4668 8.01841 21.3221C8.74584 21.1774 9.49984 21.2516 10.1851 21.5355C10.8703 21.8193 11.456 22.2999 11.868 22.9166C12.2801 23.5333 12.5 24.2583 12.5 25C12.5 25.9946 12.1049 26.9484 11.4017 27.6517C10.6984 28.3549 9.74456 28.75 8.75 28.75ZM8.75 23.75C8.50277 23.75 8.2611 23.8233 8.05554 23.9607C7.84998 24.098 7.68976 24.2932 7.59515 24.5216C7.50054 24.7501 7.47579 25.0014 7.52402 25.2439C7.57225 25.4863 7.6913 25.7091 7.86612 25.8839C8.04093 26.0587 8.26366 26.1778 8.50614 26.226C8.74861 26.2742 8.99995 26.2495 9.22836 26.1549C9.45676 26.0602 9.65199 25.9 9.78934 25.6945C9.92669 25.4889 10 25.2472 10 25C10 24.6685 9.86831 24.3505 9.63388 24.1161C9.39946 23.8817 9.08152 23.75 8.75 23.75Z" fill="#05058C"/>
<path d="M17.5 18.75C16.7583 18.75 16.0333 18.5301 15.4166 18.118C14.7999 17.706 14.3193 17.1203 14.0355 16.4351C13.7516 15.7498 13.6774 14.9958 13.8221 14.2684C13.9668 13.541 14.3239 12.8728 14.8484 12.3484C15.3728 11.8239 16.041 11.4668 16.7684 11.3221C17.4958 11.1774 18.2498 11.2516 18.9351 11.5355C19.6203 11.8193 20.206 12.2999 20.618 12.9166C21.0301 13.5333 21.25 14.2583 21.25 15C21.25 15.9946 20.8549 16.9484 20.1517 17.6517C19.4484 18.3549 18.4946 18.75 17.5 18.75ZM17.5 13.75C17.2528 13.75 17.0111 13.8233 16.8055 13.9607C16.6 14.098 16.4398 14.2932 16.3452 14.5216C16.2505 14.7501 16.2258 15.0014 16.274 15.2439C16.3223 15.4863 16.4413 15.7091 16.6161 15.8839C16.7909 16.0587 17.0137 16.1778 17.2561 16.226C17.4986 16.2742 17.7499 16.2495 17.9784 16.1549C18.2068 16.0602 18.402 15.9 18.5393 15.6945C18.6767 15.4889 18.75 15.2472 18.75 15C18.75 14.6685 18.6183 14.3505 18.3839 14.1161C18.1495 13.8817 17.8315 13.75 17.5 13.75Z" fill="#05058C"/>
<path d="M26.25 26.25C25.5083 26.25 24.7833 26.0301 24.1666 25.618C23.5499 25.206 23.0693 24.6203 22.7855 23.9351C22.5016 23.2498 22.4274 22.4958 22.5721 21.7684C22.7168 21.041 23.0739 20.3728 23.5984 19.8484C24.1228 19.3239 24.791 18.9668 25.5184 18.8221C26.2458 18.6774 26.9998 18.7516 27.6851 19.0355C28.3703 19.3193 28.956 19.7999 29.368 20.4166C29.7801 21.0333 30 21.7583 30 22.5C30 23.4946 29.6049 24.4484 28.9017 25.1517C28.1984 25.8549 27.2446 26.25 26.25 26.25ZM26.25 21.25C26.0028 21.25 25.7611 21.3233 25.5555 21.4607C25.35 21.598 25.1898 21.7932 25.0952 22.0216C25.0005 22.2501 24.9758 22.5014 25.024 22.7439C25.0723 22.9863 25.1913 23.2091 25.3661 23.3839C25.5409 23.5587 25.7637 23.6778 26.0061 23.726C26.2486 23.7742 26.4999 23.7495 26.7284 23.6549C26.9568 23.5602 27.152 23.4 27.2893 23.1945C27.4267 22.9889 27.5 22.7472 27.5 22.5C27.5 22.1685 27.3683 21.8505 27.1339 21.6161C26.8995 21.3817 26.5815 21.25 26.25 21.25Z" fill="#05058C"/>
<path d="M36.25 15C35.5083 15 34.7833 14.7801 34.1666 14.368C33.5499 13.956 33.0693 13.3703 32.7855 12.6851C32.5016 11.9998 32.4274 11.2458 32.5721 10.5184C32.7168 9.79098 33.0739 9.1228 33.5984 8.59835C34.1228 8.0739 34.791 7.71675 35.5184 7.57206C36.2458 7.42736 36.9998 7.50162 37.6851 7.78545C38.3703 8.06928 38.956 8.54993 39.368 9.16661C39.7801 9.7833 40 10.5083 40 11.25C40 12.2446 39.6049 13.1984 38.9017 13.9017C38.1984 14.6049 37.2446 15 36.25 15ZM36.25 10C36.0028 10 35.7611 10.0733 35.5555 10.2107C35.35 10.348 35.1898 10.5432 35.0952 10.7716C35.0005 11.0001 34.9758 11.2514 35.024 11.4939C35.0723 11.7363 35.1913 11.9591 35.3661 12.1339C35.5409 12.3087 35.7637 12.4278 36.0061 12.476C36.2486 12.5242 36.4999 12.4995 36.7284 12.4049C36.9568 12.3102 37.152 12.15 37.2893 11.9445C37.4267 11.7389 37.5 11.4972 37.5 11.25C37.5 10.9185 37.3683 10.6005 37.1339 10.3661C36.8995 10.1317 36.5815 10 36.25 10Z" fill="#05058C"/>
</g>
<defs>
<clipPath id="clip0_5284_29184">
<rect width="40" height="40" fill="white"/>
</clipPath>
</defs>
</svg>
