<svg width="40" height="40" viewBox="0 0 40 40" fill="none" xmlns="http://www.w3.org/2000/svg">
<g clip-path="url(#clip0_5284_29176)">
<rect width="40" height="40" fill="white"/>
<path d="M38.75 18.75H32.5C32.1685 18.75 31.8505 18.8817 31.6161 19.1161C31.3817 19.3505 31.25 19.6685 31.25 20C31.25 20.663 30.9866 21.2989 30.5178 21.7678C30.0489 22.2366 29.413 22.5 28.75 22.5C28.087 22.5 27.4511 22.2366 26.9822 21.7678C26.5134 21.2989 26.25 20.663 26.25 20C26.25 19.6685 26.1183 19.3505 25.8839 19.1161C25.6495 18.8817 25.3315 18.75 25 18.75H21.25V16.0875C22.32 15.8078 23.2671 15.1813 23.943 14.306C24.619 13.4307 24.9856 12.3559 24.9856 11.25C24.9856 10.1441 24.619 9.06933 23.943 8.194C23.2671 7.31868 22.32 6.69216 21.25 6.4125V2.5C21.25 2.16848 21.1183 1.85054 20.8839 1.61612C20.6495 1.3817 20.3315 1.25 20 1.25H3.75C2.75544 1.25 1.80161 1.64509 1.09835 2.34835C0.395088 3.05161 0 4.00544 0 5L0 35C0 35.9946 0.395088 36.9484 1.09835 37.6516C1.80161 38.3549 2.75544 38.75 3.75 38.75H7.5C7.83152 38.75 8.14946 38.6183 8.38388 38.3839C8.6183 38.1495 8.75 37.8315 8.75 37.5C8.75 37.1685 8.6183 36.8505 8.38388 36.6161C8.14946 36.3817 7.83152 36.25 7.5 36.25H3.75C3.41848 36.25 3.10054 36.1183 2.86612 35.8839C2.6317 35.6495 2.5 35.3315 2.5 35V21.25H7.5C7.83152 21.25 8.14946 21.1183 8.38388 20.8839C8.6183 20.6495 8.75 20.3315 8.75 20C8.75 19.337 9.01339 18.7011 9.48223 18.2322C9.95107 17.7634 10.587 17.5 11.25 17.5C11.913 17.5 12.5489 17.7634 13.0178 18.2322C13.4866 18.7011 13.75 19.337 13.75 20C13.75 20.3315 13.8817 20.6495 14.1161 20.8839C14.3505 21.1183 14.6685 21.25 15 21.25H18.75V23.9125C17.68 24.1922 16.7329 24.8187 16.057 25.694C15.381 26.5693 15.0144 27.6441 15.0144 28.75C15.0144 29.8559 15.381 30.9307 16.057 31.806C16.7329 32.6813 17.68 33.3078 18.75 33.5875V36.25H12.5C12.1685 36.25 11.8505 36.3817 11.6161 36.6161C11.3817 36.8505 11.25 37.1685 11.25 37.5C11.25 37.8315 11.3817 38.1495 11.6161 38.3839C11.8505 38.6183 12.1685 38.75 12.5 38.75H36.25C37.2446 38.75 38.1984 38.3549 38.9016 37.6516C39.6049 36.9484 40 35.9946 40 35V20C40 19.6685 39.8683 19.3505 39.6339 19.1161C39.3995 18.8817 39.0815 18.75 38.75 18.75ZM16.0875 18.75C15.8078 17.68 15.1813 16.7329 14.306 16.057C13.4307 15.381 12.3559 15.0144 11.25 15.0144C10.1441 15.0144 9.06933 15.381 8.194 16.057C7.31868 16.7329 6.69216 17.68 6.4125 18.75H2.5V5C2.5 4.66848 2.6317 4.35054 2.86612 4.11612C3.10054 3.8817 3.41848 3.75 3.75 3.75H18.75V7.5C18.75 7.83152 18.8817 8.14946 19.1161 8.38388C19.3505 8.6183 19.6685 8.75 20 8.75C20.663 8.75 21.2989 9.01339 21.7678 9.48223C22.2366 9.95107 22.5 10.587 22.5 11.25C22.5 11.913 22.2366 12.5489 21.7678 13.0178C21.2989 13.4866 20.663 13.75 20 13.75C19.6685 13.75 19.3505 13.8817 19.1161 14.1161C18.8817 14.3505 18.75 14.6685 18.75 15V18.75H16.0875ZM37.5 35C37.5 35.3315 37.3683 35.6495 37.1339 35.8839C36.8995 36.1183 36.5815 36.25 36.25 36.25H21.25V32.5C21.25 32.1685 21.1183 31.8505 20.8839 31.6161C20.6495 31.3817 20.3315 31.25 20 31.25C19.337 31.25 18.7011 30.9866 18.2322 30.5178C17.7634 30.0489 17.5 29.413 17.5 28.75C17.5 28.087 17.7634 27.4511 18.2322 26.9822C18.7011 26.5134 19.337 26.25 20 26.25C20.3315 26.25 20.6495 26.1183 20.8839 25.8839C21.1183 25.6495 21.25 25.3315 21.25 25V21.25H23.9125C24.1922 22.32 24.8187 23.2671 25.694 23.943C26.5693 24.619 27.6441 24.9856 28.75 24.9856C29.8559 24.9856 30.9307 24.619 31.806 23.943C32.6813 23.2671 33.3078 22.32 33.5875 21.25H37.5V35Z" fill="#000033"/>
<path d="M28.75 25C27.6422 24.9992 26.566 24.6304 25.6904 23.9517C24.8148 23.273 24.1895 22.3227 23.9125 21.25H20C19.6685 21.25 19.3505 21.1183 19.1161 20.8839C18.8817 20.6495 18.75 20.3315 18.75 20V15C18.75 14.6685 18.8817 14.3505 19.1161 14.1161C19.3505 13.8817 19.6685 13.75 20 13.75C20.663 13.75 21.2989 13.4866 21.7678 13.0178C22.2366 12.5489 22.5 11.913 22.5 11.25C22.5 10.587 22.2366 9.95107 21.7678 9.48223C21.2989 9.01339 20.663 8.75 20 8.75C19.6685 8.75 19.3505 8.6183 19.1161 8.38388C18.8817 8.14946 18.75 7.83152 18.75 7.5V2.5C18.75 2.16848 18.8817 1.85054 19.1161 1.61612C19.3505 1.3817 19.6685 1.25 20 1.25H36.25C37.2446 1.25 38.1984 1.64509 38.9017 2.34835C39.6049 3.05161 40 4.00544 40 5V20C40 20.3315 39.8683 20.6495 39.6339 20.8839C39.3995 21.1183 39.0815 21.25 38.75 21.25H33.5875C33.3105 22.3227 32.6852 23.273 31.8096 23.9517C30.934 24.6304 29.8578 24.9992 28.75 25ZM21.25 18.75H25C25.3315 18.75 25.6495 18.8817 25.8839 19.1161C26.1183 19.3505 26.25 19.6685 26.25 20C26.25 20.663 26.5134 21.2989 26.9822 21.7678C27.4511 22.2366 28.087 22.5 28.75 22.5C29.413 22.5 30.0489 22.2366 30.5178 21.7678C30.9866 21.2989 31.25 20.663 31.25 20C31.25 19.6685 31.3817 19.3505 31.6161 19.1161C31.8505 18.8817 32.1685 18.75 32.5 18.75H37.5V5C37.5 4.66848 37.3683 4.35054 37.1339 4.11612C36.8995 3.8817 36.5815 3.75 36.25 3.75H21.25V6.4125C22.32 6.69216 23.2671 7.31868 23.943 8.194C24.619 9.06933 24.9856 10.1441 24.9856 11.25C24.9856 12.3559 24.619 13.4307 23.943 14.306C23.2671 15.1813 22.32 15.8078 21.25 16.0875V18.75Z" fill="#05058C"/>
</g>
<defs>
<clipPath id="clip0_5284_29176">
<rect width="40" height="40" fill="white"/>
</clipPath>
</defs>
</svg>
