<svg width="40" height="40" viewBox="0 0 40 40" fill="none" xmlns="http://www.w3.org/2000/svg">
<g clip-path="url(#clip0_5284_29180)">
<rect width="40" height="40" fill="white"/>
<path d="M38.75 37.5H37.5V33.75C37.5 33.4185 37.3683 33.1005 37.1339 32.8661C36.8995 32.6317 36.5815 32.5 36.25 32.5C35.9185 32.5 35.6005 32.6317 35.3661 32.8661C35.1317 33.1005 35 33.4185 35 33.75V37.5H30V17.5H35V28.75C35 29.0815 35.1317 29.3995 35.3661 29.6339C35.6005 29.8683 35.9185 30 36.25 30C36.5815 30 36.8995 29.8683 37.1339 29.6339C37.3683 29.3995 37.5 29.0815 37.5 28.75V17.5C37.5 16.837 37.2366 16.2011 36.7678 15.7322C36.2989 15.2634 35.663 15 35 15H30C29.337 15 28.7011 15.2634 28.2322 15.7322C27.7634 16.2011 27.5 16.837 27.5 17.5V37.5H25V22.5C25 21.837 24.7366 21.2011 24.2678 20.7322C23.7989 20.2634 23.163 20 22.5 20H17.5C16.837 20 16.2011 20.2634 15.7322 20.7322C15.2634 21.2011 15 21.837 15 22.5V37.5H12.5V30C12.5 29.337 12.2366 28.7011 11.7678 28.2322C11.2989 27.7634 10.663 27.5 10 27.5H5C4.33696 27.5 3.70107 27.7634 3.23223 28.2322C2.76339 28.7011 2.5 29.337 2.5 30V37.5H1.25C0.918479 37.5 0.600537 37.6317 0.366117 37.8661C0.131696 38.1005 0 38.4185 0 38.75C0 39.0815 0.131696 39.3995 0.366117 39.6339C0.600537 39.8683 0.918479 40 1.25 40H38.75C39.0815 40 39.3995 39.8683 39.6339 39.6339C39.8683 39.3995 40 39.0815 40 38.75C40 38.4185 39.8683 38.1005 39.6339 37.8661C39.3995 37.6317 39.0815 37.5 38.75 37.5ZM5 37.5V30H10V37.5H5ZM17.5 37.5V22.5H22.5V37.5H17.5Z" fill="#000033"/>
<path d="M14.2501 7.58704C14.7194 6.82976 14.9779 5.96083 14.9987 5.07016C15.0196 4.17949 14.8021 3.29942 14.3687 2.521C13.9353 1.74259 13.3019 1.0941 12.5338 0.642637C11.7657 0.191172 10.891 -0.046875 10.0001 -0.046875C9.10917 -0.046875 8.23443 0.191172 7.46637 0.642637C6.69832 1.0941 6.06484 1.74259 5.63147 2.521C5.19811 3.29942 4.9806 4.17949 5.00146 5.07016C5.02231 5.96083 5.28077 6.82976 5.75009 7.58704C4.74406 8.26845 3.9213 9.18711 3.35449 10.2619C2.78767 11.3367 2.49423 12.5345 2.50009 13.7495C2.50009 14.0811 2.63178 14.399 2.8662 14.6334C3.10062 14.8678 3.41857 14.9995 3.75009 14.9995H16.2501C16.5816 14.9995 16.8995 14.8678 17.134 14.6334C17.3684 14.399 17.5001 14.0811 17.5001 13.7495C17.5048 12.5347 17.2109 11.3373 16.6442 10.2627C16.0775 9.18807 15.2553 8.26925 14.2501 7.58704ZM10.0001 2.49954C10.4945 2.49954 10.9779 2.64616 11.389 2.92086C11.8001 3.19557 12.1206 3.58601 12.3098 4.04283C12.499 4.49965 12.5485 5.00231 12.452 5.48726C12.3556 5.97222 12.1175 6.41767 11.7679 6.76731C11.4182 7.11694 10.9728 7.35504 10.4878 7.4515C10.0029 7.54797 9.50019 7.49846 9.04338 7.30924C8.58656 7.12002 8.19612 6.79959 7.92141 6.38846C7.64671 5.97734 7.50009 5.49399 7.50009 4.99954C7.50009 4.3365 7.76348 3.70061 8.23232 3.23177C8.70116 2.76293 9.33704 2.49954 10.0001 2.49954ZM5.15009 12.4995C5.31744 11.8295 5.62742 11.2034 6.05888 10.6641C6.49033 10.1248 7.03309 9.6849 7.65009 9.37454C8.37498 9.78306 9.193 9.99768 10.0251 9.99768C10.8572 9.99768 11.6752 9.78306 12.4001 9.37454C13.0186 9.68285 13.5625 10.1221 13.9943 10.6617C14.426 11.2013 14.7351 11.8285 14.9001 12.4995H5.15009Z" fill="#05058C"/>
</g>
<defs>
<clipPath id="clip0_5284_29180">
<rect width="40" height="40" fill="white"/>
</clipPath>
</defs>
</svg>
