<svg width="40" height="40" viewBox="0 0 40 40" fill="none" xmlns="http://www.w3.org/2000/svg">
<g clip-path="url(#clip0_5281_28933)">
<rect width="40" height="40" fill="white"/>
<path d="M12.5 17.5001H27.5C27.8315 17.5001 28.1495 17.3684 28.3839 17.134C28.6183 16.8996 28.75 16.5817 28.75 16.2501C28.7513 14.5932 28.2821 12.9699 27.3969 11.5691C26.5118 10.1684 25.2471 9.04778 23.75 8.33764C24.4015 7.62087 24.8308 6.73029 24.9857 5.77414C25.1406 4.81799 25.0144 3.83743 24.6225 2.95164C24.2306 2.06584 23.5898 1.31295 22.7781 0.784451C21.9664 0.255954 21.0186 -0.0253906 20.05 -0.0253906C19.0814 -0.0253906 18.1336 0.255954 17.3219 0.784451C16.5102 1.31295 15.8694 2.06584 15.4775 2.95164C15.0856 3.83743 14.9595 4.81799 15.1143 5.77414C15.2692 6.73029 15.6985 7.62087 16.35 8.33764C14.8342 9.03334 13.5488 10.1478 12.6453 11.5496C11.7417 12.9515 11.2576 14.5823 11.25 16.2501C11.25 16.5817 11.3817 16.8996 11.6161 17.134C11.8505 17.3684 12.1685 17.5001 12.5 17.5001ZM17.5 5.00014C17.5 4.50569 17.6466 4.02234 17.9213 3.61122C18.196 3.20009 18.5865 2.87966 19.0433 2.69044C19.5001 2.50123 20.0028 2.45172 20.4877 2.54818C20.9727 2.64464 21.4181 2.88275 21.7678 3.23238C22.1174 3.58201 22.3555 4.02746 22.452 4.51242C22.5484 4.99737 22.4989 5.50004 22.3097 5.95685C22.1205 6.41367 21.8001 6.80411 21.3889 7.07882C20.9778 7.35352 20.4945 7.50014 20 7.50014C19.337 7.50014 18.7011 7.23675 18.2322 6.76791C17.7634 6.29907 17.5 5.66318 17.5 5.00014ZM20 10.0001C21.4408 9.99985 22.8375 10.4974 23.9536 11.4085C25.0698 12.3196 25.8368 13.5884 26.125 15.0001H13.875C14.1632 13.5884 14.9302 12.3196 16.0464 11.4085C17.1625 10.4974 18.5592 9.99985 20 10.0001Z" fill="#000033"/>
<path d="M12.5 30.8376C13.1515 30.1209 13.5808 29.2303 13.7357 28.2741C13.8905 27.318 13.7644 26.3374 13.3725 25.4516C12.9806 24.5658 12.3398 23.8129 11.5281 23.2845C10.7164 22.756 9.76861 22.4746 8.8 22.4746C7.83139 22.4746 6.88362 22.756 6.07189 23.2845C5.26016 23.8129 4.61941 24.5658 4.22752 25.4516C3.83562 26.3374 3.70945 27.318 3.86434 28.2741C4.01923 29.2303 4.4485 30.1209 5.1 30.8376C3.58421 31.5333 2.29883 32.6478 1.39527 34.0496C0.491703 35.4515 0.00760522 37.0823 0 38.7501C0 39.0817 0.131696 39.3996 0.366117 39.634C0.600537 39.8685 0.918479 40.0001 1.25 40.0001H11.25C11.5815 40.0001 11.8995 39.8685 12.1339 39.634C12.3683 39.3996 12.5 39.0817 12.5 38.7501C12.5 38.4186 12.3683 38.1007 12.1339 37.8663C11.8995 37.6318 11.5815 37.5001 11.25 37.5001H2.625C2.93343 35.9812 3.79525 34.631 5.04316 33.7118C6.29107 32.7925 7.83603 32.3697 9.37812 32.5255C10.9202 32.6813 12.3494 33.4045 13.3883 34.5547C14.4271 35.705 15.0016 37.2002 15 38.7501C15 39.0817 15.1317 39.3996 15.3661 39.634C15.6005 39.8685 15.9185 40.0001 16.25 40.0001C16.5815 40.0001 16.8995 39.8685 17.1339 39.634C17.3683 39.3996 17.5 39.0817 17.5 38.7501C17.5013 37.0932 17.0321 35.4699 16.1469 34.0691C15.2618 32.6684 13.9971 31.5478 12.5 30.8376ZM6.25 27.5001C6.25 27.0057 6.39662 26.5223 6.67133 26.1112C6.94603 25.7001 7.33648 25.3797 7.79329 25.1904C8.25011 25.0012 8.75277 24.9517 9.23773 25.0482C9.72268 25.1446 10.1681 25.3827 10.5178 25.7324C10.8674 26.082 11.1055 26.5275 11.202 27.0124C11.2984 27.4974 11.2489 28 11.0597 28.4569C10.8705 28.9137 10.55 29.3041 10.1389 29.5788C9.7278 29.8535 9.24445 30.0001 8.75 30.0001C8.08696 30.0001 7.45107 29.7368 6.98223 29.2679C6.51339 28.7991 6.25 28.1632 6.25 27.5001Z" fill="#05058C"/>
<path d="M35 30.8376C35.6515 30.1209 36.0808 29.2303 36.2357 28.2741C36.3906 27.318 36.2644 26.3374 35.8725 25.4516C35.4806 24.5658 34.8398 23.8129 34.0281 23.2845C33.2164 22.756 32.2686 22.4746 31.3 22.4746C30.3314 22.4746 29.3836 22.756 28.5719 23.2845C27.7602 23.8129 27.1194 24.5658 26.7275 25.4516C26.3356 26.3374 26.2095 27.318 26.3643 28.2741C26.5192 29.2303 26.9485 30.1209 27.6 30.8376C26.0842 31.5333 24.7988 32.6478 23.8953 34.0496C22.9917 35.4515 22.5076 37.0823 22.5 38.7501C22.5 39.0817 22.6317 39.3996 22.8661 39.634C23.1005 39.8685 23.4185 40.0001 23.75 40.0001H38.75C39.0815 40.0001 39.3995 39.8685 39.6339 39.634C39.8683 39.3996 40 39.0817 40 38.7501C40.0013 37.0932 39.5321 35.4699 38.6469 34.0691C37.7618 32.6684 36.4971 31.5478 35 30.8376ZM28.75 27.5001C28.75 27.0057 28.8966 26.5223 29.1713 26.1112C29.446 25.7001 29.8365 25.3797 30.2933 25.1904C30.7501 25.0012 31.2528 24.9517 31.7377 25.0482C32.2227 25.1446 32.6681 25.3827 33.0178 25.7324C33.3674 26.082 33.6055 26.5275 33.702 27.0124C33.7984 27.4974 33.7489 28 33.5597 28.4569C33.3705 28.9137 33.0501 29.3041 32.6389 29.5788C32.2278 29.8535 31.7445 30.0001 31.25 30.0001C30.587 30.0001 29.9511 29.7368 29.4822 29.2679C29.0134 28.7991 28.75 28.1632 28.75 27.5001ZM25.125 37.5001C25.4119 36.0873 26.1784 34.8171 27.2947 33.9047C28.4109 32.9923 29.8083 32.4939 31.25 32.4939C32.6917 32.4939 34.0891 32.9923 35.2053 33.9047C36.3216 34.8171 37.0881 36.0873 37.375 37.5001H25.125Z" fill="#000033"/>
<path d="M17.4995 28.75C17.2512 28.7514 17.0081 28.6789 16.8012 28.5417C16.5943 28.4044 16.433 28.2087 16.3377 27.9794C16.2425 27.75 16.2178 27.4976 16.2666 27.2541C16.3154 27.0107 16.4357 26.7873 16.612 26.6125L18.7495 24.4875V21.25C18.7495 20.9185 18.8812 20.6005 19.1156 20.3661C19.35 20.1317 19.6679 20 19.9995 20C20.331 20 20.6489 20.1317 20.8833 20.3661C21.1178 20.6005 21.2495 20.9185 21.2495 21.25C21.2495 25.325 21.362 25.4 20.887 25.8875C18.162 28.6125 18.1745 28.75 17.4995 28.75Z" fill="#05058C"/>
<path d="M22.4993 28.7493C21.8243 28.7493 21.7868 28.5618 19.1118 25.8868C18.8764 25.6514 18.7441 25.3321 18.7441 24.9993C18.7441 24.6664 18.8764 24.3471 19.1118 24.1118C19.3471 23.8764 19.6664 23.7441 19.9993 23.7441C20.3321 23.7441 20.6514 23.8764 20.8868 24.1118L23.3868 26.6118C23.563 26.7866 23.6833 27.01 23.7321 27.2534C23.7809 27.4968 23.7562 27.7493 23.661 27.9786C23.5658 28.2079 23.4044 28.4037 23.1975 28.5409C22.9906 28.6782 22.7475 28.7507 22.4993 28.7493Z" fill="#05058C"/>
</g>
<defs>
<clipPath id="clip0_5281_28933">
<rect width="40" height="40" fill="white"/>
</clipPath>
</defs>
</svg>
