<svg width="40" height="40" viewBox="0 0 40 40" fill="none" xmlns="http://www.w3.org/2000/svg">
<g clip-path="url(#clip0_5284_29382)">
<rect width="40" height="40" transform="matrix(-1 0 0 1 40 0)" fill="white"/>
<path d="M1.25 32.5H36.25V11.25C36.25 10.9185 36.1183 10.6005 35.8839 10.3661C35.6495 10.1317 35.3315 10 35 10H33.75V26.25C33.75 27.2446 33.3549 28.1984 32.6517 28.9017C31.9484 29.6049 30.9946 30 30 30H10C9.00544 30 8.05161 29.6049 7.34835 28.9017C6.64509 28.1984 6.25 27.2446 6.25 26.25V10H5C4.66848 10 4.35054 10.1317 4.11612 10.3661C3.88169 10.6005 3.75 10.9185 3.75 11.25V28.75C3.75 29.0815 3.61831 29.3995 3.38388 29.6339C3.14946 29.8683 2.83152 30 2.5 30C2.16848 30 1.85054 29.8683 1.61612 29.6339C1.38169 29.3995 1.25 29.0815 1.25 28.75V11.25C1.25 10.2554 1.64509 9.30161 2.34835 8.59835C3.05161 7.89509 4.00544 7.5 5 7.5H6.25V3.75C6.25 2.75544 6.64509 1.80161 7.34835 1.09835C8.05161 0.395088 9.00544 0 10 0L30 0C30.9946 0 31.9484 0.395088 32.6517 1.09835C33.3549 1.80161 33.75 2.75544 33.75 3.75V7.5H35C35.9946 7.5 36.9484 7.89509 37.6517 8.59835C38.3549 9.30161 38.75 10.2554 38.75 11.25V32.5C39.0815 32.5 39.3995 32.6317 39.6339 32.8661C39.8683 33.1005 40 33.4185 40 33.75V36.25C40 37.2446 39.6049 38.1984 38.9017 38.9016C38.1984 39.6049 37.2446 40 36.25 40H3.75C2.75544 40 1.80161 39.6049 1.09835 38.9016C0.395088 38.1984 0 37.2446 0 36.25V33.75C0 33.4185 0.131695 33.1005 0.366116 32.8661C0.600536 32.6317 0.91848 32.5 1.25 32.5ZM8.75 26.25C8.75 26.5815 8.88169 26.8995 9.11612 27.1339C9.35054 27.3683 9.66848 27.5 10 27.5H30C30.3315 27.5 30.6495 27.3683 30.8839 27.1339C31.1183 26.8995 31.25 26.5815 31.25 26.25V7.5H8.75V26.25ZM30 2.5H10C9.66848 2.5 9.35054 2.6317 9.11612 2.86612C8.88169 3.10054 8.75 3.41848 8.75 3.75V5H31.25V3.75C31.25 3.41848 31.1183 3.10054 30.8839 2.86612C30.6495 2.6317 30.3315 2.5 30 2.5ZM2.5 36.25C2.5 36.5815 2.63169 36.8995 2.86612 37.1339C3.10054 37.3683 3.41848 37.5 3.75 37.5H36.25C36.5815 37.5 36.8995 37.3683 37.1339 37.1339C37.3683 36.8995 37.5 36.5815 37.5 36.25V35H2.5V36.25Z" fill="#000033"/>
<path d="M13.75 24.9992H26.25C26.5815 24.9992 26.8995 24.8675 27.1339 24.6331C27.3683 24.3986 27.5 24.0807 27.5 23.7492C27.5015 22.2471 27.0518 20.7792 26.2094 19.5355C25.3669 18.2919 24.1705 17.3299 22.775 16.7742C22.4667 16.6515 22.1223 16.6563 21.8175 16.7876C21.5128 16.9189 21.2727 17.1659 21.15 17.4742C21.0273 17.7825 21.0322 18.1269 21.1634 18.4316C21.2947 18.7364 21.5417 18.9765 21.85 19.0992C22.5803 19.391 23.2314 19.851 23.7505 20.4418C24.2696 21.0325 24.642 21.7374 24.8375 22.4992H15.1625C15.358 21.7374 15.7304 21.0325 16.2495 20.4418C16.7686 19.851 17.4197 19.391 18.15 19.0992C18.4583 18.9765 18.7053 18.7364 18.8365 18.4316C18.9678 18.1269 18.9727 17.7825 18.85 17.4742C18.7273 17.1659 18.4872 16.9189 18.1825 16.7876C17.8777 16.6563 17.5333 16.6515 17.225 16.7742C15.8295 17.3299 14.6331 18.2919 13.7906 19.5355C12.9482 20.7792 12.4985 22.2471 12.5 23.7492C12.5 24.0807 12.6317 24.3986 12.8661 24.6331C13.1005 24.8675 13.4185 24.9992 13.75 24.9992Z" fill="#05058C"/>
<path d="M20 20C20.9889 20 21.9556 19.7068 22.7778 19.1574C23.6001 18.6079 24.241 17.8271 24.6194 16.9134C24.9978 15.9998 25.0969 14.9945 24.9039 14.0246C24.711 13.0546 24.2348 12.1637 23.5355 11.4645C22.8363 10.7652 21.9454 10.289 20.9754 10.0961C20.0055 9.90315 19.0002 10.0022 18.0866 10.3806C17.173 10.759 16.3921 11.3999 15.8426 12.2222C15.2932 13.0444 15 14.0111 15 15C15 16.3261 15.5268 17.5979 16.4645 18.5355C17.4021 19.4732 18.6739 20 20 20ZM20 12.5C20.4945 12.5 20.9778 12.6466 21.3889 12.9213C21.8 13.196 22.1205 13.5865 22.3097 14.0433C22.4989 14.5001 22.5484 15.0028 22.452 15.4877C22.3555 15.9727 22.1174 16.4181 21.7678 16.7678C21.4181 17.1174 20.9727 17.3555 20.4877 17.452C20.0028 17.5484 19.5001 17.4989 19.0433 17.3097C18.5865 17.1205 18.196 16.8001 17.9213 16.3889C17.6466 15.9778 17.5 15.4945 17.5 15C17.5 14.337 17.7634 13.7011 18.2322 13.2322C18.7011 12.7634 19.337 12.5 20 12.5Z" fill="#05058C"/>
</g>
<defs>
<clipPath id="clip0_5284_29382">
<rect width="40" height="40" fill="white" transform="matrix(-1 0 0 1 40 0)"/>
</clipPath>
</defs>
</svg>
