<svg width="40" height="40" viewBox="0 0 40 40" fill="none" xmlns="http://www.w3.org/2000/svg">
<g clip-path="url(#clip0_5281_28947)">
<rect width="40" height="40" fill="white"/>
<path d="M38.75 21.25H1.25C0.918479 21.25 0.600537 21.1183 0.366117 20.8839C0.131696 20.6495 0 20.3315 0 20C0 19.6685 0.131696 19.3505 0.366117 19.1161C0.600537 18.8817 0.918479 18.75 1.25 18.75H38.75C39.0815 18.75 39.3995 18.8817 39.6339 19.1161C39.8683 19.3505 40 19.6685 40 20C40 20.3315 39.8683 20.6495 39.6339 20.8839C39.3995 21.1183 39.0815 21.25 38.75 21.25Z" fill="#000033"/>
<path d="M27.5 38.75C24.8478 38.75 22.3043 37.6964 20.4289 35.8211C18.5536 33.9457 17.5 31.4022 17.5 28.75V11.25C17.5 9.26088 16.7098 7.35322 15.3033 5.9467C13.8968 4.54018 11.9891 3.75 10 3.75C8.01088 3.75 6.10322 4.54018 4.6967 5.9467C3.29018 7.35322 2.5 9.26088 2.5 11.25V20C2.5 20.3315 2.3683 20.6495 2.13388 20.8839C1.89946 21.1183 1.58152 21.25 1.25 21.25C0.918479 21.25 0.600537 21.1183 0.366117 20.8839C0.131696 20.6495 0 20.3315 0 20V11.25C0 8.59784 1.05357 6.0543 2.92893 4.17893C4.8043 2.30357 7.34784 1.25 10 1.25C12.6522 1.25 15.1957 2.30357 17.0711 4.17893C18.9464 6.0543 20 8.59784 20 11.25V28.75C20 30.7391 20.7902 32.6468 22.1967 34.0533C23.6032 35.4598 25.5109 36.25 27.5 36.25C29.4891 36.25 31.3968 35.4598 32.8033 34.0533C34.2098 32.6468 35 30.7391 35 28.75V16.25C35 15.9185 35.1317 15.6005 35.3661 15.3661C35.6005 15.1317 35.9185 15 36.25 15C36.5815 15 36.8995 15.1317 37.1339 15.3661C37.3683 15.6005 37.5 15.9185 37.5 16.25V28.75C37.5 31.4022 36.4464 33.9457 34.5711 35.8211C32.6957 37.6964 30.1522 38.75 27.5 38.75Z" fill="#05058C"/>
<path d="M1.25 40C0.918479 40 0.600537 39.8683 0.366117 39.6339C0.131696 39.3995 0 39.0815 0 38.75V35C0 34.6685 0.131696 34.3505 0.366117 34.1161C0.600537 33.8817 0.918479 33.75 1.25 33.75C1.58152 33.75 1.89946 33.8817 2.13388 34.1161C2.3683 34.3505 2.5 34.6685 2.5 35V38.75C2.5 39.0815 2.3683 39.3995 2.13388 39.6339C1.89946 39.8683 1.58152 40 1.25 40Z" fill="#000033"/>
<path d="M1.25 31.25C0.918479 31.25 0.600537 31.1183 0.366117 30.8839C0.131696 30.6495 0 30.3315 0 30V1.25C0 0.918479 0.131696 0.600537 0.366117 0.366117C0.600537 0.131696 0.918479 0 1.25 0C1.58152 0 1.89946 0.131696 2.13388 0.366117C2.3683 0.600537 2.5 0.918479 2.5 1.25V30C2.5 30.3315 2.3683 30.6495 2.13388 30.8839C1.89946 31.1183 1.58152 31.25 1.25 31.25Z" fill="#000033"/>
<path d="M10 10C9.66848 10 9.35054 9.8683 9.11612 9.63388C8.8817 9.39946 8.75 9.08152 8.75 8.75V7.5C8.75 7.16848 8.8817 6.85054 9.11612 6.61612C9.35054 6.3817 9.66848 6.25 10 6.25C10.3315 6.25 10.6495 6.3817 10.8839 6.61612C11.1183 6.85054 11.25 7.16848 11.25 7.5V8.75C11.25 9.08152 11.1183 9.39946 10.8839 9.63388C10.6495 9.8683 10.3315 10 10 10Z" fill="#000033"/>
<path d="M10 16.25C9.66848 16.25 9.35054 16.1183 9.11612 15.8839C8.8817 15.6495 8.75 15.3315 8.75 15V13.75C8.75 13.4185 8.8817 13.1005 9.11612 12.8661C9.35054 12.6317 9.66848 12.5 10 12.5C10.3315 12.5 10.6495 12.6317 10.8839 12.8661C11.1183 13.1005 11.25 13.4185 11.25 13.75V15C11.25 15.3315 11.1183 15.6495 10.8839 15.8839C10.6495 16.1183 10.3315 16.25 10 16.25Z" fill="#000033"/>
<path d="M27.5 27.5C27.1685 27.5 26.8505 27.3683 26.6161 27.1339C26.3817 26.8995 26.25 26.5815 26.25 26.25V25C26.25 24.6685 26.3817 24.3505 26.6161 24.1161C26.8505 23.8817 27.1685 23.75 27.5 23.75C27.8315 23.75 28.1495 23.8817 28.3839 24.1161C28.6183 24.3505 28.75 24.6685 28.75 25V26.25C28.75 26.5815 28.6183 26.8995 28.3839 27.1339C28.1495 27.3683 27.8315 27.5 27.5 27.5Z" fill="#000033"/>
<path d="M27.5 33.75C27.1685 33.75 26.8505 33.6183 26.6161 33.3839C26.3817 33.1495 26.25 32.8315 26.25 32.5V31.25C26.25 30.9185 26.3817 30.6005 26.6161 30.3661C26.8505 30.1317 27.1685 30 27.5 30C27.8315 30 28.1495 30.1317 28.3839 30.3661C28.6183 30.6005 28.75 30.9185 28.75 31.25V32.5C28.75 32.8315 28.6183 33.1495 28.3839 33.3839C28.1495 33.6183 27.8315 33.75 27.5 33.75Z" fill="#000033"/>
</g>
<defs>
<clipPath id="clip0_5281_28947">
<rect width="40" height="40" fill="white"/>
</clipPath>
</defs>
</svg>
