<svg width="40" height="40" viewBox="0 0 40 40" fill="none" xmlns="http://www.w3.org/2000/svg">
<rect width="40" height="40" fill="white"/>
<path d="M38.6127 23.1873L35.0002 15.9248C34.9169 11.7873 33.2582 7.83754 30.3624 4.88115C27.4667 1.92476 23.5521 0.184556 19.4172 0.015526C15.2824 -0.153504 11.2388 1.26138 8.11142 3.97155C4.98403 6.68171 3.00845 10.4829 2.5877 14.5998C2.1857 18.3439 3.11505 22.11 5.2127 25.2373C6.70332 27.4872 7.49886 30.126 7.5002 32.8248V38.7498C7.5002 39.0813 7.6319 39.3993 7.86632 39.6337C8.10074 39.8681 8.41868 39.9998 8.7502 39.9998C9.08172 39.9998 9.39966 39.8681 9.63409 39.6337C9.86851 39.3993 10.0002 39.0813 10.0002 38.7498V32.8248C10.0032 29.6347 9.05918 26.5154 7.2877 23.8623C5.41715 21.0781 4.6288 17.7062 5.07107 14.3813C5.51333 11.0564 7.1557 8.00778 9.68901 5.80937C12.2223 3.61096 15.4719 2.41437 18.8259 2.44484C22.18 2.47531 25.4072 3.73074 27.9002 5.97481C32.9627 10.4873 32.3127 16.0873 32.6252 16.7748C32.7752 17.0998 32.1002 15.7498 35.9127 23.3748L31.7502 26.4998C31.595 26.6162 31.469 26.7672 31.3822 26.9408C31.2954 27.1144 31.2502 27.3058 31.2502 27.4998V31.2498C31.2502 31.5813 31.1185 31.8993 30.8841 32.1337C30.6497 32.3681 30.3317 32.4998 30.0002 32.4998H22.5002C22.1687 32.4998 21.8507 32.6315 21.6163 32.8659C21.3819 33.1003 21.2502 33.4183 21.2502 33.7498C21.2502 34.0813 21.3819 34.3993 21.6163 34.6337C21.8507 34.8681 22.1687 34.9998 22.5002 34.9998H23.7502V38.7498C23.7502 39.0813 23.8819 39.3993 24.1163 39.6337C24.3507 39.8681 24.6687 39.9998 25.0002 39.9998C25.3317 39.9998 25.6497 39.8681 25.8841 39.6337C26.1185 39.3993 26.2502 39.0813 26.2502 38.7498V34.9998H30.0002C30.9948 34.9998 31.9486 34.6047 32.6519 33.9015C33.3551 33.1982 33.7502 32.2444 33.7502 31.2498V28.1248L38.2502 24.7498C38.4843 24.5732 38.6489 24.32 38.7151 24.0344C38.7814 23.7487 38.7451 23.4489 38.6127 23.1873Z" fill="#000033"/>
<path d="M26.1626 12.0628C25.9501 11.4753 26.1626 11.7128 19.3876 7.67528C19.1976 7.56557 18.982 7.50781 18.7626 7.50781C18.5432 7.50781 18.3276 7.56557 18.1376 7.67528C11.4001 11.7253 11.6376 11.4253 11.4001 11.9753C11.1626 12.5253 11.2501 11.8503 11.2501 20.0003C11.2502 20.2172 11.3067 20.4304 11.414 20.6189C11.5214 20.8074 11.676 20.9646 11.8626 21.0753C18.2126 24.8878 17.9751 24.7503 18.2126 24.8253C18.3776 24.915 18.5624 24.962 18.7501 24.962C18.9379 24.962 19.1227 24.915 19.2876 24.8253C19.5251 24.7128 19.2876 24.8878 25.6376 21.0753C25.8242 20.9646 25.9788 20.8074 26.0862 20.6189C26.1936 20.4304 26.2501 20.2172 26.2501 20.0003C26.2501 11.8378 26.2501 12.4003 26.1626 12.0628ZM18.7501 10.2128L22.5751 12.5003L18.7501 14.7878L14.9251 12.5003L18.7501 10.2128ZM13.7501 14.7128L17.5001 16.9628V21.5378L13.7501 19.2878V14.7128ZM20.0001 21.5378V16.9628L23.7501 14.7128V19.2878L20.0001 21.5378Z" fill="#05058C"/>
</svg>
