<svg width="40" height="40" viewBox="0 0 40 40" fill="none" xmlns="http://www.w3.org/2000/svg">
<g clip-path="url(#clip0_5281_28939)">
<rect width="40" height="40" transform="matrix(-1 0 0 1 40 0)" fill="white"/>
<path d="M32.5 13.75C32.7472 13.75 32.9889 13.6767 33.1945 13.5393C33.4 13.402 33.5602 13.2068 33.6548 12.9784C33.7495 12.7499 33.7742 12.4986 33.726 12.2561C33.6777 12.0137 33.5587 11.7909 33.3839 11.6161C33.2091 11.4413 32.9863 11.3223 32.7439 11.274C32.5014 11.2258 32.2501 11.2505 32.0216 11.3452C31.7932 11.4398 31.598 11.6 31.4607 11.8055C31.3233 12.0111 31.25 12.2528 31.25 12.5C31.25 12.8315 31.3817 13.1495 31.6161 13.3839C31.8505 13.6183 32.1685 13.75 32.5 13.75Z" fill="#05058C"/>
<path d="M26.25 13.75C26.4972 13.75 26.7389 13.6767 26.9445 13.5393C27.15 13.402 27.3102 13.2068 27.4048 12.9784C27.4995 12.7499 27.5242 12.4986 27.476 12.2561C27.4277 12.0137 27.3087 11.7909 27.1339 11.6161C26.9591 11.4413 26.7363 11.3223 26.4939 11.274C26.2514 11.2258 26.0001 11.2505 25.7716 11.3452C25.5432 11.4398 25.348 11.6 25.2107 11.8055C25.0733 12.0111 25 12.2528 25 12.5C25 12.8315 25.1317 13.1495 25.3661 13.3839C25.6005 13.6183 25.9185 13.75 26.25 13.75Z" fill="#05058C"/>
<path d="M20 13.75C20.2472 13.75 20.4889 13.6767 20.6945 13.5393C20.9 13.402 21.0602 13.2068 21.1548 12.9784C21.2495 12.7499 21.2742 12.4986 21.226 12.2561C21.1777 12.0137 21.0587 11.7909 20.8839 11.6161C20.7091 11.4413 20.4863 11.3223 20.2439 11.274C20.0014 11.2258 19.7501 11.2505 19.5216 11.3452C19.2932 11.4398 19.098 11.6 18.9607 11.8055C18.8233 12.0111 18.75 12.2528 18.75 12.5C18.75 12.8315 18.8817 13.1495 19.1161 13.3839C19.3505 13.6183 19.6685 13.75 20 13.75Z" fill="#05058C"/>
<path d="M13.75 13.75C13.9972 13.75 14.2389 13.6767 14.4445 13.5393C14.65 13.402 14.8102 13.2068 14.9048 12.9784C14.9995 12.7499 15.0242 12.4986 14.976 12.2561C14.9277 12.0137 14.8087 11.7909 14.6339 11.6161C14.4591 11.4413 14.2363 11.3223 13.9939 11.274C13.7514 11.2258 13.5001 11.2505 13.2716 11.3452C13.0432 11.4398 12.848 11.6 12.7107 11.8055C12.5733 12.0111 12.5 12.2528 12.5 12.5C12.5 12.8315 12.6317 13.1495 12.8661 13.3839C13.1005 13.6183 13.4185 13.75 13.75 13.75Z" fill="#05058C"/>
<path d="M7.5 13.75C7.74723 13.75 7.9889 13.6767 8.19446 13.5393C8.40002 13.402 8.56024 13.2068 8.65485 12.9784C8.74946 12.7499 8.77421 12.4986 8.72598 12.2561C8.67775 12.0137 8.5587 11.7909 8.38388 11.6161C8.20907 11.4413 7.98634 11.3223 7.74386 11.274C7.50139 11.2258 7.25005 11.2505 7.02165 11.3452C6.79324 11.4398 6.59801 11.6 6.46066 11.8055C6.32331 12.0111 6.25 12.2528 6.25 12.5C6.25 12.8315 6.38169 13.1495 6.61612 13.3839C6.85054 13.6183 7.16848 13.75 7.5 13.75Z" fill="#05058C"/>
<path d="M3.75 3.75H36.25C37.2446 3.75 38.1984 4.14509 38.9017 4.84835C39.6049 5.55161 40 6.50544 40 7.5V17.5C40 18.4946 39.6049 19.4484 38.9017 20.1517C38.1984 20.8549 37.2446 21.25 36.25 21.25H31.25C30.9185 21.25 30.6005 21.1183 30.3661 20.8839C30.1317 20.6495 30 20.3315 30 20C30 19.6685 30.1317 19.3505 30.3661 19.1161C30.6005 18.8817 30.9185 18.75 31.25 18.75H36.25C36.5815 18.75 36.8995 18.6183 37.1339 18.3839C37.3683 18.1495 37.5 17.8315 37.5 17.5V7.5C37.5 7.16848 37.3683 6.85054 37.1339 6.61612C36.8995 6.3817 36.5815 6.25 36.25 6.25H3.75C3.41848 6.25 3.10054 6.3817 2.86612 6.61612C2.63169 6.85054 2.5 7.16848 2.5 7.5V17.5C2.5 17.8315 2.63169 18.1495 2.86612 18.3839C3.10054 18.6183 3.41848 18.75 3.75 18.75H13.525C14.6049 17.6272 15.9852 16.8391 17.5011 16.4798C19.0169 16.1205 20.6042 16.2053 22.0731 16.724C23.5421 17.2427 24.8306 18.1733 25.7848 19.4048C26.739 20.6362 27.3184 22.1164 27.4538 23.6683C27.5893 25.2203 27.275 26.7784 26.5486 28.1565C25.8221 29.5346 24.7143 30.6744 23.3574 31.4397C22.0005 32.205 20.4519 32.5634 18.8967 32.4722C17.3416 32.3809 15.8456 31.8438 14.5875 30.925L9.5875 35.925C9.35825 36.1334 9.0598 36.2492 8.75 36.25C8.50172 36.2514 8.25863 36.1789 8.05173 36.0417C7.84483 35.9044 7.68349 35.7087 7.58829 35.4794C7.49308 35.25 7.46831 34.9976 7.51715 34.7542C7.56599 34.5107 7.68621 34.2873 7.8625 34.1125L12.8625 29.1125C12.036 27.9973 11.511 26.6879 11.338 25.3107C11.165 23.9335 11.35 22.5349 11.875 21.25H3.75C2.75544 21.25 1.80161 20.8549 1.09835 20.1517C0.395088 19.4484 0 18.4946 0 17.5V7.5C0 6.50544 0.395088 5.55161 1.09835 4.84835C1.80161 4.14509 2.75544 3.75 3.75 3.75ZM25 24.375C25 23.2625 24.6701 22.1749 24.052 21.2499C23.4339 20.3249 22.5554 19.6039 21.5276 19.1782C20.4998 18.7524 19.3688 18.641 18.2776 18.8581C17.1865 19.0751 16.1842 19.6109 15.3975 20.3975C14.6109 21.1842 14.0751 22.1865 13.8581 23.2776C13.641 24.3688 13.7524 25.4998 14.1782 26.5276C14.6039 27.5554 15.3249 28.4339 16.2499 29.052C17.1749 29.6701 18.2625 30 19.375 30C20.8658 29.9967 22.2947 29.403 23.3488 28.3488C24.403 27.2947 24.9967 25.8658 25 24.375Z" fill="#000033"/>
</g>
<defs>
<clipPath id="clip0_5281_28939">
<rect width="40" height="40" fill="white" transform="matrix(-1 0 0 1 40 0)"/>
</clipPath>
</defs>
</svg>
