<svg width="40" height="40" viewBox="0 0 40 40" fill="none" xmlns="http://www.w3.org/2000/svg">
<g clip-path="url(#clip0_5284_29395)">
<rect width="40" height="40" fill="white"/>
<path d="M6.25 7.5H1.25C0.918479 7.5 0.600537 7.3683 0.366117 7.13388C0.131696 6.89946 0 6.58152 0 6.25V1.25C0 0.918479 0.131696 0.600537 0.366117 0.366117C0.600537 0.131696 0.918479 0 1.25 0L6.25 0C6.58152 0 6.89946 0.131696 7.13388 0.366117C7.3683 0.600537 7.5 0.918479 7.5 1.25V6.25C7.5 6.58152 7.3683 6.89946 7.13388 7.13388C6.89946 7.3683 6.58152 7.5 6.25 7.5ZM2.5 5H5V2.5H2.5V5Z" fill="#05058C"/>
<path d="M38.75 7.5H33.75C33.4185 7.5 33.1005 7.3683 32.8661 7.13388C32.6317 6.89946 32.5 6.58152 32.5 6.25V1.25C32.5 0.918479 32.6317 0.600537 32.8661 0.366117C33.1005 0.131696 33.4185 0 33.75 0L38.75 0C39.0815 0 39.3995 0.131696 39.6339 0.366117C39.8683 0.600537 40 0.918479 40 1.25V6.25C40 6.58152 39.8683 6.89946 39.6339 7.13388C39.3995 7.3683 39.0815 7.5 38.75 7.5ZM35 5H37.5V2.5H35V5Z" fill="#05058C"/>
<path d="M13.75 5H11.25C10.9185 5 10.6005 4.8683 10.3661 4.63388C10.1317 4.39946 10 4.08152 10 3.75C10 3.41848 10.1317 3.10054 10.3661 2.86612C10.6005 2.6317 10.9185 2.5 11.25 2.5H13.75C14.0815 2.5 14.3995 2.6317 14.6339 2.86612C14.8683 3.10054 15 3.41848 15 3.75C15 4.08152 14.8683 4.39946 14.6339 4.63388C14.3995 4.8683 14.0815 5 13.75 5Z" fill="#000033"/>
<path d="M28.75 5H26.25C25.9185 5 25.6005 4.8683 25.3661 4.63388C25.1317 4.39946 25 4.08152 25 3.75C25 3.41848 25.1317 3.10054 25.3661 2.86612C25.6005 2.6317 25.9185 2.5 26.25 2.5H28.75C29.0815 2.5 29.3995 2.6317 29.6339 2.86612C29.8683 3.10054 30 3.41848 30 3.75C30 4.08152 29.8683 4.39946 29.6339 4.63388C29.3995 4.8683 29.0815 5 28.75 5Z" fill="#000033"/>
<path d="M21.25 5H18.75C18.4185 5 18.1005 4.8683 17.8661 4.63388C17.6317 4.39946 17.5 4.08152 17.5 3.75C17.5 3.41848 17.6317 3.10054 17.8661 2.86612C18.1005 2.6317 18.4185 2.5 18.75 2.5H21.25C21.5815 2.5 21.8995 2.6317 22.1339 2.86612C22.3683 3.10054 22.5 3.41848 22.5 3.75C22.5 4.08152 22.3683 4.39946 22.1339 4.63388C21.8995 4.8683 21.5815 5 21.25 5Z" fill="#000033"/>
<path d="M38.75 41.25H33.75C33.4185 41.25 33.1005 41.1183 32.8661 40.8839C32.6317 40.6495 32.5 40.3315 32.5 40V35C32.5 34.6685 32.6317 34.3505 32.8661 34.1161C33.1005 33.8817 33.4185 33.75 33.75 33.75H38.75C39.0815 33.75 39.3995 33.8817 39.6339 34.1161C39.8683 34.3505 40 34.6685 40 35V40C40 40.3315 39.8683 40.6495 39.6339 40.8839C39.3995 41.1183 39.0815 41.25 38.75 41.25ZM35 38.75H37.5V36.25H35V38.75Z" fill="#05058C"/>
<path d="M13.75 38.75H11.25C10.9185 38.75 10.6005 38.6183 10.3661 38.3839C10.1317 38.1495 10 37.8315 10 37.5C10 37.1685 10.1317 36.8505 10.3661 36.6161C10.6005 36.3817 10.9185 36.25 11.25 36.25H13.75C14.0815 36.25 14.3995 36.3817 14.6339 36.6161C14.8683 36.8505 15 37.1685 15 37.5C15 37.8315 14.8683 38.1495 14.6339 38.3839C14.3995 38.6183 14.0815 38.75 13.75 38.75Z" fill="#000033"/>
<path d="M28.75 38.75H26.25C25.9185 38.75 25.6005 38.6183 25.3661 38.3839C25.1317 38.1495 25 37.8315 25 37.5C25 37.1685 25.1317 36.8505 25.3661 36.6161C25.6005 36.3817 25.9185 36.25 26.25 36.25H28.75C29.0815 36.25 29.3995 36.3817 29.6339 36.6161C29.8683 36.8505 30 37.1685 30 37.5C30 37.8315 29.8683 38.1495 29.6339 38.3839C29.3995 38.6183 29.0815 38.75 28.75 38.75Z" fill="#000033"/>
<path d="M21.25 38.75H18.75C18.4185 38.75 18.1005 38.6183 17.8661 38.3839C17.6317 38.1495 17.5 37.8315 17.5 37.5C17.5 37.1685 17.6317 36.8505 17.8661 36.6161C18.1005 36.3817 18.4185 36.25 18.75 36.25H21.25C21.5815 36.25 21.8995 36.3817 22.1339 36.6161C22.3683 36.8505 22.5 37.1685 22.5 37.5C22.5 37.8315 22.3683 38.1495 22.1339 38.3839C21.8995 38.6183 21.5815 38.75 21.25 38.75Z" fill="#000033"/>
<path d="M6.25 40H1.25C0.918479 40 0.600537 39.8683 0.366117 39.6339C0.131696 39.3995 0 39.0815 0 38.75V33.75C0 33.4185 0.131696 33.1005 0.366117 32.8661C0.600537 32.6317 0.918479 32.5 1.25 32.5H6.25C6.58152 32.5 6.89946 32.6317 7.13388 32.8661C7.3683 33.1005 7.5 33.4185 7.5 33.75V38.75C7.5 39.0815 7.3683 39.3995 7.13388 39.6339C6.89946 39.8683 6.58152 40 6.25 40ZM2.5 37.5H5V35H2.5V37.5Z" fill="#05058C"/>
<path d="M3.75 30C3.41848 30 3.10054 29.8683 2.86612 29.6339C2.6317 29.3995 2.5 29.0815 2.5 28.75V26.25C2.5 25.9185 2.6317 25.6005 2.86612 25.3661C3.10054 25.1317 3.41848 25 3.75 25C4.08152 25 4.39946 25.1317 4.63388 25.3661C4.8683 25.6005 5 25.9185 5 26.25V28.75C5 29.0815 4.8683 29.3995 4.63388 29.6339C4.39946 29.8683 4.08152 30 3.75 30Z" fill="#000033"/>
<path d="M3.75 15C3.41848 15 3.10054 14.8683 2.86612 14.6339C2.6317 14.3995 2.5 14.0815 2.5 13.75V11.25C2.5 10.9185 2.6317 10.6005 2.86612 10.3661C3.10054 10.1317 3.41848 10 3.75 10C4.08152 10 4.39946 10.1317 4.63388 10.3661C4.8683 10.6005 5 10.9185 5 11.25V13.75C5 14.0815 4.8683 14.3995 4.63388 14.6339C4.39946 14.8683 4.08152 15 3.75 15Z" fill="#000033"/>
<path d="M3.75 22.5C3.41848 22.5 3.10054 22.3683 2.86612 22.1339C2.6317 21.8995 2.5 21.5815 2.5 21.25V18.75C2.5 18.4185 2.6317 18.1005 2.86612 17.8661C3.10054 17.6317 3.41848 17.5 3.75 17.5C4.08152 17.5 4.39946 17.6317 4.63388 17.8661C4.8683 18.1005 5 18.4185 5 18.75V21.25C5 21.5815 4.8683 21.8995 4.63388 22.1339C4.39946 22.3683 4.08152 22.5 3.75 22.5Z" fill="#000033"/>
<path d="M36.25 30C35.9185 30 35.6005 29.8683 35.3661 29.6339C35.1317 29.3995 35 29.0815 35 28.75V26.25C35 25.9185 35.1317 25.6005 35.3661 25.3661C35.6005 25.1317 35.9185 25 36.25 25C36.5815 25 36.8995 25.1317 37.1339 25.3661C37.3683 25.6005 37.5 25.9185 37.5 26.25V28.75C37.5 29.0815 37.3683 29.3995 37.1339 29.6339C36.8995 29.8683 36.5815 30 36.25 30Z" fill="#000033"/>
<path d="M36.25 15C35.9185 15 35.6005 14.8683 35.3661 14.6339C35.1317 14.3995 35 14.0815 35 13.75V11.25C35 10.9185 35.1317 10.6005 35.3661 10.3661C35.6005 10.1317 35.9185 10 36.25 10C36.5815 10 36.8995 10.1317 37.1339 10.3661C37.3683 10.6005 37.5 10.9185 37.5 11.25V13.75C37.5 14.0815 37.3683 14.3995 37.1339 14.6339C36.8995 14.8683 36.5815 15 36.25 15Z" fill="#000033"/>
<path d="M36.25 22.5C35.9185 22.5 35.6005 22.3683 35.3661 22.1339C35.1317 21.8995 35 21.5815 35 21.25V18.75C35 18.4185 35.1317 18.1005 35.3661 17.8661C35.6005 17.6317 35.9185 17.5 36.25 17.5C36.5815 17.5 36.8995 17.6317 37.1339 17.8661C37.3683 18.1005 37.5 18.4185 37.5 18.75V21.25C37.5 21.5815 37.3683 21.8995 37.1339 22.1339C36.8995 22.3683 36.5815 22.5 36.25 22.5Z" fill="#000033"/>
<path d="M17.5 31.25H10C9.66848 31.25 9.35054 31.1183 9.11612 30.8839C8.8817 30.6495 8.75 30.3315 8.75 30V23.75C8.75 23.4185 8.8817 23.1005 9.11612 22.8661C9.35054 22.6317 9.66848 22.5 10 22.5H17.5C17.8315 22.5 18.1495 22.6317 18.3839 22.8661C18.6183 23.1005 18.75 23.4185 18.75 23.75V30C18.75 30.3315 18.6183 30.6495 18.3839 30.8839C18.1495 31.1183 17.8315 31.25 17.5 31.25ZM11.25 28.75H16.25V25H11.25V28.75Z" fill="#000033"/>
<path d="M30 31.25H22.5C22.1685 31.25 21.8505 31.1183 21.6161 30.8839C21.3817 30.6495 21.25 30.3315 21.25 30V23.75C21.25 23.4185 21.3817 23.1005 21.6161 22.8661C21.8505 22.6317 22.1685 22.5 22.5 22.5H30C30.3315 22.5 30.6495 22.6317 30.8839 22.8661C31.1183 23.1005 31.25 23.4185 31.25 23.75V30C31.25 30.3315 31.1183 30.6495 30.8839 30.8839C30.6495 31.1183 30.3315 31.25 30 31.25ZM23.75 28.75H28.75V25H23.75V28.75Z" fill="#000033"/>
<path d="M31.2492 9.76258C31.1742 9.36258 31.2492 9.52508 31.1242 9.40008C31.0739 9.29008 31.0064 9.18881 30.9242 9.10008L30.5242 8.85008C30.0992 8.75008 9.99922 8.75008 9.88672 8.75008C9.68511 8.74729 9.48945 8.81844 9.33672 8.95008C9.24272 8.98921 9.15766 9.04707 9.08674 9.12014C9.01582 9.1932 8.96053 9.27995 8.92422 9.37508L8.84922 9.47508C8.68047 12.7229 8.68047 15.9773 8.84922 19.2251C8.95061 19.4479 9.11174 19.6382 9.31474 19.775C9.51773 19.9118 9.75465 19.9897 9.99922 20.0001H29.9992C30.2411 19.992 30.4762 19.9179 30.6789 19.7856C30.8817 19.6534 31.0443 19.4682 31.1492 19.2501C31.2492 18.9251 31.2492 10.2251 31.2492 9.76258ZM11.2492 11.9126L16.8867 14.4126L11.2492 16.8376V11.9126ZM15.9742 11.2501H24.0242L19.9992 13.0126L15.9742 11.2501ZM19.9992 15.7376L24.0242 17.5001H15.9742L19.9992 15.7376ZM23.1117 14.3751L28.7492 11.8751V16.8001L23.1117 14.3751Z" fill="#000033"/>
</g>
<defs>
<clipPath id="clip0_5284_29395">
<rect width="40" height="40" fill="white"/>
</clipPath>
</defs>
</svg>
