<svg width="40" height="40" viewBox="0 0 40 40" fill="none" xmlns="http://www.w3.org/2000/svg">
<g clip-path="url(#clip0_5284_29387)">
<rect width="40" height="40" fill="white"/>
<path d="M8.74946 38.7493C8.50118 38.7507 8.25809 38.6782 8.05119 38.5409C7.84429 38.4037 7.68295 38.2079 7.58774 37.9786C7.49254 37.7493 7.46777 37.4968 7.51661 37.2534C7.56544 37.01 7.68567 36.7866 7.86196 36.6118L9.48696 34.9993L7.86196 33.3868C7.62658 33.1514 7.49434 32.8321 7.49434 32.4993C7.49434 32.1664 7.62658 31.8471 7.86196 31.6118C8.09734 31.3764 8.41658 31.2441 8.74946 31.2441C9.08233 31.2441 9.40158 31.3764 9.63696 31.6118L12.137 34.1118C12.2541 34.228 12.3471 34.3662 12.4106 34.5185C12.474 34.6709 12.5067 34.8342 12.5067 34.9993C12.5067 35.1643 12.474 35.3277 12.4106 35.48C12.3471 35.6323 12.2541 35.7706 12.137 35.8868C9.41196 38.6118 9.42446 38.7493 8.74946 38.7493Z" fill="#000033"/>
<path d="M13.75 10H18.75V16.25C18.75 16.5815 18.8817 16.8995 19.1161 17.1339C19.3505 17.3683 19.6685 17.5 20 17.5C20.3315 17.5 20.6495 17.3683 20.8839 17.1339C21.1183 16.8995 21.25 16.5815 21.25 16.25V10H26.25C26.5815 10 26.8995 9.8683 27.1339 9.63388C27.3683 9.39946 27.5 9.08152 27.5 8.75V1.25C27.5 0.918479 27.3683 0.600537 27.1339 0.366117C26.8995 0.131696 26.5815 0 26.25 0L22.5 0C22.1685 0 21.8505 0.131696 21.6161 0.366117C21.3817 0.600537 21.25 0.918479 21.25 1.25C21.25 1.58152 21.3817 1.89946 21.6161 2.13388C21.8505 2.3683 22.1685 2.5 22.5 2.5H25V7.5H15V2.5H17.5C17.8315 2.5 18.1495 2.3683 18.3839 2.13388C18.6183 1.89946 18.75 1.58152 18.75 1.25C18.75 0.918479 18.6183 0.600537 18.3839 0.366117C18.1495 0.131696 17.8315 0 17.5 0L13.75 0C13.4185 0 13.1005 0.131696 12.8661 0.366117C12.6317 0.600537 12.5 0.918479 12.5 1.25V8.75C12.5 9.08152 12.6317 9.39946 12.8661 9.63388C13.1005 9.8683 13.4185 10 13.75 10Z" fill="#05058C"/>
<path d="M21.2501 29.6V23.75C21.2501 23.4185 21.1184 23.1005 20.884 22.8661C20.6496 22.6317 20.3316 22.5 20.0001 22.5C19.6686 22.5 19.3506 22.6317 19.1162 22.8661C18.8818 23.1005 18.7501 23.4185 18.7501 23.75V29.6L12.7376 38.025C12.6048 38.2116 12.5257 38.431 12.5091 38.6595C12.4926 38.8879 12.539 39.1165 12.6435 39.3203C12.748 39.5241 12.9065 39.6952 13.1016 39.8151C13.2968 39.935 13.5211 39.9989 13.7501 40H26.2501C26.4791 39.9989 26.7034 39.935 26.8986 39.8151C27.0937 39.6952 27.2522 39.5241 27.3567 39.3203C27.4612 39.1165 27.5076 38.8879 27.4911 38.6595C27.4745 38.431 27.3954 38.2116 27.2626 38.025L21.2501 29.6ZM16.1751 37.5L20.0001 32.15L23.8251 37.5H16.1751Z" fill="#000033"/>
<path d="M11.25 33.75H5C4.66848 33.75 4.35054 33.6183 4.11612 33.3839C3.8817 33.1495 3.75 32.8315 3.75 32.5V7.5C3.75 7.16848 3.8817 6.85054 4.11612 6.61612C4.35054 6.3817 4.66848 6.25 5 6.25H10C10.3315 6.25 10.6495 6.1183 10.8839 5.88388C11.1183 5.64946 11.25 5.33152 11.25 5C11.25 4.66848 11.1183 4.35054 10.8839 4.11612C10.6495 3.8817 10.3315 3.75 10 3.75H5C4.00544 3.75 3.05161 4.14509 2.34835 4.84835C1.64509 5.55161 1.25 6.50544 1.25 7.5V32.5C1.25 33.4946 1.64509 34.4484 2.34835 35.1517C3.05161 35.8549 4.00544 36.25 5 36.25H11.25C11.5815 36.25 11.8995 36.1183 12.1339 35.8839C12.3683 35.6495 12.5 35.3315 12.5 35C12.5 34.6685 12.3683 34.3505 12.1339 34.1161C11.8995 33.8817 11.5815 33.75 11.25 33.75Z" fill="#000033"/>
<path d="M35 3.74926H33.0125L33.3875 3.38676C33.6229 3.15138 33.7551 2.83213 33.7551 2.49926C33.7551 2.16638 33.6229 1.84713 33.3875 1.61176C33.1521 1.37638 32.8329 1.24414 32.5 1.24414C32.1671 1.24414 31.8479 1.37638 31.6125 1.61176C29.0125 4.22426 28.9875 4.18676 28.85 4.52426C28.7543 4.75189 28.7281 5.00279 28.7748 5.24527C28.8216 5.48776 28.9391 5.71098 29.1125 5.88676C31.8375 8.61176 31.825 8.74926 32.5 8.74926C32.7483 8.7507 32.9914 8.67817 33.1983 8.54092C33.4052 8.40367 33.5665 8.20791 33.6617 7.97861C33.7569 7.7493 33.7817 7.49684 33.7329 7.2534C33.684 7.00997 33.5638 6.78659 33.3875 6.61176L33.0125 6.24926H35C35.3315 6.24926 35.6495 6.38095 35.8839 6.61537C36.1183 6.84979 36.25 7.16773 36.25 7.49926V32.4993C36.25 32.8308 36.1183 33.1487 35.8839 33.3831C35.6495 33.6176 35.3315 33.7493 35 33.7493H28.75C28.4185 33.7493 28.1005 33.881 27.8661 34.1154C27.6317 34.3498 27.5 34.6677 27.5 34.9993C27.5 35.3308 27.6317 35.6487 27.8661 35.8831C28.1005 36.1176 28.4185 36.2493 28.75 36.2493H35C35.9946 36.2493 36.9484 35.8542 37.6517 35.1509C38.3549 34.4476 38.75 33.4938 38.75 32.4993V7.49926C38.75 6.50469 38.3549 5.55087 37.6517 4.8476C36.9484 4.14434 35.9946 3.74926 35 3.74926Z" fill="#000033"/>
<path d="M24.9993 24.9998H12.4993C12.3006 25.0003 12.1046 24.9534 11.9275 24.863C11.7505 24.7726 11.5976 24.6413 11.4815 24.48C11.3654 24.3187 11.2895 24.132 11.26 23.9354C11.2304 23.7389 11.2482 23.5381 11.3118 23.3498L13.8118 15.8498C13.8957 15.6015 14.0554 15.3859 14.2685 15.2334C14.4816 15.0808 14.7373 14.9991 14.9993 14.9998H27.4993C27.7033 14.989 27.9068 15.0283 28.0921 15.1143C28.2773 15.2003 28.4387 15.3304 28.562 15.4932C28.6854 15.656 28.7669 15.8466 28.7996 16.0482C28.8322 16.2498 28.815 16.4564 28.7493 16.6498L26.2493 24.1498C26.1624 24.4085 25.9931 24.6317 25.7674 24.7852C25.5417 24.9386 25.2719 25.014 24.9993 24.9998ZM14.2368 22.4998H24.0993L25.7618 17.4998H15.8993L14.2368 22.4998Z" fill="#05058C"/>
</g>
<defs>
<clipPath id="clip0_5284_29387">
<rect width="40" height="40" fill="white"/>
</clipPath>
</defs>
</svg>
