<svg width="40" height="40" viewBox="0 0 40 40" fill="none" xmlns="http://www.w3.org/2000/svg">
<rect width="40" height="40" rx="20" fill="#F4F2FA"/>
<g clip-path="url(#clip0_5284_29143)">
<path d="M10 13L17 10L23 13L29.303 10.299C29.3791 10.2664 29.4621 10.2532 29.5445 10.2605C29.627 10.2679 29.7063 10.2956 29.7754 10.3412C29.8445 10.3868 29.9012 10.4489 29.9404 10.5218C29.9796 10.5947 30.0001 10.6762 30 10.759V27L23 30L17 27L10.697 29.701C10.6209 29.7336 10.5379 29.7468 10.4555 29.7395C10.373 29.7321 10.2937 29.7044 10.2246 29.6588C10.1555 29.6132 10.0988 29.5511 10.0596 29.4782C10.0204 29.4053 9.99993 29.3238 10 29.241V13ZM23 27.764V15.176L22.935 15.204L17 12.236V24.824L17.065 24.796L23 27.764Z" fill="#05058C"/>
</g>
<defs>
<clipPath id="clip0_5284_29143">
<rect width="24" height="24" fill="white" transform="translate(8 8)"/>
</clipPath>
</defs>
</svg>
