<svg width="40" height="40" viewBox="0 0 40 40" fill="none" xmlns="http://www.w3.org/2000/svg">
<rect width="40" height="40" rx="20" fill="#F4F2FA"/>
<g clip-path="url(#clip0_5284_29819)">
<path d="M20 30C25.523 30 30 25.523 30 20C30 14.477 25.523 10 20 10C14.477 10 10 14.477 10 20C10 25.523 14.477 30 20 30ZM25 21C25 22.3261 24.4732 23.5979 23.5355 24.5355C22.5979 25.4732 21.3261 26 20 26C18.6739 26 17.4021 25.4732 16.4645 24.5355C15.5268 23.5979 15 22.3261 15 21H17C17 21.7956 17.3161 22.5587 17.8787 23.1213C18.4413 23.6839 19.2044 24 20 24C20.7956 24 21.5587 23.6839 22.1213 23.1213C22.6839 22.5587 23 21.7956 23 21H25ZM24 19C23.6022 19 23.2206 18.842 22.9393 18.5607C22.658 18.2794 22.5 17.8978 22.5 17.5C22.5 17.1022 22.658 16.7206 22.9393 16.4393C23.2206 16.158 23.6022 16 24 16C24.3978 16 24.7794 16.158 25.0607 16.4393C25.342 16.7206 25.5 17.1022 25.5 17.5C25.5 17.8978 25.342 18.2794 25.0607 18.5607C24.7794 18.842 24.3978 19 24 19ZM16 19C15.6022 19 15.2206 18.842 14.9393 18.5607C14.658 18.2794 14.5 17.8978 14.5 17.5C14.5 17.1022 14.658 16.7206 14.9393 16.4393C15.2206 16.158 15.6022 16 16 16C16.3978 16 16.7794 16.158 17.0607 16.4393C17.342 16.7206 17.5 17.1022 17.5 17.5C17.5 17.8978 17.342 18.2794 17.0607 18.5607C16.7794 18.842 16.3978 19 16 19Z" fill="#05058C"/>
</g>
<defs>
<clipPath id="clip0_5284_29819">
<rect width="24" height="24" fill="white" transform="matrix(-1 0 0 1 32 8)"/>
</clipPath>
</defs>
</svg>
