<svg width="40" height="41" viewBox="0 0 40 41" fill="none" xmlns="http://www.w3.org/2000/svg">
<rect y="0.5" width="40" height="40" rx="20" fill="#F4F2FA"/>
<g clip-path="url(#clip0_5284_29425)">
<path d="M20 15.154C19.1903 15.7895 18.5358 16.601 18.0861 17.5268C17.6363 18.4527 17.4031 19.4687 17.404 20.498C17.4034 21.527 17.6368 22.5426 18.0865 23.4681C18.5363 24.3936 19.1906 25.2047 20 25.84C20.8095 25.2046 21.4639 24.3933 21.9137 23.4676C22.3634 22.542 22.5968 21.5261 22.596 20.497C22.5968 19.4679 22.3634 18.452 21.9137 17.5264C21.4639 16.6007 20.8095 15.7894 20 15.154ZM20.87 14.572C21.727 15.3036 22.415 16.2125 22.8864 17.236C23.3577 18.2595 23.6012 19.3732 23.6 20.5C23.6012 21.6263 23.3579 22.7395 22.8869 23.7626C22.4159 24.7857 21.7284 25.6945 20.872 26.426C21.9066 27.0068 23.0752 27.3067 24.2617 27.2959C25.4481 27.2851 26.611 26.9639 27.6349 26.3643C28.6588 25.7648 29.5079 24.9077 30.0978 23.8783C30.6877 22.8488 30.998 21.6829 30.9977 20.4964C30.9974 19.3099 30.6866 18.1442 30.0961 17.1151C29.5056 16.0859 28.6561 15.2293 27.6319 14.6302C26.6078 14.0312 25.4447 13.7106 24.2582 13.7004C23.0718 13.6902 21.9043 13.9907 20.87 14.572ZM19.128 26.426C18.2716 25.6945 17.5841 24.7857 17.1131 23.7626C16.6421 22.7395 16.3988 21.6263 16.4 20.5C16.3988 19.3732 16.6423 18.2595 17.1136 17.236C17.585 16.2125 18.273 15.3036 19.13 14.572C18.0957 13.9907 16.9272 13.6902 15.7408 13.7004C14.5543 13.7106 13.3912 14.0312 12.3671 14.6302C11.3429 15.2293 10.4934 16.0859 9.90291 17.1151C9.31245 18.1442 9.00162 19.3099 9.00132 20.4964C9.00102 21.6829 9.31126 22.8488 9.9012 23.8783C10.4911 24.9077 11.3402 25.7648 12.3641 26.3643C13.388 26.9639 14.5509 27.2851 15.7373 27.2959C16.9238 27.3067 18.0924 27.0068 19.127 26.426H19.128Z" fill="#05058C"/>
</g>
<defs>
<clipPath id="clip0_5284_29425">
<rect width="24" height="24" fill="white" transform="matrix(-1 0 0 1 32 8.5)"/>
</clipPath>
</defs>
</svg>
