<svg width="40" height="41" viewBox="0 0 40 41" fill="none" xmlns="http://www.w3.org/2000/svg">
<rect y="0.5" width="40" height="40" rx="20" fill="#F4F2FA"/>
<g clip-path="url(#clip0_5284_29427)">
<path d="M24 26.5H13.763L12 27.885V17.5H11C10.7348 17.5 10.4804 17.6054 10.2929 17.7929C10.1054 17.9804 10 18.2348 10 18.5V32L14.455 28.5H23C23.2652 28.5 23.5196 28.3946 23.7071 28.2071C23.8946 28.0196 24 27.7652 24 27.5V26.5ZM26.545 24.5L31 28V12.5C31 12.2348 30.8946 11.9804 30.7071 11.7929C30.5196 11.6054 30.2652 11.5 30 11.5H15C14.7348 11.5 14.4804 11.6054 14.2929 11.7929C14.1054 11.9804 14 12.2348 14 12.5V24.5H26.545Z" fill="#05058C"/>
</g>
<defs>
<clipPath id="clip0_5284_29427">
<rect width="24" height="24" fill="white" transform="matrix(-1 0 0 1 32 8.5)"/>
</clipPath>
</defs>
</svg>
