<svg width="40" height="40" viewBox="0 0 40 40" fill="none" xmlns="http://www.w3.org/2000/svg">
<rect width="40" height="40" rx="20" fill="#F4F2FA"/>
<g clip-path="url(#clip0_5281_28726)">
<path d="M24.61 24.539C25.9985 23.5598 27.0393 22.1639 27.5814 20.5537C28.1235 18.9434 28.1388 17.2023 27.6252 15.5828C27.1116 13.9632 26.0956 12.5492 24.7246 11.5457C23.3535 10.5421 21.6986 10.0012 19.9995 10.0012C18.3004 10.0012 16.6455 10.5421 15.2744 11.5457C13.9034 12.5492 12.8874 13.9632 12.3738 15.5828C11.8602 17.2023 11.8755 18.9434 12.4176 20.5537C12.9597 22.1639 14.0005 23.5598 15.389 24.539L13.306 29.299C13.2725 29.3752 13.2586 29.4585 13.2655 29.5415C13.2724 29.6244 13.2999 29.7043 13.3455 29.7739C13.3911 29.8435 13.4533 29.9007 13.5266 29.9401C13.5998 29.9796 13.6818 30.0002 13.765 30H26.235C26.3181 30.0001 26.3999 29.9795 26.473 29.9401C26.5462 29.9007 26.6083 29.8437 26.6539 29.7742C26.6994 29.7047 26.727 29.625 26.734 29.5422C26.741 29.4594 26.7272 29.3761 26.694 29.3L24.61 24.539ZM23.881 18.97C23.6635 19.8345 23.1635 20.6016 22.4604 21.1497C21.7574 21.6977 20.8914 21.9954 20 21.9954C19.1086 21.9954 18.2426 21.6977 17.5396 21.1497C16.8365 20.6016 16.3365 19.8345 16.119 18.97L18.059 18.485C18.1667 18.9184 18.4163 19.3032 18.768 19.5783C19.1198 19.8534 19.5535 20.0028 20 20.0028C20.4465 20.0028 20.8802 19.8534 21.232 19.5783C21.5837 19.3032 21.8333 18.9184 21.941 18.485L23.881 18.97Z" fill="#05058C"/>
</g>
<defs>
<clipPath id="clip0_5281_28726">
<rect width="24" height="24" fill="white" transform="matrix(-1 0 0 1 32 8)"/>
</clipPath>
</defs>
</svg>
