<svg width="40" height="41" viewBox="0 0 40 41" fill="none" xmlns="http://www.w3.org/2000/svg">
<rect y="0.5" width="40" height="40" rx="20" fill="#F4F2FA"/>
<g clip-path="url(#clip0_5284_29517)">
<path d="M29 22.5L25 25L22 21.5L19 25.5L17 23L14 23.5L17 20.5L19 23L22 18L25.5 21.75L29 18.5V11.492C29 10.955 28.553 10.5 28.002 10.5H18V16.5C18 16.7652 17.8946 17.0196 17.7071 17.2071C17.5196 17.3946 17.2652 17.5 17 17.5H11V29.493C10.9991 29.6243 11.024 29.7545 11.0734 29.8762C11.1228 29.9979 11.1957 30.1087 11.2879 30.2022C11.3801 30.2957 11.4899 30.3701 11.6108 30.4212C11.7318 30.4723 11.8617 30.4991 11.993 30.5H28.007C28.2702 30.5 28.5226 30.3955 28.7088 30.2095C28.895 30.0235 28.9997 29.7712 29 29.508V22.5ZM11 15.5H16V10.503L11 15.5Z" fill="#05058C"/>
</g>
<defs>
<clipPath id="clip0_5284_29517">
<rect width="24" height="24" fill="white" transform="matrix(-1 0 0 1 32 8.5)"/>
</clipPath>
</defs>
</svg>
