<svg width="40" height="41" viewBox="0 0 40 41" fill="none" xmlns="http://www.w3.org/2000/svg">
<rect y="0.5" width="40" height="40" rx="20" fill="#F4F2FA"/>
<g clip-path="url(#clip0_5284_29521)">
<path d="M20 9L24.226 15.183L31.413 17.292L26.838 23.222L27.053 30.708L20 28.19L12.947 30.708L13.162 23.222L8.587 17.292L15.774 15.183L20 9ZM18 20.5H16C16 21.5436 16.4078 22.5458 17.1364 23.2929C17.865 24.04 18.8567 24.4727 19.9 24.4988C20.9432 24.5249 21.9553 24.1423 22.7204 23.4326C23.4854 22.7228 23.9428 21.7422 23.995 20.7L24 20.5H22C22.0023 21.019 21.8028 21.5185 21.4436 21.8932C21.0844 22.2678 20.5937 22.4881 20.0751 22.5075C19.5564 22.527 19.0506 22.3441 18.6643 21.9975C18.278 21.6509 18.0416 21.1677 18.005 20.65L18 20.5Z" fill="#05058C"/>
</g>
<defs>
<clipPath id="clip0_5284_29521">
<rect width="24" height="24" fill="white" transform="translate(8 8.5)"/>
</clipPath>
</defs>
</svg>
