<svg width="40" height="40" viewBox="0 0 40 40" fill="none" xmlns="http://www.w3.org/2000/svg">
<rect width="40" height="40" rx="20" fill="#F4F2FA"/>
<g clip-path="url(#clip0_5281_28724)">
<path d="M22.67 19.5H20.5C19.3065 19.5 18.1619 19.9741 17.318 20.818C16.4741 21.6619 16 22.8065 16 24H23.001L23 25H15V24C15.0032 22.936 15.3106 21.895 15.886 21H13C12.0547 20.9997 11.1288 21.2674 10.3295 21.772C9.53016 22.2767 8.89027 22.9975 8.484 23.851C10.849 26.972 14.678 29 19 29C21.761 29 24.1 28.41 26 27.375V18.071C24.7834 18.2453 23.6345 18.7383 22.67 19.5ZM28 17C27.7551 17 27.5187 17.09 27.3356 17.2527C27.1526 17.4155 27.0357 17.6397 27.007 17.883L27 18V27C27 27.2652 27.1054 27.5196 27.2929 27.7071C27.4804 27.8946 27.7348 28 28 28H30C30.2652 28 30.5196 27.8946 30.7071 27.7071C30.8946 27.5196 31 27.2652 31 27V18C31 17.7348 30.8946 17.4804 30.7071 17.2929C30.5196 17.1054 30.2652 17 30 17H28ZM18.354 11.575L18 11.93L17.646 11.576C17.4142 11.3422 17.1385 11.1565 16.8347 11.0296C16.531 10.9026 16.2051 10.8369 15.8759 10.8363C15.5467 10.8356 15.2205 10.9 14.9163 11.0257C14.612 11.1514 14.3355 11.3359 14.1027 11.5687C13.87 11.8016 13.6855 12.0781 13.5599 12.3824C13.4343 12.6867 13.37 13.0129 13.3708 13.3421C13.3715 13.6713 13.4373 13.9971 13.5644 14.3009C13.6914 14.6046 13.8772 14.8803 14.111 15.112L18 19L21.89 15.11C22.1238 14.8782 22.3095 14.6025 22.4364 14.2987C22.5634 13.995 22.6291 13.6691 22.6297 13.3399C22.6304 13.0107 22.566 12.6845 22.4403 12.3803C22.3146 12.076 22.1301 11.7995 21.8973 11.5667C21.6644 11.334 21.3879 11.1495 21.0836 11.0239C20.7793 10.8983 20.4531 10.834 20.1239 10.8348C19.7947 10.8355 19.4689 10.9013 19.1651 11.0284C18.8614 11.1554 18.5857 11.3412 18.354 11.575Z" fill="#05058C"/>
</g>
<defs>
<clipPath id="clip0_5281_28724">
<rect width="24" height="24" fill="white" transform="matrix(-1 0 0 1 32 8)"/>
</clipPath>
</defs>
</svg>
