<svg width="40" height="40" viewBox="0 0 40 40" fill="none" xmlns="http://www.w3.org/2000/svg">
<rect width="40" height="40" rx="20" fill="#F4F2FA"/>
<g clip-path="url(#clip0_5284_29141)">
<path d="M15.05 19.95C14.2029 19.1036 13.5872 18.054 13.2619 16.9015C12.9366 15.7491 12.9125 14.5324 13.192 13.368L10.697 12.298C10.6209 12.2654 10.5379 12.2522 10.4555 12.2595C10.373 12.2669 10.2937 12.2946 10.2246 12.3402C10.1555 12.3858 10.0988 12.4479 10.0596 12.5208C10.0204 12.5937 9.99993 12.6752 10 12.758V27L17 30L23 27L29.303 29.701C29.3791 29.7336 29.4621 29.7468 29.5445 29.7395C29.627 29.7321 29.7063 29.7044 29.7754 29.6588C29.8445 29.6132 29.9012 29.5511 29.9404 29.4782C29.9796 29.4053 30.0001 29.3238 30 29.241V15L26.871 13.659C27.0912 14.7846 27.0311 15.947 26.6961 17.0439C26.3611 18.1408 25.7615 19.1385 24.95 19.949L20 24.9L15.05 19.95ZM16.464 18.536L20 22.07L23.536 18.535C24.2351 17.8357 24.7112 16.9448 24.904 15.9749C25.0968 15.005 24.9977 13.9998 24.6193 13.0862C24.2408 12.1727 23.5999 11.3918 22.7777 10.8425C21.9555 10.2931 20.9889 9.99993 20 9.99993C19.0111 9.99993 18.0445 10.2931 17.2223 10.8425C16.4001 11.3918 15.7592 12.1727 15.3807 13.0862C15.0023 13.9998 14.9032 15.005 15.096 15.9749C15.2888 16.9448 15.7649 17.8357 16.464 18.535V18.536Z" fill="#05058C"/>
</g>
<defs>
<clipPath id="clip0_5284_29141">
<rect width="24" height="24" fill="white" transform="matrix(-1 0 0 1 32 8)"/>
</clipPath>
</defs>
</svg>
