<svg width="40" height="40" viewBox="0 0 40 40" fill="none" xmlns="http://www.w3.org/2000/svg">
<rect width="40" height="40" rx="20" fill="#F4F2FA"/>
<g clip-path="url(#clip0_5281_28718)">
<path d="M25 19C25.5909 19 26.1761 18.8836 26.7221 18.6575C27.268 18.4313 27.7641 18.0998 28.182 17.682C28.5998 17.2641 28.9313 16.768 29.1575 16.2221C29.3836 15.6761 29.5 15.0909 29.5 14.5C29.5 13.9091 29.3836 13.3239 29.1575 12.7779C28.9313 12.232 28.5998 11.7359 28.182 11.318C27.7641 10.9002 27.268 10.5687 26.7221 10.3425C26.1761 10.1164 25.5909 10 25 10C23.8065 10 22.6619 10.4741 21.818 11.318C20.9741 12.1619 20.5 13.3065 20.5 14.5C20.5 15.6935 20.9741 16.8381 21.818 17.682C22.6619 18.5259 23.8065 19 25 19ZM14.5 23C15.5609 23 16.5783 22.5786 17.3284 21.8284C18.0786 21.0783 18.5 20.0609 18.5 19C18.5 17.9391 18.0786 16.9217 17.3284 16.1716C16.5783 15.4214 15.5609 15 14.5 15C13.4391 15 12.4217 15.4214 11.6716 16.1716C10.9214 16.9217 10.5 17.9391 10.5 19C10.5 20.0609 10.9214 21.0783 11.6716 21.8284C12.4217 22.5786 13.4391 23 14.5 23ZM14.5 24C13.3065 24 12.1619 24.4741 11.318 25.318C10.4741 26.1619 10 27.3065 10 28.5V29H19V28.5C19 27.3065 18.5259 26.1619 17.682 25.318C16.8381 24.4741 15.6935 24 14.5 24ZM25 20C24.3434 20 23.6932 20.1293 23.0866 20.3806C22.48 20.6319 21.9288 21.0002 21.4645 21.4645C21.0002 21.9288 20.6319 22.48 20.3806 23.0866C20.1293 23.6932 20 24.3434 20 25V29H30V25C30 23.6739 29.4732 22.4021 28.5355 21.4645C27.5979 20.5268 26.3261 20 25 20Z" fill="#05058C"/>
</g>
<defs>
<clipPath id="clip0_5281_28718">
<rect width="24" height="24" fill="white" transform="matrix(-1 0 0 1 32 8)"/>
</clipPath>
</defs>
</svg>
