<svg width="40" height="40" viewBox="0 0 40 40" fill="none" xmlns="http://www.w3.org/2000/svg">
<rect width="40" height="40" rx="20" fill="#F4F2FA"/>
<g clip-path="url(#clip0_5284_29137)">
<path d="M12.222 12.222C9.879 14.565 9.879 18.364 12.222 20.707L19.293 27.778C21.636 30.121 25.435 30.121 27.778 27.778C30.121 25.435 30.121 21.636 27.778 19.293L20.708 12.222C18.364 9.879 14.565 9.879 12.222 12.222ZM17.172 22.828L22.828 17.172L26.364 20.707C27.926 22.269 27.926 24.802 26.364 26.364C24.802 27.926 22.269 27.926 20.707 26.364L17.172 22.828Z" fill="#05058C"/>
</g>
<defs>
<clipPath id="clip0_5284_29137">
<rect width="24" height="24" fill="white" transform="matrix(-1 0 0 1 32 8)"/>
</clipPath>
</defs>
</svg>
