<svg width="40" height="40" viewBox="0 0 40 40" fill="none" xmlns="http://www.w3.org/2000/svg">
<rect width="40" height="40" rx="20" fill="#F4F2FA"/>
<g clip-path="url(#clip0_5281_28722)">
<path d="M24.059 26C24.356 24.727 25.696 23.686 26.246 23C27.1878 21.8233 27.7781 20.4045 27.9487 18.907C28.1194 17.4095 27.8636 15.8942 27.2107 14.5357C26.5579 13.1773 25.5346 12.0309 24.2586 11.2286C22.9827 10.4263 21.5061 10.0008 19.9989 10.001C18.4917 10.0012 17.0153 10.4273 15.7396 11.2299C14.4639 12.0326 13.441 13.1794 12.7885 14.5381C12.1361 15.8967 11.8808 17.4121 12.052 18.9095C12.2231 20.407 12.8138 21.8256 13.756 23.002C14.306 23.687 15.644 24.728 15.941 26H24.059ZM16 28V29C16 29.5304 16.2107 30.0391 16.5858 30.4142C16.9609 30.7893 17.4696 31 18 31H22C22.5304 31 23.0391 30.7893 23.4142 30.4142C23.7893 30.0391 24 29.5304 24 29V28H16ZM19 18.005V14L23.5 20.005H21V24.005L16.5 18.005H19Z" fill="#05058C"/>
</g>
<defs>
<clipPath id="clip0_5281_28722">
<rect width="24" height="24" fill="white" transform="matrix(-1 0 0 1 32 8)"/>
</clipPath>
</defs>
</svg>
