<svg width="41" height="40" viewBox="0 0 41 40" fill="none" xmlns="http://www.w3.org/2000/svg">
<g clip-path="url(#clip0_4123_14937)">
<path d="M1.75 7.5C1.41848 7.5 1.10054 7.3683 0.866117 7.13388C0.631696 6.89946 0.5 6.58152 0.5 6.25V3.75C0.5 2.75544 0.895088 1.80161 1.59835 1.09835C2.30161 0.395088 3.25544 0 4.25 0L6.75 0C7.08152 0 7.39946 0.131696 7.63388 0.366117C7.8683 0.600537 8 0.918479 8 1.25C8 1.58152 7.8683 1.89946 7.63388 2.13388C7.39946 2.3683 7.08152 2.5 6.75 2.5H4.25C3.91848 2.5 3.60054 2.6317 3.36612 2.86612C3.1317 3.10054 3 3.41848 3 3.75V6.25C3 6.58152 2.8683 6.89946 2.63388 7.13388C2.39946 7.3683 2.08152 7.5 1.75 7.5V7.5Z" fill="#000033"/>
<path d="M6.75 40H4.25C3.25544 40 2.30161 39.6049 1.59835 38.9017C0.895088 38.1984 0.5 37.2446 0.5 36.25L0.5 33.75C0.5 33.4185 0.631696 33.1005 0.866117 32.8661C1.10054 32.6317 1.41848 32.5 1.75 32.5C2.08152 32.5 2.39946 32.6317 2.63388 32.8661C2.8683 33.1005 3 33.4185 3 33.75V36.25C3 36.5815 3.1317 36.8995 3.36612 37.1339C3.60054 37.3683 3.91848 37.5 4.25 37.5H6.75C7.08152 37.5 7.39946 37.6317 7.63388 37.8661C7.8683 38.1005 8 38.4185 8 38.75C8 39.0815 7.8683 39.3995 7.63388 39.6339C7.39946 39.8683 7.08152 40 6.75 40Z" fill="#000033"/>
<path d="M36.75 40H34.25C33.9185 40 33.6005 39.8683 33.3661 39.6339C33.1317 39.3995 33 39.0815 33 38.75C33 38.4185 33.1317 38.1005 33.3661 37.8661C33.6005 37.6317 33.9185 37.5 34.25 37.5H36.75C37.0815 37.5 37.3995 37.3683 37.6339 37.1339C37.8683 36.8995 38 36.5815 38 36.25V33.75C38 33.4185 38.1317 33.1005 38.3661 32.8661C38.6005 32.6317 38.9185 32.5 39.25 32.5C39.5815 32.5 39.8995 32.6317 40.1339 32.8661C40.3683 33.1005 40.5 33.4185 40.5 33.75V36.25C40.5 37.2446 40.1049 38.1984 39.4017 38.9017C38.6984 39.6049 37.7446 40 36.75 40Z" fill="#000033"/>
<path d="M39.25 7.5C38.9185 7.5 38.6005 7.3683 38.3661 7.13388C38.1317 6.89946 38 6.58152 38 6.25V3.75C38 3.41848 37.8683 3.10054 37.6339 2.86612C37.3995 2.6317 37.0815 2.5 36.75 2.5H34.25C33.9185 2.5 33.6005 2.3683 33.3661 2.13388C33.1317 1.89946 33 1.58152 33 1.25C33 0.918479 33.1317 0.600537 33.3661 0.366117C33.6005 0.131696 33.9185 0 34.25 0L36.75 0C37.7446 0 38.6984 0.395088 39.4017 1.09835C40.1049 1.80161 40.5 2.75544 40.5 3.75V6.25C40.5 6.58152 40.3683 6.89946 40.1339 7.13388C39.8995 7.3683 39.5815 7.5 39.25 7.5Z" fill="#000033"/>
<path d="M13.7751 36.1626C13.4685 36.0366 13.2244 35.794 13.0967 35.4881C12.9689 35.1821 12.9679 34.838 13.0939 34.5313C13.2199 34.2247 13.4625 33.9806 13.7684 33.8529C14.0743 33.7251 14.4185 33.7241 14.7251 33.8501C16.7733 34.7019 18.9849 35.0888 21.2006 34.983C23.4163 34.8772 25.5809 34.2813 27.5386 33.2382C29.4963 32.1951 31.1983 30.7308 32.5219 28.9508C33.8456 27.1708 34.7579 25.1194 35.1933 22.9443C35.6287 20.7692 35.5763 18.5246 35.0398 16.3723C34.5033 14.2199 33.4961 12.2133 32.0908 10.497C30.6855 8.78077 28.917 7.39755 26.9127 6.44702C24.9085 5.49649 22.7184 5.00232 20.5001 5.0001C6.97514 5.0001 0.500137 21.5376 10.1126 30.8251C10.3236 31.0597 10.438 31.3653 10.4331 31.6808C10.4281 31.9962 10.304 32.2981 10.0857 32.5258C9.86741 32.7536 9.57109 32.8904 9.25615 32.9088C8.94122 32.9272 8.63097 32.8259 8.38764 32.6251C6.67696 30.9987 5.31666 29.0399 4.39022 26.8689C3.46378 24.6979 2.99075 22.3605 3.00014 20.0001C3.00148 16.2447 4.21084 12.5893 6.44952 9.57417C8.68821 6.55899 11.8375 4.34394 15.4319 3.25633C19.0264 2.16872 22.8753 2.26624 26.4101 3.53449C29.9449 4.80273 32.9779 7.17442 35.061 10.2991C37.1441 13.4238 38.1668 17.1357 37.978 20.8863C37.7892 24.637 36.3988 28.2274 34.0124 31.127C31.6259 34.0267 28.37 36.0817 24.7258 36.9885C21.0815 37.8953 17.2422 37.6057 13.7751 36.1626V36.1626Z" fill="#000033"/>
<path d="M17.9998 26.25H11.7498C11.4183 26.25 11.1004 26.1183 10.8659 25.8839C10.6315 25.6495 10.4998 25.3315 10.4998 25C10.4965 24.0109 10.7918 23.0438 11.3471 22.2253C11.9025 21.4067 12.692 20.7749 13.6123 20.4125L15.6623 19.5875C16.0294 19.4322 16.3319 19.1555 16.5192 18.8037C16.7064 18.4518 16.767 18.0463 16.6908 17.6551C16.6147 17.2639 16.4063 16.9108 16.1007 16.655C15.7951 16.3992 15.4108 16.2562 15.0123 16.25H14.2498C13.9183 16.25 13.6004 16.3817 13.3659 16.6161C13.1315 16.8505 12.9998 17.1685 12.9998 17.5C12.9998 17.8315 12.8681 18.1495 12.6337 18.3839C12.3993 18.6183 12.0813 18.75 11.7498 18.75C9.36232 18.75 10.4998 13.75 14.2498 13.75H15.0123C15.9931 13.7551 16.9417 14.1002 17.6964 14.7265C18.4512 15.3529 18.9653 16.2216 19.1511 17.1846C19.3369 18.1476 19.1829 19.1453 18.7154 20.0074C18.2479 20.8696 17.4958 21.5429 16.5873 21.9125C14.4748 22.75 13.8623 22.875 13.3373 23.75H17.9998C18.3313 23.75 18.6493 23.8817 18.8837 24.1161C19.1181 24.3505 19.2498 24.6685 19.2498 25C19.2498 25.3315 19.1181 25.6495 18.8837 25.8839C18.6493 26.1183 18.3313 26.25 17.9998 26.25Z" fill="#100FA8"/>
<path d="M29.2499 14.9999C28.9184 14.9999 28.6005 15.1316 28.366 15.366C28.1316 15.6004 27.9999 15.9183 27.9999 16.2499V19.9999H24.5249L25.4999 15.2499C25.5662 14.9183 25.4981 14.5741 25.3106 14.2928C25.123 14.0114 24.8314 13.8162 24.4999 13.7499C24.1684 13.6836 23.8241 13.7517 23.5428 13.9392C23.2615 14.1267 23.0662 14.4183 22.9999 14.7499L21.7499 20.9999C21.7124 21.1836 21.7166 21.3734 21.7624 21.5552C21.8082 21.7371 21.8943 21.9063 22.0143 22.0503C22.1344 22.1944 22.2853 22.3096 22.4559 22.3874C22.6265 22.4652 22.8124 22.5037 22.9999 22.4999H27.9999V24.9999C27.9999 25.3314 28.1316 25.6493 28.366 25.8837C28.6005 26.1182 28.9184 26.2499 29.2499 26.2499C29.5814 26.2499 29.8994 26.1182 30.1338 25.8837C30.3682 25.6493 30.4999 25.3314 30.4999 24.9999V16.2499C30.4999 15.9183 30.3682 15.6004 30.1338 15.366C29.8994 15.1316 29.5814 14.9999 29.2499 14.9999Z" fill="#100FA8"/>
<path d="M20.5 7.5C20.1685 7.5 19.8505 7.3683 19.6161 7.13388C19.3817 6.89946 19.25 6.58152 19.25 6.25V1.25C19.25 0.918479 19.3817 0.600537 19.6161 0.366117C19.8505 0.131696 20.1685 0 20.5 0C20.8315 0 21.1495 0.131696 21.3839 0.366117C21.6183 0.600537 21.75 0.918479 21.75 1.25V6.25C21.75 6.58152 21.6183 6.89946 21.3839 7.13388C21.1495 7.3683 20.8315 7.5 20.5 7.5Z" fill="#100FA8"/>
<path d="M6.75 21.25H1.75C1.41848 21.25 1.10054 21.1183 0.866117 20.8839C0.631696 20.6495 0.5 20.3315 0.5 20C0.5 19.6685 0.631696 19.3505 0.866117 19.1161C1.10054 18.8817 1.41848 18.75 1.75 18.75H6.75C7.08152 18.75 7.39946 18.8817 7.63388 19.1161C7.8683 19.3505 8 19.6685 8 20C8 20.3315 7.8683 20.6495 7.63388 20.8839C7.39946 21.1183 7.08152 21.25 6.75 21.25Z" fill="#100FA8"/>
<path d="M20.5 40C20.1685 40 19.8505 39.8683 19.6161 39.6339C19.3817 39.3995 19.25 39.0815 19.25 38.75V33.75C19.25 33.4185 19.3817 33.1005 19.6161 32.8661C19.8505 32.6317 20.1685 32.5 20.5 32.5C20.8315 32.5 21.1495 32.6317 21.3839 32.8661C21.6183 33.1005 21.75 33.4185 21.75 33.75V38.75C21.75 39.0815 21.6183 39.3995 21.3839 39.6339C21.1495 39.8683 20.8315 40 20.5 40Z" fill="#100FA8"/>
<path d="M39.25 21.25H34.25C33.9185 21.25 33.6005 21.1183 33.3661 20.8839C33.1317 20.6495 33 20.3315 33 20C33 19.6685 33.1317 19.3505 33.3661 19.1161C33.6005 18.8817 33.9185 18.75 34.25 18.75H39.25C39.5815 18.75 39.8995 18.8817 40.1339 19.1161C40.3683 19.3505 40.5 19.6685 40.5 20C40.5 20.3315 40.3683 20.6495 40.1339 20.8839C39.8995 21.1183 39.5815 21.25 39.25 21.25Z" fill="#100FA8"/>
</g>
<defs>
<clipPath id="clip0_4123_14937">
<rect width="40" height="40" fill="white" transform="translate(0.5)"/>
</clipPath>
</defs>
</svg>
