<svg width="41" height="40" viewBox="0 0 41 40" fill="none" xmlns="http://www.w3.org/2000/svg">
<g clip-path="url(#clip0_4238_15980)">
<path d="M31.75 37.5H15.5C14.5054 37.5 13.5516 37.1049 12.8483 36.4017C12.1451 35.6984 11.75 34.7446 11.75 33.75V32.5C11.75 32.1685 11.8817 31.8505 12.1161 31.6161C12.3505 31.3817 12.6685 31.25 13 31.25C13.3315 31.25 13.6495 31.3817 13.8839 31.6161C14.1183 31.8505 14.25 32.1685 14.25 32.5V33.75C14.25 34.0815 14.3817 34.3995 14.6161 34.6339C14.8505 34.8683 15.1685 35 15.5 35H31.75C32.0815 35 32.3995 35.1317 32.6339 35.3661C32.8683 35.6005 33 35.9185 33 36.25C33 36.5815 32.8683 36.8995 32.6339 37.1339C32.3995 37.3683 32.0815 37.5 31.75 37.5Z" fill="#100FA8"/>
<path d="M25.5 17.5V11.25C25.5 7.81253 19.025 6.25003 13 6.25003C11.6967 6.24841 10.3945 6.32354 9.1 6.47503C8.93585 6.49472 8.77718 6.54656 8.63306 6.62758C8.48895 6.7086 8.36219 6.81721 8.26005 6.94721C8.15791 7.07721 8.08237 7.22606 8.03775 7.38525C7.99313 7.54445 7.9803 7.71087 8 7.87503C8.0197 8.03918 8.07154 8.19784 8.15255 8.34196C8.23357 8.48608 8.34218 8.61283 8.47218 8.71497C8.60218 8.81712 8.75103 8.89266 8.91023 8.93728C9.06942 8.9819 9.23585 8.99472 9.4 8.97502C10.5951 8.83531 11.7968 8.7602 13 8.75003C19.5625 8.75003 23 10.6125 23 11.25C23 11.8875 19.5625 13.75 13 13.75C6.4375 13.75 3 11.8875 3 11.25C3 11.175 3.3 10.6375 4.725 10C5.03166 9.87405 5.27571 9.63141 5.40347 9.32549C5.53123 9.01957 5.53223 8.67543 5.40625 8.36878C5.28027 8.06212 5.03764 7.81807 4.73172 7.69031C4.4258 7.56255 4.08166 7.56155 3.775 7.68753C1.0625 8.85003 0.5 10.2625 0.5 11.25V17.5C0.526002 18.0033 0.672391 18.4931 0.926876 18.9281C1.18136 19.3631 1.53651 19.7307 1.9625 20C1.53651 20.2693 1.18136 20.6369 0.926876 21.072C0.672391 21.507 0.526002 21.9967 0.5 22.5L0.5 28.75C0.5 35.425 25.5 35.4125 25.5 28.75V22.5C25.474 21.9967 25.3276 21.507 25.0731 21.072C24.8186 20.6369 24.4635 20.2693 24.0375 20C24.4635 19.7307 24.8186 19.3631 25.0731 18.9281C25.3276 18.4931 25.474 18.0033 25.5 17.5V17.5ZM23 14.4V17.5C23 18.1375 19.5625 20 13 20C6.4375 20 3 18.1375 3 17.5V14.4C7.7875 16.8625 18.2125 16.8625 23 14.4ZM13 31.25C6.4375 31.25 3 29.3875 3 28.75V25.65C7.7875 28.15 18.2125 28.15 23 25.65V28.75C23 29.3875 19.5625 31.25 13 31.25ZM23 22.5C23 23.1375 19.5625 25 13 25C6.4375 25 3 23.1375 3 22.5C3 22.4125 3.3125 21.9 4.65 21.3375C10.1088 22.8872 15.8912 22.8872 21.35 21.3375C22.6875 21.9 23 22.4125 23 22.5Z" fill="#000033"/>
<path d="M35.5 17.5C35.1685 17.5 34.8505 17.3683 34.6161 17.1339C34.3817 16.8995 34.25 16.5815 34.25 16.25V8.75C34.25 8.41848 34.3817 8.10054 34.6161 7.86612C34.8505 7.6317 35.1685 7.5 35.5 7.5C35.8315 7.5 36.1495 7.6317 36.3839 7.86612C36.6183 8.10054 36.75 8.41848 36.75 8.75V16.25C36.75 16.5815 36.6183 16.8995 36.3839 17.1339C36.1495 17.3683 35.8315 17.5 35.5 17.5Z" fill="#100FA8"/>
<path d="M35.5 32.5C35.1685 32.5 34.8505 32.3683 34.6161 32.1339C34.3817 31.8995 34.25 31.5815 34.25 31.25V23.75C34.25 23.4185 34.3817 23.1005 34.6161 22.8661C34.8505 22.6317 35.1685 22.5 35.5 22.5C35.8315 22.5 36.1495 22.6317 36.3839 22.8661C36.6183 23.1005 36.75 23.4185 36.75 23.75V31.25C36.75 31.5815 36.6183 31.8995 36.3839 32.1339C36.1495 32.3683 35.8315 32.5 35.5 32.5Z" fill="#100FA8"/>
<path d="M39.25 25H31.75C31.4185 25 31.1005 24.8683 30.8661 24.6339C30.6317 24.3995 30.5 24.0815 30.5 23.75V16.25C30.5 15.9185 30.6317 15.6005 30.8661 15.3661C31.1005 15.1317 31.4185 15 31.75 15H39.25C39.5815 15 39.8995 15.1317 40.1339 15.3661C40.3683 15.6005 40.5 15.9185 40.5 16.25V23.75C40.5 24.0815 40.3683 24.3995 40.1339 24.6339C39.8995 24.8683 39.5815 25 39.25 25ZM33 22.5H38V17.5H33V22.5Z" fill="#000033"/>
<path d="M39.25 40H31.75C31.4185 40 31.1005 39.8683 30.8661 39.6339C30.6317 39.3995 30.5 39.0815 30.5 38.75V31.25C30.5 30.9185 30.6317 30.6005 30.8661 30.3661C31.1005 30.1317 31.4185 30 31.75 30H39.25C39.5815 30 39.8995 30.1317 40.1339 30.3661C40.3683 30.6005 40.5 30.9185 40.5 31.25V38.75C40.5 39.0815 40.3683 39.3995 40.1339 39.6339C39.8995 39.8683 39.5815 40 39.25 40ZM33 37.5H38V32.5H33V37.5Z" fill="#000033"/>
<path d="M13 11.25C12.6685 11.25 12.3505 11.1183 12.1161 10.8839C11.8817 10.6495 11.75 10.3315 11.75 10V6.25C11.75 5.25544 12.1451 4.30161 12.8483 3.59835C13.5516 2.89509 14.5054 2.5 15.5 2.5H31.75C32.0815 2.5 32.3995 2.6317 32.6339 2.86612C32.8683 3.10054 33 3.41848 33 3.75C33 4.08152 32.8683 4.39946 32.6339 4.63388C32.3995 4.8683 32.0815 5 31.75 5H15.5C15.1685 5 14.8505 5.1317 14.6161 5.36612C14.3817 5.60054 14.25 5.91848 14.25 6.25V10C14.25 10.3315 14.1183 10.6495 13.8839 10.8839C13.6495 11.1183 13.3315 11.25 13 11.25Z" fill="#100FA8"/>
<path d="M39.25 10H31.75C31.4185 10 31.1005 9.8683 30.8661 9.63388C30.6317 9.39946 30.5 9.08152 30.5 8.75V1.25C30.5 0.918479 30.6317 0.600537 30.8661 0.366117C31.1005 0.131696 31.4185 0 31.75 0L39.25 0C39.5815 0 39.8995 0.131696 40.1339 0.366117C40.3683 0.600537 40.5 0.918479 40.5 1.25V8.75C40.5 9.08152 40.3683 9.39946 40.1339 9.63388C39.8995 9.8683 39.5815 10 39.25 10ZM33 7.5H38V2.5H33V7.5Z" fill="#000033"/>
</g>
<defs>
<clipPath id="clip0_4238_15980">
<rect width="40" height="40" fill="white" transform="translate(0.5)"/>
</clipPath>
</defs>
</svg>
