<svg width="41" height="40" viewBox="0 0 41 40" fill="none" xmlns="http://www.w3.org/2000/svg">
<g clip-path="url(#clip0_4123_14959)">
<path d="M39.25 13.75H32.4625L25.325 1.86246C25.143 1.61219 24.8746 1.43833 24.5718 1.37452C24.269 1.31071 23.9533 1.36149 23.6858 1.51703C23.4183 1.67256 23.218 1.9218 23.1236 2.21651C23.0292 2.51123 23.0476 2.83047 23.175 3.11246L29.5375 13.75H11.4625L17.825 3.13746C17.9524 2.85547 17.9708 2.53623 17.8764 2.24151C17.782 1.9468 17.5817 1.69756 17.3142 1.54203C17.0467 1.38649 16.731 1.33571 16.4282 1.39952C16.1254 1.46333 15.857 1.63719 15.675 1.88746L8.5375 13.75H1.75C1.41848 13.75 1.10054 13.8817 0.866117 14.1161C0.631696 14.3505 0.5 14.6684 0.5 15L0.5 20C0.5 20.3315 0.631696 20.6494 0.866117 20.8838C1.10054 21.1183 1.41848 21.25 1.75 21.25C1.9875 21.25 1.6875 19.6625 3.95 35.525C4.07736 36.426 4.528 37.25 5.21795 37.8433C5.90789 38.4367 6.79005 38.7589 7.7 38.75H14.25C14.5815 38.75 14.8995 38.6183 15.1339 38.3838C15.3683 38.1494 15.5 37.8315 15.5 37.5C15.5 37.1684 15.3683 36.8505 15.1339 36.6161C14.8995 36.3816 14.5815 36.25 14.25 36.25H7.6625C7.35918 36.2529 7.06513 36.1455 6.83515 35.9477C6.60517 35.75 6.45495 35.4753 6.4125 35.175L4.4375 21.25H36.5625L34.5625 35.175C34.5201 35.4753 34.3698 35.75 34.1399 35.9477C33.9099 36.1455 33.6158 36.2529 33.3125 36.25H19.25C18.9185 36.25 18.6005 36.3816 18.3661 36.6161C18.1317 36.8505 18 37.1684 18 37.5C18 37.8315 18.1317 38.1494 18.3661 38.3838C18.6005 38.6183 18.9185 38.75 19.25 38.75H33.3375C34.2475 38.7589 35.1296 38.4367 35.8196 37.8433C36.5095 37.25 36.9601 36.426 37.0875 35.525L39.0875 21.25C39.2648 21.2732 39.4449 21.2582 39.6159 21.2058C39.7868 21.1535 39.9446 21.0651 40.0784 20.9467C40.2123 20.8282 40.3192 20.6824 40.392 20.5191C40.4647 20.3557 40.5015 20.1787 40.5 20V15C40.5 14.6684 40.3683 14.3505 40.1339 14.1161C39.8995 13.8817 39.5815 13.75 39.25 13.75ZM3 18.75V16.25H38V18.75H3Z" fill="#000033"/>
<path d="M20.5 33.75C20.1685 33.75 19.8505 33.6183 19.6161 33.3839C19.3817 33.1495 19.25 32.8315 19.25 32.5V25C19.25 24.6685 19.3817 24.3505 19.6161 24.1161C19.8505 23.8817 20.1685 23.75 20.5 23.75C20.8315 23.75 21.1495 23.8817 21.3839 24.1161C21.6183 24.3505 21.75 24.6685 21.75 25V32.5C21.75 32.8315 21.6183 33.1495 21.3839 33.3839C21.1495 33.6183 20.8315 33.75 20.5 33.75Z" fill="#100FA8"/>
<path d="M13.0003 33.7498C12.7007 33.7536 12.4096 33.6497 12.1802 33.457C11.9508 33.2643 11.7982 32.9956 11.7503 32.6998L10.5003 25.1998C10.474 25.0356 10.4803 24.8679 10.5189 24.7062C10.5574 24.5445 10.6275 24.392 10.725 24.2573C10.8225 24.1227 10.9455 24.0086 11.0871 23.9215C11.2287 23.8344 11.3861 23.7761 11.5503 23.7498C11.7144 23.7235 11.8821 23.7298 12.0439 23.7684C12.2056 23.807 12.3581 23.877 12.4927 23.9745C12.6274 24.072 12.7415 24.195 12.8286 24.3367C12.9157 24.4783 12.974 24.6356 13.0003 24.7998L14.2503 32.2998C14.2795 32.4799 14.2689 32.6642 14.2193 32.8397C14.1697 33.0153 14.0823 33.1779 13.9632 33.3161C13.844 33.4542 13.6961 33.5647 13.5298 33.6396C13.3634 33.7145 13.1827 33.7521 13.0003 33.7498Z" fill="#100FA8"/>
<path d="M27.9995 33.7498C27.8171 33.7521 27.6364 33.7145 27.47 33.6396C27.3037 33.5647 27.1558 33.4543 27.0366 33.3161C26.9175 33.1779 26.8301 33.0153 26.7805 32.8397C26.7309 32.6642 26.7203 32.4799 26.7495 32.2998L27.9995 24.7998C28.0526 24.4683 28.2351 24.1714 28.5071 23.9745C28.779 23.7776 29.118 23.6967 29.4495 23.7498C29.781 23.8028 30.0779 23.9854 30.2748 24.2573C30.4717 24.5293 30.5526 24.8683 30.4995 25.1998L29.2495 32.6998C29.2016 32.9956 29.049 33.2643 28.8196 33.457C28.5902 33.6497 28.2991 33.7536 27.9995 33.7498V33.7498Z" fill="#100FA8"/>
</g>
<defs>
<clipPath id="clip0_4123_14959">
<rect width="40" height="40" fill="white" transform="translate(0.5)"/>
</clipPath>
</defs>
</svg>
