<svg width="41" height="40" viewBox="0 0 41 40" fill="none" xmlns="http://www.w3.org/2000/svg">
<path d="M27.6375 14.625C28.7625 15.1625 28.8875 15 36.75 15C37.7446 15 38.6984 14.6049 39.4016 13.9017C40.1049 13.1984 40.5 12.2446 40.5 11.25V3.75C40.5 2.75544 40.1049 1.80161 39.4016 1.09835C38.6984 0.395088 37.7446 0 36.75 0L29.25 0C28.2554 0 27.3016 0.395088 26.5983 1.09835C25.8951 1.80161 25.5 2.75544 25.5 3.75C25.5 11.675 25.375 11.8 25.875 12.8625L20.5 18.2375L15.125 12.8625C15.6625 11.7375 15.5 11.6125 15.5 3.75C15.5 2.75544 15.1049 1.80161 14.4016 1.09835C13.6984 0.395088 12.7446 0 11.75 0L4.25 0C3.25544 0 2.30161 0.395088 1.59835 1.09835C0.895088 1.80161 0.5 2.75544 0.5 3.75L0.5 11.25C0.5 12.2446 0.895088 13.1984 1.59835 13.9017C2.30161 14.6049 3.25544 15 4.25 15C12.175 15 12.3 15.125 13.3625 14.625L18.7375 20L13.3625 25.375C12.2375 24.8375 12.1125 25 4.25 25C3.25544 25 2.30161 25.3951 1.59835 26.0983C0.895088 26.8016 0.5 27.7554 0.5 28.75L0.5 36.25C0.5 37.2446 0.895088 38.1984 1.59835 38.9017C2.30161 39.6049 3.25544 40 4.25 40H11.75C12.7446 40 13.6984 39.6049 14.4016 38.9017C15.1049 38.1984 15.5 37.2446 15.5 36.25C15.5 28.325 15.625 28.2 15.125 27.1375L20.5 21.7625L25.875 27.1375C25.3375 28.2625 25.5 28.3875 25.5 36.25C25.5 37.2446 25.8951 38.1984 26.5983 38.9017C27.3016 39.6049 28.2554 40 29.25 40H36.75C37.7446 40 38.6984 39.6049 39.4016 38.9017C40.1049 38.1984 40.5 37.2446 40.5 36.25V33.75C40.5 33.4185 40.3683 33.1005 40.1339 32.8661C39.8995 32.6317 39.5815 32.5 39.25 32.5C38.9185 32.5 38.6005 32.6317 38.3661 32.8661C38.1317 33.1005 38 33.4185 38 33.75V36.25C38 36.5815 37.8683 36.8995 37.6339 37.1339C37.3995 37.3683 37.0815 37.5 36.75 37.5H29.25C28.9185 37.5 28.6005 37.3683 28.3661 37.1339C28.1317 36.8995 28 36.5815 28 36.25V28.75C28 28.4185 28.1317 28.1005 28.3661 27.8661C28.6005 27.6317 28.9185 27.5 29.25 27.5H36.75C37.0815 27.5 37.3995 27.6317 37.6339 27.8661C37.8683 28.1005 38 28.4185 38 28.75C38 29.0815 38.1317 29.3995 38.3661 29.6339C38.6005 29.8683 38.9185 30 39.25 30C41.6375 30 40.5 25 36.75 25C28.825 25 28.7 24.875 27.6375 25.375L22.2625 20L27.6375 14.625ZM28 3.75C28 3.41848 28.1317 3.10054 28.3661 2.86612C28.6005 2.6317 28.9185 2.5 29.25 2.5H36.75C37.0815 2.5 37.3995 2.6317 37.6339 2.86612C37.8683 3.10054 38 3.41848 38 3.75V11.25C38 11.5815 37.8683 11.8995 37.6339 12.1339C37.3995 12.3683 37.0815 12.5 36.75 12.5H29.25C28.9185 12.5 28.6005 12.3683 28.3661 12.1339C28.1317 11.8995 28 11.5815 28 11.25V3.75ZM4.25 12.5C3.91848 12.5 3.60054 12.3683 3.36612 12.1339C3.1317 11.8995 3 11.5815 3 11.25V3.75C3 3.41848 3.1317 3.10054 3.36612 2.86612C3.60054 2.6317 3.91848 2.5 4.25 2.5H11.75C12.0815 2.5 12.3995 2.6317 12.6339 2.86612C12.8683 3.10054 13 3.41848 13 3.75V11.25C13 11.5815 12.8683 11.8995 12.6339 12.1339C12.3995 12.3683 12.0815 12.5 11.75 12.5H4.25ZM13 36.25C13 36.5815 12.8683 36.8995 12.6339 37.1339C12.3995 37.3683 12.0815 37.5 11.75 37.5H4.25C3.91848 37.5 3.60054 37.3683 3.36612 37.1339C3.1317 36.8995 3 36.5815 3 36.25V28.75C3 28.4185 3.1317 28.1005 3.36612 27.8661C3.60054 27.6317 3.91848 27.5 4.25 27.5H11.75C12.0815 27.5 12.3995 27.6317 12.6339 27.8661C12.8683 28.1005 13 28.4185 13 28.75V36.25Z" fill="#000033"/>
<path d="M25.4 32.0252C25.275 31.7127 25.4 31.8627 22.6375 29.1127C22.4021 28.8774 22.0829 28.7451 21.75 28.7451C21.4171 28.7451 21.0979 28.8774 20.8625 29.1127C20.6271 29.3481 20.4949 29.6674 20.4949 30.0002C20.4949 30.3331 20.6271 30.6524 20.8625 30.8877L21.2375 31.2502H8C7.66848 31.2502 7.35054 31.3819 7.11612 31.6163C6.8817 31.8508 6.75 32.1687 6.75 32.5002C6.75 32.8318 6.8817 33.1497 7.11612 33.3841C7.35054 33.6185 7.66848 33.7502 8 33.7502H21.2375L20.8625 34.1127C20.6862 34.2876 20.566 34.5109 20.5172 34.7544C20.4683 34.9978 20.4931 35.2503 20.5883 35.4796C20.6835 35.7089 20.8448 35.9046 21.0517 36.0419C21.2586 36.1791 21.5017 36.2517 21.75 36.2502C22.425 36.2502 22.45 36.0627 25.1375 33.3877C25.3109 33.212 25.4284 32.9887 25.4752 32.7462C25.5219 32.5038 25.4957 32.2529 25.4 32.0252Z" fill="#100FA8"/>
<path d="M36.3877 17.8627C33.7752 15.2627 33.8127 15.2377 33.4752 15.1002C33.2476 15.0045 32.9967 14.9783 32.7542 15.025C32.5117 15.0717 32.2885 15.1892 32.1127 15.3627L29.6127 17.8627C29.3774 18.0981 29.2451 18.4173 29.2451 18.7502C29.2451 19.0831 29.3774 19.4023 29.6127 19.6377C29.8481 19.8731 30.1674 20.0053 30.5002 20.0053C30.8331 20.0053 31.1524 19.8731 31.3877 19.6377L31.7502 19.2627V32.5002C31.7502 32.8317 31.8819 33.1496 32.1163 33.3841C32.3508 33.6185 32.6687 33.7502 33.0002 33.7502C33.3318 33.7502 33.6497 33.6185 33.8841 33.3841C34.1185 33.1496 34.2502 32.8317 34.2502 32.5002V19.2627C34.6877 19.7002 34.9252 20.0002 35.5002 20.0002C35.7485 20.0016 35.9916 19.9291 36.1985 19.7918C36.4054 19.6546 36.5667 19.4588 36.6619 19.2295C36.7572 19.0002 36.7819 18.7478 36.7331 18.5043C36.6842 18.2609 36.564 18.0375 36.3877 17.8627Z" fill="#100FA8"/>
<path d="M7.52523 24.9C7.67444 24.9677 7.83639 25.0027 8.00023 25.0027C8.16407 25.0027 8.32602 24.9677 8.47523 24.9C8.78773 24.775 8.63773 24.9 11.3877 22.1375C11.6231 21.9021 11.7553 21.5829 11.7553 21.25C11.7553 20.9171 11.6231 20.5979 11.3877 20.3625C11.1524 20.1271 10.8331 19.9949 10.5002 19.9949C10.1674 19.9949 9.84811 20.1271 9.61273 20.3625L9.25023 20.7375V7.5C9.25023 7.16848 9.11854 6.85054 8.88411 6.61612C8.64969 6.3817 8.33175 6.25 8.00023 6.25C7.66871 6.25 7.35077 6.3817 7.11635 6.61612C6.88193 6.85054 6.75023 7.16848 6.75023 7.5V20.7375L6.38773 20.3625C6.15235 20.1271 5.83311 19.9949 5.50023 19.9949C5.16735 19.9949 4.84811 20.1271 4.61273 20.3625C4.37735 20.5979 4.24512 20.9171 4.24512 21.25C4.24512 21.5829 4.37735 21.9021 4.61273 22.1375C7.22523 24.7375 7.18773 24.7625 7.52523 24.9Z" fill="#100FA8"/>
<path d="M33 10C32.5055 10 32.0222 9.85338 31.6111 9.57868C31.2 9.30397 30.8795 8.91353 30.6903 8.45671C30.5011 7.99989 30.4516 7.49723 30.548 7.01228C30.6445 6.52732 30.8826 6.08187 31.2322 5.73223C31.5819 5.3826 32.0273 5.1445 32.5123 5.04804C32.9972 4.95157 33.4999 5.00108 33.9567 5.1903C34.4135 5.37952 34.804 5.69995 35.0787 6.11108C35.3534 6.5222 35.5 7.00555 35.5 7.5C35.5 8.16304 35.2366 8.79893 34.7678 9.26777C34.2989 9.73661 33.663 10 33 10Z" fill="#000033"/>
</svg>
