<svg width="41" height="40" viewBox="0 0 41 40" fill="none" xmlns="http://www.w3.org/2000/svg">
<path d="M36.75 10H29.25C28.9185 10 28.6005 9.8683 28.3661 9.63388C28.1317 9.39946 28 9.08152 28 8.75C28 8.41848 28.1317 8.10054 28.3661 7.86612C28.6005 7.6317 28.9185 7.5 29.25 7.5H36.75C37.0815 7.5 37.3995 7.6317 37.6339 7.86612C37.8683 8.10054 38 8.41848 38 8.75C38 9.08152 37.8683 9.39946 37.6339 9.63388C37.3995 9.8683 37.0815 10 36.75 10Z" fill="#100FA8"/>
<path d="M34.25 40H31.75C30.7554 40 29.8016 39.6049 29.0983 38.9017C28.3951 38.1984 28 37.2446 28 36.25V3.75C28 2.75544 28.3951 1.80161 29.0983 1.09835C29.8016 0.395088 30.7554 0 31.75 0L34.25 0C35.2446 0 36.1984 0.395088 36.9017 1.09835C37.6049 1.80161 38 2.75544 38 3.75V36.25C38 37.2446 37.6049 38.1984 36.9017 38.9017C36.1984 39.6049 35.2446 40 34.25 40ZM31.75 2.5C31.4185 2.5 31.1005 2.6317 30.8661 2.86612C30.6317 3.10054 30.5 3.41848 30.5 3.75V36.25C30.5 36.5815 30.6317 36.8995 30.8661 37.1339C31.1005 37.3683 31.4185 37.5 31.75 37.5H34.25C34.5815 37.5 34.8995 37.3683 35.1339 37.1339C35.3683 36.8995 35.5 36.5815 35.5 36.25V3.75C35.5 3.41848 35.3683 3.10054 35.1339 2.86612C34.8995 2.6317 34.5815 2.5 34.25 2.5H31.75Z" fill="#100FA8"/>
<path d="M21.75 0H19.25C18.2554 0 17.3016 0.395088 16.5983 1.09835C15.8951 1.80161 15.5 2.75544 15.5 3.75V36.25C15.5 37.2446 15.8951 38.1984 16.5983 38.9017C17.3016 39.6049 18.2554 40 19.25 40H21.75C22.7446 40 23.6984 39.6049 24.4017 38.9017C25.1049 38.1984 25.5 37.2446 25.5 36.25V3.75C25.5 2.75544 25.1049 1.80161 24.4017 1.09835C23.6984 0.395088 22.7446 0 21.75 0V0ZM19.25 2.5H21.75C22.0815 2.5 22.3995 2.6317 22.6339 2.86612C22.8683 3.10054 23 3.41848 23 3.75V12.5H18V3.75C18 3.41848 18.1317 3.10054 18.3661 2.86612C18.6005 2.6317 18.9185 2.5 19.25 2.5V2.5ZM21.75 37.5H19.25C18.9185 37.5 18.6005 37.3683 18.3661 37.1339C18.1317 36.8995 18 36.5815 18 36.25V15H23V36.25C23 36.5815 22.8683 36.8995 22.6339 37.1339C22.3995 37.3683 22.0815 37.5 21.75 37.5Z" fill="#000033"/>
<path d="M9.25 0H6.75C5.75544 0 4.80161 0.395088 4.09835 1.09835C3.39509 1.80161 3 2.75544 3 3.75L3 21.25C3 21.5815 3.1317 21.8995 3.36612 22.1339C3.60054 22.3683 3.91848 22.5 4.25 22.5C4.58152 22.5 4.89946 22.3683 5.13388 22.1339C5.3683 21.8995 5.5 21.5815 5.5 21.25V3.75C5.5 3.41848 5.6317 3.10054 5.86612 2.86612C6.10054 2.6317 6.41848 2.5 6.75 2.5H9.25C9.58152 2.5 9.89946 2.6317 10.1339 2.86612C10.3683 3.10054 10.5 3.41848 10.5 3.75V18.75H4.25C3.91848 18.75 3.60054 18.8817 3.36612 19.1161C3.1317 19.3505 3 19.6685 3 20V36.25C3 37.2446 3.39509 38.1984 4.09835 38.9017C4.80161 39.6049 5.75544 40 6.75 40H9.25C10.2446 40 11.1984 39.6049 11.9017 38.9017C12.6049 38.1984 13 37.2446 13 36.25V3.75C13 2.75544 12.6049 1.80161 11.9017 1.09835C11.1984 0.395088 10.2446 0 9.25 0ZM9.25 37.5H6.75C6.41848 37.5 6.10054 37.3683 5.86612 37.1339C5.6317 36.8995 5.5 36.5815 5.5 36.25V21.25H10.5V36.25C10.5 36.5815 10.3683 36.8995 10.1339 37.1339C9.89946 37.3683 9.58152 37.5 9.25 37.5Z" fill="#000033"/>
</svg>
