<svg width="41" height="40" viewBox="0 0 41 40" fill="none" xmlns="http://www.w3.org/2000/svg">
<g clip-path="url(#clip0_4238_16041)">
<path d="M37.6375 27.4999C38.3957 27.4966 39.1218 27.194 39.658 26.6579C40.1941 26.1217 40.4967 25.3956 40.5 24.6374V20.3624C40.4967 19.6042 40.1941 18.8781 39.658 18.3419C39.1218 17.8058 38.3957 17.5032 37.6375 17.4999H34.25V16.2499C34.25 15.2553 33.8549 14.3015 33.1517 13.5983C32.4484 12.895 31.4946 12.4999 30.5 12.4999H21.75V9.0874C21.75 8.75588 21.6183 8.43794 21.3839 8.20352C21.1495 7.9691 20.8315 7.8374 20.5 7.8374C20.1685 7.8374 19.8505 7.9691 19.6161 8.20352C19.3817 8.43794 19.25 8.75588 19.25 9.0874V12.4999H10.5C9.50544 12.4999 8.55161 12.895 7.84835 13.5983C7.14509 14.3015 6.75 15.2553 6.75 16.2499V17.4999H3.3625C2.60433 17.5032 1.87815 17.8058 1.34204 18.3419C0.805929 18.8781 0.503289 19.6042 0.5 20.3624L0.5 24.6374C0.503289 25.3956 0.805929 26.1217 1.34204 26.6579C1.87815 27.194 2.60433 27.4966 3.3625 27.4999H6.75V29.9999H3.3625C2.60433 30.0032 1.87815 30.3058 1.34204 30.8419C0.805929 31.3781 0.503289 32.1042 0.5 32.8624L0.5 37.1374C0.503289 37.8956 0.805929 38.6217 1.34204 39.1579C1.87815 39.694 2.60433 39.9966 3.3625 39.9999H4.25C4.58152 39.9999 4.89946 39.8682 5.13388 39.6338C5.3683 39.3994 5.5 39.0814 5.5 38.7499C5.5 38.4184 5.3683 38.1004 5.13388 37.866C4.89946 37.6316 4.58152 37.4999 4.25 37.4999H3.3625C3.26636 37.4999 3.17416 37.4617 3.10617 37.3937C3.03819 37.3257 3 37.2335 3 37.1374V32.8624C3 32.7663 3.03819 32.6741 3.10617 32.6061C3.17416 32.5381 3.26636 32.4999 3.3625 32.4999H12.6375C12.7336 32.4999 12.8258 32.5381 12.8938 32.6061C12.9618 32.6741 13 32.7663 13 32.8624V37.1374C13 37.2335 12.9618 37.3257 12.8938 37.3937C12.8258 37.4617 12.7336 37.4999 12.6375 37.4999H9.25C8.91848 37.4999 8.60054 37.6316 8.36612 37.866C8.1317 38.1004 8 38.4184 8 38.7499C8 39.0814 8.1317 39.3994 8.36612 39.6338C8.60054 39.8682 8.91848 39.9999 9.25 39.9999H12.6375C13.3957 39.9966 14.1218 39.694 14.658 39.1579C15.1941 38.6217 15.4967 37.8956 15.5 37.1374V36.2499H25.5V37.1374C25.5033 37.8956 25.8059 38.6217 26.342 39.1579C26.8782 39.694 27.6043 39.9966 28.3625 39.9999H37.6375C38.3957 39.9966 39.1218 39.694 39.658 39.1579C40.1941 38.6217 40.4967 37.8956 40.5 37.1374V32.8624C40.4967 32.1042 40.1941 31.3781 39.658 30.8419C39.1218 30.3058 38.3957 30.0032 37.6375 29.9999H34.25V27.4999H37.6375ZM38 20.3624V24.6374C38 24.7335 37.9618 24.8257 37.8938 24.8937C37.8258 24.9617 37.7336 24.9999 37.6375 24.9999H28.3625C28.2664 24.9999 28.1742 24.9617 28.1062 24.8937C28.0382 24.8257 28 24.7335 28 24.6374V20.3624C28 20.2663 28.0382 20.1741 28.1062 20.1061C28.1742 20.0381 28.2664 19.9999 28.3625 19.9999H37.6375C37.7336 19.9999 37.8258 20.0381 37.8938 20.1061C37.9618 20.1741 38 20.2663 38 20.3624V20.3624ZM3 24.6374V20.3624C3 20.2663 3.03819 20.1741 3.10617 20.1061C3.17416 20.0381 3.26636 19.9999 3.3625 19.9999H12.6375C12.7336 19.9999 12.8258 20.0381 12.8938 20.1061C12.9618 20.1741 13 20.2663 13 20.3624V24.6374C13 24.7335 12.9618 24.8257 12.8938 24.8937C12.8258 24.9617 12.7336 24.9999 12.6375 24.9999H3.3625C3.26636 24.9999 3.17416 24.9617 3.10617 24.8937C3.03819 24.8257 3 24.7335 3 24.6374ZM38 32.8624V37.1374C38 37.2335 37.9618 37.3257 37.8938 37.3937C37.8258 37.4617 37.7336 37.4999 37.6375 37.4999H28.3625C28.2664 37.4999 28.1742 37.4617 28.1062 37.3937C28.0382 37.3257 28 37.2335 28 37.1374V32.8624C28 32.7663 28.0382 32.6741 28.1062 32.6061C28.1742 32.5381 28.2664 32.4999 28.3625 32.4999H37.6375C37.7336 32.4999 37.8258 32.5381 37.8938 32.6061C37.9618 32.6741 38 32.7663 38 32.8624V32.8624ZM31.75 29.9999H28.3625C27.6043 30.0032 26.8782 30.3058 26.342 30.8419C25.8059 31.3781 25.5033 32.1042 25.5 32.8624V33.7499H15.5V32.8624C15.4967 32.1042 15.1941 31.3781 14.658 30.8419C14.1218 30.3058 13.3957 30.0032 12.6375 29.9999H9.25V27.4999H12.6375C13.3957 27.4966 14.1218 27.194 14.658 26.6579C15.1941 26.1217 15.4967 25.3956 15.5 24.6374V20.3624C15.4967 19.6042 15.1941 18.8781 14.658 18.3419C14.1218 17.8058 13.3957 17.5032 12.6375 17.4999H9.25V16.2499C9.25 15.9184 9.3817 15.6004 9.61612 15.366C9.85054 15.1316 10.1685 14.9999 10.5 14.9999H30.5C30.8315 14.9999 31.1495 15.1316 31.3839 15.366C31.6183 15.6004 31.75 15.9184 31.75 16.2499V17.4999H28.3625C27.6043 17.5032 26.8782 17.8058 26.342 18.3419C25.8059 18.8781 25.5033 19.6042 25.5 20.3624V24.6374C25.5033 25.3956 25.8059 26.1217 26.342 26.6579C26.8782 27.194 27.6043 27.4966 28.3625 27.4999H31.75V29.9999Z" fill="#000033"/>
<path d="M25.1375 10H15.8625C15.1043 9.99671 14.3782 9.69407 13.842 9.15796C13.3059 8.62185 13.0033 7.89567 13 7.1375V2.8625C13.0033 2.10433 13.3059 1.37815 13.842 0.842041C14.3782 0.305929 15.1043 0.00328928 15.8625 0L25.1375 0C25.8957 0.00328928 26.6218 0.305929 27.158 0.842041C27.6941 1.37815 27.9967 2.10433 28 2.8625V7.1375C27.9967 7.89567 27.6941 8.62185 27.158 9.15796C26.6218 9.69407 25.8957 9.99671 25.1375 10V10ZM15.8625 2.5C15.7664 2.5 15.6742 2.53819 15.6062 2.60617C15.5382 2.67416 15.5 2.76636 15.5 2.8625V7.1375C15.5 7.23364 15.5382 7.32584 15.6062 7.39383C15.6742 7.46181 15.7664 7.5 15.8625 7.5H25.1375C25.2336 7.5 25.3258 7.46181 25.3938 7.39383C25.4618 7.32584 25.5 7.23364 25.5 7.1375V2.8625C25.5 2.76636 25.4618 2.67416 25.3938 2.60617C25.3258 2.53819 25.2336 2.5 25.1375 2.5H15.8625Z" fill="#100FA8"/>
</g>
<defs>
<clipPath id="clip0_4238_16041">
<rect width="40" height="40" fill="white" transform="translate(0.5)"/>
</clipPath>
</defs>
</svg>
