<svg width="25" height="24" viewBox="0 0 25 24" fill="none" xmlns="http://www.w3.org/2000/svg">
<path d="M23 16.5C23.1989 16.5 23.3897 16.421 23.5303 16.2803C23.671 16.1397 23.75 15.9489 23.75 15.75V2.25C23.75 1.65326 23.5129 1.08097 23.091 0.65901C22.669 0.237053 22.0967 0 21.5 0L3.5 0C2.90326 0 2.33097 0.237053 1.90901 0.65901C1.48705 1.08097 1.25 1.65326 1.25 2.25V17.25C1.25 17.8467 1.48705 18.419 1.90901 18.841C2.33097 19.2629 2.90326 19.5 3.5 19.5H8.6825C8.47815 20.6753 7.86116 21.739 6.9425 22.5H5.75C5.55109 22.5 5.36032 22.579 5.21967 22.7197C5.07902 22.8603 5 23.0511 5 23.25C5 23.4489 5.07902 23.6397 5.21967 23.7803C5.36032 23.921 5.55109 24 5.75 24H19.4C19.5989 24 19.7897 23.921 19.9303 23.7803C20.071 23.6397 20.15 23.4489 20.15 23.25C20.15 23.0511 20.071 22.8603 19.9303 22.7197C19.7897 22.579 19.5989 22.5 19.4 22.5H18.0575C17.1368 21.7408 16.5193 20.6762 16.3175 19.5H21.5C22.0967 19.5 22.669 19.2629 23.091 18.841C23.5129 18.419 23.75 17.8467 23.75 17.25V15.75C23.75 15.5511 23.671 15.3603 23.5303 15.2197C23.3897 15.079 23.1989 15 23 15H2.75V2.25C2.75 2.05109 2.82902 1.86032 2.96967 1.71967C3.11032 1.57902 3.30109 1.5 3.5 1.5H21.5C21.6989 1.5 21.8897 1.57902 22.0303 1.71967C22.171 1.86032 22.25 2.05109 22.25 2.25V15.75C22.25 15.9489 22.329 16.1397 22.4697 16.2803C22.6103 16.421 22.8011 16.5 23 16.5ZM16.0175 22.5H8.9825C9.64478 21.6253 10.0616 20.5896 10.19 19.5H14.81C14.9384 20.5896 15.3552 21.6253 16.0175 22.5ZM22.25 16.5V17.25C22.25 17.4489 22.171 17.6397 22.0303 17.7803C21.8897 17.921 21.6989 18 21.5 18H3.5C3.30109 18 3.11032 17.921 2.96967 17.7803C2.82902 17.6397 2.75 17.4489 2.75 17.25V16.5H22.25Z" fill="#000033"/>
<path d="M18.5 6H11C10.8011 6 10.6103 5.92098 10.4697 5.78033C10.329 5.63968 10.25 5.44891 10.25 5.25C10.25 5.05109 10.329 4.86032 10.4697 4.71967C10.6103 4.57902 10.8011 4.5 11 4.5H18.5C18.6989 4.5 18.8897 4.57902 19.0303 4.71967C19.171 4.86032 19.25 5.05109 19.25 5.25C19.25 5.44891 19.171 5.63968 19.0303 5.78033C18.8897 5.92098 18.6989 6 18.5 6Z" fill="#100FA8"/>
<path d="M17 9H11C10.8011 9 10.6103 8.92098 10.4697 8.78033C10.329 8.63968 10.25 8.44891 10.25 8.25C10.25 8.05109 10.329 7.86032 10.4697 7.71967C10.6103 7.57902 10.8011 7.5 11 7.5H17C17.1989 7.5 17.3897 7.57902 17.5303 7.71967C17.671 7.86032 17.75 8.05109 17.75 8.25C17.75 8.44891 17.671 8.63968 17.5303 8.78033C17.3897 8.92098 17.1989 9 17 9Z" fill="#100FA8"/>
<path d="M15.5 12H11C10.8011 12 10.6103 11.921 10.4697 11.7803C10.329 11.6397 10.25 11.4489 10.25 11.25C10.25 11.0511 10.329 10.8603 10.4697 10.7197C10.6103 10.579 10.8011 10.5 11 10.5H15.5C15.6989 10.5 15.8897 10.579 16.0303 10.7197C16.171 10.8603 16.25 11.0511 16.25 11.25C16.25 11.4489 16.171 11.6397 16.0303 11.7803C15.8897 11.921 15.6989 12 15.5 12Z" fill="#100FA8"/>
<path d="M6.5 12C6.30109 12 6.11032 11.921 5.96967 11.7803C5.82902 11.6397 5.75 11.4489 5.75 11.25V8.25C5.75 8.05109 5.82902 7.86032 5.96967 7.71967C6.11032 7.57902 6.30109 7.5 6.5 7.5C6.69891 7.5 6.88968 7.57902 7.03033 7.71967C7.17098 7.86032 7.25 8.05109 7.25 8.25V11.25C7.25 11.4489 7.17098 11.6397 7.03033 11.7803C6.88968 11.921 6.69891 12 6.5 12Z" fill="#100FA8"/>
<path d="M6.5 6C6.35166 6 6.20666 5.95601 6.08332 5.8736C5.95999 5.79119 5.86386 5.67406 5.80709 5.53701C5.75032 5.39997 5.73547 5.24917 5.76441 5.10368C5.79335 4.9582 5.86478 4.82456 5.96967 4.71967C6.07456 4.61478 6.2082 4.54335 6.35368 4.51441C6.49917 4.48547 6.64997 4.50032 6.78701 4.55709C6.92406 4.61386 7.04119 4.70999 7.1236 4.83332C7.20601 4.95666 7.25 5.10166 7.25 5.25C7.25 5.44891 7.17098 5.63968 7.03033 5.78033C6.88968 5.92098 6.69891 6 6.5 6Z" fill="#100FA8"/>
</svg>
