<svg width="74" height="24" viewBox="0 0 74 24" fill="none" xmlns="http://www.w3.org/2000/svg">
<g clip-path="url(#clip0_1307_9290)">
<path fill-rule="evenodd" clip-rule="evenodd" d="M0 0H23.3021V24H0V0ZM1.29456 1.33333V22.6667H22.0076V1.33333H1.29456Z" fill="#000033"/>
<path fill-rule="evenodd" clip-rule="evenodd" d="M0.189584 0.195262C0.442363 -0.0650874 0.852199 -0.0650874 1.10498 0.195262L23.1125 22.8619C23.3653 23.1223 23.3653 23.5444 23.1125 23.8047C22.8598 24.0651 22.4499 24.0651 22.1972 23.8047L0.189584 1.13807C-0.0631948 0.877722 -0.0631948 0.455612 0.189584 0.195262Z" fill="#000033"/>
<path fill-rule="evenodd" clip-rule="evenodd" d="M36.9528 1.33333C31.2331 1.33333 26.5963 6.10896 26.5963 12C26.5963 17.891 31.2331 22.6667 36.9528 22.6667C42.6726 22.6667 47.3093 17.891 47.3093 12C47.3093 6.10896 42.6726 1.33333 36.9528 1.33333ZM25.3018 12C25.3018 5.37258 30.5181 0 36.9528 0C43.3875 0 48.6039 5.37258 48.6039 12C48.6039 18.6274 43.3875 24 36.9528 24C30.5181 24 25.3018 18.6274 25.3018 12Z" fill="#000033"/>
<path fill-rule="evenodd" clip-rule="evenodd" d="M25.9482 11.334H47.9558V12.6673H25.9482V11.334Z" fill="#000033"/>
<path fill-rule="evenodd" clip-rule="evenodd" d="M62.2546 1.33333C56.5348 1.33333 51.8981 6.10896 51.8981 12C51.8981 17.891 56.5348 22.6667 62.2546 22.6667C67.9743 22.6667 72.6111 17.891 72.6111 12C72.6111 6.10896 67.9743 1.33333 62.2546 1.33333ZM50.6035 12C50.6035 5.37258 55.8199 0 62.2546 0C68.6893 0 73.9056 5.37258 73.9056 12C73.9056 18.6274 68.6893 24 62.2546 24C55.8199 24 50.6035 18.6274 50.6035 12Z" fill="#000033"/>
</g>
<defs>
<clipPath id="clip0_1307_9290">
<rect width="74" height="24" fill="white"/>
</clipPath>
</defs>
</svg>
