<svg width="270" height="63" viewBox="0 0 270 63" fill="none" xmlns="http://www.w3.org/2000/svg">
<rect x="16" width="24" height="24" rx="4" fill="#100FA8"/>
<g clip-path="url(#clip0_1307_5514)">
<path d="M26.6667 14.1147L32.7947 7.986L33.738 8.92867L26.6667 16L22.424 11.7573L23.3667 10.8147L26.6667 14.1147Z" fill="white"/>
</g>
<path d="M0.794828 44V35.6H2.40283L7.35883 41.648H6.57883V35.6H8.49883V44H6.90283L1.93483 37.952H2.71483V44H0.794828ZM13.0782 44.096C12.5422 44.096 12.0622 43.992 11.6382 43.784C11.2222 43.576 10.8982 43.26 10.6662 42.836C10.4342 42.404 10.3182 41.856 10.3182 41.192V37.544H12.1902V40.916C12.1902 41.452 12.3022 41.848 12.5262 42.104C12.7582 42.352 13.0822 42.476 13.4982 42.476C13.7862 42.476 14.0422 42.416 14.2662 42.296C14.4902 42.168 14.6662 41.976 14.7942 41.72C14.9222 41.456 14.9862 41.128 14.9862 40.736V37.544H16.8582V44H15.0822V42.224L15.4062 42.74C15.1902 43.188 14.8702 43.528 14.4462 43.76C14.0302 43.984 13.5742 44.096 13.0782 44.096ZM21.7965 44.096C21.0605 44.096 20.4125 43.952 19.8525 43.664C19.3005 43.376 18.8725 42.984 18.5685 42.488C18.2645 41.984 18.1125 41.412 18.1125 40.772C18.1125 40.124 18.2605 39.552 18.5565 39.056C18.8605 38.552 19.2725 38.16 19.7925 37.88C20.3125 37.592 20.9005 37.448 21.5565 37.448C22.1885 37.448 22.7565 37.584 23.2605 37.856C23.7725 38.12 24.1765 38.504 24.4725 39.008C24.7685 39.504 24.9165 40.1 24.9165 40.796C24.9165 40.868 24.9125 40.952 24.9045 41.048C24.8965 41.136 24.8885 41.22 24.8805 41.3H19.6365V40.208H23.8965L23.1765 40.532C23.1765 40.196 23.1085 39.904 22.9725 39.656C22.8365 39.408 22.6485 39.216 22.4085 39.08C22.1685 38.936 21.8885 38.864 21.5685 38.864C21.2485 38.864 20.9645 38.936 20.7165 39.08C20.4765 39.216 20.2885 39.412 20.1525 39.668C20.0165 39.916 19.9485 40.212 19.9485 40.556V40.844C19.9485 41.196 20.0245 41.508 20.1765 41.78C20.3365 42.044 20.5565 42.248 20.8365 42.392C21.1245 42.528 21.4605 42.596 21.8445 42.596C22.1885 42.596 22.4885 42.544 22.7445 42.44C23.0085 42.336 23.2485 42.18 23.4645 41.972L24.4605 43.052C24.1645 43.388 23.7925 43.648 23.3445 43.832C22.8965 44.008 22.3805 44.096 21.7965 44.096ZM28.3348 44.096C27.7828 44.096 27.2508 44.032 26.7388 43.904C26.2348 43.768 25.8348 43.6 25.5388 43.4L26.1628 42.056C26.4588 42.24 26.8068 42.392 27.2068 42.512C27.6148 42.624 28.0148 42.68 28.4068 42.68C28.8388 42.68 29.1428 42.628 29.3188 42.524C29.5028 42.42 29.5948 42.276 29.5948 42.092C29.5948 41.94 29.5228 41.828 29.3788 41.756C29.2428 41.676 29.0588 41.616 28.8268 41.576C28.5948 41.536 28.3388 41.496 28.0588 41.456C27.7868 41.416 27.5108 41.364 27.2308 41.3C26.9508 41.228 26.6948 41.124 26.4628 40.988C26.2308 40.852 26.0428 40.668 25.8988 40.436C25.7628 40.204 25.6948 39.904 25.6948 39.536C25.6948 39.128 25.8108 38.768 26.0428 38.456C26.2828 38.144 26.6268 37.9 27.0748 37.724C27.5228 37.54 28.0588 37.448 28.6828 37.448C29.1228 37.448 29.5708 37.496 30.0268 37.592C30.4828 37.688 30.8628 37.828 31.1668 38.012L30.5428 39.344C30.2308 39.16 29.9148 39.036 29.5948 38.972C29.2828 38.9 28.9788 38.864 28.6828 38.864C28.2668 38.864 27.9628 38.92 27.7708 39.032C27.5788 39.144 27.4828 39.288 27.4828 39.464C27.4828 39.624 27.5508 39.744 27.6868 39.824C27.8308 39.904 28.0188 39.968 28.2508 40.016C28.4828 40.064 28.7348 40.108 29.0068 40.148C29.2868 40.18 29.5668 40.232 29.8468 40.304C30.1268 40.376 30.3788 40.48 30.6028 40.616C30.8348 40.744 31.0228 40.924 31.1668 41.156C31.3108 41.38 31.3828 41.676 31.3828 42.044C31.3828 42.444 31.2628 42.8 31.0228 43.112C30.7828 43.416 30.4348 43.656 29.9788 43.832C29.5308 44.008 28.9828 44.096 28.3348 44.096ZM35.1778 44.096C34.4178 44.096 33.8258 43.904 33.4018 43.52C32.9778 43.128 32.7658 42.548 32.7658 41.78V36.116H34.6378V41.756C34.6378 42.028 34.7098 42.24 34.8538 42.392C34.9978 42.536 35.1938 42.608 35.4418 42.608C35.7378 42.608 35.9898 42.528 36.1978 42.368L36.7018 43.688C36.5098 43.824 36.2778 43.928 36.0058 44C35.7418 44.064 35.4658 44.096 35.1778 44.096ZM31.7698 39.128V37.688H36.2458V39.128H31.7698ZM37.7527 44V37.544H39.5407V39.368L39.2887 38.84C39.4807 38.384 39.7887 38.04 40.2127 37.808C40.6367 37.568 41.1527 37.448 41.7607 37.448V39.176C41.6807 39.168 41.6087 39.164 41.5447 39.164C41.4807 39.156 41.4127 39.152 41.3407 39.152C40.8287 39.152 40.4127 39.3 40.0927 39.596C39.7807 39.884 39.6247 40.336 39.6247 40.952V44H37.7527ZM45.8989 44.096C45.2109 44.096 44.5989 43.952 44.0629 43.664C43.5349 43.376 43.1149 42.984 42.8029 42.488C42.4989 41.984 42.3469 41.412 42.3469 40.772C42.3469 40.124 42.4989 39.552 42.8029 39.056C43.1149 38.552 43.5349 38.16 44.0629 37.88C44.5989 37.592 45.2109 37.448 45.8989 37.448C46.5789 37.448 47.1869 37.592 47.7229 37.88C48.2589 38.16 48.6789 38.548 48.9829 39.044C49.2869 39.54 49.4389 40.116 49.4389 40.772C49.4389 41.412 49.2869 41.984 48.9829 42.488C48.6789 42.984 48.2589 43.376 47.7229 43.664C47.1869 43.952 46.5789 44.096 45.8989 44.096ZM45.8989 42.56C46.2109 42.56 46.4909 42.488 46.7389 42.344C46.9869 42.2 47.1829 41.996 47.3269 41.732C47.4709 41.46 47.5429 41.14 47.5429 40.772C47.5429 40.396 47.4709 40.076 47.3269 39.812C47.1829 39.548 46.9869 39.344 46.7389 39.2C46.4909 39.056 46.2109 38.984 45.8989 38.984C45.5869 38.984 45.3069 39.056 45.0589 39.2C44.8109 39.344 44.6109 39.548 44.4589 39.812C44.3149 40.076 44.2429 40.396 44.2429 40.772C44.2429 41.14 44.3149 41.46 44.4589 41.732C44.6109 41.996 44.8109 42.2 45.0589 42.344C45.3069 42.488 45.5869 42.56 45.8989 42.56ZM52.8622 44.096C52.3102 44.096 51.7782 44.032 51.2662 43.904C50.7622 43.768 50.3622 43.6 50.0662 43.4L50.6902 42.056C50.9862 42.24 51.3342 42.392 51.7342 42.512C52.1422 42.624 52.5422 42.68 52.9342 42.68C53.3662 42.68 53.6702 42.628 53.8462 42.524C54.0302 42.42 54.1222 42.276 54.1222 42.092C54.1222 41.94 54.0502 41.828 53.9062 41.756C53.7702 41.676 53.5862 41.616 53.3542 41.576C53.1222 41.536 52.8662 41.496 52.5862 41.456C52.3142 41.416 52.0382 41.364 51.7582 41.3C51.4782 41.228 51.2222 41.124 50.9902 40.988C50.7582 40.852 50.5702 40.668 50.4262 40.436C50.2902 40.204 50.2222 39.904 50.2222 39.536C50.2222 39.128 50.3382 38.768 50.5702 38.456C50.8102 38.144 51.1542 37.9 51.6022 37.724C52.0502 37.54 52.5862 37.448 53.2102 37.448C53.6502 37.448 54.0982 37.496 54.5542 37.592C55.0102 37.688 55.3902 37.828 55.6942 38.012L55.0702 39.344C54.7582 39.16 54.4422 39.036 54.1222 38.972C53.8102 38.9 53.5062 38.864 53.2102 38.864C52.7942 38.864 52.4902 38.92 52.2982 39.032C52.1062 39.144 52.0102 39.288 52.0102 39.464C52.0102 39.624 52.0782 39.744 52.2142 39.824C52.3582 39.904 52.5462 39.968 52.7782 40.016C53.0102 40.064 53.2622 40.108 53.5342 40.148C53.8142 40.18 54.0942 40.232 54.3742 40.304C54.6542 40.376 54.9062 40.48 55.1302 40.616C55.3622 40.744 55.5502 40.924 55.6942 41.156C55.8382 41.38 55.9102 41.676 55.9102 42.044C55.9102 42.444 55.7902 42.8 55.5502 43.112C55.3102 43.416 54.9622 43.656 54.5062 43.832C54.0582 44.008 53.5102 44.096 52.8622 44.096ZM3.54967 60.096C2.99767 60.096 2.46567 60.032 1.95367 59.904C1.44967 59.768 1.04967 59.6 0.753672 59.4L1.37767 58.056C1.67367 58.24 2.02167 58.392 2.42167 58.512C2.82967 58.624 3.22967 58.68 3.62167 58.68C4.05367 58.68 4.35767 58.628 4.53367 58.524C4.71767 58.42 4.80967 58.276 4.80967 58.092C4.80967 57.94 4.73767 57.828 4.59367 57.756C4.45767 57.676 4.27367 57.616 4.04167 57.576C3.80967 57.536 3.55367 57.496 3.27367 57.456C3.00167 57.416 2.72567 57.364 2.44567 57.3C2.16567 57.228 1.90967 57.124 1.67767 56.988C1.44567 56.852 1.25767 56.668 1.11367 56.436C0.977672 56.204 0.909672 55.904 0.909672 55.536C0.909672 55.128 1.02567 54.768 1.25767 54.456C1.49767 54.144 1.84167 53.9 2.28967 53.724C2.73767 53.54 3.27367 53.448 3.89767 53.448C4.33767 53.448 4.78567 53.496 5.24167 53.592C5.69767 53.688 6.07767 53.828 6.38167 54.012L5.75767 55.344C5.44567 55.16 5.12967 55.036 4.80967 54.972C4.49767 54.9 4.19367 54.864 3.89767 54.864C3.48167 54.864 3.17767 54.92 2.98567 55.032C2.79367 55.144 2.69767 55.288 2.69767 55.464C2.69767 55.624 2.76567 55.744 2.90167 55.824C3.04567 55.904 3.23367 55.968 3.46567 56.016C3.69767 56.064 3.94967 56.108 4.22167 56.148C4.50167 56.18 4.78167 56.232 5.06167 56.304C5.34167 56.376 5.59367 56.48 5.81767 56.616C6.04967 56.744 6.23767 56.924 6.38167 57.156C6.52567 57.38 6.59767 57.676 6.59767 58.044C6.59767 58.444 6.47767 58.8 6.23767 59.112C5.99767 59.416 5.64967 59.656 5.19367 59.832C4.74567 60.008 4.19767 60.096 3.54967 60.096ZM10.9567 60.096C10.2207 60.096 9.57267 59.952 9.01267 59.664C8.46067 59.376 8.03267 58.984 7.72867 58.488C7.42467 57.984 7.27267 57.412 7.27267 56.772C7.27267 56.124 7.42067 55.552 7.71667 55.056C8.02067 54.552 8.43267 54.16 8.95267 53.88C9.47267 53.592 10.0607 53.448 10.7167 53.448C11.3487 53.448 11.9167 53.584 12.4207 53.856C12.9327 54.12 13.3367 54.504 13.6327 55.008C13.9287 55.504 14.0767 56.1 14.0767 56.796C14.0767 56.868 14.0727 56.952 14.0647 57.048C14.0567 57.136 14.0487 57.22 14.0407 57.3H8.79667V56.208H13.0567L12.3367 56.532C12.3367 56.196 12.2687 55.904 12.1327 55.656C11.9967 55.408 11.8087 55.216 11.5687 55.08C11.3287 54.936 11.0487 54.864 10.7287 54.864C10.4087 54.864 10.1247 54.936 9.87667 55.08C9.63667 55.216 9.44867 55.412 9.31267 55.668C9.17667 55.916 9.10867 56.212 9.10867 56.556V56.844C9.10867 57.196 9.18467 57.508 9.33667 57.78C9.49667 58.044 9.71667 58.248 9.99667 58.392C10.2847 58.528 10.6207 58.596 11.0047 58.596C11.3487 58.596 11.6487 58.544 11.9047 58.44C12.1687 58.336 12.4087 58.18 12.6247 57.972L13.6207 59.052C13.3247 59.388 12.9527 59.648 12.5047 59.832C12.0567 60.008 11.5407 60.096 10.9567 60.096ZM15.323 60V53.544H17.111V55.368L16.859 54.84C17.051 54.384 17.359 54.04 17.783 53.808C18.207 53.568 18.723 53.448 19.331 53.448V55.176C19.251 55.168 19.179 55.164 19.115 55.164C19.051 55.156 18.983 55.152 18.911 55.152C18.399 55.152 17.983 55.3 17.663 55.596C17.351 55.884 17.195 56.336 17.195 56.952V60H15.323ZM22.4187 60L19.7067 53.544H21.6387L23.8947 59.1H22.9347L25.2747 53.544H27.0747L24.3507 60H22.4187ZM27.8386 60V53.544H29.7106V60H27.8386ZM28.7746 52.644C28.4306 52.644 28.1506 52.544 27.9346 52.344C27.7186 52.144 27.6106 51.896 27.6106 51.6C27.6106 51.304 27.7186 51.056 27.9346 50.856C28.1506 50.656 28.4306 50.556 28.7746 50.556C29.1186 50.556 29.3986 50.652 29.6146 50.844C29.8306 51.028 29.9386 51.268 29.9386 51.564C29.9386 51.876 29.8306 52.136 29.6146 52.344C29.4066 52.544 29.1266 52.644 28.7746 52.644ZM34.568 60.096C33.872 60.096 33.252 59.956 32.708 59.676C32.164 59.388 31.736 58.992 31.424 58.488C31.12 57.984 30.968 57.412 30.968 56.772C30.968 56.124 31.12 55.552 31.424 55.056C31.736 54.552 32.164 54.16 32.708 53.88C33.252 53.592 33.872 53.448 34.568 53.448C35.248 53.448 35.84 53.592 36.344 53.88C36.848 54.16 37.22 54.564 37.46 55.092L36.008 55.872C35.84 55.568 35.628 55.344 35.372 55.2C35.124 55.056 34.852 54.984 34.556 54.984C34.236 54.984 33.948 55.056 33.692 55.2C33.436 55.344 33.232 55.548 33.08 55.812C32.936 56.076 32.864 56.396 32.864 56.772C32.864 57.148 32.936 57.468 33.08 57.732C33.232 57.996 33.436 58.2 33.692 58.344C33.948 58.488 34.236 58.56 34.556 58.56C34.852 58.56 35.124 58.492 35.372 58.356C35.628 58.212 35.84 57.984 36.008 57.672L37.46 58.464C37.22 58.984 36.848 59.388 36.344 59.676C35.84 59.956 35.248 60.096 34.568 60.096ZM38.5027 60V53.544H40.3747V60H38.5027ZM39.4387 52.644C39.0947 52.644 38.8147 52.544 38.5987 52.344C38.3827 52.144 38.2747 51.896 38.2747 51.6C38.2747 51.304 38.3827 51.056 38.5987 50.856C38.8147 50.656 39.0947 50.556 39.4387 50.556C39.7827 50.556 40.0627 50.652 40.2787 50.844C40.4947 51.028 40.6027 51.268 40.6027 51.564C40.6027 51.876 40.4947 52.136 40.2787 52.344C40.0707 52.544 39.7907 52.644 39.4387 52.644ZM45.184 60.096C44.496 60.096 43.884 59.952 43.348 59.664C42.82 59.376 42.4 58.984 42.088 58.488C41.784 57.984 41.632 57.412 41.632 56.772C41.632 56.124 41.784 55.552 42.088 55.056C42.4 54.552 42.82 54.16 43.348 53.88C43.884 53.592 44.496 53.448 45.184 53.448C45.864 53.448 46.472 53.592 47.008 53.88C47.544 54.16 47.964 54.548 48.268 55.044C48.572 55.54 48.724 56.116 48.724 56.772C48.724 57.412 48.572 57.984 48.268 58.488C47.964 58.984 47.544 59.376 47.008 59.664C46.472 59.952 45.864 60.096 45.184 60.096ZM45.184 58.56C45.496 58.56 45.776 58.488 46.024 58.344C46.272 58.2 46.468 57.996 46.612 57.732C46.756 57.46 46.828 57.14 46.828 56.772C46.828 56.396 46.756 56.076 46.612 55.812C46.468 55.548 46.272 55.344 46.024 55.2C45.776 55.056 45.496 54.984 45.184 54.984C44.872 54.984 44.592 55.056 44.344 55.2C44.096 55.344 43.896 55.548 43.744 55.812C43.6 56.076 43.528 56.396 43.528 56.772C43.528 57.14 43.6 57.46 43.744 57.732C43.896 57.996 44.096 58.2 44.344 58.344C44.592 58.488 44.872 58.56 45.184 58.56ZM52.1473 60.096C51.5953 60.096 51.0633 60.032 50.5513 59.904C50.0473 59.768 49.6473 59.6 49.3513 59.4L49.9753 58.056C50.2713 58.24 50.6193 58.392 51.0193 58.512C51.4273 58.624 51.8273 58.68 52.2193 58.68C52.6513 58.68 52.9553 58.628 53.1313 58.524C53.3153 58.42 53.4073 58.276 53.4073 58.092C53.4073 57.94 53.3353 57.828 53.1913 57.756C53.0553 57.676 52.8713 57.616 52.6393 57.576C52.4073 57.536 52.1513 57.496 51.8713 57.456C51.5993 57.416 51.3233 57.364 51.0433 57.3C50.7633 57.228 50.5073 57.124 50.2753 56.988C50.0433 56.852 49.8553 56.668 49.7113 56.436C49.5753 56.204 49.5073 55.904 49.5073 55.536C49.5073 55.128 49.6233 54.768 49.8553 54.456C50.0953 54.144 50.4393 53.9 50.8873 53.724C51.3353 53.54 51.8713 53.448 52.4953 53.448C52.9353 53.448 53.3833 53.496 53.8393 53.592C54.2953 53.688 54.6753 53.828 54.9793 54.012L54.3553 55.344C54.0433 55.16 53.7273 55.036 53.4073 54.972C53.0953 54.9 52.7913 54.864 52.4953 54.864C52.0793 54.864 51.7753 54.92 51.5833 55.032C51.3913 55.144 51.2953 55.288 51.2953 55.464C51.2953 55.624 51.3633 55.744 51.4993 55.824C51.6433 55.904 51.8313 55.968 52.0633 56.016C52.2953 56.064 52.5473 56.108 52.8193 56.148C53.0993 56.18 53.3793 56.232 53.6593 56.304C53.9393 56.376 54.1913 56.48 54.4153 56.616C54.6473 56.744 54.8353 56.924 54.9793 57.156C55.1233 57.38 55.1953 57.676 55.1953 58.044C55.1953 58.444 55.0753 58.8 54.8353 59.112C54.5953 59.416 54.2473 59.656 53.7913 59.832C53.3433 60.008 52.7953 60.096 52.1473 60.096Z" fill="#100FA8"/>
<line x1="42.667" y1="11.75" x2="63.667" y2="11.75" stroke="#100FA8" stroke-width="0.5"/>
<line x1="63.667" y1="11.75" x2="84.667" y2="11.75" stroke="#100FA8" stroke-width="0.5"/>
<rect x="87.333" width="24" height="24" rx="4" fill="#100FA8"/>
<path d="M96.2145 15.9982L96.212 14.7382L99.4457 11.6716C99.7012 11.4391 99.8888 11.2307 100.008 11.0464C100.128 10.8622 100.208 10.694 100.247 10.5419C100.295 10.3898 100.319 10.2498 100.319 10.1218C100.318 9.78579 100.201 9.53003 99.9689 9.35451C99.7446 9.17097 99.4124 9.07965 98.9724 9.08055C98.6204 9.08127 98.2925 9.14994 97.9888 9.28657C97.6931 9.42317 97.4415 9.63569 97.2341 9.92412L95.8162 9.01502C96.1352 8.53436 96.5825 8.15345 97.1579 7.87227C97.7333 7.59109 98.397 7.44973 99.149 7.44819C99.773 7.44691 100.317 7.54979 100.782 7.75684C101.254 7.95587 101.619 8.23912 101.875 8.6066C102.14 8.97406 102.273 9.41379 102.274 9.92578C102.275 10.1978 102.239 10.4699 102.168 10.742C102.104 11.0061 101.969 11.2864 101.762 11.5828C101.562 11.8792 101.267 12.2119 100.876 12.5807L98.1927 15.1182L97.8193 14.4109L102.559 14.4012L102.563 15.9852L96.2145 15.9982Z" fill="white"/>
<path d="M82.0419 44V35.6H85.8579C86.7699 35.6 87.5739 35.776 88.2699 36.128C88.9659 36.472 89.5099 36.956 89.9019 37.58C90.2939 38.204 90.4899 38.944 90.4899 39.8C90.4899 40.648 90.2939 41.388 89.9019 42.02C89.5099 42.644 88.9659 43.132 88.2699 43.484C87.5739 43.828 86.7699 44 85.8579 44H82.0419ZM83.9859 42.404H85.7619C86.3219 42.404 86.8059 42.3 87.2139 42.092C87.6299 41.876 87.9499 41.572 88.1739 41.18C88.4059 40.788 88.5219 40.328 88.5219 39.8C88.5219 39.264 88.4059 38.804 88.1739 38.42C87.9499 38.028 87.6299 37.728 87.2139 37.52C86.8059 37.304 86.3219 37.196 85.7619 37.196H83.9859V42.404ZM95.784 44V42.74L95.664 42.464V40.208C95.664 39.808 95.54 39.496 95.292 39.272C95.052 39.048 94.68 38.936 94.176 38.936C93.832 38.936 93.492 38.992 93.156 39.104C92.828 39.208 92.548 39.352 92.316 39.536L91.644 38.228C91.996 37.98 92.42 37.788 92.916 37.652C93.412 37.516 93.916 37.448 94.428 37.448C95.412 37.448 96.176 37.68 96.72 38.144C97.264 38.608 97.536 39.332 97.536 40.316V44H95.784ZM93.816 44.096C93.312 44.096 92.88 44.012 92.52 43.844C92.16 43.668 91.884 43.432 91.692 43.136C91.5 42.84 91.404 42.508 91.404 42.14C91.404 41.756 91.496 41.42 91.68 41.132C91.872 40.844 92.172 40.62 92.58 40.46C92.988 40.292 93.52 40.208 94.176 40.208H95.892V41.3H94.38C93.94 41.3 93.636 41.372 93.468 41.516C93.308 41.66 93.228 41.84 93.228 42.056C93.228 42.296 93.32 42.488 93.504 42.632C93.696 42.768 93.956 42.836 94.284 42.836C94.596 42.836 94.876 42.764 95.124 42.62C95.372 42.468 95.552 42.248 95.664 41.96L95.952 42.824C95.816 43.24 95.568 43.556 95.208 43.772C94.848 43.988 94.384 44.096 93.816 44.096ZM101.87 44.096C101.11 44.096 100.518 43.904 100.094 43.52C99.6702 43.128 99.4582 42.548 99.4582 41.78V36.116H101.33V41.756C101.33 42.028 101.402 42.24 101.546 42.392C101.69 42.536 101.886 42.608 102.134 42.608C102.43 42.608 102.682 42.528 102.89 42.368L103.394 43.688C103.202 43.824 102.97 43.928 102.698 44C102.434 44.064 102.158 44.096 101.87 44.096ZM98.4622 39.128V37.688H102.938V39.128H98.4622ZM107.318 44.096C106.63 44.096 106.018 43.952 105.482 43.664C104.954 43.376 104.534 42.984 104.222 42.488C103.918 41.984 103.766 41.412 103.766 40.772C103.766 40.124 103.918 39.552 104.222 39.056C104.534 38.552 104.954 38.16 105.482 37.88C106.018 37.592 106.63 37.448 107.318 37.448C107.998 37.448 108.606 37.592 109.142 37.88C109.678 38.16 110.098 38.548 110.402 39.044C110.706 39.54 110.858 40.116 110.858 40.772C110.858 41.412 110.706 41.984 110.402 42.488C110.098 42.984 109.678 43.376 109.142 43.664C108.606 43.952 107.998 44.096 107.318 44.096ZM107.318 42.56C107.63 42.56 107.91 42.488 108.158 42.344C108.406 42.2 108.602 41.996 108.746 41.732C108.89 41.46 108.962 41.14 108.962 40.772C108.962 40.396 108.89 40.076 108.746 39.812C108.602 39.548 108.406 39.344 108.158 39.2C107.91 39.056 107.63 38.984 107.318 38.984C107.006 38.984 106.726 39.056 106.478 39.2C106.23 39.344 106.03 39.548 105.878 39.812C105.734 40.076 105.662 40.396 105.662 40.772C105.662 41.14 105.734 41.46 105.878 41.732C106.03 41.996 106.23 42.2 106.478 42.344C106.726 42.488 107.006 42.56 107.318 42.56ZM114.281 44.096C113.729 44.096 113.197 44.032 112.685 43.904C112.181 43.768 111.781 43.6 111.485 43.4L112.109 42.056C112.405 42.24 112.753 42.392 113.153 42.512C113.561 42.624 113.961 42.68 114.353 42.68C114.785 42.68 115.089 42.628 115.265 42.524C115.449 42.42 115.541 42.276 115.541 42.092C115.541 41.94 115.469 41.828 115.325 41.756C115.189 41.676 115.005 41.616 114.773 41.576C114.541 41.536 114.285 41.496 114.005 41.456C113.733 41.416 113.457 41.364 113.177 41.3C112.897 41.228 112.641 41.124 112.409 40.988C112.177 40.852 111.989 40.668 111.845 40.436C111.709 40.204 111.641 39.904 111.641 39.536C111.641 39.128 111.757 38.768 111.989 38.456C112.229 38.144 112.573 37.9 113.021 37.724C113.469 37.54 114.005 37.448 114.629 37.448C115.069 37.448 115.517 37.496 115.973 37.592C116.429 37.688 116.809 37.828 117.113 38.012L116.489 39.344C116.177 39.16 115.861 39.036 115.541 38.972C115.229 38.9 114.925 38.864 114.629 38.864C114.213 38.864 113.909 38.92 113.717 39.032C113.525 39.144 113.429 39.288 113.429 39.464C113.429 39.624 113.497 39.744 113.633 39.824C113.777 39.904 113.965 39.968 114.197 40.016C114.429 40.064 114.681 40.108 114.953 40.148C115.233 40.18 115.513 40.232 115.793 40.304C116.073 40.376 116.325 40.48 116.549 40.616C116.781 40.744 116.969 40.924 117.113 41.156C117.257 41.38 117.329 41.676 117.329 42.044C117.329 42.444 117.209 42.8 116.969 43.112C116.729 43.416 116.381 43.656 115.925 43.832C115.477 44.008 114.929 44.096 114.281 44.096ZM69.7532 60.096C69.2092 60.096 68.7332 59.976 68.3252 59.736C67.9172 59.496 67.5972 59.132 67.3652 58.644C67.1412 58.148 67.0292 57.524 67.0292 56.772C67.0292 56.012 67.1372 55.388 67.3532 54.9C67.5692 54.412 67.8812 54.048 68.2892 53.808C68.6972 53.568 69.1852 53.448 69.7532 53.448C70.3612 53.448 70.9052 53.588 71.3852 53.868C71.8732 54.14 72.2572 54.524 72.5372 55.02C72.8252 55.516 72.9692 56.1 72.9692 56.772C72.9692 57.452 72.8252 58.04 72.5372 58.536C72.2572 59.032 71.8732 59.416 71.3852 59.688C70.9052 59.96 70.3612 60.096 69.7532 60.096ZM65.9372 62.328V53.544H67.7252V54.864L67.6892 56.784L67.8092 58.692V62.328H65.9372ZM69.4292 58.56C69.7412 58.56 70.0172 58.488 70.2572 58.344C70.5052 58.2 70.7012 57.996 70.8452 57.732C70.9972 57.46 71.0732 57.14 71.0732 56.772C71.0732 56.396 70.9972 56.076 70.8452 55.812C70.7012 55.548 70.5052 55.344 70.2572 55.2C70.0172 55.056 69.7412 54.984 69.4292 54.984C69.1172 54.984 68.8372 55.056 68.5892 55.2C68.3412 55.344 68.1452 55.548 68.0012 55.812C67.8572 56.076 67.7852 56.396 67.7852 56.772C67.7852 57.14 67.8572 57.46 68.0012 57.732C68.1452 57.996 68.3412 58.2 68.5892 58.344C68.8372 58.488 69.1172 58.56 69.4292 58.56ZM77.4264 60.096C76.6904 60.096 76.0424 59.952 75.4824 59.664C74.9304 59.376 74.5024 58.984 74.1984 58.488C73.8944 57.984 73.7424 57.412 73.7424 56.772C73.7424 56.124 73.8904 55.552 74.1864 55.056C74.4904 54.552 74.9024 54.16 75.4224 53.88C75.9424 53.592 76.5304 53.448 77.1864 53.448C77.8184 53.448 78.3864 53.584 78.8904 53.856C79.4024 54.12 79.8064 54.504 80.1024 55.008C80.3984 55.504 80.5464 56.1 80.5464 56.796C80.5464 56.868 80.5424 56.952 80.5344 57.048C80.5264 57.136 80.5184 57.22 80.5104 57.3H75.2664V56.208H79.5264L78.8064 56.532C78.8064 56.196 78.7384 55.904 78.6024 55.656C78.4664 55.408 78.2784 55.216 78.0384 55.08C77.7984 54.936 77.5184 54.864 77.1984 54.864C76.8784 54.864 76.5944 54.936 76.3464 55.08C76.1064 55.216 75.9184 55.412 75.7824 55.668C75.6464 55.916 75.5784 56.212 75.5784 56.556V56.844C75.5784 57.196 75.6544 57.508 75.8064 57.78C75.9664 58.044 76.1864 58.248 76.4664 58.392C76.7544 58.528 77.0904 58.596 77.4744 58.596C77.8184 58.596 78.1184 58.544 78.3744 58.44C78.6384 58.336 78.8784 58.18 79.0944 57.972L80.0904 59.052C79.7944 59.388 79.4224 59.648 78.9744 59.832C78.5264 60.008 78.0104 60.096 77.4264 60.096ZM81.7927 60V53.544H83.5807V55.368L83.3287 54.84C83.5207 54.384 83.8287 54.04 84.2527 53.808C84.6767 53.568 85.1927 53.448 85.8007 53.448V55.176C85.7207 55.168 85.6487 55.164 85.5847 55.164C85.5207 55.156 85.4527 55.152 85.3807 55.152C84.8687 55.152 84.4527 55.3 84.1327 55.596C83.8207 55.884 83.6647 56.336 83.6647 56.952V60H81.7927ZM89.1327 60.096C88.5807 60.096 88.0487 60.032 87.5367 59.904C87.0327 59.768 86.6327 59.6 86.3367 59.4L86.9607 58.056C87.2567 58.24 87.6047 58.392 88.0047 58.512C88.4127 58.624 88.8127 58.68 89.2047 58.68C89.6367 58.68 89.9407 58.628 90.1167 58.524C90.3007 58.42 90.3927 58.276 90.3927 58.092C90.3927 57.94 90.3207 57.828 90.1767 57.756C90.0407 57.676 89.8567 57.616 89.6247 57.576C89.3927 57.536 89.1367 57.496 88.8567 57.456C88.5847 57.416 88.3087 57.364 88.0287 57.3C87.7487 57.228 87.4927 57.124 87.2607 56.988C87.0287 56.852 86.8407 56.668 86.6967 56.436C86.5607 56.204 86.4927 55.904 86.4927 55.536C86.4927 55.128 86.6087 54.768 86.8407 54.456C87.0807 54.144 87.4247 53.9 87.8727 53.724C88.3207 53.54 88.8567 53.448 89.4807 53.448C89.9207 53.448 90.3687 53.496 90.8247 53.592C91.2807 53.688 91.6607 53.828 91.9647 54.012L91.3407 55.344C91.0287 55.16 90.7127 55.036 90.3927 54.972C90.0807 54.9 89.7767 54.864 89.4807 54.864C89.0647 54.864 88.7607 54.92 88.5687 55.032C88.3767 55.144 88.2807 55.288 88.2807 55.464C88.2807 55.624 88.3487 55.744 88.4847 55.824C88.6287 55.904 88.8167 55.968 89.0487 56.016C89.2807 56.064 89.5327 56.108 89.8047 56.148C90.0847 56.18 90.3647 56.232 90.6447 56.304C90.9247 56.376 91.1767 56.48 91.4007 56.616C91.6327 56.744 91.8207 56.924 91.9647 57.156C92.1087 57.38 92.1807 57.676 92.1807 58.044C92.1807 58.444 92.0607 58.8 91.8207 59.112C91.5807 59.416 91.2327 59.656 90.7767 59.832C90.3287 60.008 89.7807 60.096 89.1327 60.096ZM96.4077 60.096C95.7197 60.096 95.1077 59.952 94.5717 59.664C94.0437 59.376 93.6237 58.984 93.3117 58.488C93.0077 57.984 92.8557 57.412 92.8557 56.772C92.8557 56.124 93.0077 55.552 93.3117 55.056C93.6237 54.552 94.0437 54.16 94.5717 53.88C95.1077 53.592 95.7197 53.448 96.4077 53.448C97.0877 53.448 97.6957 53.592 98.2317 53.88C98.7677 54.16 99.1877 54.548 99.4917 55.044C99.7957 55.54 99.9477 56.116 99.9477 56.772C99.9477 57.412 99.7957 57.984 99.4917 58.488C99.1877 58.984 98.7677 59.376 98.2317 59.664C97.6957 59.952 97.0877 60.096 96.4077 60.096ZM96.4077 58.56C96.7197 58.56 96.9997 58.488 97.2477 58.344C97.4957 58.2 97.6917 57.996 97.8357 57.732C97.9797 57.46 98.0517 57.14 98.0517 56.772C98.0517 56.396 97.9797 56.076 97.8357 55.812C97.6917 55.548 97.4957 55.344 97.2477 55.2C96.9997 55.056 96.7197 54.984 96.4077 54.984C96.0957 54.984 95.8157 55.056 95.5677 55.2C95.3197 55.344 95.1197 55.548 94.9677 55.812C94.8237 56.076 94.7517 56.396 94.7517 56.772C94.7517 57.14 94.8237 57.46 94.9677 57.732C95.1197 57.996 95.3197 58.2 95.5677 58.344C95.8157 58.488 96.0957 58.56 96.4077 58.56ZM105.123 53.448C105.635 53.448 106.091 53.552 106.491 53.76C106.899 53.96 107.219 54.272 107.451 54.696C107.683 55.112 107.799 55.648 107.799 56.304V60H105.927V56.592C105.927 56.072 105.811 55.688 105.579 55.44C105.355 55.192 105.035 55.068 104.619 55.068C104.323 55.068 104.055 55.132 103.815 55.26C103.583 55.38 103.399 55.568 103.263 55.824C103.135 56.08 103.071 56.408 103.071 56.808V60H101.199V53.544H102.987V55.332L102.651 54.792C102.883 54.36 103.215 54.028 103.647 53.796C104.079 53.564 104.571 53.448 105.123 53.448ZM113.456 60V58.74L113.336 58.464V56.208C113.336 55.808 113.212 55.496 112.964 55.272C112.724 55.048 112.352 54.936 111.848 54.936C111.504 54.936 111.164 54.992 110.828 55.104C110.5 55.208 110.22 55.352 109.988 55.536L109.316 54.228C109.668 53.98 110.092 53.788 110.588 53.652C111.084 53.516 111.588 53.448 112.1 53.448C113.084 53.448 113.848 53.68 114.392 54.144C114.936 54.608 115.208 55.332 115.208 56.316V60H113.456ZM111.488 60.096C110.984 60.096 110.552 60.012 110.192 59.844C109.832 59.668 109.556 59.432 109.364 59.136C109.172 58.84 109.076 58.508 109.076 58.14C109.076 57.756 109.168 57.42 109.352 57.132C109.544 56.844 109.844 56.62 110.252 56.46C110.66 56.292 111.192 56.208 111.848 56.208H113.564V57.3H112.052C111.612 57.3 111.308 57.372 111.14 57.516C110.98 57.66 110.9 57.84 110.9 58.056C110.9 58.296 110.992 58.488 111.176 58.632C111.368 58.768 111.628 58.836 111.956 58.836C112.268 58.836 112.548 58.764 112.796 58.62C113.044 58.468 113.224 58.248 113.336 57.96L113.624 58.824C113.488 59.24 113.24 59.556 112.88 59.772C112.52 59.988 112.056 60.096 111.488 60.096ZM116.902 60V51.096H118.774V60H116.902ZM123.715 60.096C122.979 60.096 122.331 59.952 121.771 59.664C121.219 59.376 120.791 58.984 120.487 58.488C120.183 57.984 120.031 57.412 120.031 56.772C120.031 56.124 120.179 55.552 120.475 55.056C120.779 54.552 121.191 54.16 121.711 53.88C122.231 53.592 122.819 53.448 123.475 53.448C124.107 53.448 124.675 53.584 125.179 53.856C125.691 54.12 126.095 54.504 126.391 55.008C126.687 55.504 126.835 56.1 126.835 56.796C126.835 56.868 126.831 56.952 126.823 57.048C126.815 57.136 126.807 57.22 126.799 57.3H121.555V56.208H125.815L125.095 56.532C125.095 56.196 125.027 55.904 124.891 55.656C124.755 55.408 124.567 55.216 124.327 55.08C124.087 54.936 123.807 54.864 123.487 54.864C123.167 54.864 122.883 54.936 122.635 55.08C122.395 55.216 122.207 55.412 122.071 55.668C121.935 55.916 121.867 56.212 121.867 56.556V56.844C121.867 57.196 121.943 57.508 122.095 57.78C122.255 58.044 122.475 58.248 122.755 58.392C123.043 58.528 123.379 58.596 123.763 58.596C124.107 58.596 124.407 58.544 124.663 58.44C124.927 58.336 125.167 58.18 125.383 57.972L126.379 59.052C126.083 59.388 125.711 59.648 125.263 59.832C124.815 60.008 124.299 60.096 123.715 60.096ZM130.254 60.096C129.702 60.096 129.17 60.032 128.658 59.904C128.154 59.768 127.754 59.6 127.458 59.4L128.082 58.056C128.378 58.24 128.726 58.392 129.126 58.512C129.534 58.624 129.934 58.68 130.326 58.68C130.758 58.68 131.062 58.628 131.238 58.524C131.422 58.42 131.514 58.276 131.514 58.092C131.514 57.94 131.442 57.828 131.298 57.756C131.162 57.676 130.978 57.616 130.746 57.576C130.514 57.536 130.258 57.496 129.978 57.456C129.706 57.416 129.43 57.364 129.15 57.3C128.87 57.228 128.614 57.124 128.382 56.988C128.15 56.852 127.962 56.668 127.818 56.436C127.682 56.204 127.614 55.904 127.614 55.536C127.614 55.128 127.73 54.768 127.962 54.456C128.202 54.144 128.546 53.9 128.994 53.724C129.442 53.54 129.978 53.448 130.602 53.448C131.042 53.448 131.49 53.496 131.946 53.592C132.402 53.688 132.782 53.828 133.086 54.012L132.462 55.344C132.15 55.16 131.834 55.036 131.514 54.972C131.202 54.9 130.898 54.864 130.602 54.864C130.186 54.864 129.882 54.92 129.69 55.032C129.498 55.144 129.402 55.288 129.402 55.464C129.402 55.624 129.47 55.744 129.606 55.824C129.75 55.904 129.938 55.968 130.17 56.016C130.402 56.064 130.654 56.108 130.926 56.148C131.206 56.18 131.486 56.232 131.766 56.304C132.046 56.376 132.298 56.48 132.522 56.616C132.754 56.744 132.942 56.924 133.086 57.156C133.23 57.38 133.302 57.676 133.302 58.044C133.302 58.444 133.182 58.8 132.942 59.112C132.702 59.416 132.354 59.656 131.898 59.832C131.45 60.008 130.902 60.096 130.254 60.096Z" fill="#100FA8"/>
<line x1="114" y1="11.75" x2="135" y2="11.75" stroke="#100FA8" stroke-width="0.5"/>
<line x1="135" y1="11.75" x2="156" y2="11.75" stroke="#9999AD" stroke-width="0.5"/>
<rect x="158.667" width="24" height="24" rx="4" fill="#CCCCD6"/>
<path d="M170.333 16.1365C169.749 16.1377 169.169 16.0629 168.593 15.9121C168.016 15.7533 167.528 15.5303 167.127 15.2431L167.88 13.7535C168.201 13.9849 168.573 14.1681 168.997 14.3032C169.422 14.4384 169.85 14.5055 170.282 14.5046C170.77 14.5036 171.154 14.4068 171.433 14.2143C171.713 14.0217 171.852 13.7574 171.852 13.4214C171.851 13.1014 171.726 12.8496 171.478 12.6662C171.23 12.4827 170.829 12.3915 170.277 12.3926L169.389 12.3944L169.387 11.1104L171.721 8.45365L171.939 9.1492L167.535 9.15823L167.532 7.59823L173.412 7.58618L173.414 8.84618L171.092 11.5029L170.106 10.941L170.67 10.9398C171.702 10.9377 172.483 11.1681 173.012 11.631C173.541 12.0939 173.806 12.6894 173.808 13.4174C173.808 13.8894 173.685 14.3336 173.438 14.7501C173.191 15.1587 172.812 15.4914 172.3 15.7485C171.789 16.0055 171.133 16.1349 170.333 16.1365Z" fill="#9999AD"/>
<path d="M148.999 44.144C151.399 44.144 152.563 42.944 152.563 41.54C152.563 38.456 147.679 39.524 147.679 37.976C147.679 37.448 148.123 37.016 149.275 37.016C150.019 37.016 150.823 37.232 151.603 37.676L152.203 36.2C151.423 35.708 150.343 35.456 149.287 35.456C146.899 35.456 145.747 36.644 145.747 38.072C145.747 41.192 150.631 40.112 150.631 41.684C150.631 42.2 150.163 42.584 149.011 42.584C148.003 42.584 146.947 42.224 146.239 41.708L145.579 43.172C146.323 43.748 147.667 44.144 148.999 44.144ZM156.832 44.096C158.884 44.096 160.372 42.716 160.372 40.772C160.372 38.828 158.884 37.448 156.832 37.448C154.78 37.448 153.28 38.828 153.28 40.772C153.28 42.716 154.78 44.096 156.832 44.096ZM156.832 42.56C155.896 42.56 155.176 41.888 155.176 40.772C155.176 39.656 155.896 38.984 156.832 38.984C157.768 38.984 158.476 39.656 158.476 40.772C158.476 41.888 157.768 42.56 156.832 42.56ZM165.439 37.448C164.635 37.448 163.975 37.7 163.495 38.228V35.096H161.623V44H163.411V43.256C163.879 43.82 164.575 44.096 165.439 44.096C167.251 44.096 168.655 42.8 168.655 40.772C168.655 38.744 167.251 37.448 165.439 37.448ZM165.115 42.56C164.179 42.56 163.471 41.888 163.471 40.772C163.471 39.656 164.179 38.984 165.115 38.984C166.051 38.984 166.759 39.656 166.759 40.772C166.759 41.888 166.051 42.56 165.115 42.56ZM171.696 38.396V37.544H169.908V44H171.78V40.952C171.78 39.716 172.464 39.152 173.496 39.152C173.64 39.152 173.76 39.164 173.916 39.176V37.448C172.92 37.448 172.152 37.772 171.696 38.396ZM181.294 40.796C181.294 38.72 179.83 37.448 177.934 37.448C175.966 37.448 174.49 38.84 174.49 40.772C174.49 42.692 175.942 44.096 178.174 44.096C179.338 44.096 180.238 43.736 180.838 43.052L179.842 41.972C179.398 42.392 178.906 42.596 178.222 42.596C177.238 42.596 176.554 42.104 176.374 41.3H181.258C181.27 41.144 181.294 40.94 181.294 40.796ZM177.946 38.864C178.786 38.864 179.398 39.392 179.53 40.208H176.35C176.482 39.38 177.094 38.864 177.946 38.864ZM185.939 44H187.811V35.096H185.939V44ZM192.153 37.448C191.121 37.448 190.077 37.724 189.369 38.228L190.041 39.536C190.509 39.164 191.217 38.936 191.901 38.936C192.909 38.936 193.389 39.404 193.389 40.208H191.901C189.933 40.208 189.129 41 189.129 42.14C189.129 43.256 190.029 44.096 191.541 44.096C192.489 44.096 193.161 43.784 193.509 43.196V44H195.261V40.316C195.261 38.36 194.121 37.448 192.153 37.448ZM192.009 42.836C191.349 42.836 190.953 42.524 190.953 42.056C190.953 41.624 191.229 41.3 192.105 41.3H193.389V41.96C193.173 42.548 192.633 42.836 192.009 42.836ZM150.427 56.796C150.427 54.72 148.963 53.448 147.067 53.448C145.099 53.448 143.623 54.84 143.623 56.772C143.623 58.692 145.075 60.096 147.307 60.096C148.471 60.096 149.371 59.736 149.971 59.052L148.975 57.972C148.531 58.392 148.039 58.596 147.355 58.596C146.371 58.596 145.687 58.104 145.507 57.3H150.391C150.403 57.144 150.427 56.94 150.427 56.796ZM147.079 54.864C147.919 54.864 148.531 55.392 148.663 56.208H145.483C145.615 55.38 146.227 54.864 147.079 54.864ZM159.942 53.448C158.97 53.448 158.13 53.844 157.614 54.504C157.158 53.796 156.39 53.448 155.49 53.448C154.662 53.448 153.942 53.736 153.462 54.288V53.544H151.674V60H153.546V56.76C153.546 55.608 154.134 55.068 154.962 55.068C155.742 55.068 156.186 55.548 156.186 56.592V60H158.058V56.76C158.058 55.608 158.646 55.068 159.486 55.068C160.242 55.068 160.71 55.548 160.71 56.592V60H162.582V56.304C162.582 54.336 161.478 53.448 159.942 53.448ZM168.076 53.448C167.212 53.448 166.516 53.724 166.048 54.288V53.544H164.26V62.328H166.132V59.316C166.612 59.844 167.272 60.096 168.076 60.096C169.888 60.096 171.292 58.8 171.292 56.772C171.292 54.744 169.888 53.448 168.076 53.448ZM167.752 58.56C166.816 58.56 166.108 57.888 166.108 56.772C166.108 55.656 166.816 54.984 167.752 54.984C168.688 54.984 169.396 55.656 169.396 56.772C169.396 57.888 168.688 58.56 167.752 58.56ZM174.333 54.396V53.544H172.545V60H174.417V56.952C174.417 55.716 175.101 55.152 176.133 55.152C176.277 55.152 176.397 55.164 176.553 55.176V53.448C175.557 53.448 174.789 53.772 174.333 54.396ZM183.931 56.796C183.931 54.72 182.467 53.448 180.571 53.448C178.603 53.448 177.127 54.84 177.127 56.772C177.127 58.692 178.579 60.096 180.811 60.096C181.975 60.096 182.875 59.736 183.475 59.052L182.479 57.972C182.035 58.392 181.543 58.596 180.859 58.596C179.875 58.596 179.191 58.104 179.011 57.3H183.895C183.907 57.144 183.931 56.94 183.931 56.796ZM180.583 54.864C181.423 54.864 182.035 55.392 182.167 56.208H178.987C179.119 55.38 179.731 54.864 180.583 54.864ZM187.349 60.096C189.281 60.096 190.397 59.244 190.397 58.044C190.397 55.5 186.497 56.568 186.497 55.464C186.497 55.128 186.857 54.864 187.697 54.864C188.285 54.864 188.921 54.984 189.557 55.344L190.181 54.012C189.569 53.652 188.585 53.448 187.697 53.448C185.813 53.448 184.709 54.312 184.709 55.536C184.709 58.116 188.609 57.036 188.609 58.092C188.609 58.452 188.285 58.68 187.421 58.68C186.629 58.68 185.753 58.428 185.177 58.056L184.553 59.4C185.153 59.796 186.257 60.096 187.349 60.096ZM194.156 53.448C193.124 53.448 192.08 53.724 191.372 54.228L192.044 55.536C192.512 55.164 193.22 54.936 193.904 54.936C194.912 54.936 195.392 55.404 195.392 56.208H193.904C191.936 56.208 191.132 57 191.132 58.14C191.132 59.256 192.032 60.096 193.544 60.096C194.492 60.096 195.164 59.784 195.512 59.196V60H197.264V56.316C197.264 54.36 196.124 53.448 194.156 53.448ZM194.012 58.836C193.352 58.836 192.956 58.524 192.956 58.056C192.956 57.624 193.232 57.3 194.108 57.3H195.392V57.96C195.176 58.548 194.636 58.836 194.012 58.836Z" fill="#9999AD"/>
<line x1="185.333" y1="11.75" x2="206.333" y2="11.75" stroke="#9999AD" stroke-width="0.5"/>
<line x1="206.333" y1="11.75" x2="227.333" y2="11.75" stroke="#9999AD" stroke-width="0.5"/>
<rect x="230" width="24" height="24" rx="4" fill="#CCCCD6"/>
<path d="M238.756 14.2345L238.754 12.9265L242.703 7.59037L244.743 7.58619L240.878 12.9221L239.929 12.6481L246.541 12.6345L246.544 14.2185L238.756 14.2345ZM243.284 15.9892L243.28 14.2252L243.337 12.6411L243.334 11.0691L245.17 11.0653L245.18 15.9853L243.284 15.9892Z" fill="#9999AD"/>
<path d="M219.113 44.144C221.513 44.144 222.677 42.944 222.677 41.54C222.677 38.456 217.793 39.524 217.793 37.976C217.793 37.448 218.237 37.016 219.389 37.016C220.133 37.016 220.937 37.232 221.717 37.676L222.317 36.2C221.537 35.708 220.457 35.456 219.401 35.456C217.013 35.456 215.861 36.644 215.861 38.072C215.861 41.192 220.745 40.112 220.745 41.684C220.745 42.2 220.277 42.584 219.125 42.584C218.117 42.584 217.061 42.224 216.353 41.708L215.693 43.172C216.437 43.748 217.781 44.144 219.113 44.144ZM226.946 44.096C228.998 44.096 230.486 42.716 230.486 40.772C230.486 38.828 228.998 37.448 226.946 37.448C224.894 37.448 223.394 38.828 223.394 40.772C223.394 42.716 224.894 44.096 226.946 44.096ZM226.946 42.56C226.01 42.56 225.29 41.888 225.29 40.772C225.29 39.656 226.01 38.984 226.946 38.984C227.882 38.984 228.59 39.656 228.59 40.772C228.59 41.888 227.882 42.56 226.946 42.56ZM235.553 37.448C234.749 37.448 234.089 37.7 233.609 38.228V35.096H231.737V44H233.525V43.256C233.993 43.82 234.689 44.096 235.553 44.096C237.365 44.096 238.769 42.8 238.769 40.772C238.769 38.744 237.365 37.448 235.553 37.448ZM235.229 42.56C234.293 42.56 233.585 41.888 233.585 40.772C233.585 39.656 234.293 38.984 235.229 38.984C236.165 38.984 236.873 39.656 236.873 40.772C236.873 41.888 236.165 42.56 235.229 42.56ZM241.81 38.396V37.544H240.022V44H241.894V40.952C241.894 39.716 242.578 39.152 243.61 39.152C243.754 39.152 243.874 39.164 244.03 39.176V37.448C243.034 37.448 242.266 37.772 241.81 38.396ZM251.409 40.796C251.409 38.72 249.945 37.448 248.049 37.448C246.081 37.448 244.605 38.84 244.605 40.772C244.605 42.692 246.057 44.096 248.289 44.096C249.453 44.096 250.353 43.736 250.953 43.052L249.957 41.972C249.513 42.392 249.021 42.596 248.337 42.596C247.353 42.596 246.669 42.104 246.489 41.3H251.373C251.385 41.144 251.409 40.94 251.409 40.796ZM248.061 38.864C248.901 38.864 249.513 39.392 249.645 40.208H246.465C246.597 39.38 247.209 38.864 248.061 38.864ZM259.713 42.368C259.509 42.524 259.233 42.608 258.957 42.608C258.453 42.608 258.153 42.308 258.153 41.756V39.128H259.761V37.688H258.153V36.116H256.281V37.688H255.285V39.128H256.281V41.78C256.281 43.316 257.169 44.096 258.693 44.096C259.269 44.096 259.833 43.964 260.217 43.688L259.713 42.368ZM265.9 37.544V40.736C265.9 41.924 265.276 42.476 264.412 42.476C263.584 42.476 263.104 41.996 263.104 40.916V37.544H261.232V41.192C261.232 43.184 262.372 44.096 263.992 44.096C264.784 44.096 265.504 43.796 265.996 43.232V44H267.772V37.544H265.9ZM218.848 53.448C217.984 53.448 217.288 53.724 216.82 54.288V53.544H215.032V62.328H216.904V59.316C217.384 59.844 218.044 60.096 218.848 60.096C220.66 60.096 222.064 58.8 222.064 56.772C222.064 54.744 220.66 53.448 218.848 53.448ZM218.524 58.56C217.588 58.56 216.88 57.888 216.88 56.772C216.88 55.656 217.588 54.984 218.524 54.984C219.46 54.984 220.168 55.656 220.168 56.772C220.168 57.888 219.46 58.56 218.524 58.56ZM225.105 54.396V53.544H223.317V60H225.189V56.952C225.189 55.716 225.873 55.152 226.905 55.152C227.049 55.152 227.169 55.164 227.325 55.176V53.448C226.329 53.448 225.561 53.772 225.105 54.396ZM231.452 60.096C233.504 60.096 234.992 58.716 234.992 56.772C234.992 54.828 233.504 53.448 231.452 53.448C229.4 53.448 227.9 54.828 227.9 56.772C227.9 58.716 229.4 60.096 231.452 60.096ZM231.452 58.56C230.516 58.56 229.796 57.888 229.796 56.772C229.796 55.656 230.516 54.984 231.452 54.984C232.388 54.984 233.096 55.656 233.096 56.772C233.096 57.888 232.388 58.56 231.452 58.56ZM240.675 53.544L238.851 57.924L237.039 53.544H235.107L237.903 60.048L237.879 60.108C237.627 60.684 237.339 60.912 236.823 60.912C236.451 60.912 236.055 60.756 235.767 60.504L235.083 61.836C235.503 62.208 236.223 62.424 236.883 62.424C238.047 62.424 238.935 61.956 239.559 60.396L242.475 53.544H240.675ZM249.387 56.796C249.387 54.72 247.923 53.448 246.027 53.448C244.059 53.448 242.583 54.84 242.583 56.772C242.583 58.692 244.035 60.096 246.267 60.096C247.431 60.096 248.331 59.736 248.931 59.052L247.935 57.972C247.491 58.392 246.999 58.596 246.315 58.596C245.331 58.596 244.647 58.104 244.467 57.3H249.351C249.363 57.144 249.387 56.94 249.387 56.796ZM246.039 54.864C246.879 54.864 247.491 55.392 247.623 56.208H244.443C244.575 55.38 245.187 54.864 246.039 54.864ZM253.754 60.096C255.11 60.096 256.178 59.496 256.646 58.464L255.194 57.672C254.846 58.296 254.33 58.56 253.742 58.56C252.794 58.56 252.05 57.9 252.05 56.772C252.05 55.644 252.794 54.984 253.742 54.984C254.33 54.984 254.846 55.26 255.194 55.872L256.646 55.092C256.178 54.036 255.11 53.448 253.754 53.448C251.654 53.448 250.154 54.828 250.154 56.772C250.154 58.716 251.654 60.096 253.754 60.096ZM261.477 58.368C261.273 58.524 260.997 58.608 260.721 58.608C260.217 58.608 259.917 58.308 259.917 57.756V55.128H261.525V53.688H259.917V52.116H258.045V53.688H257.049V55.128H258.045V57.78C258.045 59.316 258.933 60.096 260.457 60.096C261.033 60.096 261.597 59.964 261.981 59.688L261.477 58.368ZM265.905 60.096C267.957 60.096 269.445 58.716 269.445 56.772C269.445 54.828 267.957 53.448 265.905 53.448C263.853 53.448 262.353 54.828 262.353 56.772C262.353 58.716 263.853 60.096 265.905 60.096ZM265.905 58.56C264.969 58.56 264.249 57.888 264.249 56.772C264.249 55.656 264.969 54.984 265.905 54.984C266.841 54.984 267.549 55.656 267.549 56.772C267.549 57.888 266.841 58.56 265.905 58.56Z" fill="#9999AD"/>
<defs>
<clipPath id="clip0_1307_5514">
<rect width="16" height="16" fill="white" transform="translate(20 4)"/>
</clipPath>
</defs>
</svg>
