<svg width="973" height="83" viewBox="0 0 973 83" fill="none" xmlns="http://www.w3.org/2000/svg">
<rect x="77" width="40" height="40" rx="8" fill="#100FA8"/>
<g clip-path="url(#clip0_3313_19137)">
<path d="M95.333 23.172L104.525 13.979L105.94 15.393L95.333 26L88.969 19.636L90.383 18.222L95.333 23.172Z" fill="white"/>
</g>
<path d="M11.3 63V71.5L4.34 63H1.66V77H4.86V68.5L11.84 77H14.5V63H11.3ZM25.3123 66.24V71.56C25.3123 73.54 24.2723 74.46 22.8323 74.46C21.4523 74.46 20.6523 73.66 20.6523 71.86V66.24H17.5323V72.32C17.5323 75.64 19.4323 77.16 22.1323 77.16C23.4523 77.16 24.6523 76.66 25.4723 75.72V77H28.4323V66.24H25.3123ZM41.8628 71.66C41.8628 68.2 39.4228 66.08 36.2628 66.08C32.9828 66.08 30.5228 68.4 30.5228 71.62C30.5228 74.82 32.9428 77.16 36.6628 77.16C38.6028 77.16 40.1028 76.56 41.1028 75.42L39.4428 73.62C38.7028 74.32 37.8828 74.66 36.7428 74.66C35.1028 74.66 33.9628 73.84 33.6628 72.5H41.8028C41.8228 72.24 41.8628 71.9 41.8628 71.66ZM36.2828 68.44C37.6828 68.44 38.7028 69.32 38.9228 70.68H33.6228C33.8428 69.3 34.8628 68.44 36.2828 68.44ZM47.56 77.16C50.78 77.16 52.64 75.74 52.64 73.74C52.64 69.5 46.14 71.28 46.14 69.44C46.14 68.88 46.74 68.44 48.14 68.44C49.12 68.44 50.18 68.64 51.24 69.24L52.28 67.02C51.26 66.42 49.62 66.08 48.14 66.08C45 66.08 43.16 67.52 43.16 69.56C43.16 73.86 49.66 72.06 49.66 73.82C49.66 74.42 49.12 74.8 47.68 74.8C46.36 74.8 44.9 74.38 43.94 73.76L42.9 76C43.9 76.66 45.74 77.16 47.56 77.16ZM60.665 74.28C60.325 74.54 59.865 74.68 59.405 74.68C58.565 74.68 58.065 74.18 58.065 73.26V68.88H60.745V66.48H58.065V63.86H54.945V66.48H53.285V68.88H54.945V73.3C54.945 75.86 56.425 77.16 58.965 77.16C59.925 77.16 60.865 76.94 61.505 76.48L60.665 74.28ZM66.2364 67.66V66.24H63.2564V77H66.3764V71.92C66.3764 69.86 67.5164 68.92 69.2364 68.92C69.4764 68.92 69.6764 68.94 69.9364 68.96V66.08C68.2764 66.08 66.9964 66.62 66.2364 67.66ZM76.8139 77.16C80.2339 77.16 82.7139 74.86 82.7139 71.62C82.7139 68.38 80.2339 66.08 76.8139 66.08C73.3939 66.08 70.8939 68.38 70.8939 71.62C70.8939 74.86 73.3939 77.16 76.8139 77.16ZM76.8139 74.6C75.2539 74.6 74.0539 73.48 74.0539 71.62C74.0539 69.76 75.2539 68.64 76.8139 68.64C78.3739 68.64 79.5539 69.76 79.5539 71.62C79.5539 73.48 78.3739 74.6 76.8139 74.6ZM88.4194 77.16C91.6394 77.16 93.4994 75.74 93.4994 73.74C93.4994 69.5 86.9994 71.28 86.9994 69.44C86.9994 68.88 87.5994 68.44 88.9994 68.44C89.9794 68.44 91.0394 68.64 92.0994 69.24L93.1394 67.02C92.1194 66.42 90.4794 66.08 88.9994 66.08C85.8594 66.08 84.0194 67.52 84.0194 69.56C84.0194 73.86 90.5194 72.06 90.5194 73.82C90.5194 74.42 89.9794 74.8 88.5394 74.8C87.2194 74.8 85.7594 74.38 84.7994 73.76L83.7594 76C84.7594 76.66 86.5994 77.16 88.4194 77.16ZM105.908 77.24C109.908 77.24 111.848 75.24 111.848 72.9C111.848 67.76 103.708 69.54 103.708 66.96C103.708 66.08 104.448 65.36 106.368 65.36C107.608 65.36 108.948 65.72 110.248 66.46L111.248 64C109.948 63.18 108.148 62.76 106.388 62.76C102.408 62.76 100.488 64.74 100.488 67.12C100.488 72.32 108.628 70.52 108.628 73.14C108.628 74 107.848 74.64 105.928 74.64C104.248 74.64 102.488 74.04 101.308 73.18L100.208 75.62C101.448 76.58 103.688 77.24 105.908 77.24ZM124.382 71.66C124.382 68.2 121.942 66.08 118.782 66.08C115.502 66.08 113.042 68.4 113.042 71.62C113.042 74.82 115.462 77.16 119.182 77.16C121.122 77.16 122.622 76.56 123.622 75.42L121.962 73.62C121.222 74.32 120.402 74.66 119.262 74.66C117.622 74.66 116.482 73.84 116.182 72.5H124.322C124.342 72.24 124.382 71.9 124.382 71.66ZM118.802 68.44C120.202 68.44 121.222 69.32 121.442 70.68H116.142C116.362 69.3 117.382 68.44 118.802 68.44ZM129.44 67.66V66.24H126.46V77H129.58V71.92C129.58 69.86 130.72 68.92 132.44 68.92C132.68 68.92 132.88 68.94 133.14 68.96V66.08C131.48 66.08 130.2 66.62 129.44 67.66ZM143.046 66.24L139.966 73.56L136.986 66.24H133.766L138.286 77H141.506L146.046 66.24H143.046ZM148.879 64.74C150.039 64.74 150.819 63.98 150.819 62.94C150.819 61.98 150.039 61.26 148.879 61.26C147.719 61.26 146.939 62.02 146.939 63C146.939 63.98 147.719 64.74 148.879 64.74ZM147.319 77H150.439V66.24H147.319V77ZM158.535 77.16C160.795 77.16 162.575 76.16 163.355 74.44L160.935 73.12C160.355 74.16 159.495 74.6 158.515 74.6C156.935 74.6 155.695 73.5 155.695 71.62C155.695 69.74 156.935 68.64 158.515 68.64C159.495 68.64 160.355 69.1 160.935 70.12L163.355 68.82C162.575 67.06 160.795 66.08 158.535 66.08C155.035 66.08 152.535 68.38 152.535 71.62C152.535 74.86 155.035 77.16 158.535 77.16ZM166.711 64.74C167.871 64.74 168.651 63.98 168.651 62.94C168.651 61.98 167.871 61.26 166.711 61.26C165.551 61.26 164.771 62.02 164.771 63C164.771 63.98 165.551 64.74 166.711 64.74ZM165.151 77H168.271V66.24H165.151V77ZM176.287 77.16C179.707 77.16 182.187 74.86 182.187 71.62C182.187 68.38 179.707 66.08 176.287 66.08C172.867 66.08 170.367 68.38 170.367 71.62C170.367 74.86 172.867 77.16 176.287 77.16ZM176.287 74.6C174.727 74.6 173.527 73.48 173.527 71.62C173.527 69.76 174.727 68.64 176.287 68.64C177.847 68.64 179.027 69.76 179.027 71.62C179.027 73.48 177.847 74.6 176.287 74.6ZM187.892 77.16C191.112 77.16 192.972 75.74 192.972 73.74C192.972 69.5 186.472 71.28 186.472 69.44C186.472 68.88 187.072 68.44 188.472 68.44C189.452 68.44 190.512 68.64 191.572 69.24L192.612 67.02C191.592 66.42 189.952 66.08 188.472 66.08C185.332 66.08 183.492 67.52 183.492 69.56C183.492 73.86 189.992 72.06 189.992 73.82C189.992 74.42 189.452 74.8 188.012 74.8C186.692 74.8 185.232 74.38 184.272 73.76L183.232 76C184.232 76.66 186.072 77.16 187.892 77.16Z" fill="#100FA8"/>
<line x1="232" y1="19.5" x2="154" y2="19.5" stroke="#100FA8"/>
<line x1="310" y1="19.5" x2="232" y2="19.5" stroke="#100FA8"/>
<rect x="340.5" width="40" height="40" rx="8" fill="#100FA8"/>
<g clip-path="url(#clip1_3313_19137)">
<path d="M359.333 23.172L368.525 13.979L369.94 15.393L359.333 26L352.969 19.636L354.383 18.222L359.333 23.172Z" fill="white"/>
</g>
<path d="M271.66 77H278.02C282.6 77 285.74 74.24 285.74 70C285.74 65.76 282.6 63 278.02 63H271.66V77ZM274.9 74.34V65.66H277.86C280.64 65.66 282.46 67.32 282.46 70C282.46 72.68 280.64 74.34 277.86 74.34H274.9ZM292.303 66.08C290.583 66.08 288.843 66.54 287.663 67.38L288.783 69.56C289.563 68.94 290.743 68.56 291.883 68.56C293.563 68.56 294.363 69.34 294.363 70.68H291.883C288.603 70.68 287.263 72 287.263 73.9C287.263 75.76 288.763 77.16 291.283 77.16C292.863 77.16 293.983 76.64 294.563 75.66V77H297.483V70.86C297.483 67.6 295.583 66.08 292.303 66.08ZM292.063 75.06C290.963 75.06 290.303 74.54 290.303 73.76C290.303 73.04 290.763 72.5 292.223 72.5H294.363V73.6C294.003 74.58 293.103 75.06 292.063 75.06ZM306.407 74.28C306.067 74.54 305.607 74.68 305.147 74.68C304.307 74.68 303.807 74.18 303.807 73.26V68.88H306.487V66.48H303.807V63.86H300.687V66.48H299.027V68.88H300.687V73.3C300.687 75.86 302.167 77.16 304.707 77.16C305.667 77.16 306.607 76.94 307.247 76.48L306.407 74.28ZM313.787 77.16C317.207 77.16 319.687 74.86 319.687 71.62C319.687 68.38 317.207 66.08 313.787 66.08C310.367 66.08 307.867 68.38 307.867 71.62C307.867 74.86 310.367 77.16 313.787 77.16ZM313.787 74.6C312.227 74.6 311.027 73.48 311.027 71.62C311.027 69.76 312.227 68.64 313.787 68.64C315.347 68.64 316.527 69.76 316.527 71.62C316.527 73.48 315.347 74.6 313.787 74.6ZM325.392 77.16C328.612 77.16 330.472 75.74 330.472 73.74C330.472 69.5 323.972 71.28 323.972 69.44C323.972 68.88 324.572 68.44 325.972 68.44C326.952 68.44 328.012 68.64 329.072 69.24L330.112 67.02C329.092 66.42 327.452 66.08 325.972 66.08C322.832 66.08 320.992 67.52 320.992 69.56C320.992 73.86 327.492 72.06 327.492 73.82C327.492 74.42 326.952 74.8 325.512 74.8C324.192 74.8 322.732 74.38 321.772 73.76L320.732 76C321.732 76.66 323.572 77.16 325.392 77.16ZM344.421 66.08C342.981 66.08 341.821 66.54 341.041 67.48V66.24H338.061V80.88H341.181V75.86C341.981 76.74 343.081 77.16 344.421 77.16C347.441 77.16 349.781 75 349.781 71.62C349.781 68.24 347.441 66.08 344.421 66.08ZM343.881 74.6C342.321 74.6 341.141 73.48 341.141 71.62C341.141 69.76 342.321 68.64 343.881 68.64C345.441 68.64 346.621 69.76 346.621 71.62C346.621 73.48 345.441 74.6 343.881 74.6ZM362.41 71.66C362.41 68.2 359.97 66.08 356.81 66.08C353.53 66.08 351.07 68.4 351.07 71.62C351.07 74.82 353.49 77.16 357.21 77.16C359.15 77.16 360.65 76.56 361.65 75.42L359.99 73.62C359.25 74.32 358.43 74.66 357.29 74.66C355.65 74.66 354.51 73.84 354.21 72.5H362.35C362.37 72.24 362.41 71.9 362.41 71.66ZM356.83 68.44C358.23 68.44 359.25 69.32 359.47 70.68H354.17C354.39 69.3 355.41 68.44 356.83 68.44ZM367.467 67.66V66.24H364.487V77H367.607V71.92C367.607 69.86 368.747 68.92 370.467 68.92C370.707 68.92 370.907 68.94 371.167 68.96V66.08C369.507 66.08 368.227 66.62 367.467 67.66ZM376.681 77.16C379.901 77.16 381.761 75.74 381.761 73.74C381.761 69.5 375.261 71.28 375.261 69.44C375.261 68.88 375.861 68.44 377.261 68.44C378.241 68.44 379.301 68.64 380.361 69.24L381.401 67.02C380.381 66.42 378.741 66.08 377.261 66.08C374.121 66.08 372.281 67.52 372.281 69.56C372.281 73.86 378.781 72.06 378.781 73.82C378.781 74.42 378.241 74.8 376.801 74.8C375.481 74.8 374.021 74.38 373.061 73.76L372.021 76C373.021 76.66 374.861 77.16 376.681 77.16ZM388.806 77.16C392.226 77.16 394.706 74.86 394.706 71.62C394.706 68.38 392.226 66.08 388.806 66.08C385.386 66.08 382.886 68.38 382.886 71.62C382.886 74.86 385.386 77.16 388.806 77.16ZM388.806 74.6C387.246 74.6 386.046 73.48 386.046 71.62C386.046 69.76 387.246 68.64 388.806 68.64C390.366 68.64 391.546 69.76 391.546 71.62C391.546 73.48 390.366 74.6 388.806 74.6ZM403.332 66.08C401.872 66.08 400.612 66.58 399.772 67.5V66.24H396.792V77H399.912V71.68C399.912 69.7 400.992 68.78 402.492 68.78C403.872 68.78 404.672 69.58 404.672 71.32V77H407.792V70.84C407.792 67.56 405.872 66.08 403.332 66.08ZM414.96 66.08C413.24 66.08 411.5 66.54 410.32 67.38L411.44 69.56C412.22 68.94 413.4 68.56 414.54 68.56C416.22 68.56 417.02 69.34 417.02 70.68H414.54C411.26 70.68 409.92 72 409.92 73.9C409.92 75.76 411.42 77.16 413.94 77.16C415.52 77.16 416.64 76.64 417.22 75.66V77H420.14V70.86C420.14 67.6 418.24 66.08 414.96 66.08ZM414.72 75.06C413.62 75.06 412.96 74.54 412.96 73.76C412.96 73.04 413.42 72.5 414.88 72.5H417.02V73.6C416.66 74.58 415.76 75.06 414.72 75.06ZM422.963 77H426.083V62.16H422.963V77ZM439.519 71.66C439.519 68.2 437.079 66.08 433.919 66.08C430.639 66.08 428.179 68.4 428.179 71.62C428.179 74.82 430.599 77.16 434.319 77.16C436.259 77.16 437.759 76.56 438.759 75.42L437.099 73.62C436.359 74.32 435.539 74.66 434.399 74.66C432.759 74.66 431.619 73.84 431.319 72.5H439.459C439.479 72.24 439.519 71.9 439.519 71.66ZM433.939 68.44C435.339 68.44 436.359 69.32 436.579 70.68H431.279C431.499 69.3 432.519 68.44 433.939 68.44ZM445.216 77.16C448.436 77.16 450.296 75.74 450.296 73.74C450.296 69.5 443.796 71.28 443.796 69.44C443.796 68.88 444.396 68.44 445.796 68.44C446.776 68.44 447.836 68.64 448.896 69.24L449.936 67.02C448.916 66.42 447.276 66.08 445.796 66.08C442.656 66.08 440.816 67.52 440.816 69.56C440.816 73.86 447.316 72.06 447.316 73.82C447.316 74.42 446.776 74.8 445.336 74.8C444.016 74.8 442.556 74.38 441.596 73.76L440.556 76C441.556 76.66 443.396 77.16 445.216 77.16Z" fill="#100FA8"/>
<line x1="489" y1="19.5" x2="411" y2="19.5" stroke="#100FA8"/>
<line x1="567" y1="19.5" x2="489" y2="19.5" stroke="#100FA8"/>
<rect x="598" width="40" height="40" rx="8" fill="#100FA8"/>
<g clip-path="url(#clip2_3313_19137)">
<path d="M616.333 23.172L625.525 13.979L626.94 15.393L616.333 26L609.969 19.636L611.383 18.222L616.333 23.172Z" fill="white"/>
</g>
<path d="M533.342 75.24C537.342 75.24 539.282 73.24 539.282 70.9C539.282 65.76 531.142 67.54 531.142 64.96C531.142 64.08 531.882 63.36 533.802 63.36C535.042 63.36 536.382 63.72 537.682 64.46L538.682 62C537.382 61.18 535.582 60.76 533.822 60.76C529.842 60.76 527.922 62.74 527.922 65.12C527.922 70.32 536.062 68.52 536.062 71.14C536.062 72 535.282 72.64 533.362 72.64C531.682 72.64 529.922 72.04 528.742 71.18L527.642 73.62C528.882 74.58 531.122 75.24 533.342 75.24ZM546.396 75.16C549.816 75.16 552.296 72.86 552.296 69.62C552.296 66.38 549.816 64.08 546.396 64.08C542.976 64.08 540.476 66.38 540.476 69.62C540.476 72.86 542.976 75.16 546.396 75.16ZM546.396 72.6C544.836 72.6 543.636 71.48 543.636 69.62C543.636 67.76 544.836 66.64 546.396 66.64C547.956 66.64 549.136 67.76 549.136 69.62C549.136 71.48 547.956 72.6 546.396 72.6ZM560.741 64.08C559.401 64.08 558.301 64.5 557.501 65.38V60.16H554.381V75H557.361V73.76C558.141 74.7 559.301 75.16 560.741 75.16C563.761 75.16 566.101 73 566.101 69.62C566.101 66.24 563.761 64.08 560.741 64.08ZM560.201 72.6C558.641 72.6 557.461 71.48 557.461 69.62C557.461 67.76 558.641 66.64 560.201 66.64C561.761 66.64 562.941 67.76 562.941 69.62C562.941 71.48 561.761 72.6 560.201 72.6ZM571.17 65.66V64.24H568.19V75H571.31V69.92C571.31 67.86 572.45 66.92 574.17 66.92C574.41 66.92 574.61 66.94 574.87 66.96V64.08C573.21 64.08 571.93 64.62 571.17 65.66ZM587.168 69.66C587.168 66.2 584.728 64.08 581.568 64.08C578.288 64.08 575.828 66.4 575.828 69.62C575.828 72.82 578.248 75.16 581.968 75.16C583.908 75.16 585.408 74.56 586.408 73.42L584.748 71.62C584.008 72.32 583.188 72.66 582.048 72.66C580.408 72.66 579.268 71.84 578.968 70.5H587.108C587.128 70.24 587.168 69.9 587.168 69.66ZM581.588 66.44C582.988 66.44 584.008 67.32 584.228 68.68H578.928C579.148 67.3 580.168 66.44 581.588 66.44ZM594.909 75H598.029V60.16H594.909V75ZM605.264 64.08C603.544 64.08 601.804 64.54 600.624 65.38L601.744 67.56C602.524 66.94 603.704 66.56 604.844 66.56C606.524 66.56 607.324 67.34 607.324 68.68H604.844C601.564 68.68 600.224 70 600.224 71.9C600.224 73.76 601.724 75.16 604.244 75.16C605.824 75.16 606.944 74.64 607.524 73.66V75H610.444V68.86C610.444 65.6 608.544 64.08 605.264 64.08ZM605.024 73.06C603.924 73.06 603.264 72.54 603.264 71.76C603.264 71.04 603.724 70.5 605.184 70.5H607.324V71.6C606.964 72.58 606.064 73.06 605.024 73.06ZM629.472 69.66C629.472 66.2 627.032 64.08 623.872 64.08C620.592 64.08 618.132 66.4 618.132 69.62C618.132 72.82 620.552 75.16 624.272 75.16C626.212 75.16 627.712 74.56 628.712 73.42L627.052 71.62C626.312 72.32 625.492 72.66 624.352 72.66C622.712 72.66 621.572 71.84 621.272 70.5H629.412C629.432 70.24 629.472 69.9 629.472 69.66ZM623.892 66.44C625.292 66.44 626.312 67.32 626.532 68.68H621.232C621.452 67.3 622.472 66.44 623.892 66.44ZM645.329 64.08C643.709 64.08 642.309 64.74 641.449 65.84C640.689 64.66 639.409 64.08 637.909 64.08C636.529 64.08 635.329 64.56 634.529 65.48V64.24H631.549V75H634.669V69.6C634.669 67.68 635.649 66.78 637.029 66.78C638.329 66.78 639.069 67.58 639.069 69.32V75H642.189V69.6C642.189 67.68 643.169 66.78 644.569 66.78C645.829 66.78 646.609 67.58 646.609 69.32V75H649.729V68.84C649.729 65.56 647.889 64.08 645.329 64.08ZM658.886 64.08C657.446 64.08 656.286 64.54 655.506 65.48V64.24H652.526V78.88H655.646V73.86C656.446 74.74 657.546 75.16 658.886 75.16C661.906 75.16 664.246 73 664.246 69.62C664.246 66.24 661.906 64.08 658.886 64.08ZM658.346 72.6C656.786 72.6 655.606 71.48 655.606 69.62C655.606 67.76 656.786 66.64 658.346 66.64C659.906 66.64 661.086 67.76 661.086 69.62C661.086 71.48 659.906 72.6 658.346 72.6ZM669.315 65.66V64.24H666.335V75H669.455V69.92C669.455 67.86 670.595 66.92 672.315 66.92C672.555 66.92 672.755 66.94 673.015 66.96V64.08C671.355 64.08 670.075 64.62 669.315 65.66ZM685.312 69.66C685.312 66.2 682.872 64.08 679.712 64.08C676.432 64.08 673.972 66.4 673.972 69.62C673.972 72.82 676.392 75.16 680.112 75.16C682.052 75.16 683.552 74.56 684.552 73.42L682.892 71.62C682.152 72.32 681.332 72.66 680.192 72.66C678.552 72.66 677.412 71.84 677.112 70.5H685.252C685.272 70.24 685.312 69.9 685.312 69.66ZM679.732 66.44C681.132 66.44 682.152 67.32 682.372 68.68H677.072C677.292 67.3 678.312 66.44 679.732 66.44ZM691.009 75.16C694.229 75.16 696.089 73.74 696.089 71.74C696.089 67.5 689.589 69.28 689.589 67.44C689.589 66.88 690.189 66.44 691.589 66.44C692.569 66.44 693.629 66.64 694.689 67.24L695.729 65.02C694.709 64.42 693.069 64.08 691.589 64.08C688.449 64.08 686.609 65.52 686.609 67.56C686.609 71.86 693.109 70.06 693.109 71.82C693.109 72.42 692.569 72.8 691.129 72.8C689.809 72.8 688.349 72.38 687.389 71.76L686.349 74C687.349 74.66 689.189 75.16 691.009 75.16ZM702.354 64.08C700.634 64.08 698.894 64.54 697.714 65.38L698.834 67.56C699.614 66.94 700.794 66.56 701.934 66.56C703.614 66.56 704.414 67.34 704.414 68.68H701.934C698.654 68.68 697.314 70 697.314 71.9C697.314 73.76 698.814 75.16 701.334 75.16C702.914 75.16 704.034 74.64 704.614 73.66V75H707.534V68.86C707.534 65.6 705.634 64.08 702.354 64.08ZM702.114 73.06C701.014 73.06 700.354 72.54 700.354 71.76C700.354 71.04 700.814 70.5 702.274 70.5H704.414V71.6C704.054 72.58 703.154 73.06 702.114 73.06Z" fill="#100FA8"/>
<line x1="747" y1="19.5" x2="669" y2="19.5" stroke="#100FA8"/>
<line x1="825" y1="19.5" x2="747" y2="19.5" stroke="#100FA8"/>
<rect x="859" width="40" height="40" rx="8" fill="#100FA8"/>
<path d="M872.758 24.077L872.754 21.897L879.336 13.0035L882.736 12.9966L876.294 21.8898L874.713 21.433L885.733 21.4104L885.738 24.0504L872.758 24.077ZM880.304 27.0016L880.298 24.0616L880.393 21.4214L880.388 18.8014L883.448 18.7951L883.464 26.9951L880.304 27.0016Z" fill="white"/>
<path d="M791.26 77.2664C790.14 77.2664 789.067 77.1197 788.04 76.8264C787.013 76.5197 786.187 76.1264 785.56 75.6464L786.66 73.2064C787.26 73.633 787.967 73.9864 788.78 74.2664C789.607 74.533 790.44 74.6664 791.28 74.6664C791.92 74.6664 792.433 74.6064 792.82 74.4864C793.22 74.353 793.513 74.173 793.7 73.9464C793.887 73.7197 793.98 73.4597 793.98 73.1664C793.98 72.793 793.833 72.4997 793.54 72.2864C793.247 72.0597 792.86 71.8797 792.38 71.7464C791.9 71.5997 791.367 71.4664 790.78 71.3464C790.207 71.213 789.627 71.053 789.04 70.8664C788.467 70.6797 787.94 70.4397 787.46 70.1464C786.98 69.853 786.587 69.4664 786.28 68.9864C785.987 68.5064 785.84 67.893 785.84 67.1464C785.84 66.3464 786.053 65.6197 786.48 64.9664C786.92 64.2997 787.573 63.773 788.44 63.3864C789.32 62.9864 790.42 62.7864 791.74 62.7864C792.62 62.7864 793.487 62.893 794.34 63.1064C795.193 63.3064 795.947 63.613 796.6 64.0264L795.6 66.4864C794.947 66.113 794.293 65.8397 793.64 65.6664C792.987 65.4797 792.347 65.3864 791.72 65.3864C791.093 65.3864 790.58 65.4597 790.18 65.6064C789.78 65.753 789.493 65.9464 789.32 66.1864C789.147 66.413 789.06 66.6797 789.06 66.9864C789.06 67.3464 789.207 67.6397 789.5 67.8664C789.793 68.0797 790.18 68.253 790.66 68.3864C791.14 68.5197 791.667 68.653 792.24 68.7864C792.827 68.9197 793.407 69.073 793.98 69.2464C794.567 69.4197 795.1 69.653 795.58 69.9464C796.06 70.2397 796.447 70.6264 796.74 71.1064C797.047 71.5864 797.2 72.193 797.2 72.9264C797.2 73.713 796.98 74.433 796.54 75.0864C796.1 75.7397 795.44 76.2664 794.56 76.6664C793.693 77.0664 792.593 77.2664 791.26 77.2664ZM804.314 77.1864C803.167 77.1864 802.147 76.9464 801.254 76.4664C800.374 75.9864 799.674 75.333 799.154 74.5064C798.647 73.6664 798.394 72.713 798.394 71.6464C798.394 70.5664 798.647 69.613 799.154 68.7864C799.674 67.9464 800.374 67.293 801.254 66.8264C802.147 66.3464 803.167 66.1064 804.314 66.1064C805.447 66.1064 806.461 66.3464 807.354 66.8264C808.247 67.293 808.947 67.9397 809.454 68.7664C809.961 69.593 810.214 70.553 810.214 71.6464C810.214 72.713 809.961 73.6664 809.454 74.5064C808.947 75.333 808.247 75.9864 807.354 76.4664C806.461 76.9464 805.447 77.1864 804.314 77.1864ZM804.314 74.6264C804.834 74.6264 805.301 74.5064 805.714 74.2664C806.127 74.0264 806.454 73.6864 806.694 73.2464C806.934 72.793 807.054 72.2597 807.054 71.6464C807.054 71.0197 806.934 70.4864 806.694 70.0464C806.454 69.6064 806.127 69.2664 805.714 69.0264C805.301 68.7864 804.834 68.6664 804.314 68.6664C803.794 68.6664 803.327 68.7864 802.914 69.0264C802.501 69.2664 802.167 69.6064 801.914 70.0464C801.674 70.4864 801.554 71.0197 801.554 71.6464C801.554 72.2597 801.674 72.793 801.914 73.2464C802.167 73.6864 802.501 74.0264 802.914 74.2664C803.327 74.5064 803.794 74.6264 804.314 74.6264ZM818.659 77.1864C817.713 77.1864 816.899 76.9864 816.219 76.5864C815.539 76.1864 815.019 75.5797 814.659 74.7664C814.299 73.9397 814.119 72.8997 814.119 71.6464C814.119 70.3797 814.306 69.3397 814.679 68.5264C815.066 67.713 815.599 67.1064 816.279 66.7064C816.959 66.3064 817.753 66.1064 818.659 66.1064C819.673 66.1064 820.579 66.333 821.379 66.7864C822.193 67.2397 822.833 67.8797 823.299 68.7064C823.779 69.533 824.019 70.513 824.019 71.6464C824.019 72.7664 823.779 73.7397 823.299 74.5664C822.833 75.393 822.193 76.0397 821.379 76.5064C820.579 76.9597 819.673 77.1864 818.659 77.1864ZM812.299 77.0264V62.1864H815.419V68.4464L815.219 71.6264L815.279 74.8264V77.0264H812.299ZM818.119 74.6264C818.639 74.6264 819.099 74.5064 819.499 74.2664C819.913 74.0264 820.239 73.6864 820.479 73.2464C820.733 72.793 820.859 72.2597 820.859 71.6464C820.859 71.0197 820.733 70.4864 820.479 70.0464C820.239 69.6064 819.913 69.2664 819.499 69.0264C819.099 68.7864 818.639 68.6664 818.119 68.6664C817.599 68.6664 817.133 68.7864 816.719 69.0264C816.306 69.2664 815.979 69.6064 815.739 70.0464C815.499 70.4864 815.379 71.0197 815.379 71.6464C815.379 72.2597 815.499 72.793 815.739 73.2464C815.979 73.6864 816.306 74.0264 816.719 74.2664C817.133 74.5064 817.599 74.6264 818.119 74.6264ZM826.108 77.0264V66.2664H829.088V69.3064L828.668 68.4264C828.988 67.6664 829.501 67.093 830.208 66.7064C830.915 66.3064 831.775 66.1064 832.788 66.1064V68.9864C832.655 68.973 832.535 68.9664 832.428 68.9664C832.321 68.953 832.208 68.9464 832.088 68.9464C831.235 68.9464 830.541 69.193 830.008 69.6864C829.488 70.1664 829.228 70.9197 829.228 71.9464V77.0264H826.108ZM839.905 77.1864C838.678 77.1864 837.598 76.9464 836.665 76.4664C835.745 75.9864 835.032 75.333 834.525 74.5064C834.018 73.6664 833.765 72.713 833.765 71.6464C833.765 70.5664 834.012 69.613 834.505 68.7864C835.012 67.9464 835.698 67.293 836.565 66.8264C837.432 66.3464 838.412 66.1064 839.505 66.1064C840.558 66.1064 841.505 66.333 842.345 66.7864C843.198 67.2264 843.872 67.8664 844.365 68.7064C844.858 69.533 845.105 70.5264 845.105 71.6864C845.105 71.8064 845.098 71.9464 845.085 72.1064C845.072 72.253 845.058 72.393 845.045 72.5264H836.305V70.7064H843.405L842.205 71.2464C842.205 70.6864 842.092 70.1997 841.865 69.7864C841.638 69.373 841.325 69.053 840.925 68.8264C840.525 68.5864 840.058 68.4664 839.525 68.4664C838.992 68.4664 838.518 68.5864 838.105 68.8264C837.705 69.053 837.392 69.3797 837.165 69.8064C836.938 70.2197 836.825 70.713 836.825 71.2864V71.7664C836.825 72.353 836.952 72.873 837.205 73.3264C837.472 73.7664 837.838 74.1064 838.305 74.3464C838.785 74.573 839.345 74.6864 839.985 74.6864C840.558 74.6864 841.058 74.5997 841.485 74.4264C841.925 74.253 842.325 73.993 842.685 73.6464L844.345 75.4464C843.852 76.0064 843.232 76.4397 842.485 76.7464C841.738 77.0397 840.878 77.1864 839.905 77.1864ZM857.246 77.1864C855.98 77.1864 854.993 76.8664 854.286 76.2264C853.58 75.573 853.226 74.6064 853.226 73.3264V63.8864H856.346V73.2864C856.346 73.7397 856.466 74.093 856.706 74.3464C856.946 74.5864 857.273 74.7064 857.686 74.7064C858.18 74.7064 858.6 74.573 858.946 74.3064L859.786 76.5064C859.466 76.733 859.08 76.9064 858.626 77.0264C858.186 77.133 857.726 77.1864 857.246 77.1864ZM851.566 68.9064V66.5064H859.026V68.9064H851.566ZM866.078 77.1864C865.184 77.1864 864.384 77.013 863.678 76.6664C862.984 76.3197 862.444 75.793 862.058 75.0864C861.671 74.3664 861.478 73.453 861.478 72.3464V66.2664H864.598V71.8864C864.598 72.7797 864.784 73.4397 865.158 73.8664C865.544 74.2797 866.084 74.4864 866.778 74.4864C867.258 74.4864 867.684 74.3864 868.058 74.1864C868.431 73.973 868.724 73.653 868.938 73.2264C869.151 72.7864 869.258 72.2397 869.258 71.5864V66.2664H872.378V77.0264H869.418V74.0664L869.958 74.9264C869.598 75.673 869.064 76.2397 868.358 76.6264C867.664 76.9997 866.904 77.1864 866.078 77.1864ZM887.292 77.1864C886.386 77.1864 885.592 76.9864 884.912 76.5864C884.232 76.1864 883.699 75.5797 883.312 74.7664C882.939 73.9397 882.752 72.8997 882.752 71.6464C882.752 70.3797 882.932 69.3397 883.292 68.5264C883.652 67.713 884.172 67.1064 884.852 66.7064C885.532 66.3064 886.346 66.1064 887.292 66.1064C888.306 66.1064 889.212 66.3397 890.012 66.8064C890.826 67.2597 891.466 67.8997 891.932 68.7264C892.412 69.553 892.652 70.5264 892.652 71.6464C892.652 72.7797 892.412 73.7597 891.932 74.5864C891.466 75.413 890.826 76.053 890.012 76.5064C889.212 76.9597 888.306 77.1864 887.292 77.1864ZM880.932 80.9064V66.2664H883.912V68.4664L883.852 71.6664L884.052 74.8464V80.9064H880.932ZM886.752 74.6264C887.272 74.6264 887.732 74.5064 888.132 74.2664C888.546 74.0264 888.872 73.6864 889.112 73.2464C889.366 72.793 889.492 72.2597 889.492 71.6464C889.492 71.0197 889.366 70.4864 889.112 70.0464C888.872 69.6064 888.546 69.2664 888.132 69.0264C887.732 68.7864 887.272 68.6664 886.752 68.6664C886.232 68.6664 885.766 68.7864 885.352 69.0264C884.939 69.2664 884.612 69.6064 884.372 70.0464C884.132 70.4864 884.012 71.0197 884.012 71.6464C884.012 72.2597 884.132 72.793 884.372 73.2464C884.612 73.6864 884.939 74.0264 885.352 74.2664C885.766 74.5064 886.232 74.6264 886.752 74.6264ZM894.741 77.0264V66.2664H897.721V69.3064L897.301 68.4264C897.621 67.6664 898.134 67.093 898.841 66.7064C899.547 66.3064 900.407 66.1064 901.421 66.1064V68.9864C901.287 68.973 901.167 68.9664 901.061 68.9664C900.954 68.953 900.841 68.9464 900.721 68.9464C899.867 68.9464 899.174 69.193 898.641 69.6864C898.121 70.1664 897.861 70.9197 897.861 71.9464V77.0264H894.741ZM908.318 77.1864C907.171 77.1864 906.151 76.9464 905.258 76.4664C904.378 75.9864 903.678 75.333 903.158 74.5064C902.651 73.6664 902.398 72.713 902.398 71.6464C902.398 70.5664 902.651 69.613 903.158 68.7864C903.678 67.9464 904.378 67.293 905.258 66.8264C906.151 66.3464 907.171 66.1064 908.318 66.1064C909.451 66.1064 910.464 66.3464 911.358 66.8264C912.251 67.293 912.951 67.9397 913.458 68.7664C913.964 69.593 914.218 70.553 914.218 71.6464C914.218 72.713 913.964 73.6664 913.458 74.5064C912.951 75.333 912.251 75.9864 911.358 76.4664C910.464 76.9464 909.451 77.1864 908.318 77.1864ZM908.318 74.6264C908.838 74.6264 909.304 74.5064 909.718 74.2664C910.131 74.0264 910.458 73.6864 910.698 73.2464C910.938 72.793 911.058 72.2597 911.058 71.6464C911.058 71.0197 910.938 70.4864 910.698 70.0464C910.458 69.6064 910.131 69.2664 909.718 69.0264C909.304 68.7864 908.838 68.6664 908.318 68.6664C907.798 68.6664 907.331 68.7864 906.918 69.0264C906.504 69.2664 906.171 69.6064 905.918 70.0464C905.678 70.4864 905.558 71.0197 905.558 71.6464C905.558 72.2597 905.678 72.793 905.918 73.2464C906.171 73.6864 906.504 74.0264 906.918 74.2664C907.331 74.5064 907.798 74.6264 908.318 74.6264ZM917.37 81.0664C916.81 81.0664 916.257 80.9797 915.71 80.8064C915.164 80.633 914.717 80.393 914.37 80.0864L915.51 77.8664C915.75 78.0797 916.024 78.2464 916.33 78.3664C916.65 78.4864 916.964 78.5464 917.27 78.5464C917.71 78.5464 918.057 78.4397 918.31 78.2264C918.577 78.0264 918.817 77.6864 919.03 77.2064L919.59 75.8864L919.83 75.5464L923.69 66.2664H926.69L921.83 77.6864C921.484 78.553 921.084 79.233 920.63 79.7264C920.19 80.2197 919.697 80.5664 919.15 80.7664C918.617 80.9664 918.024 81.0664 917.37 81.0664ZM919.21 77.4464L914.41 66.2664H917.63L921.35 75.2664L919.21 77.4464ZM933.01 77.1864C931.784 77.1864 930.704 76.9464 929.77 76.4664C928.85 75.9864 928.137 75.333 927.63 74.5064C927.124 73.6664 926.87 72.713 926.87 71.6464C926.87 70.5664 927.117 69.613 927.61 68.7864C928.117 67.9464 928.804 67.293 929.67 66.8264C930.537 66.3464 931.517 66.1064 932.61 66.1064C933.664 66.1064 934.61 66.333 935.45 66.7864C936.304 67.2264 936.977 67.8664 937.47 68.7064C937.964 69.533 938.21 70.5264 938.21 71.6864C938.21 71.8064 938.204 71.9464 938.19 72.1064C938.177 72.253 938.164 72.393 938.15 72.5264H929.41V70.7064H936.51L935.31 71.2464C935.31 70.6864 935.197 70.1997 934.97 69.7864C934.744 69.373 934.43 69.053 934.03 68.8264C933.63 68.5864 933.164 68.4664 932.63 68.4664C932.097 68.4664 931.624 68.5864 931.21 68.8264C930.81 69.053 930.497 69.3797 930.27 69.8064C930.044 70.2197 929.93 70.713 929.93 71.2864V71.7664C929.93 72.353 930.057 72.873 930.31 73.3264C930.577 73.7664 930.944 74.1064 931.41 74.3464C931.89 74.573 932.45 74.6864 933.09 74.6864C933.664 74.6864 934.164 74.5997 934.59 74.4264C935.03 74.253 935.43 73.993 935.79 73.6464L937.45 75.4464C936.957 76.0064 936.337 76.4397 935.59 76.7464C934.844 77.0397 933.984 77.1864 933.01 77.1864ZM945.488 77.1864C944.328 77.1864 943.294 76.953 942.388 76.4864C941.481 76.0064 940.768 75.3464 940.248 74.5064C939.741 73.6664 939.488 72.713 939.488 71.6464C939.488 70.5664 939.741 69.613 940.248 68.7864C940.768 67.9464 941.481 67.293 942.388 66.8264C943.294 66.3464 944.328 66.1064 945.488 66.1064C946.621 66.1064 947.608 66.3464 948.448 66.8264C949.288 67.293 949.908 67.9664 950.308 68.8464L947.888 70.1464C947.608 69.6397 947.254 69.2664 946.828 69.0264C946.414 68.7864 945.961 68.6664 945.468 68.6664C944.934 68.6664 944.454 68.7864 944.028 69.0264C943.601 69.2664 943.261 69.6064 943.008 70.0464C942.768 70.4864 942.648 71.0197 942.648 71.6464C942.648 72.273 942.768 72.8064 943.008 73.2464C943.261 73.6864 943.601 74.0264 944.028 74.2664C944.454 74.5064 944.934 74.6264 945.468 74.6264C945.961 74.6264 946.414 74.513 946.828 74.2864C947.254 74.0464 947.608 73.6664 947.888 73.1464L950.308 74.4664C949.908 75.333 949.288 76.0064 948.448 76.4864C947.608 76.953 946.621 77.1864 945.488 77.1864ZM956.66 77.1864C955.394 77.1864 954.407 76.8664 953.7 76.2264C952.994 75.573 952.64 74.6064 952.64 73.3264V63.8864H955.76V73.2864C955.76 73.7397 955.88 74.093 956.12 74.3464C956.36 74.5864 956.687 74.7064 957.1 74.7064C957.594 74.7064 958.014 74.573 958.36 74.3064L959.2 76.5064C958.88 76.733 958.494 76.9064 958.04 77.0264C957.6 77.133 957.14 77.1864 956.66 77.1864ZM950.98 68.9064V66.5064H958.44V68.9064H950.98ZM965.74 77.1864C964.593 77.1864 963.573 76.9464 962.68 76.4664C961.8 75.9864 961.1 75.333 960.58 74.5064C960.073 73.6664 959.82 72.713 959.82 71.6464C959.82 70.5664 960.073 69.613 960.58 68.7864C961.1 67.9464 961.8 67.293 962.68 66.8264C963.573 66.3464 964.593 66.1064 965.74 66.1064C966.873 66.1064 967.886 66.3464 968.78 66.8264C969.673 67.293 970.373 67.9397 970.88 68.7664C971.386 69.593 971.64 70.553 971.64 71.6464C971.64 72.713 971.386 73.6664 970.88 74.5064C970.373 75.333 969.673 75.9864 968.78 76.4664C967.886 76.9464 966.873 77.1864 965.74 77.1864ZM965.74 74.6264C966.26 74.6264 966.726 74.5064 967.14 74.2664C967.553 74.0264 967.88 73.6864 968.12 73.2464C968.36 72.793 968.48 72.2597 968.48 71.6464C968.48 71.0197 968.36 70.4864 968.12 70.0464C967.88 69.6064 967.553 69.2664 967.14 69.0264C966.726 68.7864 966.26 68.6664 965.74 68.6664C965.22 68.6664 964.753 68.7864 964.34 69.0264C963.926 69.2664 963.593 69.6064 963.34 70.0464C963.1 70.4864 962.98 71.0197 962.98 71.6464C962.98 72.2597 963.1 72.793 963.34 73.2464C963.593 73.6864 963.926 74.0264 964.34 74.2664C964.753 74.5064 965.22 74.6264 965.74 74.6264Z" fill="#100FA8"/>
<defs>
<clipPath id="clip0_3313_19137">
<rect width="24" height="24" fill="white" transform="translate(85.333 8)"/>
</clipPath>
<clipPath id="clip1_3313_19137">
<rect width="24" height="24" fill="white" transform="translate(349.333 8)"/>
</clipPath>
<clipPath id="clip2_3313_19137">
<rect width="24" height="24" fill="white" transform="translate(606.333 8)"/>
</clipPath>
</defs>
</svg>
