<svg width="939" height="82" viewBox="0 0 939 82" fill="none" xmlns="http://www.w3.org/2000/svg">
<path d="M9.8 63V71.5L2.84 63H0.16V77H3.36V68.5L10.34 77H13V63H9.8ZM23.8123 66.24V71.56C23.8123 73.54 22.7723 74.46 21.3323 74.46C19.9523 74.46 19.1523 73.66 19.1523 71.86V66.24H16.0323V72.32C16.0323 75.64 17.9323 77.16 20.6323 77.16C21.9523 77.16 23.1523 76.66 23.9723 75.72V77H26.9323V66.24H23.8123ZM40.3628 71.66C40.3628 68.2 37.9228 66.08 34.7628 66.08C31.4828 66.08 29.0228 68.4 29.0228 71.62C29.0228 74.82 31.4428 77.16 35.1628 77.16C37.1028 77.16 38.6028 76.56 39.6028 75.42L37.9428 73.62C37.2028 74.32 36.3828 74.66 35.2428 74.66C33.6028 74.66 32.4628 73.84 32.1628 72.5H40.3028C40.3228 72.24 40.3628 71.9 40.3628 71.66ZM34.7828 68.44C36.1828 68.44 37.2028 69.32 37.4228 70.68H32.1228C32.3428 69.3 33.3628 68.44 34.7828 68.44ZM46.06 77.16C49.28 77.16 51.14 75.74 51.14 73.74C51.14 69.5 44.64 71.28 44.64 69.44C44.64 68.88 45.24 68.44 46.64 68.44C47.62 68.44 48.68 68.64 49.74 69.24L50.78 67.02C49.76 66.42 48.12 66.08 46.64 66.08C43.5 66.08 41.66 67.52 41.66 69.56C41.66 73.86 48.16 72.06 48.16 73.82C48.16 74.42 47.62 74.8 46.18 74.8C44.86 74.8 43.4 74.38 42.44 73.76L41.4 76C42.4 76.66 44.24 77.16 46.06 77.16ZM59.165 74.28C58.825 74.54 58.365 74.68 57.905 74.68C57.065 74.68 56.565 74.18 56.565 73.26V68.88H59.245V66.48H56.565V63.86H53.445V66.48H51.785V68.88H53.445V73.3C53.445 75.86 54.925 77.16 57.465 77.16C58.425 77.16 59.365 76.94 60.005 76.48L59.165 74.28ZM64.7364 67.66V66.24H61.7564V77H64.8764V71.92C64.8764 69.86 66.0164 68.92 67.7364 68.92C67.9764 68.92 68.1764 68.94 68.4364 68.96V66.08C66.7764 66.08 65.4964 66.62 64.7364 67.66ZM75.3139 77.16C78.7339 77.16 81.2139 74.86 81.2139 71.62C81.2139 68.38 78.7339 66.08 75.3139 66.08C71.8939 66.08 69.3939 68.38 69.3939 71.62C69.3939 74.86 71.8939 77.16 75.3139 77.16ZM75.3139 74.6C73.7539 74.6 72.5539 73.48 72.5539 71.62C72.5539 69.76 73.7539 68.64 75.3139 68.64C76.8739 68.64 78.0539 69.76 78.0539 71.62C78.0539 73.48 76.8739 74.6 75.3139 74.6ZM86.9194 77.16C90.1394 77.16 91.9994 75.74 91.9994 73.74C91.9994 69.5 85.4994 71.28 85.4994 69.44C85.4994 68.88 86.0994 68.44 87.4994 68.44C88.4794 68.44 89.5394 68.64 90.5994 69.24L91.6394 67.02C90.6194 66.42 88.9794 66.08 87.4994 66.08C84.3594 66.08 82.5194 67.52 82.5194 69.56C82.5194 73.86 89.0194 72.06 89.0194 73.82C89.0194 74.42 88.4794 74.8 87.0394 74.8C85.7194 74.8 84.2594 74.38 83.2994 73.76L82.2594 76C83.2594 76.66 85.0994 77.16 86.9194 77.16ZM104.408 77.24C108.408 77.24 110.348 75.24 110.348 72.9C110.348 67.76 102.208 69.54 102.208 66.96C102.208 66.08 102.948 65.36 104.868 65.36C106.108 65.36 107.448 65.72 108.748 66.46L109.748 64C108.448 63.18 106.648 62.76 104.888 62.76C100.908 62.76 98.9884 64.74 98.9884 67.12C98.9884 72.32 107.128 70.52 107.128 73.14C107.128 74 106.348 74.64 104.428 74.64C102.748 74.64 100.988 74.04 99.8084 73.18L98.7084 75.62C99.9484 76.58 102.188 77.24 104.408 77.24ZM122.882 71.66C122.882 68.2 120.442 66.08 117.282 66.08C114.002 66.08 111.542 68.4 111.542 71.62C111.542 74.82 113.962 77.16 117.682 77.16C119.622 77.16 121.122 76.56 122.122 75.42L120.462 73.62C119.722 74.32 118.902 74.66 117.762 74.66C116.122 74.66 114.982 73.84 114.682 72.5H122.822C122.842 72.24 122.882 71.9 122.882 71.66ZM117.302 68.44C118.702 68.44 119.722 69.32 119.942 70.68H114.642C114.862 69.3 115.882 68.44 117.302 68.44ZM127.94 67.66V66.24H124.96V77H128.08V71.92C128.08 69.86 129.22 68.92 130.94 68.92C131.18 68.92 131.38 68.94 131.64 68.96V66.08C129.98 66.08 128.7 66.62 127.94 67.66ZM141.546 66.24L138.466 73.56L135.486 66.24H132.266L136.786 77H140.006L144.546 66.24H141.546ZM147.379 64.74C148.539 64.74 149.319 63.98 149.319 62.94C149.319 61.98 148.539 61.26 147.379 61.26C146.219 61.26 145.439 62.02 145.439 63C145.439 63.98 146.219 64.74 147.379 64.74ZM145.819 77H148.939V66.24H145.819V77ZM157.035 77.16C159.295 77.16 161.075 76.16 161.855 74.44L159.435 73.12C158.855 74.16 157.995 74.6 157.015 74.6C155.435 74.6 154.195 73.5 154.195 71.62C154.195 69.74 155.435 68.64 157.015 68.64C157.995 68.64 158.855 69.1 159.435 70.12L161.855 68.82C161.075 67.06 159.295 66.08 157.035 66.08C153.535 66.08 151.035 68.38 151.035 71.62C151.035 74.86 153.535 77.16 157.035 77.16ZM165.211 64.74C166.371 64.74 167.151 63.98 167.151 62.94C167.151 61.98 166.371 61.26 165.211 61.26C164.051 61.26 163.271 62.02 163.271 63C163.271 63.98 164.051 64.74 165.211 64.74ZM163.651 77H166.771V66.24H163.651V77ZM174.787 77.16C178.207 77.16 180.687 74.86 180.687 71.62C180.687 68.38 178.207 66.08 174.787 66.08C171.367 66.08 168.867 68.38 168.867 71.62C168.867 74.86 171.367 77.16 174.787 77.16ZM174.787 74.6C173.227 74.6 172.027 73.48 172.027 71.62C172.027 69.76 173.227 68.64 174.787 68.64C176.347 68.64 177.527 69.76 177.527 71.62C177.527 73.48 176.347 74.6 174.787 74.6ZM186.392 77.16C189.612 77.16 191.472 75.74 191.472 73.74C191.472 69.5 184.972 71.28 184.972 69.44C184.972 68.88 185.572 68.44 186.972 68.44C187.952 68.44 189.012 68.64 190.072 69.24L191.112 67.02C190.092 66.42 188.452 66.08 186.972 66.08C183.832 66.08 181.992 67.52 181.992 69.56C181.992 73.86 188.492 72.06 188.492 73.82C188.492 74.42 187.952 74.8 186.512 74.8C185.192 74.8 183.732 74.38 182.772 73.76L181.732 76C182.732 76.66 184.572 77.16 186.392 77.16Z" fill="#100FA8"/>
<path d="M382.16 77H388.52C393.1 77 396.24 74.24 396.24 70C396.24 65.76 393.1 63 388.52 63H382.16V77ZM385.4 74.34V65.66H388.36C391.14 65.66 392.96 67.32 392.96 70C392.96 72.68 391.14 74.34 388.36 74.34H385.4ZM402.803 66.08C401.083 66.08 399.343 66.54 398.163 67.38L399.283 69.56C400.063 68.94 401.243 68.56 402.383 68.56C404.063 68.56 404.863 69.34 404.863 70.68H402.383C399.103 70.68 397.763 72 397.763 73.9C397.763 75.76 399.263 77.16 401.783 77.16C403.363 77.16 404.483 76.64 405.063 75.66V77H407.983V70.86C407.983 67.6 406.083 66.08 402.803 66.08ZM402.563 75.06C401.463 75.06 400.803 74.54 400.803 73.76C400.803 73.04 401.263 72.5 402.723 72.5H404.863V73.6C404.503 74.58 403.603 75.06 402.563 75.06ZM416.907 74.28C416.567 74.54 416.107 74.68 415.647 74.68C414.807 74.68 414.307 74.18 414.307 73.26V68.88H416.987V66.48H414.307V63.86H411.187V66.48H409.527V68.88H411.187V73.3C411.187 75.86 412.667 77.16 415.207 77.16C416.167 77.16 417.107 76.94 417.747 76.48L416.907 74.28ZM424.287 77.16C427.707 77.16 430.187 74.86 430.187 71.62C430.187 68.38 427.707 66.08 424.287 66.08C420.867 66.08 418.367 68.38 418.367 71.62C418.367 74.86 420.867 77.16 424.287 77.16ZM424.287 74.6C422.727 74.6 421.527 73.48 421.527 71.62C421.527 69.76 422.727 68.64 424.287 68.64C425.847 68.64 427.027 69.76 427.027 71.62C427.027 73.48 425.847 74.6 424.287 74.6ZM435.892 77.16C439.112 77.16 440.972 75.74 440.972 73.74C440.972 69.5 434.472 71.28 434.472 69.44C434.472 68.88 435.072 68.44 436.472 68.44C437.452 68.44 438.512 68.64 439.572 69.24L440.612 67.02C439.592 66.42 437.952 66.08 436.472 66.08C433.332 66.08 431.492 67.52 431.492 69.56C431.492 73.86 437.992 72.06 437.992 73.82C437.992 74.42 437.452 74.8 436.012 74.8C434.692 74.8 433.232 74.38 432.272 73.76L431.232 76C432.232 76.66 434.072 77.16 435.892 77.16ZM454.921 66.08C453.481 66.08 452.321 66.54 451.541 67.48V66.24H448.561V80.88H451.681V75.86C452.481 76.74 453.581 77.16 454.921 77.16C457.941 77.16 460.281 75 460.281 71.62C460.281 68.24 457.941 66.08 454.921 66.08ZM454.381 74.6C452.821 74.6 451.641 73.48 451.641 71.62C451.641 69.76 452.821 68.64 454.381 68.64C455.941 68.64 457.121 69.76 457.121 71.62C457.121 73.48 455.941 74.6 454.381 74.6ZM472.91 71.66C472.91 68.2 470.47 66.08 467.31 66.08C464.03 66.08 461.57 68.4 461.57 71.62C461.57 74.82 463.99 77.16 467.71 77.16C469.65 77.16 471.15 76.56 472.15 75.42L470.49 73.62C469.75 74.32 468.93 74.66 467.79 74.66C466.15 74.66 465.01 73.84 464.71 72.5H472.85C472.87 72.24 472.91 71.9 472.91 71.66ZM467.33 68.44C468.73 68.44 469.75 69.32 469.97 70.68H464.67C464.89 69.3 465.91 68.44 467.33 68.44ZM477.967 67.66V66.24H474.987V77H478.107V71.92C478.107 69.86 479.247 68.92 480.967 68.92C481.207 68.92 481.407 68.94 481.667 68.96V66.08C480.007 66.08 478.727 66.62 477.967 67.66ZM487.181 77.16C490.401 77.16 492.261 75.74 492.261 73.74C492.261 69.5 485.761 71.28 485.761 69.44C485.761 68.88 486.361 68.44 487.761 68.44C488.741 68.44 489.801 68.64 490.861 69.24L491.901 67.02C490.881 66.42 489.241 66.08 487.761 66.08C484.621 66.08 482.781 67.52 482.781 69.56C482.781 73.86 489.281 72.06 489.281 73.82C489.281 74.42 488.741 74.8 487.301 74.8C485.981 74.8 484.521 74.38 483.561 73.76L482.521 76C483.521 76.66 485.361 77.16 487.181 77.16ZM499.306 77.16C502.726 77.16 505.206 74.86 505.206 71.62C505.206 68.38 502.726 66.08 499.306 66.08C495.886 66.08 493.386 68.38 493.386 71.62C493.386 74.86 495.886 77.16 499.306 77.16ZM499.306 74.6C497.746 74.6 496.546 73.48 496.546 71.62C496.546 69.76 497.746 68.64 499.306 68.64C500.866 68.64 502.046 69.76 502.046 71.62C502.046 73.48 500.866 74.6 499.306 74.6ZM513.832 66.08C512.372 66.08 511.112 66.58 510.272 67.5V66.24H507.292V77H510.412V71.68C510.412 69.7 511.492 68.78 512.992 68.78C514.372 68.78 515.172 69.58 515.172 71.32V77H518.292V70.84C518.292 67.56 516.372 66.08 513.832 66.08ZM525.46 66.08C523.74 66.08 522 66.54 520.82 67.38L521.94 69.56C522.72 68.94 523.9 68.56 525.04 68.56C526.72 68.56 527.52 69.34 527.52 70.68H525.04C521.76 70.68 520.42 72 520.42 73.9C520.42 75.76 521.92 77.16 524.44 77.16C526.02 77.16 527.14 76.64 527.72 75.66V77H530.64V70.86C530.64 67.6 528.74 66.08 525.46 66.08ZM525.22 75.06C524.12 75.06 523.46 74.54 523.46 73.76C523.46 73.04 523.92 72.5 525.38 72.5H527.52V73.6C527.16 74.58 526.26 75.06 525.22 75.06ZM533.463 77H536.583V62.16H533.463V77ZM550.019 71.66C550.019 68.2 547.579 66.08 544.419 66.08C541.139 66.08 538.679 68.4 538.679 71.62C538.679 74.82 541.099 77.16 544.819 77.16C546.759 77.16 548.259 76.56 549.259 75.42L547.599 73.62C546.859 74.32 546.039 74.66 544.899 74.66C543.259 74.66 542.119 73.84 541.819 72.5H549.959C549.979 72.24 550.019 71.9 550.019 71.66ZM544.439 68.44C545.839 68.44 546.859 69.32 547.079 70.68H541.779C541.999 69.3 543.019 68.44 544.439 68.44ZM555.716 77.16C558.936 77.16 560.796 75.74 560.796 73.74C560.796 69.5 554.296 71.28 554.296 69.44C554.296 68.88 554.896 68.44 556.296 68.44C557.276 68.44 558.336 68.64 559.396 69.24L560.436 67.02C559.416 66.42 557.776 66.08 556.296 66.08C553.156 66.08 551.316 67.52 551.316 69.56C551.316 73.86 557.816 72.06 557.816 73.82C557.816 74.42 557.276 74.8 555.836 74.8C554.516 74.8 553.056 74.38 552.096 73.76L551.056 76C552.056 76.66 553.896 77.16 555.716 77.16Z" fill="#100FA8"/>
<path d="M757.76 77.24C756.64 77.24 755.567 77.0933 754.54 76.8C753.513 76.4933 752.687 76.1 752.06 75.62L753.16 73.18C753.76 73.6067 754.467 73.96 755.28 74.24C756.107 74.5067 756.94 74.64 757.78 74.64C758.42 74.64 758.933 74.58 759.32 74.46C759.72 74.3267 760.013 74.1467 760.2 73.92C760.387 73.6933 760.48 73.4333 760.48 73.14C760.48 72.7667 760.333 72.4733 760.04 72.26C759.747 72.0333 759.36 71.8533 758.88 71.72C758.4 71.5733 757.867 71.44 757.28 71.32C756.707 71.1867 756.127 71.0267 755.54 70.84C754.967 70.6533 754.44 70.4133 753.96 70.12C753.48 69.8267 753.087 69.44 752.78 68.96C752.487 68.48 752.34 67.8667 752.34 67.12C752.34 66.32 752.553 65.5933 752.98 64.94C753.42 64.2733 754.073 63.7467 754.94 63.36C755.82 62.96 756.92 62.76 758.24 62.76C759.12 62.76 759.987 62.8667 760.84 63.08C761.693 63.28 762.447 63.5867 763.1 64L762.1 66.46C761.447 66.0867 760.793 65.8133 760.14 65.64C759.487 65.4533 758.847 65.36 758.22 65.36C757.593 65.36 757.08 65.4333 756.68 65.58C756.28 65.7267 755.993 65.92 755.82 66.16C755.647 66.3867 755.56 66.6533 755.56 66.96C755.56 67.32 755.707 67.6133 756 67.84C756.293 68.0533 756.68 68.2267 757.16 68.36C757.64 68.4933 758.167 68.6267 758.74 68.76C759.327 68.8933 759.907 69.0467 760.48 69.22C761.067 69.3933 761.6 69.6267 762.08 69.92C762.56 70.2133 762.947 70.6 763.24 71.08C763.547 71.56 763.7 72.1667 763.7 72.9C763.7 73.6867 763.48 74.4067 763.04 75.06C762.6 75.7133 761.94 76.24 761.06 76.64C760.193 77.04 759.093 77.24 757.76 77.24ZM770.814 77.16C769.667 77.16 768.647 76.92 767.754 76.44C766.874 75.96 766.174 75.3067 765.654 74.48C765.147 73.64 764.894 72.6867 764.894 71.62C764.894 70.54 765.147 69.5867 765.654 68.76C766.174 67.92 766.874 67.2667 767.754 66.8C768.647 66.32 769.667 66.08 770.814 66.08C771.947 66.08 772.961 66.32 773.854 66.8C774.747 67.2667 775.447 67.9133 775.954 68.74C776.461 69.5667 776.714 70.5267 776.714 71.62C776.714 72.6867 776.461 73.64 775.954 74.48C775.447 75.3067 774.747 75.96 773.854 76.44C772.961 76.92 771.947 77.16 770.814 77.16ZM770.814 74.6C771.334 74.6 771.801 74.48 772.214 74.24C772.627 74 772.954 73.66 773.194 73.22C773.434 72.7667 773.554 72.2333 773.554 71.62C773.554 70.9933 773.434 70.46 773.194 70.02C772.954 69.58 772.627 69.24 772.214 69C771.801 68.76 771.334 68.64 770.814 68.64C770.294 68.64 769.827 68.76 769.414 69C769.001 69.24 768.667 69.58 768.414 70.02C768.174 70.46 768.054 70.9933 768.054 71.62C768.054 72.2333 768.174 72.7667 768.414 73.22C768.667 73.66 769.001 74 769.414 74.24C769.827 74.48 770.294 74.6 770.814 74.6ZM785.159 77.16C784.213 77.16 783.399 76.96 782.719 76.56C782.039 76.16 781.519 75.5533 781.159 74.74C780.799 73.9133 780.619 72.8733 780.619 71.62C780.619 70.3533 780.806 69.3133 781.179 68.5C781.566 67.6867 782.099 67.08 782.779 66.68C783.459 66.28 784.253 66.08 785.159 66.08C786.173 66.08 787.079 66.3067 787.879 66.76C788.693 67.2133 789.333 67.8533 789.799 68.68C790.279 69.5067 790.519 70.4867 790.519 71.62C790.519 72.74 790.279 73.7133 789.799 74.54C789.333 75.3667 788.693 76.0133 787.879 76.48C787.079 76.9333 786.173 77.16 785.159 77.16ZM778.799 77V62.16H781.919V68.42L781.719 71.6L781.779 74.8V77H778.799ZM784.619 74.6C785.139 74.6 785.599 74.48 785.999 74.24C786.413 74 786.739 73.66 786.979 73.22C787.233 72.7667 787.359 72.2333 787.359 71.62C787.359 70.9933 787.233 70.46 786.979 70.02C786.739 69.58 786.413 69.24 785.999 69C785.599 68.76 785.139 68.64 784.619 68.64C784.099 68.64 783.633 68.76 783.219 69C782.806 69.24 782.479 69.58 782.239 70.02C781.999 70.46 781.879 70.9933 781.879 71.62C781.879 72.2333 781.999 72.7667 782.239 73.22C782.479 73.66 782.806 74 783.219 74.24C783.633 74.48 784.099 74.6 784.619 74.6ZM792.608 77V66.24H795.588V69.28L795.168 68.4C795.488 67.64 796.001 67.0667 796.708 66.68C797.415 66.28 798.275 66.08 799.288 66.08V68.96C799.155 68.9467 799.035 68.94 798.928 68.94C798.821 68.9267 798.708 68.92 798.588 68.92C797.735 68.92 797.041 69.1667 796.508 69.66C795.988 70.14 795.728 70.8933 795.728 71.92V77H792.608ZM806.405 77.16C805.178 77.16 804.098 76.92 803.165 76.44C802.245 75.96 801.532 75.3067 801.025 74.48C800.518 73.64 800.265 72.6867 800.265 71.62C800.265 70.54 800.512 69.5867 801.005 68.76C801.512 67.92 802.198 67.2667 803.065 66.8C803.932 66.32 804.912 66.08 806.005 66.08C807.058 66.08 808.005 66.3067 808.845 66.76C809.698 67.2 810.372 67.84 810.865 68.68C811.358 69.5067 811.605 70.5 811.605 71.66C811.605 71.78 811.598 71.92 811.585 72.08C811.572 72.2267 811.558 72.3667 811.545 72.5H802.805V70.68H809.905L808.705 71.22C808.705 70.66 808.592 70.1733 808.365 69.76C808.138 69.3467 807.825 69.0267 807.425 68.8C807.025 68.56 806.558 68.44 806.025 68.44C805.492 68.44 805.018 68.56 804.605 68.8C804.205 69.0267 803.892 69.3533 803.665 69.78C803.438 70.1933 803.325 70.6867 803.325 71.26V71.74C803.325 72.3267 803.452 72.8467 803.705 73.3C803.972 73.74 804.338 74.08 804.805 74.32C805.285 74.5467 805.845 74.66 806.485 74.66C807.058 74.66 807.558 74.5733 807.985 74.4C808.425 74.2267 808.825 73.9667 809.185 73.62L810.845 75.42C810.352 75.98 809.732 76.4133 808.985 76.72C808.238 77.0133 807.378 77.16 806.405 77.16ZM823.746 77.16C822.48 77.16 821.493 76.84 820.786 76.2C820.08 75.5467 819.726 74.58 819.726 73.3V63.86H822.846V73.26C822.846 73.7133 822.966 74.0667 823.206 74.32C823.446 74.56 823.773 74.68 824.186 74.68C824.68 74.68 825.1 74.5467 825.446 74.28L826.286 76.48C825.966 76.7067 825.58 76.88 825.126 77C824.686 77.1067 824.226 77.16 823.746 77.16ZM818.066 68.88V66.48H825.526V68.88H818.066ZM832.578 77.16C831.684 77.16 830.884 76.9867 830.178 76.64C829.484 76.2933 828.944 75.7667 828.558 75.06C828.171 74.34 827.978 73.4267 827.978 72.32V66.24H831.098V71.86C831.098 72.7533 831.284 73.4133 831.658 73.84C832.044 74.2533 832.584 74.46 833.278 74.46C833.758 74.46 834.184 74.36 834.558 74.16C834.931 73.9467 835.224 73.6267 835.438 73.2C835.651 72.76 835.758 72.2133 835.758 71.56V66.24H838.878V77H835.918V74.04L836.458 74.9C836.098 75.6467 835.564 76.2133 834.858 76.6C834.164 76.9733 833.404 77.16 832.578 77.16ZM853.792 77.16C852.886 77.16 852.092 76.96 851.412 76.56C850.732 76.16 850.199 75.5533 849.812 74.74C849.439 73.9133 849.252 72.8733 849.252 71.62C849.252 70.3533 849.432 69.3133 849.792 68.5C850.152 67.6867 850.672 67.08 851.352 66.68C852.032 66.28 852.846 66.08 853.792 66.08C854.806 66.08 855.712 66.3133 856.512 66.78C857.326 67.2333 857.966 67.8733 858.432 68.7C858.912 69.5267 859.152 70.5 859.152 71.62C859.152 72.7533 858.912 73.7333 858.432 74.56C857.966 75.3867 857.326 76.0267 856.512 76.48C855.712 76.9333 854.806 77.16 853.792 77.16ZM847.432 80.88V66.24H850.412V68.44L850.352 71.64L850.552 74.82V80.88H847.432ZM853.252 74.6C853.772 74.6 854.232 74.48 854.632 74.24C855.046 74 855.372 73.66 855.612 73.22C855.866 72.7667 855.992 72.2333 855.992 71.62C855.992 70.9933 855.866 70.46 855.612 70.02C855.372 69.58 855.046 69.24 854.632 69C854.232 68.76 853.772 68.64 853.252 68.64C852.732 68.64 852.266 68.76 851.852 69C851.439 69.24 851.112 69.58 850.872 70.02C850.632 70.46 850.512 70.9933 850.512 71.62C850.512 72.2333 850.632 72.7667 850.872 73.22C851.112 73.66 851.439 74 851.852 74.24C852.266 74.48 852.732 74.6 853.252 74.6ZM861.241 77V66.24H864.221V69.28L863.801 68.4C864.121 67.64 864.634 67.0667 865.341 66.68C866.047 66.28 866.907 66.08 867.921 66.08V68.96C867.787 68.9467 867.667 68.94 867.561 68.94C867.454 68.9267 867.341 68.92 867.221 68.92C866.367 68.92 865.674 69.1667 865.141 69.66C864.621 70.14 864.361 70.8933 864.361 71.92V77H861.241ZM874.818 77.16C873.671 77.16 872.651 76.92 871.758 76.44C870.878 75.96 870.178 75.3067 869.658 74.48C869.151 73.64 868.898 72.6867 868.898 71.62C868.898 70.54 869.151 69.5867 869.658 68.76C870.178 67.92 870.878 67.2667 871.758 66.8C872.651 66.32 873.671 66.08 874.818 66.08C875.951 66.08 876.964 66.32 877.858 66.8C878.751 67.2667 879.451 67.9133 879.958 68.74C880.464 69.5667 880.718 70.5267 880.718 71.62C880.718 72.6867 880.464 73.64 879.958 74.48C879.451 75.3067 878.751 75.96 877.858 76.44C876.964 76.92 875.951 77.16 874.818 77.16ZM874.818 74.6C875.338 74.6 875.804 74.48 876.218 74.24C876.631 74 876.958 73.66 877.198 73.22C877.438 72.7667 877.558 72.2333 877.558 71.62C877.558 70.9933 877.438 70.46 877.198 70.02C876.958 69.58 876.631 69.24 876.218 69C875.804 68.76 875.338 68.64 874.818 68.64C874.298 68.64 873.831 68.76 873.418 69C873.004 69.24 872.671 69.58 872.418 70.02C872.178 70.46 872.058 70.9933 872.058 71.62C872.058 72.2333 872.178 72.7667 872.418 73.22C872.671 73.66 873.004 74 873.418 74.24C873.831 74.48 874.298 74.6 874.818 74.6ZM883.87 81.04C883.31 81.04 882.757 80.9533 882.21 80.78C881.664 80.6067 881.217 80.3667 880.87 80.06L882.01 77.84C882.25 78.0533 882.524 78.22 882.83 78.34C883.15 78.46 883.464 78.52 883.77 78.52C884.21 78.52 884.557 78.4133 884.81 78.2C885.077 78 885.317 77.66 885.53 77.18L886.09 75.86L886.33 75.52L890.19 66.24H893.19L888.33 77.66C887.984 78.5267 887.584 79.2067 887.13 79.7C886.69 80.1933 886.197 80.54 885.65 80.74C885.117 80.94 884.524 81.04 883.87 81.04ZM885.71 77.42L880.91 66.24H884.13L887.85 75.24L885.71 77.42ZM899.51 77.16C898.284 77.16 897.204 76.92 896.27 76.44C895.35 75.96 894.637 75.3067 894.13 74.48C893.624 73.64 893.37 72.6867 893.37 71.62C893.37 70.54 893.617 69.5867 894.11 68.76C894.617 67.92 895.304 67.2667 896.17 66.8C897.037 66.32 898.017 66.08 899.11 66.08C900.164 66.08 901.11 66.3067 901.95 66.76C902.804 67.2 903.477 67.84 903.97 68.68C904.464 69.5067 904.71 70.5 904.71 71.66C904.71 71.78 904.704 71.92 904.69 72.08C904.677 72.2267 904.664 72.3667 904.65 72.5H895.91V70.68H903.01L901.81 71.22C901.81 70.66 901.697 70.1733 901.47 69.76C901.244 69.3467 900.93 69.0267 900.53 68.8C900.13 68.56 899.664 68.44 899.13 68.44C898.597 68.44 898.124 68.56 897.71 68.8C897.31 69.0267 896.997 69.3533 896.77 69.78C896.544 70.1933 896.43 70.6867 896.43 71.26V71.74C896.43 72.3267 896.557 72.8467 896.81 73.3C897.077 73.74 897.444 74.08 897.91 74.32C898.39 74.5467 898.95 74.66 899.59 74.66C900.164 74.66 900.664 74.5733 901.09 74.4C901.53 74.2267 901.93 73.9667 902.29 73.62L903.95 75.42C903.457 75.98 902.837 76.4133 902.09 76.72C901.344 77.0133 900.484 77.16 899.51 77.16ZM911.988 77.16C910.828 77.16 909.794 76.9267 908.888 76.46C907.981 75.98 907.268 75.32 906.748 74.48C906.241 73.64 905.988 72.6867 905.988 71.62C905.988 70.54 906.241 69.5867 906.748 68.76C907.268 67.92 907.981 67.2667 908.888 66.8C909.794 66.32 910.828 66.08 911.988 66.08C913.121 66.08 914.108 66.32 914.948 66.8C915.788 67.2667 916.408 67.94 916.808 68.82L914.388 70.12C914.108 69.6133 913.754 69.24 913.328 69C912.914 68.76 912.461 68.64 911.968 68.64C911.434 68.64 910.954 68.76 910.528 69C910.101 69.24 909.761 69.58 909.508 70.02C909.268 70.46 909.148 70.9933 909.148 71.62C909.148 72.2467 909.268 72.78 909.508 73.22C909.761 73.66 910.101 74 910.528 74.24C910.954 74.48 911.434 74.6 911.968 74.6C912.461 74.6 912.914 74.4867 913.328 74.26C913.754 74.02 914.108 73.64 914.388 73.12L916.808 74.44C916.408 75.3067 915.788 75.98 914.948 76.46C914.108 76.9267 913.121 77.16 911.988 77.16ZM923.16 77.16C921.894 77.16 920.907 76.84 920.2 76.2C919.494 75.5467 919.14 74.58 919.14 73.3V63.86H922.26V73.26C922.26 73.7133 922.38 74.0667 922.62 74.32C922.86 74.56 923.187 74.68 923.6 74.68C924.094 74.68 924.514 74.5467 924.86 74.28L925.7 76.48C925.38 76.7067 924.994 76.88 924.54 77C924.1 77.1067 923.64 77.16 923.16 77.16ZM917.48 68.88V66.48H924.94V68.88H917.48ZM932.24 77.16C931.093 77.16 930.073 76.92 929.18 76.44C928.3 75.96 927.6 75.3067 927.08 74.48C926.573 73.64 926.32 72.6867 926.32 71.62C926.32 70.54 926.573 69.5867 927.08 68.76C927.6 67.92 928.3 67.2667 929.18 66.8C930.073 66.32 931.093 66.08 932.24 66.08C933.373 66.08 934.386 66.32 935.28 66.8C936.173 67.2667 936.873 67.9133 937.38 68.74C937.886 69.5667 938.14 70.5267 938.14 71.62C938.14 72.6867 937.886 73.64 937.38 74.48C936.873 75.3067 936.173 75.96 935.28 76.44C934.386 76.92 933.373 77.16 932.24 77.16ZM932.24 74.6C932.76 74.6 933.226 74.48 933.64 74.24C934.053 74 934.38 73.66 934.62 73.22C934.86 72.7667 934.98 72.2333 934.98 71.62C934.98 70.9933 934.86 70.46 934.62 70.02C934.38 69.58 934.053 69.24 933.64 69C933.226 68.76 932.76 68.64 932.24 68.64C931.72 68.64 931.253 68.76 930.84 69C930.426 69.24 930.093 69.58 929.84 70.02C929.6 70.46 929.48 70.9933 929.48 71.62C929.48 72.2333 929.6 72.7667 929.84 73.22C930.093 73.66 930.426 74 930.84 74.24C931.253 74.48 931.72 74.6 932.24 74.6Z" fill="#9999AD"/>
<rect x="73.5" width="40" height="40" rx="8" fill="#100FA8"/>
<g clip-path="url(#clip0_1307_5514)">
<path d="M91.833 23.172L101.025 13.979L102.44 15.393L91.833 26L85.469 19.636L86.883 18.222L91.833 23.172Z" fill="white"/>
</g>
<line x1="281.5" y1="21.5137" x2="121.5" y2="21.5137" stroke="#100FA8"/>
<line x1="441.5" y1="21.5137" x2="281.5" y2="21.5137" stroke="#100FA8"/>
<rect x="449.5" width="40" height="40" rx="8" fill="#100FA8"/>
<g clip-path="url(#clip1_1307_5514)">
<path d="M467.833 24.172L477.025 14.979L478.44 16.393L467.833 27L461.469 20.636L462.883 19.222L467.833 24.172Z" fill="white"/>
</g>
<line x1="657.5" y1="21.5137" x2="497.5" y2="21.5137" stroke="#100FA8"/>
<line x1="817.5" y1="21.5137" x2="657.5" y2="21.5137" stroke="#100FA8"/>
<rect x="825.5" width="40" height="40" rx="8" fill="#100FA8"/>
<path d="M846.842 18.7006L849.995 15.0941L849.99 12.9941L840.19 13.0142L840.196 15.6142L846.156 15.602L843.282 18.8679L843.287 21.0079L844.767 21.0049C846.607 21.0011 847.388 21.6595 847.39 22.7195C847.392 23.8595 846.394 24.5215 844.774 24.5248C843.314 24.5278 841.833 24.0709 840.771 23.2731L839.516 25.7556C840.878 26.7128 842.899 27.2487 844.859 27.2447C848.839 27.2365 850.655 25.0728 850.65 22.7128C850.646 20.6528 849.363 19.0954 846.842 18.7006Z" fill="white"/>
<defs>
<clipPath id="clip0_1307_5514">
<rect width="24" height="24" fill="white" transform="translate(81.833 8)"/>
</clipPath>
<clipPath id="clip1_1307_5514">
<rect width="24" height="24" fill="white" transform="translate(457.833 9)"/>
</clipPath>
</defs>
</svg>
