<svg width="270" height="64" viewBox="0 0 270 64" fill="none" xmlns="http://www.w3.org/2000/svg">
<rect x="16" width="24" height="24" rx="4" fill="#100FA8"/>
<g clip-path="url(#clip0_1307_5514)">
<path d="M26.6667 14.1147L32.7947 7.986L33.738 8.92867L26.6667 16L22.424 11.7573L23.3667 10.8147L26.6667 14.1147Z" fill="white"/>
</g>
<path d="M0.794828 44V35.6H2.40283L7.35883 41.648H6.57883V35.6H8.49883V44H6.90283L1.93483 37.952H2.71483V44H0.794828ZM13.0782 44.096C12.5422 44.096 12.0622 43.992 11.6382 43.784C11.2222 43.576 10.8982 43.26 10.6662 42.836C10.4342 42.404 10.3182 41.856 10.3182 41.192V37.544H12.1902V40.916C12.1902 41.452 12.3022 41.848 12.5262 42.104C12.7582 42.352 13.0822 42.476 13.4982 42.476C13.7862 42.476 14.0422 42.416 14.2662 42.296C14.4902 42.168 14.6662 41.976 14.7942 41.72C14.9222 41.456 14.9862 41.128 14.9862 40.736V37.544H16.8582V44H15.0822V42.224L15.4062 42.74C15.1902 43.188 14.8702 43.528 14.4462 43.76C14.0302 43.984 13.5742 44.096 13.0782 44.096ZM21.7965 44.096C21.0605 44.096 20.4125 43.952 19.8525 43.664C19.3005 43.376 18.8725 42.984 18.5685 42.488C18.2645 41.984 18.1125 41.412 18.1125 40.772C18.1125 40.124 18.2605 39.552 18.5565 39.056C18.8605 38.552 19.2725 38.16 19.7925 37.88C20.3125 37.592 20.9005 37.448 21.5565 37.448C22.1885 37.448 22.7565 37.584 23.2605 37.856C23.7725 38.12 24.1765 38.504 24.4725 39.008C24.7685 39.504 24.9165 40.1 24.9165 40.796C24.9165 40.868 24.9125 40.952 24.9045 41.048C24.8965 41.136 24.8885 41.22 24.8805 41.3H19.6365V40.208H23.8965L23.1765 40.532C23.1765 40.196 23.1085 39.904 22.9725 39.656C22.8365 39.408 22.6485 39.216 22.4085 39.08C22.1685 38.936 21.8885 38.864 21.5685 38.864C21.2485 38.864 20.9645 38.936 20.7165 39.08C20.4765 39.216 20.2885 39.412 20.1525 39.668C20.0165 39.916 19.9485 40.212 19.9485 40.556V40.844C19.9485 41.196 20.0245 41.508 20.1765 41.78C20.3365 42.044 20.5565 42.248 20.8365 42.392C21.1245 42.528 21.4605 42.596 21.8445 42.596C22.1885 42.596 22.4885 42.544 22.7445 42.44C23.0085 42.336 23.2485 42.18 23.4645 41.972L24.4605 43.052C24.1645 43.388 23.7925 43.648 23.3445 43.832C22.8965 44.008 22.3805 44.096 21.7965 44.096ZM28.3348 44.096C27.7828 44.096 27.2508 44.032 26.7388 43.904C26.2348 43.768 25.8348 43.6 25.5388 43.4L26.1628 42.056C26.4588 42.24 26.8068 42.392 27.2068 42.512C27.6148 42.624 28.0148 42.68 28.4068 42.68C28.8388 42.68 29.1428 42.628 29.3188 42.524C29.5028 42.42 29.5948 42.276 29.5948 42.092C29.5948 41.94 29.5228 41.828 29.3788 41.756C29.2428 41.676 29.0588 41.616 28.8268 41.576C28.5948 41.536 28.3388 41.496 28.0588 41.456C27.7868 41.416 27.5108 41.364 27.2308 41.3C26.9508 41.228 26.6948 41.124 26.4628 40.988C26.2308 40.852 26.0428 40.668 25.8988 40.436C25.7628 40.204 25.6948 39.904 25.6948 39.536C25.6948 39.128 25.8108 38.768 26.0428 38.456C26.2828 38.144 26.6268 37.9 27.0748 37.724C27.5228 37.54 28.0588 37.448 28.6828 37.448C29.1228 37.448 29.5708 37.496 30.0268 37.592C30.4828 37.688 30.8628 37.828 31.1668 38.012L30.5428 39.344C30.2308 39.16 29.9148 39.036 29.5948 38.972C29.2828 38.9 28.9788 38.864 28.6828 38.864C28.2668 38.864 27.9628 38.92 27.7708 39.032C27.5788 39.144 27.4828 39.288 27.4828 39.464C27.4828 39.624 27.5508 39.744 27.6868 39.824C27.8308 39.904 28.0188 39.968 28.2508 40.016C28.4828 40.064 28.7348 40.108 29.0068 40.148C29.2868 40.18 29.5668 40.232 29.8468 40.304C30.1268 40.376 30.3788 40.48 30.6028 40.616C30.8348 40.744 31.0228 40.924 31.1668 41.156C31.3108 41.38 31.3828 41.676 31.3828 42.044C31.3828 42.444 31.2628 42.8 31.0228 43.112C30.7828 43.416 30.4348 43.656 29.9788 43.832C29.5308 44.008 28.9828 44.096 28.3348 44.096ZM35.1778 44.096C34.4178 44.096 33.8258 43.904 33.4018 43.52C32.9778 43.128 32.7658 42.548 32.7658 41.78V36.116H34.6378V41.756C34.6378 42.028 34.7098 42.24 34.8538 42.392C34.9978 42.536 35.1938 42.608 35.4418 42.608C35.7378 42.608 35.9898 42.528 36.1978 42.368L36.7018 43.688C36.5098 43.824 36.2778 43.928 36.0058 44C35.7418 44.064 35.4658 44.096 35.1778 44.096ZM31.7698 39.128V37.688H36.2458V39.128H31.7698ZM37.7527 44V37.544H39.5407V39.368L39.2887 38.84C39.4807 38.384 39.7887 38.04 40.2127 37.808C40.6367 37.568 41.1527 37.448 41.7607 37.448V39.176C41.6807 39.168 41.6087 39.164 41.5447 39.164C41.4807 39.156 41.4127 39.152 41.3407 39.152C40.8287 39.152 40.4127 39.3 40.0927 39.596C39.7807 39.884 39.6247 40.336 39.6247 40.952V44H37.7527ZM45.8989 44.096C45.2109 44.096 44.5989 43.952 44.0629 43.664C43.5349 43.376 43.1149 42.984 42.8029 42.488C42.4989 41.984 42.3469 41.412 42.3469 40.772C42.3469 40.124 42.4989 39.552 42.8029 39.056C43.1149 38.552 43.5349 38.16 44.0629 37.88C44.5989 37.592 45.2109 37.448 45.8989 37.448C46.5789 37.448 47.1869 37.592 47.7229 37.88C48.2589 38.16 48.6789 38.548 48.9829 39.044C49.2869 39.54 49.4389 40.116 49.4389 40.772C49.4389 41.412 49.2869 41.984 48.9829 42.488C48.6789 42.984 48.2589 43.376 47.7229 43.664C47.1869 43.952 46.5789 44.096 45.8989 44.096ZM45.8989 42.56C46.2109 42.56 46.4909 42.488 46.7389 42.344C46.9869 42.2 47.1829 41.996 47.3269 41.732C47.4709 41.46 47.5429 41.14 47.5429 40.772C47.5429 40.396 47.4709 40.076 47.3269 39.812C47.1829 39.548 46.9869 39.344 46.7389 39.2C46.4909 39.056 46.2109 38.984 45.8989 38.984C45.5869 38.984 45.3069 39.056 45.0589 39.2C44.8109 39.344 44.6109 39.548 44.4589 39.812C44.3149 40.076 44.2429 40.396 44.2429 40.772C44.2429 41.14 44.3149 41.46 44.4589 41.732C44.6109 41.996 44.8109 42.2 45.0589 42.344C45.3069 42.488 45.5869 42.56 45.8989 42.56ZM52.8622 44.096C52.3102 44.096 51.7782 44.032 51.2662 43.904C50.7622 43.768 50.3622 43.6 50.0662 43.4L50.6902 42.056C50.9862 42.24 51.3342 42.392 51.7342 42.512C52.1422 42.624 52.5422 42.68 52.9342 42.68C53.3662 42.68 53.6702 42.628 53.8462 42.524C54.0302 42.42 54.1222 42.276 54.1222 42.092C54.1222 41.94 54.0502 41.828 53.9062 41.756C53.7702 41.676 53.5862 41.616 53.3542 41.576C53.1222 41.536 52.8662 41.496 52.5862 41.456C52.3142 41.416 52.0382 41.364 51.7582 41.3C51.4782 41.228 51.2222 41.124 50.9902 40.988C50.7582 40.852 50.5702 40.668 50.4262 40.436C50.2902 40.204 50.2222 39.904 50.2222 39.536C50.2222 39.128 50.3382 38.768 50.5702 38.456C50.8102 38.144 51.1542 37.9 51.6022 37.724C52.0502 37.54 52.5862 37.448 53.2102 37.448C53.6502 37.448 54.0982 37.496 54.5542 37.592C55.0102 37.688 55.3902 37.828 55.6942 38.012L55.0702 39.344C54.7582 39.16 54.4422 39.036 54.1222 38.972C53.8102 38.9 53.5062 38.864 53.2102 38.864C52.7942 38.864 52.4902 38.92 52.2982 39.032C52.1062 39.144 52.0102 39.288 52.0102 39.464C52.0102 39.624 52.0782 39.744 52.2142 39.824C52.3582 39.904 52.5462 39.968 52.7782 40.016C53.0102 40.064 53.2622 40.108 53.5342 40.148C53.8142 40.18 54.0942 40.232 54.3742 40.304C54.6542 40.376 54.9062 40.48 55.1302 40.616C55.3622 40.744 55.5502 40.924 55.6942 41.156C55.8382 41.38 55.9102 41.676 55.9102 42.044C55.9102 42.444 55.7902 42.8 55.5502 43.112C55.3102 43.416 54.9622 43.656 54.5062 43.832C54.0582 44.008 53.5102 44.096 52.8622 44.096ZM3.54967 60.096C2.99767 60.096 2.46567 60.032 1.95367 59.904C1.44967 59.768 1.04967 59.6 0.753672 59.4L1.37767 58.056C1.67367 58.24 2.02167 58.392 2.42167 58.512C2.82967 58.624 3.22967 58.68 3.62167 58.68C4.05367 58.68 4.35767 58.628 4.53367 58.524C4.71767 58.42 4.80967 58.276 4.80967 58.092C4.80967 57.94 4.73767 57.828 4.59367 57.756C4.45767 57.676 4.27367 57.616 4.04167 57.576C3.80967 57.536 3.55367 57.496 3.27367 57.456C3.00167 57.416 2.72567 57.364 2.44567 57.3C2.16567 57.228 1.90967 57.124 1.67767 56.988C1.44567 56.852 1.25767 56.668 1.11367 56.436C0.977672 56.204 0.909672 55.904 0.909672 55.536C0.909672 55.128 1.02567 54.768 1.25767 54.456C1.49767 54.144 1.84167 53.9 2.28967 53.724C2.73767 53.54 3.27367 53.448 3.89767 53.448C4.33767 53.448 4.78567 53.496 5.24167 53.592C5.69767 53.688 6.07767 53.828 6.38167 54.012L5.75767 55.344C5.44567 55.16 5.12967 55.036 4.80967 54.972C4.49767 54.9 4.19367 54.864 3.89767 54.864C3.48167 54.864 3.17767 54.92 2.98567 55.032C2.79367 55.144 2.69767 55.288 2.69767 55.464C2.69767 55.624 2.76567 55.744 2.90167 55.824C3.04567 55.904 3.23367 55.968 3.46567 56.016C3.69767 56.064 3.94967 56.108 4.22167 56.148C4.50167 56.18 4.78167 56.232 5.06167 56.304C5.34167 56.376 5.59367 56.48 5.81767 56.616C6.04967 56.744 6.23767 56.924 6.38167 57.156C6.52567 57.38 6.59767 57.676 6.59767 58.044C6.59767 58.444 6.47767 58.8 6.23767 59.112C5.99767 59.416 5.64967 59.656 5.19367 59.832C4.74567 60.008 4.19767 60.096 3.54967 60.096ZM10.9567 60.096C10.2207 60.096 9.57267 59.952 9.01267 59.664C8.46067 59.376 8.03267 58.984 7.72867 58.488C7.42467 57.984 7.27267 57.412 7.27267 56.772C7.27267 56.124 7.42067 55.552 7.71667 55.056C8.02067 54.552 8.43267 54.16 8.95267 53.88C9.47267 53.592 10.0607 53.448 10.7167 53.448C11.3487 53.448 11.9167 53.584 12.4207 53.856C12.9327 54.12 13.3367 54.504 13.6327 55.008C13.9287 55.504 14.0767 56.1 14.0767 56.796C14.0767 56.868 14.0727 56.952 14.0647 57.048C14.0567 57.136 14.0487 57.22 14.0407 57.3H8.79667V56.208H13.0567L12.3367 56.532C12.3367 56.196 12.2687 55.904 12.1327 55.656C11.9967 55.408 11.8087 55.216 11.5687 55.08C11.3287 54.936 11.0487 54.864 10.7287 54.864C10.4087 54.864 10.1247 54.936 9.87667 55.08C9.63667 55.216 9.44867 55.412 9.31267 55.668C9.17667 55.916 9.10867 56.212 9.10867 56.556V56.844C9.10867 57.196 9.18467 57.508 9.33667 57.78C9.49667 58.044 9.71667 58.248 9.99667 58.392C10.2847 58.528 10.6207 58.596 11.0047 58.596C11.3487 58.596 11.6487 58.544 11.9047 58.44C12.1687 58.336 12.4087 58.18 12.6247 57.972L13.6207 59.052C13.3247 59.388 12.9527 59.648 12.5047 59.832C12.0567 60.008 11.5407 60.096 10.9567 60.096ZM15.323 60V53.544H17.111V55.368L16.859 54.84C17.051 54.384 17.359 54.04 17.783 53.808C18.207 53.568 18.723 53.448 19.331 53.448V55.176C19.251 55.168 19.179 55.164 19.115 55.164C19.051 55.156 18.983 55.152 18.911 55.152C18.399 55.152 17.983 55.3 17.663 55.596C17.351 55.884 17.195 56.336 17.195 56.952V60H15.323ZM22.4187 60L19.7067 53.544H21.6387L23.8947 59.1H22.9347L25.2747 53.544H27.0747L24.3507 60H22.4187ZM27.8386 60V53.544H29.7106V60H27.8386ZM28.7746 52.644C28.4306 52.644 28.1506 52.544 27.9346 52.344C27.7186 52.144 27.6106 51.896 27.6106 51.6C27.6106 51.304 27.7186 51.056 27.9346 50.856C28.1506 50.656 28.4306 50.556 28.7746 50.556C29.1186 50.556 29.3986 50.652 29.6146 50.844C29.8306 51.028 29.9386 51.268 29.9386 51.564C29.9386 51.876 29.8306 52.136 29.6146 52.344C29.4066 52.544 29.1266 52.644 28.7746 52.644ZM34.568 60.096C33.872 60.096 33.252 59.956 32.708 59.676C32.164 59.388 31.736 58.992 31.424 58.488C31.12 57.984 30.968 57.412 30.968 56.772C30.968 56.124 31.12 55.552 31.424 55.056C31.736 54.552 32.164 54.16 32.708 53.88C33.252 53.592 33.872 53.448 34.568 53.448C35.248 53.448 35.84 53.592 36.344 53.88C36.848 54.16 37.22 54.564 37.46 55.092L36.008 55.872C35.84 55.568 35.628 55.344 35.372 55.2C35.124 55.056 34.852 54.984 34.556 54.984C34.236 54.984 33.948 55.056 33.692 55.2C33.436 55.344 33.232 55.548 33.08 55.812C32.936 56.076 32.864 56.396 32.864 56.772C32.864 57.148 32.936 57.468 33.08 57.732C33.232 57.996 33.436 58.2 33.692 58.344C33.948 58.488 34.236 58.56 34.556 58.56C34.852 58.56 35.124 58.492 35.372 58.356C35.628 58.212 35.84 57.984 36.008 57.672L37.46 58.464C37.22 58.984 36.848 59.388 36.344 59.676C35.84 59.956 35.248 60.096 34.568 60.096ZM38.5027 60V53.544H40.3747V60H38.5027ZM39.4387 52.644C39.0947 52.644 38.8147 52.544 38.5987 52.344C38.3827 52.144 38.2747 51.896 38.2747 51.6C38.2747 51.304 38.3827 51.056 38.5987 50.856C38.8147 50.656 39.0947 50.556 39.4387 50.556C39.7827 50.556 40.0627 50.652 40.2787 50.844C40.4947 51.028 40.6027 51.268 40.6027 51.564C40.6027 51.876 40.4947 52.136 40.2787 52.344C40.0707 52.544 39.7907 52.644 39.4387 52.644ZM45.184 60.096C44.496 60.096 43.884 59.952 43.348 59.664C42.82 59.376 42.4 58.984 42.088 58.488C41.784 57.984 41.632 57.412 41.632 56.772C41.632 56.124 41.784 55.552 42.088 55.056C42.4 54.552 42.82 54.16 43.348 53.88C43.884 53.592 44.496 53.448 45.184 53.448C45.864 53.448 46.472 53.592 47.008 53.88C47.544 54.16 47.964 54.548 48.268 55.044C48.572 55.54 48.724 56.116 48.724 56.772C48.724 57.412 48.572 57.984 48.268 58.488C47.964 58.984 47.544 59.376 47.008 59.664C46.472 59.952 45.864 60.096 45.184 60.096ZM45.184 58.56C45.496 58.56 45.776 58.488 46.024 58.344C46.272 58.2 46.468 57.996 46.612 57.732C46.756 57.46 46.828 57.14 46.828 56.772C46.828 56.396 46.756 56.076 46.612 55.812C46.468 55.548 46.272 55.344 46.024 55.2C45.776 55.056 45.496 54.984 45.184 54.984C44.872 54.984 44.592 55.056 44.344 55.2C44.096 55.344 43.896 55.548 43.744 55.812C43.6 56.076 43.528 56.396 43.528 56.772C43.528 57.14 43.6 57.46 43.744 57.732C43.896 57.996 44.096 58.2 44.344 58.344C44.592 58.488 44.872 58.56 45.184 58.56ZM52.1473 60.096C51.5953 60.096 51.0633 60.032 50.5513 59.904C50.0473 59.768 49.6473 59.6 49.3513 59.4L49.9753 58.056C50.2713 58.24 50.6193 58.392 51.0193 58.512C51.4273 58.624 51.8273 58.68 52.2193 58.68C52.6513 58.68 52.9553 58.628 53.1313 58.524C53.3153 58.42 53.4073 58.276 53.4073 58.092C53.4073 57.94 53.3353 57.828 53.1913 57.756C53.0553 57.676 52.8713 57.616 52.6393 57.576C52.4073 57.536 52.1513 57.496 51.8713 57.456C51.5993 57.416 51.3233 57.364 51.0433 57.3C50.7633 57.228 50.5073 57.124 50.2753 56.988C50.0433 56.852 49.8553 56.668 49.7113 56.436C49.5753 56.204 49.5073 55.904 49.5073 55.536C49.5073 55.128 49.6233 54.768 49.8553 54.456C50.0953 54.144 50.4393 53.9 50.8873 53.724C51.3353 53.54 51.8713 53.448 52.4953 53.448C52.9353 53.448 53.3833 53.496 53.8393 53.592C54.2953 53.688 54.6753 53.828 54.9793 54.012L54.3553 55.344C54.0433 55.16 53.7273 55.036 53.4073 54.972C53.0953 54.9 52.7913 54.864 52.4953 54.864C52.0793 54.864 51.7753 54.92 51.5833 55.032C51.3913 55.144 51.2953 55.288 51.2953 55.464C51.2953 55.624 51.3633 55.744 51.4993 55.824C51.6433 55.904 51.8313 55.968 52.0633 56.016C52.2953 56.064 52.5473 56.108 52.8193 56.148C53.0993 56.18 53.3793 56.232 53.6593 56.304C53.9393 56.376 54.1913 56.48 54.4153 56.616C54.6473 56.744 54.8353 56.924 54.9793 57.156C55.1233 57.38 55.1953 57.676 55.1953 58.044C55.1953 58.444 55.0753 58.8 54.8353 59.112C54.5953 59.416 54.2473 59.656 53.7913 59.832C53.3433 60.008 52.7953 60.096 52.1473 60.096Z" fill="#100FA8"/>
<line x1="42.6665" y1="11.75" x2="63.6665" y2="11.75" stroke="#100FA8" stroke-width="0.5"/>
<line x1="63.6665" y1="11.75" x2="84.6665" y2="11.75" stroke="#100FA8" stroke-width="0.5"/>
<rect x="87.3335" width="24" height="24" rx="4" fill="#100FA8"/>
<g clip-path="url(#clip1_1307_5514)">
<path d="M97.6667 14.1147L103.795 7.986L104.738 8.92867L97.6667 16L93.424 11.7573L94.3667 10.8147L97.6667 14.1147Z" fill="white"/>
</g>
<path d="M82.0424 44V35.6H85.8584C86.7704 35.6 87.5744 35.776 88.2704 36.128C88.9664 36.472 89.5104 36.956 89.9024 37.58C90.2944 38.204 90.4904 38.944 90.4904 39.8C90.4904 40.648 90.2944 41.388 89.9024 42.02C89.5104 42.644 88.9664 43.132 88.2704 43.484C87.5744 43.828 86.7704 44 85.8584 44H82.0424ZM83.9864 42.404H85.7624C86.3224 42.404 86.8064 42.3 87.2144 42.092C87.6304 41.876 87.9504 41.572 88.1744 41.18C88.4064 40.788 88.5224 40.328 88.5224 39.8C88.5224 39.264 88.4064 38.804 88.1744 38.42C87.9504 38.028 87.6304 37.728 87.2144 37.52C86.8064 37.304 86.3224 37.196 85.7624 37.196H83.9864V42.404ZM95.7844 44V42.74L95.6644 42.464V40.208C95.6644 39.808 95.5404 39.496 95.2924 39.272C95.0524 39.048 94.6804 38.936 94.1764 38.936C93.8324 38.936 93.4924 38.992 93.1564 39.104C92.8284 39.208 92.5484 39.352 92.3164 39.536L91.6444 38.228C91.9964 37.98 92.4204 37.788 92.9164 37.652C93.4124 37.516 93.9164 37.448 94.4284 37.448C95.4124 37.448 96.1764 37.68 96.7204 38.144C97.2644 38.608 97.5364 39.332 97.5364 40.316V44H95.7844ZM93.8164 44.096C93.3124 44.096 92.8804 44.012 92.5204 43.844C92.1604 43.668 91.8844 43.432 91.6924 43.136C91.5004 42.84 91.4044 42.508 91.4044 42.14C91.4044 41.756 91.4964 41.42 91.6804 41.132C91.8724 40.844 92.1724 40.62 92.5804 40.46C92.9884 40.292 93.5204 40.208 94.1764 40.208H95.8924V41.3H94.3804C93.9404 41.3 93.6364 41.372 93.4684 41.516C93.3084 41.66 93.2284 41.84 93.2284 42.056C93.2284 42.296 93.3204 42.488 93.5044 42.632C93.6964 42.768 93.9564 42.836 94.2844 42.836C94.5964 42.836 94.8764 42.764 95.1244 42.62C95.3724 42.468 95.5524 42.248 95.6644 41.96L95.9524 42.824C95.8164 43.24 95.5684 43.556 95.2084 43.772C94.8484 43.988 94.3844 44.096 93.8164 44.096ZM101.871 44.096C101.111 44.096 100.519 43.904 100.095 43.52C99.6707 43.128 99.4587 42.548 99.4587 41.78V36.116H101.331V41.756C101.331 42.028 101.403 42.24 101.547 42.392C101.691 42.536 101.887 42.608 102.135 42.608C102.431 42.608 102.683 42.528 102.891 42.368L103.395 43.688C103.203 43.824 102.971 43.928 102.699 44C102.435 44.064 102.159 44.096 101.871 44.096ZM98.4627 39.128V37.688H102.939V39.128H98.4627ZM107.318 44.096C106.63 44.096 106.018 43.952 105.482 43.664C104.954 43.376 104.534 42.984 104.222 42.488C103.918 41.984 103.766 41.412 103.766 40.772C103.766 40.124 103.918 39.552 104.222 39.056C104.534 38.552 104.954 38.16 105.482 37.88C106.018 37.592 106.63 37.448 107.318 37.448C107.998 37.448 108.606 37.592 109.142 37.88C109.678 38.16 110.098 38.548 110.402 39.044C110.706 39.54 110.858 40.116 110.858 40.772C110.858 41.412 110.706 41.984 110.402 42.488C110.098 42.984 109.678 43.376 109.142 43.664C108.606 43.952 107.998 44.096 107.318 44.096ZM107.318 42.56C107.63 42.56 107.91 42.488 108.158 42.344C108.406 42.2 108.602 41.996 108.746 41.732C108.89 41.46 108.962 41.14 108.962 40.772C108.962 40.396 108.89 40.076 108.746 39.812C108.602 39.548 108.406 39.344 108.158 39.2C107.91 39.056 107.63 38.984 107.318 38.984C107.006 38.984 106.726 39.056 106.478 39.2C106.23 39.344 106.03 39.548 105.878 39.812C105.734 40.076 105.662 40.396 105.662 40.772C105.662 41.14 105.734 41.46 105.878 41.732C106.03 41.996 106.23 42.2 106.478 42.344C106.726 42.488 107.006 42.56 107.318 42.56ZM114.282 44.096C113.73 44.096 113.198 44.032 112.686 43.904C112.182 43.768 111.782 43.6 111.486 43.4L112.11 42.056C112.406 42.24 112.754 42.392 113.154 42.512C113.562 42.624 113.962 42.68 114.354 42.68C114.786 42.68 115.09 42.628 115.266 42.524C115.45 42.42 115.542 42.276 115.542 42.092C115.542 41.94 115.47 41.828 115.326 41.756C115.19 41.676 115.006 41.616 114.774 41.576C114.542 41.536 114.286 41.496 114.006 41.456C113.734 41.416 113.458 41.364 113.178 41.3C112.898 41.228 112.642 41.124 112.41 40.988C112.178 40.852 111.99 40.668 111.846 40.436C111.71 40.204 111.642 39.904 111.642 39.536C111.642 39.128 111.758 38.768 111.99 38.456C112.23 38.144 112.574 37.9 113.022 37.724C113.47 37.54 114.006 37.448 114.63 37.448C115.07 37.448 115.518 37.496 115.974 37.592C116.43 37.688 116.81 37.828 117.114 38.012L116.49 39.344C116.178 39.16 115.862 39.036 115.542 38.972C115.23 38.9 114.926 38.864 114.63 38.864C114.214 38.864 113.91 38.92 113.718 39.032C113.526 39.144 113.43 39.288 113.43 39.464C113.43 39.624 113.498 39.744 113.634 39.824C113.778 39.904 113.966 39.968 114.198 40.016C114.43 40.064 114.682 40.108 114.954 40.148C115.234 40.18 115.514 40.232 115.794 40.304C116.074 40.376 116.326 40.48 116.55 40.616C116.782 40.744 116.97 40.924 117.114 41.156C117.258 41.38 117.33 41.676 117.33 42.044C117.33 42.444 117.21 42.8 116.97 43.112C116.73 43.416 116.382 43.656 115.926 43.832C115.478 44.008 114.93 44.096 114.282 44.096ZM69.7537 60.096C69.2097 60.096 68.7337 59.976 68.3257 59.736C67.9177 59.496 67.5977 59.132 67.3657 58.644C67.1417 58.148 67.0297 57.524 67.0297 56.772C67.0297 56.012 67.1377 55.388 67.3537 54.9C67.5697 54.412 67.8817 54.048 68.2897 53.808C68.6977 53.568 69.1857 53.448 69.7537 53.448C70.3617 53.448 70.9057 53.588 71.3857 53.868C71.8737 54.14 72.2577 54.524 72.5377 55.02C72.8257 55.516 72.9697 56.1 72.9697 56.772C72.9697 57.452 72.8257 58.04 72.5377 58.536C72.2577 59.032 71.8737 59.416 71.3857 59.688C70.9057 59.96 70.3617 60.096 69.7537 60.096ZM65.9377 62.328V53.544H67.7257V54.864L67.6897 56.784L67.8097 58.692V62.328H65.9377ZM69.4297 58.56C69.7417 58.56 70.0177 58.488 70.2577 58.344C70.5057 58.2 70.7017 57.996 70.8457 57.732C70.9977 57.46 71.0737 57.14 71.0737 56.772C71.0737 56.396 70.9977 56.076 70.8457 55.812C70.7017 55.548 70.5057 55.344 70.2577 55.2C70.0177 55.056 69.7417 54.984 69.4297 54.984C69.1177 54.984 68.8377 55.056 68.5897 55.2C68.3417 55.344 68.1457 55.548 68.0017 55.812C67.8577 56.076 67.7857 56.396 67.7857 56.772C67.7857 57.14 67.8577 57.46 68.0017 57.732C68.1457 57.996 68.3417 58.2 68.5897 58.344C68.8377 58.488 69.1177 58.56 69.4297 58.56ZM77.4269 60.096C76.6909 60.096 76.0429 59.952 75.4829 59.664C74.9309 59.376 74.5029 58.984 74.1989 58.488C73.8949 57.984 73.7429 57.412 73.7429 56.772C73.7429 56.124 73.8909 55.552 74.1869 55.056C74.4909 54.552 74.9029 54.16 75.4229 53.88C75.9429 53.592 76.5309 53.448 77.1869 53.448C77.8189 53.448 78.3869 53.584 78.8909 53.856C79.4029 54.12 79.8069 54.504 80.1029 55.008C80.3989 55.504 80.5469 56.1 80.5469 56.796C80.5469 56.868 80.5429 56.952 80.5349 57.048C80.5269 57.136 80.5189 57.22 80.5109 57.3H75.2669V56.208H79.5269L78.8069 56.532C78.8069 56.196 78.7389 55.904 78.6029 55.656C78.4669 55.408 78.2789 55.216 78.0389 55.08C77.7989 54.936 77.5189 54.864 77.1989 54.864C76.8789 54.864 76.5949 54.936 76.3469 55.08C76.1069 55.216 75.9189 55.412 75.7829 55.668C75.6469 55.916 75.5789 56.212 75.5789 56.556V56.844C75.5789 57.196 75.6549 57.508 75.8069 57.78C75.9669 58.044 76.1869 58.248 76.4669 58.392C76.7549 58.528 77.0909 58.596 77.4749 58.596C77.8189 58.596 78.1189 58.544 78.3749 58.44C78.6389 58.336 78.8789 58.18 79.0949 57.972L80.0909 59.052C79.7949 59.388 79.4229 59.648 78.9749 59.832C78.5269 60.008 78.0109 60.096 77.4269 60.096ZM81.7932 60V53.544H83.5812V55.368L83.3292 54.84C83.5212 54.384 83.8292 54.04 84.2532 53.808C84.6772 53.568 85.1932 53.448 85.8012 53.448V55.176C85.7212 55.168 85.6492 55.164 85.5852 55.164C85.5212 55.156 85.4532 55.152 85.3812 55.152C84.8692 55.152 84.4532 55.3 84.1332 55.596C83.8212 55.884 83.6652 56.336 83.6652 56.952V60H81.7932ZM89.1332 60.096C88.5812 60.096 88.0492 60.032 87.5372 59.904C87.0332 59.768 86.6332 59.6 86.3372 59.4L86.9612 58.056C87.2572 58.24 87.6052 58.392 88.0052 58.512C88.4132 58.624 88.8132 58.68 89.2052 58.68C89.6372 58.68 89.9412 58.628 90.1172 58.524C90.3012 58.42 90.3932 58.276 90.3932 58.092C90.3932 57.94 90.3212 57.828 90.1772 57.756C90.0412 57.676 89.8572 57.616 89.6252 57.576C89.3932 57.536 89.1372 57.496 88.8572 57.456C88.5852 57.416 88.3092 57.364 88.0292 57.3C87.7492 57.228 87.4932 57.124 87.2612 56.988C87.0292 56.852 86.8412 56.668 86.6972 56.436C86.5612 56.204 86.4932 55.904 86.4932 55.536C86.4932 55.128 86.6092 54.768 86.8412 54.456C87.0812 54.144 87.4252 53.9 87.8732 53.724C88.3212 53.54 88.8572 53.448 89.4812 53.448C89.9212 53.448 90.3692 53.496 90.8252 53.592C91.2812 53.688 91.6612 53.828 91.9652 54.012L91.3412 55.344C91.0292 55.16 90.7132 55.036 90.3932 54.972C90.0812 54.9 89.7772 54.864 89.4812 54.864C89.0652 54.864 88.7612 54.92 88.5692 55.032C88.3772 55.144 88.2812 55.288 88.2812 55.464C88.2812 55.624 88.3492 55.744 88.4852 55.824C88.6292 55.904 88.8172 55.968 89.0492 56.016C89.2812 56.064 89.5332 56.108 89.8052 56.148C90.0852 56.18 90.3652 56.232 90.6452 56.304C90.9252 56.376 91.1772 56.48 91.4012 56.616C91.6332 56.744 91.8212 56.924 91.9652 57.156C92.1092 57.38 92.1812 57.676 92.1812 58.044C92.1812 58.444 92.0612 58.8 91.8212 59.112C91.5812 59.416 91.2332 59.656 90.7772 59.832C90.3292 60.008 89.7812 60.096 89.1332 60.096ZM96.4082 60.096C95.7202 60.096 95.1082 59.952 94.5722 59.664C94.0442 59.376 93.6242 58.984 93.3122 58.488C93.0082 57.984 92.8562 57.412 92.8562 56.772C92.8562 56.124 93.0082 55.552 93.3122 55.056C93.6242 54.552 94.0442 54.16 94.5722 53.88C95.1082 53.592 95.7202 53.448 96.4082 53.448C97.0882 53.448 97.6962 53.592 98.2322 53.88C98.7682 54.16 99.1882 54.548 99.4922 55.044C99.7962 55.54 99.9482 56.116 99.9482 56.772C99.9482 57.412 99.7962 57.984 99.4922 58.488C99.1882 58.984 98.7682 59.376 98.2322 59.664C97.6962 59.952 97.0882 60.096 96.4082 60.096ZM96.4082 58.56C96.7202 58.56 97.0002 58.488 97.2482 58.344C97.4962 58.2 97.6922 57.996 97.8362 57.732C97.9802 57.46 98.0522 57.14 98.0522 56.772C98.0522 56.396 97.9802 56.076 97.8362 55.812C97.6922 55.548 97.4962 55.344 97.2482 55.2C97.0002 55.056 96.7202 54.984 96.4082 54.984C96.0962 54.984 95.8162 55.056 95.5682 55.2C95.3202 55.344 95.1202 55.548 94.9682 55.812C94.8242 56.076 94.7522 56.396 94.7522 56.772C94.7522 57.14 94.8242 57.46 94.9682 57.732C95.1202 57.996 95.3202 58.2 95.5682 58.344C95.8162 58.488 96.0962 58.56 96.4082 58.56ZM105.123 53.448C105.635 53.448 106.091 53.552 106.491 53.76C106.899 53.96 107.219 54.272 107.451 54.696C107.683 55.112 107.799 55.648 107.799 56.304V60H105.927V56.592C105.927 56.072 105.811 55.688 105.579 55.44C105.355 55.192 105.035 55.068 104.619 55.068C104.323 55.068 104.055 55.132 103.815 55.26C103.583 55.38 103.399 55.568 103.263 55.824C103.135 56.08 103.071 56.408 103.071 56.808V60H101.199V53.544H102.987V55.332L102.651 54.792C102.883 54.36 103.215 54.028 103.647 53.796C104.079 53.564 104.571 53.448 105.123 53.448ZM113.456 60V58.74L113.336 58.464V56.208C113.336 55.808 113.212 55.496 112.964 55.272C112.724 55.048 112.352 54.936 111.848 54.936C111.504 54.936 111.164 54.992 110.828 55.104C110.5 55.208 110.22 55.352 109.988 55.536L109.316 54.228C109.668 53.98 110.092 53.788 110.588 53.652C111.084 53.516 111.588 53.448 112.1 53.448C113.084 53.448 113.848 53.68 114.392 54.144C114.936 54.608 115.208 55.332 115.208 56.316V60H113.456ZM111.488 60.096C110.984 60.096 110.552 60.012 110.192 59.844C109.832 59.668 109.556 59.432 109.364 59.136C109.172 58.84 109.076 58.508 109.076 58.14C109.076 57.756 109.168 57.42 109.352 57.132C109.544 56.844 109.844 56.62 110.252 56.46C110.66 56.292 111.192 56.208 111.848 56.208H113.564V57.3H112.052C111.612 57.3 111.308 57.372 111.14 57.516C110.98 57.66 110.9 57.84 110.9 58.056C110.9 58.296 110.992 58.488 111.176 58.632C111.368 58.768 111.628 58.836 111.956 58.836C112.268 58.836 112.548 58.764 112.796 58.62C113.044 58.468 113.224 58.248 113.336 57.96L113.624 58.824C113.488 59.24 113.24 59.556 112.88 59.772C112.52 59.988 112.056 60.096 111.488 60.096ZM116.903 60V51.096H118.775V60H116.903ZM123.716 60.096C122.98 60.096 122.332 59.952 121.772 59.664C121.22 59.376 120.792 58.984 120.488 58.488C120.184 57.984 120.032 57.412 120.032 56.772C120.032 56.124 120.18 55.552 120.476 55.056C120.78 54.552 121.192 54.16 121.712 53.88C122.232 53.592 122.82 53.448 123.476 53.448C124.108 53.448 124.676 53.584 125.18 53.856C125.692 54.12 126.096 54.504 126.392 55.008C126.688 55.504 126.836 56.1 126.836 56.796C126.836 56.868 126.832 56.952 126.824 57.048C126.816 57.136 126.808 57.22 126.8 57.3H121.556V56.208H125.816L125.096 56.532C125.096 56.196 125.028 55.904 124.892 55.656C124.756 55.408 124.568 55.216 124.328 55.08C124.088 54.936 123.808 54.864 123.488 54.864C123.168 54.864 122.884 54.936 122.636 55.08C122.396 55.216 122.208 55.412 122.072 55.668C121.936 55.916 121.868 56.212 121.868 56.556V56.844C121.868 57.196 121.944 57.508 122.096 57.78C122.256 58.044 122.476 58.248 122.756 58.392C123.044 58.528 123.38 58.596 123.764 58.596C124.108 58.596 124.408 58.544 124.664 58.44C124.928 58.336 125.168 58.18 125.384 57.972L126.38 59.052C126.084 59.388 125.712 59.648 125.264 59.832C124.816 60.008 124.3 60.096 123.716 60.096ZM130.254 60.096C129.702 60.096 129.17 60.032 128.658 59.904C128.154 59.768 127.754 59.6 127.458 59.4L128.082 58.056C128.378 58.24 128.726 58.392 129.126 58.512C129.534 58.624 129.934 58.68 130.326 58.68C130.758 58.68 131.062 58.628 131.238 58.524C131.422 58.42 131.514 58.276 131.514 58.092C131.514 57.94 131.442 57.828 131.298 57.756C131.162 57.676 130.978 57.616 130.746 57.576C130.514 57.536 130.258 57.496 129.978 57.456C129.706 57.416 129.43 57.364 129.15 57.3C128.87 57.228 128.614 57.124 128.382 56.988C128.15 56.852 127.962 56.668 127.818 56.436C127.682 56.204 127.614 55.904 127.614 55.536C127.614 55.128 127.73 54.768 127.962 54.456C128.202 54.144 128.546 53.9 128.994 53.724C129.442 53.54 129.978 53.448 130.602 53.448C131.042 53.448 131.49 53.496 131.946 53.592C132.402 53.688 132.782 53.828 133.086 54.012L132.462 55.344C132.15 55.16 131.834 55.036 131.514 54.972C131.202 54.9 130.898 54.864 130.602 54.864C130.186 54.864 129.882 54.92 129.69 55.032C129.498 55.144 129.402 55.288 129.402 55.464C129.402 55.624 129.47 55.744 129.606 55.824C129.75 55.904 129.938 55.968 130.17 56.016C130.402 56.064 130.654 56.108 130.926 56.148C131.206 56.18 131.486 56.232 131.766 56.304C132.046 56.376 132.298 56.48 132.522 56.616C132.754 56.744 132.942 56.924 133.086 57.156C133.23 57.38 133.302 57.676 133.302 58.044C133.302 58.444 133.182 58.8 132.942 59.112C132.702 59.416 132.354 59.656 131.898 59.832C131.45 60.008 130.902 60.096 130.254 60.096Z" fill="#100FA8"/>
<line x1="114" y1="11.75" x2="135" y2="11.75" stroke="#100FA8" stroke-width="0.5"/>
<line x1="135" y1="11.75" x2="156" y2="11.75" stroke="#100FA8" stroke-width="0.5"/>
<rect x="158.667" width="24" height="24" rx="4" fill="#100FA8"/>
<g clip-path="url(#clip2_1307_5514)">
<path d="M169.667 14.1147L175.795 7.986L176.738 8.92867L169.667 16L165.424 11.7573L166.367 10.8147L169.667 14.1147Z" fill="white"/>
</g>
<path d="M148.993 44.144C148.321 44.144 147.677 44.056 147.061 43.88C146.445 43.696 145.949 43.46 145.573 43.172L146.233 41.708C146.593 41.964 147.017 42.176 147.505 42.344C148.001 42.504 148.501 42.584 149.005 42.584C149.389 42.584 149.697 42.548 149.929 42.476C150.169 42.396 150.345 42.288 150.457 42.152C150.569 42.016 150.625 41.86 150.625 41.684C150.625 41.46 150.537 41.284 150.361 41.156C150.185 41.02 149.953 40.912 149.665 40.832C149.377 40.744 149.057 40.664 148.705 40.592C148.361 40.512 148.013 40.416 147.661 40.304C147.317 40.192 147.001 40.048 146.713 39.872C146.425 39.696 146.189 39.464 146.005 39.176C145.829 38.888 145.741 38.52 145.741 38.072C145.741 37.592 145.869 37.156 146.125 36.764C146.389 36.364 146.781 36.048 147.301 35.816C147.829 35.576 148.489 35.456 149.281 35.456C149.809 35.456 150.329 35.52 150.841 35.648C151.353 35.768 151.805 35.952 152.197 36.2L151.597 37.676C151.205 37.452 150.813 37.288 150.421 37.184C150.029 37.072 149.645 37.016 149.269 37.016C148.893 37.016 148.585 37.06 148.345 37.148C148.105 37.236 147.933 37.352 147.829 37.496C147.725 37.632 147.673 37.792 147.673 37.976C147.673 38.192 147.761 38.368 147.937 38.504C148.113 38.632 148.345 38.736 148.633 38.816C148.921 38.896 149.237 38.976 149.581 39.056C149.933 39.136 150.281 39.228 150.625 39.332C150.977 39.436 151.297 39.576 151.585 39.752C151.873 39.928 152.105 40.16 152.281 40.448C152.465 40.736 152.557 41.1 152.557 41.54C152.557 42.012 152.425 42.444 152.161 42.836C151.897 43.228 151.501 43.544 150.973 43.784C150.453 44.024 149.793 44.144 148.993 44.144ZM156.825 44.096C156.137 44.096 155.525 43.952 154.989 43.664C154.461 43.376 154.041 42.984 153.729 42.488C153.425 41.984 153.273 41.412 153.273 40.772C153.273 40.124 153.425 39.552 153.729 39.056C154.041 38.552 154.461 38.16 154.989 37.88C155.525 37.592 156.137 37.448 156.825 37.448C157.505 37.448 158.113 37.592 158.649 37.88C159.185 38.16 159.605 38.548 159.909 39.044C160.213 39.54 160.365 40.116 160.365 40.772C160.365 41.412 160.213 41.984 159.909 42.488C159.605 42.984 159.185 43.376 158.649 43.664C158.113 43.952 157.505 44.096 156.825 44.096ZM156.825 42.56C157.137 42.56 157.417 42.488 157.665 42.344C157.913 42.2 158.109 41.996 158.253 41.732C158.397 41.46 158.469 41.14 158.469 40.772C158.469 40.396 158.397 40.076 158.253 39.812C158.109 39.548 157.913 39.344 157.665 39.2C157.417 39.056 157.137 38.984 156.825 38.984C156.513 38.984 156.233 39.056 155.985 39.2C155.737 39.344 155.537 39.548 155.385 39.812C155.241 40.076 155.169 40.396 155.169 40.772C155.169 41.14 155.241 41.46 155.385 41.732C155.537 41.996 155.737 42.2 155.985 42.344C156.233 42.488 156.513 42.56 156.825 42.56ZM165.432 44.096C164.864 44.096 164.376 43.976 163.968 43.736C163.56 43.496 163.248 43.132 163.032 42.644C162.816 42.148 162.708 41.524 162.708 40.772C162.708 40.012 162.82 39.388 163.044 38.9C163.276 38.412 163.596 38.048 164.004 37.808C164.412 37.568 164.888 37.448 165.432 37.448C166.04 37.448 166.584 37.584 167.064 37.856C167.552 38.128 167.936 38.512 168.216 39.008C168.504 39.504 168.648 40.092 168.648 40.772C168.648 41.444 168.504 42.028 168.216 42.524C167.936 43.02 167.552 43.408 167.064 43.688C166.584 43.96 166.04 44.096 165.432 44.096ZM161.616 44V35.096H163.488V38.852L163.368 40.76L163.404 42.68V44H161.616ZM165.108 42.56C165.42 42.56 165.696 42.488 165.936 42.344C166.184 42.2 166.38 41.996 166.524 41.732C166.676 41.46 166.752 41.14 166.752 40.772C166.752 40.396 166.676 40.076 166.524 39.812C166.38 39.548 166.184 39.344 165.936 39.2C165.696 39.056 165.42 38.984 165.108 38.984C164.796 38.984 164.516 39.056 164.268 39.2C164.02 39.344 163.824 39.548 163.68 39.812C163.536 40.076 163.464 40.396 163.464 40.772C163.464 41.14 163.536 41.46 163.68 41.732C163.824 41.996 164.02 42.2 164.268 42.344C164.516 42.488 164.796 42.56 165.108 42.56ZM169.902 44V37.544H171.69V39.368L171.438 38.84C171.63 38.384 171.938 38.04 172.362 37.808C172.786 37.568 173.302 37.448 173.91 37.448V39.176C173.83 39.168 173.758 39.164 173.694 39.164C173.63 39.156 173.562 39.152 173.49 39.152C172.978 39.152 172.562 39.3 172.242 39.596C171.93 39.884 171.774 40.336 171.774 40.952V44H169.902ZM178.18 44.096C177.444 44.096 176.796 43.952 176.236 43.664C175.684 43.376 175.256 42.984 174.952 42.488C174.648 41.984 174.496 41.412 174.496 40.772C174.496 40.124 174.644 39.552 174.94 39.056C175.244 38.552 175.656 38.16 176.176 37.88C176.696 37.592 177.284 37.448 177.94 37.448C178.572 37.448 179.14 37.584 179.644 37.856C180.156 38.12 180.56 38.504 180.856 39.008C181.152 39.504 181.3 40.1 181.3 40.796C181.3 40.868 181.296 40.952 181.288 41.048C181.28 41.136 181.272 41.22 181.264 41.3H176.02V40.208H180.28L179.56 40.532C179.56 40.196 179.492 39.904 179.356 39.656C179.22 39.408 179.032 39.216 178.792 39.08C178.552 38.936 178.272 38.864 177.952 38.864C177.632 38.864 177.348 38.936 177.1 39.08C176.86 39.216 176.672 39.412 176.536 39.668C176.4 39.916 176.332 40.212 176.332 40.556V40.844C176.332 41.196 176.408 41.508 176.56 41.78C176.72 42.044 176.94 42.248 177.22 42.392C177.508 42.528 177.844 42.596 178.228 42.596C178.572 42.596 178.872 42.544 179.128 42.44C179.392 42.336 179.632 42.18 179.848 41.972L180.844 43.052C180.548 43.388 180.176 43.648 179.728 43.832C179.28 44.008 178.764 44.096 178.18 44.096ZM185.945 44V35.096H187.817V44H185.945ZM193.514 44V42.74L193.394 42.464V40.208C193.394 39.808 193.27 39.496 193.022 39.272C192.782 39.048 192.41 38.936 191.906 38.936C191.562 38.936 191.222 38.992 190.886 39.104C190.558 39.208 190.278 39.352 190.046 39.536L189.374 38.228C189.726 37.98 190.15 37.788 190.646 37.652C191.142 37.516 191.646 37.448 192.158 37.448C193.142 37.448 193.906 37.68 194.45 38.144C194.994 38.608 195.266 39.332 195.266 40.316V44H193.514ZM191.546 44.096C191.042 44.096 190.61 44.012 190.25 43.844C189.89 43.668 189.614 43.432 189.422 43.136C189.23 42.84 189.134 42.508 189.134 42.14C189.134 41.756 189.226 41.42 189.41 41.132C189.602 40.844 189.902 40.62 190.31 40.46C190.718 40.292 191.25 40.208 191.906 40.208H193.622V41.3H192.11C191.67 41.3 191.366 41.372 191.198 41.516C191.038 41.66 190.958 41.84 190.958 42.056C190.958 42.296 191.05 42.488 191.234 42.632C191.426 42.768 191.686 42.836 192.014 42.836C192.326 42.836 192.606 42.764 192.854 42.62C193.102 42.468 193.282 42.248 193.394 41.96L193.682 42.824C193.546 43.24 193.298 43.556 192.938 43.772C192.578 43.988 192.114 44.096 191.546 44.096ZM147.301 60.096C146.565 60.096 145.917 59.952 145.357 59.664C144.805 59.376 144.377 58.984 144.073 58.488C143.769 57.984 143.617 57.412 143.617 56.772C143.617 56.124 143.765 55.552 144.061 55.056C144.365 54.552 144.777 54.16 145.297 53.88C145.817 53.592 146.405 53.448 147.061 53.448C147.693 53.448 148.261 53.584 148.765 53.856C149.277 54.12 149.681 54.504 149.977 55.008C150.273 55.504 150.421 56.1 150.421 56.796C150.421 56.868 150.417 56.952 150.409 57.048C150.401 57.136 150.393 57.22 150.385 57.3H145.141V56.208H149.401L148.681 56.532C148.681 56.196 148.613 55.904 148.477 55.656C148.341 55.408 148.153 55.216 147.913 55.08C147.673 54.936 147.393 54.864 147.073 54.864C146.753 54.864 146.469 54.936 146.221 55.08C145.981 55.216 145.793 55.412 145.657 55.668C145.521 55.916 145.453 56.212 145.453 56.556V56.844C145.453 57.196 145.529 57.508 145.681 57.78C145.841 58.044 146.061 58.248 146.341 58.392C146.629 58.528 146.965 58.596 147.349 58.596C147.693 58.596 147.993 58.544 148.249 58.44C148.513 58.336 148.753 58.18 148.969 57.972L149.965 59.052C149.669 59.388 149.297 59.648 148.849 59.832C148.401 60.008 147.885 60.096 147.301 60.096ZM159.935 53.448C160.447 53.448 160.899 53.552 161.291 53.76C161.691 53.96 162.003 54.272 162.227 54.696C162.459 55.112 162.575 55.648 162.575 56.304V60H160.703V56.592C160.703 56.072 160.595 55.688 160.379 55.44C160.163 55.192 159.859 55.068 159.467 55.068C159.195 55.068 158.951 55.132 158.735 55.26C158.519 55.38 158.351 55.564 158.231 55.812C158.111 56.06 158.051 56.376 158.051 56.76V60H156.179V56.592C156.179 56.072 156.071 55.688 155.855 55.44C155.647 55.192 155.347 55.068 154.955 55.068C154.683 55.068 154.439 55.132 154.223 55.26C154.007 55.38 153.839 55.564 153.719 55.812C153.599 56.06 153.539 56.376 153.539 56.76V60H151.667V53.544H153.455V55.308L153.119 54.792C153.343 54.352 153.659 54.02 154.067 53.796C154.483 53.564 154.955 53.448 155.483 53.448C156.075 53.448 156.591 53.6 157.031 53.904C157.479 54.2 157.775 54.656 157.919 55.272L157.259 55.092C157.475 54.588 157.819 54.188 158.291 53.892C158.771 53.596 159.319 53.448 159.935 53.448ZM168.069 60.096C167.525 60.096 167.049 59.976 166.641 59.736C166.233 59.496 165.913 59.132 165.681 58.644C165.457 58.148 165.345 57.524 165.345 56.772C165.345 56.012 165.453 55.388 165.669 54.9C165.885 54.412 166.197 54.048 166.605 53.808C167.013 53.568 167.501 53.448 168.069 53.448C168.677 53.448 169.221 53.588 169.701 53.868C170.189 54.14 170.573 54.524 170.853 55.02C171.141 55.516 171.285 56.1 171.285 56.772C171.285 57.452 171.141 58.04 170.853 58.536C170.573 59.032 170.189 59.416 169.701 59.688C169.221 59.96 168.677 60.096 168.069 60.096ZM164.253 62.328V53.544H166.041V54.864L166.005 56.784L166.125 58.692V62.328H164.253ZM167.745 58.56C168.057 58.56 168.333 58.488 168.573 58.344C168.821 58.2 169.017 57.996 169.161 57.732C169.313 57.46 169.389 57.14 169.389 56.772C169.389 56.396 169.313 56.076 169.161 55.812C169.017 55.548 168.821 55.344 168.573 55.2C168.333 55.056 168.057 54.984 167.745 54.984C167.433 54.984 167.153 55.056 166.905 55.2C166.657 55.344 166.461 55.548 166.317 55.812C166.173 56.076 166.101 56.396 166.101 56.772C166.101 57.14 166.173 57.46 166.317 57.732C166.461 57.996 166.657 58.2 166.905 58.344C167.153 58.488 167.433 58.56 167.745 58.56ZM172.538 60V53.544H174.326V55.368L174.074 54.84C174.266 54.384 174.574 54.04 174.998 53.808C175.422 53.568 175.938 53.448 176.546 53.448V55.176C176.466 55.168 176.394 55.164 176.33 55.164C176.266 55.156 176.198 55.152 176.126 55.152C175.614 55.152 175.198 55.3 174.878 55.596C174.566 55.884 174.41 56.336 174.41 56.952V60H172.538ZM180.817 60.096C180.081 60.096 179.433 59.952 178.873 59.664C178.321 59.376 177.893 58.984 177.589 58.488C177.285 57.984 177.133 57.412 177.133 56.772C177.133 56.124 177.281 55.552 177.577 55.056C177.881 54.552 178.293 54.16 178.813 53.88C179.333 53.592 179.921 53.448 180.577 53.448C181.209 53.448 181.777 53.584 182.281 53.856C182.793 54.12 183.197 54.504 183.493 55.008C183.789 55.504 183.937 56.1 183.937 56.796C183.937 56.868 183.933 56.952 183.925 57.048C183.917 57.136 183.909 57.22 183.901 57.3H178.657V56.208H182.917L182.197 56.532C182.197 56.196 182.129 55.904 181.993 55.656C181.857 55.408 181.669 55.216 181.429 55.08C181.189 54.936 180.909 54.864 180.589 54.864C180.269 54.864 179.985 54.936 179.737 55.08C179.497 55.216 179.309 55.412 179.173 55.668C179.037 55.916 178.969 56.212 178.969 56.556V56.844C178.969 57.196 179.045 57.508 179.197 57.78C179.357 58.044 179.577 58.248 179.857 58.392C180.145 58.528 180.481 58.596 180.865 58.596C181.209 58.596 181.509 58.544 181.765 58.44C182.029 58.336 182.269 58.18 182.485 57.972L183.481 59.052C183.185 59.388 182.813 59.648 182.365 59.832C181.917 60.008 181.401 60.096 180.817 60.096ZM187.355 60.096C186.803 60.096 186.271 60.032 185.759 59.904C185.255 59.768 184.855 59.6 184.559 59.4L185.183 58.056C185.479 58.24 185.827 58.392 186.227 58.512C186.635 58.624 187.035 58.68 187.427 58.68C187.859 58.68 188.163 58.628 188.339 58.524C188.523 58.42 188.615 58.276 188.615 58.092C188.615 57.94 188.543 57.828 188.399 57.756C188.263 57.676 188.079 57.616 187.847 57.576C187.615 57.536 187.359 57.496 187.079 57.456C186.807 57.416 186.531 57.364 186.251 57.3C185.971 57.228 185.715 57.124 185.483 56.988C185.251 56.852 185.063 56.668 184.919 56.436C184.783 56.204 184.715 55.904 184.715 55.536C184.715 55.128 184.831 54.768 185.063 54.456C185.303 54.144 185.647 53.9 186.095 53.724C186.543 53.54 187.079 53.448 187.703 53.448C188.143 53.448 188.591 53.496 189.047 53.592C189.503 53.688 189.883 53.828 190.187 54.012L189.563 55.344C189.251 55.16 188.935 55.036 188.615 54.972C188.303 54.9 187.999 54.864 187.703 54.864C187.287 54.864 186.983 54.92 186.791 55.032C186.599 55.144 186.503 55.288 186.503 55.464C186.503 55.624 186.571 55.744 186.707 55.824C186.851 55.904 187.039 55.968 187.271 56.016C187.503 56.064 187.755 56.108 188.027 56.148C188.307 56.18 188.587 56.232 188.867 56.304C189.147 56.376 189.399 56.48 189.623 56.616C189.855 56.744 190.043 56.924 190.187 57.156C190.331 57.38 190.403 57.676 190.403 58.044C190.403 58.444 190.283 58.8 190.043 59.112C189.803 59.416 189.455 59.656 188.999 59.832C188.551 60.008 188.003 60.096 187.355 60.096ZM195.518 60V58.74L195.398 58.464V56.208C195.398 55.808 195.274 55.496 195.026 55.272C194.786 55.048 194.414 54.936 193.91 54.936C193.566 54.936 193.226 54.992 192.89 55.104C192.562 55.208 192.282 55.352 192.05 55.536L191.378 54.228C191.73 53.98 192.154 53.788 192.65 53.652C193.146 53.516 193.65 53.448 194.162 53.448C195.146 53.448 195.91 53.68 196.454 54.144C196.998 54.608 197.27 55.332 197.27 56.316V60H195.518ZM193.55 60.096C193.046 60.096 192.614 60.012 192.254 59.844C191.894 59.668 191.618 59.432 191.426 59.136C191.234 58.84 191.138 58.508 191.138 58.14C191.138 57.756 191.23 57.42 191.414 57.132C191.606 56.844 191.906 56.62 192.314 56.46C192.722 56.292 193.254 56.208 193.91 56.208H195.626V57.3H194.114C193.674 57.3 193.37 57.372 193.202 57.516C193.042 57.66 192.962 57.84 192.962 58.056C192.962 58.296 193.054 58.488 193.238 58.632C193.43 58.768 193.69 58.836 194.018 58.836C194.33 58.836 194.61 58.764 194.858 58.62C195.106 58.468 195.286 58.248 195.398 57.96L195.686 58.824C195.55 59.24 195.302 59.556 194.942 59.772C194.582 59.988 194.118 60.096 193.55 60.096Z" fill="#100FA8"/>
<line x1="185.333" y1="11.75" x2="206.333" y2="11.75" stroke="#100FA8" stroke-width="0.5"/>
<line x1="206.333" y1="11.75" x2="227.333" y2="11.75" stroke="#100FA8" stroke-width="0.5"/>
<rect x="230" width="24" height="24" rx="4" fill="#100FA8"/>
<path d="M238.756 14.2345L238.754 12.9265L242.703 7.59037L244.743 7.58619L240.878 12.9221L239.929 12.6481L246.541 12.6345L246.544 14.2185L238.756 14.2345ZM243.284 15.9892L243.28 14.2252L243.337 12.6411L243.334 11.0691L245.17 11.0653L245.18 15.9853L243.284 15.9892Z" fill="white"/>
<path d="M219.108 44.144C218.436 44.144 217.792 44.056 217.176 43.88C216.56 43.696 216.064 43.46 215.688 43.172L216.348 41.708C216.708 41.964 217.132 42.176 217.62 42.344C218.116 42.504 218.616 42.584 219.12 42.584C219.504 42.584 219.812 42.548 220.044 42.476C220.284 42.396 220.46 42.288 220.572 42.152C220.684 42.016 220.74 41.86 220.74 41.684C220.74 41.46 220.652 41.284 220.476 41.156C220.3 41.02 220.068 40.912 219.78 40.832C219.492 40.744 219.172 40.664 218.82 40.592C218.476 40.512 218.128 40.416 217.776 40.304C217.432 40.192 217.116 40.048 216.828 39.872C216.54 39.696 216.304 39.464 216.12 39.176C215.944 38.888 215.856 38.52 215.856 38.072C215.856 37.592 215.984 37.156 216.24 36.764C216.504 36.364 216.896 36.048 217.416 35.816C217.944 35.576 218.604 35.456 219.396 35.456C219.924 35.456 220.444 35.52 220.956 35.648C221.468 35.768 221.92 35.952 222.312 36.2L221.712 37.676C221.32 37.452 220.928 37.288 220.536 37.184C220.144 37.072 219.76 37.016 219.384 37.016C219.008 37.016 218.7 37.06 218.46 37.148C218.22 37.236 218.048 37.352 217.944 37.496C217.84 37.632 217.788 37.792 217.788 37.976C217.788 38.192 217.876 38.368 218.052 38.504C218.228 38.632 218.46 38.736 218.748 38.816C219.036 38.896 219.352 38.976 219.696 39.056C220.048 39.136 220.396 39.228 220.74 39.332C221.092 39.436 221.412 39.576 221.7 39.752C221.988 39.928 222.22 40.16 222.396 40.448C222.58 40.736 222.672 41.1 222.672 41.54C222.672 42.012 222.54 42.444 222.276 42.836C222.012 43.228 221.616 43.544 221.088 43.784C220.568 44.024 219.908 44.144 219.108 44.144ZM226.94 44.096C226.252 44.096 225.64 43.952 225.104 43.664C224.576 43.376 224.156 42.984 223.844 42.488C223.54 41.984 223.388 41.412 223.388 40.772C223.388 40.124 223.54 39.552 223.844 39.056C224.156 38.552 224.576 38.16 225.104 37.88C225.64 37.592 226.252 37.448 226.94 37.448C227.62 37.448 228.228 37.592 228.764 37.88C229.3 38.16 229.72 38.548 230.024 39.044C230.328 39.54 230.48 40.116 230.48 40.772C230.48 41.412 230.328 41.984 230.024 42.488C229.72 42.984 229.3 43.376 228.764 43.664C228.228 43.952 227.62 44.096 226.94 44.096ZM226.94 42.56C227.252 42.56 227.532 42.488 227.78 42.344C228.028 42.2 228.224 41.996 228.368 41.732C228.512 41.46 228.584 41.14 228.584 40.772C228.584 40.396 228.512 40.076 228.368 39.812C228.224 39.548 228.028 39.344 227.78 39.2C227.532 39.056 227.252 38.984 226.94 38.984C226.628 38.984 226.348 39.056 226.1 39.2C225.852 39.344 225.652 39.548 225.5 39.812C225.356 40.076 225.284 40.396 225.284 40.772C225.284 41.14 225.356 41.46 225.5 41.732C225.652 41.996 225.852 42.2 226.1 42.344C226.348 42.488 226.628 42.56 226.94 42.56ZM235.547 44.096C234.979 44.096 234.491 43.976 234.083 43.736C233.675 43.496 233.363 43.132 233.147 42.644C232.931 42.148 232.823 41.524 232.823 40.772C232.823 40.012 232.935 39.388 233.159 38.9C233.391 38.412 233.711 38.048 234.119 37.808C234.527 37.568 235.003 37.448 235.547 37.448C236.155 37.448 236.699 37.584 237.179 37.856C237.667 38.128 238.051 38.512 238.331 39.008C238.619 39.504 238.763 40.092 238.763 40.772C238.763 41.444 238.619 42.028 238.331 42.524C238.051 43.02 237.667 43.408 237.179 43.688C236.699 43.96 236.155 44.096 235.547 44.096ZM231.731 44V35.096H233.603V38.852L233.483 40.76L233.519 42.68V44H231.731ZM235.223 42.56C235.535 42.56 235.811 42.488 236.051 42.344C236.299 42.2 236.495 41.996 236.639 41.732C236.791 41.46 236.867 41.14 236.867 40.772C236.867 40.396 236.791 40.076 236.639 39.812C236.495 39.548 236.299 39.344 236.051 39.2C235.811 39.056 235.535 38.984 235.223 38.984C234.911 38.984 234.631 39.056 234.383 39.2C234.135 39.344 233.939 39.548 233.795 39.812C233.651 40.076 233.579 40.396 233.579 40.772C233.579 41.14 233.651 41.46 233.795 41.732C233.939 41.996 234.135 42.2 234.383 42.344C234.631 42.488 234.911 42.56 235.223 42.56ZM240.016 44V37.544H241.804V39.368L241.552 38.84C241.744 38.384 242.052 38.04 242.476 37.808C242.9 37.568 243.416 37.448 244.024 37.448V39.176C243.944 39.168 243.872 39.164 243.808 39.164C243.744 39.156 243.676 39.152 243.604 39.152C243.092 39.152 242.676 39.3 242.356 39.596C242.044 39.884 241.888 40.336 241.888 40.952V44H240.016ZM248.295 44.096C247.559 44.096 246.911 43.952 246.351 43.664C245.799 43.376 245.371 42.984 245.067 42.488C244.763 41.984 244.611 41.412 244.611 40.772C244.611 40.124 244.759 39.552 245.055 39.056C245.359 38.552 245.771 38.16 246.291 37.88C246.811 37.592 247.399 37.448 248.055 37.448C248.687 37.448 249.255 37.584 249.759 37.856C250.271 38.12 250.675 38.504 250.971 39.008C251.267 39.504 251.415 40.1 251.415 40.796C251.415 40.868 251.411 40.952 251.403 41.048C251.395 41.136 251.387 41.22 251.379 41.3H246.135V40.208H250.395L249.675 40.532C249.675 40.196 249.607 39.904 249.471 39.656C249.335 39.408 249.147 39.216 248.907 39.08C248.667 38.936 248.387 38.864 248.067 38.864C247.747 38.864 247.463 38.936 247.215 39.08C246.975 39.216 246.787 39.412 246.651 39.668C246.515 39.916 246.447 40.212 246.447 40.556V40.844C246.447 41.196 246.523 41.508 246.675 41.78C246.835 42.044 247.055 42.248 247.335 42.392C247.623 42.528 247.959 42.596 248.343 42.596C248.687 42.596 248.987 42.544 249.243 42.44C249.507 42.336 249.747 42.18 249.963 41.972L250.959 43.052C250.663 43.388 250.291 43.648 249.843 43.832C249.395 44.008 248.879 44.096 248.295 44.096ZM258.699 44.096C257.939 44.096 257.347 43.904 256.923 43.52C256.499 43.128 256.287 42.548 256.287 41.78V36.116H258.159V41.756C258.159 42.028 258.231 42.24 258.375 42.392C258.519 42.536 258.715 42.608 258.963 42.608C259.259 42.608 259.511 42.528 259.719 42.368L260.223 43.688C260.031 43.824 259.799 43.928 259.527 44C259.263 44.064 258.987 44.096 258.699 44.096ZM255.291 39.128V37.688H259.767V39.128H255.291ZM263.998 44.096C263.462 44.096 262.982 43.992 262.558 43.784C262.142 43.576 261.818 43.26 261.586 42.836C261.354 42.404 261.238 41.856 261.238 41.192V37.544H263.11V40.916C263.11 41.452 263.222 41.848 263.446 42.104C263.678 42.352 264.002 42.476 264.418 42.476C264.706 42.476 264.962 42.416 265.186 42.296C265.41 42.168 265.586 41.976 265.714 41.72C265.842 41.456 265.906 41.128 265.906 40.736V37.544H267.778V44H266.002V42.224L266.326 42.74C266.11 43.188 265.79 43.528 265.366 43.76C264.95 43.984 264.494 44.096 263.998 44.096ZM218.842 60.096C218.298 60.096 217.822 59.976 217.414 59.736C217.006 59.496 216.686 59.132 216.454 58.644C216.23 58.148 216.118 57.524 216.118 56.772C216.118 56.012 216.226 55.388 216.442 54.9C216.658 54.412 216.97 54.048 217.378 53.808C217.786 53.568 218.274 53.448 218.842 53.448C219.45 53.448 219.994 53.588 220.474 53.868C220.962 54.14 221.346 54.524 221.626 55.02C221.914 55.516 222.058 56.1 222.058 56.772C222.058 57.452 221.914 58.04 221.626 58.536C221.346 59.032 220.962 59.416 220.474 59.688C219.994 59.96 219.45 60.096 218.842 60.096ZM215.026 62.328V53.544H216.814V54.864L216.778 56.784L216.898 58.692V62.328H215.026ZM218.518 58.56C218.83 58.56 219.106 58.488 219.346 58.344C219.594 58.2 219.79 57.996 219.934 57.732C220.086 57.46 220.162 57.14 220.162 56.772C220.162 56.396 220.086 56.076 219.934 55.812C219.79 55.548 219.594 55.344 219.346 55.2C219.106 55.056 218.83 54.984 218.518 54.984C218.206 54.984 217.926 55.056 217.678 55.2C217.43 55.344 217.234 55.548 217.09 55.812C216.946 56.076 216.874 56.396 216.874 56.772C216.874 57.14 216.946 57.46 217.09 57.732C217.234 57.996 217.43 58.2 217.678 58.344C217.926 58.488 218.206 58.56 218.518 58.56ZM223.311 60V53.544H225.099V55.368L224.847 54.84C225.039 54.384 225.347 54.04 225.771 53.808C226.195 53.568 226.711 53.448 227.319 53.448V55.176C227.239 55.168 227.167 55.164 227.103 55.164C227.039 55.156 226.971 55.152 226.899 55.152C226.387 55.152 225.971 55.3 225.651 55.596C225.339 55.884 225.183 56.336 225.183 56.952V60H223.311ZM231.457 60.096C230.769 60.096 230.157 59.952 229.621 59.664C229.093 59.376 228.673 58.984 228.361 58.488C228.057 57.984 227.905 57.412 227.905 56.772C227.905 56.124 228.057 55.552 228.361 55.056C228.673 54.552 229.093 54.16 229.621 53.88C230.157 53.592 230.769 53.448 231.457 53.448C232.137 53.448 232.745 53.592 233.281 53.88C233.817 54.16 234.237 54.548 234.541 55.044C234.845 55.54 234.997 56.116 234.997 56.772C234.997 57.412 234.845 57.984 234.541 58.488C234.237 58.984 233.817 59.376 233.281 59.664C232.745 59.952 232.137 60.096 231.457 60.096ZM231.457 58.56C231.769 58.56 232.049 58.488 232.297 58.344C232.545 58.2 232.741 57.996 232.885 57.732C233.029 57.46 233.101 57.14 233.101 56.772C233.101 56.396 233.029 56.076 232.885 55.812C232.741 55.548 232.545 55.344 232.297 55.2C232.049 55.056 231.769 54.984 231.457 54.984C231.145 54.984 230.865 55.056 230.617 55.2C230.369 55.344 230.169 55.548 230.017 55.812C229.873 56.076 229.801 56.396 229.801 56.772C229.801 57.14 229.873 57.46 230.017 57.732C230.169 57.996 230.369 58.2 230.617 58.344C230.865 58.488 231.145 58.56 231.457 58.56ZM236.889 62.424C236.553 62.424 236.221 62.372 235.893 62.268C235.565 62.164 235.297 62.02 235.089 61.836L235.773 60.504C235.917 60.632 236.081 60.732 236.265 60.804C236.457 60.876 236.645 60.912 236.829 60.912C237.093 60.912 237.301 60.848 237.453 60.72C237.613 60.6 237.757 60.396 237.885 60.108L238.221 59.316L238.365 59.112L240.681 53.544H242.481L239.565 60.396C239.357 60.916 239.117 61.324 238.845 61.62C238.581 61.916 238.285 62.124 237.957 62.244C237.637 62.364 237.281 62.424 236.889 62.424ZM237.993 60.252L235.113 53.544H237.045L239.277 58.944L237.993 60.252ZM246.273 60.096C245.537 60.096 244.889 59.952 244.329 59.664C243.777 59.376 243.349 58.984 243.045 58.488C242.741 57.984 242.589 57.412 242.589 56.772C242.589 56.124 242.737 55.552 243.033 55.056C243.337 54.552 243.749 54.16 244.269 53.88C244.789 53.592 245.377 53.448 246.033 53.448C246.665 53.448 247.233 53.584 247.737 53.856C248.249 54.12 248.653 54.504 248.949 55.008C249.245 55.504 249.393 56.1 249.393 56.796C249.393 56.868 249.389 56.952 249.381 57.048C249.373 57.136 249.365 57.22 249.357 57.3H244.113V56.208H248.373L247.653 56.532C247.653 56.196 247.585 55.904 247.449 55.656C247.313 55.408 247.125 55.216 246.885 55.08C246.645 54.936 246.365 54.864 246.045 54.864C245.725 54.864 245.441 54.936 245.193 55.08C244.953 55.216 244.765 55.412 244.629 55.668C244.493 55.916 244.425 56.212 244.425 56.556V56.844C244.425 57.196 244.501 57.508 244.653 57.78C244.813 58.044 245.033 58.248 245.313 58.392C245.601 58.528 245.937 58.596 246.321 58.596C246.665 58.596 246.965 58.544 247.221 58.44C247.485 58.336 247.725 58.18 247.941 57.972L248.937 59.052C248.641 59.388 248.269 59.648 247.821 59.832C247.373 60.008 246.857 60.096 246.273 60.096ZM253.759 60.096C253.063 60.096 252.443 59.956 251.899 59.676C251.355 59.388 250.927 58.992 250.615 58.488C250.311 57.984 250.159 57.412 250.159 56.772C250.159 56.124 250.311 55.552 250.615 55.056C250.927 54.552 251.355 54.16 251.899 53.88C252.443 53.592 253.063 53.448 253.759 53.448C254.439 53.448 255.031 53.592 255.535 53.88C256.039 54.16 256.411 54.564 256.651 55.092L255.199 55.872C255.031 55.568 254.819 55.344 254.563 55.2C254.315 55.056 254.043 54.984 253.747 54.984C253.427 54.984 253.139 55.056 252.883 55.2C252.627 55.344 252.423 55.548 252.271 55.812C252.127 56.076 252.055 56.396 252.055 56.772C252.055 57.148 252.127 57.468 252.271 57.732C252.423 57.996 252.627 58.2 252.883 58.344C253.139 58.488 253.427 58.56 253.747 58.56C254.043 58.56 254.315 58.492 254.563 58.356C254.819 58.212 255.031 57.984 255.199 57.672L256.651 58.464C256.411 58.984 256.039 59.388 255.535 59.676C255.031 59.956 254.439 60.096 253.759 60.096ZM260.463 60.096C259.703 60.096 259.111 59.904 258.687 59.52C258.263 59.128 258.051 58.548 258.051 57.78V52.116H259.923V57.756C259.923 58.028 259.995 58.24 260.139 58.392C260.283 58.536 260.479 58.608 260.727 58.608C261.023 58.608 261.275 58.528 261.483 58.368L261.987 59.688C261.795 59.824 261.563 59.928 261.291 60C261.027 60.064 260.751 60.096 260.463 60.096ZM257.055 55.128V53.688H261.531V55.128H257.055ZM265.911 60.096C265.223 60.096 264.611 59.952 264.075 59.664C263.547 59.376 263.127 58.984 262.815 58.488C262.511 57.984 262.359 57.412 262.359 56.772C262.359 56.124 262.511 55.552 262.815 55.056C263.127 54.552 263.547 54.16 264.075 53.88C264.611 53.592 265.223 53.448 265.911 53.448C266.591 53.448 267.199 53.592 267.735 53.88C268.271 54.16 268.691 54.548 268.995 55.044C269.299 55.54 269.451 56.116 269.451 56.772C269.451 57.412 269.299 57.984 268.995 58.488C268.691 58.984 268.271 59.376 267.735 59.664C267.199 59.952 266.591 60.096 265.911 60.096ZM265.911 58.56C266.223 58.56 266.503 58.488 266.751 58.344C266.999 58.2 267.195 57.996 267.339 57.732C267.483 57.46 267.555 57.14 267.555 56.772C267.555 56.396 267.483 56.076 267.339 55.812C267.195 55.548 266.999 55.344 266.751 55.2C266.503 55.056 266.223 54.984 265.911 54.984C265.599 54.984 265.319 55.056 265.071 55.2C264.823 55.344 264.623 55.548 264.471 55.812C264.327 56.076 264.255 56.396 264.255 56.772C264.255 57.14 264.327 57.46 264.471 57.732C264.623 57.996 264.823 58.2 265.071 58.344C265.319 58.488 265.599 58.56 265.911 58.56Z" fill="#100FA8"/>
<defs>
<clipPath id="clip0_1307_5514">
<rect width="16" height="16" fill="white" transform="translate(20 4)"/>
</clipPath>
<clipPath id="clip1_1307_5514">
<rect width="16" height="16" fill="white" transform="translate(91 4)"/>
</clipPath>
<clipPath id="clip2_1307_5514">
<rect width="16" height="16" fill="white" transform="translate(163 4)"/>
</clipPath>
</defs>
</svg>
