<svg width="973" height="83" viewBox="0 0 973 83" fill="none" xmlns="http://www.w3.org/2000/svg">
<rect x="77" width="40" height="40" rx="8" fill="#100FA8"/>
<g clip-path="url(#clip0_3313_19175)">
<path d="M95.333 23.172L104.525 13.979L105.94 15.393L95.333 26L88.969 19.636L90.383 18.222L95.333 23.172Z" fill="white"/>
</g>
<path d="M11.3 63V71.5L4.34 63H1.66V77H4.86V68.5L11.84 77H14.5V63H11.3ZM25.3123 66.24V71.56C25.3123 73.54 24.2723 74.46 22.8323 74.46C21.4523 74.46 20.6523 73.66 20.6523 71.86V66.24H17.5323V72.32C17.5323 75.64 19.4323 77.16 22.1323 77.16C23.4523 77.16 24.6523 76.66 25.4723 75.72V77H28.4323V66.24H25.3123ZM41.8628 71.66C41.8628 68.2 39.4228 66.08 36.2628 66.08C32.9828 66.08 30.5228 68.4 30.5228 71.62C30.5228 74.82 32.9428 77.16 36.6628 77.16C38.6028 77.16 40.1028 76.56 41.1028 75.42L39.4428 73.62C38.7028 74.32 37.8828 74.66 36.7428 74.66C35.1028 74.66 33.9628 73.84 33.6628 72.5H41.8028C41.8228 72.24 41.8628 71.9 41.8628 71.66ZM36.2828 68.44C37.6828 68.44 38.7028 69.32 38.9228 70.68H33.6228C33.8428 69.3 34.8628 68.44 36.2828 68.44ZM47.56 77.16C50.78 77.16 52.64 75.74 52.64 73.74C52.64 69.5 46.14 71.28 46.14 69.44C46.14 68.88 46.74 68.44 48.14 68.44C49.12 68.44 50.18 68.64 51.24 69.24L52.28 67.02C51.26 66.42 49.62 66.08 48.14 66.08C45 66.08 43.16 67.52 43.16 69.56C43.16 73.86 49.66 72.06 49.66 73.82C49.66 74.42 49.12 74.8 47.68 74.8C46.36 74.8 44.9 74.38 43.94 73.76L42.9 76C43.9 76.66 45.74 77.16 47.56 77.16ZM60.665 74.28C60.325 74.54 59.865 74.68 59.405 74.68C58.565 74.68 58.065 74.18 58.065 73.26V68.88H60.745V66.48H58.065V63.86H54.945V66.48H53.285V68.88H54.945V73.3C54.945 75.86 56.425 77.16 58.965 77.16C59.925 77.16 60.865 76.94 61.505 76.48L60.665 74.28ZM66.2364 67.66V66.24H63.2564V77H66.3764V71.92C66.3764 69.86 67.5164 68.92 69.2364 68.92C69.4764 68.92 69.6764 68.94 69.9364 68.96V66.08C68.2764 66.08 66.9964 66.62 66.2364 67.66ZM76.8139 77.16C80.2339 77.16 82.7139 74.86 82.7139 71.62C82.7139 68.38 80.2339 66.08 76.8139 66.08C73.3939 66.08 70.8939 68.38 70.8939 71.62C70.8939 74.86 73.3939 77.16 76.8139 77.16ZM76.8139 74.6C75.2539 74.6 74.0539 73.48 74.0539 71.62C74.0539 69.76 75.2539 68.64 76.8139 68.64C78.3739 68.64 79.5539 69.76 79.5539 71.62C79.5539 73.48 78.3739 74.6 76.8139 74.6ZM88.4194 77.16C91.6394 77.16 93.4994 75.74 93.4994 73.74C93.4994 69.5 86.9994 71.28 86.9994 69.44C86.9994 68.88 87.5994 68.44 88.9994 68.44C89.9794 68.44 91.0394 68.64 92.0994 69.24L93.1394 67.02C92.1194 66.42 90.4794 66.08 88.9994 66.08C85.8594 66.08 84.0194 67.52 84.0194 69.56C84.0194 73.86 90.5194 72.06 90.5194 73.82C90.5194 74.42 89.9794 74.8 88.5394 74.8C87.2194 74.8 85.7594 74.38 84.7994 73.76L83.7594 76C84.7594 76.66 86.5994 77.16 88.4194 77.16ZM105.908 77.24C109.908 77.24 111.848 75.24 111.848 72.9C111.848 67.76 103.708 69.54 103.708 66.96C103.708 66.08 104.448 65.36 106.368 65.36C107.608 65.36 108.948 65.72 110.248 66.46L111.248 64C109.948 63.18 108.148 62.76 106.388 62.76C102.408 62.76 100.488 64.74 100.488 67.12C100.488 72.32 108.628 70.52 108.628 73.14C108.628 74 107.848 74.64 105.928 74.64C104.248 74.64 102.488 74.04 101.308 73.18L100.208 75.62C101.448 76.58 103.688 77.24 105.908 77.24ZM124.382 71.66C124.382 68.2 121.942 66.08 118.782 66.08C115.502 66.08 113.042 68.4 113.042 71.62C113.042 74.82 115.462 77.16 119.182 77.16C121.122 77.16 122.622 76.56 123.622 75.42L121.962 73.62C121.222 74.32 120.402 74.66 119.262 74.66C117.622 74.66 116.482 73.84 116.182 72.5H124.322C124.342 72.24 124.382 71.9 124.382 71.66ZM118.802 68.44C120.202 68.44 121.222 69.32 121.442 70.68H116.142C116.362 69.3 117.382 68.44 118.802 68.44ZM129.44 67.66V66.24H126.46V77H129.58V71.92C129.58 69.86 130.72 68.92 132.44 68.92C132.68 68.92 132.88 68.94 133.14 68.96V66.08C131.48 66.08 130.2 66.62 129.44 67.66ZM143.046 66.24L139.966 73.56L136.986 66.24H133.766L138.286 77H141.506L146.046 66.24H143.046ZM148.879 64.74C150.039 64.74 150.819 63.98 150.819 62.94C150.819 61.98 150.039 61.26 148.879 61.26C147.719 61.26 146.939 62.02 146.939 63C146.939 63.98 147.719 64.74 148.879 64.74ZM147.319 77H150.439V66.24H147.319V77ZM158.535 77.16C160.795 77.16 162.575 76.16 163.355 74.44L160.935 73.12C160.355 74.16 159.495 74.6 158.515 74.6C156.935 74.6 155.695 73.5 155.695 71.62C155.695 69.74 156.935 68.64 158.515 68.64C159.495 68.64 160.355 69.1 160.935 70.12L163.355 68.82C162.575 67.06 160.795 66.08 158.535 66.08C155.035 66.08 152.535 68.38 152.535 71.62C152.535 74.86 155.035 77.16 158.535 77.16ZM166.711 64.74C167.871 64.74 168.651 63.98 168.651 62.94C168.651 61.98 167.871 61.26 166.711 61.26C165.551 61.26 164.771 62.02 164.771 63C164.771 63.98 165.551 64.74 166.711 64.74ZM165.151 77H168.271V66.24H165.151V77ZM176.287 77.16C179.707 77.16 182.187 74.86 182.187 71.62C182.187 68.38 179.707 66.08 176.287 66.08C172.867 66.08 170.367 68.38 170.367 71.62C170.367 74.86 172.867 77.16 176.287 77.16ZM176.287 74.6C174.727 74.6 173.527 73.48 173.527 71.62C173.527 69.76 174.727 68.64 176.287 68.64C177.847 68.64 179.027 69.76 179.027 71.62C179.027 73.48 177.847 74.6 176.287 74.6ZM187.892 77.16C191.112 77.16 192.972 75.74 192.972 73.74C192.972 69.5 186.472 71.28 186.472 69.44C186.472 68.88 187.072 68.44 188.472 68.44C189.452 68.44 190.512 68.64 191.572 69.24L192.612 67.02C191.592 66.42 189.952 66.08 188.472 66.08C185.332 66.08 183.492 67.52 183.492 69.56C183.492 73.86 189.992 72.06 189.992 73.82C189.992 74.42 189.452 74.8 188.012 74.8C186.692 74.8 185.232 74.38 184.272 73.76L183.232 76C184.232 76.66 186.072 77.16 187.892 77.16Z" fill="#100FA8"/>
<line x1="232" y1="19.5" x2="154" y2="19.5" stroke="#100FA8"/>
<line x1="310" y1="19.5" x2="232" y2="19.5" stroke="#100FA8"/>
<rect x="340.5" width="40" height="40" rx="8" fill="#100FA8"/>
<g clip-path="url(#clip1_3313_19175)">
<path d="M358 23.172L367.192 13.979L368.607 15.393L358 26L351.636 19.636L353.05 18.222L358 23.172Z" fill="white"/>
</g>
<path d="M271.66 77H278.02C282.6 77 285.74 74.24 285.74 70C285.74 65.76 282.6 63 278.02 63H271.66V77ZM274.9 74.34V65.66H277.86C280.64 65.66 282.46 67.32 282.46 70C282.46 72.68 280.64 74.34 277.86 74.34H274.9ZM292.303 66.08C290.583 66.08 288.843 66.54 287.663 67.38L288.783 69.56C289.563 68.94 290.743 68.56 291.883 68.56C293.563 68.56 294.363 69.34 294.363 70.68H291.883C288.603 70.68 287.263 72 287.263 73.9C287.263 75.76 288.763 77.16 291.283 77.16C292.863 77.16 293.983 76.64 294.563 75.66V77H297.483V70.86C297.483 67.6 295.583 66.08 292.303 66.08ZM292.063 75.06C290.963 75.06 290.303 74.54 290.303 73.76C290.303 73.04 290.763 72.5 292.223 72.5H294.363V73.6C294.003 74.58 293.103 75.06 292.063 75.06ZM306.407 74.28C306.067 74.54 305.607 74.68 305.147 74.68C304.307 74.68 303.807 74.18 303.807 73.26V68.88H306.487V66.48H303.807V63.86H300.687V66.48H299.027V68.88H300.687V73.3C300.687 75.86 302.167 77.16 304.707 77.16C305.667 77.16 306.607 76.94 307.247 76.48L306.407 74.28ZM313.787 77.16C317.207 77.16 319.687 74.86 319.687 71.62C319.687 68.38 317.207 66.08 313.787 66.08C310.367 66.08 307.867 68.38 307.867 71.62C307.867 74.86 310.367 77.16 313.787 77.16ZM313.787 74.6C312.227 74.6 311.027 73.48 311.027 71.62C311.027 69.76 312.227 68.64 313.787 68.64C315.347 68.64 316.527 69.76 316.527 71.62C316.527 73.48 315.347 74.6 313.787 74.6ZM325.392 77.16C328.612 77.16 330.472 75.74 330.472 73.74C330.472 69.5 323.972 71.28 323.972 69.44C323.972 68.88 324.572 68.44 325.972 68.44C326.952 68.44 328.012 68.64 329.072 69.24L330.112 67.02C329.092 66.42 327.452 66.08 325.972 66.08C322.832 66.08 320.992 67.52 320.992 69.56C320.992 73.86 327.492 72.06 327.492 73.82C327.492 74.42 326.952 74.8 325.512 74.8C324.192 74.8 322.732 74.38 321.772 73.76L320.732 76C321.732 76.66 323.572 77.16 325.392 77.16ZM344.421 66.08C342.981 66.08 341.821 66.54 341.041 67.48V66.24H338.061V80.88H341.181V75.86C341.981 76.74 343.081 77.16 344.421 77.16C347.441 77.16 349.781 75 349.781 71.62C349.781 68.24 347.441 66.08 344.421 66.08ZM343.881 74.6C342.321 74.6 341.141 73.48 341.141 71.62C341.141 69.76 342.321 68.64 343.881 68.64C345.441 68.64 346.621 69.76 346.621 71.62C346.621 73.48 345.441 74.6 343.881 74.6ZM362.41 71.66C362.41 68.2 359.97 66.08 356.81 66.08C353.53 66.08 351.07 68.4 351.07 71.62C351.07 74.82 353.49 77.16 357.21 77.16C359.15 77.16 360.65 76.56 361.65 75.42L359.99 73.62C359.25 74.32 358.43 74.66 357.29 74.66C355.65 74.66 354.51 73.84 354.21 72.5H362.35C362.37 72.24 362.41 71.9 362.41 71.66ZM356.83 68.44C358.23 68.44 359.25 69.32 359.47 70.68H354.17C354.39 69.3 355.41 68.44 356.83 68.44ZM367.467 67.66V66.24H364.487V77H367.607V71.92C367.607 69.86 368.747 68.92 370.467 68.92C370.707 68.92 370.907 68.94 371.167 68.96V66.08C369.507 66.08 368.227 66.62 367.467 67.66ZM376.681 77.16C379.901 77.16 381.761 75.74 381.761 73.74C381.761 69.5 375.261 71.28 375.261 69.44C375.261 68.88 375.861 68.44 377.261 68.44C378.241 68.44 379.301 68.64 380.361 69.24L381.401 67.02C380.381 66.42 378.741 66.08 377.261 66.08C374.121 66.08 372.281 67.52 372.281 69.56C372.281 73.86 378.781 72.06 378.781 73.82C378.781 74.42 378.241 74.8 376.801 74.8C375.481 74.8 374.021 74.38 373.061 73.76L372.021 76C373.021 76.66 374.861 77.16 376.681 77.16ZM388.806 77.16C392.226 77.16 394.706 74.86 394.706 71.62C394.706 68.38 392.226 66.08 388.806 66.08C385.386 66.08 382.886 68.38 382.886 71.62C382.886 74.86 385.386 77.16 388.806 77.16ZM388.806 74.6C387.246 74.6 386.046 73.48 386.046 71.62C386.046 69.76 387.246 68.64 388.806 68.64C390.366 68.64 391.546 69.76 391.546 71.62C391.546 73.48 390.366 74.6 388.806 74.6ZM403.332 66.08C401.872 66.08 400.612 66.58 399.772 67.5V66.24H396.792V77H399.912V71.68C399.912 69.7 400.992 68.78 402.492 68.78C403.872 68.78 404.672 69.58 404.672 71.32V77H407.792V70.84C407.792 67.56 405.872 66.08 403.332 66.08ZM414.96 66.08C413.24 66.08 411.5 66.54 410.32 67.38L411.44 69.56C412.22 68.94 413.4 68.56 414.54 68.56C416.22 68.56 417.02 69.34 417.02 70.68H414.54C411.26 70.68 409.92 72 409.92 73.9C409.92 75.76 411.42 77.16 413.94 77.16C415.52 77.16 416.64 76.64 417.22 75.66V77H420.14V70.86C420.14 67.6 418.24 66.08 414.96 66.08ZM414.72 75.06C413.62 75.06 412.96 74.54 412.96 73.76C412.96 73.04 413.42 72.5 414.88 72.5H417.02V73.6C416.66 74.58 415.76 75.06 414.72 75.06ZM422.963 77H426.083V62.16H422.963V77ZM439.519 71.66C439.519 68.2 437.079 66.08 433.919 66.08C430.639 66.08 428.179 68.4 428.179 71.62C428.179 74.82 430.599 77.16 434.319 77.16C436.259 77.16 437.759 76.56 438.759 75.42L437.099 73.62C436.359 74.32 435.539 74.66 434.399 74.66C432.759 74.66 431.619 73.84 431.319 72.5H439.459C439.479 72.24 439.519 71.9 439.519 71.66ZM433.939 68.44C435.339 68.44 436.359 69.32 436.579 70.68H431.279C431.499 69.3 432.519 68.44 433.939 68.44ZM445.216 77.16C448.436 77.16 450.296 75.74 450.296 73.74C450.296 69.5 443.796 71.28 443.796 69.44C443.796 68.88 444.396 68.44 445.796 68.44C446.776 68.44 447.836 68.64 448.896 69.24L449.936 67.02C448.916 66.42 447.276 66.08 445.796 66.08C442.656 66.08 440.816 67.52 440.816 69.56C440.816 73.86 447.316 72.06 447.316 73.82C447.316 74.42 446.776 74.8 445.336 74.8C444.016 74.8 442.556 74.38 441.596 73.76L440.556 76C441.556 76.66 443.396 77.16 445.216 77.16Z" fill="#100FA8"/>
<line x1="489" y1="19.5" x2="411" y2="19.5" stroke="#100FA8"/>
<line x1="567" y1="19.5" x2="489" y2="19.5" stroke="#9999AD"/>
<rect x="598" width="40" height="40" rx="8" fill="#100FA8"/>
<path d="M617.774 27.2455C616.801 27.2475 615.834 27.1228 614.874 26.8714C613.913 26.6067 613.099 26.2351 612.431 25.7564L613.686 23.2739C614.22 23.6594 614.841 23.9648 615.548 24.19C616.255 24.4153 616.969 24.5271 617.689 24.5257C618.502 24.524 619.142 24.3627 619.608 24.0417C620.074 23.7208 620.306 23.2803 620.305 22.7203C620.304 22.187 620.097 21.7674 619.683 21.4616C619.269 21.1557 618.602 21.0038 617.682 21.0057L616.202 21.0087L616.197 18.8687L620.088 14.4407L620.451 15.6L613.111 15.615L613.105 13.015L622.905 12.9949L622.91 15.0949L619.039 19.5229L617.397 18.5862L618.337 18.5843C620.057 18.5808 621.357 18.9648 622.239 19.7363C623.121 20.5078 623.563 21.5003 623.565 22.7136C623.567 23.5003 623.362 24.2407 622.95 24.9349C622.538 25.6157 621.906 26.1704 621.053 26.5988C620.201 27.0272 619.108 27.2428 617.774 27.2455Z" fill="white"/>
<path d="M533.323 75.24C532.203 75.24 531.129 75.0933 530.103 74.8C529.076 74.4933 528.249 74.1 527.623 73.62L528.723 71.18C529.323 71.6067 530.029 71.96 530.843 72.24C531.669 72.5067 532.503 72.64 533.343 72.64C533.983 72.64 534.496 72.58 534.883 72.46C535.283 72.3267 535.576 72.1467 535.763 71.92C535.949 71.6933 536.043 71.4333 536.043 71.14C536.043 70.7667 535.896 70.4733 535.603 70.26C535.309 70.0333 534.923 69.8533 534.443 69.72C533.963 69.5733 533.429 69.44 532.843 69.32C532.269 69.1867 531.689 69.0267 531.103 68.84C530.529 68.6533 530.003 68.4133 529.523 68.12C529.043 67.8267 528.649 67.44 528.343 66.96C528.049 66.48 527.903 65.8667 527.903 65.12C527.903 64.32 528.116 63.5933 528.543 62.94C528.983 62.2733 529.636 61.7467 530.503 61.36C531.383 60.96 532.483 60.76 533.803 60.76C534.683 60.76 535.549 60.8667 536.403 61.08C537.256 61.28 538.009 61.5867 538.663 62L537.663 64.46C537.009 64.0867 536.356 63.8133 535.703 63.64C535.049 63.4533 534.409 63.36 533.783 63.36C533.156 63.36 532.643 63.4333 532.243 63.58C531.843 63.7267 531.556 63.92 531.383 64.16C531.209 64.3867 531.123 64.6533 531.123 64.96C531.123 65.32 531.269 65.6133 531.563 65.84C531.856 66.0533 532.243 66.2267 532.723 66.36C533.203 66.4933 533.729 66.6267 534.303 66.76C534.889 66.8933 535.469 67.0467 536.043 67.22C536.629 67.3933 537.163 67.6267 537.643 67.92C538.123 68.2133 538.509 68.6 538.803 69.08C539.109 69.56 539.263 70.1667 539.263 70.9C539.263 71.6867 539.043 72.4067 538.603 73.06C538.163 73.7133 537.503 74.24 536.623 74.64C535.756 75.04 534.656 75.24 533.323 75.24ZM546.376 75.16C545.23 75.16 544.21 74.92 543.316 74.44C542.436 73.96 541.736 73.3067 541.216 72.48C540.71 71.64 540.456 70.6867 540.456 69.62C540.456 68.54 540.71 67.5867 541.216 66.76C541.736 65.92 542.436 65.2667 543.316 64.8C544.21 64.32 545.23 64.08 546.376 64.08C547.51 64.08 548.523 64.32 549.416 64.8C550.31 65.2667 551.01 65.9133 551.516 66.74C552.023 67.5667 552.276 68.5267 552.276 69.62C552.276 70.6867 552.023 71.64 551.516 72.48C551.01 73.3067 550.31 73.96 549.416 74.44C548.523 74.92 547.51 75.16 546.376 75.16ZM546.376 72.6C546.896 72.6 547.363 72.48 547.776 72.24C548.19 72 548.516 71.66 548.756 71.22C548.996 70.7667 549.116 70.2333 549.116 69.62C549.116 68.9933 548.996 68.46 548.756 68.02C548.516 67.58 548.19 67.24 547.776 67C547.363 66.76 546.896 66.64 546.376 66.64C545.856 66.64 545.39 66.76 544.976 67C544.563 67.24 544.23 67.58 543.976 68.02C543.736 68.46 543.616 68.9933 543.616 69.62C543.616 70.2333 543.736 70.7667 543.976 71.22C544.23 71.66 544.563 72 544.976 72.24C545.39 72.48 545.856 72.6 546.376 72.6ZM560.722 75.16C559.775 75.16 558.962 74.96 558.282 74.56C557.602 74.16 557.082 73.5533 556.722 72.74C556.362 71.9133 556.182 70.8733 556.182 69.62C556.182 68.3533 556.369 67.3133 556.742 66.5C557.129 65.6867 557.662 65.08 558.342 64.68C559.022 64.28 559.815 64.08 560.722 64.08C561.735 64.08 562.642 64.3067 563.442 64.76C564.255 65.2133 564.895 65.8533 565.362 66.68C565.842 67.5067 566.082 68.4867 566.082 69.62C566.082 70.74 565.842 71.7133 565.362 72.54C564.895 73.3667 564.255 74.0133 563.442 74.48C562.642 74.9333 561.735 75.16 560.722 75.16ZM554.362 75V60.16H557.482V66.42L557.282 69.6L557.342 72.8V75H554.362ZM560.182 72.6C560.702 72.6 561.162 72.48 561.562 72.24C561.975 72 562.302 71.66 562.542 71.22C562.795 70.7667 562.922 70.2333 562.922 69.62C562.922 68.9933 562.795 68.46 562.542 68.02C562.302 67.58 561.975 67.24 561.562 67C561.162 66.76 560.702 66.64 560.182 66.64C559.662 66.64 559.195 66.76 558.782 67C558.369 67.24 558.042 67.58 557.802 68.02C557.562 68.46 557.442 68.9933 557.442 69.62C557.442 70.2333 557.562 70.7667 557.802 71.22C558.042 71.66 558.369 72 558.782 72.24C559.195 72.48 559.662 72.6 560.182 72.6ZM568.17 75V64.24H571.15V67.28L570.73 66.4C571.05 65.64 571.564 65.0667 572.27 64.68C572.977 64.28 573.837 64.08 574.85 64.08V66.96C574.717 66.9467 574.597 66.94 574.49 66.94C574.384 66.9267 574.27 66.92 574.15 66.92C573.297 66.92 572.604 67.1667 572.07 67.66C571.55 68.14 571.29 68.8933 571.29 69.92V75H568.17ZM581.968 75.16C580.741 75.16 579.661 74.92 578.728 74.44C577.808 73.96 577.094 73.3067 576.588 72.48C576.081 71.64 575.828 70.6867 575.828 69.62C575.828 68.54 576.074 67.5867 576.568 66.76C577.074 65.92 577.761 65.2667 578.628 64.8C579.494 64.32 580.474 64.08 581.568 64.08C582.621 64.08 583.568 64.3067 584.408 64.76C585.261 65.2 585.934 65.84 586.428 66.68C586.921 67.5067 587.168 68.5 587.168 69.66C587.168 69.78 587.161 69.92 587.148 70.08C587.134 70.2267 587.121 70.3667 587.108 70.5H578.368V68.68H585.467L584.268 69.22C584.268 68.66 584.154 68.1733 583.928 67.76C583.701 67.3467 583.388 67.0267 582.988 66.8C582.588 66.56 582.121 66.44 581.588 66.44C581.054 66.44 580.581 66.56 580.168 66.8C579.768 67.0267 579.454 67.3533 579.228 67.78C579.001 68.1933 578.888 68.6867 578.888 69.26V69.74C578.888 70.3267 579.014 70.8467 579.268 71.3C579.534 71.74 579.901 72.08 580.368 72.32C580.848 72.5467 581.408 72.66 582.048 72.66C582.621 72.66 583.121 72.5733 583.548 72.4C583.988 72.2267 584.388 71.9667 584.748 71.62L586.408 73.42C585.914 73.98 585.294 74.4133 584.548 74.72C583.801 75.0133 582.941 75.16 581.968 75.16ZM594.909 75V60.16H598.029V75H594.909ZM607.524 75V72.9L607.324 72.44V68.68C607.324 68.0133 607.118 67.4933 606.704 67.12C606.304 66.7467 605.684 66.56 604.844 66.56C604.271 66.56 603.704 66.6533 603.144 66.84C602.598 67.0133 602.131 67.2533 601.744 67.56L600.624 65.38C601.211 64.9667 601.918 64.6467 602.744 64.42C603.571 64.1933 604.411 64.08 605.264 64.08C606.904 64.08 608.178 64.4667 609.084 65.24C609.991 66.0133 610.444 67.22 610.444 68.86V75H607.524ZM604.244 75.16C603.404 75.16 602.684 75.02 602.084 74.74C601.484 74.4467 601.024 74.0533 600.704 73.56C600.384 73.0667 600.224 72.5133 600.224 71.9C600.224 71.26 600.378 70.7 600.684 70.22C601.004 69.74 601.504 69.3667 602.184 69.1C602.864 68.82 603.751 68.68 604.844 68.68H607.704V70.5H605.184C604.451 70.5 603.944 70.62 603.664 70.86C603.398 71.1 603.264 71.4 603.264 71.76C603.264 72.16 603.418 72.48 603.724 72.72C604.044 72.9467 604.478 73.06 605.024 73.06C605.544 73.06 606.011 72.94 606.424 72.7C606.838 72.4467 607.138 72.08 607.324 71.6L607.804 73.04C607.578 73.7333 607.164 74.26 606.564 74.62C605.964 74.98 605.191 75.16 604.244 75.16ZM624.272 75.16C623.046 75.16 621.966 74.92 621.032 74.44C620.112 73.96 619.399 73.3067 618.892 72.48C618.386 71.64 618.132 70.6867 618.132 69.62C618.132 68.54 618.379 67.5867 618.872 66.76C619.379 65.92 620.066 65.2667 620.932 64.8C621.799 64.32 622.779 64.08 623.872 64.08C624.926 64.08 625.872 64.3067 626.712 64.76C627.566 65.2 628.239 65.84 628.732 66.68C629.226 67.5067 629.472 68.5 629.472 69.66C629.472 69.78 629.466 69.92 629.452 70.08C629.439 70.2267 629.426 70.3667 629.412 70.5H620.672V68.68H627.772L626.572 69.22C626.572 68.66 626.459 68.1733 626.232 67.76C626.006 67.3467 625.692 67.0267 625.292 66.8C624.892 66.56 624.426 66.44 623.892 66.44C623.359 66.44 622.886 66.56 622.472 66.8C622.072 67.0267 621.759 67.3533 621.532 67.78C621.306 68.1933 621.192 68.6867 621.192 69.26V69.74C621.192 70.3267 621.319 70.8467 621.572 71.3C621.839 71.74 622.206 72.08 622.672 72.32C623.152 72.5467 623.712 72.66 624.352 72.66C624.926 72.66 625.426 72.5733 625.852 72.4C626.292 72.2267 626.692 71.9667 627.052 71.62L628.712 73.42C628.219 73.98 627.599 74.4133 626.852 74.72C626.106 75.0133 625.246 75.16 624.272 75.16ZM645.329 64.08C646.183 64.08 646.936 64.2533 647.589 64.6C648.256 64.9333 648.776 65.4533 649.149 66.16C649.536 66.8533 649.729 67.7467 649.729 68.84V75H646.609V69.32C646.609 68.4533 646.429 67.8133 646.069 67.4C645.709 66.9867 645.203 66.78 644.549 66.78C644.096 66.78 643.689 66.8867 643.329 67.1C642.969 67.3 642.689 67.6067 642.489 68.02C642.289 68.4333 642.189 68.96 642.189 69.6V75H639.069V69.32C639.069 68.4533 638.889 67.8133 638.529 67.4C638.183 66.9867 637.683 66.78 637.029 66.78C636.576 66.78 636.169 66.8867 635.809 67.1C635.449 67.3 635.169 67.6067 634.969 68.02C634.769 68.4333 634.669 68.96 634.669 69.6V75H631.549V64.24H634.529V67.18L633.969 66.32C634.343 65.5867 634.869 65.0333 635.549 64.66C636.243 64.2733 637.029 64.08 637.909 64.08C638.896 64.08 639.756 64.3333 640.489 64.84C641.236 65.3333 641.729 66.0933 641.969 67.12L640.869 66.82C641.229 65.98 641.803 65.3133 642.589 64.82C643.389 64.3267 644.303 64.08 645.329 64.08ZM658.886 75.16C657.979 75.16 657.186 74.96 656.506 74.56C655.826 74.16 655.293 73.5533 654.906 72.74C654.533 71.9133 654.346 70.8733 654.346 69.62C654.346 68.3533 654.526 67.3133 654.886 66.5C655.246 65.6867 655.766 65.08 656.446 64.68C657.126 64.28 657.939 64.08 658.886 64.08C659.899 64.08 660.806 64.3133 661.606 64.78C662.419 65.2333 663.059 65.8733 663.526 66.7C664.006 67.5267 664.246 68.5 664.246 69.62C664.246 70.7533 664.006 71.7333 663.526 72.56C663.059 73.3867 662.419 74.0267 661.606 74.48C660.806 74.9333 659.899 75.16 658.886 75.16ZM652.526 78.88V64.24H655.506V66.44L655.446 69.64L655.646 72.82V78.88H652.526ZM658.346 72.6C658.866 72.6 659.326 72.48 659.726 72.24C660.139 72 660.466 71.66 660.706 71.22C660.959 70.7667 661.086 70.2333 661.086 69.62C661.086 68.9933 660.959 68.46 660.706 68.02C660.466 67.58 660.139 67.24 659.726 67C659.326 66.76 658.866 66.64 658.346 66.64C657.826 66.64 657.359 66.76 656.946 67C656.533 67.24 656.206 67.58 655.966 68.02C655.726 68.46 655.606 68.9933 655.606 69.62C655.606 70.2333 655.726 70.7667 655.966 71.22C656.206 71.66 656.533 72 656.946 72.24C657.359 72.48 657.826 72.6 658.346 72.6ZM666.335 75V64.24H669.315V67.28L668.895 66.4C669.215 65.64 669.728 65.0667 670.435 64.68C671.141 64.28 672.001 64.08 673.015 64.08V66.96C672.881 66.9467 672.761 66.94 672.655 66.94C672.548 66.9267 672.435 66.92 672.315 66.92C671.461 66.92 670.768 67.1667 670.235 67.66C669.715 68.14 669.455 68.8933 669.455 69.92V75H666.335ZM680.132 75.16C678.905 75.16 677.825 74.92 676.892 74.44C675.972 73.96 675.258 73.3067 674.752 72.48C674.245 71.64 673.992 70.6867 673.992 69.62C673.992 68.54 674.238 67.5867 674.732 66.76C675.238 65.92 675.925 65.2667 676.792 64.8C677.658 64.32 678.638 64.08 679.732 64.08C680.785 64.08 681.732 64.3067 682.572 64.76C683.425 65.2 684.098 65.84 684.592 66.68C685.085 67.5067 685.332 68.5 685.332 69.66C685.332 69.78 685.325 69.92 685.312 70.08C685.298 70.2267 685.285 70.3667 685.272 70.5H676.532V68.68H683.632L682.432 69.22C682.432 68.66 682.318 68.1733 682.092 67.76C681.865 67.3467 681.552 67.0267 681.152 66.8C680.752 66.56 680.285 66.44 679.752 66.44C679.218 66.44 678.745 66.56 678.332 66.8C677.932 67.0267 677.618 67.3533 677.392 67.78C677.165 68.1933 677.052 68.6867 677.052 69.26V69.74C677.052 70.3267 677.178 70.8467 677.432 71.3C677.698 71.74 678.065 72.08 678.532 72.32C679.012 72.5467 679.572 72.66 680.212 72.66C680.785 72.66 681.285 72.5733 681.712 72.4C682.152 72.2267 682.552 71.9667 682.912 71.62L684.572 73.42C684.078 73.98 683.458 74.4133 682.712 74.72C681.965 75.0133 681.105 75.16 680.132 75.16ZM691.029 75.16C690.109 75.16 689.222 75.0533 688.369 74.84C687.529 74.6133 686.862 74.3333 686.369 74L687.409 71.76C687.902 72.0667 688.482 72.32 689.149 72.52C689.829 72.7067 690.495 72.8 691.149 72.8C691.869 72.8 692.375 72.7133 692.669 72.54C692.975 72.3667 693.129 72.1267 693.129 71.82C693.129 71.5667 693.009 71.38 692.769 71.26C692.542 71.1267 692.235 71.0267 691.849 70.96C691.462 70.8933 691.035 70.8267 690.569 70.76C690.115 70.6933 689.655 70.6067 689.189 70.5C688.722 70.38 688.295 70.2067 687.909 69.98C687.522 69.7533 687.209 69.4467 686.969 69.06C686.742 68.6733 686.629 68.1733 686.629 67.56C686.629 66.88 686.822 66.28 687.209 65.76C687.609 65.24 688.182 64.8333 688.929 64.54C689.675 64.2333 690.569 64.08 691.609 64.08C692.342 64.08 693.089 64.16 693.849 64.32C694.609 64.48 695.242 64.7133 695.749 65.02L694.709 67.24C694.189 66.9333 693.662 66.7267 693.129 66.62C692.609 66.5 692.102 66.44 691.609 66.44C690.915 66.44 690.409 66.5333 690.089 66.72C689.769 66.9067 689.609 67.1467 689.609 67.44C689.609 67.7067 689.722 67.9067 689.949 68.04C690.189 68.1733 690.502 68.28 690.889 68.36C691.275 68.44 691.695 68.5133 692.149 68.58C692.615 68.6333 693.082 68.72 693.549 68.84C694.015 68.96 694.435 69.1333 694.809 69.36C695.195 69.5733 695.509 69.8733 695.749 70.26C695.989 70.6333 696.109 71.1267 696.109 71.74C696.109 72.4067 695.909 73 695.509 73.52C695.109 74.0267 694.529 74.4267 693.769 74.72C693.022 75.0133 692.109 75.16 691.029 75.16ZM704.634 75V72.9L704.434 72.44V68.68C704.434 68.0133 704.227 67.4933 703.814 67.12C703.414 66.7467 702.794 66.56 701.954 66.56C701.38 66.56 700.814 66.6533 700.254 66.84C699.707 67.0133 699.24 67.2533 698.854 67.56L697.734 65.38C698.32 64.9667 699.027 64.6467 699.854 64.42C700.68 64.1933 701.52 64.08 702.374 64.08C704.014 64.08 705.287 64.4667 706.194 65.24C707.1 66.0133 707.554 67.22 707.554 68.86V75H704.634ZM701.354 75.16C700.514 75.16 699.794 75.02 699.194 74.74C698.594 74.4467 698.134 74.0533 697.814 73.56C697.494 73.0667 697.334 72.5133 697.334 71.9C697.334 71.26 697.487 70.7 697.794 70.22C698.114 69.74 698.614 69.3667 699.294 69.1C699.974 68.82 700.86 68.68 701.954 68.68H704.814V70.5H702.294C701.56 70.5 701.054 70.62 700.774 70.86C700.507 71.1 700.374 71.4 700.374 71.76C700.374 72.16 700.527 72.48 700.834 72.72C701.154 72.9467 701.587 73.06 702.134 73.06C702.654 73.06 703.12 72.94 703.534 72.7C703.947 72.4467 704.247 72.08 704.434 71.6L704.914 73.04C704.687 73.7333 704.274 74.26 703.674 74.62C703.074 74.98 702.3 75.16 701.354 75.16Z" fill="#100FA8"/>
<line x1="747" y1="19.5" x2="669" y2="19.5" stroke="#9999AD"/>
<line x1="825" y1="19.5" x2="747" y2="19.5" stroke="#9999AD"/>
<rect x="859" width="40" height="40" rx="8" fill="#CCCCD6"/>
<path d="M885.733 21.4104L883.453 21.4151L883.448 18.7951L880.388 18.8014L880.393 21.4214L876.633 21.4291L882.736 12.9966L879.336 13.0035L872.754 21.897L872.758 24.077L880.298 24.0616L880.304 27.0016L883.464 26.9951L883.458 24.0551L885.738 24.0504L885.733 21.4104Z" fill="#9999AD"/>
<path d="M791.26 77.2664C790.14 77.2664 789.067 77.1197 788.04 76.8264C787.013 76.5197 786.187 76.1264 785.56 75.6464L786.66 73.2064C787.26 73.633 787.967 73.9864 788.78 74.2664C789.607 74.533 790.44 74.6664 791.28 74.6664C791.92 74.6664 792.433 74.6064 792.82 74.4864C793.22 74.353 793.513 74.173 793.7 73.9464C793.887 73.7197 793.98 73.4597 793.98 73.1664C793.98 72.793 793.833 72.4997 793.54 72.2864C793.247 72.0597 792.86 71.8797 792.38 71.7464C791.9 71.5997 791.367 71.4664 790.78 71.3464C790.207 71.213 789.627 71.053 789.04 70.8664C788.467 70.6797 787.94 70.4397 787.46 70.1464C786.98 69.853 786.587 69.4664 786.28 68.9864C785.987 68.5064 785.84 67.893 785.84 67.1464C785.84 66.3464 786.053 65.6197 786.48 64.9664C786.92 64.2997 787.573 63.773 788.44 63.3864C789.32 62.9864 790.42 62.7864 791.74 62.7864C792.62 62.7864 793.487 62.893 794.34 63.1064C795.193 63.3064 795.947 63.613 796.6 64.0264L795.6 66.4864C794.947 66.113 794.293 65.8397 793.64 65.6664C792.987 65.4797 792.347 65.3864 791.72 65.3864C791.093 65.3864 790.58 65.4597 790.18 65.6064C789.78 65.753 789.493 65.9464 789.32 66.1864C789.147 66.413 789.06 66.6797 789.06 66.9864C789.06 67.3464 789.207 67.6397 789.5 67.8664C789.793 68.0797 790.18 68.253 790.66 68.3864C791.14 68.5197 791.667 68.653 792.24 68.7864C792.827 68.9197 793.407 69.073 793.98 69.2464C794.567 69.4197 795.1 69.653 795.58 69.9464C796.06 70.2397 796.447 70.6264 796.74 71.1064C797.047 71.5864 797.2 72.193 797.2 72.9264C797.2 73.713 796.98 74.433 796.54 75.0864C796.1 75.7397 795.44 76.2664 794.56 76.6664C793.693 77.0664 792.593 77.2664 791.26 77.2664ZM804.314 77.1864C803.167 77.1864 802.147 76.9464 801.254 76.4664C800.374 75.9864 799.674 75.333 799.154 74.5064C798.647 73.6664 798.394 72.713 798.394 71.6464C798.394 70.5664 798.647 69.613 799.154 68.7864C799.674 67.9464 800.374 67.293 801.254 66.8264C802.147 66.3464 803.167 66.1064 804.314 66.1064C805.447 66.1064 806.461 66.3464 807.354 66.8264C808.247 67.293 808.947 67.9397 809.454 68.7664C809.961 69.593 810.214 70.553 810.214 71.6464C810.214 72.713 809.961 73.6664 809.454 74.5064C808.947 75.333 808.247 75.9864 807.354 76.4664C806.461 76.9464 805.447 77.1864 804.314 77.1864ZM804.314 74.6264C804.834 74.6264 805.301 74.5064 805.714 74.2664C806.127 74.0264 806.454 73.6864 806.694 73.2464C806.934 72.793 807.054 72.2597 807.054 71.6464C807.054 71.0197 806.934 70.4864 806.694 70.0464C806.454 69.6064 806.127 69.2664 805.714 69.0264C805.301 68.7864 804.834 68.6664 804.314 68.6664C803.794 68.6664 803.327 68.7864 802.914 69.0264C802.501 69.2664 802.167 69.6064 801.914 70.0464C801.674 70.4864 801.554 71.0197 801.554 71.6464C801.554 72.2597 801.674 72.793 801.914 73.2464C802.167 73.6864 802.501 74.0264 802.914 74.2664C803.327 74.5064 803.794 74.6264 804.314 74.6264ZM818.659 77.1864C817.713 77.1864 816.899 76.9864 816.219 76.5864C815.539 76.1864 815.019 75.5797 814.659 74.7664C814.299 73.9397 814.119 72.8997 814.119 71.6464C814.119 70.3797 814.306 69.3397 814.679 68.5264C815.066 67.713 815.599 67.1064 816.279 66.7064C816.959 66.3064 817.753 66.1064 818.659 66.1064C819.673 66.1064 820.579 66.333 821.379 66.7864C822.193 67.2397 822.833 67.8797 823.299 68.7064C823.779 69.533 824.019 70.513 824.019 71.6464C824.019 72.7664 823.779 73.7397 823.299 74.5664C822.833 75.393 822.193 76.0397 821.379 76.5064C820.579 76.9597 819.673 77.1864 818.659 77.1864ZM812.299 77.0264V62.1864H815.419V68.4464L815.219 71.6264L815.279 74.8264V77.0264H812.299ZM818.119 74.6264C818.639 74.6264 819.099 74.5064 819.499 74.2664C819.913 74.0264 820.239 73.6864 820.479 73.2464C820.733 72.793 820.859 72.2597 820.859 71.6464C820.859 71.0197 820.733 70.4864 820.479 70.0464C820.239 69.6064 819.913 69.2664 819.499 69.0264C819.099 68.7864 818.639 68.6664 818.119 68.6664C817.599 68.6664 817.133 68.7864 816.719 69.0264C816.306 69.2664 815.979 69.6064 815.739 70.0464C815.499 70.4864 815.379 71.0197 815.379 71.6464C815.379 72.2597 815.499 72.793 815.739 73.2464C815.979 73.6864 816.306 74.0264 816.719 74.2664C817.133 74.5064 817.599 74.6264 818.119 74.6264ZM826.108 77.0264V66.2664H829.088V69.3064L828.668 68.4264C828.988 67.6664 829.501 67.093 830.208 66.7064C830.915 66.3064 831.775 66.1064 832.788 66.1064V68.9864C832.655 68.973 832.535 68.9664 832.428 68.9664C832.321 68.953 832.208 68.9464 832.088 68.9464C831.235 68.9464 830.541 69.193 830.008 69.6864C829.488 70.1664 829.228 70.9197 829.228 71.9464V77.0264H826.108ZM839.905 77.1864C838.678 77.1864 837.598 76.9464 836.665 76.4664C835.745 75.9864 835.032 75.333 834.525 74.5064C834.018 73.6664 833.765 72.713 833.765 71.6464C833.765 70.5664 834.012 69.613 834.505 68.7864C835.012 67.9464 835.698 67.293 836.565 66.8264C837.432 66.3464 838.412 66.1064 839.505 66.1064C840.558 66.1064 841.505 66.333 842.345 66.7864C843.198 67.2264 843.872 67.8664 844.365 68.7064C844.858 69.533 845.105 70.5264 845.105 71.6864C845.105 71.8064 845.098 71.9464 845.085 72.1064C845.072 72.253 845.058 72.393 845.045 72.5264H836.305V70.7064H843.405L842.205 71.2464C842.205 70.6864 842.092 70.1997 841.865 69.7864C841.638 69.373 841.325 69.053 840.925 68.8264C840.525 68.5864 840.058 68.4664 839.525 68.4664C838.992 68.4664 838.518 68.5864 838.105 68.8264C837.705 69.053 837.392 69.3797 837.165 69.8064C836.938 70.2197 836.825 70.713 836.825 71.2864V71.7664C836.825 72.353 836.952 72.873 837.205 73.3264C837.472 73.7664 837.838 74.1064 838.305 74.3464C838.785 74.573 839.345 74.6864 839.985 74.6864C840.558 74.6864 841.058 74.5997 841.485 74.4264C841.925 74.253 842.325 73.993 842.685 73.6464L844.345 75.4464C843.852 76.0064 843.232 76.4397 842.485 76.7464C841.738 77.0397 840.878 77.1864 839.905 77.1864ZM857.246 77.1864C855.98 77.1864 854.993 76.8664 854.286 76.2264C853.58 75.573 853.226 74.6064 853.226 73.3264V63.8864H856.346V73.2864C856.346 73.7397 856.466 74.093 856.706 74.3464C856.946 74.5864 857.273 74.7064 857.686 74.7064C858.18 74.7064 858.6 74.573 858.946 74.3064L859.786 76.5064C859.466 76.733 859.08 76.9064 858.626 77.0264C858.186 77.133 857.726 77.1864 857.246 77.1864ZM851.566 68.9064V66.5064H859.026V68.9064H851.566ZM866.078 77.1864C865.184 77.1864 864.384 77.013 863.678 76.6664C862.984 76.3197 862.444 75.793 862.058 75.0864C861.671 74.3664 861.478 73.453 861.478 72.3464V66.2664H864.598V71.8864C864.598 72.7797 864.784 73.4397 865.158 73.8664C865.544 74.2797 866.084 74.4864 866.778 74.4864C867.258 74.4864 867.684 74.3864 868.058 74.1864C868.431 73.973 868.724 73.653 868.938 73.2264C869.151 72.7864 869.258 72.2397 869.258 71.5864V66.2664H872.378V77.0264H869.418V74.0664L869.958 74.9264C869.598 75.673 869.064 76.2397 868.358 76.6264C867.664 76.9997 866.904 77.1864 866.078 77.1864ZM887.292 77.1864C886.386 77.1864 885.592 76.9864 884.912 76.5864C884.232 76.1864 883.699 75.5797 883.312 74.7664C882.939 73.9397 882.752 72.8997 882.752 71.6464C882.752 70.3797 882.932 69.3397 883.292 68.5264C883.652 67.713 884.172 67.1064 884.852 66.7064C885.532 66.3064 886.346 66.1064 887.292 66.1064C888.306 66.1064 889.212 66.3397 890.012 66.8064C890.826 67.2597 891.466 67.8997 891.932 68.7264C892.412 69.553 892.652 70.5264 892.652 71.6464C892.652 72.7797 892.412 73.7597 891.932 74.5864C891.466 75.413 890.826 76.053 890.012 76.5064C889.212 76.9597 888.306 77.1864 887.292 77.1864ZM880.932 80.9064V66.2664H883.912V68.4664L883.852 71.6664L884.052 74.8464V80.9064H880.932ZM886.752 74.6264C887.272 74.6264 887.732 74.5064 888.132 74.2664C888.546 74.0264 888.872 73.6864 889.112 73.2464C889.366 72.793 889.492 72.2597 889.492 71.6464C889.492 71.0197 889.366 70.4864 889.112 70.0464C888.872 69.6064 888.546 69.2664 888.132 69.0264C887.732 68.7864 887.272 68.6664 886.752 68.6664C886.232 68.6664 885.766 68.7864 885.352 69.0264C884.939 69.2664 884.612 69.6064 884.372 70.0464C884.132 70.4864 884.012 71.0197 884.012 71.6464C884.012 72.2597 884.132 72.793 884.372 73.2464C884.612 73.6864 884.939 74.0264 885.352 74.2664C885.766 74.5064 886.232 74.6264 886.752 74.6264ZM894.741 77.0264V66.2664H897.721V69.3064L897.301 68.4264C897.621 67.6664 898.134 67.093 898.841 66.7064C899.547 66.3064 900.407 66.1064 901.421 66.1064V68.9864C901.287 68.973 901.167 68.9664 901.061 68.9664C900.954 68.953 900.841 68.9464 900.721 68.9464C899.867 68.9464 899.174 69.193 898.641 69.6864C898.121 70.1664 897.861 70.9197 897.861 71.9464V77.0264H894.741ZM908.318 77.1864C907.171 77.1864 906.151 76.9464 905.258 76.4664C904.378 75.9864 903.678 75.333 903.158 74.5064C902.651 73.6664 902.398 72.713 902.398 71.6464C902.398 70.5664 902.651 69.613 903.158 68.7864C903.678 67.9464 904.378 67.293 905.258 66.8264C906.151 66.3464 907.171 66.1064 908.318 66.1064C909.451 66.1064 910.464 66.3464 911.358 66.8264C912.251 67.293 912.951 67.9397 913.458 68.7664C913.964 69.593 914.218 70.553 914.218 71.6464C914.218 72.713 913.964 73.6664 913.458 74.5064C912.951 75.333 912.251 75.9864 911.358 76.4664C910.464 76.9464 909.451 77.1864 908.318 77.1864ZM908.318 74.6264C908.838 74.6264 909.304 74.5064 909.718 74.2664C910.131 74.0264 910.458 73.6864 910.698 73.2464C910.938 72.793 911.058 72.2597 911.058 71.6464C911.058 71.0197 910.938 70.4864 910.698 70.0464C910.458 69.6064 910.131 69.2664 909.718 69.0264C909.304 68.7864 908.838 68.6664 908.318 68.6664C907.798 68.6664 907.331 68.7864 906.918 69.0264C906.504 69.2664 906.171 69.6064 905.918 70.0464C905.678 70.4864 905.558 71.0197 905.558 71.6464C905.558 72.2597 905.678 72.793 905.918 73.2464C906.171 73.6864 906.504 74.0264 906.918 74.2664C907.331 74.5064 907.798 74.6264 908.318 74.6264ZM917.37 81.0664C916.81 81.0664 916.257 80.9797 915.71 80.8064C915.164 80.633 914.717 80.393 914.37 80.0864L915.51 77.8664C915.75 78.0797 916.024 78.2464 916.33 78.3664C916.65 78.4864 916.964 78.5464 917.27 78.5464C917.71 78.5464 918.057 78.4397 918.31 78.2264C918.577 78.0264 918.817 77.6864 919.03 77.2064L919.59 75.8864L919.83 75.5464L923.69 66.2664H926.69L921.83 77.6864C921.484 78.553 921.084 79.233 920.63 79.7264C920.19 80.2197 919.697 80.5664 919.15 80.7664C918.617 80.9664 918.024 81.0664 917.37 81.0664ZM919.21 77.4464L914.41 66.2664H917.63L921.35 75.2664L919.21 77.4464ZM933.01 77.1864C931.784 77.1864 930.704 76.9464 929.77 76.4664C928.85 75.9864 928.137 75.333 927.63 74.5064C927.124 73.6664 926.87 72.713 926.87 71.6464C926.87 70.5664 927.117 69.613 927.61 68.7864C928.117 67.9464 928.804 67.293 929.67 66.8264C930.537 66.3464 931.517 66.1064 932.61 66.1064C933.664 66.1064 934.61 66.333 935.45 66.7864C936.304 67.2264 936.977 67.8664 937.47 68.7064C937.964 69.533 938.21 70.5264 938.21 71.6864C938.21 71.8064 938.204 71.9464 938.19 72.1064C938.177 72.253 938.164 72.393 938.15 72.5264H929.41V70.7064H936.51L935.31 71.2464C935.31 70.6864 935.197 70.1997 934.97 69.7864C934.744 69.373 934.43 69.053 934.03 68.8264C933.63 68.5864 933.164 68.4664 932.63 68.4664C932.097 68.4664 931.624 68.5864 931.21 68.8264C930.81 69.053 930.497 69.3797 930.27 69.8064C930.044 70.2197 929.93 70.713 929.93 71.2864V71.7664C929.93 72.353 930.057 72.873 930.31 73.3264C930.577 73.7664 930.944 74.1064 931.41 74.3464C931.89 74.573 932.45 74.6864 933.09 74.6864C933.664 74.6864 934.164 74.5997 934.59 74.4264C935.03 74.253 935.43 73.993 935.79 73.6464L937.45 75.4464C936.957 76.0064 936.337 76.4397 935.59 76.7464C934.844 77.0397 933.984 77.1864 933.01 77.1864ZM945.488 77.1864C944.328 77.1864 943.294 76.953 942.388 76.4864C941.481 76.0064 940.768 75.3464 940.248 74.5064C939.741 73.6664 939.488 72.713 939.488 71.6464C939.488 70.5664 939.741 69.613 940.248 68.7864C940.768 67.9464 941.481 67.293 942.388 66.8264C943.294 66.3464 944.328 66.1064 945.488 66.1064C946.621 66.1064 947.608 66.3464 948.448 66.8264C949.288 67.293 949.908 67.9664 950.308 68.8464L947.888 70.1464C947.608 69.6397 947.254 69.2664 946.828 69.0264C946.414 68.7864 945.961 68.6664 945.468 68.6664C944.934 68.6664 944.454 68.7864 944.028 69.0264C943.601 69.2664 943.261 69.6064 943.008 70.0464C942.768 70.4864 942.648 71.0197 942.648 71.6464C942.648 72.273 942.768 72.8064 943.008 73.2464C943.261 73.6864 943.601 74.0264 944.028 74.2664C944.454 74.5064 944.934 74.6264 945.468 74.6264C945.961 74.6264 946.414 74.513 946.828 74.2864C947.254 74.0464 947.608 73.6664 947.888 73.1464L950.308 74.4664C949.908 75.333 949.288 76.0064 948.448 76.4864C947.608 76.953 946.621 77.1864 945.488 77.1864ZM956.66 77.1864C955.394 77.1864 954.407 76.8664 953.7 76.2264C952.994 75.573 952.64 74.6064 952.64 73.3264V63.8864H955.76V73.2864C955.76 73.7397 955.88 74.093 956.12 74.3464C956.36 74.5864 956.687 74.7064 957.1 74.7064C957.594 74.7064 958.014 74.573 958.36 74.3064L959.2 76.5064C958.88 76.733 958.494 76.9064 958.04 77.0264C957.6 77.133 957.14 77.1864 956.66 77.1864ZM950.98 68.9064V66.5064H958.44V68.9064H950.98ZM965.74 77.1864C964.593 77.1864 963.573 76.9464 962.68 76.4664C961.8 75.9864 961.1 75.333 960.58 74.5064C960.073 73.6664 959.82 72.713 959.82 71.6464C959.82 70.5664 960.073 69.613 960.58 68.7864C961.1 67.9464 961.8 67.293 962.68 66.8264C963.573 66.3464 964.593 66.1064 965.74 66.1064C966.873 66.1064 967.886 66.3464 968.78 66.8264C969.673 67.293 970.373 67.9397 970.88 68.7664C971.386 69.593 971.64 70.553 971.64 71.6464C971.64 72.713 971.386 73.6664 970.88 74.5064C970.373 75.333 969.673 75.9864 968.78 76.4664C967.886 76.9464 966.873 77.1864 965.74 77.1864ZM965.74 74.6264C966.26 74.6264 966.726 74.5064 967.14 74.2664C967.553 74.0264 967.88 73.6864 968.12 73.2464C968.36 72.793 968.48 72.2597 968.48 71.6464C968.48 71.0197 968.36 70.4864 968.12 70.0464C967.88 69.6064 967.553 69.2664 967.14 69.0264C966.726 68.7864 966.26 68.6664 965.74 68.6664C965.22 68.6664 964.753 68.7864 964.34 69.0264C963.926 69.2664 963.593 69.6064 963.34 70.0464C963.1 70.4864 962.98 71.0197 962.98 71.6464C962.98 72.2597 963.1 72.793 963.34 73.2464C963.593 73.6864 963.926 74.0264 964.34 74.2664C964.753 74.5064 965.22 74.6264 965.74 74.6264Z" fill="#9999AD"/>
<defs>
<clipPath id="clip0_3313_19175">
<rect width="24" height="24" fill="white" transform="translate(85.333 8)"/>
</clipPath>
<clipPath id="clip1_3313_19175">
<rect width="24" height="24" fill="white" transform="translate(348 8)"/>
</clipPath>
</defs>
</svg>
