<svg width="974" height="83" viewBox="0 0 974 83" fill="none" xmlns="http://www.w3.org/2000/svg">
<rect x="77.5" width="40" height="40" rx="8" fill="#05058C"/>
<g clip-path="url(#clip0_1307_5514)">
<path d="M95.833 23.172L105.025 13.979L106.44 15.393L95.833 26L89.469 19.636L90.883 18.222L95.833 23.172Z" fill="white"/>
</g>
<path d="M2.16 77V63H4.84L13.1 73.08H11.8V63H15V77H12.34L4.06 66.92H5.36V77H2.16ZM22.6323 77.16C21.739 77.16 20.939 76.9867 20.2323 76.64C19.539 76.2933 18.999 75.7667 18.6123 75.06C18.2257 74.34 18.0323 73.4267 18.0323 72.32V66.24H21.1523V71.86C21.1523 72.7533 21.339 73.4133 21.7123 73.84C22.099 74.2533 22.639 74.46 23.3323 74.46C23.8123 74.46 24.239 74.36 24.6123 74.16C24.9857 73.9467 25.279 73.6267 25.4923 73.2C25.7057 72.76 25.8123 72.2133 25.8123 71.56V66.24H28.9323V77H25.9723V74.04L26.5123 74.9C26.1523 75.6467 25.619 76.2133 24.9123 76.6C24.219 76.9733 23.459 77.16 22.6323 77.16ZM37.1628 77.16C35.9361 77.16 34.8561 76.92 33.9228 76.44C33.0028 75.96 32.2895 75.3067 31.7828 74.48C31.2761 73.64 31.0228 72.6867 31.0228 71.62C31.0228 70.54 31.2695 69.5867 31.7628 68.76C32.2695 67.92 32.9561 67.2667 33.8228 66.8C34.6895 66.32 35.6695 66.08 36.7628 66.08C37.8161 66.08 38.7628 66.3067 39.6028 66.76C40.4561 67.2 41.1295 67.84 41.6228 68.68C42.1161 69.5067 42.3628 70.5 42.3628 71.66C42.3628 71.78 42.3561 71.92 42.3428 72.08C42.3295 72.2267 42.3161 72.3667 42.3028 72.5H33.5628V70.68H40.6628L39.4628 71.22C39.4628 70.66 39.3495 70.1733 39.1228 69.76C38.8961 69.3467 38.5828 69.0267 38.1828 68.8C37.7828 68.56 37.3161 68.44 36.7828 68.44C36.2495 68.44 35.7761 68.56 35.3628 68.8C34.9628 69.0267 34.6495 69.3533 34.4228 69.78C34.1961 70.1933 34.0828 70.6867 34.0828 71.26V71.74C34.0828 72.3267 34.2095 72.8467 34.4628 73.3C34.7295 73.74 35.0961 74.08 35.5628 74.32C36.0428 74.5467 36.6028 74.66 37.2428 74.66C37.8161 74.66 38.3161 74.5733 38.7428 74.4C39.1828 74.2267 39.5828 73.9667 39.9428 73.62L41.6028 75.42C41.1095 75.98 40.4895 76.4133 39.7428 76.72C38.9961 77.0133 38.1361 77.16 37.1628 77.16ZM48.06 77.16C47.14 77.16 46.2533 77.0533 45.4 76.84C44.56 76.6133 43.8933 76.3333 43.4 76L44.44 73.76C44.9333 74.0667 45.5133 74.32 46.18 74.52C46.86 74.7067 47.5267 74.8 48.18 74.8C48.9 74.8 49.4067 74.7133 49.7 74.54C50.0067 74.3667 50.16 74.1267 50.16 73.82C50.16 73.5667 50.04 73.38 49.8 73.26C49.5733 73.1267 49.2667 73.0267 48.88 72.96C48.4933 72.8933 48.0667 72.8267 47.6 72.76C47.1467 72.6933 46.6867 72.6067 46.22 72.5C45.7533 72.38 45.3267 72.2067 44.94 71.98C44.5533 71.7533 44.24 71.4467 44 71.06C43.7733 70.6733 43.66 70.1733 43.66 69.56C43.66 68.88 43.8533 68.28 44.24 67.76C44.64 67.24 45.2133 66.8333 45.96 66.54C46.7067 66.2333 47.6 66.08 48.64 66.08C49.3733 66.08 50.12 66.16 50.88 66.32C51.64 66.48 52.2733 66.7133 52.78 67.02L51.74 69.24C51.22 68.9333 50.6933 68.7267 50.16 68.62C49.64 68.5 49.1333 68.44 48.64 68.44C47.9467 68.44 47.44 68.5333 47.12 68.72C46.8 68.9067 46.64 69.1467 46.64 69.44C46.64 69.7067 46.7533 69.9067 46.98 70.04C47.22 70.1733 47.5333 70.28 47.92 70.36C48.3067 70.44 48.7267 70.5133 49.18 70.58C49.6467 70.6333 50.1133 70.72 50.58 70.84C51.0467 70.96 51.4667 71.1333 51.84 71.36C52.2267 71.5733 52.54 71.8733 52.78 72.26C53.02 72.6333 53.14 73.1267 53.14 73.74C53.14 74.4067 52.94 75 52.54 75.52C52.14 76.0267 51.56 76.4267 50.8 76.72C50.0533 77.0133 49.14 77.16 48.06 77.16ZM59.465 77.16C58.1983 77.16 57.2117 76.84 56.505 76.2C55.7983 75.5467 55.445 74.58 55.445 73.3V63.86H58.565V73.26C58.565 73.7133 58.685 74.0667 58.925 74.32C59.165 74.56 59.4917 74.68 59.905 74.68C60.3983 74.68 60.8183 74.5467 61.165 74.28L62.005 76.48C61.685 76.7067 61.2983 76.88 60.845 77C60.405 77.1067 59.945 77.16 59.465 77.16ZM53.785 68.88V66.48H61.245V68.88H53.785ZM63.7564 77V66.24H66.7364V69.28L66.3164 68.4C66.6364 67.64 67.1497 67.0667 67.8564 66.68C68.5631 66.28 69.4231 66.08 70.4364 66.08V68.96C70.3031 68.9467 70.1831 68.94 70.0764 68.94C69.9697 68.9267 69.8564 68.92 69.7364 68.92C68.8831 68.92 68.1897 69.1667 67.6564 69.66C67.1364 70.14 66.8764 70.8933 66.8764 71.92V77H63.7564ZM77.3334 77.16C76.1868 77.16 75.1668 76.92 74.2734 76.44C73.3934 75.96 72.6934 75.3067 72.1734 74.48C71.6668 73.64 71.4134 72.6867 71.4134 71.62C71.4134 70.54 71.6668 69.5867 72.1734 68.76C72.6934 67.92 73.3934 67.2667 74.2734 66.8C75.1668 66.32 76.1868 66.08 77.3334 66.08C78.4668 66.08 79.4801 66.32 80.3734 66.8C81.2668 67.2667 81.9668 67.9133 82.4734 68.74C82.9801 69.5667 83.2334 70.5267 83.2334 71.62C83.2334 72.6867 82.9801 73.64 82.4734 74.48C81.9668 75.3067 81.2668 75.96 80.3734 76.44C79.4801 76.92 78.4668 77.16 77.3334 77.16ZM77.3334 74.6C77.8534 74.6 78.3201 74.48 78.7334 74.24C79.1468 74 79.4734 73.66 79.7134 73.22C79.9534 72.7667 80.0734 72.2333 80.0734 71.62C80.0734 70.9933 79.9534 70.46 79.7134 70.02C79.4734 69.58 79.1468 69.24 78.7334 69C78.3201 68.76 77.8534 68.64 77.3334 68.64C76.8134 68.64 76.3468 68.76 75.9334 69C75.5201 69.24 75.1868 69.58 74.9334 70.02C74.6934 70.46 74.5734 70.9933 74.5734 71.62C74.5734 72.2333 74.6934 72.7667 74.9334 73.22C75.1868 73.66 75.5201 74 75.9334 74.24C76.3468 74.48 76.8134 74.6 77.3334 74.6ZM88.9389 77.16C88.0189 77.16 87.1322 77.0533 86.2789 76.84C85.4389 76.6133 84.7722 76.3333 84.2789 76L85.3189 73.76C85.8122 74.0667 86.3922 74.32 87.0589 74.52C87.7389 74.7067 88.4056 74.8 89.0589 74.8C89.7789 74.8 90.2856 74.7133 90.5789 74.54C90.8856 74.3667 91.0389 74.1267 91.0389 73.82C91.0389 73.5667 90.9189 73.38 90.6789 73.26C90.4522 73.1267 90.1456 73.0267 89.7589 72.96C89.3722 72.8933 88.9456 72.8267 88.4789 72.76C88.0256 72.6933 87.5656 72.6067 87.0989 72.5C86.6322 72.38 86.2056 72.2067 85.8189 71.98C85.4322 71.7533 85.1189 71.4467 84.8789 71.06C84.6522 70.6733 84.5389 70.1733 84.5389 69.56C84.5389 68.88 84.7322 68.28 85.1189 67.76C85.5189 67.24 86.0922 66.8333 86.8389 66.54C87.5856 66.2333 88.4789 66.08 89.5189 66.08C90.2522 66.08 90.9989 66.16 91.7589 66.32C92.5189 66.48 93.1522 66.7133 93.6589 67.02L92.6189 69.24C92.0989 68.9333 91.5722 68.7267 91.0389 68.62C90.5189 68.5 90.0122 68.44 89.5189 68.44C88.8256 68.44 88.3189 68.5333 87.9989 68.72C87.6789 68.9067 87.5189 69.1467 87.5189 69.44C87.5189 69.7067 87.6322 69.9067 87.8589 70.04C88.0989 70.1733 88.4122 70.28 88.7989 70.36C89.1856 70.44 89.6056 70.5133 90.0589 70.58C90.5256 70.6333 90.9922 70.72 91.4589 70.84C91.9256 70.96 92.3456 71.1333 92.7189 71.36C93.1056 71.5733 93.4189 71.8733 93.6589 72.26C93.8989 72.6333 94.0189 73.1267 94.0189 73.74C94.0189 74.4067 93.8189 75 93.4189 75.52C93.0189 76.0267 92.4389 76.4267 91.6789 76.72C90.9322 77.0133 90.0189 77.16 88.9389 77.16ZM106.428 77.24C105.308 77.24 104.235 77.0933 103.208 76.8C102.181 76.4933 101.355 76.1 100.728 75.62L101.828 73.18C102.428 73.6067 103.135 73.96 103.948 74.24C104.775 74.5067 105.608 74.64 106.448 74.64C107.088 74.64 107.601 74.58 107.988 74.46C108.388 74.3267 108.681 74.1467 108.868 73.92C109.055 73.6933 109.148 73.4333 109.148 73.14C109.148 72.7667 109.001 72.4733 108.708 72.26C108.415 72.0333 108.028 71.8533 107.548 71.72C107.068 71.5733 106.535 71.44 105.948 71.32C105.375 71.1867 104.795 71.0267 104.208 70.84C103.635 70.6533 103.108 70.4133 102.628 70.12C102.148 69.8267 101.755 69.44 101.448 68.96C101.155 68.48 101.008 67.8667 101.008 67.12C101.008 66.32 101.221 65.5933 101.648 64.94C102.088 64.2733 102.741 63.7467 103.608 63.36C104.488 62.96 105.588 62.76 106.908 62.76C107.788 62.76 108.655 62.8667 109.508 63.08C110.361 63.28 111.115 63.5867 111.768 64L110.768 66.46C110.115 66.0867 109.461 65.8133 108.808 65.64C108.155 65.4533 107.515 65.36 106.888 65.36C106.261 65.36 105.748 65.4333 105.348 65.58C104.948 65.7267 104.661 65.92 104.488 66.16C104.315 66.3867 104.228 66.6533 104.228 66.96C104.228 67.32 104.375 67.6133 104.668 67.84C104.961 68.0533 105.348 68.2267 105.828 68.36C106.308 68.4933 106.835 68.6267 107.408 68.76C107.995 68.8933 108.575 69.0467 109.148 69.22C109.735 69.3933 110.268 69.6267 110.748 69.92C111.228 70.2133 111.615 70.6 111.908 71.08C112.215 71.56 112.368 72.1667 112.368 72.9C112.368 73.6867 112.148 74.4067 111.708 75.06C111.268 75.7133 110.608 76.24 109.728 76.64C108.861 77.04 107.761 77.24 106.428 77.24ZM119.702 77.16C118.475 77.16 117.395 76.92 116.462 76.44C115.542 75.96 114.829 75.3067 114.322 74.48C113.815 73.64 113.562 72.6867 113.562 71.62C113.562 70.54 113.809 69.5867 114.302 68.76C114.809 67.92 115.495 67.2667 116.362 66.8C117.229 66.32 118.209 66.08 119.302 66.08C120.355 66.08 121.302 66.3067 122.142 66.76C122.995 67.2 123.669 67.84 124.162 68.68C124.655 69.5067 124.902 70.5 124.902 71.66C124.902 71.78 124.895 71.92 124.882 72.08C124.869 72.2267 124.855 72.3667 124.842 72.5H116.102V70.68H123.202L122.002 71.22C122.002 70.66 121.889 70.1733 121.662 69.76C121.435 69.3467 121.122 69.0267 120.722 68.8C120.322 68.56 119.855 68.44 119.322 68.44C118.789 68.44 118.315 68.56 117.902 68.8C117.502 69.0267 117.189 69.3533 116.962 69.78C116.735 70.1933 116.622 70.6867 116.622 71.26V71.74C116.622 72.3267 116.749 72.8467 117.002 73.3C117.269 73.74 117.635 74.08 118.102 74.32C118.582 74.5467 119.142 74.66 119.782 74.66C120.355 74.66 120.855 74.5733 121.282 74.4C121.722 74.2267 122.122 73.9667 122.482 73.62L124.142 75.42C123.649 75.98 123.029 76.4133 122.282 76.72C121.535 77.0133 120.675 77.16 119.702 77.16ZM126.979 77V66.24H129.959V69.28L129.539 68.4C129.859 67.64 130.372 67.0667 131.079 66.68C131.786 66.28 132.646 66.08 133.659 66.08V68.96C133.526 68.9467 133.406 68.94 133.299 68.94C133.192 68.9267 133.079 68.92 132.959 68.92C132.106 68.92 131.412 69.1667 130.879 69.66C130.359 70.14 130.099 70.8933 130.099 71.92V77H126.979ZM138.805 77L134.285 66.24H137.505L141.265 75.5H139.665L143.565 66.24H146.565L142.025 77H138.805ZM147.838 77V66.24H150.958V77H147.838ZM149.398 64.74C148.825 64.74 148.358 64.5733 147.998 64.24C147.638 63.9067 147.458 63.4933 147.458 63C147.458 62.5067 147.638 62.0933 147.998 61.76C148.358 61.4267 148.825 61.26 149.398 61.26C149.972 61.26 150.438 61.42 150.798 61.74C151.158 62.0467 151.338 62.4467 151.338 62.94C151.338 63.46 151.158 63.8933 150.798 64.24C150.452 64.5733 149.985 64.74 149.398 64.74ZM159.054 77.16C157.894 77.16 156.861 76.9267 155.954 76.46C155.047 75.98 154.334 75.32 153.814 74.48C153.307 73.64 153.054 72.6867 153.054 71.62C153.054 70.54 153.307 69.5867 153.814 68.76C154.334 67.92 155.047 67.2667 155.954 66.8C156.861 66.32 157.894 66.08 159.054 66.08C160.187 66.08 161.174 66.32 162.014 66.8C162.854 67.2667 163.474 67.94 163.874 68.82L161.454 70.12C161.174 69.6133 160.821 69.24 160.394 69C159.981 68.76 159.527 68.64 159.034 68.64C158.501 68.64 158.021 68.76 157.594 69C157.167 69.24 156.827 69.58 156.574 70.02C156.334 70.46 156.214 70.9933 156.214 71.62C156.214 72.2467 156.334 72.78 156.574 73.22C156.827 73.66 157.167 74 157.594 74.24C158.021 74.48 158.501 74.6 159.034 74.6C159.527 74.6 159.981 74.4867 160.394 74.26C160.821 74.02 161.174 73.64 161.454 73.12L163.874 74.44C163.474 75.3067 162.854 75.98 162.014 76.46C161.174 76.9267 160.187 77.16 159.054 77.16ZM165.612 77V66.24H168.732V77H165.612ZM167.172 64.74C166.599 64.74 166.132 64.5733 165.772 64.24C165.412 63.9067 165.232 63.4933 165.232 63C165.232 62.5067 165.412 62.0933 165.772 61.76C166.132 61.4267 166.599 61.26 167.172 61.26C167.745 61.26 168.212 61.42 168.572 61.74C168.932 62.0467 169.112 62.4467 169.112 62.94C169.112 63.46 168.932 63.8933 168.572 64.24C168.225 64.5733 167.759 64.74 167.172 64.74ZM176.748 77.16C175.601 77.16 174.581 76.92 173.688 76.44C172.808 75.96 172.108 75.3067 171.588 74.48C171.081 73.64 170.828 72.6867 170.828 71.62C170.828 70.54 171.081 69.5867 171.588 68.76C172.108 67.92 172.808 67.2667 173.688 66.8C174.581 66.32 175.601 66.08 176.748 66.08C177.881 66.08 178.894 66.32 179.788 66.8C180.681 67.2667 181.381 67.9133 181.888 68.74C182.394 69.5667 182.648 70.5267 182.648 71.62C182.648 72.6867 182.394 73.64 181.888 74.48C181.381 75.3067 180.681 75.96 179.788 76.44C178.894 76.92 177.881 77.16 176.748 77.16ZM176.748 74.6C177.268 74.6 177.734 74.48 178.148 74.24C178.561 74 178.888 73.66 179.128 73.22C179.368 72.7667 179.488 72.2333 179.488 71.62C179.488 70.9933 179.368 70.46 179.128 70.02C178.888 69.58 178.561 69.24 178.148 69C177.734 68.76 177.268 68.64 176.748 68.64C176.228 68.64 175.761 68.76 175.348 69C174.934 69.24 174.601 69.58 174.348 70.02C174.108 70.46 173.988 70.9933 173.988 71.62C173.988 72.2333 174.108 72.7667 174.348 73.22C174.601 73.66 174.934 74 175.348 74.24C175.761 74.48 176.228 74.6 176.748 74.6ZM188.353 77.16C187.433 77.16 186.546 77.0533 185.693 76.84C184.853 76.6133 184.186 76.3333 183.693 76L184.733 73.76C185.226 74.0667 185.806 74.32 186.473 74.52C187.153 74.7067 187.82 74.8 188.473 74.8C189.193 74.8 189.7 74.7133 189.993 74.54C190.3 74.3667 190.453 74.1267 190.453 73.82C190.453 73.5667 190.333 73.38 190.093 73.26C189.866 73.1267 189.56 73.0267 189.173 72.96C188.786 72.8933 188.36 72.8267 187.893 72.76C187.44 72.6933 186.98 72.6067 186.513 72.5C186.046 72.38 185.62 72.2067 185.233 71.98C184.846 71.7533 184.533 71.4467 184.293 71.06C184.066 70.6733 183.953 70.1733 183.953 69.56C183.953 68.88 184.146 68.28 184.533 67.76C184.933 67.24 185.506 66.8333 186.253 66.54C187 66.2333 187.893 66.08 188.933 66.08C189.666 66.08 190.413 66.16 191.173 66.32C191.933 66.48 192.566 66.7133 193.073 67.02L192.033 69.24C191.513 68.9333 190.986 68.7267 190.453 68.62C189.933 68.5 189.426 68.44 188.933 68.44C188.24 68.44 187.733 68.5333 187.413 68.72C187.093 68.9067 186.933 69.1467 186.933 69.44C186.933 69.7067 187.046 69.9067 187.273 70.04C187.513 70.1733 187.826 70.28 188.213 70.36C188.6 70.44 189.02 70.5133 189.473 70.58C189.94 70.6333 190.406 70.72 190.873 70.84C191.34 70.96 191.76 71.1333 192.133 71.36C192.52 71.5733 192.833 71.8733 193.073 72.26C193.313 72.6333 193.433 73.1267 193.433 73.74C193.433 74.4067 193.233 75 192.833 75.52C192.433 76.0267 191.853 76.4267 191.093 76.72C190.346 77.0133 189.433 77.16 188.353 77.16Z" fill="#05058C"/>
<line x1="232.5" y1="19.5" x2="154.5" y2="19.5" stroke="#05058C"/>
<line x1="310.5" y1="19.5" x2="232.5" y2="19.5" stroke="#9999AD"/>
<rect x="341" width="40" height="40" rx="8" fill="#CCCCD6"/>
<path d="M360.355 24.3491L363.569 21.3025C365.525 19.4784 365.903 18.2377 365.9 16.8777C365.895 14.3377 363.811 12.7419 360.691 12.7483C358.171 12.7535 356.213 13.7775 355.137 15.3597L357.5 16.8749C358.178 15.9335 359.197 15.4714 360.397 15.469C361.877 15.4659 362.638 16.1044 362.64 17.2044C362.642 17.8844 362.423 18.6048 361.186 19.7873L355.796 24.8984L355.801 26.9984L366.38 26.9767L366.375 24.3367L360.355 24.3491Z" fill="#9999AD"/>
<path d="M272.16 77H278.52C283.1 77 286.24 74.24 286.24 70C286.24 65.76 283.1 63 278.52 63H272.16V77ZM275.4 74.34V65.66H278.36C281.14 65.66 282.96 67.32 282.96 70C282.96 72.68 281.14 74.34 278.36 74.34H275.4ZM292.803 66.08C291.083 66.08 289.343 66.54 288.163 67.38L289.283 69.56C290.063 68.94 291.243 68.56 292.383 68.56C294.063 68.56 294.863 69.34 294.863 70.68H292.383C289.103 70.68 287.763 72 287.763 73.9C287.763 75.76 289.263 77.16 291.783 77.16C293.363 77.16 294.483 76.64 295.063 75.66V77H297.983V70.86C297.983 67.6 296.083 66.08 292.803 66.08ZM292.563 75.06C291.463 75.06 290.803 74.54 290.803 73.76C290.803 73.04 291.263 72.5 292.723 72.5H294.863V73.6C294.503 74.58 293.603 75.06 292.563 75.06ZM306.907 74.28C306.567 74.54 306.107 74.68 305.647 74.68C304.807 74.68 304.307 74.18 304.307 73.26V68.88H306.987V66.48H304.307V63.86H301.187V66.48H299.527V68.88H301.187V73.3C301.187 75.86 302.667 77.16 305.207 77.16C306.167 77.16 307.107 76.94 307.747 76.48L306.907 74.28ZM314.287 77.16C317.707 77.16 320.187 74.86 320.187 71.62C320.187 68.38 317.707 66.08 314.287 66.08C310.867 66.08 308.367 68.38 308.367 71.62C308.367 74.86 310.867 77.16 314.287 77.16ZM314.287 74.6C312.727 74.6 311.527 73.48 311.527 71.62C311.527 69.76 312.727 68.64 314.287 68.64C315.847 68.64 317.027 69.76 317.027 71.62C317.027 73.48 315.847 74.6 314.287 74.6ZM325.892 77.16C329.112 77.16 330.972 75.74 330.972 73.74C330.972 69.5 324.472 71.28 324.472 69.44C324.472 68.88 325.072 68.44 326.472 68.44C327.452 68.44 328.512 68.64 329.572 69.24L330.612 67.02C329.592 66.42 327.952 66.08 326.472 66.08C323.332 66.08 321.492 67.52 321.492 69.56C321.492 73.86 327.992 72.06 327.992 73.82C327.992 74.42 327.452 74.8 326.012 74.8C324.692 74.8 323.232 74.38 322.272 73.76L321.232 76C322.232 76.66 324.072 77.16 325.892 77.16ZM344.921 66.08C343.481 66.08 342.321 66.54 341.541 67.48V66.24H338.561V80.88H341.681V75.86C342.481 76.74 343.581 77.16 344.921 77.16C347.941 77.16 350.281 75 350.281 71.62C350.281 68.24 347.941 66.08 344.921 66.08ZM344.381 74.6C342.821 74.6 341.641 73.48 341.641 71.62C341.641 69.76 342.821 68.64 344.381 68.64C345.941 68.64 347.121 69.76 347.121 71.62C347.121 73.48 345.941 74.6 344.381 74.6ZM362.91 71.66C362.91 68.2 360.47 66.08 357.31 66.08C354.03 66.08 351.57 68.4 351.57 71.62C351.57 74.82 353.99 77.16 357.71 77.16C359.65 77.16 361.15 76.56 362.15 75.42L360.49 73.62C359.75 74.32 358.93 74.66 357.79 74.66C356.15 74.66 355.01 73.84 354.71 72.5H362.85C362.87 72.24 362.91 71.9 362.91 71.66ZM357.33 68.44C358.73 68.44 359.75 69.32 359.97 70.68H354.67C354.89 69.3 355.91 68.44 357.33 68.44ZM367.967 67.66V66.24H364.987V77H368.107V71.92C368.107 69.86 369.247 68.92 370.967 68.92C371.207 68.92 371.407 68.94 371.667 68.96V66.08C370.007 66.08 368.727 66.62 367.967 67.66ZM377.181 77.16C380.401 77.16 382.261 75.74 382.261 73.74C382.261 69.5 375.761 71.28 375.761 69.44C375.761 68.88 376.361 68.44 377.761 68.44C378.741 68.44 379.801 68.64 380.861 69.24L381.901 67.02C380.881 66.42 379.241 66.08 377.761 66.08C374.621 66.08 372.781 67.52 372.781 69.56C372.781 73.86 379.281 72.06 379.281 73.82C379.281 74.42 378.741 74.8 377.301 74.8C375.981 74.8 374.521 74.38 373.561 73.76L372.521 76C373.521 76.66 375.361 77.16 377.181 77.16ZM389.306 77.16C392.726 77.16 395.206 74.86 395.206 71.62C395.206 68.38 392.726 66.08 389.306 66.08C385.886 66.08 383.386 68.38 383.386 71.62C383.386 74.86 385.886 77.16 389.306 77.16ZM389.306 74.6C387.746 74.6 386.546 73.48 386.546 71.62C386.546 69.76 387.746 68.64 389.306 68.64C390.866 68.64 392.046 69.76 392.046 71.62C392.046 73.48 390.866 74.6 389.306 74.6ZM403.832 66.08C402.372 66.08 401.112 66.58 400.272 67.5V66.24H397.292V77H400.412V71.68C400.412 69.7 401.492 68.78 402.992 68.78C404.372 68.78 405.172 69.58 405.172 71.32V77H408.292V70.84C408.292 67.56 406.372 66.08 403.832 66.08ZM415.46 66.08C413.74 66.08 412 66.54 410.82 67.38L411.94 69.56C412.72 68.94 413.9 68.56 415.04 68.56C416.72 68.56 417.52 69.34 417.52 70.68H415.04C411.76 70.68 410.42 72 410.42 73.9C410.42 75.76 411.92 77.16 414.44 77.16C416.02 77.16 417.14 76.64 417.72 75.66V77H420.64V70.86C420.64 67.6 418.74 66.08 415.46 66.08ZM415.22 75.06C414.12 75.06 413.46 74.54 413.46 73.76C413.46 73.04 413.92 72.5 415.38 72.5H417.52V73.6C417.16 74.58 416.26 75.06 415.22 75.06ZM423.463 77H426.583V62.16H423.463V77ZM440.019 71.66C440.019 68.2 437.579 66.08 434.419 66.08C431.139 66.08 428.679 68.4 428.679 71.62C428.679 74.82 431.099 77.16 434.819 77.16C436.759 77.16 438.259 76.56 439.259 75.42L437.599 73.62C436.859 74.32 436.039 74.66 434.899 74.66C433.259 74.66 432.119 73.84 431.819 72.5H439.959C439.979 72.24 440.019 71.9 440.019 71.66ZM434.439 68.44C435.839 68.44 436.859 69.32 437.079 70.68H431.779C431.999 69.3 433.019 68.44 434.439 68.44ZM445.716 77.16C448.936 77.16 450.796 75.74 450.796 73.74C450.796 69.5 444.296 71.28 444.296 69.44C444.296 68.88 444.896 68.44 446.296 68.44C447.276 68.44 448.336 68.64 449.396 69.24L450.436 67.02C449.416 66.42 447.776 66.08 446.296 66.08C443.156 66.08 441.316 67.52 441.316 69.56C441.316 73.86 447.816 72.06 447.816 73.82C447.816 74.42 447.276 74.8 445.836 74.8C444.516 74.8 443.056 74.38 442.096 73.76L441.056 76C442.056 76.66 443.896 77.16 445.716 77.16Z" fill="#9999AD"/>
<line x1="489.5" y1="19.5" x2="411.5" y2="19.5" stroke="#9999AD"/>
<line x1="567.5" y1="19.5" x2="489.5" y2="19.5" stroke="#9999AD"/>
<rect x="598.5" width="40" height="40" rx="8" fill="#CCCCD6"/>
<path d="M618.274 27.2445C617.301 27.2465 616.334 27.1218 615.374 26.8705C614.413 26.6058 613.599 26.2341 612.931 25.7555L614.186 23.2729C614.72 23.6585 615.341 23.9639 616.048 24.1891C616.755 24.4143 617.469 24.5262 618.189 24.5247C619.002 24.523 619.642 24.3617 620.108 24.0407C620.574 23.7198 620.806 23.2793 620.805 22.7193C620.804 22.186 620.597 21.7664 620.183 21.4606C619.769 21.1548 619.102 21.0028 618.182 21.0047L616.702 21.0077L616.697 18.8677L620.588 14.4397L620.951 15.599L613.611 15.614L613.605 13.0141L623.405 12.994L623.41 15.094L619.539 19.5219L617.897 18.5853L618.837 18.5833C620.557 18.5798 621.857 18.9638 622.739 19.7353C623.621 20.5069 624.063 21.4993 624.065 22.7126C624.067 23.4993 623.862 24.2397 623.45 24.9339C623.038 25.6147 622.406 26.1694 621.553 26.5978C620.701 27.0262 619.608 27.2418 618.274 27.2445Z" fill="#9999AD"/>
<path d="M533.823 75.24C532.703 75.24 531.629 75.0933 530.603 74.8C529.576 74.4933 528.749 74.1 528.123 73.62L529.223 71.18C529.823 71.6067 530.529 71.96 531.343 72.24C532.169 72.5067 533.003 72.64 533.843 72.64C534.483 72.64 534.996 72.58 535.383 72.46C535.783 72.3267 536.076 72.1467 536.263 71.92C536.449 71.6933 536.543 71.4333 536.543 71.14C536.543 70.7667 536.396 70.4733 536.103 70.26C535.809 70.0333 535.423 69.8533 534.943 69.72C534.463 69.5733 533.929 69.44 533.343 69.32C532.769 69.1867 532.189 69.0267 531.603 68.84C531.029 68.6533 530.503 68.4133 530.023 68.12C529.543 67.8267 529.149 67.44 528.843 66.96C528.549 66.48 528.403 65.8667 528.403 65.12C528.403 64.32 528.616 63.5933 529.043 62.94C529.483 62.2733 530.136 61.7467 531.003 61.36C531.883 60.96 532.983 60.76 534.303 60.76C535.183 60.76 536.049 60.8667 536.903 61.08C537.756 61.28 538.509 61.5867 539.163 62L538.163 64.46C537.509 64.0867 536.856 63.8133 536.203 63.64C535.549 63.4533 534.909 63.36 534.283 63.36C533.656 63.36 533.143 63.4333 532.743 63.58C532.343 63.7267 532.056 63.92 531.883 64.16C531.709 64.3867 531.623 64.6533 531.623 64.96C531.623 65.32 531.769 65.6133 532.063 65.84C532.356 66.0533 532.743 66.2267 533.223 66.36C533.703 66.4933 534.229 66.6267 534.803 66.76C535.389 66.8933 535.969 67.0467 536.543 67.22C537.129 67.3933 537.663 67.6267 538.143 67.92C538.623 68.2133 539.009 68.6 539.303 69.08C539.609 69.56 539.763 70.1667 539.763 70.9C539.763 71.6867 539.543 72.4067 539.103 73.06C538.663 73.7133 538.003 74.24 537.123 74.64C536.256 75.04 535.156 75.24 533.823 75.24ZM546.876 75.16C545.73 75.16 544.71 74.92 543.816 74.44C542.936 73.96 542.236 73.3067 541.716 72.48C541.21 71.64 540.956 70.6867 540.956 69.62C540.956 68.54 541.21 67.5867 541.716 66.76C542.236 65.92 542.936 65.2667 543.816 64.8C544.71 64.32 545.73 64.08 546.876 64.08C548.01 64.08 549.023 64.32 549.916 64.8C550.81 65.2667 551.51 65.9133 552.016 66.74C552.523 67.5667 552.776 68.5267 552.776 69.62C552.776 70.6867 552.523 71.64 552.016 72.48C551.51 73.3067 550.81 73.96 549.916 74.44C549.023 74.92 548.01 75.16 546.876 75.16ZM546.876 72.6C547.396 72.6 547.863 72.48 548.276 72.24C548.69 72 549.016 71.66 549.256 71.22C549.496 70.7667 549.616 70.2333 549.616 69.62C549.616 68.9933 549.496 68.46 549.256 68.02C549.016 67.58 548.69 67.24 548.276 67C547.863 66.76 547.396 66.64 546.876 66.64C546.356 66.64 545.89 66.76 545.476 67C545.063 67.24 544.73 67.58 544.476 68.02C544.236 68.46 544.116 68.9933 544.116 69.62C544.116 70.2333 544.236 70.7667 544.476 71.22C544.73 71.66 545.063 72 545.476 72.24C545.89 72.48 546.356 72.6 546.876 72.6ZM561.222 75.16C560.275 75.16 559.462 74.96 558.782 74.56C558.102 74.16 557.582 73.5533 557.222 72.74C556.862 71.9133 556.682 70.8733 556.682 69.62C556.682 68.3533 556.869 67.3133 557.242 66.5C557.629 65.6867 558.162 65.08 558.842 64.68C559.522 64.28 560.315 64.08 561.222 64.08C562.235 64.08 563.142 64.3067 563.942 64.76C564.755 65.2133 565.395 65.8533 565.862 66.68C566.342 67.5067 566.582 68.4867 566.582 69.62C566.582 70.74 566.342 71.7133 565.862 72.54C565.395 73.3667 564.755 74.0133 563.942 74.48C563.142 74.9333 562.235 75.16 561.222 75.16ZM554.862 75V60.16H557.982V66.42L557.782 69.6L557.842 72.8V75H554.862ZM560.682 72.6C561.202 72.6 561.662 72.48 562.062 72.24C562.475 72 562.802 71.66 563.042 71.22C563.295 70.7667 563.422 70.2333 563.422 69.62C563.422 68.9933 563.295 68.46 563.042 68.02C562.802 67.58 562.475 67.24 562.062 67C561.662 66.76 561.202 66.64 560.682 66.64C560.162 66.64 559.695 66.76 559.282 67C558.869 67.24 558.542 67.58 558.302 68.02C558.062 68.46 557.942 68.9933 557.942 69.62C557.942 70.2333 558.062 70.7667 558.302 71.22C558.542 71.66 558.869 72 559.282 72.24C559.695 72.48 560.162 72.6 560.682 72.6ZM568.67 75V64.24H571.65V67.28L571.23 66.4C571.55 65.64 572.064 65.0667 572.77 64.68C573.477 64.28 574.337 64.08 575.35 64.08V66.96C575.217 66.9467 575.097 66.94 574.99 66.94C574.884 66.9267 574.77 66.92 574.65 66.92C573.797 66.92 573.104 67.1667 572.57 67.66C572.05 68.14 571.79 68.8933 571.79 69.92V75H568.67ZM582.468 75.16C581.241 75.16 580.161 74.92 579.228 74.44C578.308 73.96 577.594 73.3067 577.088 72.48C576.581 71.64 576.328 70.6867 576.328 69.62C576.328 68.54 576.574 67.5867 577.068 66.76C577.574 65.92 578.261 65.2667 579.128 64.8C579.994 64.32 580.974 64.08 582.068 64.08C583.121 64.08 584.068 64.3067 584.908 64.76C585.761 65.2 586.434 65.84 586.928 66.68C587.421 67.5067 587.668 68.5 587.668 69.66C587.668 69.78 587.661 69.92 587.648 70.08C587.634 70.2267 587.621 70.3667 587.608 70.5H578.868V68.68H585.967L584.768 69.22C584.768 68.66 584.654 68.1733 584.428 67.76C584.201 67.3467 583.888 67.0267 583.488 66.8C583.088 66.56 582.621 66.44 582.088 66.44C581.554 66.44 581.081 66.56 580.668 66.8C580.268 67.0267 579.954 67.3533 579.728 67.78C579.501 68.1933 579.388 68.6867 579.388 69.26V69.74C579.388 70.3267 579.514 70.8467 579.768 71.3C580.034 71.74 580.401 72.08 580.868 72.32C581.348 72.5467 581.908 72.66 582.548 72.66C583.121 72.66 583.621 72.5733 584.048 72.4C584.488 72.2267 584.888 71.9667 585.248 71.62L586.908 73.42C586.414 73.98 585.794 74.4133 585.048 74.72C584.301 75.0133 583.441 75.16 582.468 75.16ZM595.409 75V60.16H598.529V75H595.409ZM608.024 75V72.9L607.824 72.44V68.68C607.824 68.0133 607.618 67.4933 607.204 67.12C606.804 66.7467 606.184 66.56 605.344 66.56C604.771 66.56 604.204 66.6533 603.644 66.84C603.098 67.0133 602.631 67.2533 602.244 67.56L601.124 65.38C601.711 64.9667 602.418 64.6467 603.244 64.42C604.071 64.1933 604.911 64.08 605.764 64.08C607.404 64.08 608.678 64.4667 609.584 65.24C610.491 66.0133 610.944 67.22 610.944 68.86V75H608.024ZM604.744 75.16C603.904 75.16 603.184 75.02 602.584 74.74C601.984 74.4467 601.524 74.0533 601.204 73.56C600.884 73.0667 600.724 72.5133 600.724 71.9C600.724 71.26 600.878 70.7 601.184 70.22C601.504 69.74 602.004 69.3667 602.684 69.1C603.364 68.82 604.251 68.68 605.344 68.68H608.204V70.5H605.684C604.951 70.5 604.444 70.62 604.164 70.86C603.898 71.1 603.764 71.4 603.764 71.76C603.764 72.16 603.918 72.48 604.224 72.72C604.544 72.9467 604.978 73.06 605.524 73.06C606.044 73.06 606.511 72.94 606.924 72.7C607.338 72.4467 607.638 72.08 607.824 71.6L608.304 73.04C608.078 73.7333 607.664 74.26 607.064 74.62C606.464 74.98 605.691 75.16 604.744 75.16ZM624.772 75.16C623.546 75.16 622.466 74.92 621.532 74.44C620.612 73.96 619.899 73.3067 619.392 72.48C618.886 71.64 618.632 70.6867 618.632 69.62C618.632 68.54 618.879 67.5867 619.372 66.76C619.879 65.92 620.566 65.2667 621.432 64.8C622.299 64.32 623.279 64.08 624.372 64.08C625.426 64.08 626.372 64.3067 627.212 64.76C628.066 65.2 628.739 65.84 629.232 66.68C629.726 67.5067 629.972 68.5 629.972 69.66C629.972 69.78 629.966 69.92 629.952 70.08C629.939 70.2267 629.926 70.3667 629.912 70.5H621.172V68.68H628.272L627.072 69.22C627.072 68.66 626.959 68.1733 626.732 67.76C626.506 67.3467 626.192 67.0267 625.792 66.8C625.392 66.56 624.926 66.44 624.392 66.44C623.859 66.44 623.386 66.56 622.972 66.8C622.572 67.0267 622.259 67.3533 622.032 67.78C621.806 68.1933 621.692 68.6867 621.692 69.26V69.74C621.692 70.3267 621.819 70.8467 622.072 71.3C622.339 71.74 622.706 72.08 623.172 72.32C623.652 72.5467 624.212 72.66 624.852 72.66C625.426 72.66 625.926 72.5733 626.352 72.4C626.792 72.2267 627.192 71.9667 627.552 71.62L629.212 73.42C628.719 73.98 628.099 74.4133 627.352 74.72C626.606 75.0133 625.746 75.16 624.772 75.16ZM645.829 64.08C646.683 64.08 647.436 64.2533 648.089 64.6C648.756 64.9333 649.276 65.4533 649.649 66.16C650.036 66.8533 650.229 67.7467 650.229 68.84V75H647.109V69.32C647.109 68.4533 646.929 67.8133 646.569 67.4C646.209 66.9867 645.703 66.78 645.049 66.78C644.596 66.78 644.189 66.8867 643.829 67.1C643.469 67.3 643.189 67.6067 642.989 68.02C642.789 68.4333 642.689 68.96 642.689 69.6V75H639.569V69.32C639.569 68.4533 639.389 67.8133 639.029 67.4C638.683 66.9867 638.183 66.78 637.529 66.78C637.076 66.78 636.669 66.8867 636.309 67.1C635.949 67.3 635.669 67.6067 635.469 68.02C635.269 68.4333 635.169 68.96 635.169 69.6V75H632.049V64.24H635.029V67.18L634.469 66.32C634.843 65.5867 635.369 65.0333 636.049 64.66C636.743 64.2733 637.529 64.08 638.409 64.08C639.396 64.08 640.256 64.3333 640.989 64.84C641.736 65.3333 642.229 66.0933 642.469 67.12L641.369 66.82C641.729 65.98 642.303 65.3133 643.089 64.82C643.889 64.3267 644.803 64.08 645.829 64.08ZM659.386 75.16C658.479 75.16 657.686 74.96 657.006 74.56C656.326 74.16 655.793 73.5533 655.406 72.74C655.033 71.9133 654.846 70.8733 654.846 69.62C654.846 68.3533 655.026 67.3133 655.386 66.5C655.746 65.6867 656.266 65.08 656.946 64.68C657.626 64.28 658.439 64.08 659.386 64.08C660.399 64.08 661.306 64.3133 662.106 64.78C662.919 65.2333 663.559 65.8733 664.026 66.7C664.506 67.5267 664.746 68.5 664.746 69.62C664.746 70.7533 664.506 71.7333 664.026 72.56C663.559 73.3867 662.919 74.0267 662.106 74.48C661.306 74.9333 660.399 75.16 659.386 75.16ZM653.026 78.88V64.24H656.006V66.44L655.946 69.64L656.146 72.82V78.88H653.026ZM658.846 72.6C659.366 72.6 659.826 72.48 660.226 72.24C660.639 72 660.966 71.66 661.206 71.22C661.459 70.7667 661.586 70.2333 661.586 69.62C661.586 68.9933 661.459 68.46 661.206 68.02C660.966 67.58 660.639 67.24 660.226 67C659.826 66.76 659.366 66.64 658.846 66.64C658.326 66.64 657.859 66.76 657.446 67C657.033 67.24 656.706 67.58 656.466 68.02C656.226 68.46 656.106 68.9933 656.106 69.62C656.106 70.2333 656.226 70.7667 656.466 71.22C656.706 71.66 657.033 72 657.446 72.24C657.859 72.48 658.326 72.6 658.846 72.6ZM666.835 75V64.24H669.815V67.28L669.395 66.4C669.715 65.64 670.228 65.0667 670.935 64.68C671.641 64.28 672.501 64.08 673.515 64.08V66.96C673.381 66.9467 673.261 66.94 673.155 66.94C673.048 66.9267 672.935 66.92 672.815 66.92C671.961 66.92 671.268 67.1667 670.735 67.66C670.215 68.14 669.955 68.8933 669.955 69.92V75H666.835ZM680.632 75.16C679.405 75.16 678.325 74.92 677.392 74.44C676.472 73.96 675.758 73.3067 675.252 72.48C674.745 71.64 674.492 70.6867 674.492 69.62C674.492 68.54 674.738 67.5867 675.232 66.76C675.738 65.92 676.425 65.2667 677.292 64.8C678.158 64.32 679.138 64.08 680.232 64.08C681.285 64.08 682.232 64.3067 683.072 64.76C683.925 65.2 684.598 65.84 685.092 66.68C685.585 67.5067 685.832 68.5 685.832 69.66C685.832 69.78 685.825 69.92 685.812 70.08C685.798 70.2267 685.785 70.3667 685.772 70.5H677.032V68.68H684.132L682.932 69.22C682.932 68.66 682.818 68.1733 682.592 67.76C682.365 67.3467 682.052 67.0267 681.652 66.8C681.252 66.56 680.785 66.44 680.252 66.44C679.718 66.44 679.245 66.56 678.832 66.8C678.432 67.0267 678.118 67.3533 677.892 67.78C677.665 68.1933 677.552 68.6867 677.552 69.26V69.74C677.552 70.3267 677.678 70.8467 677.932 71.3C678.198 71.74 678.565 72.08 679.032 72.32C679.512 72.5467 680.072 72.66 680.712 72.66C681.285 72.66 681.785 72.5733 682.212 72.4C682.652 72.2267 683.052 71.9667 683.412 71.62L685.072 73.42C684.578 73.98 683.958 74.4133 683.212 74.72C682.465 75.0133 681.605 75.16 680.632 75.16ZM691.529 75.16C690.609 75.16 689.722 75.0533 688.869 74.84C688.029 74.6133 687.362 74.3333 686.869 74L687.909 71.76C688.402 72.0667 688.982 72.32 689.649 72.52C690.329 72.7067 690.995 72.8 691.649 72.8C692.369 72.8 692.875 72.7133 693.169 72.54C693.475 72.3667 693.629 72.1267 693.629 71.82C693.629 71.5667 693.509 71.38 693.269 71.26C693.042 71.1267 692.735 71.0267 692.349 70.96C691.962 70.8933 691.535 70.8267 691.069 70.76C690.615 70.6933 690.155 70.6067 689.689 70.5C689.222 70.38 688.795 70.2067 688.409 69.98C688.022 69.7533 687.709 69.4467 687.469 69.06C687.242 68.6733 687.129 68.1733 687.129 67.56C687.129 66.88 687.322 66.28 687.709 65.76C688.109 65.24 688.682 64.8333 689.429 64.54C690.175 64.2333 691.069 64.08 692.109 64.08C692.842 64.08 693.589 64.16 694.349 64.32C695.109 64.48 695.742 64.7133 696.249 65.02L695.209 67.24C694.689 66.9333 694.162 66.7267 693.629 66.62C693.109 66.5 692.602 66.44 692.109 66.44C691.415 66.44 690.909 66.5333 690.589 66.72C690.269 66.9067 690.109 67.1467 690.109 67.44C690.109 67.7067 690.222 67.9067 690.449 68.04C690.689 68.1733 691.002 68.28 691.389 68.36C691.775 68.44 692.195 68.5133 692.649 68.58C693.115 68.6333 693.582 68.72 694.049 68.84C694.515 68.96 694.935 69.1333 695.309 69.36C695.695 69.5733 696.009 69.8733 696.249 70.26C696.489 70.6333 696.609 71.1267 696.609 71.74C696.609 72.4067 696.409 73 696.009 73.52C695.609 74.0267 695.029 74.4267 694.269 74.72C693.522 75.0133 692.609 75.16 691.529 75.16ZM705.134 75V72.9L704.934 72.44V68.68C704.934 68.0133 704.727 67.4933 704.314 67.12C703.914 66.7467 703.294 66.56 702.454 66.56C701.88 66.56 701.314 66.6533 700.754 66.84C700.207 67.0133 699.74 67.2533 699.354 67.56L698.234 65.38C698.82 64.9667 699.527 64.6467 700.354 64.42C701.18 64.1933 702.02 64.08 702.874 64.08C704.514 64.08 705.787 64.4667 706.694 65.24C707.6 66.0133 708.054 67.22 708.054 68.86V75H705.134ZM701.854 75.16C701.014 75.16 700.294 75.02 699.694 74.74C699.094 74.4467 698.634 74.0533 698.314 73.56C697.994 73.0667 697.834 72.5133 697.834 71.9C697.834 71.26 697.987 70.7 698.294 70.22C698.614 69.74 699.114 69.3667 699.794 69.1C700.474 68.82 701.36 68.68 702.454 68.68H705.314V70.5H702.794C702.06 70.5 701.554 70.62 701.274 70.86C701.007 71.1 700.874 71.4 700.874 71.76C700.874 72.16 701.027 72.48 701.334 72.72C701.654 72.9467 702.087 73.06 702.634 73.06C703.154 73.06 703.62 72.94 704.034 72.7C704.447 72.4467 704.747 72.08 704.934 71.6L705.414 73.04C705.187 73.7333 704.774 74.26 704.174 74.62C703.574 74.98 702.8 75.16 701.854 75.16Z" fill="#9999AD"/>
<line x1="747.5" y1="19.5" x2="669.5" y2="19.5" stroke="#9999AD"/>
<line x1="825.5" y1="19.5" x2="747.5" y2="19.5" stroke="#9999AD"/>
<rect x="859.5" width="40" height="40" rx="8" fill="#CCCCD6"/>
<path d="M886.233 21.4114L883.953 21.4161L883.948 18.7961L880.888 18.8024L880.893 21.4224L877.133 21.4301L883.236 12.9975L879.836 13.0045L873.254 21.898L873.258 24.078L880.798 24.0626L880.804 27.0025L883.964 26.9961L883.958 24.0561L886.238 24.0514L886.233 21.4114Z" fill="#9999AD"/>
<path d="M791.76 77.2673C790.64 77.2673 789.567 77.1207 788.54 76.8273C787.513 76.5207 786.687 76.1273 786.06 75.6473L787.16 73.2073C787.76 73.634 788.467 73.9873 789.28 74.2673C790.107 74.534 790.94 74.6673 791.78 74.6673C792.42 74.6673 792.933 74.6073 793.32 74.4873C793.72 74.354 794.013 74.174 794.2 73.9473C794.387 73.7207 794.48 73.4607 794.48 73.1673C794.48 72.794 794.333 72.5007 794.04 72.2873C793.747 72.0607 793.36 71.8807 792.88 71.7473C792.4 71.6007 791.867 71.4673 791.28 71.3473C790.707 71.214 790.127 71.054 789.54 70.8673C788.967 70.6807 788.44 70.4407 787.96 70.1473C787.48 69.854 787.087 69.4673 786.78 68.9873C786.487 68.5073 786.34 67.894 786.34 67.1473C786.34 66.3473 786.553 65.6207 786.98 64.9673C787.42 64.3007 788.073 63.774 788.94 63.3873C789.82 62.9873 790.92 62.7873 792.24 62.7873C793.12 62.7873 793.987 62.894 794.84 63.1073C795.693 63.3073 796.447 63.614 797.1 64.0273L796.1 66.4873C795.447 66.114 794.793 65.8407 794.14 65.6673C793.487 65.4807 792.847 65.3873 792.22 65.3873C791.593 65.3873 791.08 65.4607 790.68 65.6073C790.28 65.754 789.993 65.9473 789.82 66.1873C789.647 66.414 789.56 66.6807 789.56 66.9873C789.56 67.3473 789.707 67.6407 790 67.8673C790.293 68.0807 790.68 68.254 791.16 68.3873C791.64 68.5207 792.167 68.654 792.74 68.7873C793.327 68.9207 793.907 69.074 794.48 69.2473C795.067 69.4207 795.6 69.654 796.08 69.9473C796.56 70.2407 796.947 70.6273 797.24 71.1073C797.547 71.5873 797.7 72.194 797.7 72.9273C797.7 73.714 797.48 74.434 797.04 75.0873C796.6 75.7407 795.94 76.2673 795.06 76.6673C794.193 77.0673 793.093 77.2673 791.76 77.2673ZM804.814 77.1873C803.667 77.1873 802.647 76.9473 801.754 76.4673C800.874 75.9873 800.174 75.334 799.654 74.5073C799.147 73.6673 798.894 72.714 798.894 71.6473C798.894 70.5673 799.147 69.614 799.654 68.7873C800.174 67.9473 800.874 67.294 801.754 66.8273C802.647 66.3473 803.667 66.1073 804.814 66.1073C805.947 66.1073 806.961 66.3473 807.854 66.8273C808.747 67.294 809.447 67.9407 809.954 68.7673C810.461 69.594 810.714 70.554 810.714 71.6473C810.714 72.714 810.461 73.6673 809.954 74.5073C809.447 75.334 808.747 75.9873 807.854 76.4673C806.961 76.9473 805.947 77.1873 804.814 77.1873ZM804.814 74.6273C805.334 74.6273 805.801 74.5073 806.214 74.2673C806.627 74.0273 806.954 73.6873 807.194 73.2473C807.434 72.794 807.554 72.2607 807.554 71.6473C807.554 71.0207 807.434 70.4873 807.194 70.0473C806.954 69.6073 806.627 69.2673 806.214 69.0273C805.801 68.7873 805.334 68.6673 804.814 68.6673C804.294 68.6673 803.827 68.7873 803.414 69.0273C803.001 69.2673 802.667 69.6073 802.414 70.0473C802.174 70.4873 802.054 71.0207 802.054 71.6473C802.054 72.2607 802.174 72.794 802.414 73.2473C802.667 73.6873 803.001 74.0273 803.414 74.2673C803.827 74.5073 804.294 74.6273 804.814 74.6273ZM819.159 77.1873C818.213 77.1873 817.399 76.9873 816.719 76.5873C816.039 76.1873 815.519 75.5807 815.159 74.7673C814.799 73.9407 814.619 72.9007 814.619 71.6473C814.619 70.3807 814.806 69.3407 815.179 68.5273C815.566 67.714 816.099 67.1073 816.779 66.7073C817.459 66.3073 818.253 66.1073 819.159 66.1073C820.173 66.1073 821.079 66.334 821.879 66.7873C822.693 67.2407 823.333 67.8807 823.799 68.7073C824.279 69.534 824.519 70.514 824.519 71.6473C824.519 72.7673 824.279 73.7407 823.799 74.5673C823.333 75.394 822.693 76.0407 821.879 76.5073C821.079 76.9607 820.173 77.1873 819.159 77.1873ZM812.799 77.0273V62.1873H815.919V68.4473L815.719 71.6273L815.779 74.8273V77.0273H812.799ZM818.619 74.6273C819.139 74.6273 819.599 74.5073 819.999 74.2673C820.413 74.0273 820.739 73.6873 820.979 73.2473C821.233 72.794 821.359 72.2607 821.359 71.6473C821.359 71.0207 821.233 70.4873 820.979 70.0473C820.739 69.6073 820.413 69.2673 819.999 69.0273C819.599 68.7873 819.139 68.6673 818.619 68.6673C818.099 68.6673 817.633 68.7873 817.219 69.0273C816.806 69.2673 816.479 69.6073 816.239 70.0473C815.999 70.4873 815.879 71.0207 815.879 71.6473C815.879 72.2607 815.999 72.794 816.239 73.2473C816.479 73.6873 816.806 74.0273 817.219 74.2673C817.633 74.5073 818.099 74.6273 818.619 74.6273ZM826.608 77.0273V66.2673H829.588V69.3073L829.168 68.4273C829.488 67.6673 830.001 67.094 830.708 66.7073C831.415 66.3073 832.275 66.1073 833.288 66.1073V68.9873C833.155 68.974 833.035 68.9673 832.928 68.9673C832.821 68.954 832.708 68.9473 832.588 68.9473C831.735 68.9473 831.041 69.194 830.508 69.6873C829.988 70.1673 829.728 70.9207 829.728 71.9473V77.0273H826.608ZM840.405 77.1873C839.178 77.1873 838.098 76.9473 837.165 76.4673C836.245 75.9873 835.532 75.334 835.025 74.5073C834.518 73.6673 834.265 72.714 834.265 71.6473C834.265 70.5673 834.512 69.614 835.005 68.7873C835.512 67.9473 836.198 67.294 837.065 66.8273C837.932 66.3473 838.912 66.1073 840.005 66.1073C841.058 66.1073 842.005 66.334 842.845 66.7873C843.698 67.2273 844.372 67.8673 844.865 68.7073C845.358 69.534 845.605 70.5273 845.605 71.6873C845.605 71.8073 845.598 71.9473 845.585 72.1073C845.572 72.254 845.558 72.394 845.545 72.5273H836.805V70.7073H843.905L842.705 71.2473C842.705 70.6873 842.592 70.2007 842.365 69.7873C842.138 69.374 841.825 69.054 841.425 68.8273C841.025 68.5873 840.558 68.4673 840.025 68.4673C839.492 68.4673 839.018 68.5873 838.605 68.8273C838.205 69.054 837.892 69.3807 837.665 69.8073C837.438 70.2207 837.325 70.714 837.325 71.2873V71.7673C837.325 72.354 837.452 72.874 837.705 73.3273C837.972 73.7673 838.338 74.1073 838.805 74.3473C839.285 74.574 839.845 74.6873 840.485 74.6873C841.058 74.6873 841.558 74.6007 841.985 74.4273C842.425 74.254 842.825 73.994 843.185 73.6473L844.845 75.4473C844.352 76.0073 843.732 76.4407 842.985 76.7473C842.238 77.0407 841.378 77.1873 840.405 77.1873ZM857.746 77.1873C856.48 77.1873 855.493 76.8673 854.786 76.2273C854.08 75.574 853.726 74.6073 853.726 73.3273V63.8873H856.846V73.2873C856.846 73.7407 856.966 74.094 857.206 74.3473C857.446 74.5873 857.773 74.7073 858.186 74.7073C858.68 74.7073 859.1 74.574 859.446 74.3073L860.286 76.5073C859.966 76.734 859.58 76.9073 859.126 77.0273C858.686 77.134 858.226 77.1873 857.746 77.1873ZM852.066 68.9073V66.5073H859.526V68.9073H852.066ZM866.578 77.1873C865.684 77.1873 864.884 77.014 864.178 76.6673C863.484 76.3207 862.944 75.794 862.558 75.0873C862.171 74.3673 861.978 73.454 861.978 72.3473V66.2673H865.098V71.8873C865.098 72.7807 865.284 73.4407 865.658 73.8673C866.044 74.2807 866.584 74.4873 867.278 74.4873C867.758 74.4873 868.184 74.3873 868.558 74.1873C868.931 73.974 869.224 73.654 869.438 73.2273C869.651 72.7873 869.758 72.2407 869.758 71.5873V66.2673H872.878V77.0273H869.918V74.0673L870.458 74.9273C870.098 75.674 869.564 76.2407 868.858 76.6273C868.164 77.0007 867.404 77.1873 866.578 77.1873ZM887.792 77.1873C886.886 77.1873 886.092 76.9873 885.412 76.5873C884.732 76.1873 884.199 75.5807 883.812 74.7673C883.439 73.9407 883.252 72.9007 883.252 71.6473C883.252 70.3807 883.432 69.3407 883.792 68.5273C884.152 67.714 884.672 67.1073 885.352 66.7073C886.032 66.3073 886.846 66.1073 887.792 66.1073C888.806 66.1073 889.712 66.3407 890.512 66.8073C891.326 67.2607 891.966 67.9007 892.432 68.7273C892.912 69.554 893.152 70.5273 893.152 71.6473C893.152 72.7807 892.912 73.7607 892.432 74.5873C891.966 75.414 891.326 76.054 890.512 76.5073C889.712 76.9607 888.806 77.1873 887.792 77.1873ZM881.432 80.9073V66.2673H884.412V68.4673L884.352 71.6673L884.552 74.8473V80.9073H881.432ZM887.252 74.6273C887.772 74.6273 888.232 74.5073 888.632 74.2673C889.046 74.0273 889.372 73.6873 889.612 73.2473C889.866 72.794 889.992 72.2607 889.992 71.6473C889.992 71.0207 889.866 70.4873 889.612 70.0473C889.372 69.6073 889.046 69.2673 888.632 69.0273C888.232 68.7873 887.772 68.6673 887.252 68.6673C886.732 68.6673 886.266 68.7873 885.852 69.0273C885.439 69.2673 885.112 69.6073 884.872 70.0473C884.632 70.4873 884.512 71.0207 884.512 71.6473C884.512 72.2607 884.632 72.794 884.872 73.2473C885.112 73.6873 885.439 74.0273 885.852 74.2673C886.266 74.5073 886.732 74.6273 887.252 74.6273ZM895.241 77.0273V66.2673H898.221V69.3073L897.801 68.4273C898.121 67.6673 898.634 67.094 899.341 66.7073C900.047 66.3073 900.907 66.1073 901.921 66.1073V68.9873C901.787 68.974 901.667 68.9673 901.561 68.9673C901.454 68.954 901.341 68.9473 901.221 68.9473C900.367 68.9473 899.674 69.194 899.141 69.6873C898.621 70.1673 898.361 70.9207 898.361 71.9473V77.0273H895.241ZM908.818 77.1873C907.671 77.1873 906.651 76.9473 905.758 76.4673C904.878 75.9873 904.178 75.334 903.658 74.5073C903.151 73.6673 902.898 72.714 902.898 71.6473C902.898 70.5673 903.151 69.614 903.658 68.7873C904.178 67.9473 904.878 67.294 905.758 66.8273C906.651 66.3473 907.671 66.1073 908.818 66.1073C909.951 66.1073 910.964 66.3473 911.858 66.8273C912.751 67.294 913.451 67.9407 913.958 68.7673C914.464 69.594 914.718 70.554 914.718 71.6473C914.718 72.714 914.464 73.6673 913.958 74.5073C913.451 75.334 912.751 75.9873 911.858 76.4673C910.964 76.9473 909.951 77.1873 908.818 77.1873ZM908.818 74.6273C909.338 74.6273 909.804 74.5073 910.218 74.2673C910.631 74.0273 910.958 73.6873 911.198 73.2473C911.438 72.794 911.558 72.2607 911.558 71.6473C911.558 71.0207 911.438 70.4873 911.198 70.0473C910.958 69.6073 910.631 69.2673 910.218 69.0273C909.804 68.7873 909.338 68.6673 908.818 68.6673C908.298 68.6673 907.831 68.7873 907.418 69.0273C907.004 69.2673 906.671 69.6073 906.418 70.0473C906.178 70.4873 906.058 71.0207 906.058 71.6473C906.058 72.2607 906.178 72.794 906.418 73.2473C906.671 73.6873 907.004 74.0273 907.418 74.2673C907.831 74.5073 908.298 74.6273 908.818 74.6273ZM917.87 81.0673C917.31 81.0673 916.757 80.9807 916.21 80.8073C915.664 80.634 915.217 80.394 914.87 80.0873L916.01 77.8673C916.25 78.0807 916.524 78.2473 916.83 78.3673C917.15 78.4873 917.464 78.5473 917.77 78.5473C918.21 78.5473 918.557 78.4407 918.81 78.2273C919.077 78.0273 919.317 77.6873 919.53 77.2073L920.09 75.8873L920.33 75.5473L924.19 66.2673H927.19L922.33 77.6873C921.984 78.554 921.584 79.234 921.13 79.7273C920.69 80.2207 920.197 80.5673 919.65 80.7673C919.117 80.9673 918.524 81.0673 917.87 81.0673ZM919.71 77.4473L914.91 66.2673H918.13L921.85 75.2673L919.71 77.4473ZM933.51 77.1873C932.284 77.1873 931.204 76.9473 930.27 76.4673C929.35 75.9873 928.637 75.334 928.13 74.5073C927.624 73.6673 927.37 72.714 927.37 71.6473C927.37 70.5673 927.617 69.614 928.11 68.7873C928.617 67.9473 929.304 67.294 930.17 66.8273C931.037 66.3473 932.017 66.1073 933.11 66.1073C934.164 66.1073 935.11 66.334 935.95 66.7873C936.804 67.2273 937.477 67.8673 937.97 68.7073C938.464 69.534 938.71 70.5273 938.71 71.6873C938.71 71.8073 938.704 71.9473 938.69 72.1073C938.677 72.254 938.664 72.394 938.65 72.5273H929.91V70.7073H937.01L935.81 71.2473C935.81 70.6873 935.697 70.2007 935.47 69.7873C935.244 69.374 934.93 69.054 934.53 68.8273C934.13 68.5873 933.664 68.4673 933.13 68.4673C932.597 68.4673 932.124 68.5873 931.71 68.8273C931.31 69.054 930.997 69.3807 930.77 69.8073C930.544 70.2207 930.43 70.714 930.43 71.2873V71.7673C930.43 72.354 930.557 72.874 930.81 73.3273C931.077 73.7673 931.444 74.1073 931.91 74.3473C932.39 74.574 932.95 74.6873 933.59 74.6873C934.164 74.6873 934.664 74.6007 935.09 74.4273C935.53 74.254 935.93 73.994 936.29 73.6473L937.95 75.4473C937.457 76.0073 936.837 76.4407 936.09 76.7473C935.344 77.0407 934.484 77.1873 933.51 77.1873ZM945.988 77.1873C944.828 77.1873 943.794 76.954 942.888 76.4873C941.981 76.0073 941.268 75.3473 940.748 74.5073C940.241 73.6673 939.988 72.714 939.988 71.6473C939.988 70.5673 940.241 69.614 940.748 68.7873C941.268 67.9473 941.981 67.294 942.888 66.8273C943.794 66.3473 944.828 66.1073 945.988 66.1073C947.121 66.1073 948.108 66.3473 948.948 66.8273C949.788 67.294 950.408 67.9673 950.808 68.8473L948.388 70.1473C948.108 69.6407 947.754 69.2673 947.328 69.0273C946.914 68.7873 946.461 68.6673 945.968 68.6673C945.434 68.6673 944.954 68.7873 944.528 69.0273C944.101 69.2673 943.761 69.6073 943.508 70.0473C943.268 70.4873 943.148 71.0207 943.148 71.6473C943.148 72.274 943.268 72.8073 943.508 73.2473C943.761 73.6873 944.101 74.0273 944.528 74.2673C944.954 74.5073 945.434 74.6273 945.968 74.6273C946.461 74.6273 946.914 74.514 947.328 74.2873C947.754 74.0473 948.108 73.6673 948.388 73.1473L950.808 74.4673C950.408 75.334 949.788 76.0073 948.948 76.4873C948.108 76.954 947.121 77.1873 945.988 77.1873ZM957.16 77.1873C955.894 77.1873 954.907 76.8673 954.2 76.2273C953.494 75.574 953.14 74.6073 953.14 73.3273V63.8873H956.26V73.2873C956.26 73.7407 956.38 74.094 956.62 74.3473C956.86 74.5873 957.187 74.7073 957.6 74.7073C958.094 74.7073 958.514 74.574 958.86 74.3073L959.7 76.5073C959.38 76.734 958.994 76.9073 958.54 77.0273C958.1 77.134 957.64 77.1873 957.16 77.1873ZM951.48 68.9073V66.5073H958.94V68.9073H951.48ZM966.24 77.1873C965.093 77.1873 964.073 76.9473 963.18 76.4673C962.3 75.9873 961.6 75.334 961.08 74.5073C960.573 73.6673 960.32 72.714 960.32 71.6473C960.32 70.5673 960.573 69.614 961.08 68.7873C961.6 67.9473 962.3 67.294 963.18 66.8273C964.073 66.3473 965.093 66.1073 966.24 66.1073C967.373 66.1073 968.386 66.3473 969.28 66.8273C970.173 67.294 970.873 67.9407 971.38 68.7673C971.886 69.594 972.14 70.554 972.14 71.6473C972.14 72.714 971.886 73.6673 971.38 74.5073C970.873 75.334 970.173 75.9873 969.28 76.4673C968.386 76.9473 967.373 77.1873 966.24 77.1873ZM966.24 74.6273C966.76 74.6273 967.226 74.5073 967.64 74.2673C968.053 74.0273 968.38 73.6873 968.62 73.2473C968.86 72.794 968.98 72.2607 968.98 71.6473C968.98 71.0207 968.86 70.4873 968.62 70.0473C968.38 69.6073 968.053 69.2673 967.64 69.0273C967.226 68.7873 966.76 68.6673 966.24 68.6673C965.72 68.6673 965.253 68.7873 964.84 69.0273C964.426 69.2673 964.093 69.6073 963.84 70.0473C963.6 70.4873 963.48 71.0207 963.48 71.6473C963.48 72.2607 963.6 72.794 963.84 73.2473C964.093 73.6873 964.426 74.0273 964.84 74.2673C965.253 74.5073 965.72 74.6273 966.24 74.6273Z" fill="#9999AD"/>
<defs>
<clipPath id="clip0_1307_5514">
<rect width="24" height="24" fill="white" transform="translate(85.833 8)"/>
</clipPath>
</defs>
</svg>
