<svg width="268" height="63" viewBox="0 0 268 63" fill="none" xmlns="http://www.w3.org/2000/svg">
<path d="M0.794828 44V35.6H2.40283L7.35883 41.648H6.57883V35.6H8.49883V44H6.90283L1.93483 37.952H2.71483V44H0.794828ZM13.0782 44.096C12.5422 44.096 12.0622 43.992 11.6382 43.784C11.2222 43.576 10.8982 43.26 10.6662 42.836C10.4342 42.404 10.3182 41.856 10.3182 41.192V37.544H12.1902V40.916C12.1902 41.452 12.3022 41.848 12.5262 42.104C12.7582 42.352 13.0822 42.476 13.4982 42.476C13.7862 42.476 14.0422 42.416 14.2662 42.296C14.4902 42.168 14.6662 41.976 14.7942 41.72C14.9222 41.456 14.9862 41.128 14.9862 40.736V37.544H16.8582V44H15.0822V42.224L15.4062 42.74C15.1902 43.188 14.8702 43.528 14.4462 43.76C14.0302 43.984 13.5742 44.096 13.0782 44.096ZM21.7965 44.096C21.0605 44.096 20.4125 43.952 19.8525 43.664C19.3005 43.376 18.8725 42.984 18.5685 42.488C18.2645 41.984 18.1125 41.412 18.1125 40.772C18.1125 40.124 18.2605 39.552 18.5565 39.056C18.8605 38.552 19.2725 38.16 19.7925 37.88C20.3125 37.592 20.9005 37.448 21.5565 37.448C22.1885 37.448 22.7565 37.584 23.2605 37.856C23.7725 38.12 24.1765 38.504 24.4725 39.008C24.7685 39.504 24.9165 40.1 24.9165 40.796C24.9165 40.868 24.9125 40.952 24.9045 41.048C24.8965 41.136 24.8885 41.22 24.8805 41.3H19.6365V40.208H23.8965L23.1765 40.532C23.1765 40.196 23.1085 39.904 22.9725 39.656C22.8365 39.408 22.6485 39.216 22.4085 39.08C22.1685 38.936 21.8885 38.864 21.5685 38.864C21.2485 38.864 20.9645 38.936 20.7165 39.08C20.4765 39.216 20.2885 39.412 20.1525 39.668C20.0165 39.916 19.9485 40.212 19.9485 40.556V40.844C19.9485 41.196 20.0245 41.508 20.1765 41.78C20.3365 42.044 20.5565 42.248 20.8365 42.392C21.1245 42.528 21.4605 42.596 21.8445 42.596C22.1885 42.596 22.4885 42.544 22.7445 42.44C23.0085 42.336 23.2485 42.18 23.4645 41.972L24.4605 43.052C24.1645 43.388 23.7925 43.648 23.3445 43.832C22.8965 44.008 22.3805 44.096 21.7965 44.096ZM28.3348 44.096C27.7828 44.096 27.2508 44.032 26.7388 43.904C26.2348 43.768 25.8348 43.6 25.5388 43.4L26.1628 42.056C26.4588 42.24 26.8068 42.392 27.2068 42.512C27.6148 42.624 28.0148 42.68 28.4068 42.68C28.8388 42.68 29.1428 42.628 29.3188 42.524C29.5028 42.42 29.5948 42.276 29.5948 42.092C29.5948 41.94 29.5228 41.828 29.3788 41.756C29.2428 41.676 29.0588 41.616 28.8268 41.576C28.5948 41.536 28.3388 41.496 28.0588 41.456C27.7868 41.416 27.5108 41.364 27.2308 41.3C26.9508 41.228 26.6948 41.124 26.4628 40.988C26.2308 40.852 26.0428 40.668 25.8988 40.436C25.7628 40.204 25.6948 39.904 25.6948 39.536C25.6948 39.128 25.8108 38.768 26.0428 38.456C26.2828 38.144 26.6268 37.9 27.0748 37.724C27.5228 37.54 28.0588 37.448 28.6828 37.448C29.1228 37.448 29.5708 37.496 30.0268 37.592C30.4828 37.688 30.8628 37.828 31.1668 38.012L30.5428 39.344C30.2308 39.16 29.9148 39.036 29.5948 38.972C29.2828 38.9 28.9788 38.864 28.6828 38.864C28.2668 38.864 27.9628 38.92 27.7708 39.032C27.5788 39.144 27.4828 39.288 27.4828 39.464C27.4828 39.624 27.5508 39.744 27.6868 39.824C27.8308 39.904 28.0188 39.968 28.2508 40.016C28.4828 40.064 28.7348 40.108 29.0068 40.148C29.2868 40.18 29.5668 40.232 29.8468 40.304C30.1268 40.376 30.3788 40.48 30.6028 40.616C30.8348 40.744 31.0228 40.924 31.1668 41.156C31.3108 41.38 31.3828 41.676 31.3828 42.044C31.3828 42.444 31.2628 42.8 31.0228 43.112C30.7828 43.416 30.4348 43.656 29.9788 43.832C29.5308 44.008 28.9828 44.096 28.3348 44.096ZM35.1778 44.096C34.4178 44.096 33.8258 43.904 33.4018 43.52C32.9778 43.128 32.7658 42.548 32.7658 41.78V36.116H34.6378V41.756C34.6378 42.028 34.7098 42.24 34.8538 42.392C34.9978 42.536 35.1938 42.608 35.4418 42.608C35.7378 42.608 35.9898 42.528 36.1978 42.368L36.7018 43.688C36.5098 43.824 36.2778 43.928 36.0058 44C35.7418 44.064 35.4658 44.096 35.1778 44.096ZM31.7698 39.128V37.688H36.2458V39.128H31.7698ZM37.7527 44V37.544H39.5407V39.368L39.2887 38.84C39.4807 38.384 39.7887 38.04 40.2127 37.808C40.6367 37.568 41.1527 37.448 41.7607 37.448V39.176C41.6807 39.168 41.6087 39.164 41.5447 39.164C41.4807 39.156 41.4127 39.152 41.3407 39.152C40.8287 39.152 40.4127 39.3 40.0927 39.596C39.7807 39.884 39.6247 40.336 39.6247 40.952V44H37.7527ZM45.8989 44.096C45.2109 44.096 44.5989 43.952 44.0629 43.664C43.5349 43.376 43.1149 42.984 42.8029 42.488C42.4989 41.984 42.3469 41.412 42.3469 40.772C42.3469 40.124 42.4989 39.552 42.8029 39.056C43.1149 38.552 43.5349 38.16 44.0629 37.88C44.5989 37.592 45.2109 37.448 45.8989 37.448C46.5789 37.448 47.1869 37.592 47.7229 37.88C48.2589 38.16 48.6789 38.548 48.9829 39.044C49.2869 39.54 49.4389 40.116 49.4389 40.772C49.4389 41.412 49.2869 41.984 48.9829 42.488C48.6789 42.984 48.2589 43.376 47.7229 43.664C47.1869 43.952 46.5789 44.096 45.8989 44.096ZM45.8989 42.56C46.2109 42.56 46.4909 42.488 46.7389 42.344C46.9869 42.2 47.1829 41.996 47.3269 41.732C47.4709 41.46 47.5429 41.14 47.5429 40.772C47.5429 40.396 47.4709 40.076 47.3269 39.812C47.1829 39.548 46.9869 39.344 46.7389 39.2C46.4909 39.056 46.2109 38.984 45.8989 38.984C45.5869 38.984 45.3069 39.056 45.0589 39.2C44.8109 39.344 44.6109 39.548 44.4589 39.812C44.3149 40.076 44.2429 40.396 44.2429 40.772C44.2429 41.14 44.3149 41.46 44.4589 41.732C44.6109 41.996 44.8109 42.2 45.0589 42.344C45.3069 42.488 45.5869 42.56 45.8989 42.56ZM52.8622 44.096C52.3102 44.096 51.7782 44.032 51.2662 43.904C50.7622 43.768 50.3622 43.6 50.0662 43.4L50.6902 42.056C50.9862 42.24 51.3342 42.392 51.7342 42.512C52.1422 42.624 52.5422 42.68 52.9342 42.68C53.3662 42.68 53.6702 42.628 53.8462 42.524C54.0302 42.42 54.1222 42.276 54.1222 42.092C54.1222 41.94 54.0502 41.828 53.9062 41.756C53.7702 41.676 53.5862 41.616 53.3542 41.576C53.1222 41.536 52.8662 41.496 52.5862 41.456C52.3142 41.416 52.0382 41.364 51.7582 41.3C51.4782 41.228 51.2222 41.124 50.9902 40.988C50.7582 40.852 50.5702 40.668 50.4262 40.436C50.2902 40.204 50.2222 39.904 50.2222 39.536C50.2222 39.128 50.3382 38.768 50.5702 38.456C50.8102 38.144 51.1542 37.9 51.6022 37.724C52.0502 37.54 52.5862 37.448 53.2102 37.448C53.6502 37.448 54.0982 37.496 54.5542 37.592C55.0102 37.688 55.3902 37.828 55.6942 38.012L55.0702 39.344C54.7582 39.16 54.4422 39.036 54.1222 38.972C53.8102 38.9 53.5062 38.864 53.2102 38.864C52.7942 38.864 52.4902 38.92 52.2982 39.032C52.1062 39.144 52.0102 39.288 52.0102 39.464C52.0102 39.624 52.0782 39.744 52.2142 39.824C52.3582 39.904 52.5462 39.968 52.7782 40.016C53.0102 40.064 53.2622 40.108 53.5342 40.148C53.8142 40.18 54.0942 40.232 54.3742 40.304C54.6542 40.376 54.9062 40.48 55.1302 40.616C55.3622 40.744 55.5502 40.924 55.6942 41.156C55.8382 41.38 55.9102 41.676 55.9102 42.044C55.9102 42.444 55.7902 42.8 55.5502 43.112C55.3102 43.416 54.9622 43.656 54.5062 43.832C54.0582 44.008 53.5102 44.096 52.8622 44.096ZM3.631 60.144C2.959 60.144 2.315 60.056 1.699 59.88C1.083 59.696 0.587 59.46 0.211 59.172L0.871 57.708C1.231 57.964 1.655 58.176 2.143 58.344C2.639 58.504 3.139 58.584 3.643 58.584C4.027 58.584 4.335 58.548 4.567 58.476C4.807 58.396 4.983 58.288 5.095 58.152C5.207 58.016 5.263 57.86 5.263 57.684C5.263 57.46 5.175 57.284 4.999 57.156C4.823 57.02 4.591 56.912 4.303 56.832C4.015 56.744 3.695 56.664 3.343 56.592C2.999 56.512 2.651 56.416 2.299 56.304C1.955 56.192 1.639 56.048 1.351 55.872C1.063 55.696 0.827 55.464 0.643 55.176C0.467 54.888 0.379 54.52 0.379 54.072C0.379 53.592 0.507 53.156 0.763 52.764C1.027 52.364 1.419 52.048 1.939 51.816C2.467 51.576 3.127 51.456 3.919 51.456C4.447 51.456 4.967 51.52 5.479 51.648C5.991 51.768 6.443 51.952 6.835 52.2L6.235 53.676C5.843 53.452 5.451 53.288 5.059 53.184C4.667 53.072 4.283 53.016 3.907 53.016C3.531 53.016 3.223 53.06 2.983 53.148C2.743 53.236 2.571 53.352 2.467 53.496C2.363 53.632 2.311 53.792 2.311 53.976C2.311 54.192 2.399 54.368 2.575 54.504C2.751 54.632 2.983 54.736 3.271 54.816C3.559 54.896 3.875 54.976 4.219 55.056C4.571 55.136 4.919 55.228 5.263 55.332C5.615 55.436 5.935 55.576 6.223 55.752C6.511 55.928 6.743 56.16 6.919 56.448C7.103 56.736 7.195 57.1 7.195 57.54C7.195 58.012 7.063 58.444 6.799 58.836C6.535 59.228 6.139 59.544 5.611 59.784C5.091 60.024 4.431 60.144 3.631 60.144ZM11.5953 60.096C10.8593 60.096 10.2113 59.952 9.65134 59.664C9.09934 59.376 8.67134 58.984 8.36734 58.488C8.06334 57.984 7.91134 57.412 7.91134 56.772C7.91134 56.124 8.05934 55.552 8.35534 55.056C8.65934 54.552 9.07134 54.16 9.59134 53.88C10.1113 53.592 10.6993 53.448 11.3553 53.448C11.9873 53.448 12.5553 53.584 13.0593 53.856C13.5713 54.12 13.9753 54.504 14.2713 55.008C14.5673 55.504 14.7153 56.1 14.7153 56.796C14.7153 56.868 14.7113 56.952 14.7033 57.048C14.6953 57.136 14.6873 57.22 14.6793 57.3H9.43534V56.208H13.6953L12.9753 56.532C12.9753 56.196 12.9073 55.904 12.7713 55.656C12.6353 55.408 12.4473 55.216 12.2073 55.08C11.9673 54.936 11.6873 54.864 11.3673 54.864C11.0473 54.864 10.7633 54.936 10.5153 55.08C10.2753 55.216 10.0873 55.412 9.95134 55.668C9.81534 55.916 9.74734 56.212 9.74734 56.556V56.844C9.74734 57.196 9.82334 57.508 9.97534 57.78C10.1353 58.044 10.3553 58.248 10.6353 58.392C10.9233 58.528 11.2593 58.596 11.6433 58.596C11.9873 58.596 12.2873 58.544 12.5433 58.44C12.8073 58.336 13.0473 58.18 13.2633 57.972L14.2593 59.052C13.9633 59.388 13.5913 59.648 13.1433 59.832C12.6953 60.008 12.1793 60.096 11.5953 60.096ZM15.9617 60V53.544H17.7497V55.368L17.4977 54.84C17.6897 54.384 17.9977 54.04 18.4217 53.808C18.8457 53.568 19.3617 53.448 19.9697 53.448V55.176C19.8897 55.168 19.8177 55.164 19.7537 55.164C19.6897 55.156 19.6217 55.152 19.5497 55.152C19.0377 55.152 18.6217 55.3 18.3017 55.596C17.9897 55.884 17.8337 56.336 17.8337 56.952V60H15.9617ZM23.0574 60L20.3454 53.544H22.2774L24.5334 59.1H23.5734L25.9134 53.544H27.7134L24.9894 60H23.0574ZM28.4773 60V53.544H30.3493V60H28.4773ZM29.4133 52.644C29.0693 52.644 28.7893 52.544 28.5733 52.344C28.3573 52.144 28.2493 51.896 28.2493 51.6C28.2493 51.304 28.3573 51.056 28.5733 50.856C28.7893 50.656 29.0693 50.556 29.4133 50.556C29.7573 50.556 30.0373 50.652 30.2533 50.844C30.4693 51.028 30.5773 51.268 30.5773 51.564C30.5773 51.876 30.4693 52.136 30.2533 52.344C30.0453 52.544 29.7653 52.644 29.4133 52.644ZM35.2067 60.096C34.5107 60.096 33.8907 59.956 33.3467 59.676C32.8027 59.388 32.3747 58.992 32.0627 58.488C31.7587 57.984 31.6067 57.412 31.6067 56.772C31.6067 56.124 31.7587 55.552 32.0627 55.056C32.3747 54.552 32.8027 54.16 33.3467 53.88C33.8907 53.592 34.5107 53.448 35.2067 53.448C35.8867 53.448 36.4787 53.592 36.9827 53.88C37.4867 54.16 37.8587 54.564 38.0987 55.092L36.6467 55.872C36.4787 55.568 36.2667 55.344 36.0107 55.2C35.7627 55.056 35.4907 54.984 35.1947 54.984C34.8747 54.984 34.5867 55.056 34.3307 55.2C34.0747 55.344 33.8707 55.548 33.7187 55.812C33.5747 56.076 33.5027 56.396 33.5027 56.772C33.5027 57.148 33.5747 57.468 33.7187 57.732C33.8707 57.996 34.0747 58.2 34.3307 58.344C34.5867 58.488 34.8747 58.56 35.1947 58.56C35.4907 58.56 35.7627 58.492 36.0107 58.356C36.2667 58.212 36.4787 57.984 36.6467 57.672L38.0987 58.464C37.8587 58.984 37.4867 59.388 36.9827 59.676C36.4787 59.956 35.8867 60.096 35.2067 60.096ZM39.1413 60V53.544H41.0133V60H39.1413ZM40.0773 52.644C39.7333 52.644 39.4533 52.544 39.2373 52.344C39.0213 52.144 38.9133 51.896 38.9133 51.6C38.9133 51.304 39.0213 51.056 39.2373 50.856C39.4533 50.656 39.7333 50.556 40.0773 50.556C40.4213 50.556 40.7013 50.652 40.9173 50.844C41.1333 51.028 41.2413 51.268 41.2413 51.564C41.2413 51.876 41.1333 52.136 40.9173 52.344C40.7093 52.544 40.4293 52.644 40.0773 52.644ZM45.8227 60.096C45.1347 60.096 44.5227 59.952 43.9867 59.664C43.4587 59.376 43.0387 58.984 42.7267 58.488C42.4227 57.984 42.2707 57.412 42.2707 56.772C42.2707 56.124 42.4227 55.552 42.7267 55.056C43.0387 54.552 43.4587 54.16 43.9867 53.88C44.5227 53.592 45.1347 53.448 45.8227 53.448C46.5027 53.448 47.1107 53.592 47.6467 53.88C48.1827 54.16 48.6027 54.548 48.9067 55.044C49.2107 55.54 49.3627 56.116 49.3627 56.772C49.3627 57.412 49.2107 57.984 48.9067 58.488C48.6027 58.984 48.1827 59.376 47.6467 59.664C47.1107 59.952 46.5027 60.096 45.8227 60.096ZM45.8227 58.56C46.1347 58.56 46.4147 58.488 46.6627 58.344C46.9107 58.2 47.1067 57.996 47.2507 57.732C47.3947 57.46 47.4667 57.14 47.4667 56.772C47.4667 56.396 47.3947 56.076 47.2507 55.812C47.1067 55.548 46.9107 55.344 46.6627 55.2C46.4147 55.056 46.1347 54.984 45.8227 54.984C45.5107 54.984 45.2307 55.056 44.9827 55.2C44.7347 55.344 44.5347 55.548 44.3827 55.812C44.2387 56.076 44.1667 56.396 44.1667 56.772C44.1667 57.14 44.2387 57.46 44.3827 57.732C44.5347 57.996 44.7347 58.2 44.9827 58.344C45.2307 58.488 45.5107 58.56 45.8227 58.56ZM52.786 60.096C52.234 60.096 51.702 60.032 51.19 59.904C50.686 59.768 50.286 59.6 49.99 59.4L50.614 58.056C50.91 58.24 51.258 58.392 51.658 58.512C52.066 58.624 52.466 58.68 52.858 58.68C53.29 58.68 53.594 58.628 53.77 58.524C53.954 58.42 54.046 58.276 54.046 58.092C54.046 57.94 53.974 57.828 53.83 57.756C53.694 57.676 53.51 57.616 53.278 57.576C53.046 57.536 52.79 57.496 52.51 57.456C52.238 57.416 51.962 57.364 51.682 57.3C51.402 57.228 51.146 57.124 50.914 56.988C50.682 56.852 50.494 56.668 50.35 56.436C50.214 56.204 50.146 55.904 50.146 55.536C50.146 55.128 50.262 54.768 50.494 54.456C50.734 54.144 51.078 53.9 51.526 53.724C51.974 53.54 52.51 53.448 53.134 53.448C53.574 53.448 54.022 53.496 54.478 53.592C54.934 53.688 55.314 53.828 55.618 54.012L54.994 55.344C54.682 55.16 54.366 55.036 54.046 54.972C53.734 54.9 53.43 54.864 53.134 54.864C52.718 54.864 52.414 54.92 52.222 55.032C52.03 55.144 51.934 55.288 51.934 55.464C51.934 55.624 52.002 55.744 52.138 55.824C52.282 55.904 52.47 55.968 52.702 56.016C52.934 56.064 53.186 56.108 53.458 56.148C53.738 56.18 54.018 56.232 54.298 56.304C54.578 56.376 54.83 56.48 55.054 56.616C55.286 56.744 55.474 56.924 55.618 57.156C55.762 57.38 55.834 57.676 55.834 58.044C55.834 58.444 55.714 58.8 55.474 59.112C55.234 59.416 54.886 59.656 54.43 59.832C53.982 60.008 53.434 60.096 52.786 60.096Z" fill="#100FA8"/>
<path d="M116.709 44V35.6H120.525C121.437 35.6 122.241 35.776 122.937 36.128C123.633 36.472 124.177 36.956 124.569 37.58C124.961 38.204 125.157 38.944 125.157 39.8C125.157 40.648 124.961 41.388 124.569 42.02C124.177 42.644 123.633 43.132 122.937 43.484C122.241 43.828 121.437 44 120.525 44H116.709ZM118.653 42.404H120.429C120.989 42.404 121.473 42.3 121.881 42.092C122.297 41.876 122.617 41.572 122.841 41.18C123.073 40.788 123.189 40.328 123.189 39.8C123.189 39.264 123.073 38.804 122.841 38.42C122.617 38.028 122.297 37.728 121.881 37.52C121.473 37.304 120.989 37.196 120.429 37.196H118.653V42.404ZM130.451 44V42.74L130.331 42.464V40.208C130.331 39.808 130.207 39.496 129.959 39.272C129.719 39.048 129.347 38.936 128.843 38.936C128.499 38.936 128.159 38.992 127.823 39.104C127.495 39.208 127.215 39.352 126.983 39.536L126.311 38.228C126.663 37.98 127.087 37.788 127.583 37.652C128.079 37.516 128.583 37.448 129.095 37.448C130.079 37.448 130.843 37.68 131.387 38.144C131.931 38.608 132.203 39.332 132.203 40.316V44H130.451ZM128.483 44.096C127.979 44.096 127.547 44.012 127.187 43.844C126.827 43.668 126.551 43.432 126.359 43.136C126.167 42.84 126.071 42.508 126.071 42.14C126.071 41.756 126.163 41.42 126.347 41.132C126.539 40.844 126.839 40.62 127.247 40.46C127.655 40.292 128.187 40.208 128.843 40.208H130.559V41.3H129.047C128.607 41.3 128.303 41.372 128.135 41.516C127.975 41.66 127.895 41.84 127.895 42.056C127.895 42.296 127.987 42.488 128.171 42.632C128.363 42.768 128.623 42.836 128.951 42.836C129.263 42.836 129.543 42.764 129.791 42.62C130.039 42.468 130.219 42.248 130.331 41.96L130.619 42.824C130.483 43.24 130.235 43.556 129.875 43.772C129.515 43.988 129.051 44.096 128.483 44.096ZM136.537 44.096C135.777 44.096 135.185 43.904 134.761 43.52C134.337 43.128 134.125 42.548 134.125 41.78V36.116H135.997V41.756C135.997 42.028 136.069 42.24 136.213 42.392C136.357 42.536 136.553 42.608 136.801 42.608C137.097 42.608 137.349 42.528 137.557 42.368L138.061 43.688C137.869 43.824 137.637 43.928 137.365 44C137.101 44.064 136.825 44.096 136.537 44.096ZM133.129 39.128V37.688H137.605V39.128H133.129ZM141.985 44.096C141.297 44.096 140.685 43.952 140.149 43.664C139.621 43.376 139.201 42.984 138.889 42.488C138.585 41.984 138.433 41.412 138.433 40.772C138.433 40.124 138.585 39.552 138.889 39.056C139.201 38.552 139.621 38.16 140.149 37.88C140.685 37.592 141.297 37.448 141.985 37.448C142.665 37.448 143.273 37.592 143.809 37.88C144.345 38.16 144.765 38.548 145.069 39.044C145.373 39.54 145.525 40.116 145.525 40.772C145.525 41.412 145.373 41.984 145.069 42.488C144.765 42.984 144.345 43.376 143.809 43.664C143.273 43.952 142.665 44.096 141.985 44.096ZM141.985 42.56C142.297 42.56 142.577 42.488 142.825 42.344C143.073 42.2 143.269 41.996 143.413 41.732C143.557 41.46 143.629 41.14 143.629 40.772C143.629 40.396 143.557 40.076 143.413 39.812C143.269 39.548 143.073 39.344 142.825 39.2C142.577 39.056 142.297 38.984 141.985 38.984C141.673 38.984 141.393 39.056 141.145 39.2C140.897 39.344 140.697 39.548 140.545 39.812C140.401 40.076 140.329 40.396 140.329 40.772C140.329 41.14 140.401 41.46 140.545 41.732C140.697 41.996 140.897 42.2 141.145 42.344C141.393 42.488 141.673 42.56 141.985 42.56ZM148.948 44.096C148.396 44.096 147.864 44.032 147.352 43.904C146.848 43.768 146.448 43.6 146.152 43.4L146.776 42.056C147.072 42.24 147.42 42.392 147.82 42.512C148.228 42.624 148.628 42.68 149.02 42.68C149.452 42.68 149.756 42.628 149.932 42.524C150.116 42.42 150.208 42.276 150.208 42.092C150.208 41.94 150.136 41.828 149.992 41.756C149.856 41.676 149.672 41.616 149.44 41.576C149.208 41.536 148.952 41.496 148.672 41.456C148.4 41.416 148.124 41.364 147.844 41.3C147.564 41.228 147.308 41.124 147.076 40.988C146.844 40.852 146.656 40.668 146.512 40.436C146.376 40.204 146.308 39.904 146.308 39.536C146.308 39.128 146.424 38.768 146.656 38.456C146.896 38.144 147.24 37.9 147.688 37.724C148.136 37.54 148.672 37.448 149.296 37.448C149.736 37.448 150.184 37.496 150.64 37.592C151.096 37.688 151.476 37.828 151.78 38.012L151.156 39.344C150.844 39.16 150.528 39.036 150.208 38.972C149.896 38.9 149.592 38.864 149.296 38.864C148.88 38.864 148.576 38.92 148.384 39.032C148.192 39.144 148.096 39.288 148.096 39.464C148.096 39.624 148.164 39.744 148.3 39.824C148.444 39.904 148.632 39.968 148.864 40.016C149.096 40.064 149.348 40.108 149.62 40.148C149.9 40.18 150.18 40.232 150.46 40.304C150.74 40.376 150.992 40.48 151.216 40.616C151.448 40.744 151.636 40.924 151.78 41.156C151.924 41.38 151.996 41.676 151.996 42.044C151.996 42.444 151.876 42.8 151.636 43.112C151.396 43.416 151.048 43.656 150.592 43.832C150.144 44.008 149.596 44.096 148.948 44.096ZM104.42 60.096C103.876 60.096 103.4 59.976 102.992 59.736C102.584 59.496 102.264 59.132 102.032 58.644C101.808 58.148 101.696 57.524 101.696 56.772C101.696 56.012 101.804 55.388 102.02 54.9C102.236 54.412 102.548 54.048 102.956 53.808C103.364 53.568 103.852 53.448 104.42 53.448C105.028 53.448 105.572 53.588 106.052 53.868C106.54 54.14 106.924 54.524 107.204 55.02C107.492 55.516 107.636 56.1 107.636 56.772C107.636 57.452 107.492 58.04 107.204 58.536C106.924 59.032 106.54 59.416 106.052 59.688C105.572 59.96 105.028 60.096 104.42 60.096ZM100.604 62.328V53.544H102.392V54.864L102.356 56.784L102.476 58.692V62.328H100.604ZM104.096 58.56C104.408 58.56 104.684 58.488 104.924 58.344C105.172 58.2 105.368 57.996 105.512 57.732C105.664 57.46 105.74 57.14 105.74 56.772C105.74 56.396 105.664 56.076 105.512 55.812C105.368 55.548 105.172 55.344 104.924 55.2C104.684 55.056 104.408 54.984 104.096 54.984C103.784 54.984 103.504 55.056 103.256 55.2C103.008 55.344 102.812 55.548 102.668 55.812C102.524 56.076 102.452 56.396 102.452 56.772C102.452 57.14 102.524 57.46 102.668 57.732C102.812 57.996 103.008 58.2 103.256 58.344C103.504 58.488 103.784 58.56 104.096 58.56ZM112.093 60.096C111.357 60.096 110.709 59.952 110.149 59.664C109.597 59.376 109.169 58.984 108.865 58.488C108.561 57.984 108.409 57.412 108.409 56.772C108.409 56.124 108.557 55.552 108.853 55.056C109.157 54.552 109.569 54.16 110.089 53.88C110.609 53.592 111.197 53.448 111.853 53.448C112.485 53.448 113.053 53.584 113.557 53.856C114.069 54.12 114.473 54.504 114.769 55.008C115.065 55.504 115.213 56.1 115.213 56.796C115.213 56.868 115.209 56.952 115.201 57.048C115.193 57.136 115.185 57.22 115.177 57.3H109.933V56.208H114.193L113.473 56.532C113.473 56.196 113.405 55.904 113.269 55.656C113.133 55.408 112.945 55.216 112.705 55.08C112.465 54.936 112.185 54.864 111.865 54.864C111.545 54.864 111.261 54.936 111.013 55.08C110.773 55.216 110.585 55.412 110.449 55.668C110.313 55.916 110.245 56.212 110.245 56.556V56.844C110.245 57.196 110.321 57.508 110.473 57.78C110.633 58.044 110.853 58.248 111.133 58.392C111.421 58.528 111.757 58.596 112.141 58.596C112.485 58.596 112.785 58.544 113.041 58.44C113.305 58.336 113.545 58.18 113.761 57.972L114.757 59.052C114.461 59.388 114.089 59.648 113.641 59.832C113.193 60.008 112.677 60.096 112.093 60.096ZM116.46 60V53.544H118.248V55.368L117.996 54.84C118.188 54.384 118.496 54.04 118.92 53.808C119.344 53.568 119.86 53.448 120.468 53.448V55.176C120.388 55.168 120.316 55.164 120.252 55.164C120.188 55.156 120.12 55.152 120.048 55.152C119.536 55.152 119.12 55.3 118.8 55.596C118.488 55.884 118.332 56.336 118.332 56.952V60H116.46ZM123.8 60.096C123.248 60.096 122.716 60.032 122.204 59.904C121.7 59.768 121.3 59.6 121.004 59.4L121.628 58.056C121.924 58.24 122.272 58.392 122.672 58.512C123.08 58.624 123.48 58.68 123.872 58.68C124.304 58.68 124.608 58.628 124.784 58.524C124.968 58.42 125.06 58.276 125.06 58.092C125.06 57.94 124.988 57.828 124.844 57.756C124.708 57.676 124.524 57.616 124.292 57.576C124.06 57.536 123.804 57.496 123.524 57.456C123.252 57.416 122.976 57.364 122.696 57.3C122.416 57.228 122.16 57.124 121.928 56.988C121.696 56.852 121.508 56.668 121.364 56.436C121.228 56.204 121.16 55.904 121.16 55.536C121.16 55.128 121.276 54.768 121.508 54.456C121.748 54.144 122.092 53.9 122.54 53.724C122.988 53.54 123.524 53.448 124.148 53.448C124.588 53.448 125.036 53.496 125.492 53.592C125.948 53.688 126.328 53.828 126.632 54.012L126.008 55.344C125.696 55.16 125.38 55.036 125.06 54.972C124.748 54.9 124.444 54.864 124.148 54.864C123.732 54.864 123.428 54.92 123.236 55.032C123.044 55.144 122.948 55.288 122.948 55.464C122.948 55.624 123.016 55.744 123.152 55.824C123.296 55.904 123.484 55.968 123.716 56.016C123.948 56.064 124.2 56.108 124.472 56.148C124.752 56.18 125.032 56.232 125.312 56.304C125.592 56.376 125.844 56.48 126.068 56.616C126.3 56.744 126.488 56.924 126.632 57.156C126.776 57.38 126.848 57.676 126.848 58.044C126.848 58.444 126.728 58.8 126.488 59.112C126.248 59.416 125.9 59.656 125.444 59.832C124.996 60.008 124.448 60.096 123.8 60.096ZM131.075 60.096C130.387 60.096 129.775 59.952 129.239 59.664C128.711 59.376 128.291 58.984 127.979 58.488C127.675 57.984 127.523 57.412 127.523 56.772C127.523 56.124 127.675 55.552 127.979 55.056C128.291 54.552 128.711 54.16 129.239 53.88C129.775 53.592 130.387 53.448 131.075 53.448C131.755 53.448 132.363 53.592 132.899 53.88C133.435 54.16 133.855 54.548 134.159 55.044C134.463 55.54 134.615 56.116 134.615 56.772C134.615 57.412 134.463 57.984 134.159 58.488C133.855 58.984 133.435 59.376 132.899 59.664C132.363 59.952 131.755 60.096 131.075 60.096ZM131.075 58.56C131.387 58.56 131.667 58.488 131.915 58.344C132.163 58.2 132.359 57.996 132.503 57.732C132.647 57.46 132.719 57.14 132.719 56.772C132.719 56.396 132.647 56.076 132.503 55.812C132.359 55.548 132.163 55.344 131.915 55.2C131.667 55.056 131.387 54.984 131.075 54.984C130.763 54.984 130.483 55.056 130.235 55.2C129.987 55.344 129.787 55.548 129.635 55.812C129.491 56.076 129.419 56.396 129.419 56.772C129.419 57.14 129.491 57.46 129.635 57.732C129.787 57.996 129.987 58.2 130.235 58.344C130.483 58.488 130.763 58.56 131.075 58.56ZM139.79 53.448C140.302 53.448 140.758 53.552 141.158 53.76C141.566 53.96 141.886 54.272 142.118 54.696C142.35 55.112 142.466 55.648 142.466 56.304V60H140.594V56.592C140.594 56.072 140.478 55.688 140.246 55.44C140.022 55.192 139.702 55.068 139.286 55.068C138.99 55.068 138.722 55.132 138.482 55.26C138.25 55.38 138.066 55.568 137.93 55.824C137.802 56.08 137.738 56.408 137.738 56.808V60H135.866V53.544H137.654V55.332L137.318 54.792C137.55 54.36 137.882 54.028 138.314 53.796C138.746 53.564 139.238 53.448 139.79 53.448ZM148.123 60V58.74L148.003 58.464V56.208C148.003 55.808 147.879 55.496 147.631 55.272C147.391 55.048 147.019 54.936 146.515 54.936C146.171 54.936 145.831 54.992 145.495 55.104C145.167 55.208 144.887 55.352 144.655 55.536L143.983 54.228C144.335 53.98 144.759 53.788 145.255 53.652C145.751 53.516 146.255 53.448 146.767 53.448C147.751 53.448 148.515 53.68 149.059 54.144C149.603 54.608 149.875 55.332 149.875 56.316V60H148.123ZM146.155 60.096C145.651 60.096 145.219 60.012 144.859 59.844C144.499 59.668 144.223 59.432 144.031 59.136C143.839 58.84 143.743 58.508 143.743 58.14C143.743 57.756 143.835 57.42 144.019 57.132C144.211 56.844 144.511 56.62 144.919 56.46C145.327 56.292 145.859 56.208 146.515 56.208H148.231V57.3H146.719C146.279 57.3 145.975 57.372 145.807 57.516C145.647 57.66 145.567 57.84 145.567 58.056C145.567 58.296 145.659 58.488 145.843 58.632C146.035 58.768 146.295 58.836 146.623 58.836C146.935 58.836 147.215 58.764 147.463 58.62C147.711 58.468 147.891 58.248 148.003 57.96L148.291 58.824C148.155 59.24 147.907 59.556 147.547 59.772C147.187 59.988 146.723 60.096 146.155 60.096ZM151.569 60V51.096H153.441V60H151.569ZM158.382 60.096C157.646 60.096 156.998 59.952 156.438 59.664C155.886 59.376 155.458 58.984 155.154 58.488C154.85 57.984 154.698 57.412 154.698 56.772C154.698 56.124 154.846 55.552 155.142 55.056C155.446 54.552 155.858 54.16 156.378 53.88C156.898 53.592 157.486 53.448 158.142 53.448C158.774 53.448 159.342 53.584 159.846 53.856C160.358 54.12 160.762 54.504 161.058 55.008C161.354 55.504 161.502 56.1 161.502 56.796C161.502 56.868 161.498 56.952 161.49 57.048C161.482 57.136 161.474 57.22 161.466 57.3H156.222V56.208H160.482L159.762 56.532C159.762 56.196 159.694 55.904 159.558 55.656C159.422 55.408 159.234 55.216 158.994 55.08C158.754 54.936 158.474 54.864 158.154 54.864C157.834 54.864 157.55 54.936 157.302 55.08C157.062 55.216 156.874 55.412 156.738 55.668C156.602 55.916 156.534 56.212 156.534 56.556V56.844C156.534 57.196 156.61 57.508 156.762 57.78C156.922 58.044 157.142 58.248 157.422 58.392C157.71 58.528 158.046 58.596 158.43 58.596C158.774 58.596 159.074 58.544 159.33 58.44C159.594 58.336 159.834 58.18 160.05 57.972L161.046 59.052C160.75 59.388 160.378 59.648 159.93 59.832C159.482 60.008 158.966 60.096 158.382 60.096ZM164.921 60.096C164.369 60.096 163.837 60.032 163.325 59.904C162.821 59.768 162.421 59.6 162.125 59.4L162.749 58.056C163.045 58.24 163.393 58.392 163.793 58.512C164.201 58.624 164.601 58.68 164.993 58.68C165.425 58.68 165.729 58.628 165.905 58.524C166.089 58.42 166.181 58.276 166.181 58.092C166.181 57.94 166.109 57.828 165.965 57.756C165.829 57.676 165.645 57.616 165.413 57.576C165.181 57.536 164.925 57.496 164.645 57.456C164.373 57.416 164.097 57.364 163.817 57.3C163.537 57.228 163.281 57.124 163.049 56.988C162.817 56.852 162.629 56.668 162.485 56.436C162.349 56.204 162.281 55.904 162.281 55.536C162.281 55.128 162.397 54.768 162.629 54.456C162.869 54.144 163.213 53.9 163.661 53.724C164.109 53.54 164.645 53.448 165.269 53.448C165.709 53.448 166.157 53.496 166.613 53.592C167.069 53.688 167.449 53.828 167.753 54.012L167.129 55.344C166.817 55.16 166.501 55.036 166.181 54.972C165.869 54.9 165.565 54.864 165.269 54.864C164.853 54.864 164.549 54.92 164.357 55.032C164.165 55.144 164.069 55.288 164.069 55.464C164.069 55.624 164.137 55.744 164.273 55.824C164.417 55.904 164.605 55.968 164.837 56.016C165.069 56.064 165.321 56.108 165.593 56.148C165.873 56.18 166.153 56.232 166.433 56.304C166.713 56.376 166.965 56.48 167.189 56.616C167.421 56.744 167.609 56.924 167.753 57.156C167.897 57.38 167.969 57.676 167.969 58.044C167.969 58.444 167.849 58.8 167.609 59.112C167.369 59.416 167.021 59.656 166.565 59.832C166.117 60.008 165.569 60.096 164.921 60.096Z" fill="#9999AD"/>
<path d="M217.108 44.144C216.436 44.144 215.792 44.056 215.176 43.88C214.56 43.696 214.064 43.46 213.688 43.172L214.348 41.708C214.708 41.964 215.132 42.176 215.62 42.344C216.116 42.504 216.616 42.584 217.12 42.584C217.504 42.584 217.812 42.548 218.044 42.476C218.284 42.396 218.46 42.288 218.572 42.152C218.684 42.016 218.74 41.86 218.74 41.684C218.74 41.46 218.652 41.284 218.476 41.156C218.3 41.02 218.068 40.912 217.78 40.832C217.492 40.744 217.172 40.664 216.82 40.592C216.476 40.512 216.128 40.416 215.776 40.304C215.432 40.192 215.116 40.048 214.828 39.872C214.54 39.696 214.304 39.464 214.12 39.176C213.944 38.888 213.856 38.52 213.856 38.072C213.856 37.592 213.984 37.156 214.24 36.764C214.504 36.364 214.896 36.048 215.416 35.816C215.944 35.576 216.604 35.456 217.396 35.456C217.924 35.456 218.444 35.52 218.956 35.648C219.468 35.768 219.92 35.952 220.312 36.2L219.712 37.676C219.32 37.452 218.928 37.288 218.536 37.184C218.144 37.072 217.76 37.016 217.384 37.016C217.008 37.016 216.7 37.06 216.46 37.148C216.22 37.236 216.048 37.352 215.944 37.496C215.84 37.632 215.788 37.792 215.788 37.976C215.788 38.192 215.876 38.368 216.052 38.504C216.228 38.632 216.46 38.736 216.748 38.816C217.036 38.896 217.352 38.976 217.696 39.056C218.048 39.136 218.396 39.228 218.74 39.332C219.092 39.436 219.412 39.576 219.7 39.752C219.988 39.928 220.22 40.16 220.396 40.448C220.58 40.736 220.672 41.1 220.672 41.54C220.672 42.012 220.54 42.444 220.276 42.836C220.012 43.228 219.616 43.544 219.088 43.784C218.568 44.024 217.908 44.144 217.108 44.144ZM224.94 44.096C224.252 44.096 223.64 43.952 223.104 43.664C222.576 43.376 222.156 42.984 221.844 42.488C221.54 41.984 221.388 41.412 221.388 40.772C221.388 40.124 221.54 39.552 221.844 39.056C222.156 38.552 222.576 38.16 223.104 37.88C223.64 37.592 224.252 37.448 224.94 37.448C225.62 37.448 226.228 37.592 226.764 37.88C227.3 38.16 227.72 38.548 228.024 39.044C228.328 39.54 228.48 40.116 228.48 40.772C228.48 41.412 228.328 41.984 228.024 42.488C227.72 42.984 227.3 43.376 226.764 43.664C226.228 43.952 225.62 44.096 224.94 44.096ZM224.94 42.56C225.252 42.56 225.532 42.488 225.78 42.344C226.028 42.2 226.224 41.996 226.368 41.732C226.512 41.46 226.584 41.14 226.584 40.772C226.584 40.396 226.512 40.076 226.368 39.812C226.224 39.548 226.028 39.344 225.78 39.2C225.532 39.056 225.252 38.984 224.94 38.984C224.628 38.984 224.348 39.056 224.1 39.2C223.852 39.344 223.652 39.548 223.5 39.812C223.356 40.076 223.284 40.396 223.284 40.772C223.284 41.14 223.356 41.46 223.5 41.732C223.652 41.996 223.852 42.2 224.1 42.344C224.348 42.488 224.628 42.56 224.94 42.56ZM233.547 44.096C232.979 44.096 232.491 43.976 232.083 43.736C231.675 43.496 231.363 43.132 231.147 42.644C230.931 42.148 230.823 41.524 230.823 40.772C230.823 40.012 230.935 39.388 231.159 38.9C231.391 38.412 231.711 38.048 232.119 37.808C232.527 37.568 233.003 37.448 233.547 37.448C234.155 37.448 234.699 37.584 235.179 37.856C235.667 38.128 236.051 38.512 236.331 39.008C236.619 39.504 236.763 40.092 236.763 40.772C236.763 41.444 236.619 42.028 236.331 42.524C236.051 43.02 235.667 43.408 235.179 43.688C234.699 43.96 234.155 44.096 233.547 44.096ZM229.731 44V35.096H231.603V38.852L231.483 40.76L231.519 42.68V44H229.731ZM233.223 42.56C233.535 42.56 233.811 42.488 234.051 42.344C234.299 42.2 234.495 41.996 234.639 41.732C234.791 41.46 234.867 41.14 234.867 40.772C234.867 40.396 234.791 40.076 234.639 39.812C234.495 39.548 234.299 39.344 234.051 39.2C233.811 39.056 233.535 38.984 233.223 38.984C232.911 38.984 232.631 39.056 232.383 39.2C232.135 39.344 231.939 39.548 231.795 39.812C231.651 40.076 231.579 40.396 231.579 40.772C231.579 41.14 231.651 41.46 231.795 41.732C231.939 41.996 232.135 42.2 232.383 42.344C232.631 42.488 232.911 42.56 233.223 42.56ZM238.016 44V37.544H239.804V39.368L239.552 38.84C239.744 38.384 240.052 38.04 240.476 37.808C240.9 37.568 241.416 37.448 242.024 37.448V39.176C241.944 39.168 241.872 39.164 241.808 39.164C241.744 39.156 241.676 39.152 241.604 39.152C241.092 39.152 240.676 39.3 240.356 39.596C240.044 39.884 239.888 40.336 239.888 40.952V44H238.016ZM246.295 44.096C245.559 44.096 244.911 43.952 244.351 43.664C243.799 43.376 243.371 42.984 243.067 42.488C242.763 41.984 242.611 41.412 242.611 40.772C242.611 40.124 242.759 39.552 243.055 39.056C243.359 38.552 243.771 38.16 244.291 37.88C244.811 37.592 245.399 37.448 246.055 37.448C246.687 37.448 247.255 37.584 247.759 37.856C248.271 38.12 248.675 38.504 248.971 39.008C249.267 39.504 249.415 40.1 249.415 40.796C249.415 40.868 249.411 40.952 249.403 41.048C249.395 41.136 249.387 41.22 249.379 41.3H244.135V40.208H248.395L247.675 40.532C247.675 40.196 247.607 39.904 247.471 39.656C247.335 39.408 247.147 39.216 246.907 39.08C246.667 38.936 246.387 38.864 246.067 38.864C245.747 38.864 245.463 38.936 245.215 39.08C244.975 39.216 244.787 39.412 244.651 39.668C244.515 39.916 244.447 40.212 244.447 40.556V40.844C244.447 41.196 244.523 41.508 244.675 41.78C244.835 42.044 245.055 42.248 245.335 42.392C245.623 42.528 245.959 42.596 246.343 42.596C246.687 42.596 246.987 42.544 247.243 42.44C247.507 42.336 247.747 42.18 247.963 41.972L248.959 43.052C248.663 43.388 248.291 43.648 247.843 43.832C247.395 44.008 246.879 44.096 246.295 44.096ZM256.699 44.096C255.939 44.096 255.347 43.904 254.923 43.52C254.499 43.128 254.287 42.548 254.287 41.78V36.116H256.159V41.756C256.159 42.028 256.231 42.24 256.375 42.392C256.519 42.536 256.715 42.608 256.963 42.608C257.259 42.608 257.511 42.528 257.719 42.368L258.223 43.688C258.031 43.824 257.799 43.928 257.527 44C257.263 44.064 256.987 44.096 256.699 44.096ZM253.291 39.128V37.688H257.767V39.128H253.291ZM261.998 44.096C261.462 44.096 260.982 43.992 260.558 43.784C260.142 43.576 259.818 43.26 259.586 42.836C259.354 42.404 259.238 41.856 259.238 41.192V37.544H261.11V40.916C261.11 41.452 261.222 41.848 261.446 42.104C261.678 42.352 262.002 42.476 262.418 42.476C262.706 42.476 262.962 42.416 263.186 42.296C263.41 42.168 263.586 41.976 263.714 41.72C263.842 41.456 263.906 41.128 263.906 40.736V37.544H265.778V44H264.002V42.224L264.326 42.74C264.11 43.188 263.79 43.528 263.366 43.76C262.95 43.984 262.494 44.096 261.998 44.096ZM216.842 60.096C216.298 60.096 215.822 59.976 215.414 59.736C215.006 59.496 214.686 59.132 214.454 58.644C214.23 58.148 214.118 57.524 214.118 56.772C214.118 56.012 214.226 55.388 214.442 54.9C214.658 54.412 214.97 54.048 215.378 53.808C215.786 53.568 216.274 53.448 216.842 53.448C217.45 53.448 217.994 53.588 218.474 53.868C218.962 54.14 219.346 54.524 219.626 55.02C219.914 55.516 220.058 56.1 220.058 56.772C220.058 57.452 219.914 58.04 219.626 58.536C219.346 59.032 218.962 59.416 218.474 59.688C217.994 59.96 217.45 60.096 216.842 60.096ZM213.026 62.328V53.544H214.814V54.864L214.778 56.784L214.898 58.692V62.328H213.026ZM216.518 58.56C216.83 58.56 217.106 58.488 217.346 58.344C217.594 58.2 217.79 57.996 217.934 57.732C218.086 57.46 218.162 57.14 218.162 56.772C218.162 56.396 218.086 56.076 217.934 55.812C217.79 55.548 217.594 55.344 217.346 55.2C217.106 55.056 216.83 54.984 216.518 54.984C216.206 54.984 215.926 55.056 215.678 55.2C215.43 55.344 215.234 55.548 215.09 55.812C214.946 56.076 214.874 56.396 214.874 56.772C214.874 57.14 214.946 57.46 215.09 57.732C215.234 57.996 215.43 58.2 215.678 58.344C215.926 58.488 216.206 58.56 216.518 58.56ZM221.311 60V53.544H223.099V55.368L222.847 54.84C223.039 54.384 223.347 54.04 223.771 53.808C224.195 53.568 224.711 53.448 225.319 53.448V55.176C225.239 55.168 225.167 55.164 225.103 55.164C225.039 55.156 224.971 55.152 224.899 55.152C224.387 55.152 223.971 55.3 223.651 55.596C223.339 55.884 223.183 56.336 223.183 56.952V60H221.311ZM229.457 60.096C228.769 60.096 228.157 59.952 227.621 59.664C227.093 59.376 226.673 58.984 226.361 58.488C226.057 57.984 225.905 57.412 225.905 56.772C225.905 56.124 226.057 55.552 226.361 55.056C226.673 54.552 227.093 54.16 227.621 53.88C228.157 53.592 228.769 53.448 229.457 53.448C230.137 53.448 230.745 53.592 231.281 53.88C231.817 54.16 232.237 54.548 232.541 55.044C232.845 55.54 232.997 56.116 232.997 56.772C232.997 57.412 232.845 57.984 232.541 58.488C232.237 58.984 231.817 59.376 231.281 59.664C230.745 59.952 230.137 60.096 229.457 60.096ZM229.457 58.56C229.769 58.56 230.049 58.488 230.297 58.344C230.545 58.2 230.741 57.996 230.885 57.732C231.029 57.46 231.101 57.14 231.101 56.772C231.101 56.396 231.029 56.076 230.885 55.812C230.741 55.548 230.545 55.344 230.297 55.2C230.049 55.056 229.769 54.984 229.457 54.984C229.145 54.984 228.865 55.056 228.617 55.2C228.369 55.344 228.169 55.548 228.017 55.812C227.873 56.076 227.801 56.396 227.801 56.772C227.801 57.14 227.873 57.46 228.017 57.732C228.169 57.996 228.369 58.2 228.617 58.344C228.865 58.488 229.145 58.56 229.457 58.56ZM234.889 62.424C234.553 62.424 234.221 62.372 233.893 62.268C233.565 62.164 233.297 62.02 233.089 61.836L233.773 60.504C233.917 60.632 234.081 60.732 234.265 60.804C234.457 60.876 234.645 60.912 234.829 60.912C235.093 60.912 235.301 60.848 235.453 60.72C235.613 60.6 235.757 60.396 235.885 60.108L236.221 59.316L236.365 59.112L238.681 53.544H240.481L237.565 60.396C237.357 60.916 237.117 61.324 236.845 61.62C236.581 61.916 236.285 62.124 235.957 62.244C235.637 62.364 235.281 62.424 234.889 62.424ZM235.993 60.252L233.113 53.544H235.045L237.277 58.944L235.993 60.252ZM244.273 60.096C243.537 60.096 242.889 59.952 242.329 59.664C241.777 59.376 241.349 58.984 241.045 58.488C240.741 57.984 240.589 57.412 240.589 56.772C240.589 56.124 240.737 55.552 241.033 55.056C241.337 54.552 241.749 54.16 242.269 53.88C242.789 53.592 243.377 53.448 244.033 53.448C244.665 53.448 245.233 53.584 245.737 53.856C246.249 54.12 246.653 54.504 246.949 55.008C247.245 55.504 247.393 56.1 247.393 56.796C247.393 56.868 247.389 56.952 247.381 57.048C247.373 57.136 247.365 57.22 247.357 57.3H242.113V56.208H246.373L245.653 56.532C245.653 56.196 245.585 55.904 245.449 55.656C245.313 55.408 245.125 55.216 244.885 55.08C244.645 54.936 244.365 54.864 244.045 54.864C243.725 54.864 243.441 54.936 243.193 55.08C242.953 55.216 242.765 55.412 242.629 55.668C242.493 55.916 242.425 56.212 242.425 56.556V56.844C242.425 57.196 242.501 57.508 242.653 57.78C242.813 58.044 243.033 58.248 243.313 58.392C243.601 58.528 243.937 58.596 244.321 58.596C244.665 58.596 244.965 58.544 245.221 58.44C245.485 58.336 245.725 58.18 245.941 57.972L246.937 59.052C246.641 59.388 246.269 59.648 245.821 59.832C245.373 60.008 244.857 60.096 244.273 60.096ZM251.759 60.096C251.063 60.096 250.443 59.956 249.899 59.676C249.355 59.388 248.927 58.992 248.615 58.488C248.311 57.984 248.159 57.412 248.159 56.772C248.159 56.124 248.311 55.552 248.615 55.056C248.927 54.552 249.355 54.16 249.899 53.88C250.443 53.592 251.063 53.448 251.759 53.448C252.439 53.448 253.031 53.592 253.535 53.88C254.039 54.16 254.411 54.564 254.651 55.092L253.199 55.872C253.031 55.568 252.819 55.344 252.563 55.2C252.315 55.056 252.043 54.984 251.747 54.984C251.427 54.984 251.139 55.056 250.883 55.2C250.627 55.344 250.423 55.548 250.271 55.812C250.127 56.076 250.055 56.396 250.055 56.772C250.055 57.148 250.127 57.468 250.271 57.732C250.423 57.996 250.627 58.2 250.883 58.344C251.139 58.488 251.427 58.56 251.747 58.56C252.043 58.56 252.315 58.492 252.563 58.356C252.819 58.212 253.031 57.984 253.199 57.672L254.651 58.464C254.411 58.984 254.039 59.388 253.535 59.676C253.031 59.956 252.439 60.096 251.759 60.096ZM258.463 60.096C257.703 60.096 257.111 59.904 256.687 59.52C256.263 59.128 256.051 58.548 256.051 57.78V52.116H257.923V57.756C257.923 58.028 257.995 58.24 258.139 58.392C258.283 58.536 258.479 58.608 258.727 58.608C259.023 58.608 259.275 58.528 259.483 58.368L259.987 59.688C259.795 59.824 259.563 59.928 259.291 60C259.027 60.064 258.751 60.096 258.463 60.096ZM255.055 55.128V53.688H259.531V55.128H255.055ZM263.911 60.096C263.223 60.096 262.611 59.952 262.075 59.664C261.547 59.376 261.127 58.984 260.815 58.488C260.511 57.984 260.359 57.412 260.359 56.772C260.359 56.124 260.511 55.552 260.815 55.056C261.127 54.552 261.547 54.16 262.075 53.88C262.611 53.592 263.223 53.448 263.911 53.448C264.591 53.448 265.199 53.592 265.735 53.88C266.271 54.16 266.691 54.548 266.995 55.044C267.299 55.54 267.451 56.116 267.451 56.772C267.451 57.412 267.299 57.984 266.995 58.488C266.691 58.984 266.271 59.376 265.735 59.664C265.199 59.952 264.591 60.096 263.911 60.096ZM263.911 58.56C264.223 58.56 264.503 58.488 264.751 58.344C264.999 58.2 265.195 57.996 265.339 57.732C265.483 57.46 265.555 57.14 265.555 56.772C265.555 56.396 265.483 56.076 265.339 55.812C265.195 55.548 264.999 55.344 264.751 55.2C264.503 55.056 264.223 54.984 263.911 54.984C263.599 54.984 263.319 55.056 263.071 55.2C262.823 55.344 262.623 55.548 262.471 55.812C262.327 56.076 262.255 56.396 262.255 56.772C262.255 57.14 262.327 57.46 262.471 57.732C262.623 57.996 262.823 58.2 263.071 58.344C263.319 58.488 263.599 58.56 263.911 58.56Z" fill="#9999AD"/>
<rect x="15" width="24" height="24" rx="8" fill="#100FA8"/>
<path d="M25.939 16.0058L25.9232 8.32583L26.765 9.16411L24.245 9.16927L24.2418 7.60928L27.8658 7.60185L27.883 16.0018L25.939 16.0058Z" fill="white"/>
<line x1="43" y1="11.75" x2="81" y2="11.75" stroke="#100FA8" stroke-width="0.5"/>
<line x1="81" y1="11.75" x2="119" y2="11.75" stroke="#CCCCD6" stroke-width="0.5"/>
<rect x="123" width="24" height="24" rx="8" fill="#CCCCD6"/>
<path d="M131.882 15.9982L131.879 14.7382L135.113 11.6716C135.368 11.4391 135.556 11.2307 135.675 11.0464C135.795 10.8622 135.875 10.694 135.914 10.5419C135.962 10.3898 135.986 10.2498 135.985 10.1218C135.985 9.78579 135.868 9.53003 135.636 9.35451C135.412 9.17097 135.079 9.07965 134.639 9.08055C134.287 9.08127 133.96 9.14994 133.656 9.28657C133.36 9.42317 133.108 9.63569 132.901 9.92412L131.483 9.01502C131.802 8.53436 132.249 8.15345 132.825 7.87227C133.4 7.59109 134.064 7.44973 134.816 7.44819C135.44 7.44691 135.984 7.54979 136.449 7.75684C136.921 7.95587 137.286 8.23912 137.542 8.6066C137.807 8.97406 137.94 9.41379 137.941 9.92578C137.942 10.1978 137.906 10.4699 137.835 10.742C137.771 11.0061 137.636 11.2864 137.428 11.5828C137.229 11.8792 136.934 12.2119 136.543 12.5807L133.86 15.1182L133.486 14.4109L138.226 14.4012L138.23 15.9852L131.882 15.9982Z" fill="#9999AD"/>
<line x1="151" y1="11.75" x2="227" y2="11.75" stroke="#CCCCD6" stroke-width="0.5"/>
<rect x="231" width="24" height="24" rx="8" fill="#CCCCD6"/>
<path d="M242.666 16.1365C242.082 16.1377 241.502 16.0629 240.926 15.9121C240.349 15.7533 239.861 15.5303 239.46 15.2431L240.213 13.7535C240.534 13.9849 240.906 14.1681 241.33 14.3032C241.755 14.4384 242.183 14.5055 242.615 14.5046C243.103 14.5036 243.487 14.4068 243.766 14.2143C244.046 14.0217 244.185 13.7574 244.185 13.4214C244.184 13.1014 244.059 12.8496 243.811 12.6662C243.563 12.4827 243.162 12.3915 242.61 12.3926L241.722 12.3944L241.72 11.1104L244.054 8.45365L244.272 9.1492L239.868 9.15823L239.865 7.59823L245.745 7.58618L245.747 8.84618L243.425 11.5029L242.439 10.941L243.003 10.9398C244.035 10.9377 244.816 11.1681 245.345 11.631C245.874 12.0939 246.139 12.6894 246.141 13.4174C246.142 13.8894 246.018 14.3336 245.771 14.7501C245.524 15.1587 245.145 15.4914 244.633 15.7485C244.122 16.0055 243.466 16.1349 242.666 16.1365Z" fill="#9999AD"/>
</svg>
