<svg width="939" height="82" viewBox="0 0 939 82" fill="none" xmlns="http://www.w3.org/2000/svg">
<path d="M10.3 63V71.5L3.34 63H0.66V77H3.86V68.5L10.84 77H13.5V63H10.3ZM24.3123 66.24V71.56C24.3123 73.54 23.2723 74.46 21.8323 74.46C20.4523 74.46 19.6523 73.66 19.6523 71.86V66.24H16.5323V72.32C16.5323 75.64 18.4323 77.16 21.1323 77.16C22.4523 77.16 23.6523 76.66 24.4723 75.72V77H27.4323V66.24H24.3123ZM40.8628 71.66C40.8628 68.2 38.4228 66.08 35.2628 66.08C31.9828 66.08 29.5228 68.4 29.5228 71.62C29.5228 74.82 31.9428 77.16 35.6628 77.16C37.6028 77.16 39.1028 76.56 40.1028 75.42L38.4428 73.62C37.7028 74.32 36.8828 74.66 35.7428 74.66C34.1028 74.66 32.9628 73.84 32.6628 72.5H40.8028C40.8228 72.24 40.8628 71.9 40.8628 71.66ZM35.2828 68.44C36.6828 68.44 37.7028 69.32 37.9228 70.68H32.6228C32.8428 69.3 33.8628 68.44 35.2828 68.44ZM46.56 77.16C49.78 77.16 51.64 75.74 51.64 73.74C51.64 69.5 45.14 71.28 45.14 69.44C45.14 68.88 45.74 68.44 47.14 68.44C48.12 68.44 49.18 68.64 50.24 69.24L51.28 67.02C50.26 66.42 48.62 66.08 47.14 66.08C44 66.08 42.16 67.52 42.16 69.56C42.16 73.86 48.66 72.06 48.66 73.82C48.66 74.42 48.12 74.8 46.68 74.8C45.36 74.8 43.9 74.38 42.94 73.76L41.9 76C42.9 76.66 44.74 77.16 46.56 77.16ZM59.665 74.28C59.325 74.54 58.865 74.68 58.405 74.68C57.565 74.68 57.065 74.18 57.065 73.26V68.88H59.745V66.48H57.065V63.86H53.945V66.48H52.285V68.88H53.945V73.3C53.945 75.86 55.425 77.16 57.965 77.16C58.925 77.16 59.865 76.94 60.505 76.48L59.665 74.28ZM65.2364 67.66V66.24H62.2564V77H65.3764V71.92C65.3764 69.86 66.5164 68.92 68.2364 68.92C68.4764 68.92 68.6764 68.94 68.9364 68.96V66.08C67.2764 66.08 65.9964 66.62 65.2364 67.66ZM75.8139 77.16C79.2339 77.16 81.7139 74.86 81.7139 71.62C81.7139 68.38 79.2339 66.08 75.8139 66.08C72.3939 66.08 69.8939 68.38 69.8939 71.62C69.8939 74.86 72.3939 77.16 75.8139 77.16ZM75.8139 74.6C74.2539 74.6 73.0539 73.48 73.0539 71.62C73.0539 69.76 74.2539 68.64 75.8139 68.64C77.3739 68.64 78.5539 69.76 78.5539 71.62C78.5539 73.48 77.3739 74.6 75.8139 74.6ZM87.4194 77.16C90.6394 77.16 92.4994 75.74 92.4994 73.74C92.4994 69.5 85.9994 71.28 85.9994 69.44C85.9994 68.88 86.5994 68.44 87.9994 68.44C88.9794 68.44 90.0394 68.64 91.0994 69.24L92.1394 67.02C91.1194 66.42 89.4794 66.08 87.9994 66.08C84.8594 66.08 83.0194 67.52 83.0194 69.56C83.0194 73.86 89.5194 72.06 89.5194 73.82C89.5194 74.42 88.9794 74.8 87.5394 74.8C86.2194 74.8 84.7594 74.38 83.7994 73.76L82.7594 76C83.7594 76.66 85.5994 77.16 87.4194 77.16ZM104.908 77.24C108.908 77.24 110.848 75.24 110.848 72.9C110.848 67.76 102.708 69.54 102.708 66.96C102.708 66.08 103.448 65.36 105.368 65.36C106.608 65.36 107.948 65.72 109.248 66.46L110.248 64C108.948 63.18 107.148 62.76 105.388 62.76C101.408 62.76 99.4884 64.74 99.4884 67.12C99.4884 72.32 107.628 70.52 107.628 73.14C107.628 74 106.848 74.64 104.928 74.64C103.248 74.64 101.488 74.04 100.308 73.18L99.2084 75.62C100.448 76.58 102.688 77.24 104.908 77.24ZM123.382 71.66C123.382 68.2 120.942 66.08 117.782 66.08C114.502 66.08 112.042 68.4 112.042 71.62C112.042 74.82 114.462 77.16 118.182 77.16C120.122 77.16 121.622 76.56 122.622 75.42L120.962 73.62C120.222 74.32 119.402 74.66 118.262 74.66C116.622 74.66 115.482 73.84 115.182 72.5H123.322C123.342 72.24 123.382 71.9 123.382 71.66ZM117.802 68.44C119.202 68.44 120.222 69.32 120.442 70.68H115.142C115.362 69.3 116.382 68.44 117.802 68.44ZM128.44 67.66V66.24H125.46V77H128.58V71.92C128.58 69.86 129.72 68.92 131.44 68.92C131.68 68.92 131.88 68.94 132.14 68.96V66.08C130.48 66.08 129.2 66.62 128.44 67.66ZM142.046 66.24L138.966 73.56L135.986 66.24H132.766L137.286 77H140.506L145.046 66.24H142.046ZM147.879 64.74C149.039 64.74 149.819 63.98 149.819 62.94C149.819 61.98 149.039 61.26 147.879 61.26C146.719 61.26 145.939 62.02 145.939 63C145.939 63.98 146.719 64.74 147.879 64.74ZM146.319 77H149.439V66.24H146.319V77ZM157.535 77.16C159.795 77.16 161.575 76.16 162.355 74.44L159.935 73.12C159.355 74.16 158.495 74.6 157.515 74.6C155.935 74.6 154.695 73.5 154.695 71.62C154.695 69.74 155.935 68.64 157.515 68.64C158.495 68.64 159.355 69.1 159.935 70.12L162.355 68.82C161.575 67.06 159.795 66.08 157.535 66.08C154.035 66.08 151.535 68.38 151.535 71.62C151.535 74.86 154.035 77.16 157.535 77.16ZM165.711 64.74C166.871 64.74 167.651 63.98 167.651 62.94C167.651 61.98 166.871 61.26 165.711 61.26C164.551 61.26 163.771 62.02 163.771 63C163.771 63.98 164.551 64.74 165.711 64.74ZM164.151 77H167.271V66.24H164.151V77ZM175.287 77.16C178.707 77.16 181.187 74.86 181.187 71.62C181.187 68.38 178.707 66.08 175.287 66.08C171.867 66.08 169.367 68.38 169.367 71.62C169.367 74.86 171.867 77.16 175.287 77.16ZM175.287 74.6C173.727 74.6 172.527 73.48 172.527 71.62C172.527 69.76 173.727 68.64 175.287 68.64C176.847 68.64 178.027 69.76 178.027 71.62C178.027 73.48 176.847 74.6 175.287 74.6ZM186.892 77.16C190.112 77.16 191.972 75.74 191.972 73.74C191.972 69.5 185.472 71.28 185.472 69.44C185.472 68.88 186.072 68.44 187.472 68.44C188.452 68.44 189.512 68.64 190.572 69.24L191.612 67.02C190.592 66.42 188.952 66.08 187.472 66.08C184.332 66.08 182.492 67.52 182.492 69.56C182.492 73.86 188.992 72.06 188.992 73.82C188.992 74.42 188.452 74.8 187.012 74.8C185.692 74.8 184.232 74.38 183.272 73.76L182.232 76C183.232 76.66 185.072 77.16 186.892 77.16Z" fill="#100FA8"/>
<path d="M382.66 77V63H389.02C390.54 63 391.88 63.2933 393.04 63.88C394.2 64.4533 395.107 65.26 395.76 66.3C396.413 67.34 396.74 68.5733 396.74 70C396.74 71.4133 396.413 72.6467 395.76 73.7C395.107 74.74 394.2 75.5533 393.04 76.14C391.88 76.7133 390.54 77 389.02 77H382.66ZM385.9 74.34H388.86C389.793 74.34 390.6 74.1667 391.28 73.82C391.973 73.46 392.507 72.9533 392.88 72.3C393.267 71.6467 393.46 70.88 393.46 70C393.46 69.1067 393.267 68.34 392.88 67.7C392.507 67.0467 391.973 66.5467 391.28 66.2C390.6 65.84 389.793 65.66 388.86 65.66H385.9V74.34ZM405.563 77V74.9L405.363 74.44V70.68C405.363 70.0133 405.157 69.4933 404.743 69.12C404.343 68.7467 403.723 68.56 402.883 68.56C402.31 68.56 401.743 68.6533 401.183 68.84C400.637 69.0133 400.17 69.2533 399.783 69.56L398.663 67.38C399.25 66.9667 399.957 66.6467 400.783 66.42C401.61 66.1933 402.45 66.08 403.303 66.08C404.943 66.08 406.217 66.4667 407.123 67.24C408.03 68.0133 408.483 69.22 408.483 70.86V77H405.563ZM402.283 77.16C401.443 77.16 400.723 77.02 400.123 76.74C399.523 76.4467 399.063 76.0533 398.743 75.56C398.423 75.0667 398.263 74.5133 398.263 73.9C398.263 73.26 398.417 72.7 398.723 72.22C399.043 71.74 399.543 71.3667 400.223 71.1C400.903 70.82 401.79 70.68 402.883 70.68H405.743V72.5H403.223C402.49 72.5 401.983 72.62 401.703 72.86C401.437 73.1 401.303 73.4 401.303 73.76C401.303 74.16 401.457 74.48 401.763 74.72C402.083 74.9467 402.517 75.06 403.063 75.06C403.583 75.06 404.05 74.94 404.463 74.7C404.877 74.4467 405.177 74.08 405.363 73.6L405.843 75.04C405.617 75.7333 405.203 76.26 404.603 76.62C404.003 76.98 403.23 77.16 402.283 77.16ZM415.707 77.16C414.441 77.16 413.454 76.84 412.747 76.2C412.041 75.5467 411.687 74.58 411.687 73.3V63.86H414.807V73.26C414.807 73.7133 414.927 74.0667 415.167 74.32C415.407 74.56 415.734 74.68 416.147 74.68C416.641 74.68 417.061 74.5467 417.407 74.28L418.247 76.48C417.927 76.7067 417.541 76.88 417.087 77C416.647 77.1067 416.187 77.16 415.707 77.16ZM410.027 68.88V66.48H417.487V68.88H410.027ZM424.787 77.16C423.64 77.16 422.62 76.92 421.727 76.44C420.847 75.96 420.147 75.3067 419.627 74.48C419.12 73.64 418.867 72.6867 418.867 71.62C418.867 70.54 419.12 69.5867 419.627 68.76C420.147 67.92 420.847 67.2667 421.727 66.8C422.62 66.32 423.64 66.08 424.787 66.08C425.92 66.08 426.933 66.32 427.827 66.8C428.72 67.2667 429.42 67.9133 429.927 68.74C430.433 69.5667 430.687 70.5267 430.687 71.62C430.687 72.6867 430.433 73.64 429.927 74.48C429.42 75.3067 428.72 75.96 427.827 76.44C426.933 76.92 425.92 77.16 424.787 77.16ZM424.787 74.6C425.307 74.6 425.773 74.48 426.187 74.24C426.6 74 426.927 73.66 427.167 73.22C427.407 72.7667 427.527 72.2333 427.527 71.62C427.527 70.9933 427.407 70.46 427.167 70.02C426.927 69.58 426.6 69.24 426.187 69C425.773 68.76 425.307 68.64 424.787 68.64C424.267 68.64 423.8 68.76 423.387 69C422.973 69.24 422.64 69.58 422.387 70.02C422.147 70.46 422.027 70.9933 422.027 71.62C422.027 72.2333 422.147 72.7667 422.387 73.22C422.64 73.66 422.973 74 423.387 74.24C423.8 74.48 424.267 74.6 424.787 74.6ZM436.392 77.16C435.472 77.16 434.585 77.0533 433.732 76.84C432.892 76.6133 432.225 76.3333 431.732 76L432.772 73.76C433.265 74.0667 433.845 74.32 434.512 74.52C435.192 74.7067 435.859 74.8 436.512 74.8C437.232 74.8 437.739 74.7133 438.032 74.54C438.339 74.3667 438.492 74.1267 438.492 73.82C438.492 73.5667 438.372 73.38 438.132 73.26C437.905 73.1267 437.599 73.0267 437.212 72.96C436.825 72.8933 436.399 72.8267 435.932 72.76C435.479 72.6933 435.019 72.6067 434.552 72.5C434.085 72.38 433.659 72.2067 433.272 71.98C432.885 71.7533 432.572 71.4467 432.332 71.06C432.105 70.6733 431.992 70.1733 431.992 69.56C431.992 68.88 432.185 68.28 432.572 67.76C432.972 67.24 433.545 66.8333 434.292 66.54C435.039 66.2333 435.932 66.08 436.972 66.08C437.705 66.08 438.452 66.16 439.212 66.32C439.972 66.48 440.605 66.7133 441.112 67.02L440.072 69.24C439.552 68.9333 439.025 68.7267 438.492 68.62C437.972 68.5 437.465 68.44 436.972 68.44C436.279 68.44 435.772 68.5333 435.452 68.72C435.132 68.9067 434.972 69.1467 434.972 69.44C434.972 69.7067 435.085 69.9067 435.312 70.04C435.552 70.1733 435.865 70.28 436.252 70.36C436.639 70.44 437.059 70.5133 437.512 70.58C437.979 70.6333 438.445 70.72 438.912 70.84C439.379 70.96 439.799 71.1333 440.172 71.36C440.559 71.5733 440.872 71.8733 441.112 72.26C441.352 72.6333 441.472 73.1267 441.472 73.74C441.472 74.4067 441.272 75 440.872 75.52C440.472 76.0267 439.892 76.4267 439.132 76.72C438.385 77.0133 437.472 77.16 436.392 77.16ZM455.421 77.16C454.514 77.16 453.721 76.96 453.041 76.56C452.361 76.16 451.828 75.5533 451.441 74.74C451.068 73.9133 450.881 72.8733 450.881 71.62C450.881 70.3533 451.061 69.3133 451.421 68.5C451.781 67.6867 452.301 67.08 452.981 66.68C453.661 66.28 454.474 66.08 455.421 66.08C456.434 66.08 457.341 66.3133 458.141 66.78C458.954 67.2333 459.594 67.8733 460.061 68.7C460.541 69.5267 460.781 70.5 460.781 71.62C460.781 72.7533 460.541 73.7333 460.061 74.56C459.594 75.3867 458.954 76.0267 458.141 76.48C457.341 76.9333 456.434 77.16 455.421 77.16ZM449.061 80.88V66.24H452.041V68.44L451.981 71.64L452.181 74.82V80.88H449.061ZM454.881 74.6C455.401 74.6 455.861 74.48 456.261 74.24C456.674 74 457.001 73.66 457.241 73.22C457.494 72.7667 457.621 72.2333 457.621 71.62C457.621 70.9933 457.494 70.46 457.241 70.02C457.001 69.58 456.674 69.24 456.261 69C455.861 68.76 455.401 68.64 454.881 68.64C454.361 68.64 453.894 68.76 453.481 69C453.068 69.24 452.741 69.58 452.501 70.02C452.261 70.46 452.141 70.9933 452.141 71.62C452.141 72.2333 452.261 72.7667 452.501 73.22C452.741 73.66 453.068 74 453.481 74.24C453.894 74.48 454.361 74.6 454.881 74.6ZM468.21 77.16C466.983 77.16 465.903 76.92 464.97 76.44C464.05 75.96 463.336 75.3067 462.83 74.48C462.323 73.64 462.07 72.6867 462.07 71.62C462.07 70.54 462.316 69.5867 462.81 68.76C463.316 67.92 464.003 67.2667 464.87 66.8C465.736 66.32 466.716 66.08 467.81 66.08C468.863 66.08 469.81 66.3067 470.65 66.76C471.503 67.2 472.176 67.84 472.67 68.68C473.163 69.5067 473.41 70.5 473.41 71.66C473.41 71.78 473.403 71.92 473.39 72.08C473.376 72.2267 473.363 72.3667 473.35 72.5H464.61V70.68H471.71L470.51 71.22C470.51 70.66 470.396 70.1733 470.17 69.76C469.943 69.3467 469.63 69.0267 469.23 68.8C468.83 68.56 468.363 68.44 467.83 68.44C467.296 68.44 466.823 68.56 466.41 68.8C466.01 69.0267 465.696 69.3533 465.47 69.78C465.243 70.1933 465.13 70.6867 465.13 71.26V71.74C465.13 72.3267 465.256 72.8467 465.51 73.3C465.776 73.74 466.143 74.08 466.61 74.32C467.09 74.5467 467.65 74.66 468.29 74.66C468.863 74.66 469.363 74.5733 469.79 74.4C470.23 74.2267 470.63 73.9667 470.99 73.62L472.65 75.42C472.156 75.98 471.536 76.4133 470.79 76.72C470.043 77.0133 469.183 77.16 468.21 77.16ZM475.487 77V66.24H478.467V69.28L478.047 68.4C478.367 67.64 478.88 67.0667 479.587 66.68C480.294 66.28 481.154 66.08 482.167 66.08V68.96C482.034 68.9467 481.914 68.94 481.807 68.94C481.7 68.9267 481.587 68.92 481.467 68.92C480.614 68.92 479.92 69.1667 479.387 69.66C478.867 70.14 478.607 70.8933 478.607 71.92V77H475.487ZM487.72 77.16C486.8 77.16 485.913 77.0533 485.06 76.84C484.22 76.6133 483.553 76.3333 483.06 76L484.1 73.76C484.593 74.0667 485.173 74.32 485.84 74.52C486.52 74.7067 487.187 74.8 487.84 74.8C488.56 74.8 489.067 74.7133 489.36 74.54C489.667 74.3667 489.82 74.1267 489.82 73.82C489.82 73.5667 489.7 73.38 489.46 73.26C489.233 73.1267 488.927 73.0267 488.54 72.96C488.153 72.8933 487.727 72.8267 487.26 72.76C486.807 72.6933 486.347 72.6067 485.88 72.5C485.413 72.38 484.987 72.2067 484.6 71.98C484.213 71.7533 483.9 71.4467 483.66 71.06C483.433 70.6733 483.32 70.1733 483.32 69.56C483.32 68.88 483.513 68.28 483.9 67.76C484.3 67.24 484.873 66.8333 485.62 66.54C486.367 66.2333 487.26 66.08 488.3 66.08C489.033 66.08 489.78 66.16 490.54 66.32C491.3 66.48 491.933 66.7133 492.44 67.02L491.4 69.24C490.88 68.9333 490.353 68.7267 489.82 68.62C489.3 68.5 488.793 68.44 488.3 68.44C487.607 68.44 487.1 68.5333 486.78 68.72C486.46 68.9067 486.3 69.1467 486.3 69.44C486.3 69.7067 486.413 69.9067 486.64 70.04C486.88 70.1733 487.193 70.28 487.58 70.36C487.967 70.44 488.387 70.5133 488.84 70.58C489.307 70.6333 489.773 70.72 490.24 70.84C490.707 70.96 491.127 71.1333 491.5 71.36C491.887 71.5733 492.2 71.8733 492.44 72.26C492.68 72.6333 492.8 73.1267 492.8 73.74C492.8 74.4067 492.6 75 492.2 75.52C491.8 76.0267 491.22 76.4267 490.46 76.72C489.713 77.0133 488.8 77.16 487.72 77.16ZM499.845 77.16C498.698 77.16 497.678 76.92 496.785 76.44C495.905 75.96 495.205 75.3067 494.685 74.48C494.178 73.64 493.925 72.6867 493.925 71.62C493.925 70.54 494.178 69.5867 494.685 68.76C495.205 67.92 495.905 67.2667 496.785 66.8C497.678 66.32 498.698 66.08 499.845 66.08C500.978 66.08 501.992 66.32 502.885 66.8C503.778 67.2667 504.478 67.9133 504.985 68.74C505.492 69.5667 505.745 70.5267 505.745 71.62C505.745 72.6867 505.492 73.64 504.985 74.48C504.478 75.3067 503.778 75.96 502.885 76.44C501.992 76.92 500.978 77.16 499.845 77.16ZM499.845 74.6C500.365 74.6 500.832 74.48 501.245 74.24C501.658 74 501.985 73.66 502.225 73.22C502.465 72.7667 502.585 72.2333 502.585 71.62C502.585 70.9933 502.465 70.46 502.225 70.02C501.985 69.58 501.658 69.24 501.245 69C500.832 68.76 500.365 68.64 499.845 68.64C499.325 68.64 498.858 68.76 498.445 69C498.032 69.24 497.698 69.58 497.445 70.02C497.205 70.46 497.085 70.9933 497.085 71.62C497.085 72.2333 497.205 72.7667 497.445 73.22C497.698 73.66 498.032 74 498.445 74.24C498.858 74.48 499.325 74.6 499.845 74.6ZM514.371 66.08C515.224 66.08 515.984 66.2533 516.651 66.6C517.331 66.9333 517.864 67.4533 518.251 68.16C518.637 68.8533 518.831 69.7467 518.831 70.84V77H515.711V71.32C515.711 70.4533 515.517 69.8133 515.131 69.4C514.757 68.9867 514.224 68.78 513.531 68.78C513.037 68.78 512.591 68.8867 512.191 69.1C511.804 69.3 511.497 69.6133 511.271 70.04C511.057 70.4667 510.951 71.0133 510.951 71.68V77H507.831V66.24H510.811V69.22L510.251 68.32C510.637 67.6 511.191 67.0467 511.911 66.66C512.631 66.2733 513.451 66.08 514.371 66.08ZM528.259 77V74.9L528.059 74.44V70.68C528.059 70.0133 527.852 69.4933 527.439 69.12C527.039 68.7467 526.419 68.56 525.579 68.56C525.005 68.56 524.439 68.6533 523.879 68.84C523.332 69.0133 522.865 69.2533 522.479 69.56L521.359 67.38C521.945 66.9667 522.652 66.6467 523.479 66.42C524.305 66.1933 525.145 66.08 525.999 66.08C527.639 66.08 528.912 66.4667 529.819 67.24C530.725 68.0133 531.179 69.22 531.179 70.86V77H528.259ZM524.979 77.16C524.139 77.16 523.419 77.02 522.819 76.74C522.219 76.4467 521.759 76.0533 521.439 75.56C521.119 75.0667 520.959 74.5133 520.959 73.9C520.959 73.26 521.112 72.7 521.419 72.22C521.739 71.74 522.239 71.3667 522.919 71.1C523.599 70.82 524.485 70.68 525.579 70.68H528.439V72.5H525.919C525.185 72.5 524.679 72.62 524.399 72.86C524.132 73.1 523.999 73.4 523.999 73.76C523.999 74.16 524.152 74.48 524.459 74.72C524.779 74.9467 525.212 75.06 525.759 75.06C526.279 75.06 526.745 74.94 527.159 74.7C527.572 74.4467 527.872 74.08 528.059 73.6L528.539 75.04C528.312 75.7333 527.899 76.26 527.299 76.62C526.699 76.98 525.925 77.16 524.979 77.16ZM534.003 77V62.16H537.123V77H534.003ZM545.358 77.16C544.131 77.16 543.051 76.92 542.118 76.44C541.198 75.96 540.485 75.3067 539.978 74.48C539.471 73.64 539.218 72.6867 539.218 71.62C539.218 70.54 539.465 69.5867 539.958 68.76C540.465 67.92 541.151 67.2667 542.018 66.8C542.885 66.32 543.865 66.08 544.958 66.08C546.011 66.08 546.958 66.3067 547.798 66.76C548.651 67.2 549.325 67.84 549.818 68.68C550.311 69.5067 550.558 70.5 550.558 71.66C550.558 71.78 550.551 71.92 550.538 72.08C550.525 72.2267 550.511 72.3667 550.498 72.5H541.758V70.68H548.858L547.658 71.22C547.658 70.66 547.545 70.1733 547.318 69.76C547.091 69.3467 546.778 69.0267 546.378 68.8C545.978 68.56 545.511 68.44 544.978 68.44C544.445 68.44 543.971 68.56 543.558 68.8C543.158 69.0267 542.845 69.3533 542.618 69.78C542.391 70.1933 542.278 70.6867 542.278 71.26V71.74C542.278 72.3267 542.405 72.8467 542.658 73.3C542.925 73.74 543.291 74.08 543.758 74.32C544.238 74.5467 544.798 74.66 545.438 74.66C546.011 74.66 546.511 74.5733 546.938 74.4C547.378 74.2267 547.778 73.9667 548.138 73.62L549.798 75.42C549.305 75.98 548.685 76.4133 547.938 76.72C547.191 77.0133 546.331 77.16 545.358 77.16ZM556.255 77.16C555.335 77.16 554.449 77.0533 553.595 76.84C552.755 76.6133 552.089 76.3333 551.595 76L552.635 73.76C553.129 74.0667 553.709 74.32 554.375 74.52C555.055 74.7067 555.722 74.8 556.375 74.8C557.095 74.8 557.602 74.7133 557.895 74.54C558.202 74.3667 558.355 74.1267 558.355 73.82C558.355 73.5667 558.235 73.38 557.995 73.26C557.769 73.1267 557.462 73.0267 557.075 72.96C556.689 72.8933 556.262 72.8267 555.795 72.76C555.342 72.6933 554.882 72.6067 554.415 72.5C553.949 72.38 553.522 72.2067 553.135 71.98C552.749 71.7533 552.435 71.4467 552.195 71.06C551.969 70.6733 551.855 70.1733 551.855 69.56C551.855 68.88 552.049 68.28 552.435 67.76C552.835 67.24 553.409 66.8333 554.155 66.54C554.902 66.2333 555.795 66.08 556.835 66.08C557.569 66.08 558.315 66.16 559.075 66.32C559.835 66.48 560.469 66.7133 560.975 67.02L559.935 69.24C559.415 68.9333 558.889 68.7267 558.355 68.62C557.835 68.5 557.329 68.44 556.835 68.44C556.142 68.44 555.635 68.5333 555.315 68.72C554.995 68.9067 554.835 69.1467 554.835 69.44C554.835 69.7067 554.949 69.9067 555.175 70.04C555.415 70.1733 555.729 70.28 556.115 70.36C556.502 70.44 556.922 70.5133 557.375 70.58C557.842 70.6333 558.309 70.72 558.775 70.84C559.242 70.96 559.662 71.1333 560.035 71.36C560.422 71.5733 560.735 71.8733 560.975 72.26C561.215 72.6333 561.335 73.1267 561.335 73.74C561.335 74.4067 561.135 75 560.735 75.52C560.335 76.0267 559.755 76.4267 558.995 76.72C558.249 77.0133 557.335 77.16 556.255 77.16Z" fill="#9999AD"/>
<path d="M758.26 77.24C757.14 77.24 756.067 77.0933 755.04 76.8C754.013 76.4933 753.187 76.1 752.56 75.62L753.66 73.18C754.26 73.6067 754.967 73.96 755.78 74.24C756.607 74.5067 757.44 74.64 758.28 74.64C758.92 74.64 759.433 74.58 759.82 74.46C760.22 74.3267 760.513 74.1467 760.7 73.92C760.887 73.6933 760.98 73.4333 760.98 73.14C760.98 72.7667 760.833 72.4733 760.54 72.26C760.247 72.0333 759.86 71.8533 759.38 71.72C758.9 71.5733 758.367 71.44 757.78 71.32C757.207 71.1867 756.627 71.0267 756.04 70.84C755.467 70.6533 754.94 70.4133 754.46 70.12C753.98 69.8267 753.587 69.44 753.28 68.96C752.987 68.48 752.84 67.8667 752.84 67.12C752.84 66.32 753.053 65.5933 753.48 64.94C753.92 64.2733 754.573 63.7467 755.44 63.36C756.32 62.96 757.42 62.76 758.74 62.76C759.62 62.76 760.487 62.8667 761.34 63.08C762.193 63.28 762.947 63.5867 763.6 64L762.6 66.46C761.947 66.0867 761.293 65.8133 760.64 65.64C759.987 65.4533 759.347 65.36 758.72 65.36C758.093 65.36 757.58 65.4333 757.18 65.58C756.78 65.7267 756.493 65.92 756.32 66.16C756.147 66.3867 756.06 66.6533 756.06 66.96C756.06 67.32 756.207 67.6133 756.5 67.84C756.793 68.0533 757.18 68.2267 757.66 68.36C758.14 68.4933 758.667 68.6267 759.24 68.76C759.827 68.8933 760.407 69.0467 760.98 69.22C761.567 69.3933 762.1 69.6267 762.58 69.92C763.06 70.2133 763.447 70.6 763.74 71.08C764.047 71.56 764.2 72.1667 764.2 72.9C764.2 73.6867 763.98 74.4067 763.54 75.06C763.1 75.7133 762.44 76.24 761.56 76.64C760.693 77.04 759.593 77.24 758.26 77.24ZM771.314 77.16C770.167 77.16 769.147 76.92 768.254 76.44C767.374 75.96 766.674 75.3067 766.154 74.48C765.647 73.64 765.394 72.6867 765.394 71.62C765.394 70.54 765.647 69.5867 766.154 68.76C766.674 67.92 767.374 67.2667 768.254 66.8C769.147 66.32 770.167 66.08 771.314 66.08C772.447 66.08 773.461 66.32 774.354 66.8C775.247 67.2667 775.947 67.9133 776.454 68.74C776.961 69.5667 777.214 70.5267 777.214 71.62C777.214 72.6867 776.961 73.64 776.454 74.48C775.947 75.3067 775.247 75.96 774.354 76.44C773.461 76.92 772.447 77.16 771.314 77.16ZM771.314 74.6C771.834 74.6 772.301 74.48 772.714 74.24C773.127 74 773.454 73.66 773.694 73.22C773.934 72.7667 774.054 72.2333 774.054 71.62C774.054 70.9933 773.934 70.46 773.694 70.02C773.454 69.58 773.127 69.24 772.714 69C772.301 68.76 771.834 68.64 771.314 68.64C770.794 68.64 770.327 68.76 769.914 69C769.501 69.24 769.167 69.58 768.914 70.02C768.674 70.46 768.554 70.9933 768.554 71.62C768.554 72.2333 768.674 72.7667 768.914 73.22C769.167 73.66 769.501 74 769.914 74.24C770.327 74.48 770.794 74.6 771.314 74.6ZM785.659 77.16C784.713 77.16 783.899 76.96 783.219 76.56C782.539 76.16 782.019 75.5533 781.659 74.74C781.299 73.9133 781.119 72.8733 781.119 71.62C781.119 70.3533 781.306 69.3133 781.679 68.5C782.066 67.6867 782.599 67.08 783.279 66.68C783.959 66.28 784.753 66.08 785.659 66.08C786.673 66.08 787.579 66.3067 788.379 66.76C789.193 67.2133 789.833 67.8533 790.299 68.68C790.779 69.5067 791.019 70.4867 791.019 71.62C791.019 72.74 790.779 73.7133 790.299 74.54C789.833 75.3667 789.193 76.0133 788.379 76.48C787.579 76.9333 786.673 77.16 785.659 77.16ZM779.299 77V62.16H782.419V68.42L782.219 71.6L782.279 74.8V77H779.299ZM785.119 74.6C785.639 74.6 786.099 74.48 786.499 74.24C786.913 74 787.239 73.66 787.479 73.22C787.733 72.7667 787.859 72.2333 787.859 71.62C787.859 70.9933 787.733 70.46 787.479 70.02C787.239 69.58 786.913 69.24 786.499 69C786.099 68.76 785.639 68.64 785.119 68.64C784.599 68.64 784.133 68.76 783.719 69C783.306 69.24 782.979 69.58 782.739 70.02C782.499 70.46 782.379 70.9933 782.379 71.62C782.379 72.2333 782.499 72.7667 782.739 73.22C782.979 73.66 783.306 74 783.719 74.24C784.133 74.48 784.599 74.6 785.119 74.6ZM793.108 77V66.24H796.088V69.28L795.668 68.4C795.988 67.64 796.501 67.0667 797.208 66.68C797.915 66.28 798.775 66.08 799.788 66.08V68.96C799.655 68.9467 799.535 68.94 799.428 68.94C799.321 68.9267 799.208 68.92 799.088 68.92C798.235 68.92 797.541 69.1667 797.008 69.66C796.488 70.14 796.228 70.8933 796.228 71.92V77H793.108ZM806.905 77.16C805.678 77.16 804.598 76.92 803.665 76.44C802.745 75.96 802.032 75.3067 801.525 74.48C801.018 73.64 800.765 72.6867 800.765 71.62C800.765 70.54 801.012 69.5867 801.505 68.76C802.012 67.92 802.698 67.2667 803.565 66.8C804.432 66.32 805.412 66.08 806.505 66.08C807.558 66.08 808.505 66.3067 809.345 66.76C810.198 67.2 810.872 67.84 811.365 68.68C811.858 69.5067 812.105 70.5 812.105 71.66C812.105 71.78 812.098 71.92 812.085 72.08C812.072 72.2267 812.058 72.3667 812.045 72.5H803.305V70.68H810.405L809.205 71.22C809.205 70.66 809.092 70.1733 808.865 69.76C808.638 69.3467 808.325 69.0267 807.925 68.8C807.525 68.56 807.058 68.44 806.525 68.44C805.992 68.44 805.518 68.56 805.105 68.8C804.705 69.0267 804.392 69.3533 804.165 69.78C803.938 70.1933 803.825 70.6867 803.825 71.26V71.74C803.825 72.3267 803.952 72.8467 804.205 73.3C804.472 73.74 804.838 74.08 805.305 74.32C805.785 74.5467 806.345 74.66 806.985 74.66C807.558 74.66 808.058 74.5733 808.485 74.4C808.925 74.2267 809.325 73.9667 809.685 73.62L811.345 75.42C810.852 75.98 810.232 76.4133 809.485 76.72C808.738 77.0133 807.878 77.16 806.905 77.16ZM824.246 77.16C822.98 77.16 821.993 76.84 821.286 76.2C820.58 75.5467 820.226 74.58 820.226 73.3V63.86H823.346V73.26C823.346 73.7133 823.466 74.0667 823.706 74.32C823.946 74.56 824.273 74.68 824.686 74.68C825.18 74.68 825.6 74.5467 825.946 74.28L826.786 76.48C826.466 76.7067 826.08 76.88 825.626 77C825.186 77.1067 824.726 77.16 824.246 77.16ZM818.566 68.88V66.48H826.026V68.88H818.566ZM833.078 77.16C832.184 77.16 831.384 76.9867 830.678 76.64C829.984 76.2933 829.444 75.7667 829.058 75.06C828.671 74.34 828.478 73.4267 828.478 72.32V66.24H831.598V71.86C831.598 72.7533 831.784 73.4133 832.158 73.84C832.544 74.2533 833.084 74.46 833.778 74.46C834.258 74.46 834.684 74.36 835.058 74.16C835.431 73.9467 835.724 73.6267 835.938 73.2C836.151 72.76 836.258 72.2133 836.258 71.56V66.24H839.378V77H836.418V74.04L836.958 74.9C836.598 75.6467 836.064 76.2133 835.358 76.6C834.664 76.9733 833.904 77.16 833.078 77.16ZM854.292 77.16C853.386 77.16 852.592 76.96 851.912 76.56C851.232 76.16 850.699 75.5533 850.312 74.74C849.939 73.9133 849.752 72.8733 849.752 71.62C849.752 70.3533 849.932 69.3133 850.292 68.5C850.652 67.6867 851.172 67.08 851.852 66.68C852.532 66.28 853.346 66.08 854.292 66.08C855.306 66.08 856.212 66.3133 857.012 66.78C857.826 67.2333 858.466 67.8733 858.932 68.7C859.412 69.5267 859.652 70.5 859.652 71.62C859.652 72.7533 859.412 73.7333 858.932 74.56C858.466 75.3867 857.826 76.0267 857.012 76.48C856.212 76.9333 855.306 77.16 854.292 77.16ZM847.932 80.88V66.24H850.912V68.44L850.852 71.64L851.052 74.82V80.88H847.932ZM853.752 74.6C854.272 74.6 854.732 74.48 855.132 74.24C855.546 74 855.872 73.66 856.112 73.22C856.366 72.7667 856.492 72.2333 856.492 71.62C856.492 70.9933 856.366 70.46 856.112 70.02C855.872 69.58 855.546 69.24 855.132 69C854.732 68.76 854.272 68.64 853.752 68.64C853.232 68.64 852.766 68.76 852.352 69C851.939 69.24 851.612 69.58 851.372 70.02C851.132 70.46 851.012 70.9933 851.012 71.62C851.012 72.2333 851.132 72.7667 851.372 73.22C851.612 73.66 851.939 74 852.352 74.24C852.766 74.48 853.232 74.6 853.752 74.6ZM861.741 77V66.24H864.721V69.28L864.301 68.4C864.621 67.64 865.134 67.0667 865.841 66.68C866.547 66.28 867.407 66.08 868.421 66.08V68.96C868.287 68.9467 868.167 68.94 868.061 68.94C867.954 68.9267 867.841 68.92 867.721 68.92C866.867 68.92 866.174 69.1667 865.641 69.66C865.121 70.14 864.861 70.8933 864.861 71.92V77H861.741ZM875.318 77.16C874.171 77.16 873.151 76.92 872.258 76.44C871.378 75.96 870.678 75.3067 870.158 74.48C869.651 73.64 869.398 72.6867 869.398 71.62C869.398 70.54 869.651 69.5867 870.158 68.76C870.678 67.92 871.378 67.2667 872.258 66.8C873.151 66.32 874.171 66.08 875.318 66.08C876.451 66.08 877.464 66.32 878.358 66.8C879.251 67.2667 879.951 67.9133 880.458 68.74C880.964 69.5667 881.218 70.5267 881.218 71.62C881.218 72.6867 880.964 73.64 880.458 74.48C879.951 75.3067 879.251 75.96 878.358 76.44C877.464 76.92 876.451 77.16 875.318 77.16ZM875.318 74.6C875.838 74.6 876.304 74.48 876.718 74.24C877.131 74 877.458 73.66 877.698 73.22C877.938 72.7667 878.058 72.2333 878.058 71.62C878.058 70.9933 877.938 70.46 877.698 70.02C877.458 69.58 877.131 69.24 876.718 69C876.304 68.76 875.838 68.64 875.318 68.64C874.798 68.64 874.331 68.76 873.918 69C873.504 69.24 873.171 69.58 872.918 70.02C872.678 70.46 872.558 70.9933 872.558 71.62C872.558 72.2333 872.678 72.7667 872.918 73.22C873.171 73.66 873.504 74 873.918 74.24C874.331 74.48 874.798 74.6 875.318 74.6ZM884.37 81.04C883.81 81.04 883.257 80.9533 882.71 80.78C882.164 80.6067 881.717 80.3667 881.37 80.06L882.51 77.84C882.75 78.0533 883.024 78.22 883.33 78.34C883.65 78.46 883.964 78.52 884.27 78.52C884.71 78.52 885.057 78.4133 885.31 78.2C885.577 78 885.817 77.66 886.03 77.18L886.59 75.86L886.83 75.52L890.69 66.24H893.69L888.83 77.66C888.484 78.5267 888.084 79.2067 887.63 79.7C887.19 80.1933 886.697 80.54 886.15 80.74C885.617 80.94 885.024 81.04 884.37 81.04ZM886.21 77.42L881.41 66.24H884.63L888.35 75.24L886.21 77.42ZM900.01 77.16C898.784 77.16 897.704 76.92 896.77 76.44C895.85 75.96 895.137 75.3067 894.63 74.48C894.124 73.64 893.87 72.6867 893.87 71.62C893.87 70.54 894.117 69.5867 894.61 68.76C895.117 67.92 895.804 67.2667 896.67 66.8C897.537 66.32 898.517 66.08 899.61 66.08C900.664 66.08 901.61 66.3067 902.45 66.76C903.304 67.2 903.977 67.84 904.47 68.68C904.964 69.5067 905.21 70.5 905.21 71.66C905.21 71.78 905.204 71.92 905.19 72.08C905.177 72.2267 905.164 72.3667 905.15 72.5H896.41V70.68H903.51L902.31 71.22C902.31 70.66 902.197 70.1733 901.97 69.76C901.744 69.3467 901.43 69.0267 901.03 68.8C900.63 68.56 900.164 68.44 899.63 68.44C899.097 68.44 898.624 68.56 898.21 68.8C897.81 69.0267 897.497 69.3533 897.27 69.78C897.044 70.1933 896.93 70.6867 896.93 71.26V71.74C896.93 72.3267 897.057 72.8467 897.31 73.3C897.577 73.74 897.944 74.08 898.41 74.32C898.89 74.5467 899.45 74.66 900.09 74.66C900.664 74.66 901.164 74.5733 901.59 74.4C902.03 74.2267 902.43 73.9667 902.79 73.62L904.45 75.42C903.957 75.98 903.337 76.4133 902.59 76.72C901.844 77.0133 900.984 77.16 900.01 77.16ZM912.488 77.16C911.328 77.16 910.294 76.9267 909.388 76.46C908.481 75.98 907.768 75.32 907.248 74.48C906.741 73.64 906.488 72.6867 906.488 71.62C906.488 70.54 906.741 69.5867 907.248 68.76C907.768 67.92 908.481 67.2667 909.388 66.8C910.294 66.32 911.328 66.08 912.488 66.08C913.621 66.08 914.608 66.32 915.448 66.8C916.288 67.2667 916.908 67.94 917.308 68.82L914.888 70.12C914.608 69.6133 914.254 69.24 913.828 69C913.414 68.76 912.961 68.64 912.468 68.64C911.934 68.64 911.454 68.76 911.028 69C910.601 69.24 910.261 69.58 910.008 70.02C909.768 70.46 909.648 70.9933 909.648 71.62C909.648 72.2467 909.768 72.78 910.008 73.22C910.261 73.66 910.601 74 911.028 74.24C911.454 74.48 911.934 74.6 912.468 74.6C912.961 74.6 913.414 74.4867 913.828 74.26C914.254 74.02 914.608 73.64 914.888 73.12L917.308 74.44C916.908 75.3067 916.288 75.98 915.448 76.46C914.608 76.9267 913.621 77.16 912.488 77.16ZM923.66 77.16C922.394 77.16 921.407 76.84 920.7 76.2C919.994 75.5467 919.64 74.58 919.64 73.3V63.86H922.76V73.26C922.76 73.7133 922.88 74.0667 923.12 74.32C923.36 74.56 923.687 74.68 924.1 74.68C924.594 74.68 925.014 74.5467 925.36 74.28L926.2 76.48C925.88 76.7067 925.494 76.88 925.04 77C924.6 77.1067 924.14 77.16 923.66 77.16ZM917.98 68.88V66.48H925.44V68.88H917.98ZM932.74 77.16C931.593 77.16 930.573 76.92 929.68 76.44C928.8 75.96 928.1 75.3067 927.58 74.48C927.073 73.64 926.82 72.6867 926.82 71.62C926.82 70.54 927.073 69.5867 927.58 68.76C928.1 67.92 928.8 67.2667 929.68 66.8C930.573 66.32 931.593 66.08 932.74 66.08C933.873 66.08 934.886 66.32 935.78 66.8C936.673 67.2667 937.373 67.9133 937.88 68.74C938.386 69.5667 938.64 70.5267 938.64 71.62C938.64 72.6867 938.386 73.64 937.88 74.48C937.373 75.3067 936.673 75.96 935.78 76.44C934.886 76.92 933.873 77.16 932.74 77.16ZM932.74 74.6C933.26 74.6 933.726 74.48 934.14 74.24C934.553 74 934.88 73.66 935.12 73.22C935.36 72.7667 935.48 72.2333 935.48 71.62C935.48 70.9933 935.36 70.46 935.12 70.02C934.88 69.58 934.553 69.24 934.14 69C933.726 68.76 933.26 68.64 932.74 68.64C932.22 68.64 931.753 68.76 931.34 69C930.926 69.24 930.593 69.58 930.34 70.02C930.1 70.46 929.98 70.9933 929.98 71.62C929.98 72.2333 930.1 72.7667 930.34 73.22C930.593 73.66 930.926 74 931.34 74.24C931.753 74.48 932.22 74.6 932.74 74.6Z" fill="#9999AD"/>
<rect x="74" width="40" height="40" rx="8" fill="#100FA8"/>
<path d="M92.9789 27.0096L92.9527 14.2096L94.3556 15.6067L90.1556 15.6153L90.1502 13.0153L96.1902 13.0029L96.2189 27.0029L92.9789 27.0096Z" fill="white"/>
<line x1="282" y1="21.5137" x2="122" y2="21.5137" stroke="#100FA8"/>
<line x1="442" y1="21.5137" x2="282" y2="21.5137" stroke="#CCCCD6"/>
<rect x="450" width="40" height="40" rx="8" fill="#CCCCD6"/>
<path d="M464.699 27.0142L464.695 24.9142L470.084 19.8032C470.51 19.4156 470.823 19.0683 471.022 18.7613C471.221 18.4542 471.354 18.1739 471.42 17.9204C471.5 17.6669 471.539 17.4335 471.539 17.2202C471.538 16.6602 471.344 16.2339 470.956 15.9414C470.582 15.6355 470.029 15.4833 469.295 15.4848C468.709 15.486 468.162 15.6004 467.656 15.8281C467.163 16.0558 466.744 16.41 466.398 16.8907L464.035 15.3756C464.567 14.5745 465.312 13.9396 466.271 13.471C467.23 13.0023 468.336 12.7667 469.59 12.7642C470.63 12.762 471.537 12.9335 472.311 13.2786C473.098 13.6103 473.706 14.0824 474.134 14.6949C474.575 15.3073 474.796 16.0402 474.798 16.8935C474.799 17.3468 474.74 17.8003 474.621 18.2539C474.515 18.6941 474.29 19.1612 473.944 19.6553C473.612 20.1493 473.119 20.7036 472.467 21.3183L467.996 25.5475L467.374 24.3687L475.274 24.3526L475.279 26.9925L464.699 27.0142Z" fill="#9999AD"/>
<line x1="818" y1="21.5137" x2="498" y2="21.5137" stroke="#CCCCD6"/>
<rect x="826" width="40" height="40" rx="8" fill="#CCCCD6"/>
<path d="M845.359 27.2447C844.386 27.2467 843.419 27.122 842.459 26.8706C841.498 26.6059 840.684 26.2343 840.016 25.7556L841.271 23.2731C841.805 23.6586 842.426 23.964 843.133 24.1892C843.84 24.4145 844.554 24.5263 845.274 24.5248C846.087 24.5232 846.727 24.3619 847.193 24.0409C847.659 23.72 847.891 23.2795 847.89 22.7195C847.889 22.1862 847.682 21.7666 847.268 21.4608C846.854 21.1549 846.187 21.003 845.267 21.0049L843.787 21.0079L843.782 18.8679L847.673 14.4399L848.036 15.5992L840.696 15.6142L840.69 13.0142L850.49 12.9941L850.495 15.0941L846.624 19.5221L844.982 18.5854L845.922 18.5835C847.642 18.58 848.942 18.964 849.824 19.7355C850.706 20.507 851.148 21.4995 851.15 22.7128C851.152 23.4995 850.947 24.2399 850.535 24.9341C850.123 25.6149 849.491 26.1695 848.638 26.598C847.786 27.0264 846.693 27.2419 845.359 27.2447Z" fill="#9999AD"/>
</svg>
