<svg width="942" height="82" viewBox="0 0 942 82" fill="none" xmlns="http://www.w3.org/2000/svg">
<path d="M11.8 63V71.5L4.84 63H2.16V77H5.36V68.5L12.34 77H15V63H11.8ZM25.8123 66.24V71.56C25.8123 73.54 24.7723 74.46 23.3323 74.46C21.9523 74.46 21.1523 73.66 21.1523 71.86V66.24H18.0323V72.32C18.0323 75.64 19.9323 77.16 22.6323 77.16C23.9523 77.16 25.1523 76.66 25.9723 75.72V77H28.9323V66.24H25.8123ZM42.3628 71.66C42.3628 68.2 39.9228 66.08 36.7628 66.08C33.4828 66.08 31.0228 68.4 31.0228 71.62C31.0228 74.82 33.4428 77.16 37.1628 77.16C39.1028 77.16 40.6028 76.56 41.6028 75.42L39.9428 73.62C39.2028 74.32 38.3828 74.66 37.2428 74.66C35.6028 74.66 34.4628 73.84 34.1628 72.5H42.3028C42.3228 72.24 42.3628 71.9 42.3628 71.66ZM36.7828 68.44C38.1828 68.44 39.2028 69.32 39.4228 70.68H34.1228C34.3428 69.3 35.3628 68.44 36.7828 68.44ZM48.06 77.16C51.28 77.16 53.14 75.74 53.14 73.74C53.14 69.5 46.64 71.28 46.64 69.44C46.64 68.88 47.24 68.44 48.64 68.44C49.62 68.44 50.68 68.64 51.74 69.24L52.78 67.02C51.76 66.42 50.12 66.08 48.64 66.08C45.5 66.08 43.66 67.52 43.66 69.56C43.66 73.86 50.16 72.06 50.16 73.82C50.16 74.42 49.62 74.8 48.18 74.8C46.86 74.8 45.4 74.38 44.44 73.76L43.4 76C44.4 76.66 46.24 77.16 48.06 77.16ZM61.165 74.28C60.825 74.54 60.365 74.68 59.905 74.68C59.065 74.68 58.565 74.18 58.565 73.26V68.88H61.245V66.48H58.565V63.86H55.445V66.48H53.785V68.88H55.445V73.3C55.445 75.86 56.925 77.16 59.465 77.16C60.425 77.16 61.365 76.94 62.005 76.48L61.165 74.28ZM66.7364 67.66V66.24H63.7564V77H66.8764V71.92C66.8764 69.86 68.0164 68.92 69.7364 68.92C69.9764 68.92 70.1764 68.94 70.4364 68.96V66.08C68.7764 66.08 67.4964 66.62 66.7364 67.66ZM77.3139 77.16C80.7339 77.16 83.2139 74.86 83.2139 71.62C83.2139 68.38 80.7339 66.08 77.3139 66.08C73.8939 66.08 71.3939 68.38 71.3939 71.62C71.3939 74.86 73.8939 77.16 77.3139 77.16ZM77.3139 74.6C75.7539 74.6 74.5539 73.48 74.5539 71.62C74.5539 69.76 75.7539 68.64 77.3139 68.64C78.8739 68.64 80.0539 69.76 80.0539 71.62C80.0539 73.48 78.8739 74.6 77.3139 74.6ZM88.9194 77.16C92.1394 77.16 93.9994 75.74 93.9994 73.74C93.9994 69.5 87.4994 71.28 87.4994 69.44C87.4994 68.88 88.0994 68.44 89.4994 68.44C90.4794 68.44 91.5394 68.64 92.5994 69.24L93.6394 67.02C92.6194 66.42 90.9794 66.08 89.4994 66.08C86.3594 66.08 84.5194 67.52 84.5194 69.56C84.5194 73.86 91.0194 72.06 91.0194 73.82C91.0194 74.42 90.4794 74.8 89.0394 74.8C87.7194 74.8 86.2594 74.38 85.2994 73.76L84.2594 76C85.2594 76.66 87.0994 77.16 88.9194 77.16ZM106.408 77.24C110.408 77.24 112.348 75.24 112.348 72.9C112.348 67.76 104.208 69.54 104.208 66.96C104.208 66.08 104.948 65.36 106.868 65.36C108.108 65.36 109.448 65.72 110.748 66.46L111.748 64C110.448 63.18 108.648 62.76 106.888 62.76C102.908 62.76 100.988 64.74 100.988 67.12C100.988 72.32 109.128 70.52 109.128 73.14C109.128 74 108.348 74.64 106.428 74.64C104.748 74.64 102.988 74.04 101.808 73.18L100.708 75.62C101.948 76.58 104.188 77.24 106.408 77.24ZM124.882 71.66C124.882 68.2 122.442 66.08 119.282 66.08C116.002 66.08 113.542 68.4 113.542 71.62C113.542 74.82 115.962 77.16 119.682 77.16C121.622 77.16 123.122 76.56 124.122 75.42L122.462 73.62C121.722 74.32 120.902 74.66 119.762 74.66C118.122 74.66 116.982 73.84 116.682 72.5H124.822C124.842 72.24 124.882 71.9 124.882 71.66ZM119.302 68.44C120.702 68.44 121.722 69.32 121.942 70.68H116.642C116.862 69.3 117.882 68.44 119.302 68.44ZM129.94 67.66V66.24H126.96V77H130.08V71.92C130.08 69.86 131.22 68.92 132.94 68.92C133.18 68.92 133.38 68.94 133.64 68.96V66.08C131.98 66.08 130.7 66.62 129.94 67.66ZM143.546 66.24L140.466 73.56L137.486 66.24H134.266L138.786 77H142.006L146.546 66.24H143.546ZM149.379 64.74C150.539 64.74 151.319 63.98 151.319 62.94C151.319 61.98 150.539 61.26 149.379 61.26C148.219 61.26 147.439 62.02 147.439 63C147.439 63.98 148.219 64.74 149.379 64.74ZM147.819 77H150.939V66.24H147.819V77ZM159.035 77.16C161.295 77.16 163.075 76.16 163.855 74.44L161.435 73.12C160.855 74.16 159.995 74.6 159.015 74.6C157.435 74.6 156.195 73.5 156.195 71.62C156.195 69.74 157.435 68.64 159.015 68.64C159.995 68.64 160.855 69.1 161.435 70.12L163.855 68.82C163.075 67.06 161.295 66.08 159.035 66.08C155.535 66.08 153.035 68.38 153.035 71.62C153.035 74.86 155.535 77.16 159.035 77.16ZM167.211 64.74C168.371 64.74 169.151 63.98 169.151 62.94C169.151 61.98 168.371 61.26 167.211 61.26C166.051 61.26 165.271 62.02 165.271 63C165.271 63.98 166.051 64.74 167.211 64.74ZM165.651 77H168.771V66.24H165.651V77ZM176.787 77.16C180.207 77.16 182.687 74.86 182.687 71.62C182.687 68.38 180.207 66.08 176.787 66.08C173.367 66.08 170.867 68.38 170.867 71.62C170.867 74.86 173.367 77.16 176.787 77.16ZM176.787 74.6C175.227 74.6 174.027 73.48 174.027 71.62C174.027 69.76 175.227 68.64 176.787 68.64C178.347 68.64 179.527 69.76 179.527 71.62C179.527 73.48 178.347 74.6 176.787 74.6ZM188.392 77.16C191.612 77.16 193.472 75.74 193.472 73.74C193.472 69.5 186.972 71.28 186.972 69.44C186.972 68.88 187.572 68.44 188.972 68.44C189.952 68.44 191.012 68.64 192.072 69.24L193.112 67.02C192.092 66.42 190.452 66.08 188.972 66.08C185.832 66.08 183.992 67.52 183.992 69.56C183.992 73.86 190.492 72.06 190.492 73.82C190.492 74.42 189.952 74.8 188.512 74.8C187.192 74.8 185.732 74.38 184.772 73.76L183.732 76C184.732 76.66 186.572 77.16 188.392 77.16Z" fill="#100FA8"/>
<path d="M384.16 77H390.52C395.1 77 398.24 74.24 398.24 70C398.24 65.76 395.1 63 390.52 63H384.16V77ZM387.4 74.34V65.66H390.36C393.14 65.66 394.96 67.32 394.96 70C394.96 72.68 393.14 74.34 390.36 74.34H387.4ZM404.803 66.08C403.083 66.08 401.343 66.54 400.163 67.38L401.283 69.56C402.063 68.94 403.243 68.56 404.383 68.56C406.063 68.56 406.863 69.34 406.863 70.68H404.383C401.103 70.68 399.763 72 399.763 73.9C399.763 75.76 401.263 77.16 403.783 77.16C405.363 77.16 406.483 76.64 407.063 75.66V77H409.983V70.86C409.983 67.6 408.083 66.08 404.803 66.08ZM404.563 75.06C403.463 75.06 402.803 74.54 402.803 73.76C402.803 73.04 403.263 72.5 404.723 72.5H406.863V73.6C406.503 74.58 405.603 75.06 404.563 75.06ZM418.907 74.28C418.567 74.54 418.107 74.68 417.647 74.68C416.807 74.68 416.307 74.18 416.307 73.26V68.88H418.987V66.48H416.307V63.86H413.187V66.48H411.527V68.88H413.187V73.3C413.187 75.86 414.667 77.16 417.207 77.16C418.167 77.16 419.107 76.94 419.747 76.48L418.907 74.28ZM426.287 77.16C429.707 77.16 432.187 74.86 432.187 71.62C432.187 68.38 429.707 66.08 426.287 66.08C422.867 66.08 420.367 68.38 420.367 71.62C420.367 74.86 422.867 77.16 426.287 77.16ZM426.287 74.6C424.727 74.6 423.527 73.48 423.527 71.62C423.527 69.76 424.727 68.64 426.287 68.64C427.847 68.64 429.027 69.76 429.027 71.62C429.027 73.48 427.847 74.6 426.287 74.6ZM437.892 77.16C441.112 77.16 442.972 75.74 442.972 73.74C442.972 69.5 436.472 71.28 436.472 69.44C436.472 68.88 437.072 68.44 438.472 68.44C439.452 68.44 440.512 68.64 441.572 69.24L442.612 67.02C441.592 66.42 439.952 66.08 438.472 66.08C435.332 66.08 433.492 67.52 433.492 69.56C433.492 73.86 439.992 72.06 439.992 73.82C439.992 74.42 439.452 74.8 438.012 74.8C436.692 74.8 435.232 74.38 434.272 73.76L433.232 76C434.232 76.66 436.072 77.16 437.892 77.16ZM456.921 66.08C455.481 66.08 454.321 66.54 453.541 67.48V66.24H450.561V80.88H453.681V75.86C454.481 76.74 455.581 77.16 456.921 77.16C459.941 77.16 462.281 75 462.281 71.62C462.281 68.24 459.941 66.08 456.921 66.08ZM456.381 74.6C454.821 74.6 453.641 73.48 453.641 71.62C453.641 69.76 454.821 68.64 456.381 68.64C457.941 68.64 459.121 69.76 459.121 71.62C459.121 73.48 457.941 74.6 456.381 74.6ZM474.91 71.66C474.91 68.2 472.47 66.08 469.31 66.08C466.03 66.08 463.57 68.4 463.57 71.62C463.57 74.82 465.99 77.16 469.71 77.16C471.65 77.16 473.15 76.56 474.15 75.42L472.49 73.62C471.75 74.32 470.93 74.66 469.79 74.66C468.15 74.66 467.01 73.84 466.71 72.5H474.85C474.87 72.24 474.91 71.9 474.91 71.66ZM469.33 68.44C470.73 68.44 471.75 69.32 471.97 70.68H466.67C466.89 69.3 467.91 68.44 469.33 68.44ZM479.967 67.66V66.24H476.987V77H480.107V71.92C480.107 69.86 481.247 68.92 482.967 68.92C483.207 68.92 483.407 68.94 483.667 68.96V66.08C482.007 66.08 480.727 66.62 479.967 67.66ZM489.181 77.16C492.401 77.16 494.261 75.74 494.261 73.74C494.261 69.5 487.761 71.28 487.761 69.44C487.761 68.88 488.361 68.44 489.761 68.44C490.741 68.44 491.801 68.64 492.861 69.24L493.901 67.02C492.881 66.42 491.241 66.08 489.761 66.08C486.621 66.08 484.781 67.52 484.781 69.56C484.781 73.86 491.281 72.06 491.281 73.82C491.281 74.42 490.741 74.8 489.301 74.8C487.981 74.8 486.521 74.38 485.561 73.76L484.521 76C485.521 76.66 487.361 77.16 489.181 77.16ZM501.306 77.16C504.726 77.16 507.206 74.86 507.206 71.62C507.206 68.38 504.726 66.08 501.306 66.08C497.886 66.08 495.386 68.38 495.386 71.62C495.386 74.86 497.886 77.16 501.306 77.16ZM501.306 74.6C499.746 74.6 498.546 73.48 498.546 71.62C498.546 69.76 499.746 68.64 501.306 68.64C502.866 68.64 504.046 69.76 504.046 71.62C504.046 73.48 502.866 74.6 501.306 74.6ZM515.832 66.08C514.372 66.08 513.112 66.58 512.272 67.5V66.24H509.292V77H512.412V71.68C512.412 69.7 513.492 68.78 514.992 68.78C516.372 68.78 517.172 69.58 517.172 71.32V77H520.292V70.84C520.292 67.56 518.372 66.08 515.832 66.08ZM527.46 66.08C525.74 66.08 524 66.54 522.82 67.38L523.94 69.56C524.72 68.94 525.9 68.56 527.04 68.56C528.72 68.56 529.52 69.34 529.52 70.68H527.04C523.76 70.68 522.42 72 522.42 73.9C522.42 75.76 523.92 77.16 526.44 77.16C528.02 77.16 529.14 76.64 529.72 75.66V77H532.64V70.86C532.64 67.6 530.74 66.08 527.46 66.08ZM527.22 75.06C526.12 75.06 525.46 74.54 525.46 73.76C525.46 73.04 525.92 72.5 527.38 72.5H529.52V73.6C529.16 74.58 528.26 75.06 527.22 75.06ZM535.463 77H538.583V62.16H535.463V77ZM552.019 71.66C552.019 68.2 549.579 66.08 546.419 66.08C543.139 66.08 540.679 68.4 540.679 71.62C540.679 74.82 543.099 77.16 546.819 77.16C548.759 77.16 550.259 76.56 551.259 75.42L549.599 73.62C548.859 74.32 548.039 74.66 546.899 74.66C545.259 74.66 544.119 73.84 543.819 72.5H551.959C551.979 72.24 552.019 71.9 552.019 71.66ZM546.439 68.44C547.839 68.44 548.859 69.32 549.079 70.68H543.779C543.999 69.3 545.019 68.44 546.439 68.44ZM557.716 77.16C560.936 77.16 562.796 75.74 562.796 73.74C562.796 69.5 556.296 71.28 556.296 69.44C556.296 68.88 556.896 68.44 558.296 68.44C559.276 68.44 560.336 68.64 561.396 69.24L562.436 67.02C561.416 66.42 559.776 66.08 558.296 66.08C555.156 66.08 553.316 67.52 553.316 69.56C553.316 73.86 559.816 72.06 559.816 73.82C559.816 74.42 559.276 74.8 557.836 74.8C556.516 74.8 555.056 74.38 554.096 73.76L553.056 76C554.056 76.66 555.896 77.16 557.716 77.16Z" fill="#100FA8"/>
<path d="M759.76 77.24C758.64 77.24 757.567 77.0933 756.54 76.8C755.513 76.4933 754.687 76.1 754.06 75.62L755.16 73.18C755.76 73.6067 756.467 73.96 757.28 74.24C758.107 74.5067 758.94 74.64 759.78 74.64C760.42 74.64 760.933 74.58 761.32 74.46C761.72 74.3267 762.013 74.1467 762.2 73.92C762.387 73.6933 762.48 73.4333 762.48 73.14C762.48 72.7667 762.333 72.4733 762.04 72.26C761.747 72.0333 761.36 71.8533 760.88 71.72C760.4 71.5733 759.867 71.44 759.28 71.32C758.707 71.1867 758.127 71.0267 757.54 70.84C756.967 70.6533 756.44 70.4133 755.96 70.12C755.48 69.8267 755.087 69.44 754.78 68.96C754.487 68.48 754.34 67.8667 754.34 67.12C754.34 66.32 754.553 65.5933 754.98 64.94C755.42 64.2733 756.073 63.7467 756.94 63.36C757.82 62.96 758.92 62.76 760.24 62.76C761.12 62.76 761.987 62.8667 762.84 63.08C763.693 63.28 764.447 63.5867 765.1 64L764.1 66.46C763.447 66.0867 762.793 65.8133 762.14 65.64C761.487 65.4533 760.847 65.36 760.22 65.36C759.593 65.36 759.08 65.4333 758.68 65.58C758.28 65.7267 757.993 65.92 757.82 66.16C757.647 66.3867 757.56 66.6533 757.56 66.96C757.56 67.32 757.707 67.6133 758 67.84C758.293 68.0533 758.68 68.2267 759.16 68.36C759.64 68.4933 760.167 68.6267 760.74 68.76C761.327 68.8933 761.907 69.0467 762.48 69.22C763.067 69.3933 763.6 69.6267 764.08 69.92C764.56 70.2133 764.947 70.6 765.24 71.08C765.547 71.56 765.7 72.1667 765.7 72.9C765.7 73.6867 765.48 74.4067 765.04 75.06C764.6 75.7133 763.94 76.24 763.06 76.64C762.193 77.04 761.093 77.24 759.76 77.24ZM772.814 77.16C771.667 77.16 770.647 76.92 769.754 76.44C768.874 75.96 768.174 75.3067 767.654 74.48C767.147 73.64 766.894 72.6867 766.894 71.62C766.894 70.54 767.147 69.5867 767.654 68.76C768.174 67.92 768.874 67.2667 769.754 66.8C770.647 66.32 771.667 66.08 772.814 66.08C773.947 66.08 774.961 66.32 775.854 66.8C776.747 67.2667 777.447 67.9133 777.954 68.74C778.461 69.5667 778.714 70.5267 778.714 71.62C778.714 72.6867 778.461 73.64 777.954 74.48C777.447 75.3067 776.747 75.96 775.854 76.44C774.961 76.92 773.947 77.16 772.814 77.16ZM772.814 74.6C773.334 74.6 773.801 74.48 774.214 74.24C774.627 74 774.954 73.66 775.194 73.22C775.434 72.7667 775.554 72.2333 775.554 71.62C775.554 70.9933 775.434 70.46 775.194 70.02C774.954 69.58 774.627 69.24 774.214 69C773.801 68.76 773.334 68.64 772.814 68.64C772.294 68.64 771.827 68.76 771.414 69C771.001 69.24 770.667 69.58 770.414 70.02C770.174 70.46 770.054 70.9933 770.054 71.62C770.054 72.2333 770.174 72.7667 770.414 73.22C770.667 73.66 771.001 74 771.414 74.24C771.827 74.48 772.294 74.6 772.814 74.6ZM787.159 77.16C786.213 77.16 785.399 76.96 784.719 76.56C784.039 76.16 783.519 75.5533 783.159 74.74C782.799 73.9133 782.619 72.8733 782.619 71.62C782.619 70.3533 782.806 69.3133 783.179 68.5C783.566 67.6867 784.099 67.08 784.779 66.68C785.459 66.28 786.253 66.08 787.159 66.08C788.173 66.08 789.079 66.3067 789.879 66.76C790.693 67.2133 791.333 67.8533 791.799 68.68C792.279 69.5067 792.519 70.4867 792.519 71.62C792.519 72.74 792.279 73.7133 791.799 74.54C791.333 75.3667 790.693 76.0133 789.879 76.48C789.079 76.9333 788.173 77.16 787.159 77.16ZM780.799 77V62.16H783.919V68.42L783.719 71.6L783.779 74.8V77H780.799ZM786.619 74.6C787.139 74.6 787.599 74.48 787.999 74.24C788.413 74 788.739 73.66 788.979 73.22C789.233 72.7667 789.359 72.2333 789.359 71.62C789.359 70.9933 789.233 70.46 788.979 70.02C788.739 69.58 788.413 69.24 787.999 69C787.599 68.76 787.139 68.64 786.619 68.64C786.099 68.64 785.633 68.76 785.219 69C784.806 69.24 784.479 69.58 784.239 70.02C783.999 70.46 783.879 70.9933 783.879 71.62C783.879 72.2333 783.999 72.7667 784.239 73.22C784.479 73.66 784.806 74 785.219 74.24C785.633 74.48 786.099 74.6 786.619 74.6ZM794.608 77V66.24H797.588V69.28L797.168 68.4C797.488 67.64 798.001 67.0667 798.708 66.68C799.415 66.28 800.275 66.08 801.288 66.08V68.96C801.155 68.9467 801.035 68.94 800.928 68.94C800.821 68.9267 800.708 68.92 800.588 68.92C799.735 68.92 799.041 69.1667 798.508 69.66C797.988 70.14 797.728 70.8933 797.728 71.92V77H794.608ZM808.405 77.16C807.178 77.16 806.098 76.92 805.165 76.44C804.245 75.96 803.532 75.3067 803.025 74.48C802.518 73.64 802.265 72.6867 802.265 71.62C802.265 70.54 802.512 69.5867 803.005 68.76C803.512 67.92 804.198 67.2667 805.065 66.8C805.932 66.32 806.912 66.08 808.005 66.08C809.058 66.08 810.005 66.3067 810.845 66.76C811.698 67.2 812.372 67.84 812.865 68.68C813.358 69.5067 813.605 70.5 813.605 71.66C813.605 71.78 813.598 71.92 813.585 72.08C813.572 72.2267 813.558 72.3667 813.545 72.5H804.805V70.68H811.905L810.705 71.22C810.705 70.66 810.592 70.1733 810.365 69.76C810.138 69.3467 809.825 69.0267 809.425 68.8C809.025 68.56 808.558 68.44 808.025 68.44C807.492 68.44 807.018 68.56 806.605 68.8C806.205 69.0267 805.892 69.3533 805.665 69.78C805.438 70.1933 805.325 70.6867 805.325 71.26V71.74C805.325 72.3267 805.452 72.8467 805.705 73.3C805.972 73.74 806.338 74.08 806.805 74.32C807.285 74.5467 807.845 74.66 808.485 74.66C809.058 74.66 809.558 74.5733 809.985 74.4C810.425 74.2267 810.825 73.9667 811.185 73.62L812.845 75.42C812.352 75.98 811.732 76.4133 810.985 76.72C810.238 77.0133 809.378 77.16 808.405 77.16ZM825.746 77.16C824.48 77.16 823.493 76.84 822.786 76.2C822.08 75.5467 821.726 74.58 821.726 73.3V63.86H824.846V73.26C824.846 73.7133 824.966 74.0667 825.206 74.32C825.446 74.56 825.773 74.68 826.186 74.68C826.68 74.68 827.1 74.5467 827.446 74.28L828.286 76.48C827.966 76.7067 827.58 76.88 827.126 77C826.686 77.1067 826.226 77.16 825.746 77.16ZM820.066 68.88V66.48H827.526V68.88H820.066ZM834.578 77.16C833.684 77.16 832.884 76.9867 832.178 76.64C831.484 76.2933 830.944 75.7667 830.558 75.06C830.171 74.34 829.978 73.4267 829.978 72.32V66.24H833.098V71.86C833.098 72.7533 833.284 73.4133 833.658 73.84C834.044 74.2533 834.584 74.46 835.278 74.46C835.758 74.46 836.184 74.36 836.558 74.16C836.931 73.9467 837.224 73.6267 837.438 73.2C837.651 72.76 837.758 72.2133 837.758 71.56V66.24H840.878V77H837.918V74.04L838.458 74.9C838.098 75.6467 837.564 76.2133 836.858 76.6C836.164 76.9733 835.404 77.16 834.578 77.16ZM855.792 77.16C854.886 77.16 854.092 76.96 853.412 76.56C852.732 76.16 852.199 75.5533 851.812 74.74C851.439 73.9133 851.252 72.8733 851.252 71.62C851.252 70.3533 851.432 69.3133 851.792 68.5C852.152 67.6867 852.672 67.08 853.352 66.68C854.032 66.28 854.846 66.08 855.792 66.08C856.806 66.08 857.712 66.3133 858.512 66.78C859.326 67.2333 859.966 67.8733 860.432 68.7C860.912 69.5267 861.152 70.5 861.152 71.62C861.152 72.7533 860.912 73.7333 860.432 74.56C859.966 75.3867 859.326 76.0267 858.512 76.48C857.712 76.9333 856.806 77.16 855.792 77.16ZM849.432 80.88V66.24H852.412V68.44L852.352 71.64L852.552 74.82V80.88H849.432ZM855.252 74.6C855.772 74.6 856.232 74.48 856.632 74.24C857.046 74 857.372 73.66 857.612 73.22C857.866 72.7667 857.992 72.2333 857.992 71.62C857.992 70.9933 857.866 70.46 857.612 70.02C857.372 69.58 857.046 69.24 856.632 69C856.232 68.76 855.772 68.64 855.252 68.64C854.732 68.64 854.266 68.76 853.852 69C853.439 69.24 853.112 69.58 852.872 70.02C852.632 70.46 852.512 70.9933 852.512 71.62C852.512 72.2333 852.632 72.7667 852.872 73.22C853.112 73.66 853.439 74 853.852 74.24C854.266 74.48 854.732 74.6 855.252 74.6ZM863.241 77V66.24H866.221V69.28L865.801 68.4C866.121 67.64 866.634 67.0667 867.341 66.68C868.047 66.28 868.907 66.08 869.921 66.08V68.96C869.787 68.9467 869.667 68.94 869.561 68.94C869.454 68.9267 869.341 68.92 869.221 68.92C868.367 68.92 867.674 69.1667 867.141 69.66C866.621 70.14 866.361 70.8933 866.361 71.92V77H863.241ZM876.818 77.16C875.671 77.16 874.651 76.92 873.758 76.44C872.878 75.96 872.178 75.3067 871.658 74.48C871.151 73.64 870.898 72.6867 870.898 71.62C870.898 70.54 871.151 69.5867 871.658 68.76C872.178 67.92 872.878 67.2667 873.758 66.8C874.651 66.32 875.671 66.08 876.818 66.08C877.951 66.08 878.964 66.32 879.858 66.8C880.751 67.2667 881.451 67.9133 881.958 68.74C882.464 69.5667 882.718 70.5267 882.718 71.62C882.718 72.6867 882.464 73.64 881.958 74.48C881.451 75.3067 880.751 75.96 879.858 76.44C878.964 76.92 877.951 77.16 876.818 77.16ZM876.818 74.6C877.338 74.6 877.804 74.48 878.218 74.24C878.631 74 878.958 73.66 879.198 73.22C879.438 72.7667 879.558 72.2333 879.558 71.62C879.558 70.9933 879.438 70.46 879.198 70.02C878.958 69.58 878.631 69.24 878.218 69C877.804 68.76 877.338 68.64 876.818 68.64C876.298 68.64 875.831 68.76 875.418 69C875.004 69.24 874.671 69.58 874.418 70.02C874.178 70.46 874.058 70.9933 874.058 71.62C874.058 72.2333 874.178 72.7667 874.418 73.22C874.671 73.66 875.004 74 875.418 74.24C875.831 74.48 876.298 74.6 876.818 74.6ZM885.87 81.04C885.31 81.04 884.757 80.9533 884.21 80.78C883.664 80.6067 883.217 80.3667 882.87 80.06L884.01 77.84C884.25 78.0533 884.524 78.22 884.83 78.34C885.15 78.46 885.464 78.52 885.77 78.52C886.21 78.52 886.557 78.4133 886.81 78.2C887.077 78 887.317 77.66 887.53 77.18L888.09 75.86L888.33 75.52L892.19 66.24H895.19L890.33 77.66C889.984 78.5267 889.584 79.2067 889.13 79.7C888.69 80.1933 888.197 80.54 887.65 80.74C887.117 80.94 886.524 81.04 885.87 81.04ZM887.71 77.42L882.91 66.24H886.13L889.85 75.24L887.71 77.42ZM901.51 77.16C900.284 77.16 899.204 76.92 898.27 76.44C897.35 75.96 896.637 75.3067 896.13 74.48C895.624 73.64 895.37 72.6867 895.37 71.62C895.37 70.54 895.617 69.5867 896.11 68.76C896.617 67.92 897.304 67.2667 898.17 66.8C899.037 66.32 900.017 66.08 901.11 66.08C902.164 66.08 903.11 66.3067 903.95 66.76C904.804 67.2 905.477 67.84 905.97 68.68C906.464 69.5067 906.71 70.5 906.71 71.66C906.71 71.78 906.704 71.92 906.69 72.08C906.677 72.2267 906.664 72.3667 906.65 72.5H897.91V70.68H905.01L903.81 71.22C903.81 70.66 903.697 70.1733 903.47 69.76C903.244 69.3467 902.93 69.0267 902.53 68.8C902.13 68.56 901.664 68.44 901.13 68.44C900.597 68.44 900.124 68.56 899.71 68.8C899.31 69.0267 898.997 69.3533 898.77 69.78C898.544 70.1933 898.43 70.6867 898.43 71.26V71.74C898.43 72.3267 898.557 72.8467 898.81 73.3C899.077 73.74 899.444 74.08 899.91 74.32C900.39 74.5467 900.95 74.66 901.59 74.66C902.164 74.66 902.664 74.5733 903.09 74.4C903.53 74.2267 903.93 73.9667 904.29 73.62L905.95 75.42C905.457 75.98 904.837 76.4133 904.09 76.72C903.344 77.0133 902.484 77.16 901.51 77.16ZM913.988 77.16C912.828 77.16 911.794 76.9267 910.888 76.46C909.981 75.98 909.268 75.32 908.748 74.48C908.241 73.64 907.988 72.6867 907.988 71.62C907.988 70.54 908.241 69.5867 908.748 68.76C909.268 67.92 909.981 67.2667 910.888 66.8C911.794 66.32 912.828 66.08 913.988 66.08C915.121 66.08 916.108 66.32 916.948 66.8C917.788 67.2667 918.408 67.94 918.808 68.82L916.388 70.12C916.108 69.6133 915.754 69.24 915.328 69C914.914 68.76 914.461 68.64 913.968 68.64C913.434 68.64 912.954 68.76 912.528 69C912.101 69.24 911.761 69.58 911.508 70.02C911.268 70.46 911.148 70.9933 911.148 71.62C911.148 72.2467 911.268 72.78 911.508 73.22C911.761 73.66 912.101 74 912.528 74.24C912.954 74.48 913.434 74.6 913.968 74.6C914.461 74.6 914.914 74.4867 915.328 74.26C915.754 74.02 916.108 73.64 916.388 73.12L918.808 74.44C918.408 75.3067 917.788 75.98 916.948 76.46C916.108 76.9267 915.121 77.16 913.988 77.16ZM925.16 77.16C923.894 77.16 922.907 76.84 922.2 76.2C921.494 75.5467 921.14 74.58 921.14 73.3V63.86H924.26V73.26C924.26 73.7133 924.38 74.0667 924.62 74.32C924.86 74.56 925.187 74.68 925.6 74.68C926.094 74.68 926.514 74.5467 926.86 74.28L927.7 76.48C927.38 76.7067 926.994 76.88 926.54 77C926.1 77.1067 925.64 77.16 925.16 77.16ZM919.48 68.88V66.48H926.94V68.88H919.48ZM934.24 77.16C933.093 77.16 932.073 76.92 931.18 76.44C930.3 75.96 929.6 75.3067 929.08 74.48C928.573 73.64 928.32 72.6867 928.32 71.62C928.32 70.54 928.573 69.5867 929.08 68.76C929.6 67.92 930.3 67.2667 931.18 66.8C932.073 66.32 933.093 66.08 934.24 66.08C935.373 66.08 936.386 66.32 937.28 66.8C938.173 67.2667 938.873 67.9133 939.38 68.74C939.886 69.5667 940.14 70.5267 940.14 71.62C940.14 72.6867 939.886 73.64 939.38 74.48C938.873 75.3067 938.173 75.96 937.28 76.44C936.386 76.92 935.373 77.16 934.24 77.16ZM934.24 74.6C934.76 74.6 935.226 74.48 935.64 74.24C936.053 74 936.38 73.66 936.62 73.22C936.86 72.7667 936.98 72.2333 936.98 71.62C936.98 70.9933 936.86 70.46 936.62 70.02C936.38 69.58 936.053 69.24 935.64 69C935.226 68.76 934.76 68.64 934.24 68.64C933.72 68.64 933.253 68.76 932.84 69C932.426 69.24 932.093 69.58 931.84 70.02C931.6 70.46 931.48 70.9933 931.48 71.62C931.48 72.2333 931.6 72.7667 931.84 73.22C932.093 73.66 932.426 74 932.84 74.24C933.253 74.48 933.72 74.6 934.24 74.6Z" fill="#9999AD"/>
<rect x="75.5" width="40" height="40" rx="8" fill="#100FA8"/>
<g clip-path="url(#clip0_1457_4766)">
<path d="M93.833 23.172L103.025 13.979L104.44 15.393L93.833 26L87.469 19.636L88.883 18.222L93.833 23.172Z" fill="white"/>
</g>
<line x1="283.5" y1="21.5137" x2="123.5" y2="21.5137" stroke="#100FA8"/>
<line x1="443.5" y1="21.5137" x2="283.5" y2="21.5137" stroke="#100FA8"/>
<rect x="451.5" width="40" height="40" rx="8" fill="#100FA8"/>
<path d="M466.532 27.0142L466.528 24.9142L471.917 19.8032C472.343 19.4156 472.656 19.0683 472.855 18.7613C473.054 18.4542 473.187 18.1739 473.253 17.9204C473.333 17.6669 473.372 17.4335 473.372 17.2202C473.371 16.6602 473.177 16.2339 472.789 15.9414C472.415 15.6355 471.862 15.4833 471.128 15.4848C470.542 15.486 469.995 15.6004 469.489 15.8281C468.996 16.0558 468.577 16.41 468.231 16.8907L465.868 15.3756C466.4 14.5745 467.145 13.9396 468.104 13.471C469.063 13.0023 470.169 12.7667 471.423 12.7642C472.463 12.762 473.37 12.9335 474.144 13.2786C474.931 13.6103 475.539 14.0824 475.967 14.6949C476.408 15.3073 476.629 16.0402 476.631 16.8935C476.632 17.3468 476.573 17.8003 476.454 18.2539C476.348 18.6941 476.123 19.1612 475.777 19.6553C475.445 20.1493 474.952 20.7036 474.3 21.3183L469.829 25.5475L469.207 24.3687L477.107 24.3526L477.112 26.9925L466.532 27.0142Z" fill="white"/>
<line x1="659.5" y1="21.5137" x2="499.5" y2="21.5137" stroke="#100FA8"/>
<line x1="819.5" y1="21.5137" x2="659.5" y2="21.5137" stroke="#CCCCD6"/>
<rect x="827.5" width="40" height="40" rx="8" fill="#CCCCD6"/>
<path d="M846.859 27.2447C845.886 27.2467 844.919 27.122 843.959 26.8706C842.998 26.6059 842.184 26.2343 841.516 25.7556L842.771 23.2731C843.305 23.6586 843.926 23.964 844.633 24.1892C845.34 24.4145 846.054 24.5263 846.774 24.5248C847.587 24.5232 848.227 24.3619 848.693 24.0409C849.159 23.72 849.391 23.2795 849.39 22.7195C849.389 22.1862 849.182 21.7666 848.768 21.4608C848.354 21.1549 847.687 21.003 846.767 21.0049L845.287 21.0079L845.282 18.8679L849.173 14.4399L849.536 15.5992L842.196 15.6142L842.19 13.0142L851.99 12.9941L851.995 15.0941L848.124 19.5221L846.482 18.5854L847.422 18.5835C849.142 18.58 850.442 18.964 851.324 19.7355C852.206 20.507 852.648 21.4995 852.65 22.7128C852.652 23.4995 852.447 24.2399 852.035 24.9341C851.623 25.6149 850.991 26.1695 850.138 26.598C849.286 27.0264 848.193 27.2419 846.859 27.2447Z" fill="#9999AD"/>
<defs>
<clipPath id="clip0_1457_4766">
<rect width="24" height="24" fill="white" transform="translate(83.833 8)"/>
</clipPath>
</defs>
</svg>
