<svg width="268" height="63" viewBox="0 0 268 63" fill="none" xmlns="http://www.w3.org/2000/svg">
<path d="M6.58469 35.6V40.7L2.40869 35.6H0.800688V44H2.72069V38.9L6.90869 44H8.50469V35.6H6.58469ZM14.9921 37.544V40.736C14.9921 41.924 14.3681 42.476 13.5041 42.476C12.6761 42.476 12.1961 41.996 12.1961 40.916V37.544H10.3241V41.192C10.3241 43.184 11.4641 44.096 13.0841 44.096C13.8761 44.096 14.5961 43.796 15.0881 43.232V44H16.8641V37.544H14.9921ZM24.9224 40.796C24.9224 38.72 23.4584 37.448 21.5624 37.448C19.5944 37.448 18.1184 38.84 18.1184 40.772C18.1184 42.692 19.5704 44.096 21.8024 44.096C22.9664 44.096 23.8664 43.736 24.4664 43.052L23.4704 41.972C23.0264 42.392 22.5344 42.596 21.8504 42.596C20.8664 42.596 20.1824 42.104 20.0024 41.3H24.8864C24.8984 41.144 24.9224 40.94 24.9224 40.796ZM21.5744 38.864C22.4144 38.864 23.0264 39.392 23.1584 40.208H19.9784C20.1104 39.38 20.7224 38.864 21.5744 38.864ZM28.3407 44.096C30.2727 44.096 31.3887 43.244 31.3887 42.044C31.3887 39.5 27.4887 40.568 27.4887 39.464C27.4887 39.128 27.8487 38.864 28.6887 38.864C29.2767 38.864 29.9127 38.984 30.5487 39.344L31.1727 38.012C30.5607 37.652 29.5767 37.448 28.6887 37.448C26.8047 37.448 25.7007 38.312 25.7007 39.536C25.7007 42.116 29.6007 41.036 29.6007 42.092C29.6007 42.452 29.2767 42.68 28.4127 42.68C27.6207 42.68 26.7447 42.428 26.1687 42.056L25.5447 43.4C26.1447 43.796 27.2487 44.096 28.3407 44.096ZM36.2037 42.368C35.9997 42.524 35.7237 42.608 35.4477 42.608C34.9437 42.608 34.6437 42.308 34.6437 41.756V39.128H36.2517V37.688H34.6437V36.116H32.7717V37.688H31.7757V39.128H32.7717V41.78C32.7717 43.316 33.6597 44.096 35.1837 44.096C35.7597 44.096 36.3237 43.964 36.7077 43.688L36.2037 42.368ZM39.5465 38.396V37.544H37.7585V44H39.6305V40.952C39.6305 39.716 40.3145 39.152 41.3465 39.152C41.4905 39.152 41.6105 39.164 41.7665 39.176V37.448C40.7705 37.448 40.0025 37.772 39.5465 38.396ZM45.893 44.096C47.945 44.096 49.433 42.716 49.433 40.772C49.433 38.828 47.945 37.448 45.893 37.448C43.841 37.448 42.341 38.828 42.341 40.772C42.341 42.716 43.841 44.096 45.893 44.096ZM45.893 42.56C44.957 42.56 44.237 41.888 44.237 40.772C44.237 39.656 44.957 38.984 45.893 38.984C46.829 38.984 47.537 39.656 47.537 40.772C47.537 41.888 46.829 42.56 45.893 42.56ZM52.8563 44.096C54.7883 44.096 55.9043 43.244 55.9043 42.044C55.9043 39.5 52.0043 40.568 52.0043 39.464C52.0043 39.128 52.3643 38.864 53.2043 38.864C53.7923 38.864 54.4283 38.984 55.0643 39.344L55.6883 38.012C55.0763 37.652 54.0923 37.448 53.2043 37.448C51.3203 37.448 50.2163 38.312 50.2163 39.536C50.2163 42.116 54.1163 41.036 54.1163 42.092C54.1163 42.452 53.7923 42.68 52.9283 42.68C52.1363 42.68 51.2603 42.428 50.6843 42.056L50.0603 43.4C50.6603 43.796 51.7643 44.096 52.8563 44.096ZM3.61342 60.144C6.01342 60.144 7.17742 58.944 7.17742 57.54C7.17742 54.456 2.29342 55.524 2.29342 53.976C2.29342 53.448 2.73742 53.016 3.88942 53.016C4.63342 53.016 5.43742 53.232 6.21742 53.676L6.81742 52.2C6.03742 51.708 4.95742 51.456 3.90142 51.456C1.51342 51.456 0.361422 52.644 0.361422 54.072C0.361422 57.192 5.24542 56.112 5.24542 57.684C5.24542 58.2 4.77742 58.584 3.62542 58.584C2.61742 58.584 1.56142 58.224 0.853422 57.708L0.193422 59.172C0.937422 59.748 2.28142 60.144 3.61342 60.144ZM14.6978 56.796C14.6978 54.72 13.2338 53.448 11.3378 53.448C9.36977 53.448 7.89377 54.84 7.89377 56.772C7.89377 58.692 9.34577 60.096 11.5778 60.096C12.7418 60.096 13.6418 59.736 14.2418 59.052L13.2458 57.972C12.8018 58.392 12.3098 58.596 11.6258 58.596C10.6418 58.596 9.95777 58.104 9.77777 57.3H14.6618C14.6738 57.144 14.6978 56.94 14.6978 56.796ZM11.3498 54.864C12.1898 54.864 12.8018 55.392 12.9338 56.208H9.75377C9.88577 55.38 10.4978 54.864 11.3498 54.864ZM17.7321 54.396V53.544H15.9441V60H17.8161V56.952C17.8161 55.716 18.5001 55.152 19.5321 55.152C19.6761 55.152 19.7961 55.164 19.9521 55.176V53.448C18.9561 53.448 18.1881 53.772 17.7321 54.396ZM25.8958 53.544L24.0478 57.936L22.2598 53.544H20.3278L23.0398 60H24.9718L27.6958 53.544H25.8958ZM29.3957 52.644C30.0917 52.644 30.5597 52.188 30.5597 51.564C30.5597 50.988 30.0917 50.556 29.3957 50.556C28.6997 50.556 28.2317 51.012 28.2317 51.6C28.2317 52.188 28.6997 52.644 29.3957 52.644ZM28.4597 60H30.3317V53.544H28.4597V60ZM35.1891 60.096C36.5451 60.096 37.6131 59.496 38.0811 58.464L36.6291 57.672C36.2811 58.296 35.7651 58.56 35.1771 58.56C34.2291 58.56 33.4851 57.9 33.4851 56.772C33.4851 55.644 34.2291 54.984 35.1771 54.984C35.7651 54.984 36.2811 55.26 36.6291 55.872L38.0811 55.092C37.6131 54.036 36.5451 53.448 35.1891 53.448C33.0891 53.448 31.5891 54.828 31.5891 56.772C31.5891 58.716 33.0891 60.096 35.1891 60.096ZM40.0949 52.644C40.7909 52.644 41.2589 52.188 41.2589 51.564C41.2589 50.988 40.7909 50.556 40.0949 50.556C39.3989 50.556 38.9309 51.012 38.9309 51.6C38.9309 52.188 39.3989 52.644 40.0949 52.644ZM39.1589 60H41.0309V53.544H39.1589V60ZM45.8403 60.096C47.8923 60.096 49.3803 58.716 49.3803 56.772C49.3803 54.828 47.8923 53.448 45.8403 53.448C43.7883 53.448 42.2883 54.828 42.2883 56.772C42.2883 58.716 43.7883 60.096 45.8403 60.096ZM45.8403 58.56C44.9043 58.56 44.1843 57.888 44.1843 56.772C44.1843 55.656 44.9043 54.984 45.8403 54.984C46.7763 54.984 47.4843 55.656 47.4843 56.772C47.4843 57.888 46.7763 58.56 45.8403 58.56ZM52.8036 60.096C54.7356 60.096 55.8516 59.244 55.8516 58.044C55.8516 55.5 51.9516 56.568 51.9516 55.464C51.9516 55.128 52.3116 54.864 53.1516 54.864C53.7396 54.864 54.3756 54.984 55.0116 55.344L55.6356 54.012C55.0236 53.652 54.0396 53.448 53.1516 53.448C51.2676 53.448 50.1636 54.312 50.1636 55.536C50.1636 58.116 54.0636 57.036 54.0636 58.092C54.0636 58.452 53.7396 58.68 52.8756 58.68C52.0836 58.68 51.2076 58.428 50.6316 58.056L50.0076 59.4C50.6076 59.796 51.7116 60.096 52.8036 60.096Z" fill="#100FA8"/>
<path d="M116.709 44H120.525C123.273 44 125.157 42.344 125.157 39.8C125.157 37.256 123.273 35.6 120.525 35.6H116.709V44ZM118.653 42.404V37.196H120.429C122.097 37.196 123.189 38.192 123.189 39.8C123.189 41.408 122.097 42.404 120.429 42.404H118.653ZM129.095 37.448C128.063 37.448 127.019 37.724 126.311 38.228L126.983 39.536C127.451 39.164 128.159 38.936 128.843 38.936C129.851 38.936 130.331 39.404 130.331 40.208H128.843C126.875 40.208 126.071 41 126.071 42.14C126.071 43.256 126.971 44.096 128.483 44.096C129.431 44.096 130.103 43.784 130.451 43.196V44H132.203V40.316C132.203 38.36 131.063 37.448 129.095 37.448ZM128.951 42.836C128.291 42.836 127.895 42.524 127.895 42.056C127.895 41.624 128.171 41.3 129.047 41.3H130.331V41.96C130.115 42.548 129.575 42.836 128.951 42.836ZM137.557 42.368C137.353 42.524 137.077 42.608 136.801 42.608C136.297 42.608 135.997 42.308 135.997 41.756V39.128H137.605V37.688H135.997V36.116H134.125V37.688H133.129V39.128H134.125V41.78C134.125 43.316 135.013 44.096 136.537 44.096C137.113 44.096 137.677 43.964 138.061 43.688L137.557 42.368ZM141.985 44.096C144.037 44.096 145.525 42.716 145.525 40.772C145.525 38.828 144.037 37.448 141.985 37.448C139.933 37.448 138.433 38.828 138.433 40.772C138.433 42.716 139.933 44.096 141.985 44.096ZM141.985 42.56C141.049 42.56 140.329 41.888 140.329 40.772C140.329 39.656 141.049 38.984 141.985 38.984C142.921 38.984 143.629 39.656 143.629 40.772C143.629 41.888 142.921 42.56 141.985 42.56ZM148.948 44.096C150.88 44.096 151.996 43.244 151.996 42.044C151.996 39.5 148.096 40.568 148.096 39.464C148.096 39.128 148.456 38.864 149.296 38.864C149.884 38.864 150.52 38.984 151.156 39.344L151.78 38.012C151.168 37.652 150.184 37.448 149.296 37.448C147.412 37.448 146.308 38.312 146.308 39.536C146.308 42.116 150.208 41.036 150.208 42.092C150.208 42.452 149.884 42.68 149.02 42.68C148.228 42.68 147.352 42.428 146.776 42.056L146.152 43.4C146.752 43.796 147.856 44.096 148.948 44.096ZM104.432 53.448C103.568 53.448 102.872 53.724 102.404 54.288V53.544H100.616V62.328H102.488V59.316C102.968 59.844 103.628 60.096 104.432 60.096C106.244 60.096 107.648 58.8 107.648 56.772C107.648 54.744 106.244 53.448 104.432 53.448ZM104.108 58.56C103.172 58.56 102.464 57.888 102.464 56.772C102.464 55.656 103.172 54.984 104.108 54.984C105.044 54.984 105.752 55.656 105.752 56.772C105.752 57.888 105.044 58.56 104.108 58.56ZM115.225 56.796C115.225 54.72 113.761 53.448 111.865 53.448C109.897 53.448 108.421 54.84 108.421 56.772C108.421 58.692 109.873 60.096 112.105 60.096C113.269 60.096 114.169 59.736 114.769 59.052L113.773 57.972C113.329 58.392 112.837 58.596 112.153 58.596C111.169 58.596 110.485 58.104 110.305 57.3H115.189C115.201 57.144 115.225 56.94 115.225 56.796ZM111.877 54.864C112.717 54.864 113.329 55.392 113.461 56.208H110.281C110.413 55.38 111.025 54.864 111.877 54.864ZM118.259 54.396V53.544H116.471V60H118.343V56.952C118.343 55.716 119.027 55.152 120.059 55.152C120.203 55.152 120.323 55.164 120.479 55.176V53.448C119.483 53.448 118.715 53.772 118.259 54.396ZM123.788 60.096C125.72 60.096 126.836 59.244 126.836 58.044C126.836 55.5 122.936 56.568 122.936 55.464C122.936 55.128 123.296 54.864 124.136 54.864C124.724 54.864 125.36 54.984 125.996 55.344L126.62 54.012C126.008 53.652 125.024 53.448 124.136 53.448C122.252 53.448 121.148 54.312 121.148 55.536C121.148 58.116 125.048 57.036 125.048 58.092C125.048 58.452 124.724 58.68 123.86 58.68C123.068 58.68 122.192 58.428 121.616 58.056L120.992 59.4C121.592 59.796 122.696 60.096 123.788 60.096ZM131.063 60.096C133.115 60.096 134.603 58.716 134.603 56.772C134.603 54.828 133.115 53.448 131.063 53.448C129.011 53.448 127.511 54.828 127.511 56.772C127.511 58.716 129.011 60.096 131.063 60.096ZM131.063 58.56C130.127 58.56 129.407 57.888 129.407 56.772C129.407 55.656 130.127 54.984 131.063 54.984C131.999 54.984 132.707 55.656 132.707 56.772C132.707 57.888 131.999 58.56 131.063 58.56ZM139.778 53.448C138.902 53.448 138.146 53.748 137.642 54.3V53.544H135.854V60H137.726V56.808C137.726 55.62 138.374 55.068 139.274 55.068C140.102 55.068 140.582 55.548 140.582 56.592V60H142.454V56.304C142.454 54.336 141.302 53.448 139.778 53.448ZM146.755 53.448C145.723 53.448 144.679 53.724 143.971 54.228L144.643 55.536C145.111 55.164 145.819 54.936 146.503 54.936C147.511 54.936 147.991 55.404 147.991 56.208H146.503C144.535 56.208 143.731 57 143.731 58.14C143.731 59.256 144.631 60.096 146.143 60.096C147.091 60.096 147.763 59.784 148.111 59.196V60H149.863V56.316C149.863 54.36 148.723 53.448 146.755 53.448ZM146.611 58.836C145.951 58.836 145.555 58.524 145.555 58.056C145.555 57.624 145.831 57.3 146.707 57.3H147.991V57.96C147.775 58.548 147.235 58.836 146.611 58.836ZM151.557 60H153.429V51.096H151.557V60ZM161.491 56.796C161.491 54.72 160.027 53.448 158.131 53.448C156.163 53.448 154.687 54.84 154.687 56.772C154.687 58.692 156.139 60.096 158.371 60.096C159.535 60.096 160.435 59.736 161.035 59.052L160.039 57.972C159.595 58.392 159.103 58.596 158.419 58.596C157.435 58.596 156.751 58.104 156.571 57.3H161.455C161.467 57.144 161.491 56.94 161.491 56.796ZM158.143 54.864C158.983 54.864 159.595 55.392 159.727 56.208H156.547C156.679 55.38 157.291 54.864 158.143 54.864ZM164.909 60.096C166.841 60.096 167.957 59.244 167.957 58.044C167.957 55.5 164.057 56.568 164.057 55.464C164.057 55.128 164.417 54.864 165.257 54.864C165.845 54.864 166.481 54.984 167.117 55.344L167.741 54.012C167.129 53.652 166.145 53.448 165.257 53.448C163.373 53.448 162.269 54.312 162.269 55.536C162.269 58.116 166.169 57.036 166.169 58.092C166.169 58.452 165.845 58.68 164.981 58.68C164.189 58.68 163.313 58.428 162.737 58.056L162.113 59.4C162.713 59.796 163.817 60.096 164.909 60.096Z" fill="#100FA8"/>
<path d="M217.108 44.144C216.436 44.144 215.792 44.056 215.176 43.88C214.56 43.696 214.064 43.46 213.688 43.172L214.348 41.708C214.708 41.964 215.132 42.176 215.62 42.344C216.116 42.504 216.616 42.584 217.12 42.584C217.504 42.584 217.812 42.548 218.044 42.476C218.284 42.396 218.46 42.288 218.572 42.152C218.684 42.016 218.74 41.86 218.74 41.684C218.74 41.46 218.652 41.284 218.476 41.156C218.3 41.02 218.068 40.912 217.78 40.832C217.492 40.744 217.172 40.664 216.82 40.592C216.476 40.512 216.128 40.416 215.776 40.304C215.432 40.192 215.116 40.048 214.828 39.872C214.54 39.696 214.304 39.464 214.12 39.176C213.944 38.888 213.856 38.52 213.856 38.072C213.856 37.592 213.984 37.156 214.24 36.764C214.504 36.364 214.896 36.048 215.416 35.816C215.944 35.576 216.604 35.456 217.396 35.456C217.924 35.456 218.444 35.52 218.956 35.648C219.468 35.768 219.92 35.952 220.312 36.2L219.712 37.676C219.32 37.452 218.928 37.288 218.536 37.184C218.144 37.072 217.76 37.016 217.384 37.016C217.008 37.016 216.7 37.06 216.46 37.148C216.22 37.236 216.048 37.352 215.944 37.496C215.84 37.632 215.788 37.792 215.788 37.976C215.788 38.192 215.876 38.368 216.052 38.504C216.228 38.632 216.46 38.736 216.748 38.816C217.036 38.896 217.352 38.976 217.696 39.056C218.048 39.136 218.396 39.228 218.74 39.332C219.092 39.436 219.412 39.576 219.7 39.752C219.988 39.928 220.22 40.16 220.396 40.448C220.58 40.736 220.672 41.1 220.672 41.54C220.672 42.012 220.54 42.444 220.276 42.836C220.012 43.228 219.616 43.544 219.088 43.784C218.568 44.024 217.908 44.144 217.108 44.144ZM224.94 44.096C224.252 44.096 223.64 43.952 223.104 43.664C222.576 43.376 222.156 42.984 221.844 42.488C221.54 41.984 221.388 41.412 221.388 40.772C221.388 40.124 221.54 39.552 221.844 39.056C222.156 38.552 222.576 38.16 223.104 37.88C223.64 37.592 224.252 37.448 224.94 37.448C225.62 37.448 226.228 37.592 226.764 37.88C227.3 38.16 227.72 38.548 228.024 39.044C228.328 39.54 228.48 40.116 228.48 40.772C228.48 41.412 228.328 41.984 228.024 42.488C227.72 42.984 227.3 43.376 226.764 43.664C226.228 43.952 225.62 44.096 224.94 44.096ZM224.94 42.56C225.252 42.56 225.532 42.488 225.78 42.344C226.028 42.2 226.224 41.996 226.368 41.732C226.512 41.46 226.584 41.14 226.584 40.772C226.584 40.396 226.512 40.076 226.368 39.812C226.224 39.548 226.028 39.344 225.78 39.2C225.532 39.056 225.252 38.984 224.94 38.984C224.628 38.984 224.348 39.056 224.1 39.2C223.852 39.344 223.652 39.548 223.5 39.812C223.356 40.076 223.284 40.396 223.284 40.772C223.284 41.14 223.356 41.46 223.5 41.732C223.652 41.996 223.852 42.2 224.1 42.344C224.348 42.488 224.628 42.56 224.94 42.56ZM233.547 44.096C232.979 44.096 232.491 43.976 232.083 43.736C231.675 43.496 231.363 43.132 231.147 42.644C230.931 42.148 230.823 41.524 230.823 40.772C230.823 40.012 230.935 39.388 231.159 38.9C231.391 38.412 231.711 38.048 232.119 37.808C232.527 37.568 233.003 37.448 233.547 37.448C234.155 37.448 234.699 37.584 235.179 37.856C235.667 38.128 236.051 38.512 236.331 39.008C236.619 39.504 236.763 40.092 236.763 40.772C236.763 41.444 236.619 42.028 236.331 42.524C236.051 43.02 235.667 43.408 235.179 43.688C234.699 43.96 234.155 44.096 233.547 44.096ZM229.731 44V35.096H231.603V38.852L231.483 40.76L231.519 42.68V44H229.731ZM233.223 42.56C233.535 42.56 233.811 42.488 234.051 42.344C234.299 42.2 234.495 41.996 234.639 41.732C234.791 41.46 234.867 41.14 234.867 40.772C234.867 40.396 234.791 40.076 234.639 39.812C234.495 39.548 234.299 39.344 234.051 39.2C233.811 39.056 233.535 38.984 233.223 38.984C232.911 38.984 232.631 39.056 232.383 39.2C232.135 39.344 231.939 39.548 231.795 39.812C231.651 40.076 231.579 40.396 231.579 40.772C231.579 41.14 231.651 41.46 231.795 41.732C231.939 41.996 232.135 42.2 232.383 42.344C232.631 42.488 232.911 42.56 233.223 42.56ZM238.016 44V37.544H239.804V39.368L239.552 38.84C239.744 38.384 240.052 38.04 240.476 37.808C240.9 37.568 241.416 37.448 242.024 37.448V39.176C241.944 39.168 241.872 39.164 241.808 39.164C241.744 39.156 241.676 39.152 241.604 39.152C241.092 39.152 240.676 39.3 240.356 39.596C240.044 39.884 239.888 40.336 239.888 40.952V44H238.016ZM246.295 44.096C245.559 44.096 244.911 43.952 244.351 43.664C243.799 43.376 243.371 42.984 243.067 42.488C242.763 41.984 242.611 41.412 242.611 40.772C242.611 40.124 242.759 39.552 243.055 39.056C243.359 38.552 243.771 38.16 244.291 37.88C244.811 37.592 245.399 37.448 246.055 37.448C246.687 37.448 247.255 37.584 247.759 37.856C248.271 38.12 248.675 38.504 248.971 39.008C249.267 39.504 249.415 40.1 249.415 40.796C249.415 40.868 249.411 40.952 249.403 41.048C249.395 41.136 249.387 41.22 249.379 41.3H244.135V40.208H248.395L247.675 40.532C247.675 40.196 247.607 39.904 247.471 39.656C247.335 39.408 247.147 39.216 246.907 39.08C246.667 38.936 246.387 38.864 246.067 38.864C245.747 38.864 245.463 38.936 245.215 39.08C244.975 39.216 244.787 39.412 244.651 39.668C244.515 39.916 244.447 40.212 244.447 40.556V40.844C244.447 41.196 244.523 41.508 244.675 41.78C244.835 42.044 245.055 42.248 245.335 42.392C245.623 42.528 245.959 42.596 246.343 42.596C246.687 42.596 246.987 42.544 247.243 42.44C247.507 42.336 247.747 42.18 247.963 41.972L248.959 43.052C248.663 43.388 248.291 43.648 247.843 43.832C247.395 44.008 246.879 44.096 246.295 44.096ZM256.699 44.096C255.939 44.096 255.347 43.904 254.923 43.52C254.499 43.128 254.287 42.548 254.287 41.78V36.116H256.159V41.756C256.159 42.028 256.231 42.24 256.375 42.392C256.519 42.536 256.715 42.608 256.963 42.608C257.259 42.608 257.511 42.528 257.719 42.368L258.223 43.688C258.031 43.824 257.799 43.928 257.527 44C257.263 44.064 256.987 44.096 256.699 44.096ZM253.291 39.128V37.688H257.767V39.128H253.291ZM261.998 44.096C261.462 44.096 260.982 43.992 260.558 43.784C260.142 43.576 259.818 43.26 259.586 42.836C259.354 42.404 259.238 41.856 259.238 41.192V37.544H261.11V40.916C261.11 41.452 261.222 41.848 261.446 42.104C261.678 42.352 262.002 42.476 262.418 42.476C262.706 42.476 262.962 42.416 263.186 42.296C263.41 42.168 263.586 41.976 263.714 41.72C263.842 41.456 263.906 41.128 263.906 40.736V37.544H265.778V44H264.002V42.224L264.326 42.74C264.11 43.188 263.79 43.528 263.366 43.76C262.95 43.984 262.494 44.096 261.998 44.096ZM216.842 60.096C216.298 60.096 215.822 59.976 215.414 59.736C215.006 59.496 214.686 59.132 214.454 58.644C214.23 58.148 214.118 57.524 214.118 56.772C214.118 56.012 214.226 55.388 214.442 54.9C214.658 54.412 214.97 54.048 215.378 53.808C215.786 53.568 216.274 53.448 216.842 53.448C217.45 53.448 217.994 53.588 218.474 53.868C218.962 54.14 219.346 54.524 219.626 55.02C219.914 55.516 220.058 56.1 220.058 56.772C220.058 57.452 219.914 58.04 219.626 58.536C219.346 59.032 218.962 59.416 218.474 59.688C217.994 59.96 217.45 60.096 216.842 60.096ZM213.026 62.328V53.544H214.814V54.864L214.778 56.784L214.898 58.692V62.328H213.026ZM216.518 58.56C216.83 58.56 217.106 58.488 217.346 58.344C217.594 58.2 217.79 57.996 217.934 57.732C218.086 57.46 218.162 57.14 218.162 56.772C218.162 56.396 218.086 56.076 217.934 55.812C217.79 55.548 217.594 55.344 217.346 55.2C217.106 55.056 216.83 54.984 216.518 54.984C216.206 54.984 215.926 55.056 215.678 55.2C215.43 55.344 215.234 55.548 215.09 55.812C214.946 56.076 214.874 56.396 214.874 56.772C214.874 57.14 214.946 57.46 215.09 57.732C215.234 57.996 215.43 58.2 215.678 58.344C215.926 58.488 216.206 58.56 216.518 58.56ZM221.311 60V53.544H223.099V55.368L222.847 54.84C223.039 54.384 223.347 54.04 223.771 53.808C224.195 53.568 224.711 53.448 225.319 53.448V55.176C225.239 55.168 225.167 55.164 225.103 55.164C225.039 55.156 224.971 55.152 224.899 55.152C224.387 55.152 223.971 55.3 223.651 55.596C223.339 55.884 223.183 56.336 223.183 56.952V60H221.311ZM229.457 60.096C228.769 60.096 228.157 59.952 227.621 59.664C227.093 59.376 226.673 58.984 226.361 58.488C226.057 57.984 225.905 57.412 225.905 56.772C225.905 56.124 226.057 55.552 226.361 55.056C226.673 54.552 227.093 54.16 227.621 53.88C228.157 53.592 228.769 53.448 229.457 53.448C230.137 53.448 230.745 53.592 231.281 53.88C231.817 54.16 232.237 54.548 232.541 55.044C232.845 55.54 232.997 56.116 232.997 56.772C232.997 57.412 232.845 57.984 232.541 58.488C232.237 58.984 231.817 59.376 231.281 59.664C230.745 59.952 230.137 60.096 229.457 60.096ZM229.457 58.56C229.769 58.56 230.049 58.488 230.297 58.344C230.545 58.2 230.741 57.996 230.885 57.732C231.029 57.46 231.101 57.14 231.101 56.772C231.101 56.396 231.029 56.076 230.885 55.812C230.741 55.548 230.545 55.344 230.297 55.2C230.049 55.056 229.769 54.984 229.457 54.984C229.145 54.984 228.865 55.056 228.617 55.2C228.369 55.344 228.169 55.548 228.017 55.812C227.873 56.076 227.801 56.396 227.801 56.772C227.801 57.14 227.873 57.46 228.017 57.732C228.169 57.996 228.369 58.2 228.617 58.344C228.865 58.488 229.145 58.56 229.457 58.56ZM234.889 62.424C234.553 62.424 234.221 62.372 233.893 62.268C233.565 62.164 233.297 62.02 233.089 61.836L233.773 60.504C233.917 60.632 234.081 60.732 234.265 60.804C234.457 60.876 234.645 60.912 234.829 60.912C235.093 60.912 235.301 60.848 235.453 60.72C235.613 60.6 235.757 60.396 235.885 60.108L236.221 59.316L236.365 59.112L238.681 53.544H240.481L237.565 60.396C237.357 60.916 237.117 61.324 236.845 61.62C236.581 61.916 236.285 62.124 235.957 62.244C235.637 62.364 235.281 62.424 234.889 62.424ZM235.993 60.252L233.113 53.544H235.045L237.277 58.944L235.993 60.252ZM244.273 60.096C243.537 60.096 242.889 59.952 242.329 59.664C241.777 59.376 241.349 58.984 241.045 58.488C240.741 57.984 240.589 57.412 240.589 56.772C240.589 56.124 240.737 55.552 241.033 55.056C241.337 54.552 241.749 54.16 242.269 53.88C242.789 53.592 243.377 53.448 244.033 53.448C244.665 53.448 245.233 53.584 245.737 53.856C246.249 54.12 246.653 54.504 246.949 55.008C247.245 55.504 247.393 56.1 247.393 56.796C247.393 56.868 247.389 56.952 247.381 57.048C247.373 57.136 247.365 57.22 247.357 57.3H242.113V56.208H246.373L245.653 56.532C245.653 56.196 245.585 55.904 245.449 55.656C245.313 55.408 245.125 55.216 244.885 55.08C244.645 54.936 244.365 54.864 244.045 54.864C243.725 54.864 243.441 54.936 243.193 55.08C242.953 55.216 242.765 55.412 242.629 55.668C242.493 55.916 242.425 56.212 242.425 56.556V56.844C242.425 57.196 242.501 57.508 242.653 57.78C242.813 58.044 243.033 58.248 243.313 58.392C243.601 58.528 243.937 58.596 244.321 58.596C244.665 58.596 244.965 58.544 245.221 58.44C245.485 58.336 245.725 58.18 245.941 57.972L246.937 59.052C246.641 59.388 246.269 59.648 245.821 59.832C245.373 60.008 244.857 60.096 244.273 60.096ZM251.759 60.096C251.063 60.096 250.443 59.956 249.899 59.676C249.355 59.388 248.927 58.992 248.615 58.488C248.311 57.984 248.159 57.412 248.159 56.772C248.159 56.124 248.311 55.552 248.615 55.056C248.927 54.552 249.355 54.16 249.899 53.88C250.443 53.592 251.063 53.448 251.759 53.448C252.439 53.448 253.031 53.592 253.535 53.88C254.039 54.16 254.411 54.564 254.651 55.092L253.199 55.872C253.031 55.568 252.819 55.344 252.563 55.2C252.315 55.056 252.043 54.984 251.747 54.984C251.427 54.984 251.139 55.056 250.883 55.2C250.627 55.344 250.423 55.548 250.271 55.812C250.127 56.076 250.055 56.396 250.055 56.772C250.055 57.148 250.127 57.468 250.271 57.732C250.423 57.996 250.627 58.2 250.883 58.344C251.139 58.488 251.427 58.56 251.747 58.56C252.043 58.56 252.315 58.492 252.563 58.356C252.819 58.212 253.031 57.984 253.199 57.672L254.651 58.464C254.411 58.984 254.039 59.388 253.535 59.676C253.031 59.956 252.439 60.096 251.759 60.096ZM258.463 60.096C257.703 60.096 257.111 59.904 256.687 59.52C256.263 59.128 256.051 58.548 256.051 57.78V52.116H257.923V57.756C257.923 58.028 257.995 58.24 258.139 58.392C258.283 58.536 258.479 58.608 258.727 58.608C259.023 58.608 259.275 58.528 259.483 58.368L259.987 59.688C259.795 59.824 259.563 59.928 259.291 60C259.027 60.064 258.751 60.096 258.463 60.096ZM255.055 55.128V53.688H259.531V55.128H255.055ZM263.911 60.096C263.223 60.096 262.611 59.952 262.075 59.664C261.547 59.376 261.127 58.984 260.815 58.488C260.511 57.984 260.359 57.412 260.359 56.772C260.359 56.124 260.511 55.552 260.815 55.056C261.127 54.552 261.547 54.16 262.075 53.88C262.611 53.592 263.223 53.448 263.911 53.448C264.591 53.448 265.199 53.592 265.735 53.88C266.271 54.16 266.691 54.548 266.995 55.044C267.299 55.54 267.451 56.116 267.451 56.772C267.451 57.412 267.299 57.984 266.995 58.488C266.691 58.984 266.271 59.376 265.735 59.664C265.199 59.952 264.591 60.096 263.911 60.096ZM263.911 58.56C264.223 58.56 264.503 58.488 264.751 58.344C264.999 58.2 265.195 57.996 265.339 57.732C265.483 57.46 265.555 57.14 265.555 56.772C265.555 56.396 265.483 56.076 265.339 55.812C265.195 55.548 264.999 55.344 264.751 55.2C264.503 55.056 264.223 54.984 263.911 54.984C263.599 54.984 263.319 55.056 263.071 55.2C262.823 55.344 262.623 55.548 262.471 55.812C262.327 56.076 262.255 56.396 262.255 56.772C262.255 57.14 262.327 57.46 262.471 57.732C262.623 57.996 262.823 58.2 263.071 58.344C263.319 58.488 263.599 58.56 263.911 58.56Z" fill="#9999AD"/>
<rect x="15" width="24" height="24" rx="8" fill="#100FA8"/>
<g clip-path="url(#clip0_1307_5514)">
<path d="M25.6667 14.1147L31.7947 7.986L32.738 8.92867L25.6667 16L21.424 11.7573L22.3667 10.8147L25.6667 14.1147Z" fill="white"/>
</g>
<line x1="43" y1="11.75" x2="81" y2="11.75" stroke="#100FA8" stroke-width="0.5"/>
<line x1="81" y1="11.75" x2="119" y2="11.75" stroke="#100FA8" stroke-width="0.5"/>
<rect x="123" width="24" height="24" rx="8" fill="#100FA8"/>
<path d="M131.882 15.9982L131.879 14.7382L135.113 11.6716C135.368 11.4391 135.556 11.2307 135.675 11.0464C135.795 10.8622 135.875 10.694 135.914 10.5419C135.962 10.3898 135.986 10.2498 135.985 10.1218C135.985 9.78579 135.868 9.53003 135.636 9.35451C135.412 9.17097 135.079 9.07965 134.639 9.08055C134.287 9.08127 133.96 9.14994 133.656 9.28657C133.36 9.42317 133.108 9.63569 132.901 9.92412L131.483 9.01502C131.802 8.53436 132.249 8.15345 132.825 7.87227C133.4 7.59109 134.064 7.44973 134.816 7.44819C135.44 7.44691 135.984 7.54979 136.449 7.75684C136.921 7.95587 137.286 8.23912 137.542 8.6066C137.807 8.97406 137.94 9.41379 137.941 9.92578C137.942 10.1978 137.906 10.4699 137.835 10.742C137.771 11.0061 137.636 11.2864 137.428 11.5828C137.229 11.8792 136.934 12.2119 136.543 12.5807L133.86 15.1182L133.486 14.4109L138.226 14.4012L138.23 15.9852L131.882 15.9982Z" fill="white"/>
<line x1="151" y1="11.75" x2="227" y2="11.75" stroke="#CCCCD6" stroke-width="0.5"/>
<rect x="231" width="24" height="24" rx="8" fill="#CCCCD6"/>
<path d="M242.666 16.1365C242.082 16.1377 241.502 16.0629 240.926 15.9121C240.349 15.7533 239.861 15.5303 239.46 15.2431L240.213 13.7535C240.534 13.9849 240.906 14.1681 241.33 14.3032C241.755 14.4384 242.183 14.5055 242.615 14.5046C243.103 14.5036 243.487 14.4068 243.766 14.2143C244.046 14.0217 244.185 13.7574 244.185 13.4214C244.184 13.1014 244.059 12.8496 243.811 12.6662C243.563 12.4827 243.162 12.3915 242.61 12.3926L241.722 12.3944L241.72 11.1104L244.054 8.45365L244.272 9.1492L239.868 9.15823L239.865 7.59823L245.745 7.58618L245.747 8.84618L243.425 11.5029L242.439 10.941L243.003 10.9398C244.035 10.9377 244.816 11.1681 245.345 11.631C245.874 12.0939 246.139 12.6894 246.141 13.4174C246.142 13.8894 246.018 14.3336 245.771 14.7501C245.524 15.1587 245.145 15.4914 244.633 15.7485C244.122 16.0055 243.466 16.1349 242.666 16.1365Z" fill="#9999AD"/>
<defs>
<clipPath id="clip0_1307_5514">
<rect width="16" height="16" fill="white" transform="translate(19 4)"/>
</clipPath>
</defs>
</svg>
