<svg width="268" height="63" viewBox="0 0 268 63" fill="none" xmlns="http://www.w3.org/2000/svg">
<path d="M6.58469 35.6V40.7L2.40869 35.6H0.800688V44H2.72069V38.9L6.90869 44H8.50469V35.6H6.58469ZM14.9921 37.544V40.736C14.9921 41.924 14.3681 42.476 13.5041 42.476C12.6761 42.476 12.1961 41.996 12.1961 40.916V37.544H10.3241V41.192C10.3241 43.184 11.4641 44.096 13.0841 44.096C13.8761 44.096 14.5961 43.796 15.0881 43.232V44H16.8641V37.544H14.9921ZM24.9224 40.796C24.9224 38.72 23.4584 37.448 21.5624 37.448C19.5944 37.448 18.1184 38.84 18.1184 40.772C18.1184 42.692 19.5704 44.096 21.8024 44.096C22.9664 44.096 23.8664 43.736 24.4664 43.052L23.4704 41.972C23.0264 42.392 22.5344 42.596 21.8504 42.596C20.8664 42.596 20.1824 42.104 20.0024 41.3H24.8864C24.8984 41.144 24.9224 40.94 24.9224 40.796ZM21.5744 38.864C22.4144 38.864 23.0264 39.392 23.1584 40.208H19.9784C20.1104 39.38 20.7224 38.864 21.5744 38.864ZM28.3407 44.096C30.2727 44.096 31.3887 43.244 31.3887 42.044C31.3887 39.5 27.4887 40.568 27.4887 39.464C27.4887 39.128 27.8487 38.864 28.6887 38.864C29.2767 38.864 29.9127 38.984 30.5487 39.344L31.1727 38.012C30.5607 37.652 29.5767 37.448 28.6887 37.448C26.8047 37.448 25.7007 38.312 25.7007 39.536C25.7007 42.116 29.6007 41.036 29.6007 42.092C29.6007 42.452 29.2767 42.68 28.4127 42.68C27.6207 42.68 26.7447 42.428 26.1687 42.056L25.5447 43.4C26.1447 43.796 27.2487 44.096 28.3407 44.096ZM36.2037 42.368C35.9997 42.524 35.7237 42.608 35.4477 42.608C34.9437 42.608 34.6437 42.308 34.6437 41.756V39.128H36.2517V37.688H34.6437V36.116H32.7717V37.688H31.7757V39.128H32.7717V41.78C32.7717 43.316 33.6597 44.096 35.1837 44.096C35.7597 44.096 36.3237 43.964 36.7077 43.688L36.2037 42.368ZM39.5465 38.396V37.544H37.7585V44H39.6305V40.952C39.6305 39.716 40.3145 39.152 41.3465 39.152C41.4905 39.152 41.6105 39.164 41.7665 39.176V37.448C40.7705 37.448 40.0025 37.772 39.5465 38.396ZM45.893 44.096C47.945 44.096 49.433 42.716 49.433 40.772C49.433 38.828 47.945 37.448 45.893 37.448C43.841 37.448 42.341 38.828 42.341 40.772C42.341 42.716 43.841 44.096 45.893 44.096ZM45.893 42.56C44.957 42.56 44.237 41.888 44.237 40.772C44.237 39.656 44.957 38.984 45.893 38.984C46.829 38.984 47.537 39.656 47.537 40.772C47.537 41.888 46.829 42.56 45.893 42.56ZM52.8563 44.096C54.7883 44.096 55.9043 43.244 55.9043 42.044C55.9043 39.5 52.0043 40.568 52.0043 39.464C52.0043 39.128 52.3643 38.864 53.2043 38.864C53.7923 38.864 54.4283 38.984 55.0643 39.344L55.6883 38.012C55.0763 37.652 54.0923 37.448 53.2043 37.448C51.3203 37.448 50.2163 38.312 50.2163 39.536C50.2163 42.116 54.1163 41.036 54.1163 42.092C54.1163 42.452 53.7923 42.68 52.9283 42.68C52.1363 42.68 51.2603 42.428 50.6843 42.056L50.0603 43.4C50.6603 43.796 51.7643 44.096 52.8563 44.096ZM3.61342 60.144C6.01342 60.144 7.17742 58.944 7.17742 57.54C7.17742 54.456 2.29342 55.524 2.29342 53.976C2.29342 53.448 2.73742 53.016 3.88942 53.016C4.63342 53.016 5.43742 53.232 6.21742 53.676L6.81742 52.2C6.03742 51.708 4.95742 51.456 3.90142 51.456C1.51342 51.456 0.361422 52.644 0.361422 54.072C0.361422 57.192 5.24542 56.112 5.24542 57.684C5.24542 58.2 4.77742 58.584 3.62542 58.584C2.61742 58.584 1.56142 58.224 0.853422 57.708L0.193422 59.172C0.937422 59.748 2.28142 60.144 3.61342 60.144ZM14.6978 56.796C14.6978 54.72 13.2338 53.448 11.3378 53.448C9.36977 53.448 7.89377 54.84 7.89377 56.772C7.89377 58.692 9.34577 60.096 11.5778 60.096C12.7418 60.096 13.6418 59.736 14.2418 59.052L13.2458 57.972C12.8018 58.392 12.3098 58.596 11.6258 58.596C10.6418 58.596 9.95777 58.104 9.77777 57.3H14.6618C14.6738 57.144 14.6978 56.94 14.6978 56.796ZM11.3498 54.864C12.1898 54.864 12.8018 55.392 12.9338 56.208H9.75377C9.88577 55.38 10.4978 54.864 11.3498 54.864ZM17.7321 54.396V53.544H15.9441V60H17.8161V56.952C17.8161 55.716 18.5001 55.152 19.5321 55.152C19.6761 55.152 19.7961 55.164 19.9521 55.176V53.448C18.9561 53.448 18.1881 53.772 17.7321 54.396ZM25.8958 53.544L24.0478 57.936L22.2598 53.544H20.3278L23.0398 60H24.9718L27.6958 53.544H25.8958ZM29.3957 52.644C30.0917 52.644 30.5597 52.188 30.5597 51.564C30.5597 50.988 30.0917 50.556 29.3957 50.556C28.6997 50.556 28.2317 51.012 28.2317 51.6C28.2317 52.188 28.6997 52.644 29.3957 52.644ZM28.4597 60H30.3317V53.544H28.4597V60ZM35.1891 60.096C36.5451 60.096 37.6131 59.496 38.0811 58.464L36.6291 57.672C36.2811 58.296 35.7651 58.56 35.1771 58.56C34.2291 58.56 33.4851 57.9 33.4851 56.772C33.4851 55.644 34.2291 54.984 35.1771 54.984C35.7651 54.984 36.2811 55.26 36.6291 55.872L38.0811 55.092C37.6131 54.036 36.5451 53.448 35.1891 53.448C33.0891 53.448 31.5891 54.828 31.5891 56.772C31.5891 58.716 33.0891 60.096 35.1891 60.096ZM40.0949 52.644C40.7909 52.644 41.2589 52.188 41.2589 51.564C41.2589 50.988 40.7909 50.556 40.0949 50.556C39.3989 50.556 38.9309 51.012 38.9309 51.6C38.9309 52.188 39.3989 52.644 40.0949 52.644ZM39.1589 60H41.0309V53.544H39.1589V60ZM45.8403 60.096C47.8923 60.096 49.3803 58.716 49.3803 56.772C49.3803 54.828 47.8923 53.448 45.8403 53.448C43.7883 53.448 42.2883 54.828 42.2883 56.772C42.2883 58.716 43.7883 60.096 45.8403 60.096ZM45.8403 58.56C44.9043 58.56 44.1843 57.888 44.1843 56.772C44.1843 55.656 44.9043 54.984 45.8403 54.984C46.7763 54.984 47.4843 55.656 47.4843 56.772C47.4843 57.888 46.7763 58.56 45.8403 58.56ZM52.8036 60.096C54.7356 60.096 55.8516 59.244 55.8516 58.044C55.8516 55.5 51.9516 56.568 51.9516 55.464C51.9516 55.128 52.3116 54.864 53.1516 54.864C53.7396 54.864 54.3756 54.984 55.0116 55.344L55.6356 54.012C55.0236 53.652 54.0396 53.448 53.1516 53.448C51.2676 53.448 50.1636 54.312 50.1636 55.536C50.1636 58.116 54.0636 57.036 54.0636 58.092C54.0636 58.452 53.7396 58.68 52.8756 58.68C52.0836 58.68 51.2076 58.428 50.6316 58.056L50.0076 59.4C50.6076 59.796 51.7116 60.096 52.8036 60.096Z" fill="#100FA8"/>
<path d="M116.709 44H120.525C123.273 44 125.157 42.344 125.157 39.8C125.157 37.256 123.273 35.6 120.525 35.6H116.709V44ZM118.653 42.404V37.196H120.429C122.097 37.196 123.189 38.192 123.189 39.8C123.189 41.408 122.097 42.404 120.429 42.404H118.653ZM129.095 37.448C128.063 37.448 127.019 37.724 126.311 38.228L126.983 39.536C127.451 39.164 128.159 38.936 128.843 38.936C129.851 38.936 130.331 39.404 130.331 40.208H128.843C126.875 40.208 126.071 41 126.071 42.14C126.071 43.256 126.971 44.096 128.483 44.096C129.431 44.096 130.103 43.784 130.451 43.196V44H132.203V40.316C132.203 38.36 131.063 37.448 129.095 37.448ZM128.951 42.836C128.291 42.836 127.895 42.524 127.895 42.056C127.895 41.624 128.171 41.3 129.047 41.3H130.331V41.96C130.115 42.548 129.575 42.836 128.951 42.836ZM137.557 42.368C137.353 42.524 137.077 42.608 136.801 42.608C136.297 42.608 135.997 42.308 135.997 41.756V39.128H137.605V37.688H135.997V36.116H134.125V37.688H133.129V39.128H134.125V41.78C134.125 43.316 135.013 44.096 136.537 44.096C137.113 44.096 137.677 43.964 138.061 43.688L137.557 42.368ZM141.985 44.096C144.037 44.096 145.525 42.716 145.525 40.772C145.525 38.828 144.037 37.448 141.985 37.448C139.933 37.448 138.433 38.828 138.433 40.772C138.433 42.716 139.933 44.096 141.985 44.096ZM141.985 42.56C141.049 42.56 140.329 41.888 140.329 40.772C140.329 39.656 141.049 38.984 141.985 38.984C142.921 38.984 143.629 39.656 143.629 40.772C143.629 41.888 142.921 42.56 141.985 42.56ZM148.948 44.096C150.88 44.096 151.996 43.244 151.996 42.044C151.996 39.5 148.096 40.568 148.096 39.464C148.096 39.128 148.456 38.864 149.296 38.864C149.884 38.864 150.52 38.984 151.156 39.344L151.78 38.012C151.168 37.652 150.184 37.448 149.296 37.448C147.412 37.448 146.308 38.312 146.308 39.536C146.308 42.116 150.208 41.036 150.208 42.092C150.208 42.452 149.884 42.68 149.02 42.68C148.228 42.68 147.352 42.428 146.776 42.056L146.152 43.4C146.752 43.796 147.856 44.096 148.948 44.096ZM104.432 53.448C103.568 53.448 102.872 53.724 102.404 54.288V53.544H100.616V62.328H102.488V59.316C102.968 59.844 103.628 60.096 104.432 60.096C106.244 60.096 107.648 58.8 107.648 56.772C107.648 54.744 106.244 53.448 104.432 53.448ZM104.108 58.56C103.172 58.56 102.464 57.888 102.464 56.772C102.464 55.656 103.172 54.984 104.108 54.984C105.044 54.984 105.752 55.656 105.752 56.772C105.752 57.888 105.044 58.56 104.108 58.56ZM115.225 56.796C115.225 54.72 113.761 53.448 111.865 53.448C109.897 53.448 108.421 54.84 108.421 56.772C108.421 58.692 109.873 60.096 112.105 60.096C113.269 60.096 114.169 59.736 114.769 59.052L113.773 57.972C113.329 58.392 112.837 58.596 112.153 58.596C111.169 58.596 110.485 58.104 110.305 57.3H115.189C115.201 57.144 115.225 56.94 115.225 56.796ZM111.877 54.864C112.717 54.864 113.329 55.392 113.461 56.208H110.281C110.413 55.38 111.025 54.864 111.877 54.864ZM118.259 54.396V53.544H116.471V60H118.343V56.952C118.343 55.716 119.027 55.152 120.059 55.152C120.203 55.152 120.323 55.164 120.479 55.176V53.448C119.483 53.448 118.715 53.772 118.259 54.396ZM123.788 60.096C125.72 60.096 126.836 59.244 126.836 58.044C126.836 55.5 122.936 56.568 122.936 55.464C122.936 55.128 123.296 54.864 124.136 54.864C124.724 54.864 125.36 54.984 125.996 55.344L126.62 54.012C126.008 53.652 125.024 53.448 124.136 53.448C122.252 53.448 121.148 54.312 121.148 55.536C121.148 58.116 125.048 57.036 125.048 58.092C125.048 58.452 124.724 58.68 123.86 58.68C123.068 58.68 122.192 58.428 121.616 58.056L120.992 59.4C121.592 59.796 122.696 60.096 123.788 60.096ZM131.063 60.096C133.115 60.096 134.603 58.716 134.603 56.772C134.603 54.828 133.115 53.448 131.063 53.448C129.011 53.448 127.511 54.828 127.511 56.772C127.511 58.716 129.011 60.096 131.063 60.096ZM131.063 58.56C130.127 58.56 129.407 57.888 129.407 56.772C129.407 55.656 130.127 54.984 131.063 54.984C131.999 54.984 132.707 55.656 132.707 56.772C132.707 57.888 131.999 58.56 131.063 58.56ZM139.778 53.448C138.902 53.448 138.146 53.748 137.642 54.3V53.544H135.854V60H137.726V56.808C137.726 55.62 138.374 55.068 139.274 55.068C140.102 55.068 140.582 55.548 140.582 56.592V60H142.454V56.304C142.454 54.336 141.302 53.448 139.778 53.448ZM146.755 53.448C145.723 53.448 144.679 53.724 143.971 54.228L144.643 55.536C145.111 55.164 145.819 54.936 146.503 54.936C147.511 54.936 147.991 55.404 147.991 56.208H146.503C144.535 56.208 143.731 57 143.731 58.14C143.731 59.256 144.631 60.096 146.143 60.096C147.091 60.096 147.763 59.784 148.111 59.196V60H149.863V56.316C149.863 54.36 148.723 53.448 146.755 53.448ZM146.611 58.836C145.951 58.836 145.555 58.524 145.555 58.056C145.555 57.624 145.831 57.3 146.707 57.3H147.991V57.96C147.775 58.548 147.235 58.836 146.611 58.836ZM151.557 60H153.429V51.096H151.557V60ZM161.491 56.796C161.491 54.72 160.027 53.448 158.131 53.448C156.163 53.448 154.687 54.84 154.687 56.772C154.687 58.692 156.139 60.096 158.371 60.096C159.535 60.096 160.435 59.736 161.035 59.052L160.039 57.972C159.595 58.392 159.103 58.596 158.419 58.596C157.435 58.596 156.751 58.104 156.571 57.3H161.455C161.467 57.144 161.491 56.94 161.491 56.796ZM158.143 54.864C158.983 54.864 159.595 55.392 159.727 56.208H156.547C156.679 55.38 157.291 54.864 158.143 54.864ZM164.909 60.096C166.841 60.096 167.957 59.244 167.957 58.044C167.957 55.5 164.057 56.568 164.057 55.464C164.057 55.128 164.417 54.864 165.257 54.864C165.845 54.864 166.481 54.984 167.117 55.344L167.741 54.012C167.129 53.652 166.145 53.448 165.257 53.448C163.373 53.448 162.269 54.312 162.269 55.536C162.269 58.116 166.169 57.036 166.169 58.092C166.169 58.452 165.845 58.68 164.981 58.68C164.189 58.68 163.313 58.428 162.737 58.056L162.113 59.4C162.713 59.796 163.817 60.096 164.909 60.096Z" fill="#100FA8"/>
<path d="M217.113 44.144C219.513 44.144 220.677 42.944 220.677 41.54C220.677 38.456 215.793 39.524 215.793 37.976C215.793 37.448 216.237 37.016 217.389 37.016C218.133 37.016 218.937 37.232 219.717 37.676L220.317 36.2C219.537 35.708 218.457 35.456 217.401 35.456C215.013 35.456 213.861 36.644 213.861 38.072C213.861 41.192 218.745 40.112 218.745 41.684C218.745 42.2 218.277 42.584 217.125 42.584C216.117 42.584 215.061 42.224 214.353 41.708L213.693 43.172C214.437 43.748 215.781 44.144 217.113 44.144ZM224.946 44.096C226.998 44.096 228.486 42.716 228.486 40.772C228.486 38.828 226.998 37.448 224.946 37.448C222.894 37.448 221.394 38.828 221.394 40.772C221.394 42.716 222.894 44.096 224.946 44.096ZM224.946 42.56C224.01 42.56 223.29 41.888 223.29 40.772C223.29 39.656 224.01 38.984 224.946 38.984C225.882 38.984 226.59 39.656 226.59 40.772C226.59 41.888 225.882 42.56 224.946 42.56ZM233.553 37.448C232.749 37.448 232.089 37.7 231.609 38.228V35.096H229.737V44H231.525V43.256C231.993 43.82 232.689 44.096 233.553 44.096C235.365 44.096 236.769 42.8 236.769 40.772C236.769 38.744 235.365 37.448 233.553 37.448ZM233.229 42.56C232.293 42.56 231.585 41.888 231.585 40.772C231.585 39.656 232.293 38.984 233.229 38.984C234.165 38.984 234.873 39.656 234.873 40.772C234.873 41.888 234.165 42.56 233.229 42.56ZM239.81 38.396V37.544H238.022V44H239.894V40.952C239.894 39.716 240.578 39.152 241.61 39.152C241.754 39.152 241.874 39.164 242.03 39.176V37.448C241.034 37.448 240.266 37.772 239.81 38.396ZM249.409 40.796C249.409 38.72 247.945 37.448 246.049 37.448C244.081 37.448 242.605 38.84 242.605 40.772C242.605 42.692 244.057 44.096 246.289 44.096C247.453 44.096 248.353 43.736 248.953 43.052L247.957 41.972C247.513 42.392 247.021 42.596 246.337 42.596C245.353 42.596 244.669 42.104 244.489 41.3H249.373C249.385 41.144 249.409 40.94 249.409 40.796ZM246.061 38.864C246.901 38.864 247.513 39.392 247.645 40.208H244.465C244.597 39.38 245.209 38.864 246.061 38.864ZM257.713 42.368C257.509 42.524 257.233 42.608 256.957 42.608C256.453 42.608 256.153 42.308 256.153 41.756V39.128H257.761V37.688H256.153V36.116H254.281V37.688H253.285V39.128H254.281V41.78C254.281 43.316 255.169 44.096 256.693 44.096C257.269 44.096 257.833 43.964 258.217 43.688L257.713 42.368ZM263.9 37.544V40.736C263.9 41.924 263.276 42.476 262.412 42.476C261.584 42.476 261.104 41.996 261.104 40.916V37.544H259.232V41.192C259.232 43.184 260.372 44.096 261.992 44.096C262.784 44.096 263.504 43.796 263.996 43.232V44H265.772V37.544H263.9ZM216.848 53.448C215.984 53.448 215.288 53.724 214.82 54.288V53.544H213.032V62.328H214.904V59.316C215.384 59.844 216.044 60.096 216.848 60.096C218.66 60.096 220.064 58.8 220.064 56.772C220.064 54.744 218.66 53.448 216.848 53.448ZM216.524 58.56C215.588 58.56 214.88 57.888 214.88 56.772C214.88 55.656 215.588 54.984 216.524 54.984C217.46 54.984 218.168 55.656 218.168 56.772C218.168 57.888 217.46 58.56 216.524 58.56ZM223.105 54.396V53.544H221.317V60H223.189V56.952C223.189 55.716 223.873 55.152 224.905 55.152C225.049 55.152 225.169 55.164 225.325 55.176V53.448C224.329 53.448 223.561 53.772 223.105 54.396ZM229.452 60.096C231.504 60.096 232.992 58.716 232.992 56.772C232.992 54.828 231.504 53.448 229.452 53.448C227.4 53.448 225.9 54.828 225.9 56.772C225.9 58.716 227.4 60.096 229.452 60.096ZM229.452 58.56C228.516 58.56 227.796 57.888 227.796 56.772C227.796 55.656 228.516 54.984 229.452 54.984C230.388 54.984 231.096 55.656 231.096 56.772C231.096 57.888 230.388 58.56 229.452 58.56ZM238.675 53.544L236.851 57.924L235.039 53.544H233.107L235.903 60.048L235.879 60.108C235.627 60.684 235.339 60.912 234.823 60.912C234.451 60.912 234.055 60.756 233.767 60.504L233.083 61.836C233.503 62.208 234.223 62.424 234.883 62.424C236.047 62.424 236.935 61.956 237.559 60.396L240.475 53.544H238.675ZM247.387 56.796C247.387 54.72 245.923 53.448 244.027 53.448C242.059 53.448 240.583 54.84 240.583 56.772C240.583 58.692 242.035 60.096 244.267 60.096C245.431 60.096 246.331 59.736 246.931 59.052L245.935 57.972C245.491 58.392 244.999 58.596 244.315 58.596C243.331 58.596 242.647 58.104 242.467 57.3H247.351C247.363 57.144 247.387 56.94 247.387 56.796ZM244.039 54.864C244.879 54.864 245.491 55.392 245.623 56.208H242.443C242.575 55.38 243.187 54.864 244.039 54.864ZM251.754 60.096C253.11 60.096 254.178 59.496 254.646 58.464L253.194 57.672C252.846 58.296 252.33 58.56 251.742 58.56C250.794 58.56 250.05 57.9 250.05 56.772C250.05 55.644 250.794 54.984 251.742 54.984C252.33 54.984 252.846 55.26 253.194 55.872L254.646 55.092C254.178 54.036 253.11 53.448 251.754 53.448C249.654 53.448 248.154 54.828 248.154 56.772C248.154 58.716 249.654 60.096 251.754 60.096ZM259.477 58.368C259.273 58.524 258.997 58.608 258.721 58.608C258.217 58.608 257.917 58.308 257.917 57.756V55.128H259.525V53.688H257.917V52.116H256.045V53.688H255.049V55.128H256.045V57.78C256.045 59.316 256.933 60.096 258.457 60.096C259.033 60.096 259.597 59.964 259.981 59.688L259.477 58.368ZM263.905 60.096C265.957 60.096 267.445 58.716 267.445 56.772C267.445 54.828 265.957 53.448 263.905 53.448C261.853 53.448 260.353 54.828 260.353 56.772C260.353 58.716 261.853 60.096 263.905 60.096ZM263.905 58.56C262.969 58.56 262.249 57.888 262.249 56.772C262.249 55.656 262.969 54.984 263.905 54.984C264.841 54.984 265.549 55.656 265.549 56.772C265.549 57.888 264.841 58.56 263.905 58.56Z" fill="#100FA8"/>
<rect x="15" width="24" height="24" rx="8" fill="#100FA8"/>
<g clip-path="url(#clip0_1307_5514)">
<path d="M25.6667 14.1147L31.7947 7.986L32.738 8.92867L25.6667 16L21.424 11.7573L22.3667 10.8147L25.6667 14.1147Z" fill="white"/>
</g>
<line x1="43" y1="11.75" x2="81" y2="11.75" stroke="#100FA8" stroke-width="0.5"/>
<line x1="81" y1="11.75" x2="119" y2="11.75" stroke="#100FA8" stroke-width="0.5"/>
<rect x="123" width="24" height="24" rx="8" fill="#100FA8"/>
<g clip-path="url(#clip1_1307_5514)">
<path d="M133.667 14.1147L139.795 7.986L140.738 8.92867L133.667 16L129.424 11.7573L130.367 10.8147L133.667 14.1147Z" fill="white"/>
</g>
<line x1="151" y1="11.75" x2="227" y2="11.75" stroke="#100FA8" stroke-width="0.5"/>
<rect x="231" width="24" height="24" rx="8" fill="#100FA8"/>
<path d="M242.666 16.1365C242.082 16.1377 241.502 16.0629 240.926 15.9121C240.349 15.7533 239.861 15.5303 239.46 15.2431L240.213 13.7535C240.534 13.9849 240.906 14.1681 241.33 14.3032C241.755 14.4384 242.183 14.5055 242.615 14.5046C243.103 14.5036 243.487 14.4068 243.766 14.2143C244.046 14.0217 244.185 13.7574 244.185 13.4214C244.184 13.1014 244.059 12.8496 243.811 12.6662C243.563 12.4827 243.162 12.3915 242.61 12.3926L241.722 12.3944L241.72 11.1104L244.054 8.45365L244.272 9.1492L239.868 9.15823L239.865 7.59823L245.745 7.58618L245.747 8.84618L243.425 11.5029L242.439 10.941L243.003 10.9398C244.035 10.9377 244.816 11.1681 245.345 11.631C245.874 12.0939 246.139 12.6894 246.141 13.4174C246.142 13.8894 246.018 14.3336 245.771 14.7501C245.524 15.1587 245.145 15.4914 244.633 15.7485C244.122 16.0055 243.466 16.1349 242.666 16.1365Z" fill="white"/>
<defs>
<clipPath id="clip0_1307_5514">
<rect width="16" height="16" fill="white" transform="translate(19 4)"/>
</clipPath>
<clipPath id="clip1_1307_5514">
<rect width="16" height="16" fill="white" transform="translate(127 4)"/>
</clipPath>
</defs>
</svg>
