<svg width="17" height="16" viewBox="0 0 17 16" fill="none" xmlns="http://www.w3.org/2000/svg">
<path d="M3.72266 7.33458V6.83458H3.22266H2.51598L8.44366 1.44589L8.44382 1.44574C8.47451 1.41782 8.5145 1.40234 8.55599 1.40234C8.59748 1.40234 8.63747 1.41782 8.66816 1.44574L8.66832 1.44589L14.596 6.83458H13.8893H13.3893V7.33458V13.3346C13.3893 13.3788 13.3718 13.4212 13.3405 13.4524C13.3093 13.4837 13.2669 13.5012 13.2227 13.5012H3.88932C3.84512 13.5012 3.80273 13.4837 3.77147 13.4524C3.74022 13.4212 3.72266 13.3788 3.72266 13.3346V7.33458ZM7.88932 8.16791H7.38932V8.66791V12.6679V13.1679H7.88932H9.22266H9.72266V12.6679V8.66791V8.16791H9.22266H7.88932Z" fill="white" stroke="white"/>
</svg>
