<svg width="100" height="36" viewBox="0 0 100 36" fill="none" xmlns="http://www.w3.org/2000/svg">
<g clip-path="url(#clip0_3049_19189)">
<path d="M14.5952 4.79662C14.9533 3.85941 15.4456 2.99658 16.1767 2.29739C19.101 -0.544 23.9349 0.170067 25.9193 3.7404C27.4112 6.4479 28.9927 9.0959 30.5294 11.7736C33.0956 16.2217 35.6917 20.6697 38.228 25.1326C40.3615 28.8666 38.049 33.5824 33.8118 34.2221C31.2157 34.6089 28.7838 33.4188 27.4411 31.0981C25.1882 27.1856 22.9204 23.2731 20.6675 19.3755C20.6228 19.2862 20.5631 19.2118 20.5034 19.1375C20.2647 18.9441 20.1603 18.6614 20.0111 18.4085C19.0115 16.6531 17.982 14.9126 16.9824 13.172C16.3408 12.0414 15.6694 10.9257 15.0279 9.79509C14.446 8.78349 14.1775 7.68264 14.2073 6.52228C14.2521 5.92723 14.3267 5.33217 14.5952 4.79662Z" fill="#3C8BD9"/>
<path d="M14.5956 4.79688C14.4614 5.33242 14.342 5.86797 14.3122 6.43328C14.2674 7.68289 14.5807 8.84325 15.2073 9.92923C16.8485 12.7409 18.4897 15.5674 20.1159 18.3939C20.2651 18.6468 20.3845 18.8997 20.5337 19.1377C19.6385 20.6849 18.7433 22.2171 17.8332 23.7643C16.5799 25.9213 15.3267 28.0933 14.0585 30.2504C13.9988 30.2504 13.9839 30.2206 13.969 30.176C13.9541 30.057 13.9988 29.9528 14.0287 29.8338C14.6404 27.6024 14.1331 25.6238 12.5964 23.9279C11.6565 22.9014 10.4629 22.3213 9.09027 22.1279C7.29991 21.875 5.71842 22.3361 4.30105 23.4519C4.04742 23.6453 3.8833 23.9279 3.58491 24.0767C3.52523 24.0767 3.49539 24.0469 3.48047 24.0023C4.19661 22.7675 4.89784 21.5328 5.61398 20.2981C8.56808 15.1806 11.5222 10.0631 14.4912 4.96052C14.521 4.90101 14.5658 4.85638 14.5956 4.79688Z" fill="#FABC04"/>
<path d="M3.54057 24.0458C3.82405 23.7929 4.0926 23.5252 4.391 23.2871C8.01648 20.4309 13.4622 22.4987 14.2529 27.0211C14.4469 28.1071 14.3424 29.1484 14.0142 30.1898C13.9993 30.279 13.9843 30.3534 13.9545 30.4427C13.8202 30.6807 13.7009 30.9336 13.5517 31.1716C12.2238 33.3585 10.2693 34.4444 7.70316 34.2808C4.76399 34.0725 2.45144 31.8708 2.04861 28.955C1.85465 27.5418 2.13812 26.2178 2.86919 24.9979C3.01839 24.7302 3.19742 24.4921 3.36154 24.2244C3.43614 24.1649 3.4063 24.0458 3.54057 24.0458Z" fill="#34A852"/>
<path d="M3.54046 24.0439C3.48078 24.1034 3.48078 24.2075 3.37634 24.2224C3.36142 24.1183 3.4211 24.0588 3.48078 23.9844L3.54046 24.0439Z" fill="#FABC04"/>
<path d="M13.9544 30.4404C13.8947 30.3363 13.9544 30.2619 14.0141 30.1875C14.029 30.2024 14.0588 30.2321 14.0738 30.247L13.9544 30.4404Z" fill="#E1C025"/>
<path d="M51.2117 2.875C47.7696 2.875 44.9062 5.70342 44.9062 9.18454C44.9062 12.6657 47.7696 15.463 51.2117 15.463C53.0699 15.463 54.4407 14.8414 55.5373 13.6913C56.6643 12.5413 56.9994 10.9562 56.9994 9.68183C56.9994 9.27777 56.9689 8.9048 56.908 8.59398H51.2117V10.3035H55.2631C55.1413 11.267 54.8366 11.9819 54.3493 12.4792C53.7705 13.0697 52.8262 13.7535 51.2117 13.7535C48.7139 13.7535 46.7644 11.7021 46.7644 9.18454C46.7644 6.66694 48.7139 4.61556 51.2117 4.61556C52.552 4.61556 53.5573 5.14395 54.2579 5.85882L55.4459 4.64665C54.4407 3.65204 53.1004 2.875 51.2117 2.875ZM61.5381 7.38181C59.3754 7.38181 57.5782 9.09129 57.5782 11.4846C57.5782 13.8467 59.3449 15.5873 61.5381 15.5873C63.7314 15.5873 65.4981 13.8467 65.4981 11.4846C65.4981 9.12237 63.7009 7.38181 61.5381 7.38181ZM61.5381 13.9711C60.3502 13.9711 59.3145 12.9454 59.3145 11.4846C59.3145 10.0237 60.3502 8.99805 61.5381 8.99805C62.7261 8.99805 63.7618 9.99265 63.7618 11.4846C63.7618 12.9454 62.7261 13.9711 61.5381 13.9711ZM70.1282 7.38181C67.935 7.38181 66.1683 9.09129 66.1683 11.4846C66.1683 13.8467 67.935 15.5873 70.1282 15.5873C72.291 15.5873 74.0882 13.8467 74.0882 11.4846C74.0882 9.12237 72.3215 7.38181 70.1282 7.38181ZM70.1282 13.9711C68.9403 13.9711 67.9046 12.9454 67.9046 11.4846C67.9046 10.0237 68.9403 8.99805 70.1282 8.99805C71.3162 8.99805 72.3519 9.99265 72.3519 11.4846C72.3519 12.9454 71.3467 13.9711 70.1282 13.9711ZM78.6879 7.38181C76.7079 7.38181 74.9107 9.15345 74.9107 11.4535C74.9107 13.7224 76.7079 15.4941 78.6879 15.4941C79.6322 15.4941 80.3633 15.0589 80.7593 14.5616H80.8202V15.1522C80.8202 16.7062 80.0282 17.5454 78.7183 17.5454C77.6522 17.5454 77.0125 16.7684 76.7384 16.1157L75.2153 16.7684C75.6418 17.8563 76.7993 19.1617 78.7183 19.1617C80.7593 19.1617 82.4651 17.9184 82.4651 14.9346V7.66154H80.8202V8.31425H80.7593C80.3633 7.81695 79.6322 7.38181 78.6879 7.38181ZM78.8402 13.9089C77.6522 13.9089 76.647 12.8832 76.647 11.4535C76.647 10.0237 77.6522 8.96696 78.8402 8.96696C80.0282 8.96696 80.942 10.0237 80.942 11.4535C80.942 12.8832 80.0282 13.9089 78.8402 13.9089ZM83.7445 3.3723H85.4808V15.3697H83.7445V3.3723ZM90.1414 7.38181C88.07 7.38181 86.3337 9.02913 86.3337 11.4846C86.3337 13.7846 88.0395 15.5873 90.3241 15.5873C92.1823 15.5873 93.2484 14.4373 93.6749 13.7846L92.3041 12.8521C91.8472 13.5359 91.2075 13.9711 90.3241 13.9711C89.4103 13.9711 88.7706 13.567 88.3746 12.7278L93.7663 10.4589L93.5835 9.99265C93.2484 9.09128 92.2127 7.38181 90.1414 7.38181ZM88.07 11.3602C88.0091 9.77508 89.2884 8.96696 90.1718 8.96696C90.8724 8.96696 91.4817 9.30885 91.6644 9.83724L88.07 11.3602Z" fill="#757575"/>
<path d="M44.2832 32.8742L48.3816 22.0078H49.9651L54.0635 32.8742H52.511L51.4554 29.9331H46.8913L45.8356 32.8742H44.2832ZM47.357 28.6329H50.9897L49.2199 23.7415H49.1578L47.357 28.6329Z" fill="#757575"/>
<path d="M55.4924 31.9764C54.8093 31.2024 54.4678 30.2737 54.4678 29.1592C54.4678 28.0756 54.8093 27.1469 55.4924 26.342C56.2065 25.568 57.0137 25.1965 58.0073 25.1965C58.5662 25.1965 59.0629 25.3203 59.4976 25.5371C59.9633 25.7847 60.3049 26.0633 60.5533 26.4658H60.6154L60.5533 25.4442V22.0078H61.9504V32.8742H60.6154V31.8526H60.5533C60.3049 32.2241 59.9633 32.5336 59.4976 32.7813C59.0319 33.029 58.5351 33.1218 58.0073 33.1218C57.0137 33.1218 56.1754 32.7503 55.4924 31.9764ZM59.9012 31.1096C60.367 30.6142 60.5843 29.9641 60.5843 29.1592C60.5843 28.3852 60.367 27.7351 59.9012 27.2398C59.4666 26.7444 58.9077 26.4968 58.2246 26.4968C57.5416 26.4968 56.9827 26.7444 56.548 27.2398C56.0823 27.7351 55.865 28.3852 55.865 29.1592C55.865 29.9331 56.0823 30.5833 56.548 31.0786C57.0137 31.5739 57.5726 31.8216 58.2246 31.8216C58.9077 31.8526 59.4666 31.6049 59.9012 31.1096Z" fill="#757575"/>
<path d="M68.4067 32.4474C67.8479 32.8808 67.1337 33.1284 66.2644 33.1284C65.5192 33.1284 64.8672 32.9427 64.2773 32.5402C63.7184 32.1378 63.3148 31.6424 63.0664 30.9923L64.3083 30.466C64.4946 30.8995 64.743 31.271 65.1156 31.5186C65.4571 31.7663 65.8608 31.8901 66.2644 31.8901C66.6991 31.8901 67.0717 31.7972 67.3821 31.6115C67.6926 31.4257 67.8168 31.1781 67.8168 30.9304C67.8168 30.466 67.4442 30.0945 66.7301 29.8778L65.4571 29.5682C63.9979 29.1967 63.2837 28.5157 63.2837 27.4631C63.2837 26.782 63.5632 26.2557 64.1221 25.8223C64.6809 25.4198 65.395 25.2031 66.2333 25.2031C66.8854 25.2031 67.4753 25.3579 68.0342 25.6675C68.562 25.9771 68.9346 26.4105 69.1519 26.9368L67.91 27.4631C67.7547 27.1535 67.5374 26.9058 67.2269 26.7201C66.9164 26.5343 66.5438 26.4415 66.1402 26.4415C65.7676 26.4415 65.4571 26.5343 65.1467 26.7201C64.8672 26.9058 64.712 27.1225 64.712 27.4012C64.712 27.8346 65.1156 28.1442 65.9229 28.299L67.0406 28.5776C68.5309 28.9491 69.245 29.6921 69.245 30.8066C69.2761 31.4567 68.9656 32.014 68.4067 32.4474Z" fill="#757575"/>
</g>
<defs>
<clipPath id="clip0_3049_19189">
<rect width="98.8833" height="34.9" fill="white" transform="translate(0.96875 0.546875)"/>
</clipPath>
</defs>
</svg>
