<svg width="35" height="32" viewBox="0 0 35 32" fill="none" xmlns="http://www.w3.org/2000/svg">
<g clip-path="url(#clip0_2490_6311)">
<g clip-path="url(#clip1_2490_6311)">
<path d="M9.48372 2.79776C8.0941 2.79776 6.76139 3.34979 5.77878 4.3324C4.79617 5.31501 4.24414 6.64772 4.24414 8.03734C4.24414 9.42696 4.79617 10.7597 5.77878 11.7423C6.76139 12.7249 8.0941 13.2769 9.48372 13.2769H25.2025C26.5921 13.2769 27.9248 12.7249 28.9074 11.7423C29.89 10.7597 30.442 9.42696 30.442 8.03734C30.442 6.64772 29.89 5.31501 28.9074 4.3324C27.9248 3.34979 26.5921 2.79776 25.2025 2.79776H9.48372Z" stroke="#05058C" stroke-width="4.19108"/>
<path d="M4.24414 23.7668C4.24414 25.1561 4.79593 26.4886 5.77818 27.4711C6.76043 28.4537 8.0927 29.0059 9.48204 29.0064H25.2025C26.5918 29.0064 27.9242 28.4546 28.9068 27.4723C29.8894 26.4901 30.4416 25.1578 30.442 23.7685M4.24414 15.9066C4.24414 17.2959 4.79593 18.6284 5.77818 19.6109C6.76043 20.5935 8.0927 21.1457 9.48204 21.1461H25.2025C26.5918 21.1461 27.9242 20.5944 28.9068 19.6121C29.8894 18.6299 30.4416 17.2976 30.442 15.9083" stroke="#05058C" stroke-width="4.19108"/>
</g>
</g>
<defs>
<clipPath id="clip0_2490_6311">
<rect width="33.6842" height="32" fill="white" transform="translate(0.5)"/>
</clipPath>
<clipPath id="clip1_2490_6311">
<rect width="33.6842" height="32" fill="white" transform="translate(0.5 -0.00178528)"/>
</clipPath>
</defs>
</svg>
