<svg width="33" height="32" viewBox="0 0 33 32" fill="none" xmlns="http://www.w3.org/2000/svg">
<g clip-path="url(#clip0_2490_6289)">
<g clip-path="url(#clip1_2490_6289)">
<path d="M9.82641 19.8658H22.6557L28.8877 28.0538C29.0505 28.2675 29.1503 28.5224 29.1759 28.7898C29.2015 29.0571 29.1519 29.3263 29.0327 29.567C28.9134 29.8077 28.7293 30.0102 28.5011 30.1519C28.2729 30.2935 28.0097 30.3685 27.7411 30.3685H5.12507C4.86006 30.3687 4.60011 30.2959 4.37382 30.1579C4.14752 30.02 3.96363 29.8224 3.84236 29.5867C3.7211 29.3511 3.66715 29.0865 3.68644 28.8222C3.70574 28.5579 3.79753 28.304 3.95174 28.0885L9.82641 19.8658Z" fill="#CECFFB"/>
<path d="M30.9507 25.5628L21.0921 11.9788V3.32545H22.0667C22.4987 3.32545 22.8481 3.00279 22.8481 2.60545V1.14679C22.8481 0.748122 22.4987 0.426788 22.0681 0.426788H10.1721C9.74006 0.426788 9.39206 0.748122 9.39206 1.14679V2.60279C9.39206 3.00279 9.74006 3.32412 10.1721 3.32412H11.0654V11.9775L1.99072 25.4895C-0.329279 28.8455 1.28539 31.5655 5.59872 31.5655H27.4654C31.7774 31.5655 33.3387 28.8775 30.9507 25.5628ZM13.8667 13.2561L14.1894 12.6521V3.32545H17.9667V12.7015L18.3347 13.3375L28.0681 26.4148C28.2279 26.6292 28.3249 26.8839 28.3482 27.1503C28.3716 27.4168 28.3203 27.6844 28.2002 27.9234C28.0801 28.1624 27.8959 28.3632 27.6682 28.5034C27.4404 28.6437 27.1782 28.7178 26.9107 28.7175H6.01472C5.75226 28.7175 5.49477 28.6459 5.27002 28.5104C5.04527 28.3748 4.8618 28.1805 4.7394 27.9483C4.617 27.7161 4.56032 27.4549 4.57548 27.1929C4.59063 26.9309 4.67704 26.678 4.82539 26.4615L13.8667 13.2561Z" fill="#05058C"/>
<path fill-rule="evenodd" clip-rule="evenodd" d="M8.96156 1.15067C8.96156 0.484 9.53622 0 10.1722 0H22.0682C22.7042 0 23.2789 0.484 23.2789 1.15067V2.608C23.2789 3.27467 22.7042 3.75867 22.0682 3.75867H21.5216V11.8427L31.3002 25.3133C32.5416 27.036 32.8469 28.7293 32.0949 30.0267C31.3509 31.3067 29.6882 31.9987 27.4682 31.9987H5.60155C3.37489 31.9987 1.70422 31.2973 0.938888 30.008C0.165555 28.7053 0.429555 26.9973 1.63622 25.2507L10.6362 11.852V3.75867H10.1736C9.53755 3.75867 8.96289 3.276 8.96289 2.608L8.96156 1.15067ZM10.1722 0.86C9.94555 0.86 9.82156 1.02267 9.82156 1.15067V2.608C9.82156 2.73733 9.94555 2.89867 10.1722 2.89867H11.4962V12.1147L2.34422 25.7373C1.23355 27.3453 1.14555 28.6747 1.67755 29.5693C2.21889 30.48 3.51089 31.1387 5.59889 31.1387H27.4656C29.5562 31.1387 30.8309 30.4853 31.3496 29.5947C31.8562 28.7187 31.7496 27.4093 30.6029 25.8187L20.6616 12.1213V2.89867H22.0682C22.2949 2.89867 22.4189 2.73733 22.4189 2.608V1.15067C22.4189 1.02267 22.2949 0.86 22.0682 0.86H10.1722ZM13.7589 2.89867H18.3989V12.5893L18.6962 13.104L28.4136 26.1613C28.6207 26.4397 28.7463 26.7702 28.7765 27.1159C28.8067 27.4615 28.7402 27.8088 28.5844 28.1188C28.4287 28.4289 28.1899 28.6896 27.8946 28.8718C27.5993 29.054 27.2592 29.1506 26.9122 29.1507H6.01489C5.67419 29.1505 5.33998 29.0574 5.0483 28.8813C4.75662 28.7053 4.51851 28.4529 4.35965 28.1515C4.20079 27.8501 4.12719 27.5111 4.1468 27.171C4.1664 26.8308 4.27845 26.5025 4.47089 26.2213L13.4976 13.0347L13.7589 12.548V2.89867ZM14.6189 3.75867V12.764L14.2349 13.4827L5.18155 26.7067C5.07748 26.8586 5.01682 27.036 5.00611 27.2198C4.9954 27.4036 5.03504 27.5869 5.12078 27.7499C5.20651 27.9128 5.33508 28.0493 5.49263 28.1446C5.65018 28.2399 5.83075 28.2904 6.01489 28.2907H26.9136C27.1012 28.2909 27.2853 28.2389 27.4451 28.1404C27.6049 28.042 27.7341 27.9009 27.8183 27.7332C27.9024 27.5654 27.9382 27.3775 27.9216 27.1906C27.905 27.0036 27.8366 26.825 27.7242 26.6747L17.9776 13.5773L17.5402 12.82V3.75867H14.6202H14.6189Z" fill="#05058C"/>
</g>
</g>
<defs>
<clipPath id="clip0_2490_6289">
<rect width="32" height="32" fill="white" transform="translate(0.5)"/>
</clipPath>
<clipPath id="clip1_2490_6289">
<rect width="32" height="32" fill="white" transform="translate(0.5)"/>
</clipPath>
</defs>
</svg>
