<svg width="35" height="32" viewBox="0 0 35 32" fill="none" xmlns="http://www.w3.org/2000/svg">
<g clip-path="url(#clip0_2490_6321)">
<g clip-path="url(#clip1_2490_6321)">
<path d="M0.5 3.56619V21.4755C0.5 23.4542 2.10356 25.0577 4.08222 25.0577L29.156 -0.016037H4.08222C3.13216 -0.016037 2.22101 0.361375 1.54921 1.03317C0.877412 1.70497 0.5 2.61612 0.5 3.56619Z" fill="#CECFFB"/>
<path fill-rule="evenodd" clip-rule="evenodd" d="M29.1542 23.0424H4.08394C3.87803 23.0427 3.67408 23.0023 3.48375 22.9237C3.29343 22.8452 3.12044 22.7299 2.97467 22.5844C2.82891 22.439 2.71321 22.2663 2.6342 22.0761C2.55518 21.886 2.51439 21.6821 2.51416 21.4762V3.56687C2.51416 2.70109 3.21638 1.99887 4.08216 1.99887H29.1559C30.0199 1.99887 30.7222 2.70109 30.7222 3.56687V21.4762C30.7217 21.8918 30.5563 22.2901 30.2623 22.5838C29.9683 22.8775 29.5697 23.0424 29.1542 23.0424Z" stroke="#05058C" stroke-width="3.82552"/>
<path d="M14.4432 30.4272H18.8076V15.757H24.0378L16.6192 8.67964L9.19873 15.757H14.4432V30.4272Z" fill="#05058C"/>
</g>
</g>
<defs>
<clipPath id="clip0_2490_6321">
<rect width="33.7778" height="32" fill="white" transform="translate(0.5)"/>
</clipPath>
<clipPath id="clip1_2490_6321">
<rect width="33.7778" height="32" fill="white" transform="translate(0.5 -0.00180054)"/>
</clipPath>
</defs>
</svg>
