<svg width="69" height="69" viewBox="0 0 69 69" fill="none" xmlns="http://www.w3.org/2000/svg">
<g clip-path="url(#clip0_4989_12139)">
<rect width="68.5714" height="68.5714" fill="white"/>
<path d="M25.1357 67.3286C24.6274 67.1439 24.2077 66.7739 23.9608 66.2928C23.7139 65.8116 23.6581 65.2549 23.8045 64.7343C23.9509 64.2137 24.2888 63.7677 24.7503 63.4858C25.2118 63.2039 25.7629 63.1069 26.2929 63.2143C30.5789 64.4109 35.0775 64.639 39.4626 63.8821C43.8476 63.1253 48.0094 61.4024 51.6464 58.8383C55.2833 56.2742 58.3043 52.9331 60.4903 49.0571C62.6764 45.1812 63.9729 40.8675 64.2858 36.4286H60C59.5735 41.3048 57.7641 45.9581 54.7843 49.8415C51.8045 53.7249 47.7783 56.6772 43.1786 58.3513C38.5789 60.0255 33.5969 60.3521 28.8181 59.2927C24.0392 58.2333 19.662 55.8319 16.2008 52.3707C12.7396 48.9094 10.3382 44.5322 9.27878 39.7534C8.21935 34.9745 8.54592 29.9925 10.2201 25.3929C11.8943 20.7932 14.8466 16.7669 18.73 13.7872C22.6134 10.8074 27.2666 8.99796 32.1429 8.57143V4.28572C25.8111 4.70958 19.7768 7.13038 14.9076 11.2001C10.0384 15.2697 6.5852 20.7786 5.0444 26.9347C3.50359 33.0908 3.95461 39.5769 6.33259 45.4604C8.71058 51.344 12.893 56.322 18.2786 59.6786C18.5182 59.8274 18.726 60.022 18.8902 60.2513C19.0544 60.4806 19.1717 60.7401 19.2354 61.0148C19.2991 61.2895 19.3079 61.5741 19.2614 61.8523C19.2149 62.1304 19.1139 62.3967 18.9643 62.6357C18.8138 62.8735 18.6179 63.0794 18.3878 63.2415C18.1577 63.4035 17.898 63.5187 17.6234 63.5804C17.3487 63.6421 17.0647 63.6491 16.7874 63.601C16.5101 63.5529 16.245 63.4506 16.0072 63.3C9.71436 59.3381 4.88018 53.4378 2.23354 46.4886C-0.413112 39.5394 -0.728746 31.9182 1.33423 24.774C3.3972 17.6297 7.72694 11.3499 13.6706 6.88124C19.6143 2.41261 26.8496 -0.00251944 34.2857 1.97227e-06C34.8541 1.97227e-06 35.3991 0.225767 35.801 0.62763C36.2028 1.02949 36.4286 1.57454 36.4286 2.14286V10.7143C36.4286 11.2826 36.2028 11.8277 35.801 12.2295C35.3991 12.6314 34.8541 12.8571 34.2857 12.8571C30.0476 12.8571 25.9046 14.1139 22.3807 16.4685C18.8568 18.8231 16.1102 22.1698 14.4883 26.0854C12.8665 30.0009 12.4421 34.3095 13.2689 38.4662C14.0957 42.623 16.1366 46.4412 19.1335 49.438C22.1303 52.4348 25.9485 54.4757 30.1052 55.3025C34.262 56.1294 38.5705 55.705 42.4861 54.0831C46.4017 52.4613 49.7484 49.7147 52.103 46.1908C54.4576 42.6669 55.7143 38.5239 55.7143 34.2857C55.7143 33.7174 55.9401 33.1724 56.3419 32.7705C56.7438 32.3686 57.2889 32.1429 57.8572 32.1429H66.4286C66.9969 32.1429 67.542 32.3686 67.9438 32.7705C68.3457 33.1724 68.5715 33.7174 68.5715 34.2857C68.5716 39.5689 67.3507 44.7807 65.0042 49.5143C62.6576 54.2478 59.2489 58.375 55.0441 61.5737C50.8393 64.7725 45.9521 66.9562 40.764 67.9545C35.5759 68.9527 30.2274 68.7385 25.1357 67.3286Z" fill="#000033"/>
<path d="M34.2857 51.4286C29.7391 51.4286 25.3788 49.6225 22.1638 46.4076C18.9489 43.1927 17.1428 38.8323 17.1428 34.2857C17.1428 33.7174 17.3686 33.1724 17.7705 32.7705C18.1723 32.3686 18.7174 32.1429 19.2857 32.1429H27.8571C28.4254 32.1429 28.9705 32.3686 29.3723 32.7705C29.7742 33.1724 30 33.7174 30 34.2857C30 35.1334 30.2513 35.962 30.7222 36.6668C31.1932 37.3715 31.8625 37.9208 32.6456 38.2452C33.4287 38.5696 34.2904 38.6545 35.1218 38.4891C35.9531 38.3237 36.7168 37.9156 37.3161 37.3162C37.9155 36.7168 38.3237 35.9532 38.489 35.1218C38.6544 34.2905 38.5695 33.4288 38.2452 32.6457C37.9208 31.8626 37.3715 31.1932 36.6667 30.7223C35.9619 30.2514 35.1333 30 34.2857 30C33.7174 30 33.1723 29.7743 32.7705 29.3724C32.3686 28.9705 32.1428 28.4255 32.1428 27.8572V19.2857C32.1428 18.7174 32.3686 18.1724 32.7705 17.7705C33.1723 17.3686 33.7174 17.1429 34.2857 17.1429C38.8322 17.1429 43.1926 18.949 46.4075 22.1639C49.6224 25.3788 51.4285 29.7392 51.4285 34.2857C51.4285 38.8323 49.6224 43.1927 46.4075 46.4076C43.1926 49.6225 38.8322 51.4286 34.2857 51.4286ZM21.6 36.4286C21.995 38.7542 23.0222 40.9264 24.5692 42.7073C26.1162 44.4881 28.1233 45.8091 30.3708 46.5255C32.6184 47.2419 35.0197 47.3262 37.3119 46.7691C39.6041 46.212 41.6989 45.035 43.3669 43.367C45.035 41.699 46.2119 39.6042 46.769 37.312C47.3261 35.0197 47.2418 32.6184 46.5254 30.3709C45.809 28.1233 44.4881 26.1162 42.7072 24.5692C40.9263 23.0223 38.7542 21.995 36.4285 21.6V25.9929C37.8929 26.3694 39.2316 27.1265 40.3089 28.1874C41.3861 29.2484 42.1635 30.5754 42.5623 32.0339C42.961 33.4923 42.9669 35.0303 42.5793 36.4918C42.1916 37.9532 41.4243 39.2861 40.3552 40.3553C39.2861 41.4244 37.9532 42.1917 36.4917 42.5793C35.0303 42.9669 33.4923 42.9611 32.0338 42.5623C30.5754 42.1636 29.2483 41.3862 28.1874 40.3089C27.1264 39.2317 26.3693 37.893 25.9928 36.4286H21.6Z" fill="#05058C"/>
</g>
<defs>
<clipPath id="clip0_4989_12139">
<rect width="68.5714" height="68.5714" fill="white"/>
</clipPath>
</defs>
</svg>
