<svg width="70" height="69" viewBox="0 0 70 69" fill="none" xmlns="http://www.w3.org/2000/svg">
<g clip-path="url(#clip0_5122_12101)">
<rect width="68.5714" height="68.5714" transform="translate(0.714355)" fill="white"/>
<path d="M52.1429 43.1143C52.1429 42.4715 52.1429 45.7715 52.1429 25.7143C52.1301 25.3964 52.0574 25.0838 51.9286 24.7929C51.5 23.8929 52.1643 24.4929 36.0715 15.2786C35.7457 15.0905 35.3762 14.9915 35 14.9915C34.6239 14.9915 34.2544 15.0905 33.9286 15.2786C17.5786 24.6429 18.3929 23.85 18.0072 24.9643C17.8572 25.5643 17.8572 24.0643 17.8572 42.8572C17.8933 43.0886 17.9434 43.3176 18.0072 43.5429C18.1014 43.7958 18.2312 44.0339 18.3929 44.25L18.9286 44.7215C35 53.9143 34.2286 53.5715 35 53.5715C35.7715 53.5715 35 53.8715 51.0715 44.7215C51.0715 44.7215 51.5215 44.3357 51.6072 44.25C51.8952 43.9335 52.0817 43.5379 52.1429 43.1143ZM22.1429 29.4L32.8572 35.5286V47.7429L22.1429 41.6143V29.4ZM37.1429 35.5286L47.8572 29.4V41.6143L37.1429 47.7429V35.5286ZM35 19.6072L45.7143 25.7143L35 31.8215L24.2857 25.7143L35 19.6072Z" fill="#05058C"/>
<path d="M6.07158 42.2786C5.36015 39.6739 4.99982 36.9858 5.00015 34.2857C5.00015 33.7174 4.77438 33.1724 4.37252 32.7705C3.97065 32.3686 3.42561 32.1429 2.85729 32.1429C2.28897 32.1429 1.74392 32.3686 1.34206 32.7705C0.940197 33.1724 0.714433 33.7174 0.714433 34.2857C0.707821 37.3783 1.12601 40.457 1.95729 43.4357C2.02487 43.7109 2.14635 43.9699 2.31469 44.1978C2.48303 44.4257 2.69489 44.6179 2.93802 44.7634C3.18114 44.9089 3.4507 45.0047 3.7311 45.0453C4.0115 45.0859 4.29716 45.0705 4.57158 45C4.8528 44.9264 5.11611 44.7964 5.34548 44.6179C5.57486 44.4393 5.76551 44.2159 5.90583 43.9613C6.04615 43.7068 6.1332 43.4263 6.1617 43.137C6.19019 42.8477 6.15953 42.5557 6.07158 42.2786Z" fill="#000033"/>
<path d="M35 6.71409e-06C30.1267 -0.0134169 25.3077 1.02269 20.8706 3.03789C16.4334 5.05308 12.4823 8.0001 9.28571 11.6786V10.7143C9.28571 10.146 9.05995 9.60093 8.65809 9.19906C8.25622 8.7972 7.71118 8.57144 7.14286 8.57144C6.57454 8.57144 6.02949 8.7972 5.62763 9.19906C5.22576 9.60093 5 10.146 5 10.7143V17.1429C5 17.7112 5.22576 18.2562 5.62763 18.6581C6.02949 19.06 6.57454 19.2857 7.14286 19.2857H13.5714C14.1397 19.2857 14.6848 19.06 15.0867 18.6581C15.4885 18.2562 15.7143 17.7112 15.7143 17.1429C15.7143 16.5745 15.4885 16.0295 15.0867 15.6276C14.6848 15.2258 14.1397 15 13.5714 15H12.0929C14.8843 11.6349 18.3858 8.92919 22.3462 7.07681C26.3066 5.22442 30.6278 4.27128 35 4.28572C42.9565 4.28572 50.5871 7.44643 56.2132 13.0725C61.8393 18.6986 65 26.3292 65 34.2857C65 34.854 65.2258 35.3991 65.6276 35.801C66.0295 36.2028 66.5745 36.4286 67.1429 36.4286C67.7112 36.4286 68.2562 36.2028 68.6581 35.801C69.06 35.3991 69.2857 34.854 69.2857 34.2857C69.2857 25.1926 65.6735 16.4719 59.2437 10.0421C52.8138 3.61224 44.0931 6.71409e-06 35 6.71409e-06Z" fill="#000033"/>
<path d="M62.8572 49.2857H56.4286C55.8603 49.2857 55.3153 49.5115 54.9134 49.9134C54.5115 50.3152 54.2858 50.8603 54.2858 51.4286C54.2858 51.9969 54.5115 52.5419 54.9134 52.9438C55.3153 53.3457 55.8603 53.5714 56.4286 53.5714H57.9072C54.8058 57.253 50.8641 60.1341 46.4148 61.9716C41.9656 63.8091 37.1395 64.5489 32.3441 64.1286C27.5488 63.7084 22.925 62.1403 18.8632 59.5569C14.8014 56.9735 11.4209 53.4506 9.0072 49.2857C8.72304 48.7913 8.25411 48.43 7.70355 48.2813C7.153 48.1326 6.56593 48.2087 6.07149 48.4929C5.57705 48.777 5.21574 49.246 5.06705 49.7965C4.91837 50.3471 4.99447 50.9341 5.27863 51.4286C8.00408 56.1409 11.8124 60.1365 16.3886 63.0848C20.9647 66.0331 26.1771 67.8494 31.5946 68.3834C37.012 68.9174 42.4787 68.1537 47.5424 66.1556C52.6062 64.1575 57.1213 60.9823 60.7143 56.8929V57.8572C60.7143 58.4255 60.9401 58.9705 61.342 59.3724C61.7438 59.7742 62.2889 60 62.8572 60C63.4255 60 63.9706 59.7742 64.3724 59.3724C64.7743 58.9705 65.0001 58.4255 65.0001 57.8572V51.4286C65.0001 50.8603 64.7743 50.3152 64.3724 49.9134C63.9706 49.5115 63.4255 49.2857 62.8572 49.2857Z" fill="#000033"/>
</g>
<defs>
<clipPath id="clip0_5122_12101">
<rect width="68.5714" height="68.5714" fill="white" transform="translate(0.714355)"/>
</clipPath>
</defs>
</svg>
