<svg width="41" height="40" viewBox="0 0 41 40" fill="none" xmlns="http://www.w3.org/2000/svg">
<g clip-path="url(#clip0_4343_16321)">
<path d="M1.75043 25.0001C1.50215 25.0015 1.25907 24.929 1.05217 24.7917C0.845268 24.6545 0.683929 24.4587 0.58872 24.2294C0.493512 24.0001 0.468747 23.7477 0.517584 23.5042C0.566421 23.2608 0.686647 23.0374 0.862934 22.8626L7.11293 16.6126C7.32636 16.3994 7.60968 16.2706 7.91063 16.2499C8.21158 16.2292 8.50986 16.3181 8.75043 16.5001L12.8879 19.6001L22.1129 10.3626C22.2291 10.2454 22.3674 10.1524 22.5197 10.089C22.672 10.0255 22.8354 9.99283 23.0004 9.99283C23.1654 9.99283 23.3288 10.0255 23.4812 10.089C23.6335 10.1524 23.7717 10.2454 23.8879 10.3626L28.0629 14.5501L35.9379 7.80008C36.1195 7.64476 36.3418 7.54474 36.5785 7.51188C36.8152 7.47901 37.0563 7.51468 37.2734 7.61465C37.4904 7.71462 37.6743 7.8747 37.8031 8.07594C37.932 8.27717 38.0004 8.51113 38.0004 8.75008V16.2501C38.0004 16.5816 37.8687 16.8995 37.6343 17.134C37.3999 17.3684 37.082 17.5001 36.7504 17.5001C36.4189 17.5001 36.101 17.3684 35.8665 17.134C35.6321 16.8995 35.5004 16.5816 35.5004 16.2501V11.4626L28.8129 17.2001C28.5818 17.4145 28.2782 17.5336 27.9629 17.5336C27.6477 17.5336 27.3441 17.4145 27.1129 17.2001L23.0004 13.0126L13.8879 22.1376C13.6745 22.3508 13.3912 22.4796 13.0902 22.5002C12.7893 22.5209 12.491 22.4321 12.2504 22.2501L8.11293 19.1501L2.63793 24.6376C2.52113 24.7534 2.38261 24.8451 2.23032 24.9073C2.07802 24.9695 1.91494 25.001 1.75043 25.0001V25.0001Z" fill="#100FA8"/>
<path d="M39.25 37.5H38V16.25C38.0014 16.0017 37.9289 15.7586 37.7917 15.5517C37.6544 15.3448 37.4587 15.1835 37.2294 15.0883C37 14.9931 36.7476 14.9683 36.5041 15.0172C36.2607 15.066 36.0373 15.1862 35.8625 15.3625L28 23.2375L23.8875 19.1125C23.7713 18.9953 23.633 18.9023 23.4807 18.8389C23.3284 18.7754 23.165 18.7428 23 18.7428C22.835 18.7428 22.6716 18.7754 22.5193 18.8389C22.367 18.9023 22.2287 18.9953 22.1125 19.1125L13 28.2375L8.8875 24.1125C8.7713 23.9953 8.63305 23.9023 8.48072 23.8389C8.3284 23.7754 8.16501 23.7428 8 23.7428C7.83499 23.7428 7.6716 23.7754 7.51928 23.8389C7.36695 23.9023 7.2287 23.9953 7.1125 24.1125L3 28.2375V13.75C3 13.4185 2.8683 13.1005 2.63388 12.8661C2.39946 12.6317 2.08152 12.5 1.75 12.5C1.41848 12.5 1.10054 12.6317 0.866117 12.8661C0.631696 13.1005 0.5 13.4185 0.5 13.75L0.5 36.25C0.5 37.2446 0.895088 38.1984 1.59835 38.9017C2.30161 39.6049 3.25544 40 4.25 40H39.25C39.5815 40 39.8995 39.8683 40.1339 39.6339C40.3683 39.3995 40.5 39.0815 40.5 38.75C40.5 38.4185 40.3683 38.1005 40.1339 37.8661C39.8995 37.6317 39.5815 37.5 39.25 37.5ZM3 36.25V31.7625L8 26.7625L12.1125 30.8875C12.2287 31.0047 12.367 31.0977 12.5193 31.1611C12.6716 31.2246 12.835 31.2572 13 31.2572C13.165 31.2572 13.3284 31.2246 13.4807 31.1611C13.633 31.0977 13.7713 31.0047 13.8875 30.8875L23 21.7625L27.1125 25.8875C27.2287 26.0047 27.367 26.0977 27.5193 26.1611C27.6716 26.2246 27.835 26.2572 28 26.2572C28.165 26.2572 28.3284 26.2246 28.4807 26.1611C28.633 26.0977 28.7713 26.0047 28.8875 25.8875L35.5 19.2625V37.5H4.25C3.91848 37.5 3.60054 37.3683 3.36612 37.1339C3.1317 36.8995 3 36.5815 3 36.25V36.25Z" fill="#000033"/>
<path d="M1.75 16.25C2.08152 16.25 2.39946 16.1183 2.63388 15.8839C2.8683 15.6495 3 15.3315 3 15V1.25C3 0.918479 2.8683 0.600537 2.63388 0.366117C2.39946 0.131696 2.08152 0 1.75 0C1.41848 0 1.10054 0.131696 0.866117 0.366117C0.631696 0.600537 0.5 0.918479 0.5 1.25V15C0.5 15.3315 0.631696 15.6495 0.866117 15.8839C1.10054 16.1183 1.41848 16.25 1.75 16.25Z" fill="#000033"/>
</g>
<defs>
<clipPath id="clip0_4343_16321">
<rect width="40" height="40" fill="white" transform="translate(0.5)"/>
</clipPath>
</defs>
</svg>
