<svg width="41" height="40" viewBox="0 0 41 40" fill="none" xmlns="http://www.w3.org/2000/svg">
<g clip-path="url(#clip0_4343_16524)">
<path d="M39.25 32.5H4.25V11.25C4.25 10.9185 4.3817 10.6005 4.61612 10.3661C4.85054 10.1317 5.16848 10 5.5 10H13C13.3315 10 13.6495 9.8683 13.8839 9.63388C14.1183 9.39946 14.25 9.08152 14.25 8.75C14.25 8.41848 14.1183 8.10054 13.8839 7.86612C13.6495 7.6317 13.3315 7.5 13 7.5H5.5C4.50544 7.5 3.55161 7.89509 2.84835 8.59835C2.14509 9.30161 1.75 10.2554 1.75 11.25V32.5C1.41848 32.5 1.10054 32.6317 0.866117 32.8661C0.631696 33.1005 0.5 33.4185 0.5 33.75L0.5 36.25C0.5 37.2446 0.895088 38.1984 1.59835 38.9017C2.30161 39.6049 3.25544 40 4.25 40H36.75C37.7446 40 38.6984 39.6049 39.4017 38.9017C40.1049 38.1984 40.5 37.2446 40.5 36.25V33.75C40.5 33.4185 40.3683 33.1005 40.1339 32.8661C39.8995 32.6317 39.5815 32.5 39.25 32.5ZM38 36.25C38 36.5815 37.8683 36.8995 37.6339 37.1339C37.3995 37.3683 37.0815 37.5 36.75 37.5H4.25C3.91848 37.5 3.60054 37.3683 3.36612 37.1339C3.1317 36.8995 3 36.5815 3 36.25V35H38V36.25Z" fill="#000033"/>
<path d="M28 10H35.5C35.8315 10 36.1495 10.1317 36.3839 10.3661C36.6183 10.6005 36.75 10.9185 36.75 11.25V32.4851C36.75 32.8166 36.8817 33.1346 37.1161 33.369C37.3505 33.6034 37.6685 33.7351 38 33.7351C38.3315 33.7351 38.6495 33.6034 38.8839 33.369C39.1183 33.1346 39.25 32.8166 39.25 32.4851V11.25C39.25 10.2554 38.8549 9.30161 38.1517 8.59835C37.4484 7.89509 36.4946 7.5 35.5 7.5H28C27.6685 7.5 27.3505 7.6317 27.1161 7.86612C26.8817 8.10054 26.75 8.41848 26.75 8.75C26.75 9.08152 26.8817 9.39946 27.1161 9.63388C27.3505 9.8683 27.6685 10 28 10Z" fill="#000033"/>
<path d="M33.8875 20.3615L27.5 13.974C28.8234 12.2019 29.4266 9.99438 29.1883 7.79552C28.95 5.59667 27.8879 3.56964 26.2155 2.12222C24.5432 0.674794 22.3848 -0.08562 20.1745 -0.00604914C17.9642 0.0735217 15.866 0.987174 14.3021 2.5511C12.7382 4.11503 11.8245 6.21319 11.7449 8.42349C11.6654 10.6338 12.4258 12.7922 13.8732 14.4646C15.3206 16.1369 17.3476 17.199 19.5465 17.4373C21.7454 17.6756 23.9529 17.0724 25.725 15.749L32.1125 22.1365C32.2293 22.2523 32.3678 22.344 32.5201 22.4062C32.6724 22.4684 32.8355 22.4999 33 22.499C33.2482 22.5004 33.4913 22.4279 33.6982 22.2907C33.9051 22.1534 34.0665 21.9576 34.1617 21.7283C34.2569 21.499 34.2817 21.2466 34.2328 21.0031C34.184 20.7597 34.0638 20.5363 33.8875 20.3615ZM14.25 8.74899C14.2497 7.72145 14.5029 6.7097 14.9869 5.80333C15.471 4.89695 16.1711 4.1239 17.0252 3.55263C17.8793 2.98135 18.8611 2.62947 19.8836 2.52813C20.9061 2.42679 21.9379 2.57913 22.8875 2.97165C23.8371 3.36417 24.6753 3.98477 25.3278 4.7785C25.9804 5.57223 26.4272 6.51461 26.6286 7.52221C26.8301 8.5298 26.7801 9.57153 26.4829 10.5552C26.1857 11.5388 25.6506 12.434 24.925 13.1615C24.0516 14.0371 22.9381 14.6339 21.7254 14.8763C20.5127 15.1188 19.2554 14.9961 18.1125 14.5237C16.9696 14.0513 15.9925 13.2504 15.3049 12.2224C14.6174 11.1945 14.2502 9.98568 14.25 8.74899V8.74899Z" fill="#100FA8"/>
<path d="M18 30C17.6685 30 17.3505 29.8683 17.1161 29.6339C16.8817 29.3995 16.75 29.0815 16.75 28.75V25C16.75 24.6685 16.8817 24.3505 17.1161 24.1161C17.3505 23.8817 17.6685 23.75 18 23.75C18.3315 23.75 18.6495 23.8817 18.8839 24.1161C19.1183 24.3505 19.25 24.6685 19.25 25V28.75C19.25 29.0815 19.1183 29.3995 18.8839 29.6339C18.6495 29.8683 18.3315 30 18 30Z" fill="#100FA8"/>
<path d="M23 30C22.6685 30 22.3505 29.8683 22.1161 29.6339C21.8817 29.3995 21.75 29.0815 21.75 28.75V21.25C21.75 20.9185 21.8817 20.6005 22.1161 20.3661C22.3505 20.1317 22.6685 20 23 20C23.3315 20 23.6495 20.1317 23.8839 20.3661C24.1183 20.6005 24.25 20.9185 24.25 21.25V28.75C24.25 29.0815 24.1183 29.3995 23.8839 29.6339C23.6495 29.8683 23.3315 30 23 30Z" fill="#100FA8"/>
<path d="M13 30C12.6685 30 12.3505 29.8683 12.1161 29.6339C11.8817 29.3995 11.75 29.0815 11.75 28.75V23.75C11.75 23.4185 11.8817 23.1005 12.1161 22.8661C12.3505 22.6317 12.6685 22.5 13 22.5C13.3315 22.5 13.6495 22.6317 13.8839 22.8661C14.1183 23.1005 14.25 23.4185 14.25 23.75V28.75C14.25 29.0815 14.1183 29.3995 13.8839 29.6339C13.6495 29.8683 13.3315 30 13 30Z" fill="#100FA8"/>
<path d="M8 30C7.66848 30 7.35054 29.8683 7.11612 29.6339C6.8817 29.3995 6.75 29.0815 6.75 28.75V27.5C6.75 27.1685 6.8817 26.8505 7.11612 26.6161C7.35054 26.3817 7.66848 26.25 8 26.25C8.33152 26.25 8.64946 26.3817 8.88388 26.6161C9.1183 26.8505 9.25 27.1685 9.25 27.5V28.75C9.25 29.0815 9.1183 29.3995 8.88388 29.6339C8.64946 29.8683 8.33152 30 8 30Z" fill="#100FA8"/>
</g>
<defs>
<clipPath id="clip0_4343_16524">
<rect width="40" height="40" fill="white" transform="translate(0.5)"/>
</clipPath>
</defs>
</svg>
