<svg width="41" height="40" viewBox="0 0 41 40" fill="none" xmlns="http://www.w3.org/2000/svg">
<g clip-path="url(#clip0_4343_16314)">
<path d="M39.9375 20.2125L37.9 18.85C37.1788 18.3669 36.3124 18.1489 35.4485 18.2332C34.5845 18.3176 33.7766 18.699 33.1625 19.3125L28 24.525C27.8838 23.6149 27.438 22.7789 26.7469 22.1754C26.0558 21.5718 25.1675 21.2426 24.25 21.25C23.1822 21.3974 22.0962 21.1722 21.175 20.6125C19.1995 19.2958 16.8538 18.6473 14.4825 18.762C12.1112 18.8768 9.83918 19.7488 8 21.25V18.75C8 18.4185 7.8683 18.1005 7.63388 17.8661C7.39946 17.6317 7.08152 17.5 6.75 17.5H1.75C1.41848 17.5 1.10054 17.6317 0.866116 17.8661C0.631696 18.1005 0.5 18.4185 0.5 18.75L0.5 38.75C0.5 39.0815 0.631696 39.3995 0.866116 39.6339C1.10054 39.8683 1.41848 40 1.75 40H6.75C7.08152 40 7.39946 39.8683 7.63388 39.6339C7.8683 39.3995 8 39.0815 8 38.75V24.375L9.875 22.9625C11.3054 21.9192 13.0187 21.3343 14.7885 21.2853C16.5583 21.2362 18.3014 21.7251 19.7875 22.6875C21.1146 23.5301 22.6856 23.9042 24.25 23.75C24.5815 23.75 24.8995 23.8817 25.1339 24.1161C25.3683 24.3505 25.5 24.6685 25.5 25V26.25H16.75C16.4185 26.25 16.1005 26.3817 15.8661 26.6161C15.6317 26.8505 15.5 27.1685 15.5 27.5C15.5 27.8315 15.6317 28.1495 15.8661 28.3839C16.1005 28.6183 16.4185 28.75 16.75 28.75H26.75C27.081 28.7454 27.398 28.6159 27.6375 28.3875L34.9375 21.0875C35.1409 20.8828 35.4089 20.7547 35.696 20.7251C35.9831 20.6955 36.2716 20.7661 36.5125 20.925L37.4625 21.5625L27.75 34.5C27.6336 34.6552 27.4826 34.7812 27.309 34.868C27.1354 34.9548 26.9441 35 26.75 35H7.375C7.04348 35 6.72554 35.1317 6.49112 35.3661C6.2567 35.6005 6.125 35.9185 6.125 36.25C6.125 36.5815 6.2567 36.8995 6.49112 37.1339C6.72554 37.3683 7.04348 37.5 7.375 37.5H26.75C27.3322 37.5 27.9063 37.3645 28.427 37.1041C28.9478 36.8437 29.4007 36.4657 29.75 36L40.25 22C40.3513 21.8637 40.4238 21.7082 40.463 21.543C40.5022 21.3778 40.5073 21.2063 40.4781 21.0391C40.4488 20.8718 40.3858 20.7122 40.2929 20.5701C40.1999 20.428 40.079 20.3063 39.9375 20.2125ZM5.5 37.5H3V20H5.5V37.5Z" fill="#000033"/>
<path fill-rule="evenodd" clip-rule="evenodd" d="M27.375 9.16797C28.0069 9.16797 28.5191 9.68019 28.5191 10.312V13.6489H31.8559C32.4878 13.6489 33 14.1611 33 14.793C33 15.4248 32.4878 15.937 31.8559 15.937H28.5191V19.2739C28.5191 19.9058 28.0069 20.418 27.375 20.418C26.7431 20.418 26.2309 19.9058 26.2309 19.2739V15.937H22.8941C22.2622 15.937 21.75 15.4248 21.75 14.793C21.75 14.1611 22.2622 13.6489 22.8941 13.6489H26.2309V10.312C26.2309 9.68019 26.7431 9.16797 27.375 9.16797Z" fill="#100FA8"/>
<path d="M14.667 3.75C15.2286 3.75 15.6839 4.2053 15.6839 4.76695V7.73305H18.65C19.2117 7.73305 19.667 8.18835 19.667 8.75C19.667 9.31165 19.2117 9.76695 18.65 9.76695H15.6839V12.7331C15.6839 13.2947 15.2286 13.75 14.667 13.75C14.1053 13.75 13.65 13.2947 13.65 12.7331V9.76695H10.6839C10.1223 9.76695 9.66699 9.31165 9.66699 8.75C9.66699 8.18835 10.1223 7.73305 10.6839 7.73305H13.65V4.76695C13.65 4.2053 14.1053 3.75 14.667 3.75Z" fill="#100FA8"/>
</g>
<defs>
<clipPath id="clip0_4343_16314">
<rect width="40" height="40" fill="white" transform="translate(0.5)"/>
</clipPath>
</defs>
</svg>
