<svg width="124" height="123" viewBox="0 0 124 123" fill="none" xmlns="http://www.w3.org/2000/svg">
<g clip-path="url(#clip0_5651_28434)">
<rect width="122.668" height="122.668" transform="translate(0.666016)" fill="white"/>
<path d="M4.50606 76.6675C3.74466 76.6719 2.99918 76.4495 2.36469 76.0286C1.73019 75.6077 1.23541 75.0074 0.943432 74.3041C0.651457 73.6009 0.575512 72.8267 0.725281 72.0802C0.875049 71.3336 1.24375 70.6486 1.78436 70.1124L20.9512 50.9456C21.6058 50.2918 22.4746 49.8968 23.3975 49.8334C24.3205 49.77 25.2352 50.0424 25.973 50.6005L38.6614 60.1073L66.9517 31.7787C67.3081 31.4194 67.7321 31.1342 68.1992 30.9396C68.6663 30.745 69.1674 30.6448 69.6734 30.6448C70.1795 30.6448 70.6805 30.745 71.1476 30.9396C71.6148 31.1342 72.0387 31.4194 72.3951 31.7787L85.1986 44.6205L109.349 23.9203C109.906 23.4439 110.587 23.1372 111.313 23.0364C112.039 22.9356 112.779 23.045 113.444 23.3516C114.11 23.6582 114.674 24.1491 115.069 24.7662C115.464 25.3834 115.674 26.1008 115.674 26.8336V49.8339C115.674 50.8505 115.27 51.8256 114.551 52.5445C113.832 53.2634 112.857 53.6672 111.841 53.6672C110.824 53.6672 109.849 53.2634 109.13 52.5445C108.411 51.8256 108.007 50.8505 108.007 49.8339V35.1521L87.4986 52.7472C86.7898 53.4046 85.8587 53.7699 84.8919 53.7699C83.9251 53.7699 82.9941 53.4046 82.2852 52.7472L69.6734 39.9054L41.7281 67.8891C41.0736 68.5428 40.2047 68.9378 39.2818 69.0013C38.3589 69.0647 37.4442 68.7922 36.7064 68.2341L24.0179 58.7273L7.22775 75.5558C6.86956 75.9111 6.44477 76.1922 5.97772 76.3829C5.51067 76.5737 5.01056 76.6704 4.50606 76.6675Z" fill="#05058C"/>
<path d="M119.501 115H115.667V49.8322C115.672 49.0708 115.449 48.3253 115.028 47.6908C114.607 47.0563 114.007 46.5615 113.304 46.2695C112.601 45.9776 111.826 45.9016 111.08 46.0514C110.333 46.2011 109.648 46.5698 109.112 47.1105L85.0002 71.2607L72.3884 58.6106C72.0321 58.2513 71.6081 57.9661 71.141 57.7715C70.6738 57.5769 70.1728 57.4767 69.6667 57.4767C69.1607 57.4767 68.6597 57.5769 68.1925 57.7715C67.7254 57.9661 67.3014 58.2513 66.9451 58.6106L38.9998 86.5942L26.388 73.9441C26.0316 73.5848 25.6076 73.2996 25.1405 73.105C24.6734 72.9104 24.1723 72.8102 23.6663 72.8102C23.1602 72.8102 22.6592 72.9104 22.192 73.105C21.7249 73.2996 21.3009 73.5848 20.9446 73.9441L8.33276 86.5942V42.1654C8.33276 41.1487 7.92889 40.1737 7.20999 39.4548C6.4911 38.7359 5.51606 38.332 4.49939 38.332C3.48272 38.332 2.50768 38.7359 1.78878 39.4548C1.06989 40.1737 0.666016 41.1487 0.666016 42.1654L0.666016 111.166C0.666016 114.216 1.87763 117.141 4.03432 119.298C6.19101 121.455 9.11612 122.666 12.1661 122.666H119.501C120.517 122.666 121.492 122.262 122.211 121.543C122.93 120.825 123.334 119.85 123.334 118.833C123.334 117.816 122.93 116.841 122.211 116.122C121.492 115.403 120.517 115 119.501 115ZM8.33276 111.166V97.4043L23.6663 82.0708L36.2781 94.721C36.6344 95.0803 37.0584 95.3654 37.5255 95.5601C37.9927 95.7547 38.4937 95.8549 38.9998 95.8549C39.5058 95.8549 40.0069 95.7547 40.474 95.5601C40.9411 95.3654 41.3651 95.0803 41.7215 94.721L69.6667 66.7373L82.2785 79.3875C82.6349 79.7468 83.0589 80.0319 83.526 80.2266C83.9931 80.4212 84.4942 80.5214 85.0002 80.5214C85.5063 80.5214 86.0073 80.4212 86.4745 80.2266C86.9416 80.0319 87.3656 79.7468 87.7219 79.3875L108 59.0706V115H12.1661C11.1495 115 10.1744 114.596 9.45553 113.877C8.73664 113.158 8.33276 112.183 8.33276 111.166Z" fill="#05058C"/>
<path d="M4.49939 49.8339C5.51606 49.8339 6.4911 49.43 7.20999 48.7111C7.92889 47.9922 8.33276 47.0172 8.33276 46.0005V3.83337C8.33276 2.8167 7.92889 1.84167 7.20999 1.12277C6.4911 0.403872 5.51606 0 4.49939 0C3.48272 0 2.50768 0.403872 1.78878 1.12277C1.06989 1.84167 0.666016 2.8167 0.666016 3.83337V46.0005C0.666016 47.0172 1.06989 47.9922 1.78878 48.7111C2.50768 49.43 3.48272 49.8339 4.49939 49.8339Z" fill="#05058C"/>
</g>
<defs>
<clipPath id="clip0_5651_28434">
<rect width="122.668" height="122.668" fill="white" transform="translate(0.666016)"/>
</clipPath>
</defs>
</svg>
