<svg width="124" height="123" viewBox="0 0 124 123" fill="none" xmlns="http://www.w3.org/2000/svg">
<g clip-path="url(#clip0_5651_28390)">
<rect width="122.668" height="122.668" transform="translate(0.666016)" fill="white"/>
<path d="M119.501 99.6675H12.1661V34.5001C12.1661 33.4834 12.57 32.5084 13.2889 31.7895C14.0078 31.0706 14.9828 30.6667 15.9995 30.6667H38.9998C40.0164 30.6667 40.9915 30.2629 41.7104 29.544C42.4293 28.8251 42.8331 27.85 42.8331 26.8334C42.8331 25.8167 42.4293 24.8417 41.7104 24.1228C40.9915 23.4039 40.0164 23 38.9998 23H15.9995C12.9495 23 10.0244 24.2116 7.8677 26.3683C5.71101 28.525 4.49939 31.4501 4.49939 34.5001V99.6675C3.48272 99.6675 2.50768 100.071 1.78878 100.79C1.06989 101.509 0.666016 102.484 0.666016 103.501L0.666016 111.168C0.666016 114.218 1.87763 117.143 4.03432 119.299C6.19101 121.456 9.11612 122.668 12.1661 122.668H111.834C114.884 122.668 117.809 121.456 119.966 119.299C122.122 117.143 123.334 114.218 123.334 111.168V103.501C123.334 102.484 122.93 101.509 122.211 100.79C121.492 100.071 120.517 99.6675 119.501 99.6675ZM115.667 111.168C115.667 112.184 115.263 113.159 114.544 113.878C113.826 114.597 112.851 115.001 111.834 115.001H12.1661C11.1495 115.001 10.1744 114.597 9.45553 113.878C8.73664 113.159 8.33276 112.184 8.33276 111.168V107.334H115.667V111.168Z" fill="#000033"/>
<path d="M84.9994 30.6667H108C109.016 30.6667 109.991 31.0706 110.71 31.7895C111.429 32.5084 111.833 33.4834 111.833 34.5001V99.6218C111.833 100.638 112.237 101.613 112.956 102.332C113.675 103.051 114.65 103.455 115.666 103.455C116.683 103.455 117.658 103.051 118.377 102.332C119.096 101.613 119.5 100.638 119.5 99.6218V34.5001C119.5 31.4501 118.288 28.525 116.131 26.3683C113.975 24.2116 111.05 23 108 23H84.9994C83.9827 23 83.0077 23.4039 82.2888 24.1228C81.5699 24.8417 81.166 25.8167 81.166 26.8334C81.166 27.85 81.5699 28.8251 82.2888 29.544C83.0077 30.2629 83.9827 30.6667 84.9994 30.6667Z" fill="#05058C"/>
<path d="M103.059 62.4473L83.4701 42.8587C87.5286 37.4242 89.3786 30.6544 88.6478 23.9112C87.917 17.168 84.6596 10.9517 79.5311 6.51289C74.4025 2.07408 67.7833 -0.257883 61.005 -0.013863C54.2266 0.230157 47.7922 3.03205 42.9961 7.82815C38.2 12.6242 35.3981 19.0587 35.1541 25.837C34.9101 32.6153 37.242 39.2346 41.6809 44.3631C46.1197 49.4917 52.336 52.749 59.0792 53.4798C65.8224 54.2106 72.5922 52.3606 78.0267 48.3021L97.6152 67.8906C97.9734 68.2459 98.3982 68.527 98.8653 68.7178C99.3323 68.9085 99.8324 69.0052 100.337 69.0023C101.098 69.0068 101.844 68.7843 102.478 68.3634C103.113 67.9425 103.608 67.3422 103.9 66.639C104.192 65.9358 104.267 65.1615 104.118 64.415C103.968 63.6685 103.599 62.9834 103.059 62.4473ZM42.8363 26.8352C42.8356 23.684 43.6119 20.5813 45.0964 17.8017C46.5809 15.0222 48.7278 12.6515 51.3471 10.8995C53.9663 9.14759 56.9771 8.06847 60.1129 7.7577C63.2487 7.44693 66.4128 7.9141 69.3249 9.11784C72.2371 10.3216 74.8076 12.2248 76.8088 14.6589C78.81 17.0931 80.1801 19.9831 80.798 23.073C81.4159 26.163 81.2623 29.3577 80.351 32.3742C79.4397 35.3907 77.7987 38.136 75.5733 40.367C72.895 43.0522 69.4802 44.8823 65.7613 45.626C62.0423 46.3696 58.1863 45.9932 54.6814 44.5444C51.1765 43.0957 48.1801 40.6396 46.0716 37.4872C43.963 34.3348 42.8371 30.6278 42.8363 26.8352Z" fill="#05058C"/>
<path d="M54.3334 92.0028C53.3167 92.0028 52.3417 91.5989 51.6228 90.88C50.9039 90.1611 50.5 89.1861 50.5 88.1694V76.6693C50.5 75.6526 50.9039 74.6776 51.6228 73.9587C52.3417 73.2398 53.3167 72.8359 54.3334 72.8359C55.35 72.8359 56.3251 73.2398 57.044 73.9587C57.7629 74.6776 58.1667 75.6526 58.1667 76.6693V88.1694C58.1667 89.1861 57.7629 90.1611 57.044 90.88C56.3251 91.5989 55.35 92.0028 54.3334 92.0028Z" fill="#05058C"/>
<path d="M69.6674 92.0029C68.6507 92.0029 67.6756 91.5991 66.9568 90.8802C66.2379 90.1613 65.834 89.1862 65.834 88.1696V65.1693C65.834 64.1526 66.2379 63.1776 66.9568 62.4587C67.6756 61.7398 68.6507 61.3359 69.6674 61.3359C70.684 61.3359 71.6591 61.7398 72.378 62.4587C73.0969 63.1776 73.5007 64.1526 73.5007 65.1693V88.1696C73.5007 89.1862 73.0969 90.1613 72.378 90.8802C71.6591 91.5991 70.684 92.0029 69.6674 92.0029Z" fill="#05058C"/>
<path d="M38.9994 92.0002C37.9827 92.0002 37.0077 91.5964 36.2888 90.8775C35.5699 90.1586 35.166 89.1835 35.166 88.1669V72.8334C35.166 71.8167 35.5699 70.8417 36.2888 70.1228C37.0077 69.4039 37.9827 69 38.9994 69C40.0161 69 40.9911 69.4039 41.71 70.1228C42.4289 70.8417 42.8328 71.8167 42.8328 72.8334V88.1669C42.8328 89.1835 42.4289 90.1586 41.71 90.8775C40.9911 91.5964 40.0161 92.0002 38.9994 92.0002Z" fill="#05058C"/>
<path d="M23.6654 92.0001C22.6487 92.0001 21.6737 91.5963 20.9548 90.8774C20.2359 90.1585 19.832 89.1834 19.832 88.1667V84.3334C19.832 83.3167 20.2359 82.3417 20.9548 81.6228C21.6737 80.9039 22.6487 80.5 23.6654 80.5C24.6821 80.5 25.6571 80.9039 26.376 81.6228C27.0949 82.3417 27.4988 83.3167 27.4988 84.3334V88.1667C27.4988 89.1834 27.0949 90.1585 26.376 90.8774C25.6571 91.5963 24.6821 92.0001 23.6654 92.0001Z" fill="#05058C"/>
</g>
<defs>
<clipPath id="clip0_5651_28390">
<rect width="122.668" height="122.668" fill="white" transform="translate(0.666016)"/>
</clipPath>
</defs>
</svg>
