<svg width="124" height="123" viewBox="0 0 124 123" fill="none" xmlns="http://www.w3.org/2000/svg">
<g clip-path="url(#clip0_5651_28423)">
<rect width="122.668" height="122.668" transform="translate(0.666016)" fill="white"/>
<path d="M43.9831 83.2577C46.9103 80.6861 48.9842 77.2835 49.9285 73.5033C50.8728 69.7231 50.6425 65.7449 49.2685 62.0989C47.8944 58.4529 45.4418 55.3123 42.2375 53.0956C39.0331 50.8789 35.2293 49.6914 31.333 49.6914C27.4367 49.6914 23.6329 50.8789 20.4286 53.0956C17.2243 55.3123 14.7716 58.4529 13.3976 62.0989C12.0235 65.7449 11.7932 69.7231 12.7375 73.5033C13.6818 77.2835 15.7557 80.6861 18.6829 83.2577C13.3167 85.6876 8.76388 89.6116 5.56882 94.5606C2.37376 99.5095 0.671658 105.274 0.666016 111.165L0.666016 114.998C0.666016 116.015 1.06989 116.99 1.78878 117.709C2.50768 118.428 3.48272 118.831 4.49939 118.831H15.9995C17.0162 118.831 17.9912 118.428 18.7101 117.709C19.429 116.99 19.8329 116.015 19.8329 114.998C19.8329 113.981 19.429 113.006 18.7101 112.287C17.9912 111.569 17.0162 111.165 15.9995 111.165H8.33276C8.33276 105.065 10.756 99.2144 15.0694 94.901C19.3828 90.5876 25.233 88.1644 31.333 88.1644C37.4331 88.1644 43.2833 90.5876 47.5966 94.901C51.91 99.2144 54.3333 105.065 54.3333 111.165H15.3606C14.3439 111.165 13.3689 111.569 12.65 112.287C11.9311 113.006 11.5272 113.981 11.5272 114.998C11.5272 116.015 11.9311 116.99 12.65 117.709C13.3689 118.428 14.3439 118.831 15.3606 118.831H58.1666C59.1833 118.831 60.1583 118.428 60.8772 117.709C61.5961 116.99 62 116.015 62 114.998V111.165C61.9944 105.274 60.2923 99.5095 57.0972 94.5606C53.9021 89.6116 49.3493 85.6876 43.9831 83.2577ZM19.8329 68.9975C19.8329 66.723 20.5074 64.4996 21.771 62.6084C23.0347 60.7172 24.8307 59.2432 26.9321 58.3728C29.0335 57.5024 31.3458 57.2747 33.5766 57.7184C35.8074 58.1621 37.8565 59.2574 39.4648 60.8657C41.0731 62.474 42.1684 64.5232 42.6122 66.754C43.0559 68.9848 42.8282 71.2971 41.9577 73.3984C41.0873 75.4998 39.6133 77.2959 37.7221 78.5595C35.831 79.8232 33.6075 80.4977 31.333 80.4977C28.283 80.4977 25.3579 79.286 23.2012 77.1294C21.0445 74.9727 19.8329 72.0476 19.8329 68.9975Z" fill="#000033"/>
<path d="M111.835 3.83203H65.8341C62.7841 3.83203 59.859 5.04365 57.7023 7.20034C55.5456 9.35703 54.334 12.2821 54.334 15.3322V38.3324C54.334 41.3824 55.5456 44.3075 57.7023 46.4642C59.859 48.6209 62.7841 49.8325 65.8341 49.8325V57.4993C65.8341 58.2112 66.0323 58.909 66.4066 59.5146C66.7809 60.1202 67.3164 60.6096 67.9531 60.9279C68.5899 61.2463 69.3027 61.3811 70.0117 61.3172C70.7208 61.2532 71.398 60.9931 71.9675 60.566L86.266 49.8325H111.835C114.885 49.8325 117.81 48.6209 119.966 46.4642C122.123 44.3075 123.335 41.3824 123.335 38.3324V15.3322C123.335 12.2821 122.123 9.35703 119.966 7.20034C117.81 5.04365 114.885 3.83203 111.835 3.83203ZM115.668 38.3324C115.668 39.3491 115.264 40.3241 114.545 41.043C113.826 41.7619 112.851 42.1658 111.835 42.1658H85.001C83.3143 42.1658 83.5443 42.1658 73.5009 49.8325V45.9991C73.5009 44.9825 73.097 44.0074 72.3781 43.2885C71.6592 42.5696 70.6842 42.1658 69.6675 42.1658H65.8341C64.8174 42.1658 63.8424 41.7619 63.1235 41.043C62.4046 40.3241 62.0007 39.3491 62.0007 38.3324V15.3322C62.0007 14.3155 62.4046 13.3404 63.1235 12.6215C63.8424 11.9027 64.8174 11.4988 65.8341 11.4988H111.835C112.851 11.4988 113.826 11.9027 114.545 12.6215C115.264 13.3404 115.668 14.3155 115.668 15.3322V38.3324Z" fill="#05058C"/>
<path d="M73.4994 30.6667C72.7412 30.6667 72.0001 30.4419 71.3697 30.0207C70.7393 29.5995 70.248 29.0008 69.9578 28.3003C69.6677 27.5999 69.5918 26.8291 69.7397 26.0855C69.8876 25.3419 70.2527 24.6589 70.7888 24.1228C71.3249 23.5867 72.0079 23.2216 72.7515 23.0737C73.4951 22.9257 74.2659 23.0017 74.9664 23.2918C75.6668 23.5819 76.2655 24.0733 76.6867 24.7037C77.1079 25.3341 77.3328 26.0752 77.3328 26.8334C77.3328 27.8501 76.9289 28.8251 76.21 29.544C75.4911 30.2629 74.5161 30.6667 73.4994 30.6667Z" fill="#05058C"/>
<path d="M88.8334 30.6667C88.0752 30.6667 87.3341 30.4419 86.7037 30.0207C86.0733 29.5995 85.5819 29.0008 85.2918 28.3003C85.0017 27.5999 84.9257 26.8291 85.0737 26.0855C85.2216 25.3419 85.5867 24.6589 86.1228 24.1228C86.6589 23.5867 87.3419 23.2216 88.0855 23.0737C88.8291 22.9257 89.5999 23.0017 90.3003 23.2918C91.0008 23.5819 91.5995 24.0733 92.0207 24.7037C92.4419 25.3341 92.6667 26.0752 92.6667 26.8334C92.6667 27.8501 92.2629 28.8251 91.544 29.544C90.8251 30.2629 89.85 30.6667 88.8334 30.6667Z" fill="#05058C"/>
<path d="M104.167 30.6667C103.409 30.6667 102.668 30.4419 102.038 30.0207C101.407 29.5995 100.916 29.0008 100.626 28.3003C100.336 27.5999 100.26 26.8291 100.408 26.0855C100.556 25.3419 100.921 24.6589 101.457 24.1228C101.993 23.5867 102.676 23.2216 103.42 23.0737C104.163 22.9257 104.934 23.0017 105.634 23.2918C106.335 23.5819 106.933 24.0733 107.355 24.7037C107.776 25.3341 108.001 26.0752 108.001 26.8334C108.001 27.8501 107.597 28.8251 106.878 29.544C106.159 30.2629 105.184 30.6667 104.167 30.6667Z" fill="#05058C"/>
</g>
<defs>
<clipPath id="clip0_5651_28423">
<rect width="122.668" height="122.668" fill="white" transform="translate(0.666016)"/>
</clipPath>
</defs>
</svg>
