<svg width="124" height="123" viewBox="0 0 124 123" fill="none" xmlns="http://www.w3.org/2000/svg">
<g clip-path="url(#clip0_5651_28461)">
<rect width="122.668" height="122.668" transform="translate(0.666016)" fill="white"/>
<path d="M35.1669 122.667H27.5001C24.4501 122.667 21.525 121.456 19.3683 119.299C17.2116 117.142 16 114.217 16 111.167V80.5001C16 77.4501 17.2116 74.525 19.3683 72.3683C21.525 70.2116 24.4501 69 27.5001 69H35.1669C38.2169 69 41.142 70.2116 43.2987 72.3683C45.4554 74.525 46.667 77.4501 46.667 80.5001V111.167C46.667 114.217 45.4554 117.142 43.2987 119.299C41.142 121.456 38.2169 122.667 35.1669 122.667ZM27.5001 76.6667C26.4834 76.6667 25.5084 77.0706 24.7895 77.7895C24.0706 78.5084 23.6667 79.4834 23.6667 80.5001V111.167C23.6667 112.184 24.0706 113.159 24.7895 113.878C25.5084 114.597 26.4834 115 27.5001 115H35.1669C36.1835 115 37.1586 114.597 37.8775 113.878C38.5964 113.159 39.0002 112.184 39.0002 111.167V80.5001C39.0002 79.4834 38.5964 78.5084 37.8775 77.7895C37.1586 77.0706 36.1835 76.6667 35.1669 76.6667H27.5001Z" fill="#000033"/>
<path d="M73.5009 122.669H65.8341C62.7841 122.669 59.859 121.457 57.7023 119.3C55.5456 117.144 54.334 114.219 54.334 111.169V65.1681C54.334 62.1181 55.5456 59.193 57.7023 57.0363C59.859 54.8796 62.7841 53.668 65.8341 53.668H73.5009C76.5509 53.668 79.476 54.8796 81.6327 57.0363C83.7894 59.193 85.001 62.1181 85.001 65.1681V111.169C85.001 114.219 83.7894 117.144 81.6327 119.3C79.476 121.457 76.5509 122.669 73.5009 122.669ZM65.8341 61.3347C64.8174 61.3347 63.8424 61.7386 63.1235 62.4575C62.4046 63.1764 62.0007 64.1514 62.0007 65.1681V111.169C62.0007 112.185 62.4046 113.16 63.1235 113.879C63.8424 114.598 64.8174 115.002 65.8341 115.002H73.5009C74.5175 115.002 75.4926 114.598 76.2115 113.879C76.9304 113.16 77.3342 112.185 77.3342 111.169V65.1681C77.3342 64.1514 76.9304 63.1764 76.2115 62.4575C75.4926 61.7386 74.5175 61.3347 73.5009 61.3347H65.8341Z" fill="#05058C"/>
<path d="M111.835 122.669H104.168C101.118 122.669 98.193 121.457 96.0363 119.301C93.8796 117.144 92.668 114.219 92.668 111.169V42.1681C92.668 39.1181 93.8796 36.193 96.0363 34.0363C98.193 31.8796 101.118 30.668 104.168 30.668H111.835C114.885 30.668 117.81 31.8796 119.967 34.0363C122.123 36.193 123.335 39.1181 123.335 42.1681V102.224C123.335 103.241 122.931 104.216 122.212 104.935C121.493 105.654 120.518 106.058 119.502 106.058C118.485 106.058 117.51 105.654 116.791 104.935C116.072 104.216 115.668 103.241 115.668 102.224V42.1681C115.668 41.1514 115.264 40.1764 114.545 39.4575C113.827 38.7386 112.852 38.3347 111.835 38.3347H104.168C103.151 38.3347 102.176 38.7386 101.457 39.4575C100.739 40.1764 100.335 41.1514 100.335 42.1681V111.169C100.335 112.186 100.739 113.161 101.457 113.879C102.176 114.598 103.151 115.002 104.168 115.002H111.835C112.852 115.002 113.827 114.598 114.545 113.879C115.264 113.161 115.668 112.186 115.668 111.169V99.6687C115.668 98.652 116.072 97.677 116.791 96.9581C117.51 96.2392 118.485 95.8353 119.502 95.8353C120.518 95.8353 121.493 96.2392 122.212 96.9581C122.931 97.677 123.335 98.652 123.335 99.6687V111.169C123.335 114.219 122.123 117.144 119.967 119.301C117.81 121.457 114.885 122.669 111.835 122.669Z" fill="#05058C"/>
<path d="M42.8331 0C41.8165 0 40.8414 0.403872 40.1225 1.12277C39.4036 1.84167 38.9998 2.8167 38.9998 3.83337V5.29006L18.9129 15.3335H8.33276C6.29942 15.3335 4.34935 16.1412 2.91155 17.579C1.47376 19.0168 0.666016 20.9669 0.666016 23.0002L0.666016 30.667C0.67042 32.1762 1.12019 33.6506 1.95895 34.9054C2.7977 36.1601 3.98814 37.1393 5.38107 37.7204L8.52443 47.2272C8.84977 48.2184 9.55555 49.0398 10.4865 49.5107C11.4175 49.9816 12.4974 50.0634 13.4887 49.738C14.4799 49.4127 15.3013 48.7069 15.7722 47.7759C16.2431 46.845 16.3248 45.7651 15.9995 44.7738L13.6612 38.3337H18.9129L38.9998 48.3772V49.8339C38.9998 50.8505 39.4036 51.8256 40.1225 52.5445C40.8414 53.2634 41.8165 53.6672 42.8331 53.6672C43.8498 53.6672 44.8248 53.2634 45.5437 52.5445C46.2626 51.8256 46.6665 50.8505 46.6665 49.8339V3.83337C46.6665 2.8167 46.2626 1.84167 45.5437 1.12277C44.8248 0.403872 43.8498 0 42.8331 0V0ZM8.33276 23.0002H15.9995V30.667H8.33276V23.0002ZM23.6663 32.1237V21.5436L38.9998 13.8768V39.7904L23.6663 32.1237Z" fill="#05058C"/>
<path d="M65.8341 23H58.1674C57.1507 23 56.1757 23.4039 55.4568 24.1228C54.7379 24.8417 54.334 25.8167 54.334 26.8334C54.334 27.85 54.7379 28.8251 55.4568 29.544C56.1757 30.2629 57.1507 30.6667 58.1674 30.6667H65.8341C66.8508 30.6667 67.8258 30.2629 68.5447 29.544C69.2636 28.8251 69.6675 27.85 69.6675 26.8334C69.6675 25.8167 69.2636 24.8417 68.5447 24.1228C67.8258 23.4039 66.8508 23 65.8341 23Z" fill="#05058C"/>
<path d="M58.174 15.3361C60.2057 15.3361 60.7424 14.3394 64.7291 10.3911C65.4509 9.66923 65.8565 8.69021 65.8565 7.66937C65.8565 6.64854 65.4509 5.66951 64.7291 4.94768C64.0073 4.22584 63.0282 3.82031 62.0074 3.82031C60.9866 3.82031 60.0075 4.22584 59.2857 4.94768L55.4523 8.78105C54.9117 9.31723 54.543 10.0023 54.3932 10.7488C54.2435 11.4953 54.3194 12.2696 54.6114 12.9728C54.9034 13.676 55.3982 14.2763 56.0327 14.6972C56.6672 15.1181 57.4126 15.3405 58.174 15.3361Z" fill="#05058C"/>
<path d="M60.8891 39.4477C60.1673 38.7258 59.1883 38.3203 58.1674 38.3203C57.1466 38.3203 56.1676 38.7258 55.4457 39.4477C54.7239 40.1695 54.3184 41.1485 54.3184 42.1694C54.3184 43.1902 54.7239 44.1692 55.4457 44.8911C59.5091 48.9544 60.0074 49.8361 62.0008 49.8361C62.7622 49.8405 63.5077 49.6181 64.1422 49.1972C64.7767 48.7763 65.2714 48.176 65.5634 47.4728C65.8554 46.7696 65.9313 45.9953 65.7816 45.2488C65.6318 44.5023 65.2631 43.8172 64.7225 43.281L60.8891 39.4477Z" fill="#05058C"/>
</g>
<defs>
<clipPath id="clip0_5651_28461">
<rect width="122.668" height="122.668" fill="white" transform="translate(0.666016)"/>
</clipPath>
</defs>
</svg>
