<svg width="124" height="123" viewBox="0 0 124 123" fill="none" xmlns="http://www.w3.org/2000/svg">
<g clip-path="url(#clip0_5651_28412)">
<rect width="122.668" height="122.668" transform="translate(0.666016)" fill="white"/>
<path d="M106.882 100.816L94.3848 88.1662C99.8924 81.6633 103.3 73.6443 104.16 65.166H115.66C116.677 65.166 117.652 64.7621 118.371 64.0432C119.089 63.3243 119.493 62.3493 119.493 61.3326C119.493 60.3159 119.089 59.3409 118.371 58.622C117.652 57.9031 116.677 57.4992 115.66 57.4992H104.16C103.355 49.0421 100.015 41.0253 94.5764 34.499L106.882 21.8488C109.329 23.021 112.113 23.2898 114.739 22.6076C117.366 21.9254 119.667 20.3363 121.235 18.1212C122.803 15.9062 123.537 13.208 123.308 10.5039C123.078 7.79971 121.899 5.26388 119.98 3.34489C118.061 1.42589 115.526 0.247382 112.821 0.0178025C110.117 -0.211777 107.419 0.522369 105.204 2.09039C102.989 3.65841 101.4 5.95926 100.718 8.586C100.036 11.2127 100.304 13.9961 101.476 16.4438L88.8264 28.9406C82.3 23.5021 74.2832 20.1618 65.8261 19.3571V7.66534C65.8261 6.64867 65.4222 5.67364 64.7033 4.95474C63.9845 4.23584 63.0094 3.83197 61.9927 3.83197C60.9761 3.83197 60.001 4.23584 59.2821 4.95474C58.5632 5.67364 58.1594 6.64867 58.1594 7.66534V19.3571C49.7023 20.1618 41.6855 23.5021 35.1591 28.9406L22.509 16.4438C23.6811 13.9961 23.9499 11.2127 23.2677 8.586C22.5856 5.95926 20.9964 3.65841 18.7814 2.09039C16.5664 0.522369 13.8682 -0.211777 11.164 0.0178025C8.45987 0.247382 5.92404 1.42589 4.00504 3.34489C2.08605 5.26388 0.907538 7.79971 0.677959 10.5039C0.44838 13.208 1.18252 15.9062 2.75055 18.1212C4.31857 20.3363 6.61942 21.9254 9.24616 22.6076C11.8729 23.2898 14.6562 23.021 17.1039 21.8488L29.6007 34.499C24.1623 41.0253 20.8219 49.0421 20.0173 57.4992H8.3255C7.30883 57.4992 6.33379 57.9031 5.6149 58.622C4.896 59.3409 4.49213 60.3159 4.49213 61.3326C4.49213 62.3493 4.896 63.3243 5.6149 64.0432C6.33379 64.7621 7.30883 65.166 8.3255 65.166H20.0556C20.8099 73.6216 24.1266 81.6456 29.5624 88.1662L17.1039 100.816C14.6562 99.6442 11.8729 99.3754 9.24616 100.058C6.61942 100.74 4.31857 102.329 2.75055 104.544C1.18252 106.759 0.44838 109.457 0.677959 112.161C0.907538 114.865 2.08605 117.401 4.00504 119.32C5.92404 121.239 8.45987 122.418 11.164 122.647C13.8682 122.877 16.5664 122.143 18.7814 120.575C20.9964 119.007 22.5856 116.706 23.2677 114.079C23.9499 111.452 23.6811 108.669 22.509 106.221L35.1591 93.6863C35.7341 94.1463 36.2325 94.6446 36.8075 95.0663C37.2102 95.3683 37.6685 95.5881 38.1561 95.713C38.6438 95.838 39.1513 95.8656 39.6496 95.7944C40.148 95.7232 40.6274 95.5546 41.0606 95.2981C41.4937 95.0416 41.8722 94.7023 42.1742 94.2996C42.4762 93.8969 42.696 93.4386 42.8209 92.9509C42.9459 92.4633 42.9735 91.9558 42.9023 91.4575C42.8312 90.9591 42.6625 90.4797 42.406 90.0465C42.1495 89.6133 41.8102 89.2349 41.4075 88.9329C37.0837 85.7482 33.5708 81.5899 31.1533 76.7948C28.7358 71.9997 27.4816 66.7026 27.4924 61.3326C27.4938 54.2133 29.6977 47.2687 33.8018 41.4513C37.9058 35.634 43.709 31.2287 50.4156 28.8397C57.1221 26.4507 64.4035 26.1949 71.2611 28.1075C78.1187 30.0201 84.2167 34.0073 88.7188 39.5224C93.2209 45.0375 95.9066 51.8103 96.4076 58.912C96.9085 66.0136 95.2002 73.0964 91.5169 79.1889C87.8337 85.2814 82.3558 90.0852 75.8345 92.9415C69.3133 95.7978 62.0682 96.5668 55.0927 95.1429C54.5893 95.0423 54.0709 95.0417 53.5673 95.1413C53.0637 95.241 52.5847 95.4388 52.1575 95.7236C51.7304 96.0084 51.3635 96.3745 51.0778 96.801C50.7921 97.2276 50.5933 97.7062 50.4926 98.2096C50.3919 98.7131 50.3914 99.2314 50.491 99.735C50.5906 100.239 50.7885 100.718 51.0733 101.145C51.358 101.572 51.7241 101.939 52.1507 102.225C52.5773 102.51 53.0559 102.709 53.5593 102.81C55.0927 103.116 56.626 103.308 58.1594 103.461V115C58.1594 116.016 58.5632 116.992 59.2821 117.71C60.001 118.429 60.9761 118.833 61.9927 118.833C63.0094 118.833 63.9845 118.429 64.7033 117.71C65.4222 116.992 65.8261 116.016 65.8261 115V103.5C74.2832 102.695 82.3 99.3547 88.8264 93.9163L101.361 106.413C100.189 108.861 99.9206 111.644 100.603 114.271C101.285 116.898 102.874 119.198 105.089 120.766C107.304 122.334 110.002 123.069 112.706 122.839C115.411 122.609 117.946 121.431 119.865 119.512C121.784 117.593 122.963 115.057 123.193 112.353C123.422 109.649 122.688 106.951 121.12 104.736C119.552 102.521 117.251 100.931 114.624 100.249C111.998 99.5671 109.214 99.8358 106.767 101.008L106.882 100.816ZM12.1589 115C11.5285 115.002 10.9071 114.85 10.3499 114.555C9.7927 114.26 9.31681 113.832 8.96438 113.309C8.61196 112.787 8.39389 112.185 8.32948 111.558C8.26508 110.931 8.35634 110.298 8.59517 109.714C8.83399 109.131 9.21302 108.615 9.69868 108.213C10.1843 107.811 10.7616 107.535 11.3794 107.41C11.9972 107.284 12.6364 107.313 13.2404 107.494C13.8445 107.674 14.3946 108.001 14.8422 108.445C15.3805 108.979 15.7484 109.66 15.8994 110.403C16.0504 111.146 15.9777 111.917 15.6904 112.619C15.4032 113.32 14.9144 113.921 14.2858 114.345C13.6572 114.769 12.917 114.997 12.1589 115ZM111.827 7.66534C112.457 7.6627 113.078 7.81557 113.636 8.11042C114.193 8.40527 114.669 8.83299 115.021 9.3557C115.374 9.8784 115.592 10.48 115.656 11.1071C115.72 11.7342 115.629 12.3675 115.39 12.9509C115.151 13.5344 114.772 14.0499 114.287 14.4518C113.801 14.8538 113.224 15.1297 112.606 15.2553C111.988 15.3808 111.349 15.3521 110.745 15.1716C110.141 14.991 109.591 14.6643 109.143 14.2204C108.605 13.6865 108.237 13.005 108.086 12.2621C107.935 11.5191 108.008 10.7481 108.295 10.0464C108.582 9.3448 109.071 8.74409 109.7 8.32027C110.328 7.89644 111.068 7.66852 111.827 7.66534ZM8.3255 11.4987C8.32286 10.8683 8.47573 10.247 8.77058 9.68976C9.06543 9.13255 9.49315 8.65665 10.0159 8.30423C10.5386 7.9518 11.1401 7.73373 11.7672 7.66933C12.3943 7.60493 13.0277 7.69618 13.6111 7.93501C14.1945 8.17384 14.71 8.55287 15.112 9.03852C15.5139 9.52418 15.7899 10.1015 15.9154 10.7193C16.041 11.337 16.0122 11.9763 15.8317 12.5803C15.6512 13.1843 15.3245 13.7345 14.8806 14.1821C14.3467 14.7204 13.6652 15.0883 12.9222 15.2392C12.1793 15.3902 11.4082 15.3175 10.7066 15.0303C10.005 14.7431 9.40425 14.2542 8.98042 13.6256C8.55659 12.997 8.32868 12.2569 8.3255 11.4987ZM111.827 115C111.073 114.997 110.337 114.772 109.711 114.353C109.085 113.933 108.596 113.339 108.305 112.644C108.015 111.948 107.936 111.183 108.078 110.443C108.22 109.703 108.577 109.021 109.105 108.483C109.548 108.031 110.096 107.696 110.7 107.507C111.303 107.319 111.945 107.283 112.566 107.402C113.187 107.521 113.769 107.793 114.26 108.192C114.751 108.591 115.136 109.105 115.38 109.689C115.624 110.273 115.719 110.908 115.658 111.538C115.597 112.168 115.38 112.772 115.028 113.298C114.677 113.824 114.2 114.255 113.641 114.551C113.083 114.848 112.459 115.002 111.827 115Z" fill="#000033"/>
<path d="M22.6153 106.319L35.2654 93.8222C41.7683 99.3299 49.7873 102.738 58.2657 103.597L58.2657 115.097C58.2657 116.114 58.6695 117.089 59.3884 117.808C60.1073 118.527 61.0824 118.931 62.099 118.931C63.1157 118.931 64.0908 118.527 64.8097 117.808C65.5285 117.089 65.9324 116.114 65.9324 115.097L65.9324 103.597C74.3895 102.793 82.4063 99.4524 88.9327 94.0139L101.583 106.319C100.411 108.767 100.142 111.55 100.824 114.177C101.506 116.804 103.095 119.104 105.31 120.672C107.525 122.24 110.224 122.975 112.928 122.745C115.632 122.515 118.168 121.337 120.087 119.418C122.006 117.499 123.184 114.963 123.414 112.259C123.643 109.555 122.909 106.857 121.341 104.642C119.773 102.427 117.472 100.837 114.846 100.155C112.219 99.4731 109.436 99.7418 106.988 100.914L94.4911 88.2639C99.9295 81.7375 103.27 73.7207 104.074 65.2636L115.766 65.2636C116.783 65.2636 117.758 64.8597 118.477 64.1408C119.196 63.422 119.6 62.4469 119.6 61.4302C119.6 60.4136 119.196 59.4385 118.477 58.7196C117.758 58.0007 116.783 57.5969 115.766 57.5969L104.074 57.5969C103.27 49.1398 99.9295 41.123 94.4911 34.5966L106.988 21.9465C109.436 23.1186 112.219 23.3874 114.846 22.7052C117.472 22.0231 119.773 20.4339 121.341 18.2189C122.909 16.0039 123.643 13.3057 123.414 10.6015C123.184 7.89737 122.006 5.36154 120.087 3.44254C118.168 1.52355 115.632 0.345037 112.928 0.115458C110.224 -0.114121 107.525 0.620024 105.31 2.18804C103.095 3.75606 101.506 6.05692 100.824 8.68366C100.142 11.3104 100.411 14.0937 101.583 16.5414L88.9327 29.0382C82.4063 23.5998 74.3895 20.2594 65.9324 19.4548L65.9324 7.763C65.9324 6.74632 65.5286 5.77129 64.8097 5.05239C64.0908 4.3335 63.1157 3.92962 62.099 3.92962C61.0824 3.92962 60.1073 4.3335 59.3884 5.05239C58.6695 5.77129 58.2657 6.74632 58.2657 7.763L58.2657 19.4931C49.8101 20.2474 41.786 23.5641 35.2654 28.9999L22.6153 16.5414C23.7875 14.0937 24.0562 11.3104 23.3741 8.68365C22.6919 6.05692 21.1027 3.75606 18.8877 2.18804C16.6727 0.62002 13.9745 -0.114125 11.2703 0.115454C8.56617 0.345033 6.03034 1.52354 4.11135 3.44254C2.19235 5.36153 1.01385 7.89736 0.784271 10.6015C0.554695 13.3056 1.28883 16.0039 2.85685 18.2189C4.42487 20.4339 6.72573 22.0231 9.35246 22.7052C11.9792 23.3874 14.7626 23.1186 17.2102 21.9465L29.7454 34.5966C29.2854 35.1716 28.787 35.67 28.3654 36.245C28.0633 36.6477 27.8435 37.106 27.7186 37.5936C27.5937 38.0813 27.566 38.5888 27.6372 39.0871C27.7084 39.5855 27.8771 40.0649 28.1335 40.4981C28.39 40.9312 28.7293 41.3096 29.132 41.6117C29.5348 41.9137 29.993 42.1335 30.4807 42.2584C30.9683 42.3834 31.4758 42.411 31.9742 42.3398C32.4725 42.2686 32.952 42.1 33.3851 41.8435C33.8183 41.587 34.1967 41.2477 34.4987 40.845C37.6834 36.5212 41.8417 33.0083 46.6368 30.5908C51.4319 28.1733 56.729 26.9191 62.099 26.9299C69.2184 26.9313 76.1629 29.1352 81.9803 33.2393C87.7977 37.3433 92.2029 43.1465 94.5919 49.8531C96.9809 56.5596 97.2367 63.841 95.3241 70.6986C93.4115 77.5562 89.4243 83.6542 83.9092 88.1563C78.3942 92.6584 71.6213 95.3441 64.5197 95.8451C57.418 96.346 50.3352 94.6377 44.2427 90.9544C38.1503 87.2712 33.3464 81.7933 30.4901 75.272C27.6338 68.7508 26.8648 61.5056 28.2887 54.5302C28.3894 54.0268 28.3899 53.5084 28.2903 53.0048C28.1906 52.5012 27.9928 52.0222 27.708 51.595C27.4233 51.1678 27.0571 50.801 26.6306 50.5153C26.204 50.2296 25.7254 50.0308 25.222 49.9301C24.7186 49.8294 24.2003 49.8289 23.6967 49.9285C23.193 50.0281 22.714 50.226 22.2868 50.5108C21.8597 50.7955 21.4928 51.1616 21.2071 51.5882C20.9215 52.0148 20.7226 52.4934 20.6219 52.9968C20.3153 54.5302 20.1236 56.0635 19.9703 57.5969L8.43181 57.5969C7.41513 57.5969 6.44009 58.0007 5.7212 58.7196C5.0023 59.4385 4.59843 60.4136 4.59843 61.4302C4.59843 62.4469 5.0023 63.4219 5.7212 64.1408C6.44009 64.8597 7.41513 65.2636 8.43181 65.2636L19.9319 65.2636C20.7366 73.7207 24.0769 81.7375 29.5154 88.2639L17.0186 100.799C14.5709 99.6268 11.7875 99.3581 9.16079 100.04C6.53405 100.722 4.2332 102.312 2.66518 104.527C1.09716 106.742 0.363009 109.44 0.592585 112.144C0.822169 114.848 2.00067 117.384 3.91967 119.303C5.83866 121.222 8.37449 122.4 11.0786 122.63C13.7828 122.86 16.481 122.125 18.696 120.557C20.9111 118.989 22.5002 116.689 23.1824 114.062C23.8645 111.435 23.5958 108.652 22.4236 106.204L22.6153 106.319ZM8.43181 11.5964C8.42916 10.966 8.58204 10.3446 8.87688 9.78741C9.17173 9.2302 9.59945 8.7543 10.1222 8.40188C10.6449 8.04945 11.2464 7.83138 11.8735 7.76698C12.5007 7.70258 13.134 7.79383 13.7174 8.03266C14.3008 8.27149 14.8163 8.65052 15.2183 9.13618C15.6202 9.62183 15.8962 10.1991 16.0217 10.8169C16.1473 11.4347 16.1185 12.0739 15.938 12.6779C15.7575 13.282 15.4308 13.8321 14.9869 14.2797C14.453 14.818 13.7715 15.1859 13.0285 15.3369C12.2856 15.4879 11.5145 15.4152 10.8129 15.1279C10.1113 14.8407 9.51055 14.3519 9.08672 13.7233C8.66289 13.0947 8.43498 12.3545 8.43181 11.5964ZM115.766 111.264C115.769 111.895 115.616 112.516 115.321 113.073C115.026 113.63 114.599 114.106 114.076 114.459C113.553 114.811 112.952 115.029 112.325 115.093C111.697 115.158 111.064 115.067 110.481 114.828C109.897 114.589 109.382 114.21 108.98 113.724C108.578 113.239 108.302 112.661 108.176 112.044C108.051 111.426 108.08 110.787 108.26 110.183C108.441 109.579 108.767 109.028 109.211 108.581C109.745 108.042 110.427 107.675 111.17 107.524C111.913 107.373 112.684 107.445 113.385 107.733C114.087 108.02 114.688 108.509 115.111 109.137C115.535 109.766 115.763 110.506 115.766 111.264ZM111.933 7.763C112.563 7.76036 113.185 7.91323 113.742 8.20808C114.299 8.50293 114.775 8.93065 115.127 9.45335C115.48 9.97606 115.698 10.5776 115.762 11.2047C115.827 11.8318 115.735 12.4652 115.497 13.0486C115.258 13.632 114.879 14.1475 114.393 14.5495C113.907 14.9514 113.33 15.2274 112.712 15.3529C112.095 15.4785 111.455 15.4497 110.851 15.2692C110.247 15.0887 109.697 14.762 109.25 14.3181C108.711 13.7842 108.343 13.1027 108.192 12.3597C108.041 11.6168 108.114 10.8457 108.401 10.1441C108.689 9.44246 109.177 8.84175 109.806 8.41792C110.435 7.99409 111.175 7.76618 111.933 7.763ZM8.4318 111.264C8.43492 110.511 8.66006 109.775 9.0791 109.148C9.49813 108.522 10.0925 108.033 10.7878 107.743C11.4832 107.452 12.2487 107.373 12.9887 107.515C13.7287 107.658 14.4104 108.015 14.9485 108.542C15.4004 108.985 15.7355 109.533 15.9242 110.137C16.1128 110.741 16.149 111.382 16.0296 112.004C15.9102 112.625 15.6388 113.207 15.2398 113.698C14.8407 114.189 14.3263 114.573 13.7425 114.817C13.1587 115.061 12.5236 115.157 11.8938 115.095C11.2641 115.034 10.6594 114.818 10.1335 114.466C9.60766 114.114 9.17707 113.638 8.88014 113.079C8.58322 112.52 8.42919 111.897 8.4318 111.264Z" fill="#000033"/>
<path d="M71.2329 60.5372C72.9636 58.6789 74.1249 56.3393 74.5727 53.8088C75.0205 51.2783 74.7349 48.6685 73.7516 46.3033C72.7682 43.9381 71.1303 41.9217 69.0413 40.5046C66.9523 39.0875 64.5041 38.332 62.0009 38.332C59.4976 38.332 57.0494 39.0875 54.9604 40.5046C52.8714 41.9217 51.2335 43.9381 50.2501 46.3033C49.2668 48.6685 48.9813 51.2783 49.429 53.8088C49.8768 56.3393 51.0381 58.6789 52.7688 60.5372C49.7642 62.2339 47.2576 64.7275 45.5102 67.7582C43.7628 70.7889 42.8386 74.2457 42.834 77.7683V81.0504C42.834 81.9209 43.1705 82.7557 43.7696 83.3712C44.3687 83.9867 45.1812 84.3325 46.0285 84.3325H77.9732C78.8205 84.3325 79.633 83.9867 80.2321 83.3712C80.8312 82.7557 81.1677 81.9209 81.1677 81.0504V77.7683C81.1631 74.2457 80.2389 70.7889 78.4915 67.7582C76.7441 64.7275 74.2375 62.2339 71.2329 60.5372ZM55.6119 51.5113C55.6119 50.213 55.9866 48.9439 56.6886 47.8644C57.3907 46.7849 58.3885 45.9436 59.5559 45.4468C60.7233 44.9499 62.0079 44.8199 63.2473 45.0732C64.4866 45.3265 65.625 45.9517 66.5185 46.8697C67.412 47.7877 68.0205 48.9574 68.267 50.2307C68.5136 51.504 68.387 52.8239 67.9035 54.0234C67.4199 55.2228 66.601 56.248 65.5504 56.9693C64.4997 57.6906 63.2645 58.0756 62.0009 58.0756C60.3064 58.0756 58.6813 57.384 57.4832 56.1529C56.285 54.9219 55.6119 53.2523 55.6119 51.5113ZM49.2229 77.7683C49.2229 74.2864 50.5692 70.9471 52.9655 68.4851C55.3618 66.023 58.6119 64.6398 62.0009 64.6398C65.3898 64.6398 68.6399 66.023 71.0362 68.4851C73.4325 70.9471 74.7788 74.2864 74.7788 77.7683H49.2229Z" fill="#05058C"/>
</g>
<defs>
<clipPath id="clip0_5651_28412">
<rect width="122.668" height="122.668" fill="white" transform="translate(0.666016)"/>
</clipPath>
</defs>
</svg>
