<svg width="123" height="123" viewBox="0 0 123 123" fill="none" xmlns="http://www.w3.org/2000/svg">
<g clip-path="url(#clip0_5636_28779)">
<rect width="122.668" height="122.668" transform="translate(0.166016)" fill="white"/>
<path d="M119.001 42.1669H98.1854L76.2968 5.71155C75.7387 4.94406 74.9157 4.41089 73.9871 4.2152C73.0585 4.01952 72.0903 4.17523 71.2699 4.65222C70.4495 5.1292 69.8352 5.89354 69.5458 6.79734C69.2564 7.70114 69.3126 8.68015 69.7034 9.54492L89.2153 42.1669H33.7847L53.2966 9.62159C53.6874 8.75681 53.7436 7.77781 53.4542 6.87401C53.1649 5.97021 52.5505 5.20587 51.7301 4.72888C50.9097 4.2519 49.9415 4.09619 49.0129 4.29187C48.0843 4.48755 47.2613 5.02073 46.7032 5.78822L24.8146 42.1669H3.99939C2.98272 42.1669 2.00768 42.5708 1.28878 43.2897C0.569888 44.0086 0.166016 44.9836 0.166016 46.0003L0.166016 61.3338C0.166016 62.3505 0.569888 63.3255 1.28878 64.0444C2.00768 64.7633 2.98272 65.1672 3.99939 65.1672C4.72773 65.1672 3.80772 60.2988 10.7461 108.944C11.1367 111.708 12.5187 114.234 14.6345 116.054C16.7504 117.874 19.4557 118.862 22.2463 118.834H42.3331C43.3498 118.834 44.3248 118.431 45.0437 117.712C45.7626 116.993 46.1665 116.018 46.1665 115.001C46.1665 113.984 45.7626 113.009 45.0437 112.29C44.3248 111.572 43.3498 111.168 42.3331 111.168H22.1312C21.2011 111.177 20.2993 110.847 19.594 110.241C18.8887 109.634 18.4281 108.792 18.2979 107.871L12.2411 65.1672H110.759L104.625 107.871C104.495 108.792 104.035 109.634 103.329 110.241C102.624 110.847 101.722 111.177 100.792 111.168H57.6666C56.65 111.168 55.6749 111.572 54.956 112.29C54.2371 113.009 53.8333 113.984 53.8333 115.001C53.8333 116.018 54.2371 116.993 54.956 117.712C55.6749 118.431 56.65 118.834 57.6666 118.834H100.869C103.659 118.862 106.365 117.874 108.48 116.054C110.596 114.234 111.978 111.708 112.369 108.944L118.502 65.1672C119.046 65.2385 119.598 65.1923 120.123 65.0319C120.647 64.8714 121.131 64.6004 121.541 64.2371C121.952 63.8737 122.28 63.4265 122.503 62.9257C122.726 62.4249 122.839 61.882 122.834 61.3338V46.0003C122.834 44.9836 122.43 44.0086 121.711 43.2897C120.992 42.5708 120.017 42.1669 119.001 42.1669ZM7.83276 57.5004V49.8337H115.167V57.5004H7.83276Z" fill="#000033"/>
<path d="M61.4994 103.503C60.4827 103.503 59.5077 103.099 58.7888 102.38C58.0699 101.661 57.666 100.686 57.666 99.6696V76.6693C57.666 75.6526 58.0699 74.6776 58.7888 73.9587C59.5077 73.2398 60.4827 72.8359 61.4994 72.8359C62.5161 72.8359 63.4911 73.2398 64.21 73.9587C64.9289 74.6776 65.3328 75.6526 65.3328 76.6693V99.6696C65.3328 100.686 64.9289 101.661 64.21 102.38C63.4911 103.099 62.5161 103.503 61.4994 103.503Z" fill="#05058C"/>
<path d="M38.4968 103.505C37.5779 103.517 36.6854 103.198 35.9818 102.607C35.2782 102.016 34.8103 101.192 34.6634 100.285L30.83 77.2845C30.7495 76.7811 30.7689 76.2668 30.8871 75.7709C31.0053 75.275 31.2201 74.8072 31.5191 74.3943C31.8181 73.9814 32.1955 73.6314 32.6298 73.3643C33.064 73.0973 33.5466 72.9184 34.05 72.8378C34.5534 72.7573 35.0678 72.7767 35.5637 72.8949C36.0596 73.0131 36.5274 73.2279 36.9403 73.5269C37.3532 73.8259 37.7032 74.2033 37.9702 74.6376C38.2373 75.0718 38.4162 75.5544 38.4968 76.0579L42.3301 99.0581C42.4197 99.6104 42.3873 100.176 42.2352 100.714C42.0831 101.252 41.8149 101.751 41.4496 102.175C41.0843 102.598 40.6307 102.937 40.1206 103.167C39.6104 103.397 39.0562 103.512 38.4968 103.505Z" fill="#05058C"/>
<path d="M84.498 103.505C83.9386 103.512 83.3844 103.397 82.8742 103.167C82.3641 102.937 81.9105 102.598 81.5452 102.175C81.1799 101.751 80.9117 101.252 80.7596 100.714C80.6075 100.176 80.5751 99.6104 80.6647 99.0581L84.498 76.0579C84.6607 75.0412 85.2206 74.1308 86.0545 73.5269C86.8884 72.923 87.9281 72.6752 88.9448 72.8378C89.9614 73.0005 90.8718 73.5604 91.4757 74.3943C92.0796 75.2282 92.3275 76.2679 92.1648 77.2845L88.3314 100.285C88.1845 101.192 87.7166 102.016 87.013 102.607C86.3094 103.198 85.4169 103.517 84.498 103.505V103.505Z" fill="#05058C"/>
</g>
<defs>
<clipPath id="clip0_5636_28779">
<rect width="122.668" height="122.668" fill="white" transform="translate(0.166016)"/>
</clipPath>
</defs>
</svg>
