<svg width="124" height="123" viewBox="0 0 124 123" fill="none" xmlns="http://www.w3.org/2000/svg">
<g clip-path="url(#clip0_5651_28456)">
<rect width="122.668" height="122.668" transform="translate(0.666016)" fill="white"/>
<path d="M69.6667 122.668H54.3333C52.2999 122.668 50.3498 121.86 48.912 120.422C47.4743 118.985 46.6665 117.035 46.6665 115.001V105.839C46.6665 104.823 47.0704 103.848 47.7893 103.129C48.5082 102.41 49.4832 102.006 50.4999 102.006C51.5166 102.006 52.4916 102.41 53.2105 103.129C53.9294 103.848 54.3333 104.823 54.3333 105.839V115.001H69.6667V108.676C69.6757 107.045 70.2047 105.459 71.1767 104.149C72.1488 102.84 73.5133 101.874 75.0718 101.393C77.1604 100.709 79.1973 99.8761 81.1669 98.901C82.6103 98.1414 84.2584 97.8619 85.8716 98.1032C87.4848 98.3445 88.979 99.094 90.137 100.243L94.622 104.689L105.432 93.8793L100.985 89.3943C99.841 88.2511 99.0876 86.7752 98.8328 85.1778C98.578 83.5804 98.8351 81.9433 99.5671 80.5009C100.539 78.5561 101.371 76.545 102.059 74.4825C102.526 72.9096 103.486 71.5283 104.797 70.5415C106.108 69.5548 107.701 69.0147 109.342 69.0007H115.667V53.6672H109.342C107.711 53.6583 106.125 53.1293 104.815 52.1573C103.506 51.1852 102.54 49.8207 102.059 48.2622C101.375 46.1736 100.542 44.1367 99.5671 42.1671C98.8074 40.7237 98.5279 39.0756 98.7692 37.4624C99.0105 35.8492 99.76 34.355 100.909 33.197L105.355 28.712L94.5453 17.9785L90.0603 22.4252C88.9082 23.5571 87.428 24.2963 85.831 24.5372C84.234 24.7781 82.6016 24.5085 81.1669 23.7669C79.2221 22.7952 77.211 21.9625 75.1485 21.2752C73.5756 20.8076 72.1943 19.8478 71.2076 18.5367C70.2208 17.2257 69.6808 15.6326 69.6667 13.9918V7.66675H54.3333V13.9918C54.3243 15.6229 53.7953 17.2087 52.8233 18.5185C51.8512 19.8284 50.4867 20.7941 48.9282 21.2752C46.8396 21.9591 44.8027 22.7918 42.8331 23.7669C41.3897 24.5266 39.7416 24.8061 38.1284 24.5648C36.5152 24.3235 35.021 23.574 33.863 22.4252L29.4547 17.9785L18.6445 28.7886L23.0913 33.2737C24.2231 34.4258 24.9623 35.906 25.2032 37.503C25.4441 39.1 25.1746 40.7323 24.4329 42.1671C23.4612 44.1118 22.6285 46.123 21.9412 48.1855C21.4737 49.7584 20.5138 51.1397 19.2027 52.1264C17.8917 53.1132 16.2986 53.6532 14.6578 53.6672H8.33276V69.0007H14.6578C16.2889 69.0097 17.8747 69.5387 19.1845 70.5107C20.4944 71.4828 21.4601 72.8472 21.9412 74.4058C22.6251 76.4944 23.4578 78.5313 24.4329 80.5009C25.1926 81.9443 25.4721 83.5924 25.2308 85.2056C24.9895 86.8188 24.24 88.313 23.0913 89.4709L18.6445 93.8793L29.4547 104.689L32.4447 101.738C32.801 101.378 33.225 101.093 33.6922 100.899C34.1593 100.704 34.6603 100.604 35.1664 100.604C35.6724 100.604 36.1735 100.704 36.6406 100.899C37.1077 101.093 37.5317 101.378 37.8881 101.738C38.602 102.456 39.0028 103.428 39.0028 104.44C39.0028 105.453 38.602 106.425 37.8881 107.143L34.898 110.133C34.186 110.846 33.3405 111.411 32.4097 111.797C31.479 112.183 30.4813 112.381 29.4738 112.381C28.4663 112.381 27.4686 112.183 26.5379 111.797C25.6072 111.411 24.7616 110.846 24.0496 110.133L13.2011 99.2844C12.4883 98.5723 11.9228 97.7268 11.537 96.7961C11.1512 95.8653 10.9526 94.8677 10.9526 93.8602C10.9526 92.8526 11.1512 91.855 11.537 90.9243C11.9228 89.9935 12.4883 89.148 13.2011 88.4359L17.6862 83.9892C16.4866 81.6317 15.4741 79.1836 14.6578 76.6675H8.33276C6.29942 76.6675 4.34935 75.8597 2.91155 74.4219C1.47376 72.9841 0.666016 71.0341 0.666016 69.0007V53.6672C0.666016 51.6339 1.47376 49.6838 2.91155 48.246C4.34935 46.8082 6.29942 46.0005 8.33276 46.0005H14.6578C15.4454 43.5224 16.4325 41.1123 17.6095 38.7937L13.2011 34.232C12.4883 33.52 11.9228 32.6744 11.537 31.7437C11.1512 30.813 10.9526 29.8153 10.9526 28.8078C10.9526 27.8003 11.1512 26.8026 11.537 25.8719C11.9228 24.9412 12.4883 24.0956 13.2011 23.3836L24.0496 12.5351C24.7616 11.8223 25.6072 11.2568 26.5379 10.871C27.4686 10.4852 28.4663 10.2866 29.4738 10.2866C30.4813 10.2866 31.479 10.4852 32.4097 10.871C33.3405 11.2568 34.186 11.8223 34.898 12.5351L39.3448 17.0202C41.7023 15.8206 44.1504 14.808 46.6665 13.9918V7.66675C46.6665 5.6334 47.4743 3.68333 48.912 2.24554C50.3498 0.807745 52.2999 0 54.3333 0L69.6667 0C71.7001 0 73.6502 0.807745 75.088 2.24554C76.5257 3.68333 77.3335 5.6334 77.3335 7.66675V13.9918C79.8116 14.7793 82.2217 15.7665 84.5402 16.9435L89.102 12.5351C89.814 11.8223 90.6595 11.2568 91.5903 10.871C92.521 10.4852 93.5187 10.2866 94.5262 10.2866C95.5337 10.2866 96.5314 10.4852 97.4621 10.871C98.3928 11.2568 99.2384 11.8223 99.9504 12.5351L110.799 23.3836C111.512 24.0956 112.077 24.9412 112.463 25.8719C112.849 26.8026 113.047 27.8003 113.047 28.8078C113.047 29.8153 112.849 30.813 112.463 31.7437C112.077 32.6744 111.512 33.52 110.799 34.232L106.314 38.6787C107.513 41.0363 108.526 43.4844 109.342 46.0005H115.667C117.701 46.0005 119.651 46.8082 121.088 48.246C122.526 49.6838 123.334 51.6339 123.334 53.6672V69.0007C123.334 71.0341 122.526 72.9841 121.088 74.4219C119.651 75.8597 117.701 76.6675 115.667 76.6675H109.342C108.555 79.1455 107.568 81.5557 106.39 83.8742L110.799 88.4359C111.512 89.148 112.077 89.9935 112.463 90.9243C112.849 91.855 113.047 92.8526 113.047 93.8602C113.047 94.8677 112.849 95.8653 112.463 96.7961C112.077 97.7268 111.512 98.5723 110.799 99.2844L99.9504 110.133C99.2384 110.846 98.3928 111.411 97.4621 111.797C96.5314 112.183 95.5337 112.381 94.5262 112.381C93.5187 112.381 92.521 112.183 91.5903 111.797C90.6595 111.411 89.814 110.846 89.102 110.133L84.6552 105.648C82.3348 106.842 79.9254 107.854 77.4485 108.676L77.3335 115.001C77.3335 117.035 76.5257 118.985 75.088 120.422C73.6502 121.86 71.7001 122.668 69.6667 122.668Z" fill="#000033"/>
<path d="M61.999 92.002C55.9337 92.002 50.0045 90.2034 44.9614 86.8336C39.9182 83.4639 35.9875 78.6744 33.6664 73.0707C31.3453 67.4671 30.738 61.301 31.9213 55.3521C33.1046 49.4033 36.0253 43.939 40.3142 39.6501C44.6031 35.3613 50.0674 32.4405 56.0162 31.2572C61.965 30.0739 68.1311 30.6813 73.7348 33.0024C79.3385 35.3235 84.128 39.2541 87.4977 44.2973C90.8674 49.3405 92.666 55.2696 92.666 61.335C92.666 69.4684 89.4351 77.2686 83.6839 83.0198C77.9327 88.771 70.1324 92.002 61.999 92.002ZM61.999 38.3347C57.45 38.3347 53.0032 39.6837 49.2208 42.211C45.4384 44.7383 42.4904 48.3304 40.7496 52.5332C39.0087 56.7359 38.5533 61.3605 39.4407 65.8221C40.3282 70.2837 42.5188 74.382 45.7354 77.5986C48.9521 80.8153 53.0503 83.0058 57.5119 83.8933C61.9735 84.7807 66.5981 84.3253 70.8008 82.5844C75.0036 80.8436 78.5957 77.8956 81.123 74.1132C83.6503 70.3309 84.9993 65.884 84.9993 61.335C84.9993 55.2349 82.5761 49.3847 78.2627 45.0713C73.9493 40.758 68.0991 38.3347 61.999 38.3347Z" fill="#05058C"/>
</g>
<defs>
<clipPath id="clip0_5651_28456">
<rect width="122.668" height="122.668" fill="white" transform="translate(0.666016)"/>
</clipPath>
</defs>
</svg>
