<svg width="124" height="123" viewBox="0 0 124 123" fill="none" xmlns="http://www.w3.org/2000/svg">
<g clip-path="url(#clip0_5651_28439)">
<rect width="122.668" height="122.668" transform="translate(0.666016)" fill="white"/>
<path d="M27.4994 107.335C26.7412 107.335 26.0001 107.11 25.3697 106.689C24.7393 106.267 24.248 105.669 23.9578 104.968C23.6677 104.268 23.5918 103.497 23.7397 102.753C23.8876 102.01 24.2527 101.327 24.7888 100.791C25.3249 100.255 26.0079 99.8895 26.7515 99.7416C27.4951 99.5937 28.2659 99.6696 28.9664 99.9598C29.6668 100.25 30.2655 100.741 30.6867 101.372C31.1079 102.002 31.3328 102.743 31.3328 103.501C31.3328 104.518 30.9289 105.493 30.21 106.212C29.4911 106.931 28.5161 107.335 27.4994 107.335Z" fill="#05058C"/>
<path d="M96.5013 61.3347C95.7432 61.3347 95.002 61.1099 94.3716 60.6887C93.7412 60.2675 93.2499 59.6688 92.9598 58.9683C92.6696 58.2679 92.5937 57.4971 92.7416 56.7535C92.8895 56.0099 93.2546 55.3268 93.7907 54.7907C94.3268 54.2546 95.0099 53.8895 95.7535 53.7416C96.4971 53.5937 97.2679 53.6696 97.9683 53.9598C98.6688 54.2499 99.2675 54.7412 99.6887 55.3716C100.11 56.002 100.335 56.7432 100.335 57.5013C100.335 58.518 99.9308 59.4931 99.212 60.2119C98.4931 60.9308 97.518 61.3347 96.5013 61.3347Z" fill="#05058C"/>
<path d="M88.8336 111.17H65.8334C64.8167 111.17 63.8417 110.766 63.1228 110.047C62.4039 109.328 62 108.353 62 107.336C62 106.32 62.4039 105.344 63.1228 104.626C63.8417 103.907 64.8167 103.503 65.8334 103.503H88.8336C89.8503 103.503 90.8253 103.099 91.5442 102.38C92.2631 101.661 92.667 100.686 92.667 99.6694V88.1693C92.667 87.1526 93.0709 86.1776 93.7898 85.4587C94.5087 84.7398 95.4837 84.3359 96.5004 84.3359C97.517 84.3359 98.4921 84.7398 99.211 85.4587C99.9299 86.1776 100.334 87.1526 100.334 88.1693V99.6694C100.334 102.719 99.1221 105.645 96.9654 107.801C94.8087 109.958 91.8836 111.17 88.8336 111.17Z" fill="#05058C"/>
<path d="M42.8331 46H12.1661C9.11612 46 6.19101 47.2116 4.03432 49.3683C1.87763 51.525 0.666016 54.4501 0.666016 57.5001L0.666016 111.167C0.666016 114.217 1.87763 117.142 4.03432 119.299C6.19101 121.456 9.11612 122.667 12.1661 122.667H42.8331C45.8832 122.667 48.8083 121.456 50.9649 119.299C53.1216 117.142 54.3333 114.217 54.3333 111.167V57.5001C54.3333 54.4501 53.1216 51.525 50.9649 49.3683C48.8083 47.2116 45.8832 46 42.8331 46ZM46.6665 111.167C46.6665 112.184 46.2626 113.159 45.5437 113.878C44.8248 114.597 43.8498 115.001 42.8331 115.001H12.1661C11.1495 115.001 10.1744 114.597 9.45553 113.878C8.73664 113.159 8.33276 112.184 8.33276 111.167V57.5001C8.33276 56.4834 8.73664 55.5084 9.45553 54.7895C10.1744 54.0706 11.1495 53.6667 12.1661 53.6667H15.9995C15.9995 54.6834 16.4034 55.6585 17.1223 56.3774C17.8412 57.0962 18.8162 57.5001 19.8329 57.5001H35.1664C36.1831 57.5001 37.1581 57.0962 37.877 56.3774C38.5959 55.6585 38.9998 54.6834 38.9998 53.6667H42.8331C43.8498 53.6667 44.8248 54.0706 45.5437 54.7895C46.2626 55.5084 46.6665 56.4834 46.6665 57.5001V111.167Z" fill="#05058C"/>
<path d="M119.5 34.5004C120.517 34.5004 121.492 34.0965 122.21 33.3776C122.929 32.6587 123.333 31.6837 123.333 30.667V11.5001C123.333 8.4501 122.122 5.525 119.965 3.36831C117.808 1.21162 114.883 0 111.833 0L81.1661 0C78.1161 0 75.191 1.21162 73.0343 3.36831C70.8776 5.525 69.666 8.4501 69.666 11.5001V65.1674C69.666 68.2174 70.8776 71.1425 73.0343 73.2992C75.191 75.4559 78.1161 76.6675 81.1661 76.6675H111.833C114.883 76.6675 117.808 75.4559 119.965 73.2992C122.122 71.1425 123.333 68.2174 123.333 65.1674V46.0005C123.333 44.9838 122.929 44.0088 122.21 43.2899C121.492 42.571 120.517 42.1671 119.5 42.1671C118.483 42.1671 117.508 42.571 116.789 43.2899C116.07 44.0088 115.667 44.9838 115.667 46.0005V65.1674C115.667 66.184 115.263 67.1591 114.544 67.878C113.825 68.5969 112.85 69.0007 111.833 69.0007H81.1661C80.1495 69.0007 79.1744 68.5969 78.4555 67.878C77.7366 67.1591 77.3328 66.184 77.3328 65.1674V11.5001C77.3328 10.4834 77.7366 9.50841 78.4555 8.78952C79.1744 8.07062 80.1495 7.66675 81.1661 7.66675H84.9995C84.9995 8.68342 85.4034 9.65846 86.1223 10.3774C86.8412 11.0963 87.8162 11.5001 88.8329 11.5001H104.166C105.183 11.5001 106.158 11.0963 106.877 10.3774C107.596 9.65846 108 8.68342 108 7.66675H111.833C112.85 7.66675 113.825 8.07062 114.544 8.78952C115.263 9.50841 115.667 10.4834 115.667 11.5001V30.667C115.667 31.6837 116.07 32.6587 116.789 33.3776C117.508 34.0965 118.483 34.5004 119.5 34.5004Z" fill="#000033"/>
</g>
<defs>
<clipPath id="clip0_5651_28439">
<rect width="122.668" height="122.668" fill="white" transform="translate(0.666016)"/>
</clipPath>
</defs>
</svg>
