<svg width="41" height="41" viewBox="0 0 41 41" fill="none" xmlns="http://www.w3.org/2000/svg">
<circle cx="20.5" cy="20.4902" r="20" fill="#4D4D70"/>
<g clip-path="url(#clip0_2175_5797)">
<path d="M26.5 30.4902C28.433 30.4902 30 28.9232 30 26.9902C30 25.0572 28.433 23.4902 26.5 23.4902C24.915 23.4902 23.576 24.5442 23.145 25.9902H17.5V23.9902H15.5V18.2322L17.743 15.9902H23.5V17.9902H29.5V11.9902H23.5V13.9902H17.743L14.5 10.7462L10.257 14.9902L13.5 18.2312V23.9902H11.5V29.9902H17.5V27.9902H23.145C23.575 29.4362 24.915 30.4902 26.5 30.4902ZM26.5 25.4902C27.328 25.4902 28 26.1622 28 26.9902C28 27.8182 27.328 28.4902 26.5 28.4902C25.672 28.4902 25 27.8182 25 26.9902C25 26.1622 25.672 25.4902 26.5 25.4902ZM13.5 25.9902H15.5V27.9902H13.5V25.9902ZM14.5 13.5762L15.914 14.9902L14.5 16.4042L13.086 14.9902L14.5 13.5762ZM25.5 13.9902H27.5V15.9902H25.5V13.9902Z" fill="white"/>
</g>
<defs>
<clipPath id="clip0_2175_5797">
<rect width="24" height="24" fill="white" transform="matrix(-1 0 0 1 32.5 8.99023)"/>
</clipPath>
</defs>
</svg>
