<svg width="41" height="40" viewBox="0 0 41 40" fill="none" xmlns="http://www.w3.org/2000/svg">
<g clip-path="url(#clip0_4142_14995)">
<path d="M16.5005 39.599C16.3363 39.5662 16.1803 39.5014 16.0412 39.4082C15.9021 39.3151 15.7827 39.1954 15.6898 39.0561C15.597 38.9169 15.5325 38.7606 15.5 38.5964C15.4675 38.4322 15.4677 38.2632 15.5005 38.099C15.5333 37.9349 15.5982 37.7788 15.6913 37.6397C15.7845 37.5006 15.9041 37.3812 16.0434 37.2884C16.1827 37.1955 16.3389 37.131 16.5031 37.0985C16.6673 37.066 16.8363 37.0662 17.0005 37.099C21.3172 37.9425 25.7932 37.1296 29.5376 34.822C33.282 32.5145 36.0202 28.8816 37.2072 24.6465C38.3941 20.4113 37.9428 15.8845 35.943 11.9671C33.9432 8.04971 30.5416 5.02897 26.4153 3.50617C22.289 1.98337 17.7406 2.07019 13.6754 3.74934C9.61026 5.42849 6.32644 8.57684 4.4776 12.5677C2.62877 16.5586 2.35051 21.0993 3.69821 25.2861C5.04592 29.4728 7.92075 32.9986 11.7505 35.1615C11.8933 35.2436 12.0185 35.353 12.1191 35.4835C12.2196 35.614 12.2935 35.763 12.3364 35.922C12.3794 36.081 12.3906 36.2469 12.3694 36.4103C12.3482 36.5736 12.2951 36.7312 12.213 36.874C12.1309 37.0169 12.0215 37.1421 11.891 37.2426C11.7605 37.3432 11.6115 37.417 11.4525 37.46C11.2935 37.5029 11.1276 37.5141 10.9642 37.4929C10.8009 37.4718 10.6433 37.4186 10.5005 37.3365C6.14344 34.8303 2.88983 30.7754 1.38723 25.9788C-0.115369 21.1822 0.243218 15.9957 2.39163 11.4516C4.54003 6.9074 8.32072 3.33882 12.9812 1.45605C17.6417 -0.426714 22.8403 -0.485593 27.5422 1.29113C32.2441 3.06786 36.1047 6.5499 38.3555 11.0442C40.6062 15.5386 41.0822 20.7156 39.6886 25.545C38.295 30.3744 35.1341 34.502 30.835 37.1062C26.5358 39.7105 21.4136 40.6005 16.488 39.599H16.5005Z" fill="#000033"/>
<path d="M31.5216 36.6693C31.3824 36.7622 31.2261 36.8267 31.0619 36.8592C30.8977 36.8917 30.7287 36.8915 30.5645 36.8587C30.4004 36.8258 30.2443 36.761 30.1052 36.6678C29.9661 36.5747 29.8467 36.455 29.7539 36.3158C29.661 36.1765 29.5965 36.0203 29.564 35.856C29.5315 35.6918 29.5317 35.5228 29.5645 35.3587C29.5974 35.1945 29.6622 35.0384 29.7554 34.8993C29.8485 34.7602 29.9681 34.6409 30.1074 34.548C33.7562 32.0921 36.3464 28.3522 37.3624 24.0728C38.3784 19.7935 37.7458 15.2884 35.5904 11.4544C33.435 7.62044 29.9149 4.73864 25.7309 3.38267C21.5468 2.0267 17.0055 2.29599 13.011 4.13695C9.01647 5.9779 5.86164 9.2555 4.17447 13.3174C2.48729 17.3792 2.39149 21.9274 3.90614 26.0567C5.42079 30.186 8.43481 33.5936 12.3483 35.6011C16.2617 37.6086 20.7876 38.0689 25.0251 36.8903C25.1841 36.8473 25.35 36.8361 25.5134 36.8573C25.6767 36.8785 25.8343 36.9316 25.9771 37.0137C26.1199 37.0958 26.2452 37.2052 26.3457 37.3357C26.4463 37.4661 26.5201 37.6151 26.5631 37.7742C26.606 37.9332 26.6172 38.0991 26.596 38.2625C26.5749 38.4258 26.5217 38.5834 26.4396 38.7262C26.3576 38.869 26.2482 38.9943 26.1177 39.0948C25.9872 39.1953 25.8382 39.2692 25.6792 39.3121C20.8261 40.6209 15.6582 40.0542 11.204 37.725C6.7498 35.3958 3.33594 31.4749 1.64189 26.7425C-0.052158 22.0102 0.0978178 16.8134 2.06197 12.1867C4.02612 7.55987 7.66042 3.8423 12.2415 1.77387C16.8226 -0.294575 22.0146 -0.562213 26.7841 1.02422C31.5537 2.61065 35.5509 5.93482 37.9804 10.3351C40.4099 14.7354 41.0934 19.8892 39.895 24.7706C38.6965 29.6521 35.7039 33.9033 31.5128 36.6782L31.5216 36.6693Z" fill="#000033"/>
<path d="M20.5 35C17.5333 35 14.6332 34.1203 12.1665 32.4721C9.69972 30.8238 7.77713 28.4812 6.64181 25.7403C5.5065 22.9994 5.20945 19.9834 5.78823 17.0737C6.36701 14.1639 7.79562 11.4912 9.89341 9.39341C11.9912 7.29562 14.6639 5.86701 17.5737 5.28823C20.4834 4.70945 23.4994 5.0065 26.2403 6.14181C28.9812 7.27713 31.3238 9.19972 32.9721 11.6665C34.6203 14.1332 35.5 17.0333 35.5 20C35.5 23.9783 33.9197 27.7936 31.1066 30.6066C28.2936 33.4197 24.4783 35 20.5 35ZM20.5 7.50001C18.0277 7.50001 15.611 8.23312 13.5554 9.60664C11.4998 10.9802 9.89761 12.9324 8.95151 15.2165C8.00542 17.5005 7.75788 20.0139 8.24019 22.4386C8.72251 24.8634 9.91302 27.0907 11.6612 28.8388C13.4093 30.587 15.6366 31.7775 18.0614 32.2598C20.4861 32.7421 22.9995 32.4946 25.2835 31.5485C27.5676 30.6024 29.5199 29.0002 30.8934 26.9446C32.2669 24.889 33 22.4723 33 20C33 16.6848 31.683 13.5054 29.3388 11.1612C26.9946 8.81697 23.8152 7.50001 20.5 7.50001V7.50001Z" fill="#000033"/>
<path d="M20.5 28.75C20.1685 28.75 19.8505 28.6183 19.6161 28.3839C19.3817 28.1495 19.25 27.8315 19.25 27.5V18.75C19.25 18.4185 19.3817 18.1005 19.6161 17.8661C19.8505 17.6317 20.1685 17.5 20.5 17.5C20.8315 17.5 21.1495 17.6317 21.3839 17.8661C21.6183 18.1005 21.75 18.4185 21.75 18.75V27.5C21.75 27.8315 21.6183 28.1495 21.3839 28.3839C21.1495 28.6183 20.8315 28.75 20.5 28.75Z" fill="#100FA8"/>
<path d="M20.5 13.75C20.2528 13.75 20.0111 13.6767 19.8055 13.5393C19.6 13.402 19.4398 13.2068 19.3452 12.9784C19.2505 12.7499 19.2258 12.4986 19.274 12.2561C19.3223 12.0137 19.4413 11.7909 19.6161 11.6161C19.7909 11.4413 20.0137 11.3223 20.2561 11.274C20.4986 11.2258 20.7499 11.2505 20.9784 11.3452C21.2068 11.4398 21.402 11.6 21.5393 11.8055C21.6767 12.0111 21.75 12.2528 21.75 12.5C21.75 12.8315 21.6183 13.1495 21.3839 13.3839C21.1495 13.6183 20.8315 13.75 20.5 13.75Z" fill="#100FA8"/>
</g>
<defs>
<clipPath id="clip0_4142_14995">
<rect width="40" height="40" fill="white" transform="translate(0.5)"/>
</clipPath>
</defs>
</svg>
