<svg width="41" height="40" viewBox="0 0 41 40" fill="none" xmlns="http://www.w3.org/2000/svg">
<g clip-path="url(#clip0_4142_15004)">
<path d="M9.25 35C9.00277 35 8.7611 34.9267 8.55554 34.7893C8.34998 34.652 8.18976 34.4568 8.09515 34.2284C8.00054 33.9999 7.97579 33.7486 8.02402 33.5061C8.07225 33.2637 8.1913 33.0409 8.36612 32.8661C8.54093 32.6913 8.76366 32.5723 9.00614 32.524C9.24861 32.4758 9.49995 32.5005 9.72836 32.5952C9.95676 32.6898 10.152 32.85 10.2893 33.0555C10.4267 33.2611 10.5 33.5028 10.5 33.75C10.5 34.0815 10.3683 34.3995 10.1339 34.6339C9.89946 34.8683 9.58152 35 9.25 35Z" fill="#100FA8"/>
<path d="M31.75 20C31.5028 20 31.2611 19.9267 31.0555 19.7893C30.85 19.652 30.6898 19.4568 30.5952 19.2284C30.5005 18.9999 30.4758 18.7486 30.524 18.5061C30.5723 18.2637 30.6913 18.0409 30.8661 17.8661C31.0409 17.6913 31.2637 17.5723 31.5061 17.524C31.7486 17.4758 31.9999 17.5005 32.2284 17.5952C32.4568 17.6898 32.652 17.85 32.7893 18.0555C32.9267 18.2611 33 18.5028 33 18.75C33 19.0815 32.8683 19.3995 32.6339 19.6339C32.3995 19.8683 32.0815 20 31.75 20Z" fill="#100FA8"/>
<path d="M29.25 36.25H21.75C21.4185 36.25 21.1005 36.1183 20.8661 35.8839C20.6317 35.6495 20.5 35.3315 20.5 35C20.5 34.6685 20.6317 34.3505 20.8661 34.1161C21.1005 33.8817 21.4185 33.75 21.75 33.75H29.25C29.5815 33.75 29.8995 33.6183 30.1339 33.3839C30.3683 33.1495 30.5 32.8315 30.5 32.5V28.75C30.5 28.4185 30.6317 28.1005 30.8661 27.8661C31.1005 27.6317 31.4185 27.5 31.75 27.5C32.0815 27.5 32.3995 27.6317 32.6339 27.8661C32.8683 28.1005 33 28.4185 33 28.75V32.5C33 33.4946 32.6049 34.4484 31.9017 35.1517C31.1984 35.8549 30.2446 36.25 29.25 36.25Z" fill="#100FA8"/>
<path d="M14.25 15H4.25C3.25544 15 2.30161 15.3951 1.59835 16.0983C0.895088 16.8016 0.5 17.7554 0.5 18.75L0.5 36.25C0.5 37.2446 0.895088 38.1984 1.59835 38.9017C2.30161 39.6049 3.25544 40 4.25 40H14.25C15.2446 40 16.1984 39.6049 16.9017 38.9017C17.6049 38.1984 18 37.2446 18 36.25V18.75C18 17.7554 17.6049 16.8016 16.9017 16.0983C16.1984 15.3951 15.2446 15 14.25 15ZM15.5 36.25C15.5 36.5815 15.3683 36.8995 15.1339 37.1339C14.8995 37.3683 14.5815 37.5 14.25 37.5H4.25C3.91848 37.5 3.60054 37.3683 3.36612 37.1339C3.1317 36.8995 3 36.5815 3 36.25V18.75C3 18.4185 3.1317 18.1005 3.36612 17.8661C3.60054 17.6317 3.91848 17.5 4.25 17.5H5.5C5.5 17.8315 5.6317 18.1495 5.86612 18.3839C6.10054 18.6183 6.41848 18.75 6.75 18.75H11.75C12.0815 18.75 12.3995 18.6183 12.6339 18.3839C12.8683 18.1495 13 17.8315 13 17.5H14.25C14.5815 17.5 14.8995 17.6317 15.1339 17.8661C15.3683 18.1005 15.5 18.4185 15.5 18.75V36.25Z" fill="#000033"/>
<path d="M39.25 11.25C39.5815 11.25 39.8995 11.1183 40.1339 10.8839C40.3683 10.6495 40.5 10.3315 40.5 10V3.75C40.5 2.75544 40.1049 1.80161 39.4017 1.09835C38.6984 0.395088 37.7446 0 36.75 0L26.75 0C25.7554 0 24.8016 0.395088 24.0983 1.09835C23.3951 1.80161 23 2.75544 23 3.75V21.25C23 22.2446 23.3951 23.1984 24.0983 23.9017C24.8016 24.6049 25.7554 25 26.75 25H36.75C37.7446 25 38.6984 24.6049 39.4017 23.9017C40.1049 23.1984 40.5 22.2446 40.5 21.25V15C40.5 14.6685 40.3683 14.3505 40.1339 14.1161C39.8995 13.8817 39.5815 13.75 39.25 13.75C38.9185 13.75 38.6005 13.8817 38.3661 14.1161C38.1317 14.3505 38 14.6685 38 15V21.25C38 21.5815 37.8683 21.8995 37.6339 22.1339C37.3995 22.3683 37.0815 22.5 36.75 22.5H26.75C26.4185 22.5 26.1005 22.3683 25.8661 22.1339C25.6317 21.8995 25.5 21.5815 25.5 21.25V3.75C25.5 3.41848 25.6317 3.10054 25.8661 2.86612C26.1005 2.6317 26.4185 2.5 26.75 2.5H28C28 2.83152 28.1317 3.14946 28.3661 3.38388C28.6005 3.6183 28.9185 3.75 29.25 3.75H34.25C34.5815 3.75 34.8995 3.6183 35.1339 3.38388C35.3683 3.14946 35.5 2.83152 35.5 2.5H36.75C37.0815 2.5 37.3995 2.6317 37.6339 2.86612C37.8683 3.10054 38 3.41848 38 3.75V10C38 10.3315 38.1317 10.6495 38.3661 10.8839C38.6005 11.1183 38.9185 11.25 39.25 11.25Z" fill="#000033"/>
</g>
<defs>
<clipPath id="clip0_4142_15004">
<rect width="40" height="40" fill="white" transform="translate(0.5)"/>
</clipPath>
</defs>
</svg>
