<svg width="41" height="40" viewBox="0 0 41 40" fill="none" xmlns="http://www.w3.org/2000/svg">
<g clip-path="url(#clip0_4142_14983)">
<path d="M39.25 18.75H36.75C36.447 14.8786 34.7676 11.2438 32.016 8.50365C29.2645 5.76354 25.6226 4.09937 21.75 3.8125V1.25C21.75 0.918479 21.6183 0.600537 21.3839 0.366117C21.1495 0.131696 20.8315 0 20.5 0C20.1685 0 19.8505 0.131696 19.6161 0.366117C19.3817 0.600537 19.25 0.918479 19.25 1.25V3.8125C15.3885 4.11361 11.7616 5.78407 9.02283 8.52283C6.28407 11.2616 4.61361 14.8885 4.3125 18.75H1.75C1.41848 18.75 1.10054 18.8817 0.866117 19.1161C0.631696 19.3505 0.5 19.6685 0.5 20C0.5 20.3315 0.631696 20.6495 0.866117 20.8839C1.10054 21.1183 1.41848 21.25 1.75 21.25H4.3125C4.63367 25.4642 6.58411 29.3875 9.75 32.1875C9.8717 32.3044 10.0158 32.3954 10.1736 32.4551C10.3314 32.5148 10.4997 32.542 10.6683 32.5349C10.8369 32.5278 11.0023 32.4867 11.1546 32.414C11.3069 32.3412 11.4428 32.2385 11.5543 32.1118C11.6658 31.9851 11.7504 31.8372 11.8032 31.6769C11.856 31.5166 11.8758 31.3473 11.8613 31.1792C11.8469 31.0111 11.7986 30.8476 11.7193 30.6987C11.64 30.5497 11.5314 30.4183 11.4 30.3125C8.7763 27.9832 7.13634 24.7435 6.8125 21.25H8C8.33152 21.25 8.64946 21.1183 8.88388 20.8839C9.1183 20.6495 9.25 20.3315 9.25 20C9.25 19.6685 9.1183 19.3505 8.88388 19.1161C8.64946 18.8817 8.33152 18.75 8 18.75H6.75C7.04551 15.5406 8.45905 12.537 10.7438 10.2637C13.0285 7.99039 16.0391 6.59192 19.25 6.3125V7.5C19.25 7.83152 19.3817 8.14946 19.6161 8.38388C19.8505 8.6183 20.1685 8.75 20.5 8.75C20.8315 8.75 21.1495 8.6183 21.3839 8.38388C21.6183 8.14946 21.75 7.83152 21.75 7.5V6.25C24.9706 6.53161 27.989 7.93902 30.275 10.225C32.561 12.511 33.9684 15.5294 34.25 18.75H33C32.6685 18.75 32.3505 18.8817 32.1161 19.1161C31.8817 19.3505 31.75 19.6685 31.75 20C31.75 20.3315 31.8817 20.6495 32.1161 20.8839C32.3505 21.1183 32.6685 21.25 33 21.25H34.25C33.9684 24.4706 32.561 27.489 30.275 29.775C27.989 32.061 24.9706 33.4684 21.75 33.75V32.5C21.75 32.1685 21.6183 31.8505 21.3839 31.6161C21.1495 31.3817 20.8315 31.25 20.5 31.25C20.1685 31.25 19.8505 31.3817 19.6161 31.6161C19.3817 31.8505 19.25 32.1685 19.25 32.5V33.75C18.1109 33.653 16.9891 33.4094 15.9125 33.025C15.5992 32.9156 15.2553 32.9351 14.9564 33.0793C14.6575 33.2235 14.4282 33.4805 14.3188 33.7937C14.2093 34.107 14.2289 34.451 14.373 34.7498C14.5172 35.0487 14.7742 35.2781 15.0875 35.3875C16.4312 35.856 17.8307 36.146 19.25 36.25V38.75C19.25 39.0815 19.3817 39.3995 19.6161 39.6339C19.8505 39.8683 20.1685 40 20.5 40C20.8315 40 21.1495 39.8683 21.3839 39.6339C21.6183 39.3995 21.75 39.0815 21.75 38.75V36.25C25.6325 35.9612 29.2823 34.2882 32.0352 31.5352C34.7882 28.7823 36.4612 25.1325 36.75 21.25H39.25C39.5815 21.25 39.8995 21.1183 40.1339 20.8839C40.3683 20.6495 40.5 20.3315 40.5 20C40.5 19.6685 40.3683 19.3505 40.1339 19.1161C39.8995 18.8817 39.5815 18.75 39.25 18.75Z" fill="#000033"/>
<path d="M1.75 18.75H4.25C4.55303 14.8786 6.2324 11.2438 8.98397 8.50365C11.7355 5.76354 15.3774 4.09937 19.25 3.8125V1.25C19.25 0.918479 19.3817 0.600537 19.6161 0.366117C19.8505 0.131696 20.1685 0 20.5 0C20.8315 0 21.1495 0.131696 21.3839 0.366117C21.6183 0.600537 21.75 0.918479 21.75 1.25V3.8125C25.6115 4.11361 29.2384 5.78407 31.9772 8.52283C34.7159 11.2616 36.3864 14.8885 36.6875 18.75H39.25C39.5815 18.75 39.8995 18.8817 40.1339 19.1161C40.3683 19.3505 40.5 19.6685 40.5 20C40.5 20.3315 40.3683 20.6495 40.1339 20.8839C39.8995 21.1183 39.5815 21.25 39.25 21.25H36.6875C36.3663 25.4642 34.4159 29.3875 31.25 32.1875C31.1283 32.3044 30.9842 32.3954 30.8264 32.4551C30.6686 32.5148 30.5003 32.542 30.3317 32.5349C30.1631 32.5278 29.9977 32.4867 29.8454 32.414C29.6931 32.3412 29.5572 32.2385 29.4457 32.1118C29.3342 31.9851 29.2496 31.8372 29.1968 31.6769C29.144 31.5166 29.1242 31.3473 29.1387 31.1792C29.1531 31.0111 29.2014 30.8476 29.2807 30.6987C29.36 30.5497 29.4686 30.4183 29.6 30.3125C32.2237 27.9832 33.8637 24.7435 34.1875 21.25H33C32.6685 21.25 32.3505 21.1183 32.1161 20.8839C31.8817 20.6495 31.75 20.3315 31.75 20C31.75 19.6685 31.8817 19.3505 32.1161 19.1161C32.3505 18.8817 32.6685 18.75 33 18.75H34.25C33.9545 15.5406 32.5409 12.537 30.2562 10.2637C27.9715 7.99039 24.9609 6.59192 21.75 6.3125V7.5C21.75 7.83152 21.6183 8.14946 21.3839 8.38388C21.1495 8.6183 20.8315 8.75 20.5 8.75C20.1685 8.75 19.8505 8.6183 19.6161 8.38388C19.3817 8.14946 19.25 7.83152 19.25 7.5V6.25C16.0294 6.53161 13.011 7.93902 10.725 10.225C8.43902 12.511 7.03161 15.5294 6.75 18.75H8C8.33152 18.75 8.64946 18.8817 8.88389 19.1161C9.11831 19.3505 9.25 19.6685 9.25 20C9.25 20.3315 9.11831 20.6495 8.88389 20.8839C8.64946 21.1183 8.33152 21.25 8 21.25H6.75C7.03161 24.4706 8.43902 27.489 10.725 29.775C13.011 32.061 16.0294 33.4684 19.25 33.75V32.5C19.25 32.1685 19.3817 31.8505 19.6161 31.6161C19.8505 31.3817 20.1685 31.25 20.5 31.25C20.8315 31.25 21.1495 31.3817 21.3839 31.6161C21.6183 31.8505 21.75 32.1685 21.75 32.5V33.75C22.8891 33.653 24.0109 33.4094 25.0875 33.025C25.4008 32.9156 25.7447 32.9351 26.0436 33.0793C26.3425 33.2235 26.5718 33.4805 26.6812 33.7937C26.7907 34.107 26.7711 34.451 26.627 34.7498C26.4828 35.0487 26.2258 35.2781 25.9125 35.3875C24.5688 35.856 23.1693 36.146 21.75 36.25V38.75C21.75 39.0815 21.6183 39.3995 21.3839 39.6339C21.1495 39.8683 20.8315 40 20.5 40C20.1685 40 19.8505 39.8683 19.6161 39.6339C19.3817 39.3995 19.25 39.0815 19.25 38.75V36.25C15.3675 35.9612 11.7177 34.2882 8.96476 31.5352C6.21183 28.7823 4.53876 25.1325 4.25 21.25H1.75C1.41848 21.25 1.10054 21.1183 0.866117 20.8839C0.631696 20.6495 0.500001 20.3315 0.500001 20C0.500001 19.6685 0.631696 19.3505 0.866117 19.1161C1.10054 18.8817 1.41848 18.75 1.75 18.75Z" fill="#000033"/>
<path d="M1.75 8.75C2.08152 8.75 2.39946 8.6183 2.63388 8.38388C2.8683 8.14946 3 7.83152 3 7.5V3.75C3 3.41848 3.1317 3.10054 3.36612 2.86612C3.60054 2.6317 3.91848 2.5 4.25 2.5H8C8.33152 2.5 8.64946 2.3683 8.88388 2.13388C9.1183 1.89946 9.25 1.58152 9.25 1.25C9.25 0.918479 9.1183 0.600537 8.88388 0.366117C8.64946 0.131696 8.33152 0 8 0L4.25 0C3.25544 0 2.30161 0.395088 1.59835 1.09835C0.895088 1.80161 0.5 2.75544 0.5 3.75L0.5 7.5C0.5 7.83152 0.631696 8.14946 0.866117 8.38388C1.10054 8.6183 1.41848 8.75 1.75 8.75Z" fill="#000033"/>
<path d="M36.75 0H33C32.6685 0 32.3505 0.131696 32.1161 0.366117C31.8817 0.600537 31.75 0.918479 31.75 1.25C31.75 1.58152 31.8817 1.89946 32.1161 2.13388C32.3505 2.3683 32.6685 2.5 33 2.5H36.75C37.0815 2.5 37.3995 2.6317 37.6339 2.86612C37.8683 3.10054 38 3.41848 38 3.75V7.5C38 7.83152 38.1317 8.14946 38.3661 8.38388C38.6005 8.6183 38.9185 8.75 39.25 8.75C39.5815 8.75 39.8995 8.6183 40.1339 8.38388C40.3683 8.14946 40.5 7.83152 40.5 7.5V3.75C40.5 2.75544 40.1049 1.80161 39.4017 1.09835C38.6984 0.395088 37.7446 0 36.75 0V0Z" fill="#000033"/>
<path d="M39.25 31.25C38.9185 31.25 38.6005 31.3817 38.3661 31.6161C38.1317 31.8505 38 32.1685 38 32.5V36.25C38 36.5815 37.8683 36.8995 37.6339 37.1339C37.3995 37.3683 37.0815 37.5 36.75 37.5H33C32.6685 37.5 32.3505 37.6317 32.1161 37.8661C31.8817 38.1005 31.75 38.4185 31.75 38.75C31.75 39.0815 31.8817 39.3995 32.1161 39.6339C32.3505 39.8683 32.6685 40 33 40H36.75C37.7446 40 38.6984 39.6049 39.4017 38.9017C40.1049 38.1984 40.5 37.2446 40.5 36.25V32.5C40.5 32.1685 40.3683 31.8505 40.1339 31.6161C39.8995 31.3817 39.5815 31.25 39.25 31.25Z" fill="#000033"/>
<path d="M8 37.5H4.25C3.91848 37.5 3.60054 37.3683 3.36612 37.1339C3.1317 36.8995 3 36.5815 3 36.25V32.5C3 32.1685 2.8683 31.8505 2.63388 31.6161C2.39946 31.3817 2.08152 31.25 1.75 31.25C1.41848 31.25 1.10054 31.3817 0.866117 31.6161C0.631696 31.8505 0.5 32.1685 0.5 32.5L0.5 36.25C0.5 37.2446 0.895088 38.1984 1.59835 38.9017C2.30161 39.6049 3.25544 40 4.25 40H8C8.33152 40 8.64946 39.8683 8.88388 39.6339C9.1183 39.3995 9.25 39.0815 9.25 38.75C9.25 38.4185 9.1183 38.1005 8.88388 37.8661C8.64946 37.6317 8.33152 37.5 8 37.5Z" fill="#000033"/>
<path d="M26.75 11.25C26.4185 11.25 26.1005 11.3817 25.8661 11.6161C25.6317 11.8505 25.5 12.1685 25.5 12.5V12.975L18.95 16.25H15.5C14.837 16.25 14.2011 16.5134 13.7322 16.9822C13.2634 17.4511 13 18.087 13 18.75V21.25C13.0014 21.7421 13.1481 22.2229 13.4216 22.6321C13.6951 23.0412 14.0833 23.3605 14.5375 23.55L15.5625 26.65C15.6686 26.9649 15.8954 27.2248 16.1932 27.3725C16.4909 27.5202 16.8351 27.5436 17.15 27.4375C17.4649 27.3314 17.7248 27.1046 17.8725 26.8068C18.0202 26.5091 18.0436 26.1649 17.9375 25.85L17.2375 23.75H18.95L25.5 27.025V27.5C25.5 27.8315 25.6317 28.1495 25.8661 28.3839C26.1005 28.6183 26.4185 28.75 26.75 28.75C27.0815 28.75 27.3995 28.6183 27.6339 28.3839C27.8683 28.1495 28 27.8315 28 27.5V12.5C28 12.1685 27.8683 11.8505 27.6339 11.6161C27.3995 11.3817 27.0815 11.25 26.75 11.25ZM15.5 18.75H18V21.25H15.5V18.75ZM20.5 21.725V18.275L25.5 15.775V24.225L20.5 21.725Z" fill="#100FA8"/>
</g>
<defs>
<clipPath id="clip0_4142_14983">
<rect width="40" height="40" fill="white" transform="translate(0.5)"/>
</clipPath>
</defs>
</svg>
