<svg width="41" height="40" viewBox="0 0 41 40" fill="none" xmlns="http://www.w3.org/2000/svg">
<g clip-path="url(#clip0_4154_15063)">
<path d="M11.75 40H9.25C8.25544 40 7.30161 39.6049 6.59835 38.9017C5.89509 38.1984 5.5 37.2446 5.5 36.25V26.25C5.5 25.2554 5.89509 24.3016 6.59835 23.5983C7.30161 22.8951 8.25544 22.5 9.25 22.5H11.75C12.7446 22.5 13.6984 22.8951 14.4017 23.5983C15.1049 24.3016 15.5 25.2554 15.5 26.25V36.25C15.5 37.2446 15.1049 38.1984 14.4017 38.9017C13.6984 39.6049 12.7446 40 11.75 40ZM9.25 25C8.91848 25 8.60054 25.1317 8.36612 25.3661C8.1317 25.6005 8 25.9185 8 26.25V36.25C8 36.5815 8.1317 36.8995 8.36612 37.1339C8.60054 37.3683 8.91848 37.5 9.25 37.5H11.75C12.0815 37.5 12.3995 37.3683 12.6339 37.1339C12.8683 36.8995 13 36.5815 13 36.25V26.25C13 25.9185 12.8683 25.6005 12.6339 25.3661C12.3995 25.1317 12.0815 25 11.75 25H9.25Z" fill="#000033"/>
<path d="M24.25 40H21.75C20.7554 40 19.8016 39.6049 19.0983 38.9017C18.3951 38.1984 18 37.2446 18 36.25V21.25C18 20.2554 18.3951 19.3016 19.0983 18.5983C19.8016 17.8951 20.7554 17.5 21.75 17.5H24.25C25.2446 17.5 26.1984 17.8951 26.9017 18.5983C27.6049 19.3016 28 20.2554 28 21.25V36.25C28 37.2446 27.6049 38.1984 26.9017 38.9017C26.1984 39.6049 25.2446 40 24.25 40ZM21.75 20C21.4185 20 21.1005 20.1317 20.8661 20.3661C20.6317 20.6005 20.5 20.9185 20.5 21.25V36.25C20.5 36.5815 20.6317 36.8995 20.8661 37.1339C21.1005 37.3683 21.4185 37.5 21.75 37.5H24.25C24.5815 37.5 24.8995 37.3683 25.1339 37.1339C25.3683 36.8995 25.5 36.5815 25.5 36.25V21.25C25.5 20.9185 25.3683 20.6005 25.1339 20.3661C24.8995 20.1317 24.5815 20 24.25 20H21.75Z" fill="#000033"/>
<path d="M36.75 40H34.25C33.2554 40 32.3016 39.6049 31.5983 38.9016C30.8951 38.1984 30.5 37.2446 30.5 36.25V13.75C30.5 12.7554 30.8951 11.8016 31.5983 11.0983C32.3016 10.3951 33.2554 10 34.25 10H36.75C37.7446 10 38.6984 10.3951 39.4017 11.0983C40.1049 11.8016 40.5 12.7554 40.5 13.75V33.3333C40.5 33.6649 40.3683 33.9828 40.1339 34.2172C39.8995 34.4516 39.5815 34.5833 39.25 34.5833C38.9185 34.5833 38.6005 34.4516 38.3661 34.2172C38.1317 33.9828 38 33.6649 38 33.3333V13.75C38 13.4185 37.8683 13.1005 37.6339 12.8661C37.3995 12.6317 37.0815 12.5 36.75 12.5H34.25C33.9185 12.5 33.6005 12.6317 33.3661 12.8661C33.1317 13.1005 33 13.4185 33 13.75V36.25C33 36.5815 33.1317 36.8995 33.3661 37.1339C33.6005 37.3683 33.9185 37.5 34.25 37.5H36.75C37.0815 37.5 37.3995 37.3683 37.6339 37.1339C37.8683 36.8995 38 36.5815 38 36.25V32.5C38 32.1685 38.1317 31.8505 38.3661 31.6161C38.6005 31.3817 38.9185 31.25 39.25 31.25C39.5815 31.25 39.8995 31.3817 40.1339 31.6161C40.3683 31.8505 40.5 32.1685 40.5 32.5V36.25C40.5 37.2446 40.1049 38.1984 39.4017 38.9016C38.6984 39.6049 37.7446 40 36.75 40Z" fill="#000033"/>
<path d="M14.25 0C13.9185 0 13.6005 0.131696 13.3661 0.366117C13.1317 0.600537 13 0.918479 13 1.25V1.725L6.45 5H3C2.33696 5 1.70107 5.26339 1.23223 5.73223C0.763392 6.20107 0.5 6.83696 0.5 7.5L0.5 10C0.501436 10.4921 0.648097 10.9729 0.921603 11.3821C1.19511 11.7912 1.58329 12.1105 2.0375 12.3L3.0625 15.4C3.16859 15.7232 3.39873 15.9911 3.70231 16.1446C4.00588 16.2982 4.35802 16.3248 4.68125 16.2188C5.00448 16.1127 5.27233 15.8825 5.42588 15.5789C5.57942 15.2754 5.60609 14.9232 5.5 14.6L4.7375 12.5H6.45L13 15.775V16.25C13 16.5815 13.1317 16.8995 13.3661 17.1339C13.6005 17.3683 13.9185 17.5 14.25 17.5C14.5815 17.5 14.8995 17.3683 15.1339 17.1339C15.3683 16.8995 15.5 16.5815 15.5 16.25V1.25C15.5 0.918479 15.3683 0.600537 15.1339 0.366117C14.8995 0.131696 14.5815 0 14.25 0V0ZM3 7.5H5.5V10H3V7.5ZM8 10.475V7.025L13 4.525V12.975L8 10.475Z" fill="#100FA8"/>
<path d="M21.75 7.5H19.25C18.9185 7.5 18.6005 7.6317 18.3661 7.86612C18.1317 8.10054 18 8.41848 18 8.75C18 9.08152 18.1317 9.39946 18.3661 9.63388C18.6005 9.8683 18.9185 10 19.25 10H21.75C22.0815 10 22.3995 9.8683 22.6339 9.63388C22.8683 9.39946 23 9.08152 23 8.75C23 8.41848 22.8683 8.10054 22.6339 7.86612C22.3995 7.6317 22.0815 7.5 21.75 7.5Z" fill="#100FA8"/>
<path d="M19.2504 5.00121C19.9129 5.00121 20.0879 4.67621 21.3879 3.38871C21.6233 3.15333 21.7555 2.83409 21.7555 2.50121C21.7555 2.16833 21.6233 1.84909 21.3879 1.61371C21.1526 1.37833 20.8333 1.24609 20.5004 1.24609C20.1676 1.24609 19.8483 1.37833 19.6129 1.61371L18.3629 2.86371C18.1866 3.03855 18.0664 3.26192 18.0176 3.50536C17.9687 3.74879 17.9935 4.00126 18.0887 4.23056C18.1839 4.45987 18.3453 4.65562 18.5522 4.79287C18.7591 4.93012 19.0022 5.00265 19.2504 5.00121Z" fill="#100FA8"/>
<path d="M20.1377 12.8637C19.9024 12.6283 19.5831 12.4961 19.2502 12.4961C18.9174 12.4961 18.5981 12.6283 18.3627 12.8637C18.1274 13.0991 17.9951 13.4183 17.9951 13.7512C17.9951 14.0841 18.1274 14.4033 18.3627 14.6387C19.6877 15.9637 19.8502 16.2512 20.5002 16.2512C20.7485 16.2527 20.9916 16.1801 21.1985 16.0429C21.4054 15.9056 21.5667 15.7099 21.6619 15.4806C21.7572 15.2513 21.7819 14.9988 21.7331 14.7554C21.6842 14.5119 21.564 14.2885 21.3877 14.1137L20.1377 12.8637Z" fill="#100FA8"/>
</g>
<defs>
<clipPath id="clip0_4154_15063">
<rect width="40" height="40" fill="white" transform="translate(0.5)"/>
</clipPath>
</defs>
</svg>
