<svg width="41" height="41" viewBox="0 0 41 41" fill="none" xmlns="http://www.w3.org/2000/svg">
<rect x="0.5" y="0.5" width="40" height="40" rx="20" fill="#F4F2FA"/>
<g clip-path="url(#clip0_5205_28354)">
<path d="M20.5 30.5C26.023 30.5 30.5 26.023 30.5 20.5C30.5 14.977 26.023 10.5 20.5 10.5C14.977 10.5 10.5 14.977 10.5 20.5C10.5 26.023 14.977 30.5 20.5 30.5ZM25.5 21.5C25.5 22.8261 24.9732 24.0979 24.0355 25.0355C23.0979 25.9732 21.8261 26.5 20.5 26.5C19.1739 26.5 17.9021 25.9732 16.9645 25.0355C16.0268 24.0979 15.5 22.8261 15.5 21.5H17.5C17.5 22.2956 17.8161 23.0587 18.3787 23.6213C18.9413 24.1839 19.7044 24.5 20.5 24.5C21.2956 24.5 22.0587 24.1839 22.6213 23.6213C23.1839 23.0587 23.5 22.2956 23.5 21.5H25.5ZM24.5 19.5C24.1022 19.5 23.7206 19.342 23.4393 19.0607C23.158 18.7794 23 18.3978 23 18C23 17.6022 23.158 17.2206 23.4393 16.9393C23.7206 16.658 24.1022 16.5 24.5 16.5C24.8978 16.5 25.2794 16.658 25.5607 16.9393C25.842 17.2206 26 17.6022 26 18C26 18.3978 25.842 18.7794 25.5607 19.0607C25.2794 19.342 24.8978 19.5 24.5 19.5ZM16.5 19.5C16.1022 19.5 15.7206 19.342 15.4393 19.0607C15.158 18.7794 15 18.3978 15 18C15 17.6022 15.158 17.2206 15.4393 16.9393C15.7206 16.658 16.1022 16.5 16.5 16.5C16.8978 16.5 17.2794 16.658 17.5607 16.9393C17.842 17.2206 18 17.6022 18 18C18 18.3978 17.842 18.7794 17.5607 19.0607C17.2794 19.342 16.8978 19.5 16.5 19.5Z" fill="#05058C"/>
</g>
<defs>
<clipPath id="clip0_5205_28354">
<rect width="24" height="24" fill="white" transform="matrix(-1 0 0 1 32.5 8.5)"/>
</clipPath>
</defs>
</svg>
