<svg width="41" height="40" viewBox="0 0 41 40" fill="none" xmlns="http://www.w3.org/2000/svg">
<g clip-path="url(#clip0_5205_28330)">
<rect width="40" height="40" transform="translate(0.5)" fill="white"/>
<path d="M24.25 8.33764C24.9015 7.62087 25.3308 6.73029 25.4857 5.77414C25.6405 4.81799 25.5144 3.83743 25.1225 2.95164C24.7306 2.06584 24.0898 1.31295 23.2781 0.784451C22.4664 0.255954 21.5186 -0.0253906 20.55 -0.0253906C19.5814 -0.0253906 18.6336 0.255954 17.8219 0.784451C17.0102 1.31295 16.3694 2.06584 15.9775 2.95164C15.5856 3.83743 15.4595 4.81799 15.6143 5.77414C15.7692 6.73029 16.1985 7.62087 16.85 8.33764C15.3342 9.03334 14.0488 10.1478 13.1453 11.5496C12.2417 12.9515 11.7576 14.5823 11.75 16.2501C11.75 16.5817 11.8817 16.8996 12.1161 17.134C12.3505 17.3684 12.6685 17.5001 13 17.5001H28C28.3315 17.5001 28.6495 17.3684 28.8839 17.134C29.1183 16.8996 29.25 16.5817 29.25 16.2501C29.2513 14.5932 28.7821 12.9699 27.8969 11.5691C27.0118 10.1684 25.7471 9.04778 24.25 8.33764ZM18 5.00014C18 4.50569 18.1466 4.02234 18.4213 3.61122C18.696 3.20009 19.0865 2.87966 19.5433 2.69044C20.0001 2.50123 20.5028 2.45172 20.9877 2.54818C21.4727 2.64464 21.9181 2.88275 22.2678 3.23238C22.6174 3.58201 22.8555 4.02746 22.952 4.51242C23.0484 4.99737 22.9989 5.50004 22.8097 5.95685C22.6205 6.41367 22.3 6.80411 21.8889 7.07882C21.4778 7.35352 20.9945 7.50014 20.5 7.50014C19.837 7.50014 19.2011 7.23675 18.7322 6.76791C18.2634 6.29907 18 5.66318 18 5.00014ZM14.375 15.0001C14.6619 13.5873 15.4284 12.317 16.5447 11.4047C17.6609 10.4923 19.0583 9.99388 20.5 9.99388C21.9417 9.99388 23.3391 10.4923 24.4553 11.4047C25.5716 12.317 26.3381 13.5873 26.625 15.0001H14.375Z" fill="#05058C"/>
<path d="M37.7 31.6625C37.9961 30.8099 38.0559 29.8931 37.8731 29.0093C37.6903 28.1256 37.2716 27.3077 36.6616 26.6426C36.0516 25.9775 35.2729 25.4899 34.4082 25.2315C33.5435 24.9731 32.6249 24.9536 31.75 25.175V22.5H33C33.3315 22.5 33.6495 22.3683 33.8839 22.1339C34.1183 21.8995 34.25 21.5815 34.25 21.25V16.25C34.25 15.9185 34.1183 15.6005 33.8839 15.3661C33.6495 15.1317 33.3315 15 33 15H8C7.66848 15 7.35054 15.1317 7.11612 15.3661C6.8817 15.6005 6.75 15.9185 6.75 16.25V21.25C6.75 21.5815 6.8817 21.8995 7.11612 22.1339C7.35054 22.3683 7.66848 22.5 8 22.5H9.25V25.175C8.37592 24.9564 7.45902 24.9781 6.59623 25.2377C5.73345 25.4973 4.95685 25.9852 4.34855 26.6499C3.74024 27.3146 3.32284 28.1312 3.14047 29.0136C2.9581 29.8959 3.01754 30.8112 3.3125 31.6625C2.43712 32.3634 1.73004 33.2516 1.24331 34.2618C0.756572 35.2721 0.502572 36.3786 0.5 37.5L0.5 38.75C0.5 39.0815 0.631696 39.3995 0.866117 39.6339C1.10054 39.8683 1.41848 40 1.75 40H39.25C39.5815 40 39.8995 39.8683 40.1339 39.6339C40.3683 39.3995 40.5 39.0815 40.5 38.75V37.5C40.5053 36.3786 40.256 35.2705 39.771 34.2594C39.286 33.2482 38.5779 32.3603 37.7 31.6625ZM35.5 30C35.5 30.4945 35.3534 30.9778 35.0787 31.3889C34.804 31.8 34.4135 32.1205 33.9567 32.3097C33.4999 32.4989 32.9972 32.5484 32.5123 32.452C32.0273 32.3555 31.5819 32.1174 31.2322 31.7678C30.8826 31.4181 30.6445 30.9727 30.548 30.4877C30.4516 30.0028 30.5011 29.5001 30.6903 29.0433C30.8795 28.5865 31.2 28.196 31.6111 27.9213C32.0222 27.6466 32.5056 27.5 33 27.5C33.663 27.5 34.2989 27.7634 34.7678 28.2322C35.2366 28.7011 35.5 29.337 35.5 30ZM9.25 17.5H31.75V20H9.25V17.5ZM29.25 22.5V26.725C28.6577 27.3839 28.2571 28.1924 28.0918 29.0628C27.9266 29.9333 28.0029 30.8324 28.3125 31.6625C27.7061 32.1489 27.1789 32.7266 26.75 33.375C26.3316 32.7185 25.803 32.1391 25.1875 31.6625C25.4649 30.9068 25.5557 30.0954 25.4523 29.2971C25.3489 28.4988 25.0543 27.7373 24.5934 27.0772C24.1326 26.4172 23.5193 25.8782 22.8055 25.506C22.0918 25.1339 21.2987 24.9395 20.4938 24.9395C19.6888 24.9395 18.8957 25.1339 18.182 25.506C17.4682 25.8782 16.8549 26.4172 16.3941 27.0772C15.9333 27.7373 15.6386 28.4988 15.5352 29.2971C15.4318 30.0954 15.5226 30.9068 15.8 31.6625C15.198 32.1499 14.6751 32.7276 14.25 33.375C13.8314 32.7186 13.3029 32.1393 12.6875 31.6625C12.9957 30.8322 13.0713 29.9334 12.9061 29.0632C12.7409 28.1931 12.3411 27.3846 11.75 26.725V22.5H29.25ZM18 30C18 29.5055 18.1466 29.0222 18.4213 28.6111C18.696 28.2 19.0865 27.8795 19.5433 27.6903C20.0001 27.5011 20.5028 27.4516 20.9877 27.548C21.4727 27.6445 21.9181 27.8826 22.2678 28.2322C22.6174 28.5819 22.8555 29.0273 22.952 29.5123C23.0484 29.9972 22.9989 30.4999 22.8097 30.9567C22.6205 31.4135 22.3001 31.804 21.8889 32.0787C21.4778 32.3534 20.9945 32.5 20.5 32.5C19.837 32.5 19.2011 32.2366 18.7322 31.7678C18.2634 31.2989 18 30.663 18 30ZM8 27.5C8.49445 27.5 8.9778 27.6466 9.38893 27.9213C9.80005 28.196 10.1205 28.5865 10.3097 29.0433C10.4989 29.5001 10.5484 30.0028 10.452 30.4877C10.3555 30.9727 10.1174 31.4181 9.76777 31.7678C9.41814 32.1174 8.97268 32.3555 8.48773 32.452C8.00277 32.5484 7.50011 32.4989 7.04329 32.3097C6.58648 32.1205 6.19603 31.8 5.92133 31.3889C5.64662 30.9778 5.5 30.4945 5.5 30C5.5 29.337 5.76339 28.7011 6.23223 28.2322C6.70107 27.7634 7.33696 27.5 8 27.5ZM4.725 33.75C5.62644 34.559 6.79499 35.0065 8.00625 35.0065C9.21751 35.0065 10.3861 34.559 11.2875 33.75C11.8269 34.2142 12.2594 34.7898 12.555 35.4372C12.8506 36.0846 13.0025 36.7883 13 37.5H3C3.00402 36.7882 3.15998 36.0854 3.45747 35.4387C3.75495 34.792 4.1871 34.2162 4.725 33.75ZM17.225 33.75C18.1264 34.559 19.295 35.0065 20.5063 35.0065C21.7175 35.0065 22.8861 34.559 23.7875 33.75C24.3231 34.2174 24.7529 34.7936 25.0482 35.4403C25.3435 36.0869 25.4975 36.7891 25.5 37.5H15.5C15.504 36.7882 15.66 36.0854 15.9575 35.4387C16.255 34.792 16.6871 34.2162 17.225 33.75ZM28 37.5C28.004 36.7882 28.16 36.0854 28.4575 35.4387C28.755 34.792 29.1871 34.2162 29.725 33.75C30.6252 34.5616 31.7942 35.0109 33.0063 35.0109C34.2183 35.0109 35.3873 34.5616 36.2875 33.75C36.8231 34.2174 37.2529 34.7936 37.5482 35.4403C37.8435 36.0869 37.9975 36.7891 38 37.5H28Z" fill="#000033"/>
</g>
<defs>
<clipPath id="clip0_5205_28330">
<rect width="40" height="40" fill="white" transform="translate(0.5)"/>
</clipPath>
</defs>
</svg>
