<svg width="40" height="40" viewBox="0 0 40 40" fill="none" xmlns="http://www.w3.org/2000/svg">
<g clip-path="url(#clip0_5205_28027)">
<rect width="40" height="40" fill="white"/>
<path d="M24.125 28.4005C25.0795 27.5619 25.7558 26.4524 26.0637 25.2197C26.3716 23.9871 26.2965 22.6899 25.8485 21.501C25.4004 20.3121 24.6006 19.288 23.5558 18.5651C22.5109 17.8423 21.2705 17.4551 20 17.4551C18.7295 17.4551 17.4891 17.8423 16.4442 18.5651C15.3994 19.288 14.5996 20.3121 14.1515 21.501C13.7035 22.6899 13.6284 23.9871 13.9363 25.2197C14.2442 26.4524 14.9205 27.5619 15.875 28.4005C14.1252 29.1928 12.6406 30.4724 11.5987 32.0862C10.5569 33.6999 10.0018 35.5796 10 37.5005V38.7505C10 39.082 10.1317 39.4 10.3661 39.6344C10.6005 39.8688 10.9185 40.0005 11.25 40.0005H15C15.3315 40.0005 15.6495 39.8688 15.8839 39.6344C16.1183 39.4 16.25 39.082 16.25 38.7505C16.25 38.419 16.1183 38.101 15.8839 37.8666C15.6495 37.6322 15.3315 37.5005 15 37.5005H12.5C12.5 35.5114 13.2902 33.6037 14.6967 32.1972C16.1032 30.7907 18.0109 30.0005 20 30.0005C21.9891 30.0005 23.8968 30.7907 25.3033 32.1972C26.7098 33.6037 27.5 35.5114 27.5 37.5005H20C19.6685 37.5005 19.3505 37.6322 19.1161 37.8666C18.8817 38.101 18.75 38.419 18.75 38.7505C18.75 39.082 18.8817 39.4 19.1161 39.6344C19.3505 39.8688 19.6685 40.0005 20 40.0005H28.75C29.0815 40.0005 29.3995 39.8688 29.6339 39.6344C29.8683 39.4 30 39.082 30 38.7505V37.5005C29.9982 35.5796 29.4431 33.6999 28.4013 32.0862C27.3594 30.4724 25.8748 29.1928 24.125 28.4005ZM16.25 23.7505C16.25 23.0088 16.4699 22.2838 16.882 21.6671C17.294 21.0504 17.8797 20.5698 18.5649 20.2859C19.2502 20.0021 20.0042 19.9278 20.7316 20.0725C21.459 20.2172 22.1272 20.5744 22.6517 21.0988C23.1761 21.6233 23.5333 22.2915 23.6779 23.0189C23.8226 23.7463 23.7484 24.5003 23.4645 25.1856C23.1807 25.8708 22.7001 26.4564 22.0834 26.8685C21.4667 27.2806 20.7417 27.5005 20 27.5005C19.0054 27.5005 18.0516 27.1054 17.3483 26.4021C16.6451 25.6989 16.25 24.7451 16.25 23.7505Z" fill="#000033"/>
<path d="M23.2508 12.4993C22.7883 12.4993 22.7008 12.3743 20.0008 10.9493L17.3383 12.3493C17.1323 12.457 16.9003 12.5052 16.6685 12.4884C16.4366 12.4716 16.214 12.3904 16.0258 12.2541C15.8375 12.1178 15.6909 11.9316 15.6026 11.7166C15.5143 11.5015 15.4877 11.2661 15.5258 11.0368L16.0258 8.07428L13.8758 5.96178C13.7109 5.79905 13.5945 5.59372 13.5396 5.36869C13.4846 5.14365 13.4933 4.90778 13.5646 4.68738C13.6359 4.46699 13.767 4.27074 13.9434 4.12054C14.1197 3.97034 14.3344 3.8721 14.5633 3.83678L17.5008 3.39928L18.8758 0.699278C18.9782 0.487939 19.138 0.309706 19.3369 0.184995C19.5359 0.0602846 19.766 -0.00585937 20.0008 -0.00585937C20.2356 -0.00585938 20.4657 0.0602846 20.6647 0.184995C20.8636 0.309706 21.0234 0.487939 21.1258 0.699278L22.5008 3.39928L25.4883 3.83678C25.7172 3.8721 25.9318 3.97034 26.1082 4.12054C26.2845 4.27074 26.4157 4.46699 26.487 4.68738C26.5583 4.90778 26.567 5.14365 26.512 5.36869C26.4571 5.59372 26.3407 5.79905 26.1758 5.96178L23.9758 8.07428L24.4758 11.0368C24.5067 11.2157 24.4982 11.3992 24.4509 11.5745C24.4037 11.7498 24.3188 11.9128 24.2023 12.0519C24.0857 12.1911 23.9402 12.3033 23.7758 12.3805C23.6115 12.4578 23.4324 12.4983 23.2508 12.4993ZM21.5883 8.96178C21.2508 6.99928 21.2508 7.28678 22.5758 5.93678C20.6758 5.66178 20.8883 5.86178 20.0008 4.07428C19.1133 5.86178 19.3383 5.66178 17.4258 5.93678C18.8008 7.27428 18.7508 6.99928 18.4133 8.96178C20.1258 8.06178 19.8383 8.04928 21.5883 8.96178Z" fill="#05058C"/>
<path d="M10.7508 21.2493C10.2883 21.2493 10.2008 21.1243 7.5008 19.6993L4.83829 21.0993C4.63734 21.2023 4.41224 21.2489 4.1869 21.2342C3.96157 21.2195 3.74443 21.1441 3.55854 21.0159C3.37265 20.8877 3.22495 20.7115 3.13115 20.5061C3.03735 20.3007 3.00094 20.0737 3.0258 19.8493L3.5258 16.8868L1.3758 14.7118C1.21094 14.5491 1.09454 14.3437 1.03959 14.1187C0.984636 13.8937 0.993296 13.6578 1.0646 13.4374C1.13591 13.217 1.26705 13.0207 1.4434 12.8705C1.61975 12.7203 1.83436 12.6221 2.0633 12.5868L5.0008 12.1493L6.3758 9.44928C6.47815 9.23794 6.63797 9.05971 6.83694 8.935C7.0359 8.81028 7.26597 8.74414 7.5008 8.74414C7.73562 8.74414 7.96569 8.81028 8.16466 8.935C8.36362 9.05971 8.52344 9.23794 8.6258 9.44928L10.0008 12.1493L12.9883 12.5868C13.2172 12.6221 13.4318 12.7203 13.6082 12.8705C13.7845 13.0207 13.9157 13.217 13.987 13.4374C14.0583 13.6578 14.067 13.8937 14.012 14.1187C13.9571 14.3437 13.8407 14.5491 13.6758 14.7118L11.4758 16.8243L11.9758 19.7868C12.0067 19.9657 11.9982 20.1492 11.9509 20.3245C11.9037 20.4998 11.8188 20.6628 11.7023 20.8019C11.5857 20.9411 11.4402 21.0533 11.2758 21.1305C11.1115 21.2078 10.9324 21.2483 10.7508 21.2493ZM9.08829 17.7118C8.7508 15.7493 8.7508 16.0368 10.0758 14.6868C8.1758 14.4118 8.3883 14.6118 7.5008 12.8243C6.6133 14.6118 6.8383 14.4118 4.9258 14.6868C6.3008 16.0243 6.2508 15.7493 5.9133 17.7118C7.6258 16.8118 7.3383 16.7993 9.08829 17.7118Z" fill="#05058C"/>
<path d="M35.7508 21.2493C35.2883 21.2493 35.2008 21.1243 32.5008 19.6993L29.8383 21.0993C29.6373 21.2023 29.4122 21.2489 29.1869 21.2342C28.9616 21.2195 28.7444 21.1441 28.5585 21.0159C28.3726 20.8877 28.225 20.7115 28.1312 20.5061C28.0374 20.3007 28.0009 20.0737 28.0258 19.8493L28.5258 16.8868L26.3758 14.7118C26.2109 14.5491 26.0945 14.3437 26.0396 14.1187C25.9846 13.8937 25.9933 13.6578 26.0646 13.4374C26.1359 13.217 26.267 13.0207 26.4434 12.8705C26.6197 12.7203 26.8344 12.6221 27.0633 12.5868L30.0008 12.1493L31.3758 9.44928C31.4782 9.23794 31.638 9.05971 31.8369 8.935C32.0359 8.81028 32.266 8.74414 32.5008 8.74414C32.7356 8.74414 32.9657 8.81028 33.1647 8.935C33.3636 9.05971 33.5234 9.23794 33.6258 9.44928L35.0008 12.1493L37.9883 12.5868C38.2172 12.6221 38.4318 12.7203 38.6082 12.8705C38.7845 13.0207 38.9157 13.217 38.987 13.4374C39.0583 13.6578 39.067 13.8937 39.012 14.1187C38.9571 14.3437 38.8407 14.5491 38.6758 14.7118L36.5258 16.8243L37.0258 19.7868C37.0575 19.9699 37.048 20.1578 36.9979 20.3368C36.9478 20.5158 36.8585 20.6814 36.7363 20.8214C36.6142 20.9615 36.4624 21.0726 36.2919 21.1467C36.1214 21.2207 35.9365 21.2557 35.7508 21.2493ZM34.0883 17.7118C33.7508 15.7493 33.6883 16.0368 35.0758 14.6868C33.1758 14.4118 33.3883 14.6118 32.5008 12.8243C31.6133 14.6118 31.8383 14.4118 29.9258 14.6868C31.3008 16.0243 31.2508 15.7493 30.9133 17.7118C32.6258 16.8118 32.3383 16.7993 34.0883 17.7118Z" fill="#05058C"/>
</g>
<defs>
<clipPath id="clip0_5205_28027">
<rect width="40" height="40" fill="white"/>
</clipPath>
</defs>
</svg>
