<svg width="41" height="40" viewBox="0 0 41 40" fill="none" xmlns="http://www.w3.org/2000/svg">
<g clip-path="url(#clip0_5205_28334)">
<rect width="40" height="40" transform="translate(0.5)" fill="white"/>
<path d="M37.25 28.837C37.7193 28.0798 37.9778 27.2108 37.9986 26.3202C38.0195 25.4295 37.802 24.5494 37.3686 23.771C36.9352 22.9926 36.3018 22.3441 35.5337 21.8926C34.7657 21.4412 33.8909 21.2031 33 21.2031C32.1091 21.2031 31.2343 21.4412 30.4663 21.8926C29.6982 22.3441 29.0647 22.9926 28.6314 23.771C28.198 24.5494 27.9805 25.4295 28.0014 26.3202C28.0222 27.2108 28.2807 28.0798 28.75 28.837C27.4842 29.7063 26.5191 30.9465 25.9875 32.387C25.6174 31.9851 25.1973 31.6322 24.7375 31.337C25.2068 30.5798 25.4653 29.7108 25.4861 28.8202C25.507 27.9295 25.2895 27.0494 24.8561 26.271C24.4227 25.4926 23.7893 24.8441 23.0212 24.3926C22.2532 23.9412 21.3784 23.7031 20.4875 23.7031C19.5966 23.7031 18.7218 23.9412 17.9538 24.3926C17.1857 24.8441 16.5522 25.4926 16.1189 26.271C15.6855 27.0494 15.468 27.9295 15.4889 28.8202C15.5097 29.7108 15.7682 30.5798 16.2375 31.337C15.7848 31.6371 15.3658 31.9849 14.9875 32.3745C14.4684 30.9376 13.5108 29.7001 12.25 28.837C12.7193 28.0798 12.9778 27.2108 12.9986 26.3202C13.0195 25.4295 12.802 24.5494 12.3686 23.771C11.9352 22.9926 11.3018 22.3441 10.5337 21.8926C9.76565 21.4412 8.89092 21.2031 8 21.2031C7.10908 21.2031 6.23435 21.4412 5.46629 21.8926C4.69823 22.3441 4.06475 22.9926 3.63139 23.771C3.19802 24.5494 2.98052 25.4295 3.00137 26.3202C3.02222 27.2108 3.28068 28.0798 3.75 28.837C2.75015 29.5247 1.93209 30.4447 1.36601 31.518C0.799943 32.5914 0.502769 33.7861 0.5 34.9995L0.5 36.2495C0.5 36.5811 0.631696 36.899 0.866116 37.1334C1.10054 37.3678 1.41848 37.4995 1.75 37.4995H4.25C4.58152 37.4995 4.89946 37.3678 5.13388 37.1334C5.3683 36.899 5.5 36.5811 5.5 36.2495C5.5 35.918 5.3683 35.6001 5.13388 35.3657C4.89946 35.1312 4.58152 34.9995 4.25 34.9995H3C3.00102 34.1009 3.24418 33.2192 3.70392 32.4471C4.16365 31.675 4.82296 31.0411 5.6125 30.612C6.33772 31.0264 7.1585 31.2443 7.99375 31.2443C8.82899 31.2443 9.64978 31.0264 10.375 30.612C11.174 31.0308 11.8419 31.6621 12.3051 32.4363C12.7683 33.2104 13.0087 34.0974 13 34.9995H9.25C8.91848 34.9995 8.60054 35.1312 8.36612 35.3657C8.1317 35.6001 8 35.918 8 36.2495C8 36.5811 8.1317 36.899 8.36612 37.1334C8.60054 37.3678 8.91848 37.4995 9.25 37.4995H13V38.7495C13 39.0811 13.1317 39.399 13.3661 39.6334C13.6005 39.8678 13.9185 39.9995 14.25 39.9995H26.75C27.0815 39.9995 27.3995 39.8678 27.6339 39.6334C27.8683 39.399 28 39.0811 28 38.7495V37.4995H39.25C39.5815 37.4995 39.8995 37.3678 40.1339 37.1334C40.3683 36.899 40.5 36.5811 40.5 36.2495V34.9995C40.5037 33.7849 40.2093 32.5878 39.6427 31.5134C39.076 30.439 38.2545 29.52 37.25 28.837ZM5.5 26.2495C5.5 25.7551 5.64662 25.2717 5.92133 24.8606C6.19603 24.4495 6.58648 24.1291 7.04329 23.9398C7.50011 23.7506 8.00277 23.7011 8.48772 23.7976C8.97268 23.894 9.41813 24.1321 9.76777 24.4818C10.1174 24.8314 10.3555 25.2769 10.452 25.7618C10.5484 26.2468 10.4989 26.7494 10.3097 27.2062C10.1205 27.6631 9.80005 28.0535 9.38892 28.3282C8.9778 28.6029 8.49445 28.7495 8 28.7495C7.33696 28.7495 6.70107 28.4861 6.23223 28.0173C5.76339 27.5485 5.5 26.9126 5.5 26.2495ZM20.5 26.2495C20.9945 26.2495 21.4778 26.3962 21.8889 26.6709C22.3 26.9456 22.6205 27.336 22.8097 27.7928C22.9989 28.2496 23.0484 28.7523 22.952 29.2373C22.8555 29.7222 22.6174 30.1677 22.2678 30.5173C21.9181 30.8669 21.4727 31.105 20.9877 31.2015C20.5028 31.298 20.0001 31.2485 19.5433 31.0592C19.0865 30.87 18.696 30.5496 18.4213 30.1385C18.1466 29.7273 18 29.244 18 28.7495C18 28.0865 18.2634 27.4506 18.7322 26.9818C19.2011 26.5129 19.837 26.2495 20.5 26.2495ZM15.5 37.4995C15.501 36.6009 15.7442 35.7192 16.2039 34.9471C16.6636 34.175 17.323 33.5411 18.1125 33.112C18.8377 33.5264 19.6585 33.7443 20.4937 33.7443C21.329 33.7443 22.1498 33.5264 22.875 33.112C23.674 33.5308 24.3419 34.1621 24.8051 34.9363C25.2683 35.7104 25.5087 36.5974 25.5 37.4995H15.5ZM33 23.7495C33.4944 23.7495 33.9778 23.8962 34.3889 24.1709C34.8 24.4456 35.1205 24.836 35.3097 25.2928C35.4989 25.7496 35.5484 26.2523 35.452 26.7373C35.3555 27.2222 35.1174 27.6677 34.7678 28.0173C34.4181 28.3669 33.9727 28.605 33.4877 28.7015C33.0028 28.798 32.5001 28.7485 32.0433 28.5592C31.5865 28.37 31.196 28.0496 30.9213 27.6385C30.6466 27.2273 30.5 26.744 30.5 26.2495C30.5 25.5865 30.7634 24.9506 31.2322 24.4818C31.7011 24.0129 32.337 23.7495 33 23.7495ZM28 34.9995C28.001 34.1009 28.2442 33.2192 28.7039 32.4471C29.1636 31.675 29.823 31.0411 30.6125 30.612C31.3377 31.0264 32.1585 31.2443 32.9937 31.2443C33.829 31.2443 34.6498 31.0264 35.375 30.612C36.174 31.0308 36.8419 31.6621 37.3051 32.4363C37.7683 33.2104 38.0087 34.0974 38 34.9995H28Z" fill="#000033"/>
<path d="M24.2504 21.2502C23.9189 21.2502 23.6009 21.1185 23.3665 20.884C23.1321 20.6496 23.0004 20.3317 23.0004 20.0002V11.2502C23.0004 10.9186 23.1321 10.6007 23.3665 10.3663C23.6009 10.1319 23.9189 10.0002 24.2504 10.0002H26.5004L20.5004 3.15016L14.5004 10.0002H16.7504C17.0819 10.0002 17.3998 10.1319 17.6343 10.3663C17.8687 10.6007 18.0004 10.9186 18.0004 11.2502V20.0002C18.0004 20.3317 17.8687 20.6496 17.6343 20.884C17.3998 21.1185 17.0819 21.2502 16.7504 21.2502C16.4189 21.2502 16.1009 21.1185 15.8665 20.884C15.6321 20.6496 15.5004 20.3317 15.5004 20.0002V12.5002H11.7504C11.5102 12.4999 11.2751 12.4303 11.0734 12.2999C10.8716 12.1695 10.7117 11.9837 10.6128 11.7648C10.5139 11.5459 10.4802 11.3031 10.5157 11.0655C10.5511 10.828 10.6543 10.6056 10.8129 10.4252L19.5629 0.425156C19.6802 0.292148 19.8244 0.185622 19.9861 0.112656C20.1477 0.0396896 20.323 0.00195313 20.5004 0.00195312C20.6777 0.00195313 20.853 0.0396896 21.0147 0.112656C21.1763 0.185622 21.3206 0.292148 21.4379 0.425156L30.1879 10.4252C30.3464 10.6056 30.4496 10.828 30.4851 11.0655C30.5206 11.3031 30.4868 11.5459 30.3879 11.7648C30.289 11.9837 30.1291 12.1695 29.9274 12.2999C29.7256 12.4303 29.4906 12.4999 29.2504 12.5002H25.5004V20.0002C25.5004 20.3317 25.3687 20.6496 25.1343 20.884C24.8998 21.1185 24.5819 21.2502 24.2504 21.2502Z" fill="#05058C"/>
</g>
<defs>
<clipPath id="clip0_5205_28334">
<rect width="40" height="40" fill="white" transform="translate(0.5)"/>
</clipPath>
</defs>
</svg>
