<svg width="40" height="40" viewBox="0 0 40 40" fill="none" xmlns="http://www.w3.org/2000/svg">
<g clip-path="url(#clip0_5205_28016)">
<rect width="40" height="40" fill="white"/>
<path d="M40 24.5993L37.5 17.2618C37.4625 14.5301 36.786 11.8451 35.5246 9.4218C34.2632 6.99847 32.4519 4.90414 30.2358 3.30645C28.0197 1.70877 25.4603 0.652129 22.7626 0.221116C20.0648 -0.209897 17.3036 -0.00330616 14.7 0.824349C14.5384 0.870478 14.3877 0.948732 14.257 1.05443C14.1263 1.16013 14.0183 1.29111 13.9394 1.43952C13.8604 1.58794 13.8123 1.75074 13.7977 1.9182C13.7832 2.08566 13.8026 2.25433 13.8547 2.41413C13.9068 2.57393 13.9907 2.72157 14.1012 2.84822C14.2117 2.97486 14.3466 3.07792 14.4979 3.15123C14.6492 3.22453 14.8137 3.26658 14.9816 3.27484C15.1494 3.28311 15.3173 3.25744 15.475 3.19935C17.7225 2.48824 20.1059 2.31683 22.432 2.69901C24.758 3.08119 26.9613 4.00622 28.8631 5.39906C30.7648 6.7919 32.3116 8.61335 33.3778 10.7157C34.4441 12.818 34.9998 15.1421 35 17.4993C35 17.7868 35.3625 18.7493 37.2625 24.4868L34.3125 26.4618C34.1406 26.5751 33.9992 26.729 33.9011 26.91C33.803 27.091 33.7511 27.2935 33.75 27.4993V32.4993H25C24.6685 32.4993 24.3505 32.631 24.1161 32.8655C23.8817 33.0999 23.75 33.4178 23.75 33.7493C23.75 34.0809 23.8817 34.3988 24.1161 34.6332C24.3505 34.8677 24.6685 34.9993 25 34.9993H26.25V36.2493C26.25 36.5809 26.1183 36.8988 25.8839 37.1332C25.6495 37.3676 25.3315 37.4993 25 37.4993H12.5C12.1685 37.4993 11.8505 37.3676 11.6161 37.1332C11.3817 36.8988 11.25 36.5809 11.25 36.2493V34.9993C11.25 34.6678 11.1183 34.3499 10.8839 34.1155C10.6495 33.881 10.3315 33.7493 10 33.7493C9.66848 33.7493 9.35054 33.881 9.11612 34.1155C8.8817 34.3499 8.75 34.6678 8.75 34.9993V36.2493C8.75 37.2439 9.14509 38.1977 9.84835 38.901C10.5516 39.6043 11.5054 39.9993 12.5 39.9993H25C25.9946 39.9993 26.9484 39.6043 27.6517 38.901C28.3549 38.1977 28.75 37.2439 28.75 36.2493V34.9993H35C35.3315 34.9993 35.6495 34.8677 35.8839 34.6332C36.1183 34.3988 36.25 34.0809 36.25 33.7493V28.1743L39.4375 26.0368C39.6787 25.8948 39.8652 25.6759 39.9672 25.4153C40.0691 25.1547 40.0807 24.8673 40 24.5993Z" fill="#000033"/>
<path d="M18.7502 2.84848C16.5288 0.912735 13.6366 -0.0742308 10.6952 0.0997159C7.75388 0.273663 4.99816 1.59464 3.02037 3.77872C1.04257 5.9628 0.000593647 8.83565 0.118376 11.7798C0.236158 14.7239 1.5043 17.5044 3.65024 19.5235C5.01961 20.8227 5.90202 22.5522 6.15024 24.4235C6.26586 25.0245 6.2995 25.6384 6.25024 26.2485C6.25024 27.5746 6.77703 28.8463 7.71471 29.784C8.65239 30.7217 9.92416 31.2485 11.2502 31.2485C12.5763 31.2485 13.8481 30.7217 14.7858 29.784C15.7235 28.8463 16.2502 27.5746 16.2502 26.2485C16.2042 25.643 16.2336 25.0342 16.3377 24.436C16.6645 22.4649 17.6361 20.658 19.1002 19.2985C20.2062 18.2221 21.0788 16.9297 21.6638 15.5016C22.2489 14.0735 22.5339 12.5403 22.501 10.9974C22.4682 9.45448 22.1183 7.93482 21.473 6.53292C20.8277 5.13102 19.9009 3.87688 18.7502 2.84848ZM11.2502 28.7485C10.5872 28.7485 9.95132 28.4851 9.48248 28.0163C9.01363 27.5474 8.75024 26.9115 8.75024 26.2485H13.7502C13.7502 26.9115 13.4868 27.5474 13.018 28.0163C12.5492 28.4851 11.9133 28.7485 11.2502 28.7485ZM17.3627 17.4985C15.5855 19.1664 14.3821 21.3544 13.9252 23.7485H12.5002V17.4985H13.7502C14.0818 17.4985 14.3997 17.3668 14.6341 17.1324C14.8685 16.8979 15.0002 16.58 15.0002 16.2485C15.0002 15.917 14.8685 15.599 14.6341 15.3646C14.3997 15.1302 14.0818 14.9985 13.7502 14.9985H8.75024C8.41872 14.9985 8.10078 15.1302 7.86636 15.3646C7.63194 15.599 7.50024 15.917 7.50024 16.2485C7.50024 16.58 7.63194 16.8979 7.86636 17.1324C8.10078 17.3668 8.41872 17.4985 8.75024 17.4985H10.0002V23.7485H8.57524C8.19843 21.4245 7.05951 19.2918 5.33774 17.686C4.04694 16.5025 3.14098 14.9588 2.73706 13.2548C2.33314 11.5507 2.44985 9.7647 3.07208 8.12771C3.69431 6.49072 4.79344 5.0781 6.22727 4.0726C7.66111 3.06711 9.36368 2.51499 11.1147 2.48769C12.8658 2.46039 14.5847 2.95915 16.0492 3.91946C17.5137 4.87976 18.6563 6.25742 19.3293 7.87422C20.0023 9.49101 20.1746 11.2725 19.824 12.9884C19.4734 14.7042 18.616 16.2753 17.3627 17.4985Z" fill="#05058C"/>
</g>
<defs>
<clipPath id="clip0_5205_28016">
<rect width="40" height="40" fill="white"/>
</clipPath>
</defs>
</svg>
