<svg width="41" height="41" viewBox="0 0 41 41" fill="none" xmlns="http://www.w3.org/2000/svg">
<rect x="0.5" y="0.5" width="40" height="40" rx="20" fill="#F4F2FA"/>
<g clip-path="url(#clip0_5205_28352)">
<path d="M21.5 22.562V28.5H19.5V22.562C15.554 23.054 12.5 26.42 12.5 30.5H28.5C28.5 28.5514 27.7888 26.6698 26.5 25.2083C25.2112 23.7467 23.4333 22.8058 21.5 22.562ZM20.5 21.5C23.815 21.5 26.5 18.815 26.5 15.5C26.5 12.185 23.815 9.5 20.5 9.5C17.185 9.5 14.5 12.185 14.5 15.5C14.5 18.815 17.185 21.5 20.5 21.5Z" fill="#05058C"/>
</g>
<defs>
<clipPath id="clip0_5205_28352">
<rect width="24" height="24" fill="white" transform="matrix(-1 0 0 1 32.5 8.5)"/>
</clipPath>
</defs>
</svg>
