<svg width="40" height="41" viewBox="0 0 40 41" fill="none" xmlns="http://www.w3.org/2000/svg">
<rect y="0.5" width="40" height="40" rx="20" fill="#F4F2FA"/>
<g clip-path="url(#clip0_5205_28054)">
<path d="M14.382 14.468C15.9757 13.1911 17.9578 12.4967 20 12.5C22.125 12.5 24.078 13.236 25.618 14.468L27.071 13.015L28.485 14.429L27.032 15.882C28.0897 17.2061 28.752 18.802 28.9428 20.486C29.1336 22.1699 28.845 23.8735 28.1103 25.4007C27.3756 26.9279 26.2246 28.2167 24.7898 29.1186C23.355 30.0205 21.6947 30.499 20 30.499C18.3053 30.499 16.645 30.0205 15.2102 29.1186C13.7754 28.2167 12.6244 26.9279 11.8897 25.4007C11.155 23.8735 10.8664 22.1699 11.0572 20.486C11.248 18.802 11.9103 17.2061 12.968 15.882L11.515 14.43L12.929 13.016L14.382 14.468ZM21 20.5V15.995L16 22.5H19V27L24 20.5H21ZM16 9.5H24V11.5H16V9.5Z" fill="#05058C"/>
</g>
<defs>
<clipPath id="clip0_5205_28054">
<rect width="24" height="24" fill="white" transform="translate(8 8.5)"/>
</clipPath>
</defs>
</svg>
