<svg width="41" height="40" viewBox="0 0 41 40" fill="none" xmlns="http://www.w3.org/2000/svg">
<g clip-path="url(#clip0_5205_28223)">
<rect width="40" height="40" transform="translate(0.5)" fill="white"/>
<path d="M24.625 28.4005C25.5795 27.5619 26.2558 26.4524 26.5637 25.2197C26.8716 23.9871 26.7965 22.6899 26.3485 21.501C25.9004 20.3121 25.1006 19.288 24.0558 18.5651C23.0109 17.8423 21.7705 17.4551 20.5 17.4551C19.2295 17.4551 17.9891 17.8423 16.9442 18.5651C15.8994 19.288 15.0996 20.3121 14.6515 21.501C14.2035 22.6899 14.1284 23.9871 14.4363 25.2197C14.7442 26.4524 15.4205 27.5619 16.375 28.4005C14.6252 29.1928 13.1406 30.4724 12.0987 32.0862C11.0569 33.6999 10.5018 35.5796 10.5 37.5005V38.7505C10.5 39.082 10.6317 39.4 10.8661 39.6344C11.1005 39.8688 11.4185 40.0005 11.75 40.0005H15.5C15.8315 40.0005 16.1495 39.8688 16.3839 39.6344C16.6183 39.4 16.75 39.082 16.75 38.7505C16.75 38.419 16.6183 38.101 16.3839 37.8666C16.1495 37.6322 15.8315 37.5005 15.5 37.5005H13C13 35.5114 13.7902 33.6037 15.1967 32.1972C16.6032 30.7907 18.5109 30.0005 20.5 30.0005C22.4891 30.0005 24.3968 30.7907 25.8033 32.1972C27.2098 33.6037 28 35.5114 28 37.5005H20.5C20.1685 37.5005 19.8505 37.6322 19.6161 37.8666C19.3817 38.101 19.25 38.419 19.25 38.7505C19.25 39.082 19.3817 39.4 19.6161 39.6344C19.8505 39.8688 20.1685 40.0005 20.5 40.0005H29.25C29.5815 40.0005 29.8995 39.8688 30.1339 39.6344C30.3683 39.4 30.5 39.082 30.5 38.7505V37.5005C30.4982 35.5796 29.9431 33.6999 28.9013 32.0862C27.8594 30.4724 26.3748 29.1928 24.625 28.4005ZM16.75 23.7505C16.75 23.0088 16.9699 22.2838 17.382 21.6671C17.794 21.0504 18.3797 20.5698 19.0649 20.2859C19.7502 20.0021 20.5042 19.9278 21.2316 20.0725C21.959 20.2172 22.6272 20.5744 23.1517 21.0988C23.6761 21.6233 24.0333 22.2915 24.1779 23.0189C24.3226 23.7463 24.2484 24.5003 23.9645 25.1856C23.6807 25.8708 23.2001 26.4564 22.5834 26.8685C21.9667 27.2806 21.2417 27.5005 20.5 27.5005C19.5054 27.5005 18.5516 27.1054 17.8483 26.4021C17.1451 25.6989 16.75 24.7451 16.75 23.7505Z" fill="#000033"/>
<path d="M23.7508 12.4993C23.2883 12.4993 23.2008 12.3743 20.5008 10.9493L17.8383 12.3493C17.6323 12.457 17.4003 12.5052 17.1685 12.4884C16.9366 12.4716 16.714 12.3904 16.5258 12.2541C16.3375 12.1178 16.1909 11.9316 16.1026 11.7166C16.0143 11.5015 15.9877 11.2661 16.0258 11.0368L16.5258 8.07428L14.3758 5.96178C14.2109 5.79905 14.0945 5.59372 14.0396 5.36869C13.9846 5.14365 13.9933 4.90778 14.0646 4.68738C14.1359 4.46699 14.267 4.27074 14.4434 4.12054C14.6197 3.97034 14.8344 3.8721 15.0633 3.83678L18.0008 3.39928L19.3758 0.699278C19.4782 0.487939 19.638 0.309706 19.8369 0.184995C20.0359 0.0602846 20.266 -0.00585937 20.5008 -0.00585937C20.7356 -0.00585938 20.9657 0.0602846 21.1647 0.184995C21.3636 0.309706 21.5234 0.487939 21.6258 0.699278L23.0008 3.39928L25.9883 3.83678C26.2172 3.8721 26.4318 3.97034 26.6082 4.12054C26.7845 4.27074 26.9157 4.46699 26.987 4.68738C27.0583 4.90778 27.067 5.14365 27.012 5.36869C26.9571 5.59372 26.8407 5.79905 26.6758 5.96178L24.4758 8.07428L24.9758 11.0368C25.0067 11.2157 24.9982 11.3992 24.9509 11.5745C24.9037 11.7498 24.8188 11.9128 24.7023 12.0519C24.5857 12.1911 24.4402 12.3033 24.2758 12.3805C24.1115 12.4578 23.9324 12.4983 23.7508 12.4993ZM22.0883 8.96178C21.7508 6.99928 21.7508 7.28678 23.0758 5.93678C21.1758 5.66178 21.3883 5.86178 20.5008 4.07428C19.6133 5.86178 19.8383 5.66178 17.9258 5.93678C19.3008 7.27428 19.2508 6.99928 18.9133 8.96178C20.6258 8.06178 20.3383 8.04928 22.0883 8.96178Z" fill="#05058C"/>
<path d="M11.2508 21.2493C10.7883 21.2493 10.7008 21.1243 8.0008 19.6993L5.33829 21.0993C5.13734 21.2023 4.91224 21.2489 4.6869 21.2342C4.46157 21.2195 4.24443 21.1441 4.05854 21.0159C3.87265 20.8877 3.72495 20.7115 3.63115 20.5061C3.53735 20.3007 3.50094 20.0737 3.5258 19.8493L4.0258 16.8868L1.8758 14.7118C1.71094 14.5491 1.59454 14.3437 1.53959 14.1187C1.48464 13.8937 1.4933 13.6578 1.5646 13.4374C1.63591 13.217 1.76705 13.0207 1.9434 12.8705C2.11975 12.7203 2.33436 12.6221 2.5633 12.5868L5.5008 12.1493L6.8758 9.44928C6.97815 9.23794 7.13797 9.05971 7.33694 8.935C7.5359 8.81028 7.76597 8.74414 8.0008 8.74414C8.23562 8.74414 8.46569 8.81028 8.66466 8.935C8.86362 9.05971 9.02344 9.23794 9.1258 9.44928L10.5008 12.1493L13.4883 12.5868C13.7172 12.6221 13.9318 12.7203 14.1082 12.8705C14.2845 13.0207 14.4157 13.217 14.487 13.4374C14.5583 13.6578 14.567 13.8937 14.512 14.1187C14.4571 14.3437 14.3407 14.5491 14.1758 14.7118L11.9758 16.8243L12.4758 19.7868C12.5067 19.9657 12.4982 20.1492 12.4509 20.3245C12.4037 20.4998 12.3188 20.6628 12.2023 20.8019C12.0857 20.9411 11.9402 21.0533 11.7758 21.1305C11.6115 21.2078 11.4324 21.2483 11.2508 21.2493ZM9.58829 17.7118C9.2508 15.7493 9.2508 16.0368 10.5758 14.6868C8.6758 14.4118 8.8883 14.6118 8.0008 12.8243C7.1133 14.6118 7.3383 14.4118 5.4258 14.6868C6.8008 16.0243 6.7508 15.7493 6.4133 17.7118C8.1258 16.8118 7.8383 16.7993 9.58829 17.7118Z" fill="#05058C"/>
<path d="M36.2508 21.2493C35.7883 21.2493 35.7008 21.1243 33.0008 19.6993L30.3383 21.0993C30.1373 21.2023 29.9122 21.2489 29.6869 21.2342C29.4616 21.2195 29.2444 21.1441 29.0585 21.0159C28.8726 20.8877 28.725 20.7115 28.6312 20.5061C28.5374 20.3007 28.5009 20.0737 28.5258 19.8493L29.0258 16.8868L26.8758 14.7118C26.7109 14.5491 26.5945 14.3437 26.5396 14.1187C26.4846 13.8937 26.4933 13.6578 26.5646 13.4374C26.6359 13.217 26.767 13.0207 26.9434 12.8705C27.1197 12.7203 27.3344 12.6221 27.5633 12.5868L30.5008 12.1493L31.8758 9.44928C31.9782 9.23794 32.138 9.05971 32.3369 8.935C32.5359 8.81028 32.766 8.74414 33.0008 8.74414C33.2356 8.74414 33.4657 8.81028 33.6647 8.935C33.8636 9.05971 34.0234 9.23794 34.1258 9.44928L35.5008 12.1493L38.4883 12.5868C38.7172 12.6221 38.9318 12.7203 39.1082 12.8705C39.2845 13.0207 39.4157 13.217 39.487 13.4374C39.5583 13.6578 39.567 13.8937 39.512 14.1187C39.4571 14.3437 39.3407 14.5491 39.1758 14.7118L37.0258 16.8243L37.5258 19.7868C37.5575 19.9699 37.548 20.1578 37.4979 20.3368C37.4478 20.5158 37.3585 20.6814 37.2363 20.8214C37.1142 20.9615 36.9624 21.0726 36.7919 21.1467C36.6214 21.2207 36.4365 21.2557 36.2508 21.2493ZM34.5883 17.7118C34.2508 15.7493 34.1883 16.0368 35.5758 14.6868C33.6758 14.4118 33.8883 14.6118 33.0008 12.8243C32.1133 14.6118 32.3383 14.4118 30.4258 14.6868C31.8008 16.0243 31.7508 15.7493 31.4133 17.7118C33.1258 16.8118 32.8383 16.7993 34.5883 17.7118Z" fill="#05058C"/>
</g>
<defs>
<clipPath id="clip0_5205_28223">
<rect width="40" height="40" fill="white" transform="translate(0.5)"/>
</clipPath>
</defs>
</svg>
