<svg width="41" height="40" viewBox="0 0 41 40" fill="none" xmlns="http://www.w3.org/2000/svg">
<rect width="40" height="40" transform="translate(0.5)" fill="white"/>
<path d="M28.5 13.837C28.9693 13.0798 29.2278 12.2108 29.2486 11.3202C29.2695 10.4295 29.052 9.54942 28.6186 8.771C28.1853 7.99259 27.5518 7.3441 26.7837 6.89264C26.0157 6.44117 25.1409 6.20313 24.25 6.20312C23.3591 6.20312 22.4843 6.44117 21.7163 6.89264C20.9482 7.3441 20.3148 7.99259 19.8814 8.771C19.448 9.54942 19.2305 10.4295 19.2514 11.3202C19.2722 12.2108 19.5307 13.0798 20 13.837C19.0002 14.5247 18.1821 15.4447 17.616 16.518C17.0499 17.5914 16.7528 18.7861 16.75 19.9995V21.2495C16.75 21.5811 16.8817 21.899 17.1161 22.1334C17.3505 22.3678 17.6685 22.4995 18 22.4995H30.5C30.8315 22.4995 31.1495 22.3678 31.3839 22.1334C31.6183 21.899 31.75 21.5811 31.75 21.2495V19.9995C31.7537 18.7849 31.4593 17.5879 30.8927 16.5134C30.326 15.439 29.5045 14.52 28.5 13.837ZM24.25 8.74954C24.7445 8.74954 25.2278 8.89616 25.6389 9.17086C26.0501 9.44557 26.3705 9.83601 26.5597 10.2928C26.7489 10.7496 26.7984 11.2523 26.702 11.7373C26.6055 12.2222 26.3674 12.6677 26.0178 13.0173C25.6681 13.3669 25.2227 13.605 24.7377 13.7015C24.2528 13.798 23.7501 13.7485 23.2933 13.5592C22.8365 13.37 22.446 13.0496 22.1713 12.6385C21.8966 12.2273 21.75 11.744 21.75 11.2495C21.75 10.5865 22.0134 9.95061 22.4822 9.48177C22.9511 9.01293 23.587 8.74954 24.25 8.74954ZM19.25 19.9995C19.251 19.1009 19.4942 18.2192 19.9539 17.4471C20.4137 16.675 21.073 16.0411 21.8625 15.612C22.5877 16.0264 23.4085 16.2443 24.2438 16.2443C25.079 16.2443 25.8998 16.0264 26.625 15.612C27.424 16.0308 28.0919 16.6621 28.5551 17.4363C29.0183 18.2104 29.2587 19.0974 29.25 19.9995H19.25Z" fill="#05058C"/>
<path d="M38 26.25C38.3315 26.25 38.6495 26.1183 38.8839 25.8839C39.1183 25.6495 39.25 25.3315 39.25 25V3.75C39.25 2.75544 38.8549 1.80161 38.1516 1.09835C37.4484 0.395088 36.4946 0 35.5 0L13 0C12.0054 0 11.0516 0.395088 10.3483 1.09835C9.64509 1.80161 9.25 2.75544 9.25 3.75V15H3C2.66848 15 2.35054 15.1317 2.11612 15.3661C1.8817 15.6005 1.75 15.9185 1.75 16.25V35C1.75 36.3261 2.27678 37.5979 3.21447 38.5355C4.15215 39.4732 5.42392 40 6.75 40H34.25C35.5761 40 36.8479 39.4732 37.7855 38.5355C38.7232 37.5979 39.25 36.3261 39.25 35V30C39.25 29.6685 39.1183 29.3505 38.8839 29.1161C38.6495 28.8817 38.3315 28.75 38 28.75C37.6685 28.75 37.3505 28.8817 37.1161 29.1161C36.8817 29.3505 36.75 29.6685 36.75 30V35C36.75 35.663 36.4866 36.2989 36.0178 36.7678C35.5489 37.2366 34.913 37.5 34.25 37.5H11.05C11.5044 36.745 11.7463 35.8812 11.75 35V3.75C11.75 3.41848 11.8817 3.10054 12.1161 2.86612C12.3505 2.6317 12.6685 2.5 13 2.5H35.5C35.8315 2.5 36.1495 2.6317 36.3839 2.86612C36.6183 3.10054 36.75 3.41848 36.75 3.75V25C36.75 25.3315 36.8817 25.6495 37.1161 25.8839C37.3505 26.1183 37.6685 26.25 38 26.25ZM4.25 35V17.5H9.25V35C9.25 35.663 8.98661 36.2989 8.51777 36.7678C8.04893 37.2366 7.41304 37.5 6.75 37.5C6.08696 37.5 5.45107 37.2366 4.98223 36.7678C4.51339 36.2989 4.25 35.663 4.25 35Z" fill="#000033"/>
<path d="M33 27.5C33 27.1685 32.8683 26.8505 32.6339 26.6161C32.3995 26.3817 32.0815 26.25 31.75 26.25H16.75C16.4185 26.25 16.1005 26.3817 15.8661 26.6161C15.6317 26.8505 15.5 27.1685 15.5 27.5C15.5 27.8315 15.6317 28.1495 15.8661 28.3839C16.1005 28.6183 16.4185 28.75 16.75 28.75H31.75C32.0815 28.75 32.3995 28.6183 32.6339 28.3839C32.8683 28.1495 33 27.8315 33 27.5Z" fill="#000033"/>
<path d="M18 31.25C17.6685 31.25 17.3505 31.3817 17.1161 31.6161C16.8817 31.8505 16.75 32.1685 16.75 32.5C16.75 32.8315 16.8817 33.1495 17.1161 33.3839C17.3505 33.6183 17.6685 33.75 18 33.75H30.5C30.8315 33.75 31.1495 33.6183 31.3839 33.3839C31.6183 33.1495 31.75 32.8315 31.75 32.5C31.75 32.1685 31.6183 31.8505 31.3839 31.6161C31.1495 31.3817 30.8315 31.25 30.5 31.25H18Z" fill="#000033"/>
</svg>
