<svg width="40" height="40" viewBox="0 0 40 40" fill="none" xmlns="http://www.w3.org/2000/svg">
<g clip-path="url(#clip0_5205_28020)">
<rect width="40" height="40" fill="white"/>
<path d="M13.75 25H7.5C7.16848 25 6.85054 24.8683 6.61612 24.6339C6.3817 24.3995 6.25 24.0815 6.25 23.75C6.25 23.4185 6.3817 23.1005 6.61612 22.8661C6.85054 22.6317 7.16848 22.5 7.5 22.5H13.75C14.0815 22.5 14.3995 22.6317 14.6339 22.8661C14.8683 23.1005 15 23.4185 15 23.75C15 24.0815 14.8683 24.3995 14.6339 24.6339C14.3995 24.8683 14.0815 25 13.75 25Z" fill="#05058C"/>
<path d="M32.5 25H26.25C25.9185 25 25.6005 24.8683 25.3661 24.6339C25.1317 24.3995 25 24.0815 25 23.75C25 23.4185 25.1317 23.1005 25.3661 22.8661C25.6005 22.6317 25.9185 22.5 26.25 22.5H32.5C32.8315 22.5 33.1495 22.6317 33.3839 22.8661C33.6183 23.1005 33.75 23.4185 33.75 23.75C33.75 24.0815 33.6183 24.3995 33.3839 24.6339C33.1495 24.8683 32.8315 25 32.5 25Z" fill="#05058C"/>
<path d="M14.0001 38.625C13.711 38.4753 13.4919 38.2187 13.3891 37.9098C13.2863 37.601 13.3081 37.2642 13.4497 36.9712C13.5913 36.6781 13.8417 36.4519 14.1476 36.3405C14.4534 36.2292 14.7907 36.2416 15.0876 36.375C16.8029 37.2076 18.7018 37.5906 20.6059 37.4879C22.5099 37.3852 24.3566 36.8003 25.9725 35.788C27.5884 34.7757 28.9205 33.3693 29.8436 31.7009C30.7668 30.0325 31.2508 28.1568 31.2501 26.25V20H27.5001V26.25C27.5001 28.2391 26.7099 30.1468 25.3034 31.5533C23.8968 32.9598 21.9892 33.75 20.0001 33.75C18.0109 33.75 16.1033 32.9598 14.6968 31.5533C13.2902 30.1468 12.5001 28.2391 12.5001 26.25V20H8.75005V26.25C8.74092 28.6856 9.53137 31.057 11.0001 33C11.199 33.2652 11.2844 33.5986 11.2375 33.9268C11.1906 34.255 11.0153 34.5511 10.7501 34.75C10.4848 34.9489 10.1515 35.0343 9.82327 34.9874C9.49509 34.9406 9.19896 34.7652 9.00005 34.5C7.20765 32.1238 6.24186 29.2264 6.25005 26.25V20C6.25005 19.337 6.51344 18.7011 6.98228 18.2322C7.45113 17.7634 8.08701 17.5 8.75005 17.5H12.5001C13.1631 17.5 13.799 17.7634 14.2678 18.2322C14.7367 18.7011 15.0001 19.337 15.0001 20V26.25C15.0001 27.5761 15.5268 28.8479 16.4645 29.7855C17.4022 30.7232 18.674 31.25 20.0001 31.25C21.3261 31.25 22.5979 30.7232 23.5356 29.7855C24.4733 28.8479 25.0001 27.5761 25.0001 26.25V20C25.0001 19.337 25.2634 18.7011 25.7323 18.2322C26.2011 17.7634 26.837 17.5 27.5001 17.5H31.2501C31.9131 17.5 32.549 17.7634 33.0178 18.2322C33.4867 18.7011 33.7501 19.337 33.7501 20V26.25C33.7506 28.58 33.159 30.8718 32.0309 32.9105C30.9028 34.9492 29.2752 36.6677 27.3008 37.9048C25.3264 39.142 23.07 39.8571 20.7434 39.983C18.4169 40.109 16.0965 39.6417 14.0001 38.625Z" fill="#000033"/>
<path d="M23.4875 8.57511C24.2003 7.88134 24.6899 6.99075 24.8938 6.01722C25.0977 5.0437 25.0066 4.03147 24.6322 3.10998C24.2578 2.1885 23.617 1.39962 22.7919 0.844235C21.9667 0.288848 20.9947 -0.0078125 20 -0.0078125C19.0053 -0.0078125 18.0333 0.288848 17.2081 0.844235C16.383 1.39962 15.7422 2.1885 15.3678 3.10998C14.9934 4.03147 14.9023 5.0437 15.1062 6.01722C15.3101 6.99075 15.7997 7.88134 16.5125 8.57511C15.6638 9.14582 14.968 9.9161 14.4864 10.8184C14.0047 11.7206 13.7519 12.7273 13.75 13.7501C13.75 14.0816 13.8817 14.3996 14.1161 14.634C14.3505 14.8684 14.6685 15.0001 15 15.0001H25C25.3315 15.0001 25.6495 14.8684 25.8839 14.634C26.1183 14.3996 26.25 14.0816 26.25 13.7501C26.2481 12.7273 25.9953 11.7206 25.5136 10.8184C25.032 9.9161 24.3362 9.14582 23.4875 8.57511ZM17.5 5.00011C17.5 4.50566 17.6466 4.02231 17.9213 3.61119C18.196 3.20006 18.5865 2.87963 19.0433 2.69041C19.5001 2.50119 20.0028 2.45169 20.4877 2.54815C20.9727 2.64461 21.4181 2.88271 21.7678 3.23234C22.1174 3.58198 22.3555 4.02743 22.452 4.51239C22.5484 4.99734 22.4989 5.5 22.3097 5.95682C22.1205 6.41364 21.8 6.80408 21.3889 7.07878C20.9778 7.35349 20.4945 7.50011 20 7.50011C19.337 7.50011 18.7011 7.23672 18.2322 6.76788C17.7634 6.29904 17.5 5.66315 17.5 5.00011ZM16.4625 12.5001C16.7202 11.7676 17.1989 11.1332 17.8325 10.6844C18.4662 10.2356 19.2235 9.99454 20 9.99454C20.7765 9.99454 21.5338 10.2356 22.1675 10.6844C22.8011 11.1332 23.2798 11.7676 23.5375 12.5001H16.4625Z" fill="#05058C"/>
<path d="M10 12.4997C9.78696 12.499 9.57758 12.4439 9.39178 12.3396C9.20599 12.2353 9.04995 12.0852 8.93849 11.9036C8.82702 11.722 8.76383 11.5149 8.75491 11.302C8.746 11.0891 8.79165 10.8775 8.88754 10.6872L9.72504 8.99967L8.47504 7.74967C8.10459 7.37784 7.86057 6.89885 7.77756 6.38059C7.69455 5.86234 7.77676 5.3311 8.01253 4.86217L8.86254 3.16217C9.02526 2.89173 9.28427 2.69286 9.58755 2.60549C9.89084 2.51812 10.2159 2.54871 10.4976 2.69113C10.7793 2.83354 10.9966 3.07723 11.1061 3.37328C11.2155 3.66932 11.2089 3.9958 11.0875 4.28717L10.275 5.99967L11.525 7.24967C11.8955 7.6215 12.1395 8.10048 12.2225 8.61874C12.3055 9.137 12.2233 9.66824 11.9875 10.1372L11.1125 11.8122C11.0087 12.0183 10.8497 12.1917 10.6534 12.313C10.457 12.4344 10.2309 12.499 10 12.4997Z" fill="#000033"/>
<path d="M30 12.4997C29.787 12.499 29.5776 12.4439 29.3918 12.3396C29.206 12.2353 29.05 12.0852 28.9385 11.9036C28.827 11.722 28.7638 11.5149 28.7549 11.302C28.746 11.0891 28.7916 10.8775 28.8875 10.6872L29.725 8.99967L28.475 7.74967C28.1046 7.37784 27.8606 6.89885 27.7776 6.3806C27.6946 5.86234 27.7768 5.3311 28.0125 4.86217L28.8625 3.16217C29.0253 2.89173 29.2843 2.69286 29.5876 2.60549C29.8908 2.51812 30.2159 2.54871 30.4976 2.69113C30.7793 2.83354 30.9966 3.07723 31.1061 3.37328C31.2155 3.66932 31.2089 3.9958 31.0875 4.28717L30.275 5.99967L31.525 7.24967C31.8955 7.6215 32.1395 8.10048 32.2225 8.61874C32.3055 9.137 32.2233 9.66824 31.9875 10.1372L31.1375 11.8372C31.0283 12.0425 30.864 12.2132 30.6631 12.3303C30.4621 12.4473 30.2325 12.506 30 12.4997Z" fill="#000033"/>
</g>
<defs>
<clipPath id="clip0_5205_28020">
<rect width="40" height="40" fill="white"/>
</clipPath>
</defs>
</svg>
