<svg width="41" height="40" viewBox="0 0 41 40" fill="none" xmlns="http://www.w3.org/2000/svg">
<g clip-path="url(#clip0_5205_28228)">
<rect width="40" height="40" transform="translate(0.5)" fill="white"/>
<path d="M15.5 33.75C15.5 34.0815 15.6317 34.3995 15.8661 34.6339C16.1005 34.8683 16.4185 35 16.75 35H24.25C24.5815 35 24.8995 34.8683 25.1339 34.6339C25.3683 34.3995 25.5 34.0815 25.5 33.75C25.5 33.4185 25.3683 33.1005 25.1339 32.8661C24.8995 32.6317 24.5815 32.5 24.25 32.5H16.75C16.4185 32.5 16.1005 32.6317 15.8661 32.8661C15.6317 33.1005 15.5 33.4185 15.5 33.75Z" fill="#000033"/>
<path d="M36.75 3.75H33C33 2.75544 32.6049 1.80161 31.9017 1.09835C31.1984 0.395088 30.2446 0 29.25 0L19.25 0C18.9185 0 18.6005 0.131696 18.3661 0.366117C18.1317 0.600537 18 0.918479 18 1.25C18 1.58152 18.1317 1.89946 18.3661 2.13388C18.6005 2.3683 18.9185 2.5 19.25 2.5H29.25C29.5815 2.5 29.8995 2.6317 30.1339 2.86612C30.3683 3.10054 30.5 3.41848 30.5 3.75V12.5C30.5 15.1522 29.4464 17.6957 27.5711 19.5711C25.6957 21.4464 23.1522 22.5 20.5 22.5C17.8478 22.5 15.3043 21.4464 13.4289 19.5711C11.5536 17.6957 10.5 15.1522 10.5 12.5V3.75C10.5 3.41848 10.6317 3.10054 10.8661 2.86612C11.1005 2.6317 11.4185 2.5 11.75 2.5H14.25C14.5815 2.5 14.8995 2.3683 15.1339 2.13388C15.3683 1.89946 15.5 1.58152 15.5 1.25C15.5 0.918479 15.3683 0.600537 15.1339 0.366117C14.8995 0.131696 14.5815 0 14.25 0L11.75 0C10.7554 0 9.80161 0.395088 9.09835 1.09835C8.39509 1.80161 8 2.75544 8 3.75H4.25C3.25544 3.75 2.30161 4.14509 1.59835 4.84835C0.895088 5.55161 0.5 6.50544 0.5 7.5V10C0.499643 12.9536 1.66085 15.7889 3.73294 17.8937C5.80502 19.9985 8.62175 21.2041 11.575 21.25C13.0129 22.7175 14.7903 23.808 16.75 24.425V27.5H14.25C13.2554 27.5 12.3016 27.8951 11.5983 28.5983C10.8951 29.3016 10.5 30.2554 10.5 31.25V37.5H8C7.66848 37.5 7.35054 37.6317 7.11612 37.8661C6.8817 38.1005 6.75 38.4185 6.75 38.75C6.75 39.0815 6.8817 39.3995 7.11612 39.6339C7.35054 39.8683 7.66848 40 8 40H33C33.3315 40 33.6495 39.8683 33.8839 39.6339C34.1183 39.3995 34.25 39.0815 34.25 38.75C34.25 38.4185 34.1183 38.1005 33.8839 37.8661C33.6495 37.6317 33.3315 37.5 33 37.5H30.5V31.25C30.5 30.2554 30.1049 29.3016 29.4017 28.5983C28.6984 27.8951 27.7446 27.5 26.75 27.5H24.25V24.425C26.2097 23.808 27.9871 22.7175 29.425 21.25C32.3783 21.2041 35.195 19.9985 37.2671 17.8937C39.3391 15.7889 40.5004 12.9536 40.5 10V7.5C40.5 6.50544 40.1049 5.55161 39.4016 4.84835C38.6984 4.14509 37.7446 3.75 36.75 3.75ZM3 10V7.5C3 7.16848 3.1317 6.85054 3.36612 6.61612C3.60054 6.3817 3.91848 6.25 4.25 6.25H8V12.5C8.00171 14.5782 8.52155 16.6232 9.5125 18.45C7.64722 17.9566 5.99731 16.8605 4.81949 15.3323C3.64168 13.8041 3.002 11.9294 3 10ZM28 31.25V37.5H13V31.25C13 30.9185 13.1317 30.6005 13.3661 30.3661C13.6005 30.1317 13.9185 30 14.25 30H26.75C27.0815 30 27.3995 30.1317 27.6339 30.3661C27.8683 30.6005 28 30.9185 28 31.25ZM21.75 27.5H19.25V25C20.081 25.0875 20.919 25.0875 21.75 25V27.5ZM38 10C37.998 11.9294 37.3583 13.8041 36.1805 15.3323C35.0027 16.8605 33.3528 17.9566 31.4875 18.45C32.4784 16.6232 32.9983 14.5782 33 12.5V6.25H36.75C37.0815 6.25 37.3995 6.3817 37.6339 6.61612C37.8683 6.85054 38 7.16848 38 7.5V10Z" fill="#05058C"/>
<path d="M23.6 10.8502C23.9748 10.2852 24.1894 9.62918 24.2209 8.9519C24.2525 8.27462 24.0998 7.60146 23.7792 7.00405C23.4586 6.40663 22.982 5.90732 22.4002 5.55924C21.8183 5.21116 21.153 5.02734 20.475 5.02734C19.797 5.02734 19.1317 5.21116 18.5498 5.55924C17.968 5.90732 17.4914 6.40663 17.1708 7.00405C16.8502 7.60146 16.6975 8.27462 16.7291 8.9519C16.7606 9.62918 16.9752 10.2852 17.35 10.8502C16.4064 11.4009 15.6236 12.1892 15.0797 13.1367C14.5357 14.0842 14.2497 15.1577 14.25 16.2502V17.5002C14.25 17.8318 14.3817 18.1497 14.6161 18.3841C14.8505 18.6185 15.1685 18.7502 15.5 18.7502H25.5C25.8315 18.7502 26.1495 18.6185 26.3839 18.3841C26.6183 18.1497 26.75 17.8318 26.75 17.5002V16.2502C26.7453 15.1528 26.4516 14.076 25.8987 13.1281C25.3457 12.1802 24.5529 11.3945 23.6 10.8502ZM19.25 8.75023C19.25 8.50301 19.3233 8.26133 19.4607 8.05577C19.598 7.85021 19.7932 7.68999 20.0216 7.59538C20.2501 7.50078 20.5014 7.47602 20.7439 7.52425C20.9863 7.57248 21.2091 7.69154 21.3839 7.86635C21.5587 8.04117 21.6778 8.2639 21.726 8.50637C21.7742 8.74885 21.7495 9.00018 21.6548 9.22859C21.5602 9.457 21.4 9.65222 21.1945 9.78957C20.9889 9.92692 20.7472 10.0002 20.5 10.0002C20.1685 10.0002 19.8505 9.86854 19.6161 9.63412C19.3817 9.3997 19.25 9.08176 19.25 8.75023ZM16.75 16.2502C16.75 15.2557 17.1451 14.3018 17.8483 13.5986C18.5516 12.8953 19.5054 12.5002 20.5 12.5002C21.4946 12.5002 22.4484 12.8953 23.1517 13.5986C23.8549 14.3018 24.25 15.2557 24.25 16.2502H16.75Z" fill="#05058C"/>
</g>
<defs>
<clipPath id="clip0_5205_28228">
<rect width="40" height="40" fill="white" transform="translate(0.5)"/>
</clipPath>
</defs>
</svg>
