<svg width="40" height="41" viewBox="0 0 40 41" fill="none" xmlns="http://www.w3.org/2000/svg">
<rect y="0.5" width="40" height="40" rx="20" fill="#F4F2FA"/>
<g clip-path="url(#clip0_5205_28194)">
<path d="M28 23.5V17C28 15.8065 27.5259 14.6619 26.682 13.818C25.8381 12.9741 24.6935 12.5 23.5 12.5C22.3065 12.5 21.1619 12.9741 20.318 13.818C19.4741 14.6619 19 15.8065 19 17V24C19 24.663 18.7366 25.2989 18.2678 25.7678C17.7989 26.2366 17.163 26.5 16.5 26.5C15.837 26.5 15.2011 26.2366 14.7322 25.7678C14.2634 25.2989 14 24.663 14 24V17.33C14.6675 17.0941 15.2301 16.6298 15.5884 16.0192C15.9466 15.4086 16.0775 14.691 15.9578 13.9932C15.8381 13.2954 15.4756 12.6625 14.9344 12.2061C14.3931 11.7498 13.708 11.4995 13 11.4995C12.292 11.4995 11.6069 11.7498 11.0656 12.2061C10.5244 12.6625 10.1619 13.2954 10.0422 13.9932C9.92251 14.691 10.0534 15.4086 10.4116 16.0192C10.7699 16.6298 11.3325 17.0941 12 17.33V24C12 25.1935 12.4741 26.3381 13.318 27.182C14.1619 28.0259 15.3065 28.5 16.5 28.5C17.6935 28.5 18.8381 28.0259 19.682 27.182C20.5259 26.3381 21 25.1935 21 24V17C21 16.337 21.2634 15.7011 21.7322 15.2322C22.2011 14.7634 22.837 14.5 23.5 14.5C24.163 14.5 24.7989 14.7634 25.2678 15.2322C25.7366 15.7011 26 16.337 26 17V23.5H23L27 28.5L31 23.5H28Z" fill="#05058C"/>
</g>
<defs>
<clipPath id="clip0_5205_28194">
<rect width="24" height="24" fill="white" transform="matrix(-1 0 0 1 32 8.5)"/>
</clipPath>
</defs>
</svg>
