<svg width="41" height="40" viewBox="0 0 41 40" fill="none" xmlns="http://www.w3.org/2000/svg">
<g clip-path="url(#clip0_5205_28206)">
<rect width="40" height="40" transform="translate(0.5)" fill="white"/>
<path d="M3.62505 24.6625C3.21004 23.1431 2.99985 21.5751 3.00005 20C3.00005 19.6685 2.86835 19.3505 2.63393 19.1161C2.39951 18.8817 2.08157 18.75 1.75005 18.75C1.41852 18.75 1.10058 18.8817 0.866162 19.1161C0.631741 19.3505 0.500045 19.6685 0.500045 20C0.496188 21.804 0.740135 23.5999 1.22504 25.3375C1.26447 25.498 1.33533 25.6491 1.43353 25.782C1.53173 25.915 1.65531 26.0271 1.79714 26.112C1.93896 26.1968 2.0962 26.2527 2.25977 26.2764C2.42333 26.3001 2.58997 26.2911 2.75004 26.25C2.91409 26.2071 3.06769 26.1312 3.20149 26.0271C3.33529 25.9229 3.44651 25.7926 3.52836 25.6441C3.61021 25.4956 3.66099 25.332 3.67761 25.1632C3.69424 24.9945 3.67635 24.8241 3.62505 24.6625Z" fill="#000033"/>
<path d="M20.5 7.51242e-05C17.6573 -0.00775529 14.8461 0.596642 12.2578 1.77217C9.6695 2.9477 7.36465 4.6668 5.5 6.81257V6.25008C5.5 5.91855 5.3683 5.60061 5.13388 5.36619C4.89946 5.13177 4.58152 5.00008 4.25 5.00008C3.91848 5.00008 3.60054 5.13177 3.36612 5.36619C3.1317 5.60061 3 5.91855 3 6.25008V10.0001C3 10.3316 3.1317 10.6495 3.36612 10.884C3.60054 11.1184 3.91848 11.2501 4.25 11.2501H8C8.33152 11.2501 8.64946 11.1184 8.88388 10.884C9.1183 10.6495 9.25 10.3316 9.25 10.0001C9.25 9.66855 9.1183 9.35061 8.88388 9.11619C8.64946 8.88177 8.33152 8.75008 8 8.75008H7.1375C8.76586 6.78711 10.8084 5.20877 13.1186 4.12821C15.4289 3.04765 17.9496 2.49165 20.5 2.50008C25.1413 2.50008 29.5925 4.34382 32.8744 7.62571C36.1563 10.9076 38 15.3588 38 20.0001C38 20.3316 38.1317 20.6495 38.3661 20.884C38.6005 21.1184 38.9185 21.2501 39.25 21.2501C39.5815 21.2501 39.8995 21.1184 40.1339 20.884C40.3683 20.6495 40.5 20.3316 40.5 20.0001C40.5 14.6957 38.3929 9.60867 34.6421 5.85794C30.8914 2.10721 25.8043 7.51242e-05 20.5 7.51242e-05Z" fill="#05058C"/>
<path d="M36.7504 28.7504H33.0004C32.6689 28.7504 32.3509 28.8821 32.1165 29.1165C31.8821 29.3509 31.7504 29.6689 31.7504 30.0004C31.7504 30.3319 31.8821 30.6499 32.1165 30.8843C32.3509 31.1187 32.6689 31.2504 33.0004 31.2504H33.8629C32.0538 33.398 29.7544 35.0786 27.159 36.1505C24.5636 37.2224 21.7484 37.6539 18.9511 37.4088C16.1538 37.1636 13.4566 36.2489 11.0872 34.7419C8.71784 33.2349 6.74589 31.1799 5.3379 28.7504C5.17214 28.462 4.89859 28.2512 4.57744 28.1645C4.25628 28.0777 3.91382 28.1221 3.6254 28.2879C3.33698 28.4537 3.12622 28.7272 3.03948 29.0484C2.95275 29.3695 2.99714 29.712 3.1629 30.0004C4.75275 32.7492 6.97428 35.08 9.6437 36.7998C12.3131 38.5197 15.3537 39.5792 18.5139 39.8907C21.674 40.2022 24.863 39.7567 27.8168 38.5912C30.7706 37.4256 33.4045 35.5734 35.5004 33.1879V33.7504C35.5004 34.0819 35.6321 34.3999 35.8665 34.6343C36.1009 34.8687 36.4189 35.0004 36.7504 35.0004C37.0819 35.0004 37.3999 34.8687 37.6343 34.6343C37.8687 34.3999 38.0004 34.0819 38.0004 33.7504V30.0004C38.0004 29.6689 37.8687 29.3509 37.6343 29.1165C37.3999 28.8821 37.0819 28.7504 36.7504 28.7504Z" fill="#000033"/>
<path d="M29.75 17.5875C30.1701 17.0228 30.4662 16.3757 30.6189 15.6886C30.7717 15.0015 30.7776 14.2899 30.6364 13.6003C30.4952 12.9108 30.21 12.2588 29.7994 11.6871C29.3888 11.1153 28.8622 10.6367 28.2539 10.2826C27.6456 9.92841 26.9694 9.70666 26.2696 9.63184C25.5697 9.55702 24.8619 9.63082 24.1925 9.8484C23.5231 10.066 22.9072 10.4224 22.385 10.8945C21.8629 11.3665 21.4463 11.9434 21.1625 12.5875C20.7252 12.5 20.2748 12.5 19.8375 12.5875C19.5537 11.9434 19.1371 11.3665 18.615 10.8945C18.0928 10.4224 17.4769 10.066 16.8075 9.8484C16.1381 9.63082 15.4303 9.55702 14.7304 9.63184C14.0306 9.70666 13.3544 9.92841 12.7461 10.2826C12.1378 10.6367 11.6112 11.1153 11.2006 11.6871C10.79 12.2588 10.5048 12.9108 10.3636 13.6003C10.2224 14.2899 10.2283 15.0015 10.3811 15.6886C10.5338 16.3757 10.8299 17.0228 11.25 17.5875C10.2502 18.2752 9.43209 19.1952 8.86601 20.2685C8.29994 21.3419 8.00277 22.5366 8 23.75V25C8 25.3316 8.1317 25.6495 8.36612 25.8839C8.60054 26.1184 8.91848 26.25 9.25 26.25H13V27.5C13 27.8316 13.1317 28.1495 13.3661 28.3839C13.6005 28.6184 13.9185 28.75 14.25 28.75H26.75C27.0815 28.75 27.3995 28.6184 27.6339 28.3839C27.8683 28.1495 28 27.8316 28 27.5V26.25H31.75C32.0815 26.25 32.3995 26.1184 32.6339 25.8839C32.8683 25.6495 33 25.3316 33 25V23.75C32.9972 22.5366 32.7001 21.3419 32.134 20.2685C31.5679 19.1952 30.7498 18.2752 29.75 17.5875ZM28 15C28 15.6631 27.7366 16.299 27.2678 16.7678C26.7989 17.2367 26.163 17.5 25.5 17.5C25.4961 16.728 25.3136 15.9674 24.9666 15.2778C24.6196 14.5882 24.1176 13.9882 23.5 13.525C23.8135 13.1069 24.2502 12.7976 24.7486 12.6405C25.2471 12.4834 25.7822 12.4865 26.2788 12.6492C26.7754 12.812 27.2085 13.1263 27.5173 13.548C27.826 13.9697 27.9948 14.4775 28 15ZM23 17.5C23 17.9945 22.8534 18.4779 22.5787 18.889C22.304 19.3001 21.9135 19.6205 21.4567 19.8097C20.9999 19.999 20.4972 20.0485 20.0123 19.952C19.5273 19.8555 19.0819 19.6174 18.7322 19.2678C18.3826 18.9182 18.1445 18.4727 18.048 17.9878C17.9516 17.5028 18.0011 17.0002 18.1903 16.5433C18.3795 16.0865 18.7 15.6961 19.1111 15.4214C19.5222 15.1467 20.0055 15 20.5 15C21.163 15 21.7989 15.2634 22.2678 15.7323C22.7366 16.2011 23 16.837 23 17.5ZM17.5 13.525C16.8824 13.9882 16.3804 14.5882 16.0334 15.2778C15.6864 15.9674 15.5039 16.728 15.5 17.5C15.0718 17.5032 14.6499 17.3963 14.2749 17.1896C13.8998 16.9829 13.5841 16.6834 13.3581 16.3196C13.1321 15.9559 13.0033 15.5402 12.9841 15.1124C12.9648 14.6846 13.0558 14.259 13.2483 13.8765C13.4408 13.4939 13.7283 13.1672 14.0833 12.9277C14.4383 12.6882 14.8488 12.5439 15.2756 12.5086C15.7024 12.4733 16.1311 12.5483 16.5206 12.7263C16.9101 12.9042 17.2473 13.1793 17.5 13.525ZM10.5 23.75C10.501 22.8514 10.7442 21.9697 11.2039 21.1976C11.6637 20.4256 12.323 19.7916 13.1125 19.3625C13.8395 19.7787 14.6623 19.9984 15.5 20C16.3375 20 16.0625 19.8 16.25 20.0875C14.9506 20.9822 13.9665 22.2638 13.4375 23.75H10.5ZM15.5 26.25C15.501 25.3514 15.7442 24.4697 16.2039 23.6976C16.6637 22.9256 17.323 22.2916 18.1125 21.8625C18.8385 22.2745 19.659 22.4911 20.4937 22.4911C21.3285 22.4911 22.149 22.2745 22.875 21.8625C23.674 22.2814 24.3419 22.9126 24.8051 23.6868C25.2683 24.4609 25.5087 25.3479 25.5 26.25H15.5ZM27.5625 23.75C27.0476 22.2562 26.0604 20.9706 24.75 20.0875C24.9375 19.8 24.6625 20 25.5 20C26.3377 19.9984 27.1605 19.7787 27.8875 19.3625C28.677 19.7916 29.3363 20.4256 29.7961 21.1976C30.2558 21.9697 30.499 22.8514 30.5 23.75H27.5625Z" fill="#05058C"/>
</g>
<defs>
<clipPath id="clip0_5205_28206">
<rect width="40" height="40" fill="white" transform="translate(0.5)"/>
</clipPath>
</defs>
</svg>
