<svg width="41" height="40" viewBox="0 0 41 40" fill="none" xmlns="http://www.w3.org/2000/svg">
<g clip-path="url(#clip0_5205_28216)">
<rect width="40" height="40" transform="translate(0.5)" fill="white"/>
<path d="M14.25 25H8C7.66848 25 7.35054 24.8683 7.11612 24.6339C6.8817 24.3995 6.75 24.0815 6.75 23.75C6.75 23.4185 6.8817 23.1005 7.11612 22.8661C7.35054 22.6317 7.66848 22.5 8 22.5H14.25C14.5815 22.5 14.8995 22.6317 15.1339 22.8661C15.3683 23.1005 15.5 23.4185 15.5 23.75C15.5 24.0815 15.3683 24.3995 15.1339 24.6339C14.8995 24.8683 14.5815 25 14.25 25Z" fill="#05058C"/>
<path d="M33 25H26.75C26.4185 25 26.1005 24.8683 25.8661 24.6339C25.6317 24.3995 25.5 24.0815 25.5 23.75C25.5 23.4185 25.6317 23.1005 25.8661 22.8661C26.1005 22.6317 26.4185 22.5 26.75 22.5H33C33.3315 22.5 33.6495 22.6317 33.8839 22.8661C34.1183 23.1005 34.25 23.4185 34.25 23.75C34.25 24.0815 34.1183 24.3995 33.8839 24.6339C33.6495 24.8683 33.3315 25 33 25Z" fill="#05058C"/>
<path d="M14.5001 38.625C14.211 38.4753 13.9919 38.2187 13.8891 37.9098C13.7863 37.601 13.8081 37.2642 13.9497 36.9712C14.0913 36.6781 14.3417 36.4519 14.6476 36.3405C14.9534 36.2292 15.2907 36.2416 15.5876 36.375C17.3029 37.2076 19.2018 37.5906 21.1059 37.4879C23.0099 37.3852 24.8566 36.8003 26.4725 35.788C28.0884 34.7757 29.4205 33.3693 30.3436 31.7009C31.2668 30.0325 31.7508 28.1568 31.7501 26.25V20H28.0001V26.25C28.0001 28.2391 27.2099 30.1468 25.8034 31.5533C24.3968 32.9598 22.4892 33.75 20.5001 33.75C18.5109 33.75 16.6033 32.9598 15.1968 31.5533C13.7902 30.1468 13.0001 28.2391 13.0001 26.25V20H9.25005V26.25C9.24092 28.6856 10.0314 31.057 11.5001 33C11.699 33.2652 11.7844 33.5986 11.7375 33.9268C11.6906 34.255 11.5153 34.5511 11.2501 34.75C10.9848 34.9489 10.6515 35.0343 10.3233 34.9874C9.99509 34.9406 9.69896 34.7652 9.50005 34.5C7.70765 32.1238 6.74186 29.2264 6.75005 26.25V20C6.75005 19.337 7.01344 18.7011 7.48228 18.2322C7.95113 17.7634 8.58701 17.5 9.25005 17.5H13.0001C13.6631 17.5 14.299 17.7634 14.7678 18.2322C15.2367 18.7011 15.5001 19.337 15.5001 20V26.25C15.5001 27.5761 16.0268 28.8479 16.9645 29.7855C17.9022 30.7232 19.174 31.25 20.5001 31.25C21.8261 31.25 23.0979 30.7232 24.0356 29.7855C24.9733 28.8479 25.5001 27.5761 25.5001 26.25V20C25.5001 19.337 25.7634 18.7011 26.2323 18.2322C26.7011 17.7634 27.337 17.5 28.0001 17.5H31.7501C32.4131 17.5 33.049 17.7634 33.5178 18.2322C33.9867 18.7011 34.2501 19.337 34.2501 20V26.25C34.2506 28.58 33.659 30.8718 32.5309 32.9105C31.4028 34.9492 29.7752 36.6677 27.8008 37.9048C25.8264 39.142 23.57 39.8571 21.2434 39.983C18.9169 40.109 16.5965 39.6417 14.5001 38.625Z" fill="#000033"/>
<path d="M23.9875 8.57511C24.7003 7.88134 25.1899 6.99075 25.3938 6.01722C25.5977 5.0437 25.5066 4.03147 25.1322 3.10998C24.7578 2.1885 24.117 1.39962 23.2919 0.844235C22.4667 0.288848 21.4947 -0.0078125 20.5 -0.0078125C19.5053 -0.0078125 18.5333 0.288848 17.7081 0.844235C16.883 1.39962 16.2422 2.1885 15.8678 3.10998C15.4934 4.03147 15.4023 5.0437 15.6062 6.01722C15.8101 6.99075 16.2997 7.88134 17.0125 8.57511C16.1638 9.14582 15.468 9.9161 14.9864 10.8184C14.5047 11.7206 14.2519 12.7273 14.25 13.7501C14.25 14.0816 14.3817 14.3996 14.6161 14.634C14.8505 14.8684 15.1685 15.0001 15.5 15.0001H25.5C25.8315 15.0001 26.1495 14.8684 26.3839 14.634C26.6183 14.3996 26.75 14.0816 26.75 13.7501C26.7481 12.7273 26.4953 11.7206 26.0136 10.8184C25.532 9.9161 24.8362 9.14582 23.9875 8.57511ZM18 5.00011C18 4.50566 18.1466 4.02231 18.4213 3.61119C18.696 3.20006 19.0865 2.87963 19.5433 2.69041C20.0001 2.50119 20.5028 2.45169 20.9877 2.54815C21.4727 2.64461 21.9181 2.88271 22.2678 3.23234C22.6174 3.58198 22.8555 4.02743 22.952 4.51239C23.0484 4.99734 22.9989 5.5 22.8097 5.95682C22.6205 6.41364 22.3 6.80408 21.8889 7.07878C21.4778 7.35349 20.9945 7.50011 20.5 7.50011C19.837 7.50011 19.2011 7.23672 18.7322 6.76788C18.2634 6.29904 18 5.66315 18 5.00011ZM16.9625 12.5001C17.2202 11.7676 17.6989 11.1332 18.3325 10.6844C18.9662 10.2356 19.7235 9.99454 20.5 9.99454C21.2765 9.99454 22.0338 10.2356 22.6675 10.6844C23.3011 11.1332 23.7798 11.7676 24.0375 12.5001H16.9625Z" fill="#05058C"/>
<path d="M10.5 12.4997C10.287 12.499 10.0776 12.4439 9.89178 12.3396C9.70599 12.2353 9.54995 12.0852 9.43849 11.9036C9.32702 11.722 9.26383 11.5149 9.25491 11.302C9.246 11.0891 9.29165 10.8775 9.38754 10.6872L10.225 8.99967L8.97504 7.74967C8.60459 7.37784 8.36057 6.89885 8.27756 6.38059C8.19455 5.86234 8.27676 5.3311 8.51253 4.86217L9.36254 3.16217C9.52526 2.89173 9.78427 2.69286 10.0876 2.60549C10.3908 2.51812 10.7159 2.54871 10.9976 2.69113C11.2793 2.83354 11.4966 3.07723 11.6061 3.37328C11.7155 3.66932 11.7089 3.9958 11.5875 4.28717L10.775 5.99967L12.025 7.24967C12.3955 7.6215 12.6395 8.10048 12.7225 8.61874C12.8055 9.137 12.7233 9.66824 12.4875 10.1372L11.6125 11.8122C11.5087 12.0183 11.3497 12.1917 11.1534 12.313C10.957 12.4344 10.7309 12.499 10.5 12.4997Z" fill="#000033"/>
<path d="M30.5 12.4997C30.287 12.499 30.0776 12.4439 29.8918 12.3396C29.706 12.2353 29.55 12.0852 29.4385 11.9036C29.327 11.722 29.2638 11.5149 29.2549 11.302C29.246 11.0891 29.2916 10.8775 29.3875 10.6872L30.225 8.99967L28.975 7.74967C28.6046 7.37784 28.3606 6.89885 28.2776 6.3806C28.1946 5.86234 28.2768 5.3311 28.5125 4.86217L29.3625 3.16217C29.5253 2.89173 29.7843 2.69286 30.0876 2.60549C30.3908 2.51812 30.7159 2.54871 30.9976 2.69113C31.2793 2.83354 31.4966 3.07723 31.6061 3.37328C31.7155 3.66932 31.7089 3.9958 31.5875 4.28717L30.775 5.99967L32.025 7.24967C32.3955 7.6215 32.6395 8.10048 32.7225 8.61874C32.8055 9.137 32.7233 9.66824 32.4875 10.1372L31.6375 11.8372C31.5283 12.0425 31.364 12.2132 31.1631 12.3303C30.9621 12.4473 30.7325 12.506 30.5 12.4997Z" fill="#000033"/>
</g>
<defs>
<clipPath id="clip0_5205_28216">
<rect width="40" height="40" fill="white" transform="translate(0.5)"/>
</clipPath>
</defs>
</svg>
