<svg width="40" height="41" viewBox="0 0 40 41" fill="none" xmlns="http://www.w3.org/2000/svg">
<rect y="0.5" width="40" height="40" rx="20" fill="#F4F2FA"/>
<g clip-path="url(#clip0_5205_28056)">
<path d="M29 17.5V29.493C29.0009 29.6243 28.976 29.7545 28.9266 29.8762C28.8772 29.9979 28.8043 30.1087 28.7121 30.2022C28.6199 30.2957 28.5101 30.3701 28.3892 30.4212C28.2682 30.4723 28.1383 30.4991 28.007 30.5H11.993C11.7298 30.5 11.4774 30.3955 11.2912 30.2095C11.105 30.0235 11.0003 29.7712 11 29.508V11.492C11 10.955 11.447 10.5 11.998 10.5H22V16.5C22 16.7652 22.1054 17.0196 22.2929 17.2071C22.4804 17.3946 22.7348 17.5 23 17.5H29ZM29 15.5H24V10.503L29 15.5ZM16 15.5V17.5H19V15.5H16ZM16 19.5V21.5H24V19.5H16ZM16 23.5V25.5H24V23.5H16Z" fill="#05058C"/>
</g>
<defs>
<clipPath id="clip0_5205_28056">
<rect width="24" height="24" fill="white" transform="translate(8 8.5)"/>
</clipPath>
</defs>
</svg>
