<svg width="40" height="40" viewBox="0 0 40 40" fill="none" xmlns="http://www.w3.org/2000/svg">
<g clip-path="url(#clip0_5205_28032)">
<rect width="40" height="40" fill="white"/>
<path d="M15 33.75C15 34.0815 15.1317 34.3995 15.3661 34.6339C15.6005 34.8683 15.9185 35 16.25 35H23.75C24.0815 35 24.3995 34.8683 24.6339 34.6339C24.8683 34.3995 25 34.0815 25 33.75C25 33.4185 24.8683 33.1005 24.6339 32.8661C24.3995 32.6317 24.0815 32.5 23.75 32.5H16.25C15.9185 32.5 15.6005 32.6317 15.3661 32.8661C15.1317 33.1005 15 33.4185 15 33.75Z" fill="#000033"/>
<path d="M36.25 3.75H32.5C32.5 2.75544 32.1049 1.80161 31.4017 1.09835C30.6984 0.395088 29.7446 0 28.75 0L18.75 0C18.4185 0 18.1005 0.131696 17.8661 0.366117C17.6317 0.600537 17.5 0.918479 17.5 1.25C17.5 1.58152 17.6317 1.89946 17.8661 2.13388C18.1005 2.3683 18.4185 2.5 18.75 2.5H28.75C29.0815 2.5 29.3995 2.6317 29.6339 2.86612C29.8683 3.10054 30 3.41848 30 3.75V12.5C30 15.1522 28.9464 17.6957 27.0711 19.5711C25.1957 21.4464 22.6522 22.5 20 22.5C17.3478 22.5 14.8043 21.4464 12.9289 19.5711C11.0536 17.6957 10 15.1522 10 12.5V3.75C10 3.41848 10.1317 3.10054 10.3661 2.86612C10.6005 2.6317 10.9185 2.5 11.25 2.5H13.75C14.0815 2.5 14.3995 2.3683 14.6339 2.13388C14.8683 1.89946 15 1.58152 15 1.25C15 0.918479 14.8683 0.600537 14.6339 0.366117C14.3995 0.131696 14.0815 0 13.75 0L11.25 0C10.2554 0 9.30161 0.395088 8.59835 1.09835C7.89509 1.80161 7.5 2.75544 7.5 3.75H3.75C2.75544 3.75 1.80161 4.14509 1.09835 4.84835C0.395088 5.55161 8.24634e-08 6.50544 8.24634e-08 7.5V10C-0.000357289 12.9536 1.16085 15.7889 3.23294 17.8937C5.30502 19.9985 8.12175 21.2041 11.075 21.25C12.5129 22.7175 14.2903 23.808 16.25 24.425V27.5H13.75C12.7554 27.5 11.8016 27.8951 11.0983 28.5983C10.3951 29.3016 10 30.2554 10 31.25V37.5H7.5C7.16848 37.5 6.85054 37.6317 6.61612 37.8661C6.3817 38.1005 6.25 38.4185 6.25 38.75C6.25 39.0815 6.3817 39.3995 6.61612 39.6339C6.85054 39.8683 7.16848 40 7.5 40H32.5C32.8315 40 33.1495 39.8683 33.3839 39.6339C33.6183 39.3995 33.75 39.0815 33.75 38.75C33.75 38.4185 33.6183 38.1005 33.3839 37.8661C33.1495 37.6317 32.8315 37.5 32.5 37.5H30V31.25C30 30.2554 29.6049 29.3016 28.9017 28.5983C28.1984 27.8951 27.2446 27.5 26.25 27.5H23.75V24.425C25.7097 23.808 27.4871 22.7175 28.925 21.25C31.8783 21.2041 34.695 19.9985 36.7671 17.8937C38.8391 15.7889 40.0004 12.9536 40 10V7.5C40 6.50544 39.6049 5.55161 38.9016 4.84835C38.1984 4.14509 37.2446 3.75 36.25 3.75ZM2.5 10V7.5C2.5 7.16848 2.6317 6.85054 2.86612 6.61612C3.10054 6.3817 3.41848 6.25 3.75 6.25H7.5V12.5C7.50171 14.5782 8.02155 16.6232 9.0125 18.45C7.14722 17.9566 5.49731 16.8605 4.31949 15.3323C3.14168 13.8041 2.502 11.9294 2.5 10ZM27.5 31.25V37.5H12.5V31.25C12.5 30.9185 12.6317 30.6005 12.8661 30.3661C13.1005 30.1317 13.4185 30 13.75 30H26.25C26.5815 30 26.8995 30.1317 27.1339 30.3661C27.3683 30.6005 27.5 30.9185 27.5 31.25ZM21.25 27.5H18.75V25C19.581 25.0875 20.419 25.0875 21.25 25V27.5ZM37.5 10C37.498 11.9294 36.8583 13.8041 35.6805 15.3323C34.5027 16.8605 32.8528 17.9566 30.9875 18.45C31.9784 16.6232 32.4983 14.5782 32.5 12.5V6.25H36.25C36.5815 6.25 36.8995 6.3817 37.1339 6.61612C37.3683 6.85054 37.5 7.16848 37.5 7.5V10Z" fill="#05058C"/>
<path d="M23.1 10.8502C23.4748 10.2852 23.6894 9.62918 23.7209 8.9519C23.7525 8.27462 23.5998 7.60146 23.2792 7.00405C22.9586 6.40663 22.482 5.90732 21.9002 5.55924C21.3183 5.21116 20.653 5.02734 19.975 5.02734C19.297 5.02734 18.6317 5.21116 18.0498 5.55924C17.468 5.90732 16.9914 6.40663 16.6708 7.00405C16.3502 7.60146 16.1975 8.27462 16.2291 8.9519C16.2606 9.62918 16.4752 10.2852 16.85 10.8502C15.9064 11.4009 15.1236 12.1892 14.5797 13.1367C14.0357 14.0842 13.7497 15.1577 13.75 16.2502V17.5002C13.75 17.8318 13.8817 18.1497 14.1161 18.3841C14.3505 18.6185 14.6685 18.7502 15 18.7502H25C25.3315 18.7502 25.6495 18.6185 25.8839 18.3841C26.1183 18.1497 26.25 17.8318 26.25 17.5002V16.2502C26.2453 15.1528 25.9516 14.076 25.3987 13.1281C24.8457 12.1802 24.0529 11.3945 23.1 10.8502ZM18.75 8.75023C18.75 8.50301 18.8233 8.26133 18.9607 8.05577C19.098 7.85021 19.2932 7.68999 19.5216 7.59538C19.7501 7.50078 20.0014 7.47602 20.2439 7.52425C20.4863 7.57248 20.7091 7.69154 20.8839 7.86635C21.0587 8.04117 21.1778 8.2639 21.226 8.50637C21.2742 8.74885 21.2495 9.00018 21.1548 9.22859C21.0602 9.457 20.9 9.65222 20.6945 9.78957C20.4889 9.92692 20.2472 10.0002 20 10.0002C19.6685 10.0002 19.3505 9.86854 19.1161 9.63412C18.8817 9.3997 18.75 9.08176 18.75 8.75023ZM16.25 16.2502C16.25 15.2557 16.6451 14.3018 17.3483 13.5986C18.0516 12.8953 19.0054 12.5002 20 12.5002C20.9946 12.5002 21.9484 12.8953 22.6517 13.5986C23.3549 14.3018 23.75 15.2557 23.75 16.2502H16.25Z" fill="#05058C"/>
</g>
<defs>
<clipPath id="clip0_5205_28032">
<rect width="40" height="40" fill="white"/>
</clipPath>
</defs>
</svg>
