<svg width="41" height="40" viewBox="0 0 41 40" fill="none" xmlns="http://www.w3.org/2000/svg">
<g clip-path="url(#clip0_5205_28212)">
<rect width="40" height="40" transform="translate(0.5)" fill="white"/>
<path d="M40.5 24.5993L38 17.2618C37.9625 14.5301 37.286 11.8451 36.0246 9.4218C34.7632 6.99847 32.9519 4.90414 30.7358 3.30645C28.5197 1.70877 25.9603 0.652129 23.2626 0.221116C20.5648 -0.209897 17.8036 -0.00330616 15.2 0.824349C15.0384 0.870478 14.8877 0.948732 14.757 1.05443C14.6263 1.16013 14.5183 1.29111 14.4394 1.43952C14.3604 1.58794 14.3123 1.75074 14.2977 1.9182C14.2832 2.08566 14.3026 2.25433 14.3547 2.41413C14.4068 2.57393 14.4907 2.72157 14.6012 2.84822C14.7117 2.97486 14.8466 3.07792 14.9979 3.15123C15.1492 3.22453 15.3137 3.26658 15.4816 3.27484C15.6494 3.28311 15.8173 3.25744 15.975 3.19935C18.2225 2.48824 20.6059 2.31683 22.932 2.69901C25.258 3.08119 27.4613 4.00622 29.3631 5.39906C31.2648 6.7919 32.8116 8.61335 33.8778 10.7157C34.9441 12.818 35.4998 15.1421 35.5 17.4993C35.5 17.7868 35.8625 18.7493 37.7625 24.4868L34.8125 26.4618C34.6406 26.5751 34.4992 26.729 34.4011 26.91C34.303 27.091 34.2511 27.2935 34.25 27.4993V32.4993H25.5C25.1685 32.4993 24.8505 32.631 24.6161 32.8655C24.3817 33.0999 24.25 33.4178 24.25 33.7493C24.25 34.0809 24.3817 34.3988 24.6161 34.6332C24.8505 34.8677 25.1685 34.9993 25.5 34.9993H26.75V36.2493C26.75 36.5809 26.6183 36.8988 26.3839 37.1332C26.1495 37.3676 25.8315 37.4993 25.5 37.4993H13C12.6685 37.4993 12.3505 37.3676 12.1161 37.1332C11.8817 36.8988 11.75 36.5809 11.75 36.2493V34.9993C11.75 34.6678 11.6183 34.3499 11.3839 34.1155C11.1495 33.881 10.8315 33.7493 10.5 33.7493C10.1685 33.7493 9.85054 33.881 9.61612 34.1155C9.3817 34.3499 9.25 34.6678 9.25 34.9993V36.2493C9.25 37.2439 9.64509 38.1977 10.3483 38.901C11.0516 39.6043 12.0054 39.9993 13 39.9993H25.5C26.4946 39.9993 27.4484 39.6043 28.1517 38.901C28.8549 38.1977 29.25 37.2439 29.25 36.2493V34.9993H35.5C35.8315 34.9993 36.1495 34.8677 36.3839 34.6332C36.6183 34.3988 36.75 34.0809 36.75 33.7493V28.1743L39.9375 26.0368C40.1787 25.8948 40.3652 25.6759 40.4672 25.4153C40.5691 25.1547 40.5807 24.8673 40.5 24.5993Z" fill="#000033"/>
<path d="M19.2502 2.84848C17.0288 0.912735 14.1366 -0.0742308 11.1952 0.0997159C8.25388 0.273663 5.49816 1.59464 3.52037 3.77872C1.54257 5.9628 0.500594 8.83565 0.618376 11.7798C0.736158 14.7239 2.0043 17.5044 4.15024 19.5235C5.51961 20.8227 6.40202 22.5522 6.65024 24.4235C6.76586 25.0245 6.7995 25.6384 6.75024 26.2485C6.75024 27.5746 7.27703 28.8463 8.21471 29.784C9.15239 30.7217 10.4242 31.2485 11.7502 31.2485C13.0763 31.2485 14.3481 30.7217 15.2858 29.784C16.2235 28.8463 16.7502 27.5746 16.7502 26.2485C16.7042 25.643 16.7336 25.0342 16.8377 24.436C17.1645 22.4649 18.1361 20.658 19.6002 19.2985C20.7062 18.2221 21.5788 16.9297 22.1638 15.5016C22.7489 14.0735 23.0339 12.5403 23.001 10.9974C22.9682 9.45448 22.6183 7.93482 21.973 6.53292C21.3277 5.13102 20.4009 3.87688 19.2502 2.84848ZM11.7502 28.7485C11.0872 28.7485 10.4513 28.4851 9.98248 28.0163C9.51363 27.5474 9.25024 26.9115 9.25024 26.2485H14.2502C14.2502 26.9115 13.9868 27.5474 13.518 28.0163C13.0492 28.4851 12.4133 28.7485 11.7502 28.7485ZM17.8627 17.4985C16.0855 19.1664 14.8821 21.3544 14.4252 23.7485H13.0002V17.4985H14.2502C14.5818 17.4985 14.8997 17.3668 15.1341 17.1324C15.3685 16.8979 15.5002 16.58 15.5002 16.2485C15.5002 15.917 15.3685 15.599 15.1341 15.3646C14.8997 15.1302 14.5818 14.9985 14.2502 14.9985H9.25024C8.91872 14.9985 8.60078 15.1302 8.36636 15.3646C8.13194 15.599 8.00024 15.917 8.00024 16.2485C8.00024 16.58 8.13194 16.8979 8.36636 17.1324C8.60078 17.3668 8.91872 17.4985 9.25024 17.4985H10.5002V23.7485H9.07524C8.69843 21.4245 7.55951 19.2918 5.83774 17.686C4.54694 16.5025 3.64098 14.9588 3.23706 13.2548C2.83314 11.5507 2.94985 9.7647 3.57208 8.12771C4.19431 6.49072 5.29344 5.0781 6.72727 4.0726C8.16111 3.06711 9.86368 2.51499 11.6147 2.48769C13.3658 2.46039 15.0847 2.95915 16.5492 3.91946C18.0137 4.87976 19.1563 6.25742 19.8293 7.87422C20.5023 9.49101 20.6746 11.2725 20.324 12.9884C19.9734 14.7042 19.116 16.2753 17.8627 17.4985Z" fill="#05058C"/>
</g>
<defs>
<clipPath id="clip0_5205_28212">
<rect width="40" height="40" fill="white" transform="translate(0.5)"/>
</clipPath>
</defs>
</svg>
