<svg width="124" height="40" viewBox="0 0 124 40" fill="none" xmlns="http://www.w3.org/2000/svg">
<g clip-path="url(#clip0_3556_17588)">
<path fill-rule="evenodd" clip-rule="evenodd" d="M0 0H38.8369V40H0V0ZM2.1576 2.22222V37.7778H36.6793V2.22222H2.1576Z" fill="#000033"/>
<path fill-rule="evenodd" clip-rule="evenodd" d="M0.315974 0.325437C0.737272 -0.108479 1.42033 -0.108479 1.84163 0.325437L38.5209 38.1032C38.9422 38.5371 38.9422 39.2406 38.5209 39.6746C38.0996 40.1085 37.4165 40.1085 36.9952 39.6746L0.315974 1.89679C-0.105325 1.46287 -0.105325 0.759353 0.315974 0.325437Z" fill="#000033"/>
<path fill-rule="evenodd" clip-rule="evenodd" d="M61.5884 2.22222C52.0555 2.22222 44.3275 10.1816 44.3275 20C44.3275 29.8184 52.0555 37.7778 61.5884 37.7778C71.1213 37.7778 78.8492 29.8184 78.8492 20C78.8492 10.1816 71.1213 2.22222 61.5884 2.22222ZM42.1699 20C42.1699 8.95431 50.8639 0 61.5884 0C72.3129 0 81.0068 8.95431 81.0068 20C81.0068 31.0457 72.3129 40 61.5884 40C50.8639 40 42.1699 31.0457 42.1699 20Z" fill="#000033"/>
<path fill-rule="evenodd" clip-rule="evenodd" d="M43.2461 18.8887H79.9254V21.1109H43.2461V18.8887Z" fill="#000033"/>
<path fill-rule="evenodd" clip-rule="evenodd" d="M103.758 2.22222C94.2254 2.22222 86.4974 10.1816 86.4974 20C86.4974 29.8184 94.2254 37.7778 103.758 37.7778C113.291 37.7778 121.019 29.8184 121.019 20C121.019 10.1816 113.291 2.22222 103.758 2.22222ZM84.3398 20C84.3398 8.95431 93.0338 0 103.758 0C114.483 0 123.177 8.95431 123.177 20C123.177 31.0457 114.483 40 103.758 40C93.0338 40 84.3398 31.0457 84.3398 20Z" fill="#000033"/>
</g>
<defs>
<clipPath id="clip0_3556_17588">
<rect width="123.333" height="40" fill="white"/>
</clipPath>
</defs>
</svg>
