<svg width="103" height="28" viewBox="0 0 103 28" fill="none" xmlns="http://www.w3.org/2000/svg">
<path d="M11.0268 4.6665V12.491H3.64277V4.6665H0.134766V23.3332H3.64277V15.7711H11.0268V23.3332H14.5348V4.6665H11.0268Z" fill="#33475B"/>
<path d="M26.6789 17.4514C26.7038 17.8434 26.6499 18.2364 26.5207 18.6062C26.3914 18.976 26.1895 19.3147 25.9274 19.6013C25.6653 19.888 25.3487 20.1165 24.997 20.2726C24.6453 20.4288 24.2661 20.5094 23.8828 20.5094C23.4995 20.5094 23.1203 20.4288 22.7686 20.2726C22.417 20.1165 22.1003 19.888 21.8382 19.6013C21.5761 19.3147 21.3742 18.976 21.245 18.6062C21.1157 18.2364 21.0619 17.8434 21.0868 17.4514V9.3335H17.8828V17.4514C17.9514 19.035 18.6135 20.5305 19.7312 21.6262C20.849 22.7219 22.3361 23.3335 23.8828 23.3335C25.4296 23.3335 26.9167 22.7219 28.0344 21.6262C29.1521 20.5305 29.8142 19.035 29.8828 17.4514V9.3335H26.6789V17.4514Z" fill="#33475B"/>
<path d="M51.0017 10.1109C50.9743 9.80936 51.0178 9.50572 51.129 9.22267C51.2402 8.93961 51.4162 8.68445 51.6438 8.47622C51.8714 8.268 52.1449 8.11209 52.4437 8.02012C52.7425 7.92816 53.0589 7.90252 53.3694 7.94512C54.5929 8.09074 55.718 8.66572 56.5306 9.5605L58.7372 7.05966C58.1026 6.33051 57.3146 5.74003 56.4255 5.32742C55.5364 4.91481 54.5664 4.68951 53.5802 4.6665C49.8612 4.6665 47.2951 6.72461 47.2951 10.1468C47.2951 16.4887 55.3281 14.4784 55.3281 18.0203C55.2807 18.5905 55.009 19.1215 54.5686 19.5042C54.1283 19.887 53.5528 20.0925 52.9603 20.0784C50.9769 20.0784 50.3322 19.1451 49.4149 18.1519L46.9355 20.5451C47.6097 21.415 48.4856 22.1203 49.4931 22.6045C50.5007 23.0887 51.6117 23.3382 52.7372 23.3331C56.1959 23.3331 58.9355 21.2511 58.9355 17.9844C58.9355 10.9485 50.9025 13.1981 50.9025 10.087" fill="#33475B"/>
<path d="M100.935 20.3006C98.9221 20.3006 98.3596 19.4674 98.3596 18.1873V12.5113H101.472V9.66125H98.3721V5.83301L94.9346 7.33049V18.8877C94.9346 21.8464 97.0471 23.3318 99.9346 23.3318C100.391 23.3398 100.847 23.3074 101.297 23.2352L102.135 20.2523C101.76 20.2523 101.322 20.2523 100.947 20.2523" fill="#33475B"/>
<path d="M39.926 9.32407C39.1849 9.29144 38.445 9.41044 37.7552 9.67322C37.0653 9.936 36.4411 10.3366 35.9238 10.8486V4.6665H32.545V16.1304C32.493 17.0373 32.6294 17.9451 32.9462 18.8007C33.2631 19.6562 33.754 20.4423 34.3902 21.113C35.0264 21.7837 35.7952 22.3255 36.6516 22.7066C37.5079 23.0878 38.4346 23.3006 39.3774 23.3328C41.3424 23.3523 43.2364 22.6266 44.6502 21.3126C46.064 19.9986 46.8841 18.2018 46.9331 16.3104C46.9496 15.4055 46.7808 14.5064 46.4363 13.6643C46.0918 12.8222 45.5784 12.0538 44.9254 11.4028C44.2724 10.7518 43.4926 10.231 42.6305 9.87022C41.7684 9.50943 40.841 9.31569 39.9011 9.30006M39.9011 20.1037C39.1416 20.1037 38.3991 19.8869 37.7676 19.4806C37.1361 19.0743 36.6439 18.4969 36.3533 17.8213C36.0626 17.1457 35.9866 16.4024 36.1347 15.6852C36.2829 14.968 36.6486 14.3092 37.1857 13.7921C37.7228 13.275 38.407 12.9229 39.1519 12.7802C39.8968 12.6376 40.669 12.7108 41.3707 12.9906C42.0724 13.2705 42.6721 13.7444 43.0941 14.3524C43.516 14.9604 43.7413 15.6752 43.7413 16.4065C43.7413 17.387 43.3367 18.3274 42.6165 19.0208C41.8963 19.7142 40.9196 20.1037 39.9011 20.1037Z" fill="#33475B"/>
<path d="M75.7338 16.3442C75.6816 14.455 74.8602 12.6612 73.4467 11.3498C72.0333 10.0383 70.1411 9.31431 68.1782 9.33388C67.2354 9.36603 66.3087 9.5789 65.4523 9.96004C64.596 10.3412 63.8272 10.883 63.191 11.5536C62.5547 12.2243 62.0638 13.0104 61.747 13.866C61.4302 14.7216 61.2938 15.6294 61.3457 16.5363V28.0002H64.7246V21.8301C65.2355 22.3443 65.8547 22.7473 66.5407 23.0123C67.2266 23.2773 67.9635 23.3981 68.7019 23.3666C70.6012 23.3319 72.4085 22.5729 73.727 21.2562C75.0454 19.9395 75.7672 18.1729 75.7338 16.3442ZM72.5171 16.3442C72.5097 17.0719 72.2794 17.7812 71.8552 18.3834C71.4309 18.9855 70.8315 19.4538 70.1321 19.7295C69.4327 20.0052 68.6643 20.0761 67.9232 19.9332C67.1822 19.7904 66.5014 19.4401 65.9661 18.9264C65.4308 18.4128 65.0649 17.7584 64.9142 17.0454C64.7634 16.3324 64.8345 15.5924 65.1186 14.9181C65.4027 14.2438 65.8872 13.6652 66.5113 13.2548C67.1354 12.8444 67.8714 12.6205 68.6271 12.611C69.1314 12.611 69.6307 12.7066 70.0966 12.8924C70.5625 13.0782 70.9859 13.3506 71.3425 13.6939C71.6991 14.0372 71.9819 14.4448 72.1749 14.8934C72.3679 15.3419 72.4672 15.8227 72.4672 16.3082" fill="#33475B"/>
<path d="M86.3423 9.19915V5.88494C86.7755 5.67775 87.1419 5.35032 87.3992 4.9406C87.6565 4.53087 87.794 4.05561 87.796 3.56986V3.49675C87.7928 2.81911 87.526 2.17014 87.0535 1.69097C86.5811 1.2118 85.9412 0.941187 85.273 0.937983H85.2009C84.5328 0.941187 83.8929 1.2118 83.4204 1.69097C82.948 2.17014 82.6812 2.81911 82.678 3.49675V3.56986C82.6799 4.05561 82.8175 4.53087 83.0747 4.9406C83.332 5.35032 83.6985 5.67775 84.1317 5.88494V9.19915C82.8875 9.39994 81.716 9.92474 80.7317 10.7222L71.7333 3.6186C71.7963 3.38429 71.8286 3.14258 71.8294 2.89971C71.8317 2.32962 71.6676 1.77158 71.3577 1.29592C71.0479 0.820262 70.6061 0.448267 70.0882 0.226802C69.5702 0.00533782 68.9992 -0.0556834 68.4471 0.0514311C67.895 0.158546 67.3865 0.429 66.9857 0.828717C66.5849 1.22843 66.3097 1.73952 66.1949 2.29759C66.08 2.85565 66.1305 3.43571 66.3402 3.96468C66.5498 4.49365 66.9091 4.94785 67.3728 5.27006C67.8366 5.59226 68.384 5.76805 68.946 5.77527C69.4393 5.77773 69.9243 5.64738 70.3517 5.39755L79.242 12.4281C78.4401 13.6456 78.0211 15.0812 78.0404 16.5452C78.0597 18.0093 78.5164 19.433 79.3501 20.6283L76.659 23.3577C76.4408 23.2897 76.2144 23.2528 75.9862 23.248C75.5224 23.248 75.0689 23.3877 74.6834 23.6493C74.2979 23.9109 73.9976 24.2827 73.8207 24.7176C73.6437 25.1525 73.598 25.6308 73.6894 26.092C73.7808 26.5533 74.0051 26.9766 74.3339 27.3084C74.6628 27.6402 75.0814 27.8655 75.5366 27.9558C75.9918 28.0461 76.4632 27.9973 76.8911 27.8156C77.319 27.6339 77.684 27.3275 77.94 26.9352C78.1959 26.5428 78.3313 26.0823 78.3289 25.6118C78.3239 25.3844 78.2875 25.1588 78.2208 24.9417L80.8759 22.1758C81.7458 22.8682 82.7611 23.3484 83.8432 23.5791C84.9254 23.8099 86.0454 23.785 87.1165 23.5065C88.1877 23.228 89.1813 22.7032 90.0205 21.9729C90.8597 21.2426 91.522 20.3262 91.9561 19.2947C92.3902 18.2632 92.5845 17.1443 92.524 16.0244C92.4634 14.9046 92.1496 13.8139 91.6069 12.8368C91.0642 11.8596 90.3071 11.0222 89.3942 10.3893C88.4813 9.75641 87.437 9.34502 86.3423 9.18696M85.237 20.1531C84.507 20.1555 83.7927 19.9382 83.1846 19.5286C82.5765 19.1191 82.1019 18.5357 81.8209 17.8524C81.5399 17.1691 81.4651 16.4166 81.6061 15.6902C81.747 14.9637 82.0974 14.2961 82.6127 13.7717C83.128 13.2474 83.7852 12.8899 84.501 12.7446C85.2168 12.5992 85.959 12.6726 86.6336 12.9554C87.3083 13.2381 87.885 13.7176 88.2908 14.333C88.6966 14.9484 88.9132 15.6721 88.9132 16.4124C88.9133 17.4024 88.5263 18.352 87.8372 19.0532C87.1481 19.7544 86.2131 20.1499 85.237 20.1531Z" fill="#FF7A59"/>
</svg>
