<svg width="100" height="36" viewBox="0 0 100 36" fill="none" xmlns="http://www.w3.org/2000/svg">
<g clip-path="url(#clip0_2256_16241)">
<path d="M14.5816 4.79662C14.9396 3.85941 15.432 2.99658 16.163 2.29739C19.0873 -0.544 23.9213 0.170067 25.9056 3.7404C27.3976 6.4479 28.979 9.0959 30.5158 11.7736C33.082 16.2217 35.678 20.6697 38.2143 25.1326C40.3478 28.8666 38.0353 33.5824 33.7981 34.2221C31.2021 34.6089 28.7702 33.4188 27.4274 31.0981C25.1745 27.1856 22.9067 23.2731 20.6539 19.3755C20.6091 19.2862 20.5494 19.2118 20.4897 19.1375C20.251 18.9441 20.1466 18.6614 19.9974 18.4085C18.9978 16.6531 17.9683 14.9126 16.9687 13.172C16.3272 12.0414 15.6558 10.9257 15.0142 9.79509C14.4324 8.78349 14.1638 7.68264 14.1936 6.52228C14.2384 5.92723 14.313 5.33217 14.5816 4.79662Z" fill="#3C8BD9"/>
<path d="M14.5839 4.79688C14.4496 5.33242 14.3303 5.86797 14.3004 6.43328C14.2557 7.68289 14.569 8.84325 15.1956 9.92923C16.8368 12.7409 18.4779 15.5674 20.1042 18.3939C20.2534 18.6468 20.3727 18.8997 20.5219 19.1377C19.6268 20.6849 18.7316 22.2171 17.8215 23.7643C16.5682 25.9213 15.315 28.0933 14.0468 30.2504C13.9871 30.2504 13.9722 30.2206 13.9573 30.176C13.9424 30.057 13.9871 29.9528 14.017 29.8338C14.6287 27.6024 14.1214 25.6238 12.5847 23.9279C11.6447 22.9014 10.4512 22.3213 9.07855 22.1279C7.28819 21.875 5.7067 22.3361 4.28933 23.4519C4.0357 23.6453 3.87158 23.9279 3.57319 24.0767C3.51351 24.0767 3.48367 24.0469 3.46875 24.0023C4.18489 22.7675 4.88612 21.5328 5.60226 20.2981C8.55636 15.1806 11.5105 10.0631 14.4795 4.96052C14.5093 4.90101 14.5541 4.85638 14.5839 4.79688Z" fill="#FABC04"/>
<path d="M3.52788 24.0458C3.81135 23.7929 4.07991 23.5252 4.3783 23.2871C8.00378 20.4309 13.4495 22.4987 14.2402 27.0211C14.4342 28.1071 14.3297 29.1484 14.0015 30.1898C13.9866 30.279 13.9717 30.3534 13.9418 30.4427C13.8075 30.6807 13.6882 30.9336 13.539 31.1716C12.2111 33.3585 10.2567 34.4444 7.69047 34.2808C4.75129 34.0725 2.43874 31.8708 2.03591 28.955C1.84196 27.5418 2.12543 26.2178 2.85649 24.9979C3.00569 24.7302 3.18473 24.4921 3.34884 24.2244C3.42344 24.1649 3.3936 24.0458 3.52788 24.0458Z" fill="#34A852"/>
<path d="M3.52776 24.0439C3.46808 24.1034 3.46808 24.2075 3.36365 24.2224C3.34873 24.1183 3.40841 24.0588 3.46808 23.9844L3.52776 24.0439Z" fill="#FABC04"/>
<path d="M13.9427 30.4404C13.883 30.3363 13.9427 30.2619 14.0024 30.1875C14.0173 30.2024 14.0471 30.2321 14.062 30.247L13.9427 30.4404Z" fill="#E1C025"/>
<path d="M51.1981 2.875C47.7559 2.875 44.8926 5.70342 44.8926 9.18454C44.8926 12.6657 47.7559 15.463 51.1981 15.463C53.0562 15.463 54.427 14.8414 55.5236 13.6913C56.6507 12.5413 56.9857 10.9562 56.9857 9.68183C56.9857 9.27777 56.9553 8.9048 56.8944 8.59398H51.1981V10.3035H55.2494C55.1276 11.267 54.823 11.9819 54.3356 12.4792C53.7568 13.0697 52.8125 13.7535 51.1981 13.7535C48.7002 13.7535 46.7507 11.7021 46.7507 9.18454C46.7507 6.66694 48.7002 4.61556 51.1981 4.61556C52.5384 4.61556 53.5436 5.14395 54.2442 5.85882L55.4322 4.64665C54.427 3.65204 53.0867 2.875 51.1981 2.875ZM61.5245 7.38181C59.3617 7.38181 57.5645 9.09129 57.5645 11.4846C57.5645 13.8467 59.3313 15.5873 61.5245 15.5873C63.7177 15.5873 65.4845 13.8467 65.4845 11.4846C65.4845 9.12237 63.6872 7.38181 61.5245 7.38181ZM61.5245 13.9711C60.3365 13.9711 59.3008 12.9454 59.3008 11.4846C59.3008 10.0237 60.3365 8.99805 61.5245 8.99805C62.7125 8.99805 63.7482 9.99265 63.7482 11.4846C63.7482 12.9454 62.7125 13.9711 61.5245 13.9711ZM70.1146 7.38181C67.9214 7.38181 66.1546 9.09129 66.1546 11.4846C66.1546 13.8467 67.9214 15.5873 70.1146 15.5873C72.2773 15.5873 74.0746 13.8467 74.0746 11.4846C74.0746 9.12237 72.3078 7.38181 70.1146 7.38181ZM70.1146 13.9711C68.9266 13.9711 67.8909 12.9454 67.8909 11.4846C67.8909 10.0237 68.9266 8.99805 70.1146 8.99805C71.3026 8.99805 72.3383 9.99265 72.3383 11.4846C72.3383 12.9454 71.333 13.9711 70.1146 13.9711ZM78.6742 7.38181C76.6942 7.38181 74.897 9.15345 74.897 11.4535C74.897 13.7224 76.6942 15.4941 78.6742 15.4941C79.6185 15.4941 80.3496 15.0589 80.7456 14.5616H80.8065V15.1522C80.8065 16.7062 80.0145 17.5454 78.7047 17.5454C77.6385 17.5454 76.9988 16.7684 76.7247 16.1157L75.2016 16.7684C75.6281 17.8563 76.7856 19.1617 78.7047 19.1617C80.7456 19.1617 82.4514 17.9184 82.4514 14.9346V7.66154H80.8065V8.31425H80.7456C80.3496 7.81695 79.6185 7.38181 78.6742 7.38181ZM78.8265 13.9089C77.6385 13.9089 76.6333 12.8832 76.6333 11.4535C76.6333 10.0237 77.6385 8.96696 78.8265 8.96696C80.0145 8.96696 80.9284 10.0237 80.9284 11.4535C80.9284 12.8832 80.0145 13.9089 78.8265 13.9089ZM83.7308 3.3723H85.4671V15.3697H83.7308V3.3723ZM90.1277 7.38181C88.0563 7.38181 86.32 9.02913 86.32 11.4846C86.32 13.7846 88.0259 15.5873 90.3105 15.5873C92.1686 15.5873 93.2347 14.4373 93.6612 13.7846L92.2904 12.8521C91.8335 13.5359 91.1938 13.9711 90.3105 13.9711C89.3966 13.9711 88.7569 13.567 88.3609 12.7278L93.7526 10.4589L93.5698 9.99265C93.2347 9.09128 92.1991 7.38181 90.1277 7.38181ZM88.0563 11.3602C87.9954 9.77508 89.2748 8.96696 90.1581 8.96696C90.8588 8.96696 91.468 9.30885 91.6508 9.83724L88.0563 11.3602Z" fill="#757575"/>
<path d="M44.2695 32.8742L48.3679 22.0078H49.9514L54.0498 32.8742H52.4974L51.4417 29.9331H46.8776L45.822 32.8742H44.2695ZM47.3433 28.6329H50.976L49.2062 23.7415H49.1441L47.3433 28.6329Z" fill="#757575"/>
<path d="M55.4797 31.9764C54.7966 31.2024 54.4551 30.2737 54.4551 29.1592C54.4551 28.0756 54.7966 27.1469 55.4797 26.342C56.1938 25.568 57.0011 25.1965 57.9946 25.1965C58.5535 25.1965 59.0502 25.3203 59.4849 25.5371C59.9506 25.7847 60.2922 26.0633 60.5406 26.4658H60.6027L60.5406 25.4442V22.0078H61.9377V32.8742H60.6027V31.8526H60.5406C60.2922 32.2241 59.9506 32.5336 59.4849 32.7813C59.0192 33.029 58.5224 33.1218 57.9946 33.1218C57.0011 33.1218 56.1627 32.7503 55.4797 31.9764ZM59.8885 31.1096C60.3543 30.6142 60.5716 29.9641 60.5716 29.1592C60.5716 28.3852 60.3543 27.7351 59.8885 27.2398C59.4539 26.7444 58.895 26.4968 58.2119 26.4968C57.5289 26.4968 56.97 26.7444 56.5353 27.2398C56.0696 27.7351 55.8523 28.3852 55.8523 29.1592C55.8523 29.9331 56.0696 30.5833 56.5353 31.0786C57.001 31.5739 57.5599 31.8216 58.2119 31.8216C58.895 31.8526 59.4539 31.6049 59.8885 31.1096Z" fill="#757575"/>
<path d="M68.3931 32.4474C67.8342 32.8808 67.1201 33.1284 66.2507 33.1284C65.5056 33.1284 64.8535 32.9427 64.2636 32.5402C63.7048 32.1378 63.3011 31.6424 63.0527 30.9923L64.2947 30.466C64.481 30.8995 64.7294 31.271 65.1019 31.5186C65.4435 31.7663 65.8471 31.8901 66.2507 31.8901C66.6854 31.8901 67.058 31.7972 67.3685 31.6115C67.6789 31.4257 67.8031 31.1781 67.8031 30.9304C67.8031 30.466 67.4306 30.0945 66.7164 29.8778L65.4435 29.5682C63.9842 29.1967 63.2701 28.5157 63.2701 27.4631C63.2701 26.782 63.5495 26.2557 64.1084 25.8223C64.6673 25.4198 65.3814 25.2031 66.2197 25.2031C66.8717 25.2031 67.4616 25.3579 68.0205 25.6675C68.5483 25.9771 68.9209 26.4105 69.1382 26.9368L67.8963 27.4631C67.741 27.1535 67.5237 26.9058 67.2132 26.7201C66.9027 26.5343 66.5302 26.4415 66.1265 26.4415C65.7539 26.4415 65.4435 26.5343 65.133 26.7201C64.8535 26.9058 64.6983 27.1225 64.6983 27.4012C64.6983 27.8346 65.1019 28.1442 65.9092 28.299L67.0269 28.5776C68.5173 28.9491 69.2314 29.6921 69.2314 30.8066C69.2624 31.4567 68.9519 32.014 68.3931 32.4474Z" fill="#757575"/>
</g>
<defs>
<clipPath id="clip0_2256_16241">
<rect width="98.8833" height="34.9" fill="white" transform="translate(0.955078 0.546875)"/>
</clipPath>
</defs>
</svg>
