<svg width="69" height="69" viewBox="0 0 69 69" fill="none" xmlns="http://www.w3.org/2000/svg">
<g clip-path="url(#clip0_4989_12145)">
<rect width="68.5714" height="68.5714" fill="white"/>
<path d="M41.3571 48.6857C42.9934 47.2482 44.1527 45.3461 44.6806 43.233C45.2084 41.1199 45.0797 38.8961 44.3116 36.858C43.5435 34.8199 42.1725 33.0642 40.3813 31.8251C38.5901 30.586 36.4637 29.9222 34.2857 29.9222C32.1076 29.9222 29.9813 30.586 28.1901 31.8251C26.3989 33.0642 25.0279 34.8199 24.2598 36.858C23.4917 38.8961 23.3629 41.1199 23.8908 43.233C24.4186 45.3461 25.578 47.2482 27.2143 48.6857C24.2146 50.044 21.6695 52.2376 19.8835 55.004C18.0975 57.7705 17.146 60.9928 17.1428 64.2857V66.4286C17.1428 66.9969 17.3686 67.5419 17.7705 67.9438C18.1723 68.3457 18.7174 68.5714 19.2857 68.5714H25.7143C26.2826 68.5714 26.8276 68.3457 27.2295 67.9438C27.6313 67.5419 27.8571 66.9969 27.8571 66.4286C27.8571 65.8603 27.6313 65.3152 27.2295 64.9133C26.8276 64.5115 26.2826 64.2857 25.7143 64.2857H21.4285C21.4285 60.8758 22.7831 57.6055 25.1943 55.1943C27.6055 52.7832 30.8758 51.4286 34.2857 51.4286C37.6956 51.4286 40.9659 52.7832 43.3771 55.1943C45.7882 57.6055 47.1428 60.8758 47.1428 64.2857H34.2857C33.7174 64.2857 33.1723 64.5115 32.7705 64.9133C32.3686 65.3152 32.1428 65.8603 32.1428 66.4286C32.1428 66.9969 32.3686 67.5419 32.7705 67.9438C33.1723 68.3457 33.7174 68.5714 34.2857 68.5714H49.2857C49.854 68.5714 50.399 68.3457 50.8009 67.9438C51.2028 67.5419 51.4285 66.9969 51.4285 66.4286V64.2857C51.4254 60.9928 50.4739 57.7705 48.6879 55.004C46.9018 52.2376 44.3568 50.044 41.3571 48.6857ZM27.8571 40.7143C27.8571 39.4428 28.2341 38.1999 28.9405 37.1428C29.6469 36.0856 30.6509 35.2616 31.8256 34.7751C33.0002 34.2885 34.2928 34.1612 35.5398 34.4092C36.7869 34.6573 37.9323 35.2695 38.8314 36.1686C39.7304 37.0677 40.3427 38.2131 40.5907 39.4601C40.8388 40.7072 40.7115 41.9997 40.2249 43.1744C39.7383 44.3491 38.9144 45.3531 37.8572 46.0595C36.8 46.7658 35.5571 47.1429 34.2857 47.1429C32.5807 47.1429 30.9456 46.4656 29.74 45.26C28.5344 44.0544 27.8571 42.4193 27.8571 40.7143Z" fill="#000033"/>
<path d="M39.8571 21.4286C39.0643 21.4286 38.9143 21.2143 34.2857 18.7714L29.7214 21.1714C29.3683 21.3562 28.9707 21.4388 28.5732 21.4099C28.1757 21.3811 27.7941 21.242 27.4714 21.0083C27.1486 20.7745 26.8974 20.4554 26.746 20.0868C26.5946 19.7181 26.549 19.3146 26.6143 18.9214L27.4714 13.8429L23.7857 10.2214C23.5031 9.94247 23.3036 9.59047 23.2094 9.2047C23.1152 8.81893 23.13 8.41458 23.2522 8.03676C23.3745 7.65894 23.5993 7.32251 23.9016 7.06503C24.2039 6.80754 24.5718 6.63913 24.9643 6.57857L30 5.82858L32.3571 1.2C32.5326 0.837708 32.8066 0.532165 33.1477 0.318375C33.4888 0.104585 33.8832 -0.00880432 34.2857 -0.00880432C34.6883 -0.00880432 35.0827 0.104585 35.4238 0.318375C35.7649 0.532165 36.0388 0.837708 36.2143 1.2L38.5714 5.82858L43.6929 6.57857C44.0853 6.63913 44.4532 6.80754 44.7555 7.06503C45.0579 7.32251 45.2827 7.65894 45.4049 8.03676C45.5271 8.41458 45.542 8.81893 45.4478 9.2047C45.3536 9.59047 45.154 9.94247 44.8714 10.2214L41.1 13.8429L41.9571 18.9214C42.0101 19.2282 41.9955 19.5427 41.9145 19.8433C41.8336 20.1438 41.6881 20.4231 41.4882 20.6617C41.2884 20.9003 41.0389 21.0925 40.7572 21.225C40.4755 21.3574 40.1684 21.4269 39.8571 21.4286ZM37.0071 15.3643C36.4286 12 36.4286 12.4929 38.7 10.1786C35.4429 9.70715 35.8071 10.05 34.2857 6.98572C32.7643 10.05 33.15 9.70715 29.8714 10.1786C32.2286 12.4714 32.1429 12 31.5643 15.3643C34.5 13.8214 34.0071 13.8 37.0071 15.3643Z" fill="#05058C"/>
<path d="M18.4286 36.4286C17.6357 36.4286 17.4857 36.2143 12.8571 33.7714L8.29284 36.1714C7.94834 36.348 7.56245 36.4279 7.17617 36.4027C6.78989 36.3776 6.41764 36.2482 6.09897 36.0284C5.7803 35.8087 5.52712 35.5067 5.36631 35.1546C5.20551 34.8024 5.1431 34.4133 5.1857 34.0286L6.04284 28.95L2.35713 25.2214C2.07451 24.9425 1.87497 24.5905 1.78077 24.2047C1.68657 23.8189 1.70142 23.4146 1.82365 23.0368C1.94589 22.6589 2.17071 22.3225 2.47302 22.065C2.77533 21.8075 3.14324 21.6391 3.5357 21.5786L8.57141 20.8286L10.9286 16.2C11.104 15.8377 11.378 15.5322 11.7191 15.3184C12.0602 15.1046 12.4546 14.9912 12.8571 14.9912C13.2597 14.9912 13.6541 15.1046 13.9952 15.3184C14.3363 15.5322 14.6102 15.8377 14.7857 16.2L17.1428 20.8286L22.2643 21.5786C22.6567 21.6391 23.0246 21.8075 23.327 22.065C23.6293 22.3225 23.8541 22.6589 23.9763 23.0368C24.0986 23.4146 24.1134 23.8189 24.0192 24.2047C23.925 24.5905 23.7255 24.9425 23.4428 25.2214L19.6714 28.8429L20.5286 33.9214C20.5815 34.2282 20.5669 34.5427 20.486 34.8433C20.405 35.1438 20.2595 35.4231 20.0596 35.6617C19.8598 35.9003 19.6103 36.0925 19.3286 36.225C19.047 36.3574 18.7398 36.4269 18.4286 36.4286ZM15.5786 30.3643C15 27 15 27.4929 17.2714 25.1786C14.0143 24.7071 14.3786 25.05 12.8571 21.9857C11.3357 25.05 11.7214 24.7071 8.44284 25.1786C10.8 27.4714 10.7143 27 10.1357 30.3643C13.0714 28.8214 12.5786 28.8 15.5786 30.3643Z" fill="#05058C"/>
<path d="M61.2857 36.4286C60.4929 36.4286 60.3429 36.2143 55.7143 33.7714L51.15 36.1714C50.8055 36.348 50.4196 36.4279 50.0333 36.4027C49.6471 36.3776 49.2748 36.2482 48.9561 36.0284C48.6375 35.8087 48.3843 35.5067 48.2235 35.1546C48.0627 34.8024 48.0003 34.4133 48.0429 34.0286L48.9 28.95L45.2143 25.2214C44.9317 24.9425 44.7322 24.5905 44.6379 24.2047C44.5437 23.8189 44.5586 23.4146 44.6808 23.0368C44.8031 22.6589 45.0279 22.3225 45.3302 22.065C45.6325 21.8075 46.0004 21.6391 46.3929 21.5786L51.4286 20.8286L53.7857 16.2C53.9612 15.8377 54.2352 15.5322 54.5763 15.3184C54.9173 15.1046 55.3118 14.9912 55.7143 14.9912C56.1169 14.9912 56.5113 15.1046 56.8524 15.3184C57.1934 15.5322 57.4674 15.8377 57.6429 16.2L60 20.8286L65.1214 21.5786C65.5139 21.6391 65.8818 21.8075 66.1841 22.065C66.4864 22.3225 66.7113 22.6589 66.8335 23.0368C66.9557 23.4146 66.9706 23.8189 66.8764 24.2047C66.7822 24.5905 66.5826 24.9425 66.3 25.2214L62.6143 28.8429L63.4715 33.9214C63.5258 34.2354 63.5095 34.5575 63.4236 34.8643C63.3378 35.1712 63.1846 35.455 62.9752 35.6952C62.7659 35.9353 62.5056 36.1258 62.2133 36.2526C61.921 36.3795 61.6042 36.4396 61.2857 36.4286ZM58.4357 30.3643C57.8572 27 57.75 27.4929 60.1286 25.1786C56.8714 24.7071 57.2357 25.05 55.7143 21.9857C54.1929 25.05 54.5786 24.7071 51.3 25.1786C53.6572 27.4714 53.5714 27 52.9929 30.3643C55.9286 28.8214 55.4357 28.8 58.4357 30.3643Z" fill="#05058C"/>
</g>
<defs>
<clipPath id="clip0_4989_12145">
<rect width="68.5714" height="68.5714" fill="white"/>
</clipPath>
</defs>
</svg>
