<svg width="69" height="69" viewBox="0 0 69 69" fill="none" xmlns="http://www.w3.org/2000/svg">
<rect width="68.5714" height="68.5714" fill="white"/>
<path d="M61.7411 59.9068H59.9107V34.2547C59.9107 33.7687 59.7179 33.3027 59.3746 32.959C59.0314 32.6154 58.5658 32.4224 58.0804 32.4224C57.5949 32.4224 57.1294 32.6154 56.7861 32.959C56.4428 33.3027 56.25 33.7687 56.25 34.2547V59.9068H37.9464V52.5776C37.9464 52.0917 37.7536 51.6256 37.4103 51.282C37.0671 50.9384 36.6015 50.7453 36.1161 50.7453C35.6306 50.7453 35.1651 50.9384 34.8218 51.282C34.4786 51.6256 34.2857 52.0917 34.2857 52.5776V59.9068H15.9821V41.5839C15.9821 41.0979 15.7893 40.6318 15.446 40.2882C15.1028 39.9446 14.6372 39.7516 14.1518 39.7516C13.6663 39.7516 13.2008 39.9446 12.8575 40.2882C12.5143 40.6318 12.3214 41.0979 12.3214 41.5839V59.9068H10.4911C10.0056 59.9068 9.54007 59.7138 9.19681 59.3702C8.85355 59.0265 8.66071 58.5605 8.66071 58.0745V23.2609C8.66071 22.7749 8.46787 22.3089 8.12462 21.9652C7.78136 21.6216 7.3158 21.4286 6.83036 21.4286C6.34492 21.4286 5.87936 21.6216 5.5361 21.9652C5.19284 22.3089 5 22.7749 5 23.2609V58.0745C5 59.5324 5.57852 60.9306 6.6083 61.9614C7.63807 62.9923 9.03475 63.5714 10.4911 63.5714H61.7411C62.2265 63.5714 62.6921 63.3784 63.0353 63.0348C63.3786 62.6911 63.5714 62.2251 63.5714 61.7391C63.5714 61.2532 63.3786 60.7871 63.0353 60.4435C62.6921 60.0999 62.2265 59.9068 61.7411 59.9068Z" fill="#000033"/>
<path d="M6.78571 27.1429C7.25932 27.1429 7.71352 26.9511 8.04841 26.6098C8.38329 26.2685 8.57143 25.8056 8.57143 25.3229V6.81996C8.57143 6.33728 8.38329 5.87436 8.04841 5.53305C7.71352 5.19175 7.25932 5 6.78571 5C6.31211 5 5.85791 5.19175 5.52302 5.53305C5.18814 5.87436 5 6.33728 5 6.81996V25.3229C5 25.8056 5.18814 26.2685 5.52302 26.6098C5.85791 26.9511 6.31211 27.1429 6.78571 27.1429Z" fill="#000033"/>
<path d="M34.6161 44.4641L19.4622 29.4261L15.2761 33.5932C14.9319 33.9344 14.4651 34.1261 13.9783 34.1261C13.4915 34.1261 13.0246 33.9344 12.6804 33.5932C12.3362 33.2521 12.1428 32.7893 12.1428 32.3068C12.1428 31.8243 12.3362 31.3616 12.6804 31.0205L18.1643 25.585C18.3343 25.4152 18.5364 25.2804 18.7592 25.1884C18.982 25.0965 19.2209 25.0491 19.4622 25.0491C19.7035 25.0491 19.9424 25.0965 20.1652 25.1884C20.3879 25.2804 20.5901 25.4152 20.7601 25.585L35.914 40.623L54.7238 21.9614C55.068 21.6202 55.5349 21.4286 56.0217 21.4286C56.5084 21.4286 56.9753 21.6202 57.3195 21.9614C57.6637 22.3026 57.8571 22.7653 57.8571 23.2478C57.8571 23.7303 57.6637 24.193 57.3195 24.5342L37.2118 44.4641C37.0419 44.6339 36.8397 44.7687 36.6169 44.8607C36.3942 44.9526 36.1553 45 35.914 45C35.6726 45 35.4337 44.9526 35.211 44.8607C34.9882 44.7687 34.786 44.6339 34.6161 44.4641Z" fill="#05058C"/>
<path d="M58.1428 28.5714C57.6503 28.5714 57.1779 28.3908 56.8296 28.0693C56.4813 27.7478 56.2857 27.3118 56.2857 26.8571V23.4286H52.5714C52.0788 23.4286 51.6065 23.248 51.2582 22.9265C50.9099 22.605 50.7142 22.1689 50.7142 21.7143C50.7142 21.2596 50.9099 20.8236 51.2582 20.5021C51.6065 20.1806 52.0788 20 52.5714 20H58.1428C58.6353 20 59.1077 20.1806 59.456 20.5021C59.8043 20.8236 59.9999 21.2596 59.9999 21.7143V26.8571C59.9999 27.3118 59.8043 27.7478 59.456 28.0693C59.1077 28.3908 58.6353 28.5714 58.1428 28.5714Z" fill="#05058C"/>
</svg>
