<svg width="40" height="40" viewBox="0 0 40 40" fill="none" xmlns="http://www.w3.org/2000/svg">
<rect width="40" height="40" rx="20" fill="#F4F2FA"/>
<g clip-path="url(#clip0_2490_6366)">
<path d="M20 18.667L10.777 12.518C10.7017 12.4679 10.6142 12.4392 10.5239 12.4348C10.4336 12.4305 10.3437 12.4508 10.264 12.4935C10.1843 12.5361 10.1176 12.5997 10.0711 12.6772C10.0246 12.7548 10 12.8436 10 12.934V27.066C10 27.1564 10.0246 27.2452 10.0711 27.3228C10.1176 27.4003 10.1843 27.4639 10.264 27.5065C10.3437 27.5492 10.4336 27.5695 10.5239 27.5652C10.6142 27.5608 10.7017 27.5321 10.777 27.482L20 21.333V27.066C20 27.1564 20.0246 27.2452 20.0711 27.3228C20.1176 27.4003 20.1843 27.4639 20.264 27.5065C20.3437 27.5492 20.4336 27.5695 20.5239 27.5652C20.6142 27.5608 20.7017 27.5321 20.777 27.482L31.376 20.416C31.4445 20.3703 31.5006 20.3085 31.5395 20.2359C31.5783 20.1633 31.5986 20.0823 31.5986 20C31.5986 19.9177 31.5783 19.8367 31.5395 19.7641C31.5006 19.6915 31.4445 19.6297 31.376 19.584L20.777 12.518C20.7017 12.4679 20.6142 12.4392 20.5239 12.4348C20.4336 12.4305 20.3437 12.4508 20.264 12.4935C20.1843 12.5361 20.1176 12.5997 20.0711 12.6772C20.0246 12.7548 20 12.8436 20 12.934V18.667Z" fill="#05058C"/>
</g>
<defs>
<clipPath id="clip0_2490_6366">
<rect width="24" height="24" fill="white" transform="matrix(-1 0 0 1 32 8)"/>
</clipPath>
</defs>
</svg>
