<svg width="32" height="32" viewBox="0 0 32 32" fill="none" xmlns="http://www.w3.org/2000/svg">
<g clip-path="url(#clip0_725_2434)">
<path d="M31 11H25.57L19.86 1.48996C19.7144 1.28975 19.4997 1.15067 19.2575 1.09962C19.0152 1.04857 18.7627 1.08919 18.5486 1.21362C18.3346 1.33805 18.1744 1.53744 18.0989 1.77321C18.0234 2.00898 18.038 2.26437 18.14 2.48996L23.23 11H8.77L13.86 2.50996C13.962 2.28437 13.9766 2.02898 13.9011 1.79321C13.8256 1.55744 13.6654 1.35805 13.4514 1.23362C13.2373 1.10919 12.9848 1.06857 12.7425 1.11962C12.5003 1.17067 12.2856 1.30975 12.14 1.50996L6.43 11H1C0.734784 11 0.48043 11.1053 0.292893 11.2929C0.105357 11.4804 0 11.7347 0 12L0 16C0 16.2652 0.105357 16.5195 0.292893 16.7071C0.48043 16.8946 0.734784 17 1 17C1.19 17 0.95 15.73 2.76 28.42C2.86188 29.1408 3.2224 29.8 3.77436 30.2747C4.32631 30.7493 5.03204 31.0071 5.76 31H11C11.2652 31 11.5196 30.8946 11.7071 30.7071C11.8946 30.5195 12 30.2652 12 30C12 29.7347 11.8946 29.4804 11.7071 29.2929C11.5196 29.1053 11.2652 29 11 29H5.73C5.48735 29.0024 5.2521 28.9164 5.06812 28.7582C4.88413 28.6 4.76396 28.3802 4.73 28.14L3.15 17H28.85L27.25 28.14C27.216 28.3802 27.0959 28.6 26.9119 28.7582C26.7279 28.9164 26.4927 29.0024 26.25 29H15C14.7348 29 14.4804 29.1053 14.2929 29.2929C14.1054 29.4804 14 29.7347 14 30C14 30.2652 14.1054 30.5195 14.2929 30.7071C14.4804 30.8946 14.7348 31 15 31H26.27C26.998 31.0071 27.7037 30.7493 28.2556 30.2747C28.8076 29.8 29.1681 29.1408 29.27 28.42L30.87 17C31.0118 17.0186 31.1559 17.0065 31.2927 16.9647C31.4295 16.9228 31.5556 16.8521 31.6628 16.7573C31.7699 16.6625 31.8554 16.5459 31.9136 16.4152C31.9717 16.2846 32.0012 16.143 32 16V12C32 11.7347 31.8946 11.4804 31.7071 11.2929C31.5196 11.1053 31.2652 11 31 11ZM2 15V13H30V15H2Z" fill="#000033"/>
<path d="M16 27C15.7348 27 15.4804 26.8946 15.2929 26.7071C15.1054 26.5196 15 26.2652 15 26V20C15 19.7348 15.1054 19.4804 15.2929 19.2929C15.4804 19.1054 15.7348 19 16 19C16.2652 19 16.5196 19.1054 16.7071 19.2929C16.8946 19.4804 17 19.7348 17 20V26C17 26.2652 16.8946 26.5196 16.7071 26.7071C16.5196 26.8946 16.2652 27 16 27Z" fill="#100FA8"/>
<path d="M10 27C9.76033 27.0031 9.52751 26.92 9.34396 26.7658C9.16041 26.6116 9.03836 26.3966 9.00002 26.16L8.00002 20.16C7.97901 20.0287 7.98407 19.8945 8.01491 19.7652C8.04576 19.6358 8.10178 19.5138 8.17978 19.4061C8.25778 19.2983 8.35623 19.207 8.46952 19.1374C8.5828 19.0677 8.7087 19.021 8.84002 19C8.97135 18.979 9.10552 18.9841 9.23489 19.0149C9.36425 19.0458 9.48628 19.1018 9.59399 19.1798C9.70171 19.2578 9.79301 19.3562 9.86267 19.4695C9.93234 19.5828 9.97901 19.7087 10 19.84L11 25.84C11.0234 25.9841 11.0149 26.1315 10.9753 26.272C10.9356 26.4124 10.8656 26.5425 10.7703 26.653C10.675 26.7636 10.5567 26.8519 10.4236 26.9119C10.2905 26.9718 10.146 27.0019 10 27Z" fill="#100FA8"/>
<path d="M22.0002 27C21.8543 27.0019 21.7097 26.9718 21.5766 26.9119C21.4435 26.8519 21.3252 26.7636 21.2299 26.653C21.1346 26.5425 21.0647 26.4124 21.025 26.272C20.9853 26.1315 20.9768 25.9841 21.0002 25.84L22.0002 19.84C22.0426 19.5748 22.1887 19.3373 22.4062 19.1798C22.6238 19.0223 22.895 18.9576 23.1602 19C23.4254 19.0425 23.6629 19.1885 23.8204 19.4061C23.978 19.6236 24.0426 19.8948 24.0002 20.16L23.0002 26.16C22.9619 26.3967 22.8398 26.6116 22.6563 26.7658C22.4727 26.92 22.2399 27.0031 22.0002 27Z" fill="#100FA8"/>
</g>
<defs>
<clipPath id="clip0_725_2434">
<rect width="32" height="32" fill="white"/>
</clipPath>
</defs>
</svg>
