<svg width="32" height="32" viewBox="0 0 32 32" fill="none" xmlns="http://www.w3.org/2000/svg">
<path d="M21.3196 12.7708C22.8244 11.9788 23.7748 10.5532 23.7748 8.70519C23.7748 5.82759 21.3988 3.90039 16.7788 3.90039H7.75V22.3804H17.3068C22.1644 22.3804 24.6988 20.5324 24.6988 17.338C24.6988 15.0148 23.3788 13.4308 21.3196 12.7708ZM16.2508 7.12119C18.3364 7.12119 19.4716 7.83399 19.4716 9.28599C19.4716 10.738 18.3364 11.4772 16.2508 11.4772H12.0004V7.12119H16.2508ZM16.99 19.1596H12.0004V14.5924H16.99C19.2076 14.5924 20.3956 15.3316 20.3956 16.8892C20.3956 18.4732 19.2076 19.1596 16.99 19.1596Z" fill="#000033"/>
<path fill-rule="evenodd" clip-rule="evenodd" d="M27 28.1008H5V24.8008H27V28.1008Z" fill="#000033"/>
</svg>
