<svg width="32" height="32" viewBox="0 0 32 32" fill="none" xmlns="http://www.w3.org/2000/svg">
<path d="M27.163 17.6942L25.4999 13.172C25.171 7.49787 20.4882 3.00065 14.7595 3C8.81763 3.00076 4.00098 7.8402 4.00098 13.8104C4.00249 15.507 4.38584 17.5164 5.30661 19.3752C6.17955 21.1388 7.55136 22.7692 9.53958 23.7864V29.4527C9.53958 29.5963 9.59773 29.738 9.69867 29.8394C9.80036 29.9416 9.94056 30 10.0843 30H18.9412C19.0842 30 19.2252 29.9416 19.3261 29.8394C19.4278 29.738 19.4859 29.5963 19.4859 29.4527V26.2676H22.0785C23.6333 26.2676 24.8926 25.0015 24.8934 23.4392V20.5015L26.078 20.0621C26.818 19.7862 27.2768 19.0828 27.2768 18.3327C27.2768 18.1199 27.2398 17.9034 27.1631 17.694L27.163 17.6942ZM25.7003 19.0352L24.1602 19.6066C23.946 19.6863 23.8042 19.8904 23.8042 20.1203V23.4389C23.8027 24.3962 23.0315 25.1712 22.0788 25.1734H18.9415C18.7977 25.1734 18.6575 25.2311 18.5566 25.3333C18.4549 25.4355 18.3968 25.5763 18.3968 25.7208V28.9054H10.6294V23.4435C10.6294 23.2305 10.5053 23.0355 10.3128 22.9465C8.41587 22.0658 7.1181 20.5713 6.28164 18.8871C5.44646 17.2064 5.09006 15.3407 5.09057 13.8105C5.09057 11.1259 6.1719 8.70039 7.9228 6.94001C9.67447 5.18145 12.0884 4.09491 14.7603 4.09413C19.9339 4.09337 24.1598 8.1791 24.4169 13.3117L24.4504 13.4743L26.1416 18.0729C26.1728 18.1592 26.1874 18.246 26.1882 18.3319C26.1877 18.6365 26.0017 18.9233 25.7011 19.0348L25.7003 19.0352Z" fill="#000033" stroke="#000033" stroke-width="0.8"/>
<path d="M9.99284 12.4998C9.99285 12.4998 9.99285 12.4998 9.99285 12.4998C9.99285 12.3986 9.99755 12.2986 10.0062 12.1997C10.0147 12.1023 9.98025 12.0055 9.90828 11.9394L9.32519 11.4041C9.12731 11.2224 9.04832 10.9394 9.15202 10.6916C9.25534 10.4447 9.50897 10.3048 9.77636 10.3161L10.2664 10.3369C10.5526 10.3491 10.8217 10.2159 11.0243 10.0134C11.2268 9.81105 11.3599 9.54218 11.3478 9.25612L11.3276 8.77957C11.3161 8.50883 11.4584 8.25219 11.709 8.14896C11.9581 8.04632 12.2417 8.12619 12.4241 8.32458L12.7476 8.6766C12.9416 8.88757 13.226 8.98264 13.5125 8.98264C13.7991 8.98264 14.0835 8.88761 14.2775 8.67668L14.5906 8.33623C14.7757 8.135 15.0637 8.05459 15.3158 8.16043C15.5665 8.26571 15.7083 8.52362 15.6968 8.79531L15.6772 9.25591C15.6651 9.54216 15.7984 9.81122 16.001 10.0137C16.2036 10.2161 16.4725 10.3493 16.7586 10.3371L17.2091 10.3181C17.4834 10.3064 17.7436 10.45 17.8487 10.7036C17.9538 10.957 17.8724 11.2457 17.6703 11.4313L17.3383 11.7361C17.1276 11.9297 17.0327 12.2136 17.0327 12.4998C17.0327 12.7862 17.1277 13.0706 17.3387 13.2643L17.6703 13.5689C17.8723 13.7544 17.9538 14.043 17.8487 14.2964C17.7435 14.5501 17.4831 14.6937 17.2087 14.6821L16.7583 14.663C16.4724 14.6508 16.2035 14.784 16.0011 14.9863C15.7984 15.189 15.665 15.458 15.6772 15.7444L15.6967 16.2049C15.7082 16.4766 15.5665 16.7345 15.3157 16.8397C15.0636 16.9456 14.7754 16.8652 14.5904 16.6639L14.2772 16.3233C14.0833 16.1124 13.799 16.0174 13.5125 16.0174C13.226 16.0174 12.9415 16.1125 12.7476 16.3234L12.424 16.6755C12.2417 16.8738 11.9582 16.9538 11.709 16.8512C11.4584 16.748 11.3161 16.4913 11.3276 16.2206L11.3478 15.7438C11.3599 15.4578 11.2268 15.189 11.0243 14.9867C10.8216 14.7842 10.5525 14.6509 10.2663 14.6631L9.77644 14.684C9.509 14.6954 9.25526 14.5555 9.1519 14.3086C9.04815 14.0607 9.1272 13.7776 9.32513 13.5959L9.90813 13.0607C9.98012 12.9946 10.0147 12.8977 10.0062 12.8004C9.99758 12.7014 9.99284 12.6012 9.99284 12.4998C9.99284 12.4998 9.99284 12.4998 9.99284 12.4998ZM13.4978 14.4133C14.5554 14.4133 15.4127 13.5568 15.4127 12.4999C15.4127 11.4433 14.5555 10.5866 13.4978 10.5866C12.4404 10.5866 11.5833 11.4432 11.5833 12.4999C11.5834 13.5567 12.4404 14.4133 13.4978 14.4133Z" fill="#100FA8"/>
</svg>
