<svg width="32" height="32" viewBox="0 0 32 32" fill="none" xmlns="http://www.w3.org/2000/svg">
<path d="M6.71389 24H8.85675C9.25137 24 9.57112 23.6963 9.57112 23.3217C9.57112 22.9469 9.25137 22.6432 8.85675 22.6432H6.71389C5.18279 22.6432 3.76794 21.8673 3.00239 20.608C2.23684 19.3487 2.23684 17.7968 3.00239 16.5375C3.76794 15.2782 5.18279 14.5023 6.71389 14.5023H7.42826C7.61768 14.5023 7.79944 14.4307 7.93336 14.3035C8.06729 14.1763 8.14263 14.0037 8.14263 13.8238C8.14263 11.1577 9.64 8.69406 12.071 7.36098C14.5021 6.02783 17.4973 6.02783 19.9286 7.36098C22.3597 8.69389 23.857 11.1575 23.857 13.8238C23.857 14.0037 23.9324 14.1763 24.0663 14.3035C24.2002 14.4307 24.382 14.5023 24.5714 14.5023H25.2858C26.8169 14.5023 28.2317 15.2782 28.9973 16.5375C29.7628 17.7968 29.7628 19.3487 28.9973 20.608C28.2317 21.8673 26.8169 22.6432 25.2858 22.6432H23.1429C22.7483 22.6432 22.4285 22.9469 22.4285 23.3217C22.4285 23.6963 22.7483 24 23.1429 24H25.2858C27.3273 24 29.2137 22.9656 30.2344 21.2865C31.2552 19.6072 31.2552 17.5383 30.2344 15.859C29.2137 14.1799 27.3273 13.1455 25.2858 13.1455H25.2585C25.0179 10.1635 23.2027 7.50042 20.4363 6.07156C17.67 4.64281 14.3299 4.64281 11.5637 6.07156C8.79729 7.50053 6.9821 10.1636 6.74148 13.1455H6.71422C4.67274 13.1455 2.78629 14.1799 1.76555 15.859C0.744816 17.5383 0.744816 19.6072 1.76555 21.2865C2.78629 22.9656 4.67274 24 6.71422 24H6.71389Z" fill="#000033" stroke="#000033" stroke-width="0.75"/>
<path d="M15.2837 28.2753L12.2123 25.0557C11.9315 24.7715 11.4855 24.7755 11.2095 25.0648C10.9336 25.3543 10.9298 25.8218 11.2007 26.1161L15.4934 30.6157C15.6277 30.7568 15.81 30.8362 16 30.8362C16.19 30.8362 16.3723 30.7568 16.5066 30.6157L20.7993 26.1161C21.0702 25.8218 21.0664 25.3542 20.7905 25.0648C20.5145 24.7755 20.0682 24.7715 19.7875 25.0557L16.7149 28.2753V19.75C16.7149 19.3359 16.3943 19 15.9993 19C15.6043 19 15.2838 19.3359 15.2838 19.75L15.2837 28.2753Z" fill="#100FA8" stroke="#100FA8" stroke-width="0.7"/>
</svg>
