<svg width="32" height="32" viewBox="0 0 32 32" fill="none" xmlns="http://www.w3.org/2000/svg">
<g clip-path="url(#clip0_725_2431)">
<path d="M31 26H3V9C3 8.73478 3.10536 8.48043 3.29289 8.29289C3.48043 8.10536 3.73478 8 4 8H10C10.2652 8 10.5196 7.89464 10.7071 7.70711C10.8946 7.51957 11 7.26522 11 7C11 6.73478 10.8946 6.48043 10.7071 6.29289C10.5196 6.10536 10.2652 6 10 6H4C3.20435 6 2.44129 6.31607 1.87868 6.87868C1.31607 7.44129 1 8.20435 1 9V26C0.734784 26 0.48043 26.1054 0.292893 26.2929C0.105357 26.4804 0 26.7348 0 27L0 29C0 29.7956 0.31607 30.5587 0.87868 31.1213C1.44129 31.6839 2.20435 32 3 32H29C29.7956 32 30.5587 31.6839 31.1213 31.1213C31.6839 30.5587 32 29.7956 32 29V27C32 26.7348 31.8946 26.4804 31.7071 26.2929C31.5196 26.1054 31.2652 26 31 26ZM30 29C30 29.2652 29.8946 29.5196 29.7071 29.7071C29.5196 29.8946 29.2652 30 29 30H3C2.73478 30 2.48043 29.8946 2.29289 29.7071C2.10536 29.5196 2 29.2652 2 29V28H30V29Z" fill="#000033"/>
<path d="M22 8H28C28.2652 8 28.5196 8.10536 28.7071 8.29289C28.8946 8.48043 29 8.73478 29 9V25.9881C29 26.2533 29.1054 26.5076 29.2929 26.6952C29.4804 26.8827 29.7348 26.9881 30 26.9881C30.2652 26.9881 30.5196 26.8827 30.7071 26.6952C30.8946 26.5076 31 26.2533 31 25.9881V9C31 8.20435 30.6839 7.44129 30.1213 6.87868C29.5587 6.31607 28.7956 6 28 6H22C21.7348 6 21.4804 6.10536 21.2929 6.29289C21.1054 6.48043 21 6.73478 21 7C21 7.26522 21.1054 7.51957 21.2929 7.70711C21.4804 7.89464 21.7348 8 22 8Z" fill="#000033"/>
<path d="M26.7098 16.2898L21.5998 11.1798C22.6585 9.76211 23.1411 7.99609 22.9505 6.23701C22.7598 4.47792 21.9101 2.8563 20.5722 1.69836C19.2344 0.540421 17.5076 -0.0679101 15.7394 -0.00425338C13.9711 0.0594033 12.2926 0.790325 11.0415 2.04147C9.79033 3.29261 9.0594 4.97114 8.99575 6.73938C8.93209 8.50762 9.54042 10.2344 10.6984 11.5722C11.8563 12.9101 13.4779 13.7598 15.237 13.9505C16.9961 14.1411 18.7621 13.6585 20.1798 12.5998L25.2898 17.7098C25.3832 17.8025 25.494 17.8758 25.6159 17.9255C25.7377 17.9753 25.8682 18.0005 25.9998 17.9998C26.1984 18.0009 26.3929 17.9429 26.5584 17.8331C26.7239 17.7233 26.853 17.5667 26.9291 17.3833C27.0053 17.1998 27.0251 16.9978 26.9861 16.8031C26.947 16.6083 26.8508 16.4296 26.7098 16.2898ZM10.9998 6.99978C10.9996 6.17774 11.2021 5.36835 11.5894 4.64325C11.9766 3.91815 12.5367 3.29971 13.2199 2.84269C13.9032 2.38567 14.6886 2.10416 15.5067 2.02309C16.3247 1.94202 17.1501 2.06389 17.9098 2.37791C18.6695 2.69192 19.34 3.1884 19.8621 3.82339C20.3841 4.45837 20.7415 5.21228 20.9027 6.01835C21.0639 6.82443 21.0239 7.65781 20.7861 8.44472C20.5484 9.23162 20.1203 9.94778 19.5398 10.5298C18.8411 11.2302 17.9503 11.7077 16.9801 11.9017C16.01 12.0956 15.0041 11.9975 14.0898 11.6195C13.1754 11.2416 12.3938 10.6009 11.8437 9.77854C11.2937 8.95618 11 7.98913 10.9998 6.99978Z" fill="#100FA8"/>
<path d="M14 24C13.7348 24 13.4804 23.8946 13.2929 23.7071C13.1054 23.5196 13 23.2652 13 23V20C13 19.7348 13.1054 19.4804 13.2929 19.2929C13.4804 19.1054 13.7348 19 14 19C14.2652 19 14.5196 19.1054 14.7071 19.2929C14.8946 19.4804 15 19.7348 15 20V23C15 23.2652 14.8946 23.5196 14.7071 23.7071C14.5196 23.8946 14.2652 24 14 24Z" fill="#100FA8"/>
<path d="M18 24C17.7348 24 17.4804 23.8946 17.2929 23.7071C17.1054 23.5196 17 23.2652 17 23V17C17 16.7348 17.1054 16.4804 17.2929 16.2929C17.4804 16.1054 17.7348 16 18 16C18.2652 16 18.5196 16.1054 18.7071 16.2929C18.8946 16.4804 19 16.7348 19 17V23C19 23.2652 18.8946 23.5196 18.7071 23.7071C18.5196 23.8946 18.2652 24 18 24Z" fill="#100FA8"/>
<path d="M10 24C9.73478 24 9.48043 23.8946 9.29289 23.7071C9.10536 23.5196 9 23.2652 9 23V19C9 18.7348 9.10536 18.4804 9.29289 18.2929C9.48043 18.1054 9.73478 18 10 18C10.2652 18 10.5196 18.1054 10.7071 18.2929C10.8946 18.4804 11 18.7348 11 19V23C11 23.2652 10.8946 23.5196 10.7071 23.7071C10.5196 23.8946 10.2652 24 10 24Z" fill="#100FA8"/>
<path d="M6 24C5.73478 24 5.48043 23.8946 5.29289 23.7071C5.10536 23.5196 5 23.2652 5 23V22C5 21.7348 5.10536 21.4804 5.29289 21.2929C5.48043 21.1054 5.73478 21 6 21C6.26522 21 6.51957 21.1054 6.70711 21.2929C6.89464 21.4804 7 21.7348 7 22V23C7 23.2652 6.89464 23.5196 6.70711 23.7071C6.51957 23.8946 6.26522 24 6 24Z" fill="#100FA8"/>
</g>
<defs>
<clipPath id="clip0_725_2431">
<rect width="32" height="32" fill="white"/>
</clipPath>
</defs>
</svg>
