<svg width="32" height="32" viewBox="0 0 32 32" fill="none" xmlns="http://www.w3.org/2000/svg">
<g clip-path="url(#clip0_725_2437)">
<path d="M27.7109 26.2999L24.4509 22.9999C25.8876 21.3035 26.7767 19.2116 27.0009 16.9999H30.0009C30.2661 16.9999 30.5204 16.8945 30.708 16.707C30.8955 16.5195 31.0009 16.2651 31.0009 15.9999C31.0009 15.7347 30.8955 15.4803 30.708 15.2928C30.5204 15.1052 30.2661 14.9999 30.0009 14.9999H27.0009C26.791 12.7937 25.9196 10.7024 24.5009 8.99989L27.7109 5.69989C28.3494 6.00567 29.0755 6.07578 29.7607 5.89782C30.4459 5.71987 31.0461 5.30532 31.4552 4.72749C31.8642 4.14966 32.0557 3.44578 31.9959 2.74036C31.936 2.03494 31.6285 1.37343 31.1279 0.872825C30.6273 0.372222 29.9658 0.0647883 29.2604 0.00489876C28.555 -0.0549908 27.8511 0.136523 27.2733 0.545568C26.6954 0.954612 26.2809 1.55483 26.1029 2.24006C25.925 2.92529 25.9951 3.65137 26.3009 4.28989L23.0009 7.54989C21.2984 6.13118 19.207 5.2598 17.0009 5.04989V1.99989C17.0009 1.73467 16.8955 1.48032 16.708 1.29278C16.5204 1.10525 16.2661 0.999889 16.0009 0.999889C15.7356 0.999889 15.4813 1.10525 15.2938 1.29278C15.1062 1.48032 15.0009 1.73467 15.0009 1.99989V5.04989C12.7947 5.2598 10.7034 6.13118 9.00086 7.54989L5.70087 4.28989C6.00664 3.65137 6.07676 2.92529 5.8988 2.24006C5.72085 1.55483 5.30629 0.954612 4.72846 0.545568C4.15063 0.136523 3.44676 -0.0549908 2.74134 0.00489876C2.03592 0.0647883 1.3744 0.372222 0.873801 0.872825C0.373199 1.37343 0.0657649 2.03494 0.00587533 2.74036C-0.0540142 3.44578 0.1375 4.14966 0.546544 4.72749C0.955589 5.30532 1.55581 5.71987 2.24103 5.89782C2.92626 6.07578 3.65235 6.00567 4.29087 5.69989L7.55087 8.99989C6.13216 10.7024 5.26077 12.7937 5.05087 14.9999H2.00087C1.73565 14.9999 1.48129 15.1052 1.29376 15.2928C1.10622 15.4803 1.00087 15.7347 1.00087 15.9999C1.00087 16.2651 1.10622 16.5195 1.29376 16.707C1.48129 16.8945 1.73565 16.9999 2.00087 16.9999H5.06087C5.25764 19.2057 6.12284 21.2989 7.54087 22.9999L4.29087 26.2999C3.65235 25.9941 2.92626 25.924 2.24103 26.102C1.55581 26.2799 0.955589 26.6945 0.546544 27.2723C0.1375 27.8501 -0.0540142 28.554 0.00587533 29.2594C0.0657649 29.9648 0.373199 30.6264 0.873801 31.127C1.3744 31.6276 2.03592 31.935 2.74134 31.9949C3.44676 32.0548 4.15063 31.8633 4.72846 31.4542C5.30629 31.0452 5.72085 30.4449 5.8988 29.7597C6.07676 29.0745 6.00664 28.3484 5.70087 27.7099L9.00086 24.4399C9.15086 24.5599 9.28087 24.6899 9.43087 24.7999C9.53592 24.8787 9.65547 24.936 9.78268 24.9686C9.9099 25.0012 10.0423 25.0084 10.1723 24.9898C10.3023 24.9713 10.4274 24.9273 10.5404 24.8604C10.6534 24.7935 10.7521 24.7049 10.8309 24.5999C10.9097 24.4948 10.967 24.3753 10.9996 24.2481C11.0322 24.1209 11.0394 23.9885 11.0208 23.8585C11.0022 23.7285 10.9582 23.6034 10.8913 23.4904C10.8244 23.3774 10.7359 23.2787 10.6309 23.1999C9.50293 22.3691 8.58653 21.2843 7.95588 20.0335C7.32522 18.7826 6.99805 17.4008 7.00087 15.9999C7.00124 14.1427 7.57616 12.3311 8.64677 10.8135C9.71738 9.29598 11.2313 8.14679 12.9808 7.52358C14.7303 6.90036 16.6297 6.83365 18.4187 7.33257C20.2076 7.8315 21.7984 8.87164 22.9728 10.3103C24.1473 11.749 24.8479 13.5158 24.9786 15.3684C25.1092 17.221 24.6636 19.0687 23.7028 20.658C22.7419 22.2473 21.3129 23.5005 19.6117 24.2456C17.9106 24.9907 16.0205 25.1913 14.2009 24.8199C14.0695 24.7936 13.9343 24.7935 13.803 24.8195C13.6716 24.8455 13.5466 24.8971 13.4352 24.9714C13.3237 25.0456 13.228 25.1412 13.1535 25.2524C13.079 25.3637 13.0271 25.4886 13.0009 25.6199C12.9746 25.7512 12.9745 25.8864 13.0004 26.0178C13.0264 26.1492 13.0781 26.2741 13.1523 26.3856C13.2266 26.497 13.3221 26.5927 13.4334 26.6672C13.5447 26.7418 13.6695 26.7936 13.8009 26.8199C14.2009 26.8999 14.6009 26.9499 15.0009 26.9899V29.9999C15.0009 30.2651 15.1062 30.5195 15.2938 30.707C15.4813 30.8945 15.7356 30.9999 16.0009 30.9999C16.2661 30.9999 16.5204 30.8945 16.708 30.707C16.8955 30.5195 17.0009 30.2651 17.0009 29.9999V26.9999C19.207 26.79 21.2984 25.9186 23.0009 24.4999L26.2709 27.7599C25.9651 28.3984 25.895 29.1245 26.0729 29.8097C26.2509 30.4949 26.6654 31.0952 27.2433 31.5042C27.8211 31.9133 28.525 32.1048 29.2304 32.0449C29.9358 31.985 30.5973 31.6776 31.0979 31.177C31.5985 30.6764 31.906 30.0148 31.9659 29.3094C32.0257 28.604 31.8342 27.9001 31.4252 27.3223C31.0161 26.7445 30.4159 26.3299 29.7307 26.152C29.0455 25.974 28.3194 26.0441 27.6809 26.3499L27.7109 26.2999ZM3.00087 29.9999C2.83641 30.0006 2.67433 29.9607 2.52897 29.8838C2.38361 29.8069 2.25946 29.6953 2.16753 29.5589C2.07559 29.4226 2.0187 29.2657 2.0019 29.1021C1.9851 28.9385 2.00891 28.7732 2.07121 28.6211C2.13351 28.4689 2.23239 28.3344 2.35908 28.2295C2.48577 28.1247 2.63637 28.0527 2.79753 28.0199C2.95869 27.9872 3.12544 27.9947 3.28301 28.0418C3.44058 28.0889 3.5841 28.1741 3.70087 28.2899V28.2899C3.84129 28.4292 3.93726 28.6069 3.97664 28.8008C4.01603 28.9946 3.99706 29.1957 3.92213 29.3787C3.84721 29.5618 3.71969 29.7185 3.55571 29.829C3.39172 29.9396 3.19864 29.9991 3.00087 29.9999V29.9999ZM29.0009 1.99989C29.1653 1.9992 29.3274 2.03908 29.4728 2.11599C29.6181 2.19291 29.7423 2.30449 29.8342 2.44085C29.9261 2.5772 29.983 2.73413 29.9998 2.89772C30.0166 3.06131 29.9928 3.22653 29.9305 3.37872C29.8682 3.53092 29.7693 3.6654 29.6426 3.77026C29.516 3.87511 29.3654 3.9471 29.2042 3.97985C29.043 4.0126 28.8763 4.0051 28.7187 3.95801C28.5612 3.91092 28.4176 3.8257 28.3009 3.70989V3.70989C28.1604 3.57062 28.0645 3.39284 28.0251 3.19902C27.9857 3.00521 28.0047 2.80407 28.0796 2.62104C28.1545 2.438 28.282 2.2813 28.446 2.17074C28.61 2.06017 28.8031 2.00072 29.0009 1.99989V1.99989ZM2.00087 2.99989C2.00018 2.83544 2.04006 2.67335 2.11697 2.52799C2.19389 2.38263 2.30547 2.25849 2.44182 2.16655C2.57818 2.07462 2.7351 2.01773 2.8987 2.00093C3.06229 1.98413 3.2275 2.00793 3.3797 2.07024C3.5319 2.13254 3.66638 2.23141 3.77123 2.35811C3.87609 2.4848 3.94808 2.63539 3.98083 2.79655C4.01358 2.95771 4.00607 3.12446 3.95899 3.28203C3.9119 3.4396 3.82667 3.58312 3.71087 3.69989C3.57159 3.84031 3.39381 3.93628 3.2 3.97567C3.00619 4.01505 2.80505 3.99608 2.62201 3.92116C2.43898 3.84623 2.28228 3.71871 2.17171 3.55473C2.06115 3.39075 2.00169 3.19766 2.00087 2.99989V2.99989ZM29.0009 29.9999C28.8043 29.9991 28.6123 29.9403 28.4489 29.831C28.2855 29.7217 28.158 29.5667 28.0822 29.3853C28.0065 29.2039 27.9859 29.0042 28.023 28.8111C28.0601 28.6181 28.1533 28.4403 28.2909 28.2999V28.2999C28.4064 28.182 28.5493 28.0946 28.7069 28.0454C28.8644 27.9962 29.0317 27.9867 29.1938 28.0179C29.3558 28.049 29.5077 28.1198 29.6358 28.2239C29.7638 28.328 29.8641 28.4622 29.9278 28.6145C29.9914 28.7668 30.0163 28.9325 30.0003 29.0968C29.9843 29.261 29.9279 29.4188 29.8361 29.556C29.7444 29.6931 29.62 29.8055 29.4743 29.8829C29.3286 29.9604 29.1659 30.0006 29.0009 29.9999V29.9999Z" fill="#000033"/>
<path d="M5.7255 27.7348L9.0255 24.4748C10.7219 25.9116 12.8138 26.8006 15.0255 27.0248L15.0255 30.0248C15.0255 30.29 15.1309 30.5444 15.3184 30.7319C15.5059 30.9194 15.7603 31.0248 16.0255 31.0248C16.2907 31.0248 16.5451 30.9194 16.7326 30.7319C16.9201 30.5444 17.0255 30.29 17.0255 30.0248L17.0255 27.0248C19.2317 26.8149 21.323 25.9435 23.0255 24.5248L26.3255 27.7348C26.0197 28.3733 25.9496 29.0994 26.1276 29.7846C26.3055 30.4699 26.7201 31.0701 27.2979 31.4791C27.8757 31.8882 28.5796 32.0797 29.285 32.0198C29.9904 31.9599 30.652 31.6525 31.1526 31.1519C31.6532 30.6513 31.9606 29.9897 32.0205 29.2843C32.0804 28.5789 31.8889 27.875 31.4798 27.2972C31.0708 26.7194 30.4706 26.3048 29.7853 26.1269C29.1001 25.9489 28.374 26.019 27.7355 26.3248L24.4755 23.0248C25.8942 21.3223 26.7656 19.231 26.9755 17.0248L30.0255 17.0248C30.2907 17.0248 30.5451 16.9194 30.7326 16.7319C30.9201 16.5444 31.0255 16.29 31.0255 16.0248C31.0255 15.7596 30.9201 15.5052 30.7326 15.3177C30.5451 15.1301 30.2907 15.0248 30.0255 15.0248L26.9755 15.0248C26.7656 12.8186 25.8942 10.7273 24.4755 9.02479L27.7355 5.72479C28.374 6.03057 29.1001 6.10068 29.7853 5.92273C30.4706 5.74477 31.0708 5.33022 31.4798 4.75239C31.8889 4.17456 32.0804 3.47068 32.0205 2.76526C31.9606 2.05984 31.6532 1.39833 31.1526 0.897727C30.652 0.397125 29.9905 0.0896906 29.285 0.029801C28.5796 -0.0300886 27.8757 0.161425 27.2979 0.57047C26.7201 0.979514 26.3055 1.57973 26.1276 2.26496C25.9496 2.95019 26.0197 3.67627 26.3255 4.31479L23.0255 7.57479C21.323 6.15608 19.2317 5.2847 17.0255 5.07479L17.0255 2.02479C17.0255 1.75957 16.9201 1.50522 16.7326 1.31768C16.5451 1.13015 16.2907 1.02479 16.0255 1.02479C15.7603 1.02479 15.5059 1.13015 15.3184 1.31768C15.1309 1.50522 15.0255 1.75957 15.0255 2.02479L15.0255 5.08479C12.8197 5.28156 10.7265 6.14676 9.0255 7.56479L5.7255 4.31479C6.03128 3.67627 6.10139 2.95019 5.92343 2.26496C5.74548 1.57973 5.33092 0.979513 4.75309 0.570469C4.17526 0.161424 3.47139 -0.0300897 2.76597 0.0297998C2.06055 0.0896894 1.39904 0.397123 0.898434 0.897726C0.397831 1.39833 0.0903994 2.05984 0.0305098 2.76526C-0.0293798 3.47068 0.162132 4.17456 0.571176 4.75239C0.980221 5.33022 1.58044 5.74477 2.26567 5.92273C2.9509 6.10068 3.67698 6.03057 4.3155 5.72479L7.5855 9.02479C7.4655 9.17479 7.3355 9.30479 7.2255 9.45479C7.14671 9.55985 7.08938 9.6794 7.05678 9.80661C7.02419 9.93382 7.01698 10.0662 7.03555 10.1962C7.05412 10.3262 7.09812 10.4513 7.16502 10.5643C7.23193 10.6773 7.32044 10.776 7.4255 10.8548C7.53055 10.9336 7.6501 10.9909 7.77732 11.0235C7.90453 11.0561 8.03692 11.0633 8.16692 11.0447C8.29692 11.0262 8.42199 10.9822 8.53499 10.9153C8.64799 10.8484 8.7467 10.7598 8.8255 10.6548C9.65628 9.52686 10.741 8.61045 11.9919 7.9798C13.2428 7.34915 14.6246 7.02198 16.0255 7.02479C17.8827 7.02517 19.6943 7.60009 21.2119 8.6707C22.7294 9.74131 23.8786 11.2552 24.5018 13.0047C25.125 14.7542 25.1917 16.6537 24.6928 18.4426C24.1939 20.2315 23.1538 21.8223 21.7151 22.9967C20.2764 24.1712 18.5096 24.8718 16.657 25.0025C14.8044 25.1332 12.9567 24.6875 11.3674 23.7267C9.77805 22.7658 8.5249 21.3368 7.77978 19.6357C7.03466 17.9345 6.83406 16.0445 7.2055 14.2248C7.23176 14.0935 7.2319 13.9583 7.20591 13.8269C7.17992 13.6955 7.12831 13.5705 7.05403 13.4591C6.97974 13.3477 6.88423 13.252 6.77296 13.1774C6.66168 13.1029 6.53682 13.0511 6.4055 13.0248C6.27417 12.9985 6.13897 12.9984 6.00759 13.0244C5.87621 13.0504 5.75124 13.102 5.63981 13.1763C5.52838 13.2505 5.43267 13.3461 5.35815 13.4573C5.28363 13.5686 5.23176 13.6935 5.2055 13.8248C5.1255 14.2248 5.0755 14.6248 5.0355 15.0248L2.0255 15.0248C1.76028 15.0248 1.50593 15.1301 1.31839 15.3177C1.13085 15.5052 1.0255 15.7596 1.0255 16.0248C1.0255 16.29 1.13085 16.5444 1.31839 16.7319C1.50593 16.9194 1.76028 17.0248 2.0255 17.0248L5.0255 17.0248C5.2354 19.231 6.10679 21.3223 7.5255 23.0248L4.2655 26.2948C3.62698 25.989 2.90089 25.9189 2.21566 26.0969C1.53044 26.2748 0.930221 26.6894 0.521176 27.2672C0.112132 27.845 -0.0793839 28.5489 -0.0194944 29.2543C0.0403951 29.9597 0.347829 30.6213 0.848431 31.1219C1.34903 31.6225 2.01055 31.9299 2.71597 31.9898C3.42139 32.0497 4.12526 31.8582 4.70309 31.4491C5.28092 31.0401 5.69548 30.4399 5.87343 29.7546C6.05139 29.0694 5.98127 28.3433 5.6755 27.7048L5.7255 27.7348ZM2.0255 3.02479C2.02481 2.86034 2.06469 2.69825 2.1416 2.55289C2.21852 2.40753 2.3301 2.28339 2.46645 2.19145C2.60281 2.09952 2.75974 2.04263 2.92333 2.02583C3.08692 2.00903 3.25214 2.03283 3.40433 2.09514C3.55653 2.15744 3.69101 2.25632 3.79586 2.38301C3.90072 2.5097 3.97271 2.66029 4.00546 2.82146C4.03821 2.98262 4.03071 3.14937 3.98362 3.30693C3.93653 3.4645 3.8513 3.60803 3.7355 3.72479V3.72479C3.59623 3.86521 3.41844 3.96118 3.22463 4.00057C3.03082 4.03995 2.82968 4.02098 2.64664 3.94606C2.46361 3.87113 2.30691 3.74362 2.19634 3.57963C2.08578 3.41565 2.02633 3.22256 2.0255 3.02479V3.02479ZM30.0255 29.0248C30.0262 29.1892 29.9863 29.3513 29.9094 29.4967C29.8325 29.642 29.7209 29.7662 29.5845 29.8581C29.4482 29.9501 29.2913 30.007 29.1277 30.0238C28.9641 30.0406 28.7989 30.0167 28.6467 29.9544C28.4945 29.8921 28.36 29.7933 28.2551 29.6666C28.1503 29.5399 28.0783 29.3893 28.0455 29.2281C28.0128 29.067 28.0203 28.9002 28.0674 28.7426C28.1145 28.5851 28.1997 28.4416 28.3155 28.3248V28.3248C28.4548 28.1844 28.6326 28.0884 28.8264 28.049C29.0202 28.0096 29.2213 28.0286 29.4044 28.1035C29.5874 28.1784 29.7441 28.306 29.8547 28.4699C29.9652 28.6339 30.0247 28.827 30.0255 29.0248V29.0248ZM29.0255 2.02479C29.19 2.0241 29.352 2.06398 29.4974 2.1409C29.6428 2.21781 29.7669 2.32939 29.8588 2.46575C29.9508 2.6021 30.0077 2.75903 30.0245 2.92262C30.0413 3.08622 30.0175 3.25143 29.9552 3.40363C29.8929 3.55582 29.794 3.6903 29.6673 3.79516C29.5406 3.90001 29.39 3.972 29.2288 4.00475C29.0677 4.0375 28.9009 4.03 28.7434 3.98291C28.5858 3.93582 28.4423 3.8506 28.3255 3.73479C28.1851 3.59552 28.0891 3.41774 28.0497 3.22392C28.0103 3.03011 28.0293 2.82897 28.1042 2.64594C28.1792 2.46291 28.3067 2.3062 28.4707 2.19564C28.6346 2.08508 28.8277 2.02562 29.0255 2.02479V2.02479ZM2.0255 29.0248C2.02631 28.8282 2.08504 28.6362 2.19435 28.4729C2.30367 28.3095 2.45871 28.1819 2.6401 28.1062C2.8215 28.0304 3.0212 28.0098 3.21424 28.0469C3.40729 28.084 3.58511 28.1772 3.7255 28.3148V28.3148C3.84336 28.4303 3.9308 28.5732 3.98001 28.7308C4.02922 28.8883 4.03867 29.0556 4.00751 29.2177C3.97636 29.3798 3.90557 29.5316 3.80147 29.6597C3.69736 29.7878 3.56317 29.8881 3.41087 29.9517C3.25858 30.0153 3.0929 30.0402 2.92863 30.0242C2.76435 30.0082 2.60659 29.9518 2.46942 29.8601C2.33224 29.7683 2.21991 29.644 2.14245 29.4982C2.06499 29.3525 2.02481 29.1898 2.0255 29.0248V29.0248Z" fill="#000033"/>
<path d="M18.4083 15.7926C18.8598 15.3078 19.1628 14.6975 19.2796 14.0374C19.3964 13.3773 19.3219 12.6964 19.0654 12.0794C18.8088 11.4624 18.3816 10.9364 17.8366 10.5668C17.2917 10.1971 16.653 10 16 10C15.347 10 14.7083 10.1971 14.1634 10.5668C13.6184 10.9364 13.1912 11.4624 12.9346 12.0794C12.6781 12.6964 12.6036 13.3773 12.7204 14.0374C12.8372 14.6975 13.1402 15.3078 13.5917 15.7926C12.8079 16.2352 12.154 16.8857 11.6981 17.6763C11.2423 18.4669 11.0012 19.3687 11 20.2876V21.1438C11 21.3709 11.0878 21.5887 11.2441 21.7492C11.4004 21.9098 11.6123 22 11.8333 22H20.1667C20.3877 22 20.5996 21.9098 20.7559 21.7492C20.9122 21.5887 21 21.3709 21 21.1438V20.2876C20.9988 19.3687 20.7577 18.4669 20.3019 17.6763C19.846 16.8857 19.1921 16.2352 18.4083 15.7926V15.7926ZM14.3333 13.438C14.3333 13.0994 14.4311 12.7683 14.6142 12.4867C14.7974 12.2051 15.0577 11.9856 15.3622 11.856C15.6667 11.7264 16.0018 11.6925 16.3252 11.7586C16.6485 11.8246 16.9454 11.9877 17.1785 12.2272C17.4116 12.4667 17.5703 12.7718 17.6346 13.104C17.699 13.4361 17.6659 13.7804 17.5398 14.0933C17.4137 14.4062 17.2 14.6737 16.926 14.8618C16.6519 15.05 16.3296 15.1504 16 15.1504C15.558 15.1504 15.134 14.97 14.8215 14.6489C14.5089 14.3277 14.3333 13.8922 14.3333 13.438V13.438ZM12.6667 20.2876C12.6667 19.3793 13.0179 18.5082 13.643 17.8659C14.2681 17.2236 15.1159 16.8628 16 16.8628C16.8841 16.8628 17.7319 17.2236 18.357 17.8659C18.9821 18.5082 19.3333 19.3793 19.3333 20.2876H12.6667Z" fill="#100FA8"/>
</g>
<defs>
<clipPath id="clip0_725_2437">
<rect width="32" height="32" fill="white"/>
</clipPath>
</defs>
</svg>
