<svg width="32" height="32" viewBox="0 0 32 32" fill="none" xmlns="http://www.w3.org/2000/svg">
<path fill-rule="evenodd" clip-rule="evenodd" d="M15.6511 5.33333C9.93133 5.33333 5.29456 10.109 5.29456 16C5.29456 21.891 9.93133 26.6667 15.6511 26.6667C21.3708 26.6667 26.0076 21.891 26.0076 16C26.0076 10.109 21.3708 5.33333 15.6511 5.33333ZM4 16C4 9.37258 9.21636 4 15.6511 4C22.0858 4 27.3021 9.37258 27.3021 16C27.3021 22.6274 22.0858 28 15.6511 28C9.21636 28 4 22.6274 4 16Z" fill="#000033"/>
<path fill-rule="evenodd" clip-rule="evenodd" d="M4.64648 15.334H26.6541V16.6673H4.64648V15.334Z" fill="#000033"/>
</svg>
