<svg width="32" height="32" viewBox="0 0 32 32" fill="none" xmlns="http://www.w3.org/2000/svg">
<g clip-path="url(#clip0_725_2449)">
<path d="M9 32H7C6.20435 32 5.44129 31.6839 4.87868 31.1213C4.31607 30.5587 4 29.7956 4 29V21C4 20.2044 4.31607 19.4413 4.87868 18.8787C5.44129 18.3161 6.20435 18 7 18H9C9.79565 18 10.5587 18.3161 11.1213 18.8787C11.6839 19.4413 12 20.2044 12 21V29C12 29.7956 11.6839 30.5587 11.1213 31.1213C10.5587 31.6839 9.79565 32 9 32ZM7 20C6.73478 20 6.48043 20.1054 6.29289 20.2929C6.10536 20.4804 6 20.7348 6 21V29C6 29.2652 6.10536 29.5196 6.29289 29.7071C6.48043 29.8946 6.73478 30 7 30H9C9.26522 30 9.51957 29.8946 9.70711 29.7071C9.89464 29.5196 10 29.2652 10 29V21C10 20.7348 9.89464 20.4804 9.70711 20.2929C9.51957 20.1054 9.26522 20 9 20H7Z" fill="#000033"/>
<path d="M19 32H17C16.2044 32 15.4413 31.6839 14.8787 31.1213C14.3161 30.5587 14 29.7956 14 29V17C14 16.2044 14.3161 15.4413 14.8787 14.8787C15.4413 14.3161 16.2044 14 17 14H19C19.7956 14 20.5587 14.3161 21.1213 14.8787C21.6839 15.4413 22 16.2044 22 17V29C22 29.7956 21.6839 30.5587 21.1213 31.1213C20.5587 31.6839 19.7956 32 19 32ZM17 16C16.7348 16 16.4804 16.1054 16.2929 16.2929C16.1054 16.4804 16 16.7348 16 17V29C16 29.2652 16.1054 29.5196 16.2929 29.7071C16.4804 29.8946 16.7348 30 17 30H19C19.2652 30 19.5196 29.8946 19.7071 29.7071C19.8946 29.5196 20 29.2652 20 29V17C20 16.7348 19.8946 16.4804 19.7071 16.2929C19.5196 16.1054 19.2652 16 19 16H17Z" fill="#000033"/>
<path d="M29 32H27C26.2044 32 25.4413 31.6839 24.8787 31.1213C24.3161 30.5587 24 29.7957 24 29V11C24 10.2044 24.3161 9.44129 24.8787 8.87868C25.4413 8.31607 26.2044 8 27 8H29C29.7956 8 30.5587 8.31607 31.1213 8.87868C31.6839 9.44129 32 10.2044 32 11V26.6667C32 26.9319 31.8946 27.1862 31.7071 27.3738C31.5196 27.5613 31.2652 27.6667 31 27.6667C30.7348 27.6667 30.4804 27.5613 30.2929 27.3738C30.1054 27.1862 30 26.9319 30 26.6667V11C30 10.7348 29.8946 10.4804 29.7071 10.2929C29.5196 10.1054 29.2652 10 29 10H27C26.7348 10 26.4804 10.1054 26.2929 10.2929C26.1054 10.4804 26 10.7348 26 11V29C26 29.2652 26.1054 29.5196 26.2929 29.7071C26.4804 29.8946 26.7348 30 27 30H29C29.2652 30 29.5196 29.8946 29.7071 29.7071C29.8946 29.5196 30 29.2652 30 29V26C30 25.7348 30.1054 25.4804 30.2929 25.2929C30.4804 25.1054 30.7348 25 31 25C31.2652 25 31.5196 25.1054 31.7071 25.2929C31.8946 25.4804 32 25.7348 32 26V29C32 29.7957 31.6839 30.5587 31.1213 31.1213C30.5587 31.6839 29.7956 32 29 32Z" fill="#000033"/>
<path d="M11 0C10.7348 0 10.4804 0.105357 10.2929 0.292893C10.1054 0.48043 10 0.734784 10 1V1.38L4.76 4H2C1.46957 4 0.960859 4.21071 0.585786 4.58579C0.210714 4.96086 0 5.46957 0 6L0 8C0.001149 8.39371 0.118478 8.77833 0.337282 9.10565C0.556087 9.43297 0.866633 9.68842 1.23 9.84L2.05 12.32C2.13487 12.5786 2.31899 12.7929 2.56185 12.9157C2.8047 13.0385 3.08641 13.0599 3.345 12.975C3.60359 12.8901 3.81787 12.706 3.9407 12.4632C4.06354 12.2203 4.08487 11.9386 4 11.68L3.39 10H4.76L10 12.62V13C10 13.2652 10.1054 13.5196 10.2929 13.7071C10.4804 13.8946 10.7348 14 11 14C11.2652 14 11.5196 13.8946 11.7071 13.7071C11.8946 13.5196 12 13.2652 12 13V1C12 0.734784 11.8946 0.48043 11.7071 0.292893C11.5196 0.105357 11.2652 0 11 0V0ZM2 6H4V8H2V6ZM6 8.38V5.62L10 3.62V10.38L6 8.38Z" fill="#100FA8"/>
<path d="M17 6H15C14.7348 6 14.4804 6.10536 14.2929 6.29289C14.1054 6.48043 14 6.73478 14 7C14 7.26522 14.1054 7.51957 14.2929 7.70711C14.4804 7.89464 14.7348 8 15 8H17C17.2652 8 17.5196 7.89464 17.7071 7.70711C17.8946 7.51957 18 7.26522 18 7C18 6.73478 17.8946 6.48043 17.7071 6.29289C17.5196 6.10536 17.2652 6 17 6Z" fill="#100FA8"/>
<path d="M15 4.00019C15.53 4.00019 15.67 3.74019 16.71 2.71019C16.8983 2.52188 17.004 2.26649 17.004 2.00019C17.004 1.73388 16.8983 1.47849 16.71 1.29019C16.5217 1.10188 16.2663 0.996094 16 0.996094C15.7337 0.996094 15.4783 1.10188 15.29 1.29019L14.29 2.29019C14.1489 2.43006 14.0527 2.60876 14.0137 2.8035C13.9746 2.99825 13.9944 3.20022 14.0706 3.38367C14.1468 3.56711 14.2758 3.72372 14.4413 3.83352C14.6069 3.94332 14.8013 4.00134 15 4.00019Z" fill="#100FA8"/>
<path d="M15.7102 10.2902C15.5219 10.1019 15.2665 9.99609 15.0002 9.99609C14.7339 9.99609 14.4785 10.1019 14.2902 10.2902C14.1019 10.4785 13.9961 10.7339 13.9961 11.0002C13.9961 11.2665 14.1019 11.5219 14.2902 11.7102C15.3502 12.7702 15.4802 13.0002 16.0002 13.0002C16.1988 13.0013 16.3933 12.9433 16.5588 12.8335C16.7243 12.7237 16.8534 12.5671 16.9296 12.3837C17.0057 12.2002 17.0255 11.9983 16.9865 11.8035C16.9474 11.6088 16.8512 11.4301 16.7102 11.2902L15.7102 10.2902Z" fill="#100FA8"/>
</g>
<defs>
<clipPath id="clip0_725_2449">
<rect width="32" height="32" fill="white"/>
</clipPath>
</defs>
</svg>
