<svg width="32" height="32" viewBox="0 0 32 32" fill="none" xmlns="http://www.w3.org/2000/svg">
<g clip-path="url(#clip0_725_2452)">
<path d="M17 32H15C14.2044 32 13.4413 31.6839 12.8787 31.1213C12.3161 30.5587 12 29.7956 12 29C11.9935 28.8037 11.9293 28.6137 11.8155 28.4536C11.7017 28.2936 11.5433 28.1706 11.36 28.1C11.12 28.0333 10.9 27.9533 10.7 27.86C10.5198 27.7809 10.3202 27.7567 10.1263 27.7905C9.93243 27.8243 9.75282 27.9146 9.61 28.05C9.04967 28.5967 8.29784 28.9027 7.515 28.9027C6.73216 28.9027 5.98033 28.5967 5.42 28.05L4 26.58C3.45332 26.0197 3.14732 25.2678 3.14732 24.485C3.14732 23.7022 3.45332 22.9503 4 22.39C4.13376 22.2461 4.22217 22.066 4.25418 21.8721C4.2862 21.6783 4.26039 21.4793 4.18 21.3C4.06 21.1 3.95667 20.88 3.87 20.64C3.80147 20.4612 3.68305 20.3059 3.52883 20.1924C3.37461 20.079 3.19107 20.0122 3 20C2.20435 20 1.44129 19.6839 0.87868 19.1213C0.31607 18.5587 0 17.7956 0 17L0 15C0 14.2044 0.31607 13.4413 0.87868 12.8787C1.44129 12.3161 2.20435 12 3 12C3.19629 11.9935 3.38631 11.9293 3.54636 11.8155C3.70641 11.7017 3.82941 11.5433 3.9 11.36C3.96667 11.12 4.04667 10.9 4.14 10.7C4.22565 10.5245 4.25803 10.3277 4.23315 10.134C4.20827 9.94034 4.12722 9.75817 4 9.61C3.45332 9.04967 3.14732 8.29784 3.14732 7.515C3.14732 6.73216 3.45332 5.98033 4 5.42L5.42 4C5.98033 3.45332 6.73216 3.14732 7.515 3.14732C8.29784 3.14732 9.04967 3.45332 9.61 4C9.75391 4.13376 9.93404 4.22217 10.1279 4.25418C10.3217 4.2862 10.5207 4.26039 10.7 4.18L11.36 3.91C11.5448 3.83875 11.7043 3.71422 11.8182 3.55222C11.9322 3.39021 11.9954 3.19801 12 3C12 2.20435 12.3161 1.44129 12.8787 0.87868C13.4413 0.31607 14.2044 0 15 0L17 0C17.7956 0 18.5587 0.31607 19.1213 0.87868C19.6839 1.44129 20 2.20435 20 3C20.0065 3.19629 20.0707 3.38631 20.1845 3.54636C20.2983 3.70641 20.4567 3.82941 20.64 3.9L21.3 4.17C21.4783 4.25169 21.6768 4.27913 21.8706 4.2489C22.0644 4.21868 22.245 4.13212 22.39 4C22.9503 3.45332 23.7022 3.14732 24.485 3.14732C25.2678 3.14732 26.0197 3.45332 26.58 4L28 5.42C28.5467 5.98033 28.8527 6.73216 28.8527 7.515C28.8527 8.29784 28.5467 9.04967 28 9.61C27.8662 9.75391 27.7778 9.93404 27.7458 10.1279C27.7138 10.3217 27.7396 10.5207 27.82 10.7C27.92 10.92 28.01 11.14 28.09 11.36C28.1613 11.5448 28.2858 11.7043 28.4478 11.8182C28.6098 11.9322 28.802 11.9954 29 12C29.7956 12 30.5587 12.3161 31.1213 12.8787C31.6839 13.4413 32 14.2044 32 15V17C32 17.7956 31.6839 18.5587 31.1213 19.1213C30.5587 19.6839 29.7956 20 29 20C28.8037 20.0065 28.6137 20.0707 28.4536 20.1845C28.2936 20.2983 28.1706 20.4567 28.1 20.64C28.02 20.86 27.93 21.08 27.83 21.3C27.7483 21.4783 27.7209 21.6768 27.7511 21.8706C27.7813 22.0644 27.8679 22.245 28 22.39C28.5467 22.9503 28.8527 23.7022 28.8527 24.485C28.8527 25.2678 28.5467 26.0197 28 26.58L26.58 28C26.3926 28.1863 26.1392 28.2908 25.875 28.2908C25.6108 28.2908 25.3574 28.1863 25.17 28C24.9837 27.8126 24.8792 27.5592 24.8792 27.295C24.8792 27.0308 24.9837 26.7774 25.17 26.59L26.63 25.13C26.8044 24.9445 26.9015 24.6996 26.9015 24.445C26.9015 24.1904 26.8044 23.9455 26.63 23.76C26.2107 23.3314 25.9294 22.787 25.8224 22.197C25.7155 21.607 25.7878 20.9985 26.03 20.45C26.12 20.26 26.19 20.07 26.26 19.88C26.4807 19.3315 26.8584 18.8605 27.3459 18.526C27.8334 18.1915 28.4089 18.0085 29 18C29.2652 18 29.5196 17.8946 29.7071 17.7071C29.8946 17.5196 30 17.2652 30 17V15C30 14.7348 29.8946 14.4804 29.7071 14.2929C29.5196 14.1054 29.2652 14 29 14C28.3991 13.9942 27.8138 13.8081 27.3199 13.4658C26.826 13.1234 26.4463 12.6407 26.23 12.08C26.1637 11.8892 26.0869 11.7023 26 11.52C25.7556 10.9703 25.6821 10.3597 25.7891 9.76767C25.8961 9.17562 26.1786 8.62942 26.6 8.2C26.7744 8.01454 26.8715 7.76956 26.8715 7.515C26.8715 7.26044 26.7744 7.01546 26.6 6.83L25.17 5.37C24.9845 5.19563 24.7396 5.09854 24.485 5.09854C24.2304 5.09854 23.9855 5.19563 23.8 5.37C23.3706 5.79138 22.8244 6.07392 22.2323 6.18092C21.6403 6.28791 21.0297 6.21443 20.48 5.97C20.3 5.88 20.11 5.81 19.92 5.73C19.3602 5.52443 18.8764 5.15292 18.5333 4.6651C18.1902 4.17728 18.0042 3.59637 18 3C18 2.73478 17.8946 2.48043 17.7071 2.29289C17.5196 2.10536 17.2652 2 17 2H15C14.7348 2 14.4804 2.10536 14.2929 2.29289C14.1054 2.48043 14 2.73478 14 3C13.9942 3.6009 13.8081 4.18622 13.4658 4.68011C13.1234 5.174 12.6407 5.55369 12.08 5.77C11.8892 5.83629 11.7023 5.91307 11.52 6C10.9703 6.24443 10.3597 6.31791 9.76767 6.21092C9.17562 6.10392 8.62942 5.82138 8.2 5.4C8.01454 5.22563 7.76956 5.12854 7.515 5.12854C7.26044 5.12854 7.01546 5.22563 6.83 5.4L5.37 6.83C5.19563 7.01546 5.09854 7.26044 5.09854 7.515C5.09854 7.76956 5.19563 8.01454 5.37 8.2C5.79435 8.62523 6.08126 9.16806 6.19358 9.7582C6.30591 10.3483 6.23847 10.9586 6 11.51C5.91 11.7 5.84 11.89 5.77 12.08C5.55369 12.6407 5.174 13.1234 4.68011 13.4658C4.18622 13.8081 3.6009 13.9942 3 14C2.73478 14 2.48043 14.1054 2.29289 14.2929C2.10536 14.4804 2 14.7348 2 15V17C2 17.2652 2.10536 17.5196 2.29289 17.7071C2.48043 17.8946 2.73478 18 3 18C3.6009 18.0058 4.18622 18.1919 4.68011 18.5342C5.174 18.8766 5.55369 19.3593 5.77 19.92C5.83629 20.1108 5.91307 20.2977 6 20.48C6.24443 21.0297 6.31791 21.6403 6.21092 22.2323C6.10392 22.8244 5.82138 23.3706 5.4 23.8C5.22563 23.9855 5.12854 24.2304 5.12854 24.485C5.12854 24.7396 5.22563 24.9845 5.4 25.17L6.86 26.63C7.04546 26.8044 7.29044 26.9015 7.545 26.9015C7.79956 26.9015 8.04454 26.8044 8.23 26.63C8.65942 26.2086 9.20562 25.9261 9.79767 25.8191C10.3897 25.7121 11.0003 25.7856 11.55 26.03C11.73 26.12 11.92 26.19 12.11 26.27C12.6642 26.4804 13.1416 26.854 13.479 27.3414C13.8165 27.8289 13.9981 28.4072 14 29C14 29.2652 14.1054 29.5196 14.2929 29.7071C14.4804 29.8946 14.7348 30 15 30H17C17.2652 30 17.5196 29.8946 17.7071 29.7071C17.8946 29.5196 18 29.2652 18 29C18.0058 28.3991 18.1919 27.8138 18.5342 27.3199C18.8766 26.826 19.3593 26.4463 19.92 26.23C20.1108 26.1637 20.2977 26.0869 20.48 26C20.6002 25.9462 20.7297 25.9165 20.8614 25.9128C20.993 25.909 21.1241 25.9312 21.2471 25.9781C21.3701 26.025 21.4827 26.0956 21.5784 26.1861C21.6742 26.2765 21.7512 26.3848 21.805 26.505C21.8588 26.6252 21.8885 26.7547 21.8923 26.8864C21.896 27.018 21.8738 27.1491 21.8269 27.2721C21.78 27.3951 21.7094 27.5077 21.6189 27.6034C21.5285 27.6992 21.4202 27.7762 21.3 27.83C21.08 27.93 20.86 28.02 20.64 28.1C20.4567 28.1706 20.2983 28.2936 20.1845 28.4536C20.0707 28.6137 20.0065 28.8037 20 29C20 29.7956 19.6839 30.5587 19.1213 31.1213C18.5587 31.6839 17.7956 32 17 32Z" fill="#000033"/>
<path d="M16 25C14.22 25 12.4799 24.4722 10.9999 23.4832C9.51983 22.4943 8.36628 21.0887 7.68509 19.4442C7.0039 17.7996 6.82567 15.99 7.17294 14.2442C7.5202 12.4984 8.37737 10.8947 9.63604 9.63604C10.8947 8.37737 12.4984 7.5202 14.2442 7.17294C15.99 6.82567 17.7996 7.0039 19.4442 7.68509C21.0887 8.36628 22.4943 9.51983 23.4832 10.9999C24.4722 12.4799 25 14.22 25 16C25 18.387 24.0518 20.6761 22.364 22.364C20.6761 24.0518 18.387 25 16 25ZM16 9C14.6155 9 13.2622 9.41055 12.111 10.1797C10.9599 10.9489 10.0627 12.0421 9.53285 13.3212C9.00303 14.6003 8.86441 16.0078 9.13451 17.3656C9.4046 18.7235 10.0713 19.9708 11.0503 20.9498C12.0292 21.9287 13.2765 22.5954 14.6344 22.8655C15.9922 23.1356 17.3997 22.997 18.6788 22.4672C19.9579 21.9373 21.0511 21.0401 21.8203 19.889C22.5895 18.7379 23 17.3845 23 16C23 14.1435 22.2625 12.363 20.9498 11.0503C19.637 9.7375 17.8565 9 16 9Z" fill="#000033"/>
<path d="M16 21C15.7348 21 15.4804 20.8946 15.2929 20.7071C15.1054 20.5196 15 20.2652 15 20V16C15 15.7348 15.1054 15.4804 15.2929 15.2929C15.4804 15.1054 15.7348 15 16 15C16.2652 15 16.5196 15.1054 16.7071 15.2929C16.8946 15.4804 17 15.7348 17 16V20C17 20.2652 16.8946 20.5196 16.7071 20.7071C16.5196 20.8946 16.2652 21 16 21Z" fill="#100FA8"/>
<path d="M16 13C15.8022 13 15.6089 12.9414 15.4444 12.8315C15.28 12.7216 15.1518 12.5654 15.0761 12.3827C15.0004 12.2 14.9806 11.9989 15.0192 11.8049C15.0578 11.6109 15.153 11.4327 15.2929 11.2929C15.4327 11.153 15.6109 11.0578 15.8049 11.0192C15.9989 10.9806 16.2 11.0004 16.3827 11.0761C16.5654 11.1518 16.7216 11.28 16.8315 11.4444C16.9414 11.6089 17 11.8022 17 12C17 12.2652 16.8946 12.5196 16.7071 12.7071C16.5196 12.8946 16.2652 13 16 13Z" fill="#100FA8"/>
</g>
<defs>
<clipPath id="clip0_725_2452">
<rect width="32" height="32" fill="white"/>
</clipPath>
</defs>
</svg>
