<svg width="32" height="32" viewBox="0 0 32 32" fill="none" xmlns="http://www.w3.org/2000/svg">
<g clip-path="url(#clip0_5473_28355)">
<rect width="24" height="24" transform="translate(4 4)" fill="white"/>
<path d="M10.0525 25.7504H7C6.40326 25.7504 5.83097 25.5133 5.40901 25.0914C4.98705 24.6694 4.75 24.0971 4.75 23.5004V14.6504C4.75 14.4515 4.82902 14.2607 4.96967 14.1201C5.11032 13.9794 5.30109 13.9004 5.5 13.9004C5.69891 13.9004 5.88968 13.9794 6.03033 14.1201C6.17098 14.2607 6.25 14.4515 6.25 14.6504V23.5004C6.25 23.6993 6.32902 23.8901 6.46967 24.0307C6.61032 24.1714 6.80109 24.2504 7 24.2504H10.0525C10.2514 24.2504 10.4422 24.3294 10.5828 24.4701C10.7235 24.6107 10.8025 24.8015 10.8025 25.0004C10.8025 25.1993 10.7235 25.3901 10.5828 25.5307C10.4422 25.6714 10.2514 25.7504 10.0525 25.7504Z" fill="#000033"/>
<path d="M25.0001 25.7504H21.9551C21.7562 25.7504 21.5654 25.6714 21.4247 25.5307C21.2841 25.3901 21.2051 25.1993 21.2051 25.0004C21.2051 24.8015 21.2841 24.6107 21.4247 24.4701C21.5654 24.3294 21.7562 24.2504 21.9551 24.2504H25.0001C25.199 24.2504 25.3898 24.1714 25.5304 24.0307C25.6711 23.8901 25.7501 23.6993 25.7501 23.5004V14.6504C25.7501 14.4515 25.8291 14.2607 25.9697 14.1201C26.1104 13.9794 26.3012 13.9004 26.5001 13.9004C26.699 13.9004 26.8898 13.9794 27.0304 14.1201C27.1711 14.2607 27.2501 14.4515 27.2501 14.6504V23.5004C27.2501 24.0971 27.013 24.6694 26.5911 25.0914C26.1691 25.5133 25.5968 25.7504 25.0001 25.7504Z" fill="#000033"/>
<path d="M19.75 8.5C19.5511 8.5 19.3603 8.42098 19.2197 8.28033C19.079 8.13968 19 7.94891 19 7.75V6.25C19 6.05109 18.921 5.86032 18.7803 5.71967C18.6397 5.57902 18.4489 5.5 18.25 5.5H13.75C13.5511 5.5 13.3603 5.57902 13.2197 5.71967C13.079 5.86032 13 6.05109 13 6.25V7.75C13 7.94891 12.921 8.13968 12.7803 8.28033C12.6397 8.42098 12.4489 8.5 12.25 8.5C12.0511 8.5 11.8603 8.42098 11.7197 8.28033C11.579 8.13968 11.5 7.94891 11.5 7.75V6.25C11.5 5.65326 11.7371 5.08097 12.159 4.65901C12.581 4.23705 13.1533 4 13.75 4H18.25C18.8467 4 19.419 4.23705 19.841 4.65901C20.2629 5.08097 20.5 5.65326 20.5 6.25V7.75C20.5 7.94891 20.421 8.13968 20.2803 8.28033C20.1397 8.42098 19.9489 8.5 19.75 8.5Z" fill="#000033"/>
<path d="M19.4652 16.81C19.2662 16.8299 19.0676 16.7699 18.9129 16.6434C18.7581 16.5168 18.66 16.3339 18.6402 16.135C18.6203 15.9361 18.6802 15.7374 18.8068 15.5827C18.9334 15.428 19.1162 15.3299 19.3152 15.31L26.5002 13.885V8.5H5.50015V13.885L12.6852 15.325C12.7836 15.3447 12.8773 15.3836 12.9607 15.4395C13.0442 15.4954 13.1158 15.5672 13.1715 15.6507C13.2273 15.7343 13.266 15.828 13.2855 15.9266C13.305 16.0251 13.3049 16.1265 13.2852 16.225C13.2655 16.3235 13.2265 16.4171 13.1707 16.5006C13.1148 16.5841 13.043 16.6557 12.9594 16.7114C12.8758 16.7671 12.7821 16.8058 12.6836 16.8253C12.5851 16.8448 12.4836 16.8447 12.3852 16.825L4.60015 15.25C4.4282 15.2149 4.27398 15.1207 4.16435 14.9836C4.05472 14.8466 3.99661 14.6755 4.00015 14.5V7.75C4.00015 7.55109 4.07917 7.36032 4.21982 7.21967C4.36047 7.07902 4.55124 7 4.75015 7H27.2502C27.4491 7 27.6398 7.07902 27.7805 7.21967C27.9211 7.36032 28.0002 7.55109 28.0002 7.75V14.5C28.0037 14.6755 27.9456 14.8466 27.836 14.9836C27.7263 15.1207 27.5721 15.2149 27.4002 15.25C19.0752 16.9 19.5777 16.81 19.4652 16.81Z" fill="#05058C"/>
<path d="M19.675 20.095C20.151 19.4214 20.4328 18.6298 20.4894 17.8069C20.546 16.984 20.3753 16.1613 19.996 15.4288C19.6167 14.6963 19.0434 14.0822 18.3386 13.6535C17.6339 13.2248 16.8249 12.998 16 12.998C15.1751 12.998 14.3661 13.2248 13.6614 13.6535C12.9566 14.0822 12.3833 14.6963 12.004 15.4288C11.6247 16.1613 11.454 16.984 11.5106 17.8069C11.5672 18.6298 11.849 19.4214 12.325 20.095C11.3821 20.707 10.607 21.5448 10.07 22.5324C9.53301 23.5199 9.25115 24.6259 9.25 25.75V27.25C9.25 27.449 9.32902 27.6397 9.46967 27.7804C9.61032 27.921 9.80109 28 10 28H11.5C11.6989 28 11.8897 27.921 12.0303 27.7804C12.171 27.6397 12.25 27.449 12.25 27.25C12.25 27.0511 12.171 26.8604 12.0303 26.7197C11.8897 26.5791 11.6989 26.5 11.5 26.5H10.75V25.75C10.7529 24.821 11.0023 23.9094 11.4727 23.1083C11.9431 22.3072 12.6177 21.6453 13.4275 21.19C14.1815 21.7143 15.0779 21.9952 15.9963 21.9952C16.9146 21.9952 17.811 21.7143 18.565 21.19C19.3815 21.6382 20.0619 22.2983 20.5344 23.1009C21.007 23.9035 21.2542 24.8187 21.25 25.75V26.5H14.5C14.3011 26.5 14.1103 26.5791 13.9697 26.7197C13.829 26.8604 13.75 27.0511 13.75 27.25C13.75 27.449 13.829 27.6397 13.9697 27.7804C14.1103 27.921 14.3011 28 14.5 28H22C22.1989 28 22.3897 27.921 22.5303 27.7804C22.671 27.6397 22.75 27.449 22.75 27.25V25.75C22.7536 24.625 22.4738 23.5172 21.9364 22.5289C21.399 21.5406 20.6213 20.7035 19.675 20.095ZM13 17.5C13 16.9067 13.1759 16.3267 13.5056 15.8333C13.8352 15.34 14.3038 14.9555 14.8519 14.7284C15.4001 14.5013 16.0033 14.4419 16.5853 14.5577C17.1672 14.6734 17.7018 14.9592 18.1213 15.3787C18.5409 15.7983 18.8266 16.3328 18.9424 16.9148C19.0581 17.4967 18.9987 18.0999 18.7716 18.6481C18.5446 19.1963 18.1601 19.6648 17.6667 19.9944C17.1734 20.3241 16.5933 20.5 16 20.5C15.2044 20.5 14.4413 20.184 13.8787 19.6214C13.3161 19.0588 13 18.2957 13 17.5Z" fill="#000033"/>
</g>
<defs>
<clipPath id="clip0_5473_28355">
<rect width="24" height="24" fill="white" transform="translate(4 4)"/>
</clipPath>
</defs>
</svg>
