<svg width="32" height="32" viewBox="0 0 32 32" fill="none" xmlns="http://www.w3.org/2000/svg">
<g clip-path="url(#clip0_725_2482)">
<path d="M7.684 22.6667H26.6667V6.66667H5.33333V24.5133L7.684 22.6667ZM8.60667 25.3333L2.66667 30V5.33333C2.66667 4.97971 2.80714 4.64057 3.05719 4.39052C3.30724 4.14048 3.64638 4 4 4H28C28.3536 4 28.6928 4.14048 28.9428 4.39052C29.1929 4.64057 29.3333 4.97971 29.3333 5.33333V24C29.3333 24.3536 29.1929 24.6928 28.9428 24.9428C28.6928 25.1929 28.3536 25.3333 28 25.3333H8.60667Z" fill="#000033"/>
<path d="M22.6663 10.6665L18.6663 13.6665V10.6665H9.33301V18.6665H18.6663V15.6665L22.6663 18.6665V10.6665Z" fill="#100FA8"/>
</g>
<defs>
<clipPath id="clip0_725_2482">
<rect width="32" height="32" fill="white"/>
</clipPath>
</defs>
</svg>
