<svg width="32" height="32" viewBox="0 0 32 32" fill="none" xmlns="http://www.w3.org/2000/svg">
<path fill-rule="evenodd" clip-rule="evenodd" d="M3.64705 15.1111H14.4642L15.0741 14.5481V4.56305L14.4642 4H3.64705L3.03711 4.56305V14.5481L3.64705 15.1111ZM13.8542 13.9848H4.2576V5.126H13.8542V13.9848ZM17.5359 15.1111H28.3531L28.963 14.5481V4.56305L28.3531 4H17.5359L16.926 4.56305V14.5481L17.5359 15.1111ZM27.7425 13.9848H18.1459V5.126H27.7425V13.9848ZM14.4642 29H3.64705L3.03711 28.3901V17.5729L3.64705 16.963H14.4642L15.0741 17.5729V28.3901L14.4642 29ZM4.2576 27.7799H13.8542V18.1833H4.2576V27.7799ZM17.5359 29H28.3531L28.963 28.3901V17.5729L28.3531 16.963H17.5359L16.926 17.5729V28.3901L17.5359 29ZM27.7425 27.7799H18.1459V18.1833H27.7425V27.7799Z" fill="#000033"/>
<path d="M14.4642 15.1111V15.3611H14.5619L14.6338 15.2948L14.4642 15.1111ZM3.64705 15.1111L3.47748 15.2948L3.54931 15.3611H3.64705V15.1111ZM15.0741 14.5481L15.2437 14.7318L15.3241 14.6575V14.5481H15.0741ZM15.0741 4.56305H15.3241V4.4536L15.2437 4.37935L15.0741 4.56305ZM14.4642 4L14.6338 3.8163L14.5619 3.75H14.4642V4ZM3.64705 4V3.75H3.54931L3.47748 3.8163L3.64705 4ZM3.03711 4.56305L2.86754 4.37935L2.78711 4.4536V4.56305H3.03711ZM3.03711 14.5481H2.78711V14.6575L2.86754 14.7318L3.03711 14.5481ZM4.2576 13.9848H4.0076V14.2348H4.2576V13.9848ZM13.8542 13.9848V14.2348H14.1042V13.9848H13.8542ZM4.2576 5.126V4.876H4.0076V5.126H4.2576ZM13.8542 5.126H14.1042V4.876H13.8542V5.126ZM28.3531 15.1111V15.3611H28.4508L28.5227 15.2948L28.3531 15.1111ZM17.5359 15.1111L17.3664 15.2948L17.4382 15.3611H17.5359V15.1111ZM28.963 14.5481L29.1326 14.7318L29.213 14.6575V14.5481H28.963ZM28.963 4.56305H29.213V4.4536L29.1326 4.37935L28.963 4.56305ZM28.3531 4L28.5227 3.8163L28.4508 3.75H28.3531V4ZM17.5359 4V3.75H17.4382L17.3664 3.8163L17.5359 4ZM16.926 4.56305L16.7564 4.37935L16.676 4.4536V4.56305H16.926ZM16.926 14.5481H16.676V14.6575L16.7564 14.7318L16.926 14.5481ZM18.1459 13.9848H17.8959V14.2348H18.1459V13.9848ZM27.7425 13.9848V14.2348H27.9925V13.9848H27.7425ZM18.1459 5.126V4.876H17.8959V5.126H18.1459ZM27.7425 5.126H27.9925V4.876H27.7425V5.126ZM3.64705 29L3.47028 29.1768L3.5435 29.25H3.64705V29ZM14.4642 29V29.25H14.5678L14.641 29.1768L14.4642 29ZM3.03711 28.3901H2.78711V28.4936L2.86033 28.5668L3.03711 28.3901ZM3.03711 17.5729L2.86033 17.3961L2.78711 17.4694V17.5729H3.03711ZM3.64705 16.963V16.713H3.5435L3.47028 16.7862L3.64705 16.963ZM14.4642 16.963L14.641 16.7862L14.5678 16.713H14.4642V16.963ZM15.0741 17.5729H15.3241V17.4694L15.2509 17.3961L15.0741 17.5729ZM15.0741 28.3901L15.2509 28.5668L15.3241 28.4936V28.3901H15.0741ZM13.8542 27.7799V28.0299H14.1042V27.7799H13.8542ZM4.2576 27.7799H4.0076V28.0299H4.2576V27.7799ZM13.8542 18.1833H14.1042V17.9333H13.8542V18.1833ZM4.2576 18.1833V17.9333H4.0076V18.1833H4.2576ZM28.3531 29V29.25H28.4566L28.5299 29.1768L28.3531 29ZM17.5359 29L17.3592 29.1768L17.4324 29.25H17.5359V29ZM28.963 28.3901L29.1398 28.5668L29.213 28.4936V28.3901H28.963ZM28.963 17.5729H29.213V17.4694L29.1398 17.3961L28.963 17.5729ZM28.3531 16.963L28.5299 16.7862L28.4566 16.713H28.3531V16.963ZM17.5359 16.963V16.713H17.4324L17.3592 16.7862L17.5359 16.963ZM16.926 17.5729L16.7492 17.3961L16.676 17.4694V17.5729H16.926ZM16.926 28.3901H16.676V28.4936L16.7492 28.5668L16.926 28.3901ZM18.1459 27.7799H17.8959V28.0299H18.1459V27.7799ZM27.7425 27.7799V28.0299H27.9925V27.7799H27.7425ZM18.1459 18.1833V17.9333H17.8959V18.1833H18.1459ZM27.7425 18.1833H27.9925V17.9333H27.7425V18.1833ZM14.4642 14.8611H3.64705V15.3611H14.4642V14.8611ZM14.9046 14.3644L14.2946 14.9274L14.6338 15.2948L15.2437 14.7318L14.9046 14.3644ZM14.8241 4.56305V14.5481H15.3241V4.56305H14.8241ZM14.2946 4.1837L14.9046 4.74675L15.2437 4.37935L14.6338 3.8163L14.2946 4.1837ZM3.64705 4.25H14.4642V3.75H3.64705V4.25ZM3.20668 4.74675L3.81663 4.1837L3.47748 3.8163L2.86754 4.37935L3.20668 4.74675ZM3.28711 14.5481V4.56305H2.78711V14.5481H3.28711ZM3.81663 14.9274L3.20668 14.3644L2.86754 14.7318L3.47748 15.2948L3.81663 14.9274ZM4.2576 14.2348H13.8542V13.7348H4.2576V14.2348ZM4.0076 5.126V13.9848H4.5076V5.126H4.0076ZM13.8542 4.876H4.2576V5.376H13.8542V4.876ZM14.1042 13.9848V5.126H13.6042V13.9848H14.1042ZM28.3531 14.8611H17.5359V15.3611H28.3531V14.8611ZM28.7935 14.3644L28.1835 14.9274L28.5227 15.2948L29.1326 14.7318L28.7935 14.3644ZM28.713 4.56305V14.5481H29.213V4.56305H28.713ZM28.1835 4.1837L28.7935 4.74675L29.1326 4.37935L28.5227 3.8163L28.1835 4.1837ZM17.5359 4.25H28.3531V3.75H17.5359V4.25ZM17.0956 4.74675L17.7055 4.1837L17.3664 3.8163L16.7564 4.37935L17.0956 4.74675ZM17.176 14.5481V4.56305H16.676V14.5481H17.176ZM17.7055 14.9274L17.0956 14.3644L16.7564 14.7318L17.3664 15.2948L17.7055 14.9274ZM18.1459 14.2348H27.7425V13.7348H18.1459V14.2348ZM17.8959 5.126V13.9848H18.3959V5.126H17.8959ZM27.7425 4.876H18.1459V5.376H27.7425V4.876ZM27.9925 13.9848V5.126H27.4925V13.9848H27.9925ZM3.64705 29.25H14.4642V28.75H3.64705V29.25ZM2.86033 28.5668L3.47028 29.1768L3.82383 28.8232L3.21389 28.2133L2.86033 28.5668ZM2.78711 17.5729V28.3901H3.28711V17.5729H2.78711ZM3.47028 16.7862L2.86033 17.3961L3.21389 17.7497L3.82383 17.1397L3.47028 16.7862ZM14.4642 16.713H3.64705V17.213H14.4642V16.713ZM15.2509 17.3961L14.641 16.7862L14.2874 17.1397L14.8974 17.7497L15.2509 17.3961ZM15.3241 28.3901V17.5729H14.8241V28.3901H15.3241ZM14.641 29.1768L15.2509 28.5668L14.8974 28.2133L14.2874 28.8232L14.641 29.1768ZM13.8542 27.5299H4.2576V28.0299H13.8542V27.5299ZM13.6042 18.1833V27.7799H14.1042V18.1833H13.6042ZM4.2576 18.4333H13.8542V17.9333H4.2576V18.4333ZM4.5076 27.7799V18.1833H4.0076V27.7799H4.5076ZM28.3531 28.75H17.5359V29.25H28.3531V28.75ZM28.7863 28.2133L28.1763 28.8232L28.5299 29.1768L29.1398 28.5668L28.7863 28.2133ZM28.713 17.5729V28.3901H29.213V17.5729H28.713ZM28.1763 17.1397L28.7863 17.7497L29.1398 17.3961L28.5299 16.7862L28.1763 17.1397ZM17.5359 17.213H28.3531V16.713H17.5359V17.213ZM17.1028 17.7497L17.7127 17.1397L17.3592 16.7862L16.7492 17.3961L17.1028 17.7497ZM17.176 28.3901V17.5729H16.676V28.3901H17.176ZM17.7127 28.8232L17.1028 28.2133L16.7492 28.5668L17.3592 29.1768L17.7127 28.8232ZM18.1459 28.0299H27.7425V27.5299H18.1459V28.0299ZM17.8959 18.1833V27.7799H18.3959V18.1833H17.8959ZM27.7425 17.9333H18.1459V18.4333H27.7425V17.9333ZM27.9925 27.7799V18.1833H27.4925V27.7799H27.9925Z" fill="#000033"/>
</svg>
