<svg width="40" height="41" viewBox="0 0 40 41" fill="none" xmlns="http://www.w3.org/2000/svg">
<rect y="0.5" width="40" height="40" rx="20" fill="#F4F2FA"/>
<g clip-path="url(#clip0_5296_28693)">
<path d="M10 13.5L17 10.5L23 13.5L29.303 10.799C29.3791 10.7664 29.4621 10.7532 29.5445 10.7605C29.627 10.7679 29.7063 10.7956 29.7754 10.8412C29.8445 10.8868 29.9012 10.9489 29.9404 11.0218C29.9796 11.0947 30.0001 11.1762 30 11.259V27.5L23 30.5L17 27.5L10.697 30.201C10.6209 30.2336 10.5379 30.2468 10.4555 30.2395C10.373 30.2321 10.2937 30.2044 10.2246 30.1588C10.1555 30.1132 10.0988 30.0511 10.0596 29.9782C10.0204 29.9053 9.99993 29.8238 10 29.741V13.5ZM14 19.5V21.5H16V19.5H14ZM18 19.5V21.5H20V19.5H18ZM24 19.44L22.763 18.202L21.702 19.262L22.939 20.5L21.702 21.737L22.762 22.798L24 21.561L25.237 22.798L26.298 21.738L25.061 20.5L26.298 19.263L25.238 18.202L24 19.44Z" fill="#05058C"/>
</g>
<defs>
<clipPath id="clip0_5296_28693">
<rect width="24" height="24" fill="white" transform="translate(8 8.5)"/>
</clipPath>
</defs>
</svg>
