<svg width="40" height="40" viewBox="0 0 40 40" fill="none" xmlns="http://www.w3.org/2000/svg">
<rect width="40" height="40" rx="20" fill="#F4F2FA"/>
<g clip-path="url(#clip0_5296_29061)">
<path d="M10 11.993C10.0018 11.7304 10.1069 11.479 10.2925 11.2932C10.4781 11.1074 10.7294 11.0021 10.992 11H29.008C29.556 11 30 11.445 30 11.993V28.007C29.9982 28.2696 29.8931 28.521 29.7075 28.7068C29.5219 28.8926 29.2706 28.9979 29.008 29H10.992C10.7288 28.9997 10.4765 28.895 10.2905 28.7088C10.1045 28.5226 10 28.2702 10 28.007V11.993ZM12 13V27H28V13H12ZM14 15H20V21H14V15ZM16 17V19H18V17H16ZM14 23H26V25H14V23ZM22 15H26V17H22V15ZM22 19H26V21H22V19Z" fill="#05058C"/>
</g>
<defs>
<clipPath id="clip0_5296_29061">
<rect width="24" height="24" fill="white" transform="translate(8 8)"/>
</clipPath>
</defs>
</svg>
