<svg width="40" height="40" viewBox="0 0 40 40" fill="none" xmlns="http://www.w3.org/2000/svg">
<rect width="40" height="40" rx="20" fill="#F4F2FA"/>
<g clip-path="url(#clip0_5296_29053)">
<path d="M25.084 23.812C26.0244 22.8184 26.653 21.571 26.8922 20.224C27.1314 18.877 26.9706 17.4894 26.4297 16.2328C25.8888 14.9762 24.9916 13.9056 23.8489 13.1534C22.7062 12.4011 21.3681 12.0002 20 12.0002C18.6319 12.0002 17.2938 12.4011 16.1511 13.1534C15.0084 13.9056 14.1112 14.9762 13.5703 16.2328C13.0294 17.4894 12.8686 18.877 13.1078 20.224C13.347 21.571 13.9756 22.8184 14.916 23.812C15.4557 22.9508 16.2054 22.241 17.0947 21.7491C17.984 21.2572 18.9837 20.9995 20 21C21.0163 20.9995 22.016 21.2572 22.9053 21.7491C23.7946 22.241 24.5443 22.9508 25.084 23.812ZM20 31.728L13.636 25.364C12.3773 24.1053 11.5202 22.5017 11.1729 20.7558C10.8257 19.01 11.0039 17.2004 11.6851 15.5559C12.3663 13.9114 13.5198 12.5058 14.9999 11.5168C16.4799 10.5279 18.22 10.0001 20 10.0001C21.78 10.0001 23.5201 10.5279 25.0001 11.5168C26.4802 12.5058 27.6337 13.9114 28.3149 15.5559C28.9961 17.2004 29.1743 19.01 28.8271 20.7558C28.4798 22.5017 27.6227 24.1053 26.364 25.364L20 31.728ZM20 20C19.2044 20 18.4413 19.6839 17.8787 19.1213C17.3161 18.5587 17 17.7956 17 17C17 16.2044 17.3161 15.4413 17.8787 14.8787C18.4413 14.3161 19.2044 14 20 14C20.7956 14 21.5587 14.3161 22.1213 14.8787C22.6839 15.4413 23 16.2044 23 17C23 17.7956 22.6839 18.5587 22.1213 19.1213C21.5587 19.6839 20.7956 20 20 20Z" fill="#05058C"/>
</g>
<defs>
<clipPath id="clip0_5296_29053">
<rect width="24" height="24" fill="white" transform="translate(8 8)"/>
</clipPath>
</defs>
</svg>
