<svg width="40" height="41" viewBox="0 0 40 41" fill="none" xmlns="http://www.w3.org/2000/svg">
<rect y="0.5" width="40" height="40" rx="20" fill="#F4F2FA"/>
<g clip-path="url(#clip0_5296_28695)">
<path d="M21 23.5V27.5H24V29.5H16V27.5H19V23.5H12C11.7348 23.5 11.4804 23.3946 11.2929 23.2071C11.1054 23.0196 11 22.7652 11 22.5V12.5C11 12.2348 11.1054 11.9804 11.2929 11.7929C11.4804 11.6054 11.7348 11.5 12 11.5H28C28.2652 11.5 28.5196 11.6054 28.7071 11.7929C28.8946 11.9804 29 12.2348 29 12.5V22.5C29 22.7652 28.8946 23.0196 28.7071 23.2071C28.5196 23.3946 28.2652 23.5 28 23.5H21ZM16 16.5V18.5H24V16.5H16Z" fill="#05058C"/>
</g>
<defs>
<clipPath id="clip0_5296_28695">
<rect width="24" height="24" fill="white" transform="translate(8 8.5)"/>
</clipPath>
</defs>
</svg>
