<svg width="40" height="41" viewBox="0 0 40 41" fill="none" xmlns="http://www.w3.org/2000/svg">
<rect y="0.5" width="40" height="40" rx="20" fill="#F4F2FA"/>
<g clip-path="url(#clip0_5296_28691)">
<path d="M24 10.5L29 15.5V29.508C28.9997 29.7712 28.895 30.0235 28.7088 30.2095C28.5226 30.3955 28.2702 30.5 28.007 30.5H11.993C11.7304 30.4982 11.479 30.3931 11.2932 30.2075C11.1074 30.0219 11.0021 29.7706 11 29.508V11.492C11 10.944 11.445 10.5 11.993 10.5H24ZM21.529 22.946L23.739 25.156L25.154 23.743L22.944 21.533C23.4365 20.6941 23.6066 19.7045 23.4224 18.7493C23.2383 17.7941 22.7125 16.9386 21.9434 16.3429C21.1743 15.7472 20.2146 15.4521 19.2436 15.5126C18.2727 15.5732 17.3571 15.9854 16.668 16.672C15.979 17.3604 15.5649 18.2765 15.5033 19.2485C15.4416 20.2205 15.7368 21.1816 16.3333 21.9515C16.9298 22.7214 17.7867 23.2472 18.7432 23.4303C19.6998 23.6134 20.6903 23.4412 21.529 22.946ZM20.911 20.914C20.7265 21.105 20.5058 21.2574 20.2618 21.3622C20.0178 21.467 19.7554 21.5222 19.4898 21.5245C19.2242 21.5268 18.9609 21.4762 18.7151 21.3756C18.4693 21.2751 18.246 21.1266 18.0582 20.9388C17.8704 20.751 17.7219 20.5277 17.6214 20.2819C17.5208 20.0361 17.4702 19.7728 17.4725 19.5072C17.4748 19.2416 17.53 18.9792 17.6348 18.7352C17.7396 18.4912 17.892 18.2705 18.083 18.086C18.4602 17.7217 18.9654 17.5201 19.4898 17.5247C20.0142 17.5292 20.5158 17.7395 20.8866 18.1104C21.2575 18.4812 21.4678 18.9828 21.4723 19.5072C21.4769 20.0316 21.2753 20.5368 20.911 20.914Z" fill="#05058C"/>
</g>
<defs>
<clipPath id="clip0_5296_28691">
<rect width="24" height="24" fill="white" transform="translate(8 8.5)"/>
</clipPath>
</defs>
</svg>
