<svg width="40" height="41" viewBox="0 0 40 41" fill="none" xmlns="http://www.w3.org/2000/svg">
<rect y="0.5" width="40" height="40" rx="20" fill="#F4F2FA"/>
<g clip-path="url(#clip0_5296_28981)">
<path d="M20 30.5C14.477 30.5 10 26.023 10 20.5C10 14.977 14.477 10.5 20 10.5C25.523 10.5 30 14.977 30 20.5C30 26.023 25.523 30.5 20 30.5ZM15 20.5C15 21.8261 15.5268 23.0979 16.4645 24.0355C17.4021 24.9732 18.6739 25.5 20 25.5C21.3261 25.5 22.5979 24.9732 23.5355 24.0355C24.4732 23.0979 25 21.8261 25 20.5H23C23 21.2956 22.6839 22.0587 22.1213 22.6213C21.5587 23.1839 20.7956 23.5 20 23.5C19.2044 23.5 18.4413 23.1839 17.8787 22.6213C17.3161 22.0587 17 21.2956 17 20.5H15Z" fill="#05058C"/>
</g>
<defs>
<clipPath id="clip0_5296_28981">
<rect width="24" height="24" fill="white" transform="translate(8 8.5)"/>
</clipPath>
</defs>
</svg>
