<svg width="40" height="40" viewBox="0 0 40 40" fill="none" xmlns="http://www.w3.org/2000/svg">
<g clip-path="url(#clip0_5296_28960)">
<rect width="40" height="40" fill="white"/>
<path d="M38.5995 31.8255L31.762 25.0005C31.2936 24.5348 30.66 24.2735 29.9995 24.2735C29.3391 24.2735 28.7055 24.5348 28.237 25.0005L27.4995 25.738L26.437 24.6755C28.4888 22.2478 29.7163 19.231 29.9425 16.0605C30.1686 12.8899 29.3818 9.72952 27.6954 7.03514C26.0091 4.34077 23.5104 2.25174 20.5599 1.06943C17.6093 -0.112876 14.3595 -0.327336 11.2792 0.456992C8.19888 1.24132 5.44735 2.98388 3.42155 5.43329C1.39575 7.8827 0.200418 10.9123 0.00798991 14.0851C-0.184438 17.2579 0.63599 20.4097 2.35092 23.086C4.06584 25.7623 6.5866 27.8246 9.54954 28.9755C9.70487 29.0493 9.87374 29.0902 10.0456 29.0958C10.2175 29.1013 10.3887 29.0714 10.5484 29.0078C10.7082 28.9441 10.8531 28.8482 10.9741 28.7261C11.0951 28.6039 11.1896 28.4581 11.2517 28.2977C11.3138 28.1373 11.3421 27.9659 11.3349 27.7941C11.3277 27.6222 11.2851 27.4538 11.2098 27.2992C11.1345 27.1446 11.0281 27.0071 10.8973 26.8955C10.7665 26.7839 10.6141 26.7005 10.4495 26.6505C7.54729 25.5218 5.17084 23.3504 3.78547 20.5616C2.40009 17.7727 2.10556 14.5672 2.95953 11.5725C3.81351 8.57791 5.75449 6.00987 8.40247 4.37119C11.0504 2.73252 14.2147 2.14122 17.2758 2.71306C20.3368 3.28491 23.0742 4.97872 24.952 7.46286C26.8298 9.94701 27.7127 13.0426 27.4279 16.1436C27.1432 19.2445 25.7112 22.1275 23.4124 24.2281C21.1136 26.3287 18.1135 27.4957 14.9995 27.5005C14.668 27.5005 14.3501 27.6322 14.1157 27.8666C13.8812 28.101 13.7495 28.419 13.7495 28.7505C13.7495 29.082 13.8812 29.3999 14.1157 29.6344C14.3501 29.8688 14.668 30.0005 14.9995 30.0005C18.5463 30.0054 21.9779 28.7419 24.6745 26.438L25.737 27.5005C24.937 28.3005 24.262 28.7505 24.262 30.0005C24.2648 30.6624 24.5301 31.2963 24.9995 31.763L31.8245 38.6005C32.723 39.4989 33.9415 40.0036 35.212 40.0036C36.4826 40.0036 37.7011 39.4989 38.5995 38.6005C39.498 37.7021 40.0027 36.4835 40.0027 35.213C40.0027 33.9424 39.498 32.7239 38.5995 31.8255ZM35.212 37.5005C34.6067 37.4965 34.0273 37.2539 33.5995 36.8255L26.762 30.0005L29.9995 26.763L36.8245 33.6005C37.1424 33.9203 37.3587 34.327 37.4462 34.7695C37.5336 35.2119 37.4883 35.6703 37.316 36.087C37.1437 36.5038 36.852 36.8603 36.4777 37.1118C36.1033 37.3633 35.663 37.4985 35.212 37.5005Z" fill="#000033"/>
<path d="M0.0165272 16.0605C-0.209644 12.8899 0.577204 9.72952 2.26356 7.03514C3.94992 4.34077 6.44859 2.25174 9.39912 1.06943C12.3497 -0.112876 15.5995 -0.327336 18.6798 0.456992C21.7601 1.24132 24.5116 2.98388 26.5374 5.43329C28.5632 7.8827 29.7586 10.9123 29.951 14.0851C30.1434 17.2579 29.323 20.4097 27.6081 23.086C25.8931 25.7623 23.3724 27.8246 20.4094 28.9755C20.2541 29.0493 20.0852 29.0902 19.9134 29.0958C19.7415 29.1013 19.5703 29.0714 19.4106 29.0078C19.2508 28.9441 19.1059 28.8482 18.9849 28.7261C18.8639 28.6039 18.7694 28.4581 18.7073 28.2977C18.6452 28.1373 18.6169 27.9659 18.6241 27.7941C18.6313 27.6222 18.6739 27.4538 18.7492 27.2992C18.8245 27.1446 18.9308 27.0071 19.0617 26.8955C19.1925 26.7839 19.3449 26.7005 19.5094 26.6505C22.4117 25.5218 24.7881 23.3504 26.1735 20.5616C27.5589 17.7727 27.8534 14.5672 26.9995 11.5725C26.1455 8.57791 24.2045 6.00987 21.5565 4.37119C18.9085 2.73252 15.7443 2.14122 12.6832 2.71306C9.62217 3.28491 6.88478 4.97872 5.00701 7.46286C3.12923 9.94701 2.24629 13.0426 2.53105 16.1436C2.81581 19.2445 4.24776 22.1275 6.54656 24.2281C8.84535 26.3287 11.8454 27.4957 14.9594 27.5005C15.291 27.5005 15.6089 27.6322 15.8433 27.8666C16.0777 28.101 16.2094 28.419 16.2094 28.7505C16.2094 29.082 16.0777 29.3999 15.8433 29.6344C15.6089 29.8688 15.291 30.0005 14.9594 30.0005C6.9667 29.8535 1.40586 24.3417 0.0165272 16.0605Z" fill="#05058C"/>
<path d="M15 6.25C13.2694 6.25 11.5777 6.76318 10.1388 7.72464C8.69983 8.6861 7.57832 10.0527 6.91606 11.6515C6.25379 13.2504 6.08051 15.0097 6.41813 16.707C6.75575 18.4044 7.58911 19.9635 8.81282 21.1872C10.0365 22.4109 11.5956 23.2442 13.293 23.5819C14.9903 23.9195 16.7496 23.7462 18.3485 23.0839C19.9473 22.4217 21.3139 21.3002 22.2754 19.8612C23.2368 18.4223 23.75 16.7306 23.75 15C23.75 12.6794 22.8281 10.4538 21.1872 8.81282C19.5462 7.17187 17.3206 6.25 15 6.25ZM20.2125 18.4375L16.25 14.4875V8.875C17.2506 9.08021 18.1856 9.5275 18.9733 10.1778C19.7609 10.828 20.3772 11.6614 20.7682 12.605C21.1592 13.5486 21.313 14.5736 21.2162 15.5904C21.1193 16.6072 20.7747 17.5847 20.2125 18.4375ZM8.75 15C8.74971 13.5592 9.24723 12.1625 10.1584 11.0464C11.0695 9.93023 12.3383 9.16316 13.75 8.875V15C13.7491 15.1645 13.7806 15.3276 13.8428 15.4799C13.905 15.6322 13.9967 15.7707 14.1125 15.8875L18.4375 20.2125C17.4957 20.8327 16.4037 21.1866 15.2772 21.2366C14.1507 21.2866 13.0316 21.0309 12.0386 20.4966C11.0456 19.9623 10.2156 19.1693 9.63663 18.2016C9.05768 17.2339 8.75132 16.1276 8.75 15Z" fill="#05058C"/>
</g>
<defs>
<clipPath id="clip0_5296_28960">
<rect width="40" height="40" fill="white"/>
</clipPath>
</defs>
</svg>
