<svg width="40" height="41" viewBox="0 0 40 41" fill="none" xmlns="http://www.w3.org/2000/svg">
<rect y="0.5" width="40" height="40" rx="20" fill="#F4F2FA"/>
<g clip-path="url(#clip0_5296_28979)">
<path d="M20 19.5C21.3261 19.5 22.5979 20.0268 23.5355 20.9645C24.4732 21.9021 25 23.1739 25 24.5V30.5H15V24.5C15 23.1739 15.5268 21.9021 16.4645 20.9645C17.4021 20.0268 18.6739 19.5 20 19.5ZM13.288 22.506C13.1289 23.0428 13.0348 23.5968 13.008 24.156L13 24.5V30.5H10V26C9.9998 25.1376 10.318 24.3054 10.8936 23.6632C11.4692 23.021 12.2617 22.6139 13.119 22.52L13.288 22.506ZM26.712 22.506C27.6019 22.5602 28.4376 22.952 29.0486 23.6012C29.6596 24.2505 29.9999 25.1084 30 26V30.5H27V24.5C27 23.807 26.9 23.138 26.712 22.506ZM13.5 16.5C14.163 16.5 14.7989 16.7634 15.2678 17.2322C15.7366 17.7011 16 18.337 16 19C16 19.663 15.7366 20.2989 15.2678 20.7678C14.7989 21.2366 14.163 21.5 13.5 21.5C12.837 21.5 12.2011 21.2366 11.7322 20.7678C11.2634 20.2989 11 19.663 11 19C11 18.337 11.2634 17.7011 11.7322 17.2322C12.2011 16.7634 12.837 16.5 13.5 16.5ZM26.5 16.5C27.163 16.5 27.7989 16.7634 28.2678 17.2322C28.7366 17.7011 29 18.337 29 19C29 19.663 28.7366 20.2989 28.2678 20.7678C27.7989 21.2366 27.163 21.5 26.5 21.5C25.837 21.5 25.2011 21.2366 24.7322 20.7678C24.2634 20.2989 24 19.663 24 19C24 18.337 24.2634 17.7011 24.7322 17.2322C25.2011 16.7634 25.837 16.5 26.5 16.5ZM20 10.5C21.0609 10.5 22.0783 10.9214 22.8284 11.6716C23.5786 12.4217 24 13.4391 24 14.5C24 15.5609 23.5786 16.5783 22.8284 17.3284C22.0783 18.0786 21.0609 18.5 20 18.5C18.9391 18.5 17.9217 18.0786 17.1716 17.3284C16.4214 16.5783 16 15.5609 16 14.5C16 13.4391 16.4214 12.4217 17.1716 11.6716C17.9217 10.9214 18.9391 10.5 20 10.5Z" fill="#05058C"/>
</g>
<defs>
<clipPath id="clip0_5296_28979">
<rect width="24" height="24" fill="white" transform="translate(8 8.5)"/>
</clipPath>
</defs>
</svg>
