<svg width="40" height="40" viewBox="0 0 40 40" fill="none" xmlns="http://www.w3.org/2000/svg">
<g clip-path="url(#clip0_5296_28773)">
<rect width="40" height="40" fill="white"/>
<path d="M15 15C13.0222 15 11.0888 15.5865 9.4443 16.6853C7.79981 17.7841 6.51809 19.3459 5.76121 21.1732C5.00433 23.0004 4.8063 25.0111 5.19215 26.9509C5.578 28.8907 6.53041 30.6725 7.92894 32.0711C9.32746 33.4696 11.1093 34.422 13.0491 34.8079C14.9889 35.1937 16.9996 34.9957 18.8268 34.2388C20.6541 33.4819 22.2159 32.2002 23.3147 30.5557C24.4135 28.9112 25 26.9778 25 25C25 22.3478 23.9464 19.8043 22.0711 17.9289C20.1957 16.0536 17.6522 15 15 15ZM7.5 25C7.5018 23.2289 8.13031 21.5156 9.27424 20.1635C10.4182 18.8113 12.0037 17.9077 13.75 17.6125V25C13.75 25.5875 13.5 25.15 18.75 31.475C17.6113 32.1324 16.3199 32.4789 15.005 32.4798C13.6902 32.4807 12.3983 32.1359 11.2587 31.4801C10.1192 30.8242 9.17208 29.8803 8.51237 28.7429C7.85266 27.6056 7.50354 26.3148 7.5 25ZM20.6875 29.875L16.25 24.55V17.6125C17.5561 17.8362 18.7796 18.402 19.796 19.2522C20.8124 20.1024 21.5854 21.2067 22.0363 22.4527C22.4872 23.6988 22.5999 25.042 22.363 26.3458C22.1261 27.6496 21.548 28.8673 20.6875 29.875Z" fill="#05058C"/>
<path d="M28.75 18.75H33.75C34.0815 18.75 34.3995 18.6183 34.6339 18.3839C34.8683 18.1495 35 17.8315 35 17.5C35 17.1685 34.8683 16.8505 34.6339 16.6161C34.3995 16.3817 34.0815 16.25 33.75 16.25H28.75C28.4185 16.25 28.1005 16.3817 27.8661 16.6161C27.6317 16.8505 27.5 17.1685 27.5 17.5C27.5 17.8315 27.6317 18.1495 27.8661 18.3839C28.1005 18.6183 28.4185 18.75 28.75 18.75Z" fill="#05058C"/>
<path d="M33.75 21.25H28.75C28.4185 21.25 28.1005 21.3817 27.8661 21.6161C27.6317 21.8505 27.5 22.1685 27.5 22.5C27.5 22.8315 27.6317 23.1495 27.8661 23.3839C28.1005 23.6183 28.4185 23.75 28.75 23.75H33.75C34.0815 23.75 34.3995 23.6183 34.6339 23.3839C34.8683 23.1495 35 22.8315 35 22.5C35 22.1685 34.8683 21.8505 34.6339 21.6161C34.3995 21.3817 34.0815 21.25 33.75 21.25Z" fill="#05058C"/>
<path d="M33.75 26.25H28.75C28.4185 26.25 28.1005 26.3817 27.8661 26.6161C27.6317 26.8505 27.5 27.1685 27.5 27.5C27.5 27.8315 27.6317 28.1495 27.8661 28.3839C28.1005 28.6183 28.4185 28.75 28.75 28.75H33.75C34.0815 28.75 34.3995 28.6183 34.6339 28.3839C34.8683 28.1495 35 27.8315 35 27.5C35 27.1685 34.8683 26.8505 34.6339 26.6161C34.3995 26.3817 34.0815 26.25 33.75 26.25Z" fill="#05058C"/>
<path d="M33.75 31.25H28.75C28.4185 31.25 28.1005 31.3817 27.8661 31.6161C27.6317 31.8505 27.5 32.1685 27.5 32.5C27.5 32.8315 27.6317 33.1495 27.8661 33.3839C28.1005 33.6183 28.4185 33.75 28.75 33.75H33.75C34.0815 33.75 34.3995 33.6183 34.6339 33.3839C34.8683 33.1495 35 32.8315 35 32.5C35 32.1685 34.8683 31.8505 34.6339 31.6161C34.3995 31.3817 34.0815 31.25 33.75 31.25Z" fill="#05058C"/>
<path d="M36.25 10.0003H35.2875L22.7875 3.7503C22.4891 3.60443 22.145 3.58306 21.8309 3.69089C21.5168 3.79873 21.2584 4.02693 21.1125 4.3253C20.9666 4.62366 20.9453 4.96776 21.0531 5.28188C21.1609 5.59601 21.3891 5.85443 21.6875 6.0003L29.65 10.0003H10.35L18.35 6.0503C18.501 5.97807 18.6363 5.8768 18.7482 5.75228C18.8601 5.62776 18.9464 5.48242 19.0021 5.32456C19.0578 5.1667 19.0819 4.99941 19.0729 4.83225C19.064 4.66508 19.0222 4.50132 18.95 4.3503C18.8778 4.19928 18.7765 4.06396 18.652 3.95208C18.5275 3.84019 18.3821 3.75393 18.2243 3.69821C18.0664 3.6425 17.8991 3.61842 17.732 3.62736C17.5648 3.63629 17.401 3.67807 17.25 3.7503L4.75 10.0003H3.75C2.75544 10.0003 1.80161 10.3954 1.09835 11.0986C0.395088 11.8019 0 12.7557 0 13.7503L0 36.2503C0 37.2449 0.395088 38.1987 1.09835 38.902C1.80161 39.6052 2.75544 40.0003 3.75 40.0003H7.5C7.83152 40.0003 8.14946 39.8686 8.38388 39.6342C8.6183 39.3998 8.75 39.0818 8.75 38.7503C8.75 38.4188 8.6183 38.1008 8.38388 37.8664C8.14946 37.632 7.83152 37.5003 7.5 37.5003H3.75C3.41848 37.5003 3.10054 37.3686 2.86612 37.1342C2.6317 36.8998 2.5 36.5818 2.5 36.2503V13.7503C2.5 13.4188 2.6317 13.1008 2.86612 12.8664C3.10054 12.632 3.41848 12.5003 3.75 12.5003H36.25C36.5815 12.5003 36.8995 12.632 37.1339 12.8664C37.3683 13.1008 37.5 13.4188 37.5 13.7503V36.2503C37.5 36.5818 37.3683 36.8998 37.1339 37.1342C36.8995 37.3686 36.5815 37.5003 36.25 37.5003H12.5C12.1685 37.5003 11.8505 37.632 11.6161 37.8664C11.3817 38.1008 11.25 38.4188 11.25 38.7503C11.25 39.0818 11.3817 39.3998 11.6161 39.6342C11.8505 39.8686 12.1685 40.0003 12.5 40.0003H36.25C37.2446 40.0003 38.1984 39.6052 38.9016 38.902C39.6049 38.1987 40 37.2449 40 36.2503V13.7503C40 12.7557 39.6049 11.8019 38.9016 11.0986C38.1984 10.3954 37.2446 10.0003 36.25 10.0003Z" fill="#000033"/>
<path d="M20 7.5C19.2583 7.5 18.5333 7.28007 17.9166 6.86801C17.2999 6.45596 16.8193 5.87029 16.5355 5.18506C16.2516 4.49984 16.1774 3.74584 16.3221 3.01841C16.4668 2.29098 16.8239 1.6228 17.3484 1.09835C17.8728 0.573904 18.541 0.216751 19.2684 0.0720569C19.9958 -0.0726377 20.7498 0.00162482 21.4351 0.285453C22.1203 0.569282 22.706 1.04993 23.118 1.66661C23.5301 2.2833 23.75 3.00832 23.75 3.75C23.75 4.74456 23.3549 5.69839 22.6517 6.40165C21.9484 7.10491 20.9946 7.5 20 7.5ZM20 2.5C19.7528 2.5 19.5111 2.57331 19.3055 2.71066C19.1 2.84802 18.9398 3.04324 18.8452 3.27165C18.7505 3.50006 18.7258 3.75139 18.774 3.99386C18.8223 4.23634 18.9413 4.45907 19.1161 4.63389C19.2909 4.8087 19.5137 4.92775 19.7561 4.97598C19.9986 5.02422 20.2499 4.99946 20.4784 4.90485C20.7068 4.81024 20.902 4.65003 21.0393 4.44446C21.1767 4.2389 21.25 3.99723 21.25 3.75C21.25 3.41848 21.1183 3.10054 20.8839 2.86612C20.6495 2.6317 20.3315 2.5 20 2.5Z" fill="#05058C"/>
</g>
<defs>
<clipPath id="clip0_5296_28773">
<rect width="40" height="40" fill="white"/>
</clipPath>
</defs>
</svg>
