<svg width="40" height="41" viewBox="0 0 40 41" fill="none" xmlns="http://www.w3.org/2000/svg">
<rect y="0.5" width="40" height="40" rx="20" fill="#F4F2FA"/>
<g clip-path="url(#clip0_5296_28985)">
<path d="M13.463 12.933C15.2776 11.3607 17.599 10.4967 20 10.5C25.523 10.5 30 14.977 30 20.5C30 22.636 29.33 24.616 28.19 26.24L25 20.5H28C28.0001 18.9316 27.5392 17.3978 26.6747 16.0893C25.8101 14.7807 24.5799 13.7552 23.1372 13.1401C21.6944 12.5251 20.1027 12.3477 18.56 12.63C17.0172 12.9123 15.5915 13.6419 14.46 14.728L13.463 12.933ZM26.537 28.067C24.7224 29.6393 22.401 30.5033 20 30.5C14.477 30.5 10 26.023 10 20.5C10 18.364 10.67 16.384 11.81 14.76L15 20.5H12C11.9999 22.0684 12.4608 23.6022 13.3253 24.9107C14.1899 26.2193 15.4201 27.2448 16.8628 27.8599C18.3056 28.4749 19.8973 28.6523 21.44 28.37C22.9828 28.0877 24.4085 27.3581 25.54 26.272L26.537 28.067Z" fill="#05058C"/>
</g>
<defs>
<clipPath id="clip0_5296_28985">
<rect width="24" height="24" fill="white" transform="translate(8 8.5)"/>
</clipPath>
</defs>
</svg>
