<svg width="40" height="40" viewBox="0 0 40 40" fill="none" xmlns="http://www.w3.org/2000/svg">
<g clip-path="url(#clip0_5296_29016)">
<rect width="40" height="40" fill="white"/>
<path d="M6.25 6.25C5.91848 6.25 5.60054 6.1183 5.36612 5.88388C5.1317 5.64946 5 5.33152 5 5C5 4.66848 5.1317 4.35054 5.36612 4.11612C5.60054 3.8817 5.91848 3.75 6.25 3.75H8.75C9.08152 3.75 9.39946 3.6183 9.63388 3.38388C9.8683 3.14946 10 2.83152 10 2.5C10 2.16848 9.8683 1.85054 9.63388 1.61612C9.39946 1.3817 9.08152 1.25 8.75 1.25H7.5C7.5 0.918479 7.3683 0.600537 7.13388 0.366117C6.89946 0.131696 6.58152 0 6.25 0C5.91848 0 5.60054 0.131696 5.36612 0.366117C5.1317 0.600537 5 0.918479 5 1.25V1.475C4.17329 1.77497 3.4783 2.35597 3.03654 3.11641C2.59477 3.87686 2.43433 4.76838 2.58325 5.63514C2.73218 6.50189 3.181 7.28873 3.85126 7.85811C4.52152 8.42748 5.37057 8.74318 6.25 8.75C6.58152 8.75 6.89946 8.8817 7.13388 9.11612C7.3683 9.35054 7.5 9.66848 7.5 10C7.5 10.3315 7.3683 10.6495 7.13388 10.8839C6.89946 11.1183 6.58152 11.25 6.25 11.25H3.75C3.41848 11.25 3.10054 11.3817 2.86612 11.6161C2.6317 11.8505 2.5 12.1685 2.5 12.5C2.5 12.8315 2.6317 13.1495 2.86612 13.3839C3.10054 13.6183 3.41848 13.75 3.75 13.75H5C5 14.0815 5.1317 14.3995 5.36612 14.6339C5.60054 14.8683 5.91848 15 6.25 15C6.58152 15 6.89946 14.8683 7.13388 14.6339C7.3683 14.3995 7.5 14.0815 7.5 13.75V13.525C8.32671 13.225 9.0217 12.644 9.46346 11.8836C9.90523 11.1231 10.0657 10.2316 9.91675 9.36486C9.76782 8.49811 9.319 7.71127 8.64874 7.14189C7.97848 6.57252 7.12943 6.25682 6.25 6.25Z" fill="#05058C"/>
<path d="M8.75 22.5H6.25C5.25544 22.5 4.30161 22.8951 3.59835 23.5983C2.89509 24.3016 2.5 25.2554 2.5 26.25V36.25C2.5 37.2446 2.89509 38.1984 3.59835 38.9017C4.30161 39.6049 5.25544 40 6.25 40H8.75C9.74456 40 10.6984 39.6049 11.4017 38.9017C12.1049 38.1984 12.5 37.2446 12.5 36.25V26.25C12.5 25.2554 12.1049 24.3016 11.4017 23.5983C10.6984 22.8951 9.74456 22.5 8.75 22.5ZM6.25 25H8.75C9.08152 25 9.39946 25.1317 9.63388 25.3661C9.8683 25.6005 10 25.9185 10 26.25V30H5V26.25C5 25.9185 5.1317 25.6005 5.36612 25.3661C5.60054 25.1317 5.91848 25 6.25 25ZM8.75 37.5H6.25C5.91848 37.5 5.60054 37.3683 5.36612 37.1339C5.1317 36.8995 5 36.5815 5 36.25V32.5H10V36.25C10 36.5815 9.8683 36.8995 9.63388 37.1339C9.39946 37.3683 9.08152 37.5 8.75 37.5Z" fill="#000033"/>
<path d="M21.25 17.5H18.75C17.7554 17.5 16.8016 17.8951 16.0983 18.5983C15.3951 19.3016 15 20.2554 15 21.25V36.25C15 37.2446 15.3951 38.1984 16.0983 38.9017C16.8016 39.6049 17.7554 40 18.75 40H21.25C22.2446 40 23.1984 39.6049 23.9017 38.9017C24.6049 38.1984 25 37.2446 25 36.25V21.25C25 20.2554 24.6049 19.3016 23.9017 18.5983C23.1984 17.8951 22.2446 17.5 21.25 17.5ZM18.75 20H21.25C21.5815 20 21.8995 20.1317 22.1339 20.3661C22.3683 20.6005 22.5 20.9185 22.5 21.25V25H17.5V21.25C17.5 20.9185 17.6317 20.6005 17.8661 20.3661C18.1005 20.1317 18.4185 20 18.75 20ZM21.25 37.5H18.75C18.4185 37.5 18.1005 37.3683 17.8661 37.1339C17.6317 36.8995 17.5 36.5815 17.5 36.25V27.5H22.5V36.25C22.5 36.5815 22.3683 36.8995 22.1339 37.1339C21.8995 37.3683 21.5815 37.5 21.25 37.5Z" fill="#000033"/>
<path d="M33.75 10H31.25C30.2554 10 29.3016 10.3951 28.5983 11.0983C27.8951 11.8016 27.5 12.7554 27.5 13.75V36.25C27.5 37.2446 27.8951 38.1984 28.5983 38.9017C29.3016 39.6049 30.2554 40 31.25 40H33.75C34.7446 40 35.6984 39.6049 36.4017 38.9017C37.1049 38.1984 37.5 37.2446 37.5 36.25V32.5C37.5 32.1685 37.3683 31.8505 37.1339 31.6161C36.8995 31.3817 36.5815 31.25 36.25 31.25C35.9185 31.25 35.6005 31.3817 35.3661 31.6161C35.1317 31.8505 35 32.1685 35 32.5V36.25C35 36.5815 34.8683 36.8995 34.6339 37.1339C34.3995 37.3683 34.0815 37.5 33.75 37.5H31.25C30.9185 37.5 30.6005 37.3683 30.3661 37.1339C30.1317 36.8995 30 36.5815 30 36.25V20H35V27.5C35 27.8315 35.1317 28.1495 35.3661 28.3839C35.6005 28.6183 35.9185 28.75 36.25 28.75C36.5815 28.75 36.8995 28.6183 37.1339 28.3839C37.3683 28.1495 37.5 27.8315 37.5 27.5V13.75C37.5 12.7554 37.1049 11.8016 36.4017 11.0983C35.6984 10.3951 34.7446 10 33.75 10ZM30 17.5V13.75C30 13.4185 30.1317 13.1005 30.3661 12.8661C30.6005 12.6317 30.9185 12.5 31.25 12.5H33.75C34.0815 12.5 34.3995 12.6317 34.6339 12.8661C34.8683 13.1005 35 13.4185 35 13.75V17.5H30Z" fill="#05058C"/>
</g>
<defs>
<clipPath id="clip0_5296_29016">
<rect width="40" height="40" fill="white"/>
</clipPath>
</defs>
</svg>
