<svg width="40" height="41" viewBox="0 0 40 41" fill="none" xmlns="http://www.w3.org/2000/svg">
<rect y="0.5" width="40" height="40" rx="20" fill="#F4F2FA"/>
<g clip-path="url(#clip0_5296_28983)">
<path d="M26 11.5C27.657 11.5 29 12.843 29 14.5C29 16.157 27.657 17.5 26 17.5H23C21.694 17.5 20.583 16.666 20.171 15.5H19C17.9 15.5 17 16.4 17 17.5V17.671C18.166 18.083 19 19.194 19 20.5C19 21.806 18.166 22.917 17 23.329V23.5C17 24.6 17.9 25.5 19 25.5H20.17C20.582 24.335 21.694 23.5 23 23.5H26C27.657 23.5 29 24.843 29 26.5C29 28.157 27.657 29.5 26 29.5H23C21.694 29.5 20.583 28.666 20.171 27.5H19C16.79 27.5 15 25.71 15 23.5H13C11.343 23.5 10 22.157 10 20.5C10 18.843 11.343 17.5 13 17.5H15C15 15.29 16.79 13.5 19 13.5H20.17C20.582 12.335 21.694 11.5 23 11.5H26ZM26 25.5H23C22.448 25.5 22 25.948 22 26.5C22 27.052 22.448 27.5 23 27.5H26C26.552 27.5 27 27.052 27 26.5C27 25.948 26.552 25.5 26 25.5ZM16 19.5H13C12.448 19.5 12 19.948 12 20.5C12 21.052 12.448 21.5 13 21.5H16C16.552 21.5 17 21.052 17 20.5C17 19.948 16.552 19.5 16 19.5ZM26 13.5H23C22.448 13.5 22 13.948 22 14.5C22 15.052 22.448 15.5 23 15.5H26C26.552 15.5 27 15.052 27 14.5C27 13.948 26.552 13.5 26 13.5Z" fill="#05058C"/>
</g>
<defs>
<clipPath id="clip0_5296_28983">
<rect width="24" height="24" fill="white" transform="translate(8 8.5)"/>
</clipPath>
</defs>
</svg>
