<svg width="40" height="40" viewBox="0 0 40 40" fill="none" xmlns="http://www.w3.org/2000/svg">
<g clip-path="url(#clip0_5296_29027)">
<rect width="40" height="40" fill="white"/>
<path d="M38.75 12.5C39.0815 12.5 39.3995 12.3683 39.6339 12.1339C39.8683 11.8995 40 11.5815 40 11.25V3.75C40 2.75544 39.6049 1.80161 38.9016 1.09835C38.1984 0.395088 37.2446 0 36.25 0L3.75 0C2.75544 0 1.80161 0.395088 1.09835 1.09835C0.395088 1.80161 0 2.75544 0 3.75L0 36.25C0 37.2446 0.395088 38.1984 1.09835 38.9016C1.80161 39.6049 2.75544 40 3.75 40H36.25C37.2446 40 38.1984 39.6049 38.9016 38.9016C39.6049 38.1984 40 37.2446 40 36.25V16.25C40 15.9185 39.8683 15.6005 39.6339 15.3661C39.3995 15.1317 39.0815 15 38.75 15C38.4185 15 38.1005 15.1317 37.8661 15.3661C37.6317 15.6005 37.5 15.9185 37.5 16.25V36.25C37.5 36.5815 37.3683 36.8995 37.1339 37.1339C36.8995 37.3683 36.5815 37.5 36.25 37.5H3.75C3.41848 37.5 3.10054 37.3683 2.86612 37.1339C2.6317 36.8995 2.5 36.5815 2.5 36.25V12.5H38.75ZM2.5 3.75C2.5 3.41848 2.6317 3.10054 2.86612 2.86612C3.10054 2.6317 3.41848 2.5 3.75 2.5H36.25C36.5815 2.5 36.8995 2.6317 37.1339 2.86612C37.3683 3.10054 37.5 3.41848 37.5 3.75V10H2.5V3.75Z" fill="#000033"/>
<path d="M33.75 5C33.5028 5 33.2611 5.07331 33.0555 5.21066C32.85 5.34801 32.6898 5.54324 32.5952 5.77165C32.5005 6.00005 32.4758 6.25139 32.524 6.49386C32.5723 6.73634 32.6913 6.95907 32.8661 7.13388C33.0409 7.3087 33.2637 7.42775 33.5061 7.47598C33.7486 7.52421 33.9999 7.49946 34.2284 7.40485C34.4568 7.31024 34.652 7.15002 34.7893 6.94446C34.9267 6.7389 35 6.49723 35 6.25C35 5.91848 34.8683 5.60054 34.6339 5.36612C34.3995 5.1317 34.0815 5 33.75 5Z" fill="#05058C"/>
<path d="M28.75 5C28.5028 5 28.2611 5.07331 28.0555 5.21066C27.85 5.34801 27.6898 5.54324 27.5952 5.77165C27.5005 6.00005 27.4758 6.25139 27.524 6.49386C27.5723 6.73634 27.6913 6.95907 27.8661 7.13388C28.0409 7.3087 28.2637 7.42775 28.5061 7.47598C28.7486 7.52421 28.9999 7.49946 29.2284 7.40485C29.4568 7.31024 29.652 7.15002 29.7893 6.94446C29.9267 6.7389 30 6.49723 30 6.25C30 5.91848 29.8683 5.60054 29.6339 5.36612C29.3995 5.1317 29.0815 5 28.75 5Z" fill="#000033"/>
<path d="M23.75 5C23.5028 5 23.2611 5.07331 23.0555 5.21066C22.85 5.34801 22.6898 5.54324 22.5952 5.77165C22.5005 6.00005 22.4758 6.25139 22.524 6.49386C22.5723 6.73634 22.6913 6.95907 22.8661 7.13388C23.0409 7.3087 23.2637 7.42775 23.5061 7.47598C23.7486 7.52421 23.9999 7.49946 24.2284 7.40485C24.4568 7.31024 24.652 7.15002 24.7893 6.94446C24.9267 6.7389 25 6.49723 25 6.25C25 5.91848 24.8683 5.60054 24.6339 5.36612C24.3995 5.1317 24.0815 5 23.75 5Z" fill="#000033"/>
<path d="M22.5 35H17.5C17.1685 35 16.8506 34.8683 16.6162 34.6339C16.3817 34.3995 16.25 34.0815 16.25 33.75C16.2673 33.5229 16.2221 33.2953 16.1194 33.092C16.0167 32.8886 15.8604 32.7172 15.6674 32.5963C15.4744 32.4753 15.2519 32.4094 15.0242 32.4056C14.7964 32.4019 14.5719 32.4604 14.375 32.575C14.0807 32.747 13.7317 32.8002 13.3994 32.7235C13.0672 32.6468 12.7768 32.4461 12.5875 32.1625L10.0875 27.8375C10.0044 27.6956 9.95004 27.5386 9.92765 27.3757C9.90526 27.2127 9.91525 27.0469 9.95706 26.8878C9.99886 26.7287 10.0717 26.5795 10.1713 26.4486C10.2709 26.3177 10.3954 26.2077 10.5375 26.125C10.7436 26.0272 10.9189 25.8749 11.0446 25.6845C11.1702 25.4942 11.2414 25.2731 11.2504 25.0452C11.2594 24.8173 11.2059 24.5913 11.0957 24.3916C10.9855 24.192 10.8227 24.0263 10.625 23.9125C10.3275 23.746 10.1056 23.4712 10.0055 23.1453C9.90536 22.8193 9.93476 22.4673 10.0875 22.1625L12.5875 17.8375C12.6692 17.6943 12.7784 17.5686 12.9088 17.4677C13.0393 17.3669 13.1884 17.2928 13.3475 17.2498C13.5067 17.2069 13.6728 17.1958 13.8363 17.2173C13.9998 17.2387 14.1574 17.2924 14.3 17.375C14.4882 17.5022 14.7074 17.5757 14.9342 17.5876C15.161 17.5996 15.3867 17.5496 15.5872 17.4429C15.7877 17.3362 15.9553 17.177 16.0721 16.9822C16.1889 16.7875 16.2504 16.5646 16.25 16.3375C16.2493 15.9974 16.3782 15.6698 16.6104 15.4214C16.8426 15.1729 17.1607 15.0222 17.5 15H22.5C22.8316 15 23.1495 15.1317 23.3839 15.3661C23.6184 15.6005 23.75 15.9185 23.75 16.25C23.733 16.4848 23.7826 16.7197 23.8932 16.9276C24.0037 17.1355 24.1708 17.3079 24.375 17.425C25.3625 17.9875 25.625 17.0375 26.6125 17.275C26.7769 17.3102 26.9324 17.3781 27.0698 17.4748C27.2073 17.5714 27.3239 17.6948 27.4125 17.8375L29.9125 22.1625C29.9984 22.3113 30.0528 22.4761 30.0721 22.6468C30.0914 22.8175 30.0754 22.9904 30.025 23.1546C29.9745 23.3188 29.8908 23.4708 29.779 23.6012C29.6671 23.7316 29.5296 23.8376 29.375 23.9125C29.1827 24.0215 29.0227 24.1796 28.9113 24.3707C28.8 24.5617 28.7414 24.7789 28.7414 25C28.7414 25.2211 28.8 25.4383 28.9113 25.6293C29.0227 25.8204 29.1827 25.9785 29.375 26.0875C29.6703 26.2562 29.8903 26.531 29.9901 26.8561C30.09 27.1812 30.0622 27.5321 29.9125 27.8375L27.4125 32.1625C27.2476 32.4484 26.9764 32.6575 26.6579 32.7442C26.3394 32.8308 25.9996 32.788 25.7125 32.625C25.5243 32.4944 25.3038 32.418 25.0751 32.4043C24.8464 32.3905 24.6183 32.4399 24.4158 32.5469C24.2132 32.654 24.044 32.8147 23.9266 33.0114C23.8092 33.2082 23.7481 33.4334 23.75 33.6625C23.7508 34.0026 23.6219 34.3302 23.3897 34.5786C23.1575 34.8271 22.8394 34.9778 22.5 35ZM18.575 32.5H21.4375C21.7256 31.6222 22.3276 30.8815 23.128 30.4202C23.9285 29.9588 24.8711 29.8092 25.775 30L27.2125 27.5C26.5976 26.8125 26.2576 25.9224 26.2576 25C26.2576 24.0776 26.5976 23.1875 27.2125 22.5L25.775 20C24.8692 20.1942 23.9236 20.0462 23.1204 19.5846C22.3172 19.123 21.7133 18.3804 21.425 17.5H18.5625C18.2745 18.3778 17.6725 19.1185 16.8721 19.5798C16.0716 20.0412 15.129 20.1908 14.225 20L12.7875 22.5C13.4025 23.1875 13.7425 24.0776 13.7425 25C13.7425 25.9224 13.4025 26.8125 12.7875 27.5L14.225 30C15.1309 29.8058 16.0765 29.9538 16.8797 30.4154C17.6829 30.877 18.2868 31.6196 18.575 32.5Z" fill="#05058C"/>
<path d="M20 28.75C19.2583 28.75 18.5333 28.5301 17.9166 28.118C17.2999 27.706 16.8193 27.1203 16.5355 26.4351C16.2516 25.7498 16.1774 24.9958 16.3221 24.2684C16.4668 23.541 16.8239 22.8728 17.3484 22.3484C17.8728 21.8239 18.541 21.4668 19.2684 21.3221C19.9958 21.1774 20.7498 21.2516 21.4351 21.5355C22.1203 21.8193 22.706 22.2999 23.118 22.9166C23.5301 23.5333 23.75 24.2583 23.75 25C23.75 25.9946 23.3549 26.9484 22.6517 27.6517C21.9484 28.3549 20.9946 28.75 20 28.75ZM20 23.75C19.7528 23.75 19.5111 23.8233 19.3055 23.9607C19.1 24.098 18.9398 24.2932 18.8452 24.5216C18.7505 24.7501 18.7258 25.0014 18.774 25.2439C18.8223 25.4863 18.9413 25.7091 19.1161 25.8839C19.2909 26.0587 19.5137 26.1778 19.7561 26.226C19.9986 26.2742 20.2499 26.2495 20.4784 26.1549C20.7068 26.0602 20.902 25.9 21.0393 25.6945C21.1767 25.4889 21.25 25.2472 21.25 25C21.25 24.6685 21.1183 24.3505 20.8839 24.1161C20.6495 23.8817 20.3315 23.75 20 23.75Z" fill="#05058C"/>
</g>
<defs>
<clipPath id="clip0_5296_29027">
<rect width="40" height="40" fill="white"/>
</clipPath>
</defs>
</svg>
