<svg width="40" height="40" viewBox="0 0 40 40" fill="none" xmlns="http://www.w3.org/2000/svg">
<g clip-path="url(#clip0_5296_28766)">
<rect width="40" height="40" fill="white"/>
<path d="M17.4994 10.0001C17.2743 9.99889 17.0537 9.93697 16.8609 9.82081C16.668 9.70466 16.5102 9.5386 16.4039 9.34015C16.2976 9.1417 16.2469 8.91825 16.2571 8.69337C16.2674 8.4685 16.3381 8.25055 16.4619 8.06255L18.4994 5.00005L16.4619 1.93755C16.3147 1.66309 16.2752 1.34356 16.3513 1.04153C16.4273 0.739499 16.6133 0.476733 16.873 0.304693C17.1326 0.132653 17.4471 0.0637317 17.7549 0.111428C18.0627 0.159124 18.3415 0.320002 18.5369 0.562553L21.0369 4.31255C21.1713 4.51665 21.243 4.75567 21.243 5.00005C21.243 5.24443 21.1713 5.48346 21.0369 5.68755L18.5369 9.43755C18.4237 9.6095 18.2697 9.75082 18.0887 9.84895C17.9077 9.94708 17.7053 9.99899 17.4994 10.0001Z" fill="#05058C"/>
<path d="M19.9996 40C19.7745 39.9988 19.5539 39.9369 19.361 39.8207C19.1682 39.7046 19.0103 39.5385 18.9041 39.34C18.7978 39.1416 18.7471 38.9181 18.7573 38.6933C18.7675 38.4684 18.8383 38.2505 18.9621 38.0625L20.9996 35L18.9621 31.9375C18.853 31.802 18.7733 31.6453 18.7283 31.4773C18.6832 31.3093 18.6737 31.1338 18.7003 30.9619C18.7269 30.79 18.7891 30.6256 18.8829 30.4791C18.9767 30.3327 19.1001 30.2074 19.2451 30.1113C19.3901 30.0153 19.5535 29.9505 19.7249 29.9212C19.8964 29.8919 20.072 29.8987 20.2407 29.9411C20.4094 29.9836 20.5673 30.0608 20.7044 30.1678C20.8416 30.2748 20.9549 30.4092 21.0371 30.5625L23.5371 34.3125C23.6715 34.5166 23.7431 34.7556 23.7431 35C23.7431 35.2443 23.6715 35.4834 23.5371 35.6875L21.0371 39.4375C20.9238 39.6094 20.7699 39.7507 20.5889 39.8489C20.4079 39.947 20.2055 39.9989 19.9996 40Z" fill="#05058C"/>
<path d="M29.9991 16.2504C29.4866 16.2504 29.6616 16.2504 25.5616 13.5379C25.319 13.3425 25.1581 13.0637 25.1105 12.7559C25.0628 12.4481 25.1317 12.1336 25.3037 11.874C25.4758 11.6144 25.7385 11.4283 26.0406 11.3523C26.3426 11.2762 26.6621 11.3157 26.9366 11.4629L29.9991 13.5004L33.0616 11.4629C33.336 11.3157 33.6556 11.2762 33.9576 11.3523C34.2596 11.4283 34.5224 11.6144 34.6944 11.874C34.8665 12.1336 34.9354 12.4481 34.8877 12.7559C34.84 13.0637 34.6791 13.3425 34.4366 13.5379C30.3741 16.2504 30.5116 16.2504 29.9991 16.2504Z" fill="#05058C"/>
<path d="M7.49908 31.2496C6.98658 31.2496 7.16158 31.2496 3.06158 28.5371C2.81903 28.3417 2.65815 28.0628 2.61045 27.755C2.56276 27.4473 2.63168 27.1328 2.80372 26.8731C2.97576 26.6135 3.23852 26.4275 3.54055 26.3514C3.84258 26.2754 4.16212 26.3149 4.43658 26.4621L7.49908 28.4996L10.5616 26.4621C10.697 26.353 10.8538 26.2733 11.0217 26.2283C11.1897 26.1832 11.3653 26.1737 11.5371 26.2003C11.709 26.2269 11.8734 26.2891 12.0199 26.3829C12.1664 26.4768 12.2916 26.6001 12.3877 26.7451C12.4838 26.8901 12.5485 27.0535 12.5778 27.2249C12.6071 27.3964 12.6003 27.572 12.5579 27.7407C12.5154 27.9094 12.4382 28.0673 12.3313 28.2044C12.2243 28.3416 12.0898 28.4549 11.9366 28.5371C7.87408 31.2496 8.01158 31.2496 7.49908 31.2496Z" fill="#05058C"/>
<path d="M36.2494 40H14.9994C11.6842 40 8.50479 38.683 6.16058 36.3388C3.81638 33.9946 2.49941 30.8152 2.49941 27.5C2.49941 24.1848 3.81638 21.0054 6.16058 18.6612C8.50479 16.317 11.6842 15 14.9994 15H22.4994C23.1625 15 23.7983 14.7366 24.2672 14.2678C24.736 13.7989 24.9994 13.163 24.9994 12.5C24.9994 11.837 24.736 11.2011 24.2672 10.7322C23.7983 10.2634 23.1625 10 22.4994 10H1.24941C1.02431 9.99884 0.803699 9.93691 0.610874 9.82076C0.418049 9.70461 0.260168 9.53854 0.153904 9.3401C0.0476396 9.14165 -0.00306449 8.91819 0.0071462 8.69332C0.0173569 8.46844 0.0881034 8.2505 0.211915 8.0625L2.24941 5L0.211915 1.9375C0.0881034 1.7495 0.0173569 1.53156 0.0071462 1.30668C-0.00306449 1.08181 0.0476396 0.85835 0.153904 0.659904C0.260168 0.461458 0.418049 0.295391 0.610874 0.179239C0.803699 0.0630867 1.02431 0.00116063 1.24941 0L22.4994 0C25.8146 0 28.994 1.31696 31.3383 3.66117C33.6825 6.00537 34.9994 9.18479 34.9994 12.5C34.9994 15.8152 33.6825 18.9946 31.3383 21.3388C28.994 23.683 25.8146 25 22.4994 25H14.9994C14.3364 25 13.7005 25.2634 13.2316 25.7322C12.7628 26.2011 12.4994 26.837 12.4994 27.5C12.4994 28.163 12.7628 28.7989 13.2316 29.2678C13.7005 29.7366 14.3364 30 14.9994 30H27.4994C27.8309 30 28.1489 30.1317 28.3833 30.3661C28.6177 30.6005 28.7494 30.9185 28.7494 31.25C28.7494 31.5815 28.6177 31.8995 28.3833 32.1339C28.1489 32.3683 27.8309 32.5 27.4994 32.5H14.9994C13.6733 32.5 12.4016 31.9732 11.4639 31.0355C10.5262 30.0979 9.99942 28.8261 9.99942 27.5C9.99942 26.1739 10.5262 24.9021 11.4639 23.9645C12.4016 23.0268 13.6733 22.5 14.9994 22.5H22.4994C25.1516 22.5 27.6951 21.4464 29.5705 19.5711C31.4459 17.6957 32.4994 15.1522 32.4994 12.5C32.4994 9.84783 31.4459 7.3043 29.5705 5.42893C27.6951 3.55357 25.1516 2.5 22.4994 2.5H3.58691L4.83692 4.3125C4.97132 4.5166 5.04296 4.75562 5.04296 5C5.04296 5.24438 4.97132 5.4834 4.83692 5.6875L3.58691 7.5H22.4994C23.8255 7.5 25.0973 8.02678 26.035 8.96447C26.9726 9.90215 27.4994 11.1739 27.4994 12.5C27.4994 13.8261 26.9726 15.0979 26.035 16.0355C25.0973 16.9732 23.8255 17.5 22.4994 17.5H14.9994C12.3473 17.5 9.80371 18.5536 7.92835 20.4289C6.05298 22.3043 4.99941 24.8478 4.99941 27.5C4.99941 30.1522 6.05298 32.6957 7.92835 34.5711C9.80371 36.4464 12.3473 37.5 14.9994 37.5H35.5744L37.2494 35L35.5744 32.5H32.4994C32.1679 32.5 31.85 32.3683 31.6155 32.1339C31.3811 31.8995 31.2494 31.5815 31.2494 31.25C31.2494 30.9185 31.3811 30.6005 31.6155 30.3661C31.85 30.1317 32.1679 30 32.4994 30H36.2494C36.4553 30.0011 36.6577 30.053 36.8387 30.1511C37.0197 30.2492 37.1737 30.3906 37.2869 30.5625L39.7869 34.3125C39.9213 34.5166 39.993 34.7556 39.993 35C39.993 35.2444 39.9213 35.4834 39.7869 35.6875L37.2869 39.4375C37.1737 39.6095 37.0197 39.7508 36.8387 39.8489C36.6577 39.947 36.4553 39.9989 36.2494 40Z" fill="#000033"/>
</g>
<defs>
<clipPath id="clip0_5296_28766">
<rect width="40" height="40" fill="white"/>
</clipPath>
</defs>
</svg>
