<svg width="40" height="40" viewBox="0 0 40 40" fill="none" xmlns="http://www.w3.org/2000/svg">
<g clip-path="url(#clip0_5296_28762)">
<rect width="40" height="40" fill="white"/>
<path d="M15 25C13.0222 25 11.0888 24.4135 9.4443 23.3147C7.79981 22.2159 6.51809 20.6541 5.76121 18.8268C5.00433 16.9996 4.8063 14.9889 5.19215 13.0491C5.578 11.1093 6.53041 9.32746 7.92894 7.92894C9.32746 6.53041 11.1093 5.578 13.0491 5.19215C14.9889 4.8063 16.9996 5.00433 18.8268 5.76121C20.6541 6.51809 22.2159 7.79981 23.3147 9.4443C24.4135 11.0888 25 13.0222 25 15C25 17.6522 23.9464 20.1957 22.0711 22.0711C20.1957 23.9464 17.6522 25 15 25ZM15 7.5C13.5166 7.5 12.0666 7.93987 10.8332 8.76398C9.59986 9.58809 8.63856 10.7594 8.07091 12.1299C7.50325 13.5003 7.35473 15.0083 7.64411 16.4632C7.9335 17.918 8.64781 19.2544 9.6967 20.3033C10.7456 21.3522 12.082 22.0665 13.5368 22.3559C14.9917 22.6453 16.4997 22.4968 17.8701 21.9291C19.2406 21.3614 20.4119 20.4002 21.236 19.1668C22.0601 17.9334 22.5 16.4834 22.5 15C22.5 13.0109 21.7098 11.1032 20.3033 9.6967C18.8968 8.29018 16.9891 7.5 15 7.5Z" fill="#05058C"/>
<path d="M38.862 33.338L31.762 26.2505C31.2936 25.7848 30.66 25.5235 29.9995 25.5235C29.3391 25.5235 28.7054 25.7848 28.237 26.2505L28.1245 26.363L26.437 24.6755C28.4888 22.2478 29.7163 19.231 29.9425 16.0605C30.1686 12.8899 29.3818 9.72952 27.6954 7.03514C26.0091 4.34076 23.5104 2.25174 20.5599 1.06943C17.6093 -0.112876 14.3595 -0.327336 11.2792 0.456992C8.19888 1.24132 5.44735 2.98388 3.42155 5.43329C1.39575 7.8827 0.200418 10.9123 0.00798991 14.0851C-0.184438 17.2579 0.63599 20.4097 2.35092 23.086C4.06584 25.7623 6.5866 27.8246 9.54954 28.9755C9.70486 29.0493 9.87374 29.0902 10.0456 29.0958C10.2175 29.1013 10.3887 29.0714 10.5484 29.0078C10.7082 28.9441 10.8531 28.8482 10.9741 28.7261C11.0951 28.6039 11.1896 28.458 11.2517 28.2977C11.3138 28.1373 11.3421 27.9659 11.3349 27.7941C11.3277 27.6222 11.2851 27.4538 11.2098 27.2992C11.1345 27.1446 11.0281 27.0071 10.8973 26.8955C10.7665 26.7839 10.6141 26.7005 10.4495 26.6505C7.54729 25.5218 5.17084 23.3504 3.78547 20.5616C2.40009 17.7727 2.10556 14.5672 2.95953 11.5725C3.81351 8.57791 5.75449 6.00987 8.40247 4.37119C11.0504 2.73252 14.2147 2.14122 17.2758 2.71306C20.3368 3.28491 23.0742 4.97871 24.952 7.46286C26.8298 9.94701 27.7127 13.0426 27.4279 16.1436C27.1432 19.2445 25.7112 22.1275 23.4124 24.2281C21.1136 26.3287 18.1135 27.4957 14.9995 27.5005C14.668 27.5005 14.3501 27.6322 14.1157 27.8666C13.8812 28.101 13.7495 28.419 13.7495 28.7505C13.7495 29.082 13.8812 29.3999 14.1157 29.6344C14.3501 29.8688 14.668 30.0005 14.9995 30.0005C18.5463 30.0054 21.9779 28.7418 24.6745 26.438L26.362 28.1255L26.2495 28.238C25.7839 28.7064 25.5226 29.34 25.5226 30.0005C25.5226 30.6609 25.7839 31.2946 26.2495 31.763L33.337 38.863C33.6989 39.2265 34.1296 39.5143 34.6039 39.7096C35.0782 39.9049 35.5866 40.0038 36.0995 40.0005C36.8696 39.9964 37.6214 39.7652 38.2607 39.3358C38.8999 38.9064 39.3983 38.2979 39.6932 37.5866C39.9882 36.8752 40.0666 36.0926 39.9188 35.3368C39.7709 34.5811 39.4033 33.8857 38.862 33.338ZM36.0995 37.5005C35.9158 37.5005 35.7339 37.4641 35.5644 37.3933C35.3949 37.3225 35.2411 37.2187 35.112 37.088L28.012 30.0005L29.9995 28.013L37.087 35.113C37.2819 35.3087 37.4144 35.5578 37.468 35.8287C37.5216 36.0996 37.4939 36.3804 37.3884 36.6356C37.2828 36.8908 37.1041 37.1091 36.8748 37.263C36.6455 37.4169 36.3757 37.4995 36.0995 37.5005Z" fill="#000033"/>
</g>
<defs>
<clipPath id="clip0_5296_28762">
<rect width="40" height="40" fill="white"/>
</clipPath>
</defs>
</svg>
