<svg width="48" height="49" viewBox="0 0 48 49" fill="none" xmlns="http://www.w3.org/2000/svg">
<g clip-path="url(#clip0_3178_6947)">
<path d="M46.5 15.5C46.8978 15.5 47.2794 15.342 47.5607 15.0607C47.842 14.7794 48 14.3978 48 14V5C48 3.80653 47.5259 2.66193 46.682 1.81802C45.8381 0.974106 44.6935 0.5 43.5 0.5L4.5 0.5C3.30653 0.5 2.16193 0.974106 1.31802 1.81802C0.474106 2.66193 0 3.80653 0 5L0 44C0 45.1935 0.474106 46.3381 1.31802 47.182C2.16193 48.0259 3.30653 48.5 4.5 48.5H43.5C44.6935 48.5 45.8381 48.0259 46.682 47.182C47.5259 46.3381 48 45.1935 48 44V20C48 19.6022 47.842 19.2206 47.5607 18.9393C47.2794 18.658 46.8978 18.5 46.5 18.5C46.1022 18.5 45.7206 18.658 45.4393 18.9393C45.158 19.2206 45 19.6022 45 20V44C45 44.3978 44.842 44.7794 44.5607 45.0607C44.2794 45.342 43.8978 45.5 43.5 45.5H4.5C4.10218 45.5 3.72064 45.342 3.43934 45.0607C3.15804 44.7794 3 44.3978 3 44V15.5H46.5ZM3 5C3 4.60218 3.15804 4.22064 3.43934 3.93934C3.72064 3.65804 4.10218 3.5 4.5 3.5H43.5C43.8978 3.5 44.2794 3.65804 44.5607 3.93934C44.842 4.22064 45 4.60218 45 5V12.5H3V5Z" fill="#000033"/>
<path d="M40.5 6.5C40.2033 6.5 39.9133 6.58797 39.6666 6.7528C39.42 6.91762 39.2277 7.15189 39.1142 7.42598C39.0006 7.70006 38.9709 8.00166 39.0288 8.29264C39.0867 8.58361 39.2296 8.85088 39.4393 9.06066C39.6491 9.27044 39.9164 9.4133 40.2074 9.47118C40.4983 9.52906 40.7999 9.49935 41.074 9.38582C41.3481 9.27229 41.5824 9.08003 41.7472 8.83336C41.912 8.58668 42 8.29667 42 8C42 7.60218 41.842 7.22064 41.5607 6.93934C41.2794 6.65804 40.8978 6.5 40.5 6.5Z" fill="#000033"/>
<path d="M34.5 6.5C34.2033 6.5 33.9133 6.58797 33.6666 6.7528C33.42 6.91762 33.2277 7.15189 33.1142 7.42598C33.0006 7.70006 32.9709 8.00166 33.0288 8.29264C33.0867 8.58361 33.2296 8.85088 33.4393 9.06066C33.6491 9.27044 33.9164 9.4133 34.2074 9.47118C34.4983 9.52906 34.7999 9.49935 35.074 9.38582C35.3481 9.27229 35.5824 9.08003 35.7472 8.83336C35.912 8.58668 36 8.29667 36 8C36 7.60218 35.842 7.22064 35.5607 6.93934C35.2794 6.65804 34.8978 6.5 34.5 6.5Z" fill="#000033"/>
<path d="M28.5 6.5C28.2033 6.5 27.9133 6.58797 27.6666 6.7528C27.42 6.91762 27.2277 7.15189 27.1142 7.42598C27.0006 7.70006 26.9709 8.00166 27.0288 8.29264C27.0867 8.58361 27.2296 8.85088 27.4393 9.06066C27.6491 9.27044 27.9164 9.4133 28.2074 9.47118C28.4983 9.52906 28.7999 9.49935 29.074 9.38582C29.3481 9.27229 29.5824 9.08003 29.7472 8.83336C29.912 8.58668 30 8.29667 30 8C30 7.60218 29.842 7.22064 29.5607 6.93934C29.2794 6.65804 28.8978 6.5 28.5 6.5Z" fill="#000033"/>
<path d="M35.5655 39.935L29.5655 33.935C31.0153 31.9525 31.6634 29.4959 31.3804 27.0562C31.0973 24.6166 29.904 22.3736 28.0389 20.7756C26.1737 19.1777 23.7743 18.3425 21.32 18.437C18.8658 18.5316 16.5377 19.5488 14.801 21.2855C13.0643 23.0222 12.0471 25.3503 11.9525 27.8045C11.858 30.2588 12.6932 32.6582 14.2911 34.5234C15.8891 36.3885 18.1321 37.5818 20.5717 37.8649C23.0114 38.1479 25.468 37.4998 27.4505 36.05L33.4505 42.05C33.7275 42.3326 34.1049 42.4944 34.5005 42.5C34.7985 42.5018 35.0902 42.4147 35.3384 42.25C35.5867 42.0853 35.7803 41.8504 35.8946 41.5752C36.0088 41.3001 36.0386 40.9971 35.9799 40.705C35.9213 40.4129 35.7771 40.1448 35.5655 39.935ZM15.0005 28.25C15.0005 26.915 15.3964 25.61 16.1381 24.4999C16.8798 23.3899 17.934 22.5247 19.1674 22.0138C20.4008 21.5029 21.758 21.3693 23.0674 21.6297C24.3768 21.8902 25.5795 22.533 26.5235 23.4771C27.4675 24.4211 28.1104 25.6238 28.3708 26.9332C28.6313 28.2425 28.4976 29.5997 27.9867 30.8331C27.4758 32.0665 26.6107 33.1207 25.5006 33.8624C24.3906 34.6041 23.0855 35 21.7505 35C19.9615 34.9961 18.2469 34.2836 16.9819 33.0186C15.7169 31.7536 15.0045 30.039 15.0005 28.25Z" fill="#05058C"/>
</g>
<defs>
<clipPath id="clip0_3178_6947">
<rect width="48" height="48" fill="white" transform="translate(0 0.5)"/>
</clipPath>
</defs>
</svg>
