<svg width="104" height="134" viewBox="0 0 104 134" fill="none" xmlns="http://www.w3.org/2000/svg">
<g clip-path="url(#clip0_3186_9475)">
<path d="M104 108.778V133.25H5.93226V113.784L55.9857 66.5084C61.3001 61.441 64.8841 57.1152 66.738 53.5309C68.5918 49.823 69.5187 46.177 69.5187 42.5927C69.5187 37.4017 67.7267 33.4466 64.1426 30.7275C60.6821 27.8848 55.5532 26.4635 48.7558 26.4635C43.0707 26.4635 37.9418 27.5758 33.369 29.8006C28.7962 31.9017 24.9649 35.1152 21.8752 39.441L0 25.3511C5.06714 17.8118 12.0499 11.941 20.9483 7.73876C29.8467 3.41292 40.0428 1.25 51.5365 1.25C61.1765 1.25 69.5805 2.85674 76.7487 6.07022C84.0404 9.16011 89.6637 13.6095 93.6185 19.4185C97.697 25.1039 99.7362 31.8399 99.7362 39.6264C99.7362 46.6713 98.2531 53.2837 95.287 59.4635C92.3209 65.6433 86.574 72.6882 78.0463 80.5983L48.1996 108.778H104Z" fill="#05058C"/>
</g>
<defs>
<clipPath id="clip0_3186_9475">
<rect width="104" height="133" fill="white" transform="translate(0 0.5)"/>
</clipPath>
</defs>
</svg>
