<svg width="48" height="49" viewBox="0 0 48 49" fill="none" xmlns="http://www.w3.org/2000/svg">
<g clip-path="url(#clip0_3178_6867)">
<path d="M45 18.5H3C2.20435 18.5 1.44129 18.8161 0.87868 19.3787C0.316071 19.9413 0 20.7044 0 21.5L0 27.5C0 28.2956 0.316071 29.0587 0.87868 29.6213C1.44129 30.1839 2.20435 30.5 3 30.5H31.5C31.8978 30.5 32.2794 30.342 32.5607 30.0607C32.842 29.7794 33 29.3978 33 29V21.5H45V27.5H37.5C37.1022 27.5 36.7206 27.658 36.4393 27.9393C36.158 28.2206 36 28.6022 36 29C36 29.3978 36.158 29.7794 36.4393 30.0607C36.7206 30.342 37.1022 30.5 37.5 30.5H45C45.7957 30.5 46.5587 30.1839 47.1213 29.6213C47.6839 29.0587 48 28.2956 48 27.5V21.5C48 20.7044 47.6839 19.9413 47.1213 19.3787C46.5587 18.8161 45.7957 18.5 45 18.5ZM3 21.5H15V27.5H3V21.5ZM18 21.5H30V27.5H18V21.5Z" fill="#000033"/>
<path d="M3 12.5H5.385L7.935 15.065C8.07444 15.2056 8.24035 15.3172 8.42313 15.3933C8.60592 15.4695 8.80198 15.5087 9 15.5087C9.19802 15.5087 9.39408 15.4695 9.57687 15.3933C9.75965 15.3172 9.92556 15.2056 10.065 15.065L12.615 12.5H15C15.7956 12.5 16.5587 12.1839 17.1213 11.6213C17.6839 11.0587 18 10.2957 18 9.5V3.5C18 2.70435 17.6839 1.94129 17.1213 1.37868C16.5587 0.816071 15.7956 0.5 15 0.5L3 0.5C2.20435 0.5 1.44129 0.816071 0.87868 1.37868C0.316071 1.94129 0 2.70435 0 3.5L0 9.5C0 10.2957 0.316071 11.0587 0.87868 11.6213C1.44129 12.1839 2.20435 12.5 3 12.5ZM3 3.5H15V9.5C11.7 9.5 11.49 9.38 10.935 9.935L9 11.885L7.065 9.935C6.92484 9.79598 6.75862 9.68599 6.57586 9.61134C6.3931 9.5367 6.19741 9.49886 6 9.5H3V3.5Z" fill="#000033"/>
<path d="M45 0.5H33C32.2044 0.5 31.4413 0.816071 30.8787 1.37868C30.3161 1.94129 30 2.70435 30 3.5V9.5C30 10.2957 30.3161 11.0587 30.8787 11.6213C31.4413 12.1839 32.2044 12.5 33 12.5H35.385L37.935 15.065C38.0744 15.2056 38.2403 15.3172 38.4231 15.3933C38.6059 15.4695 38.802 15.5087 39 15.5087C39.198 15.5087 39.3941 15.4695 39.5769 15.3933C39.7597 15.3172 39.9256 15.2056 40.065 15.065L42.615 12.5H45C45.7957 12.5 46.5587 12.1839 47.1213 11.6213C47.6839 11.0587 48 10.2957 48 9.5V3.5C48 2.70435 47.6839 1.94129 47.1213 1.37868C46.5587 0.816071 45.7957 0.5 45 0.5V0.5ZM45 9.5C41.7 9.5 41.49 9.38 40.935 9.935L39 11.885L37.065 9.935C36.9248 9.79598 36.7586 9.68599 36.5759 9.61134C36.3931 9.5367 36.1974 9.49886 36 9.5H33V3.5H45V9.5Z" fill="#000033"/>
<path d="M30 48.5H18C17.2044 48.5 16.4413 48.184 15.8787 47.6213C15.3161 47.0587 15 46.2957 15 45.5V39.5C15 38.7044 15.3161 37.9413 15.8787 37.3787C16.4413 36.8161 17.2044 36.5 18 36.5H20.385L22.935 33.935C23.0744 33.7944 23.2403 33.6828 23.4231 33.6067C23.6059 33.5305 23.802 33.4913 24 33.4913C24.198 33.4913 24.3941 33.5305 24.5769 33.6067C24.7597 33.6828 24.9256 33.7944 25.065 33.935L27.615 36.5H30C30.7957 36.5 31.5587 36.8161 32.1213 37.3787C32.6839 37.9413 33 38.7044 33 39.5V45.5C33 46.2957 32.6839 47.0587 32.1213 47.6213C31.5587 48.184 30.7957 48.5 30 48.5ZM18 39.5V45.5H30V39.5H27C26.175 39.5 25.98 39.11 24 37.115L22.065 39.065C21.9248 39.2041 21.7586 39.314 21.5759 39.3887C21.3931 39.4633 21.1974 39.5012 21 39.5H18Z" fill="#05058C"/>
</g>
<defs>
<clipPath id="clip0_3178_6867">
<rect width="48" height="48" fill="white" transform="translate(0 0.5)"/>
</clipPath>
</defs>
</svg>
