<svg width="48" height="48" viewBox="0 0 48 48" fill="none" xmlns="http://www.w3.org/2000/svg">
<g clip-path="url(#clip0_3178_6853)">
<path d="M21 7.5C21 11.01 21.12 11.25 20.565 11.82L17.895 14.49C16.9758 14.0652 16.0011 13.7723 15 13.62L15 10.5C15 10.1022 14.842 9.72064 14.5607 9.43934C14.2794 9.15803 13.8978 9 13.5 9C13.1022 9 12.7206 9.15803 12.4393 9.43934C12.158 9.72064 12 10.1022 12 10.5L12 13.62C10.9943 13.7651 10.0144 14.053 9.09 14.475C6.21 11.58 6 11.565 6 10.755L6 7.5C6 7.10218 5.84196 6.72064 5.56066 6.43934C5.27935 6.15804 4.89782 6 4.5 6C4.10217 6 3.72064 6.15804 3.43934 6.43934C3.15803 6.72064 3 7.10218 3 7.5L3 10.755C3.00105 11.9481 3.47584 13.0919 4.32 13.935L6.54 16.155C5.43268 17.1401 4.54645 18.3484 3.93958 19.7005C3.33272 21.0527 3.01897 22.5179 3.01897 24C3.01897 25.4821 3.33272 26.9473 3.93958 28.2995C4.54645 29.6516 5.43268 30.8599 6.54 31.845L4.32 34.065C3.47584 34.9081 3.00105 36.0519 3 37.245L3 40.5C3 40.8978 3.15804 41.2794 3.43934 41.5607C3.72064 41.842 4.10218 42 4.5 42C4.89782 42 5.27936 41.842 5.56066 41.5607C5.84196 41.2794 6 40.8978 6 40.5L6 37.245C6 36.42 6.27 36.345 9.105 33.525C10.0097 33.9817 10.9913 34.2665 12 34.365L12 37.5C12 37.8978 12.158 38.2794 12.4393 38.5607C12.7206 38.842 13.1022 39 13.5 39C13.8978 39 14.2794 38.842 14.5607 38.5607C14.842 38.2794 15 37.8978 15 37.5L15 34.38C16.0051 34.2401 16.985 33.9572 17.91 33.54C20.775 36.405 21 36.435 21 37.245L21 40.5C21 40.8978 21.158 41.2794 21.4393 41.5607C21.7206 41.842 22.1022 42 22.5 42C22.8978 42 23.2794 41.842 23.5607 41.5607C23.842 41.2794 24 40.8978 24 40.5L24 37.245C23.999 36.0519 23.5242 34.9081 22.68 34.065L20.475 31.86C22.665 29.88 22.5 28.5 23.805 28.5L28.5 28.5C28.8978 28.5 29.2794 28.342 29.5607 28.0607C29.842 27.7794 30 27.3978 30 27C30 26.6022 29.842 26.2206 29.5607 25.9393C29.2794 25.658 28.8978 25.5 28.5 25.5L23.805 25.5C23.0219 25.513 22.2557 25.7302 21.5822 26.13C20.9087 26.5299 20.3513 27.0986 19.965 27.78C19.1395 29.2098 17.8653 30.3273 16.3399 30.9591C14.8146 31.5909 13.1234 31.7018 11.5287 31.2744C9.93392 30.8471 8.52473 29.9055 7.51966 28.5957C6.51459 27.2859 5.96981 25.681 5.96981 24.03C5.96981 22.379 6.51459 20.7741 7.51966 19.4643C8.52473 18.1545 9.93392 17.2129 11.5287 16.7856C13.1234 16.3582 14.8146 16.4691 16.3399 17.1009C17.8653 17.7327 19.1395 18.8502 19.965 20.28C20.3506 20.9541 20.9075 21.5143 21.5791 21.9041C22.2507 22.294 23.0134 22.4995 23.79 22.5L31.5 22.5C32.325 22.5 32.535 22.095 34.5 20.115L36.435 22.065C36.5744 22.2056 36.7403 22.3172 36.9231 22.3933C37.1059 22.4695 37.302 22.5087 37.5 22.5087C37.698 22.5087 37.8941 22.4695 38.0769 22.3933C38.2597 22.3172 38.4256 22.2056 38.565 22.065L40.5 20.115L44.145 23.76L41.55 25.5L34.5 25.5C34.1022 25.5 33.7206 25.658 33.4393 25.9393C33.158 26.2206 33 26.6022 33 27C33 27.3978 33.158 27.7794 33.4393 28.0607C33.7206 28.342 34.1022 28.5 34.5 28.5L42 28.5C42.615 28.5 42.405 28.5 47.325 25.245C47.5107 25.1228 47.6669 24.961 47.7823 24.771C47.8978 24.5811 47.9696 24.3679 47.9925 24.1469C48.0155 23.9258 47.9891 23.7024 47.9151 23.4928C47.8412 23.2833 47.7216 23.0927 47.565 22.935L41.565 16.935C41.4256 16.7944 41.2597 16.6828 41.0769 16.6067C40.8941 16.5305 40.698 16.4913 40.5 16.4913C40.302 16.4913 40.1059 16.5305 39.9231 16.6067C39.7403 16.6828 39.5744 16.7944 39.435 16.935L37.5 18.885L35.565 16.935C35.4256 16.7944 35.2597 16.6828 35.0769 16.6067C34.8941 16.5305 34.698 16.4913 34.5 16.4913C34.302 16.4913 34.1059 16.5305 33.9231 16.6067C33.7403 16.6828 33.5744 16.7944 33.435 16.935L30.885 19.5L23.79 19.5C22.485 19.5 22.785 18.24 20.445 16.17L22.68 13.935C23.5242 13.0919 23.9989 11.9481 24 10.755L24 7.5C24 7.10218 23.842 6.72064 23.5607 6.43934C23.2794 6.15803 22.8978 6 22.5 6C22.1022 6 21.7206 6.15803 21.4393 6.43934C21.158 6.72064 21 7.10218 21 7.5Z" fill="#000033"/>
<path d="M16.5 24C16.5 24.3978 16.342 24.7794 16.0607 25.0607C15.7794 25.342 15.3978 25.5 15 25.5L12 25.5C11.6022 25.5 11.2206 25.342 10.9393 25.0607C10.658 24.7794 10.5 24.3978 10.5 24C10.5 23.6022 10.658 23.2206 10.9393 22.9393C11.2206 22.658 11.6022 22.5 12 22.5L15 22.5C15.3978 22.5 15.7794 22.658 16.0607 22.9393C16.342 23.2206 16.5 23.6022 16.5 24Z" fill="#05058C"/>
<path d="M9 4.5C9 5.39001 8.73608 6.26004 8.24162 7.00006C7.74715 7.74008 7.04434 8.31686 6.22208 8.65746C5.39981 8.99805 4.49501 9.08717 3.6221 8.91353C2.74918 8.7399 1.94736 8.31132 1.31802 7.68198C0.688685 7.05264 0.260102 6.25082 0.0864681 5.37791C-0.0871654 4.50499 0.00194955 3.60019 0.342544 2.77792C0.683138 1.95566 1.25991 1.25285 1.99994 0.758386C2.73996 0.26392 3.60999 7.95877e-07 4.5 7.56973e-07C5.69348 7.04805e-07 6.83807 0.474106 7.68198 1.31802C8.5259 2.16193 9 3.30652 9 4.5ZM3 4.5C3 4.79667 3.08798 5.08668 3.2528 5.33335C3.41762 5.58003 3.65189 5.77229 3.92598 5.88582C4.20007 5.99935 4.50167 6.02905 4.79264 5.97118C5.08361 5.9133 5.35088 5.77044 5.56066 5.56066C5.77044 5.35088 5.9133 5.08361 5.97118 4.79264C6.02906 4.50166 5.99935 4.20006 5.88582 3.92597C5.77229 3.65189 5.58003 3.41762 5.33336 3.25279C5.08668 3.08797 4.79667 3 4.5 3C4.10218 3 3.72065 3.15803 3.43934 3.43934C3.15804 3.72064 3 4.10217 3 4.5Z" fill="#05058C"/>
<path d="M27 4.5C27 5.39001 26.7361 6.26004 26.2416 7.00006C25.7472 7.74008 25.0443 8.31686 24.2221 8.65746C23.3998 8.99805 22.495 9.08717 21.6221 8.91353C20.7492 8.7399 19.9474 8.31132 19.318 7.68198C18.6887 7.05264 18.2601 6.25082 18.0865 5.37791C17.9128 4.50499 18.0019 3.60019 18.3425 2.77792C18.6831 1.95566 19.2599 1.25285 19.9999 0.758386C20.74 0.26392 21.61 7.95877e-07 22.5 7.56973e-07C23.6935 7.04805e-07 24.8381 0.474106 25.682 1.31802C26.5259 2.16193 27 3.30652 27 4.5ZM21 4.5C21 4.79667 21.088 5.08668 21.2528 5.33335C21.4176 5.58003 21.6519 5.77229 21.926 5.88582C22.2001 5.99935 22.5017 6.02905 22.7926 5.97118C23.0836 5.9133 23.3509 5.77044 23.5607 5.56066C23.7704 5.35088 23.9133 5.08361 23.9712 4.79264C24.0291 4.50166 23.9994 4.20006 23.8858 3.92597C23.7723 3.65189 23.58 3.41762 23.3334 3.25279C23.0867 3.08797 22.7967 3 22.5 3C22.1022 3 21.7206 3.15803 21.4393 3.43934C21.158 3.72064 21 4.10217 21 4.5Z" fill="#05058C"/>
<path d="M9 43.5C9 44.39 8.73608 45.26 8.24162 46.0001C7.74715 46.7401 7.04435 47.3169 6.22208 47.6575C5.39981 47.998 4.49501 48.0872 3.6221 47.9135C2.74918 47.7399 1.94736 47.3113 1.31802 46.682C0.688685 46.0526 0.260102 45.2508 0.0864681 44.3779C-0.0871654 43.505 0.00194955 42.6002 0.342544 41.7779C0.683138 40.9557 1.25991 40.2529 1.99994 39.7584C2.73996 39.2639 3.60999 39 4.5 39C5.69348 39 6.83807 39.4741 7.68198 40.318C8.5259 41.1619 9 42.3065 9 43.5ZM3 43.5C3 43.7967 3.08798 44.0867 3.2528 44.3334C3.41762 44.58 3.65189 44.7723 3.92598 44.8858C4.20007 44.9993 4.50167 45.0291 4.79264 44.9712C5.08361 44.9133 5.35088 44.7704 5.56066 44.5607C5.77044 44.3509 5.9133 44.0836 5.97118 43.7926C6.02906 43.5017 5.99935 43.2001 5.88582 42.926C5.77229 42.6519 5.58003 42.4176 5.33336 42.2528C5.08668 42.088 4.79667 42 4.5 42C4.10218 42 3.72065 42.158 3.43934 42.4393C3.15804 42.7206 3 43.1022 3 43.5Z" fill="#05058C"/>
<path d="M27 43.5C27 44.39 26.7361 45.26 26.2416 46.0001C25.7472 46.7401 25.0443 47.3169 24.2221 47.6575C23.3998 47.998 22.495 48.0872 21.6221 47.9135C20.7492 47.7399 19.9474 47.3113 19.318 46.682C18.6887 46.0526 18.2601 45.2508 18.0865 44.3779C17.9128 43.505 18.0019 42.6002 18.3425 41.7779C18.6831 40.9557 19.2599 40.2529 19.9999 39.7584C20.74 39.2639 21.61 39 22.5 39C23.6935 39 24.8381 39.4741 25.682 40.318C26.5259 41.1619 27 42.3065 27 43.5ZM21 43.5C21 43.7967 21.088 44.0867 21.2528 44.3334C21.4176 44.58 21.6519 44.7723 21.926 44.8858C22.2001 44.9993 22.5017 45.0291 22.7926 44.9712C23.0836 44.9133 23.3509 44.7704 23.5607 44.5607C23.7704 44.3509 23.9133 44.0836 23.9712 43.7926C24.0291 43.5017 23.9994 43.2001 23.8858 42.926C23.7723 42.6519 23.58 42.4176 23.3334 42.2528C23.0867 42.088 22.7967 42 22.5 42C22.1022 42 21.7206 42.158 21.4393 42.4393C21.158 42.7206 21 43.1022 21 43.5Z" fill="#05058C"/>
</g>
<defs>
<clipPath id="clip0_3178_6853">
<rect width="48" height="48" fill="white" transform="translate(0 48) rotate(-90)"/>
</clipPath>
</defs>
</svg>
