<svg width="105" height="134" viewBox="0 0 105 134" fill="none" xmlns="http://www.w3.org/2000/svg">
<path d="M68.8125 53.9375C80.3125 55.8125 89.125 60.125 95.25 66.875C101.375 73.5 104.438 81.75 104.438 91.625C104.438 99.25 102.438 106.313 98.4375 112.813C94.4375 119.188 88.3125 124.313 80.0625 128.188C71.9375 132.063 61.9375 134 50.0625 134C40.8125 134 31.6875 132.812 22.6875 130.438C13.8125 127.938 6.25 124.438 0 119.938L11.8125 96.6875C16.8125 100.438 22.5625 103.375 29.0625 105.5C35.6875 107.5 42.4375 108.5 49.3125 108.5C56.9375 108.5 62.9375 107.063 67.3125 104.188C71.6875 101.188 73.875 97 73.875 91.625C73.875 80.875 65.6875 75.5 49.3125 75.5H35.4375V55.4375L62.4375 24.875H6.5625V0.5H98.4375V20.1875L68.8125 53.9375Z" fill="#05058C"/>
</svg>
