<svg width="96" height="96" viewBox="0 0 96 96" fill="none" xmlns="http://www.w3.org/2000/svg">
<g clip-path="url(#clip0_3596_7971)">
<path d="M32.1305 94.14C25.8859 92.2812 20.1195 89.0887 15.2298 84.7829C10.34 80.4772 6.44354 75.161 3.80969 69.2018C1.17584 63.2426 -0.132582 56.7825 -0.025129 50.2681C0.0823238 43.7537 1.60308 37.3403 4.43204 31.4712C7.26099 25.6021 11.3307 20.4173 16.3598 16.2752C21.3889 12.133 27.2575 9.13235 33.5599 7.48052C39.8623 5.82869 46.4483 5.56512 52.8626 6.70802C59.2768 7.85092 65.3664 10.373 70.7105 14.1C71.0564 14.3147 71.3549 14.5975 71.588 14.9313C71.8211 15.2651 71.9838 15.6428 72.0663 16.0414C72.1487 16.4401 72.1492 16.8513 72.0676 17.2502C71.986 17.649 71.8242 18.0271 71.5918 18.3613C71.3594 18.6956 71.0615 18.9791 70.7161 19.1945C70.3707 19.4099 69.985 19.5528 69.5826 19.6144C69.1802 19.6761 68.7695 19.6552 68.3754 19.553C67.9814 19.4508 67.6122 19.2695 67.2905 19.02C62.6591 15.7832 57.3798 13.5914 51.8178 12.5963C46.2557 11.6012 40.5439 11.8265 35.0776 13.2567C29.6113 14.6869 24.521 17.2878 20.159 20.8794C15.7971 24.4711 12.2676 28.9676 9.81497 34.0578C7.36231 39.1481 6.04501 44.7105 5.95423 50.3601C5.86345 56.0097 7.00136 61.6116 9.28921 66.778C11.5771 71.9444 14.9602 76.552 19.2045 80.2819C23.4488 84.0118 28.4529 86.7749 33.8705 88.38C34.6343 88.6108 35.2752 89.1355 35.6521 89.8388C36.0291 90.542 36.1112 91.3662 35.8805 92.13C35.6497 92.8939 35.125 93.5347 34.4218 93.9117C33.7185 94.2886 32.8943 94.3708 32.1305 94.14Z" fill="#000033"/>
<path d="M45 95.9999C44.2044 95.9999 43.4413 95.6839 42.8787 95.1213C42.3161 94.5587 42 93.7956 42 92.9999C42 92.2043 42.3161 91.4412 42.8787 90.8786C43.4413 90.316 44.2044 89.9999 45 89.9999C52.1245 89.9958 59.1118 88.0402 65.2034 84.3454C71.2949 80.6505 76.258 75.3576 79.5538 69.0412C82.8496 62.7248 84.3521 55.6263 83.8984 48.5162C83.4447 41.4061 81.0519 34.5562 76.98 28.7099C76.7306 28.3882 76.5493 28.0191 76.4471 27.625C76.3449 27.231 76.324 26.8202 76.3856 26.4178C76.4472 26.0154 76.5901 25.6298 76.8055 25.2844C77.021 24.9389 77.3044 24.641 77.6387 24.4086C77.973 24.1763 78.351 24.0144 78.7499 23.9328C79.1487 23.8512 79.56 23.8517 79.9586 23.9341C80.3573 24.0166 80.735 24.1793 81.0687 24.4124C81.4025 24.6455 81.6853 24.9441 81.9 25.2899C86.5959 32.0355 89.3546 39.9384 89.8768 48.1409C90.399 56.3434 88.6647 64.5323 84.8622 71.8189C81.0597 79.1055 75.3341 85.2115 68.3069 89.4744C61.2797 93.7372 53.2191 95.994 45 95.9999Z" fill="#000033"/>
<path d="M45 81C39.0666 81 33.2664 79.2405 28.3329 75.9441C23.3994 72.6477 19.5543 67.9623 17.2836 62.4805C15.013 56.9987 14.4189 50.9667 15.5765 45.1473C16.734 39.3279 19.5912 33.9824 23.7868 29.7868C27.9824 25.5912 33.3279 22.734 39.1473 21.5765C44.9667 20.4189 50.9987 21.013 56.4805 23.2836C61.9623 25.5543 66.6477 29.3994 69.9441 34.3329C73.2405 39.2664 75 45.0666 75 51C75 58.9565 71.8393 66.5871 66.2132 72.2132C60.5871 77.8393 52.9565 81 45 81ZM45 27C40.2533 27 35.6131 28.4076 31.6663 31.0447C27.7195 33.6819 24.6434 37.4302 22.8269 41.8156C21.0104 46.201 20.5351 51.0266 21.4612 55.6822C22.3872 60.3377 24.673 64.6141 28.0294 67.9706C31.3859 71.327 35.6623 73.6128 40.3178 74.5389C44.9734 75.4649 49.799 74.9896 54.1844 73.1731C58.5698 71.3566 62.3181 68.2805 64.9553 64.3337C67.5924 60.3869 69 55.7468 69 51C69 44.6348 66.4715 38.5303 61.9706 34.0294C57.4697 29.5286 51.3652 27 45 27Z" fill="#000033"/>
<path d="M45 66C42.0333 66 39.1332 65.1203 36.6665 63.4721C34.1997 61.8238 32.2771 59.4812 31.1418 56.7403C30.0065 53.9994 29.7094 50.9834 30.2882 48.0737C30.867 45.1639 32.2956 42.4912 34.3934 40.3934C36.4912 38.2956 39.1639 36.867 42.0737 36.2882C44.9834 35.7094 47.9994 36.0065 50.7403 37.1418C53.4812 38.2771 55.8238 40.1997 57.4721 42.6665C59.1203 45.1332 60 48.0333 60 51C60 54.9783 58.4197 58.7936 55.6066 61.6066C52.7936 64.4197 48.9783 66 45 66ZM45 42C43.22 42 41.4799 42.5278 39.9999 43.5168C38.5198 44.5057 37.3663 45.9113 36.6851 47.5559C36.0039 49.2004 35.8257 51.01 36.1729 52.7558C36.5202 54.5017 37.3774 56.1053 38.636 57.364C39.8947 58.6226 41.4984 59.4798 43.2442 59.8271C44.99 60.1743 46.7996 59.9961 48.4442 59.3149C50.0887 58.6337 51.4943 57.4802 52.4832 56.0001C53.4722 54.5201 54 52.78 54 51C54 48.6131 53.0518 46.3239 51.364 44.636C49.6761 42.9482 47.387 42 45 42Z" fill="#000033"/>
<path d="M93.7206 15L87.0006 13.38L92.2506 8.12996C92.5303 7.85024 92.7522 7.51817 92.9035 7.15271C93.0549 6.78724 93.1328 6.39553 93.1328 5.99996C93.1328 5.60438 93.0549 5.21268 92.9035 4.84721C92.7522 4.48174 92.5303 4.14967 92.2506 3.86996C91.9708 3.59024 91.6388 3.36836 91.2733 3.21698C90.9078 3.0656 90.5161 2.98768 90.1206 2.98768C89.725 2.98768 89.3333 3.0656 88.9678 3.21698C88.6023 3.36836 88.2703 3.59024 87.9906 3.86996L82.6206 8.99996L81.0006 2.27996C80.8849 1.7438 80.6245 1.24959 80.2477 0.851078C79.8708 0.452564 79.3919 0.164992 78.863 0.0196292C78.3342 -0.125734 77.7756 -0.123324 77.248 0.0265955C76.7204 0.176515 76.244 0.468207 75.8706 0.869957L66.8706 9.86996C66.5925 10.1503 66.3725 10.4827 66.2232 10.8482C66.0739 11.2137 65.9983 11.6051 66.0006 12V25.77L42.8706 48.87C42.3056 49.4349 41.9883 50.2011 41.9883 51C41.9883 51.7989 42.3056 52.565 42.8706 53.13C43.4355 53.6949 44.2017 54.0122 45.0006 54.0122C45.7995 54.0122 46.5656 53.6949 47.1306 53.13L70.2306 30H84.0006C84.3954 30.0022 84.7868 29.9266 85.1523 29.7773C85.5178 29.628 85.8502 29.408 86.1306 29.13L95.1306 20.13C95.5323 19.7565 95.824 19.2801 95.9739 18.7525C96.1238 18.2249 96.1262 17.6663 95.9809 17.1375C95.8355 16.6086 95.548 16.1297 95.1494 15.7528C94.7509 15.376 94.2567 15.1156 93.7206 15ZM72.0006 13.23L76.3806 8.99996L77.6706 14.19L72.0006 19.77V13.23ZM82.7706 24H76.2306L81.9306 18.33L87.0006 19.62L82.7706 24Z" fill="#05058C"/>
</g>
<defs>
<clipPath id="clip0_3596_7971">
<rect width="96" height="96" fill="white"/>
</clipPath>
</defs>
</svg>
