<svg width="66" height="22" viewBox="0 0 66 22" fill="none" xmlns="http://www.w3.org/2000/svg">
<g clip-path="url(#clip0_3297_6668)">
<path fill-rule="evenodd" clip-rule="evenodd" d="M0 0.343018H20.6946V21.6574H0V0.343018ZM1.1497 1.52715V20.4733H19.5449V1.52715H1.1497Z" fill="#000033"/>
<path fill-rule="evenodd" clip-rule="evenodd" d="M0.16837 0.51643C0.392863 0.285213 0.756838 0.285213 0.981331 0.51643L20.5262 20.6467C20.7507 20.8779 20.7507 21.2528 20.5262 21.484C20.3017 21.7152 19.9378 21.7152 19.7133 21.484L0.16837 1.35374C-0.0561233 1.12252 -0.0561233 0.747646 0.16837 0.51643Z" fill="#000033"/>
<path fill-rule="evenodd" clip-rule="evenodd" d="M32.8161 1.52691C27.7364 1.52691 23.6185 5.76814 23.6185 11C23.6185 16.2318 27.7364 20.473 32.8161 20.473C37.8958 20.473 42.0137 16.2318 42.0137 11C42.0137 5.76814 37.8958 1.52691 32.8161 1.52691ZM22.4688 11C22.4688 5.11416 27.1014 0.342773 32.8161 0.342773C38.5307 0.342773 43.1634 5.11416 43.1634 11C43.1634 16.8858 38.5307 21.6572 32.8161 21.6572C27.1014 21.6572 22.4688 16.8858 22.4688 11Z" fill="#000033"/>
<path fill-rule="evenodd" clip-rule="evenodd" d="M23.043 10.4077H42.5879V11.5918H23.043V10.4077Z" fill="#000033"/>
<path fill-rule="evenodd" clip-rule="evenodd" d="M55.2848 1.52642C50.2051 1.52642 46.0872 5.76765 46.0872 10.9995C46.0872 16.2313 50.2051 20.4725 55.2848 20.4725C60.3645 20.4725 64.4824 16.2313 64.4824 10.9995C64.4824 5.76765 60.3645 1.52642 55.2848 1.52642ZM44.9375 10.9995C44.9375 5.11367 49.5701 0.342285 55.2848 0.342285C60.9995 0.342285 65.6321 5.11367 65.6321 10.9995C65.6321 16.8853 60.9995 21.6567 55.2848 21.6567C49.5701 21.6567 44.9375 16.8853 44.9375 10.9995Z" fill="#000033"/>
</g>
<defs>
<clipPath id="clip0_3297_6668">
<rect width="65.7194" height="21.3144" fill="white" transform="translate(0 0.342773)"/>
</clipPath>
</defs>
</svg>
