<svg width="132" height="28" viewBox="0 0 132 28" fill="none" xmlns="http://www.w3.org/2000/svg">
<path d="M3.19141 19.3545V8.23754C3.19141 7.58233 3.45168 6.95397 3.91498 6.49067C4.37828 6.02737 5.00665 5.76709 5.66185 5.76709H17.1906C17.409 5.76709 17.6185 5.85385 17.7729 6.00828C17.9273 6.16272 18.0141 6.37217 18.0141 6.59057V21.4133C18.0141 21.6317 17.9273 21.8411 17.7729 21.9955C17.6185 22.15 17.409 22.2367 17.1906 22.2367H6.07359C5.30919 22.2367 4.57609 21.9331 4.03558 21.3926C3.49506 20.852 3.19141 20.119 3.19141 19.3545ZM16.3671 20.5898V18.1193H6.07359C5.74599 18.1193 5.43181 18.2495 5.20016 18.4811C4.96851 18.7128 4.83837 19.0269 4.83837 19.3545C4.83837 19.6822 4.96851 19.9963 5.20016 20.228C5.43181 20.4596 5.74599 20.5898 6.07359 20.5898H16.3671ZM8.95578 7.41405H5.66185C5.44345 7.41405 5.234 7.50081 5.07956 7.65525C4.92513 7.80968 4.83837 8.01914 4.83837 8.23754V16.7499C5.22433 16.5666 5.64633 16.4718 6.07359 16.4724H16.3671V7.41405H14.7202V14.0019L11.838 12.3549L8.95578 14.0019V7.41405Z" fill="#000033"/>
<path d="M31.0425 20.1265C29.9358 20.1265 28.9344 19.8841 28.0385 19.3992C27.1531 18.9038 26.4574 18.2292 25.9514 17.3754C25.4455 16.5111 25.1925 15.5413 25.1925 14.4662C25.1925 13.3911 25.4455 12.4266 25.9514 11.5728C26.4574 10.7085 27.1583 10.0339 28.0543 9.54902C28.9502 9.05361 29.9516 8.80591 31.0583 8.80591C31.9227 8.80591 32.7132 8.95348 33.43 9.24861C34.1467 9.53321 34.7581 9.9601 35.264 10.5293L34.2363 11.5254C33.4036 10.6505 32.3654 10.2131 31.1216 10.2131C30.2994 10.2131 29.5563 10.3975 28.8923 10.7665C28.2282 11.1354 27.7064 11.6466 27.327 12.3001C26.9581 12.9431 26.7736 13.6651 26.7736 14.4662C26.7736 15.2673 26.9581 15.9946 27.327 16.6481C27.7064 17.2911 28.2282 17.797 28.8923 18.1659C29.5563 18.5349 30.2994 18.7193 31.1216 18.7193C32.3548 18.7193 33.3931 18.2766 34.2363 17.3912L35.264 18.3873C34.7581 18.9565 34.1415 19.3886 33.4142 19.6838C32.6974 19.9789 31.9069 20.1265 31.0425 20.1265ZM40.2416 11.5412C41.4011 11.5412 42.2865 11.8258 42.8978 12.395C43.5197 12.9642 43.8307 13.8127 43.8307 14.9405V20H42.3919V18.8932C42.1389 19.2832 41.7753 19.5836 41.3009 19.7945C40.8372 19.9947 40.2838 20.0949 39.6408 20.0949C38.7027 20.0949 37.949 19.8682 37.3798 19.415C36.8212 18.9618 36.5419 18.3662 36.5419 17.6284C36.5419 16.8905 36.8107 16.3003 37.3482 15.8576C37.8858 15.4043 38.7396 15.1777 39.9096 15.1777H42.3128V14.8773C42.3128 14.2238 42.1231 13.7231 41.7436 13.3752C41.3642 13.0274 40.8055 12.8535 40.0677 12.8535C39.5723 12.8535 39.0874 12.9378 38.6131 13.1065C38.1388 13.2646 37.7382 13.4807 37.4115 13.7547L36.779 12.6163C37.2112 12.2685 37.7277 12.005 38.3285 11.8258C38.9293 11.6361 39.567 11.5412 40.2416 11.5412ZM39.8938 18.9249C40.4735 18.9249 40.9742 18.7984 41.3958 18.5454C41.8174 18.2819 42.1231 17.913 42.3128 17.4386V16.2686H39.9728C38.6869 16.2686 38.0439 16.7008 38.0439 17.5651C38.0439 17.9868 38.2073 18.3188 38.534 18.5612C38.8608 18.8036 39.314 18.9249 39.8938 18.9249ZM49.0428 20.0949C48.3577 20.0949 47.6989 20.0053 47.0665 19.8261C46.434 19.6364 45.9386 19.3992 45.5803 19.1146L46.2127 17.913C46.5816 18.1765 47.0296 18.3873 47.5566 18.5454C48.0836 18.7035 48.6159 18.7826 49.1535 18.7826C50.4816 18.7826 51.1457 18.4031 51.1457 17.6442C51.1457 17.3912 51.0561 17.1909 50.8769 17.0434C50.6977 16.8958 50.4711 16.7904 50.197 16.7272C49.9335 16.6534 49.554 16.5743 49.0586 16.49C48.384 16.3846 47.8307 16.2634 47.3985 16.1263C46.9769 15.9893 46.6132 15.7574 46.3076 15.4307C46.0019 15.1039 45.849 14.6454 45.849 14.0551C45.849 13.2962 46.1653 12.6901 46.7977 12.2369C47.4301 11.7731 48.2786 11.5412 49.3432 11.5412C49.9019 11.5412 50.4605 11.6097 51.0192 11.7467C51.5778 11.8838 52.0364 12.0682 52.3947 12.3001L51.7465 13.5017C51.0613 13.059 50.255 12.8377 49.3274 12.8377C48.6845 12.8377 48.1943 12.9431 47.857 13.1539C47.5197 13.3647 47.3511 13.644 47.3511 13.9919C47.3511 14.2659 47.4459 14.482 47.6357 14.6401C47.8254 14.7982 48.0573 14.9142 48.3313 14.988C48.6159 15.0617 49.0112 15.1461 49.5172 15.2409C50.1918 15.3569 50.7346 15.4834 51.1457 15.6204C51.5673 15.7469 51.9257 15.9682 52.2208 16.2844C52.5159 16.6007 52.6635 17.0434 52.6635 17.6126C52.6635 18.3715 52.3368 18.9776 51.6832 19.4308C51.0403 19.8735 50.1601 20.0949 49.0428 20.0949ZM58.1495 20.0949C57.3168 20.0949 56.5684 19.9104 55.9044 19.5415C55.2403 19.1726 54.7186 18.6666 54.3391 18.0236C53.9702 17.3701 53.7857 16.6323 53.7857 15.8101C53.7857 14.988 53.9702 14.2554 54.3391 13.6124C54.7186 12.9589 55.2403 12.4529 55.9044 12.0946C56.5684 11.7256 57.3168 11.5412 58.1495 11.5412C58.9822 11.5412 59.7253 11.7256 60.3788 12.0946C61.0429 12.4529 61.5594 12.9589 61.9283 13.6124C62.3078 14.2554 62.4975 14.988 62.4975 15.8101C62.4975 16.6323 62.3078 17.3701 61.9283 18.0236C61.5594 18.6666 61.0429 19.1726 60.3788 19.5415C59.7253 19.9104 58.9822 20.0949 58.1495 20.0949ZM58.1495 18.7668C58.6871 18.7668 59.1667 18.6455 59.5883 18.4031C60.0205 18.1501 60.3578 17.8023 60.6002 17.3596C60.8426 16.9063 60.9638 16.3899 60.9638 15.8101C60.9638 15.2304 60.8426 14.7192 60.6002 14.2765C60.3578 13.8232 60.0205 13.4754 59.5883 13.233C59.1667 12.9905 58.6871 12.8693 58.1495 12.8693C57.6119 12.8693 57.1271 12.9905 56.6949 13.233C56.2733 13.4754 55.936 13.8232 55.683 14.2765C55.4406 14.7192 55.3194 15.2304 55.3194 15.8101C55.3194 16.3899 55.4406 16.9063 55.683 17.3596C55.936 17.8023 56.2733 18.1501 56.6949 18.4031C57.1271 18.6455 57.6119 18.7668 58.1495 18.7668ZM76.7481 8.26834V20H75.2936V18.6719C74.9563 19.1357 74.5294 19.4888 74.0129 19.7312C73.4964 19.9736 72.9272 20.0949 72.3053 20.0949C71.4937 20.0949 70.7664 19.9157 70.1234 19.5573C69.4804 19.1989 68.9745 18.6982 68.6056 18.0553C68.2472 17.4017 68.068 16.6534 68.068 15.8101C68.068 14.9669 68.2472 14.2238 68.6056 13.5808C68.9745 12.9378 69.4804 12.4371 70.1234 12.0788C70.7664 11.7204 71.4937 11.5412 72.3053 11.5412C72.9061 11.5412 73.4595 11.6571 73.9654 11.889C74.4714 12.1104 74.893 12.4424 75.2303 12.8851V8.26834H76.7481ZM72.4318 18.7668C72.9588 18.7668 73.4384 18.6455 73.8706 18.4031C74.3027 18.1501 74.64 17.8023 74.8825 17.3596C75.1249 16.9063 75.2461 16.3899 75.2461 15.8101C75.2461 15.2304 75.1249 14.7192 74.8825 14.2765C74.64 13.8232 74.3027 13.4754 73.8706 13.233C73.4384 12.9905 72.9588 12.8693 72.4318 12.8693C71.8942 12.8693 71.4093 12.9905 70.9772 13.233C70.5556 13.4754 70.2183 13.8232 69.9653 14.2765C69.7229 14.7192 69.6016 15.2304 69.6016 15.8101C69.6016 16.3899 69.7229 16.9063 69.9653 17.3596C70.2183 17.8023 70.5556 18.1501 70.9772 18.4031C71.4093 18.6455 71.8942 18.7668 72.4318 18.7668ZM87.1934 15.8576C87.1934 15.9735 87.1829 16.1263 87.1618 16.3161H80.3632C80.458 17.0539 80.7795 17.6495 81.3276 18.1027C81.8863 18.5454 82.5767 18.7668 83.3988 18.7668C84.4002 18.7668 85.2065 18.4295 85.8179 17.7549L86.6559 18.7351C86.2764 19.1778 85.8021 19.5151 85.2329 19.747C84.6742 19.9789 84.0471 20.0949 83.3514 20.0949C82.466 20.0949 81.6807 19.9157 80.9956 19.5573C80.3105 19.1884 79.7782 18.6772 79.3987 18.0236C79.0298 17.3701 78.8453 16.6323 78.8453 15.8101C78.8453 14.9985 79.0245 14.2659 79.3829 13.6124C79.7518 12.9589 80.2525 12.4529 80.8849 12.0946C81.5279 11.7256 82.2499 11.5412 83.051 11.5412C83.8521 11.5412 84.5636 11.7256 85.1855 12.0946C85.8179 12.4529 86.308 12.9589 86.6559 13.6124C87.0143 14.2659 87.1934 15.0143 87.1934 15.8576ZM83.051 12.8219C82.3237 12.8219 81.7123 13.0432 81.2169 13.4859C80.7321 13.9286 80.4475 14.5084 80.3632 15.2251H85.7388C85.6545 14.5189 85.3647 13.9444 84.8692 13.5017C84.3844 13.0485 83.7783 12.8219 83.051 12.8219ZM101.121 15.8576C101.121 15.9735 101.11 16.1263 101.089 16.3161H94.2903C94.3852 17.0539 94.7066 17.6495 95.2548 18.1027C95.8134 18.5454 96.5038 18.7668 97.326 18.7668C98.3273 18.7668 99.1337 18.4295 99.745 17.7549L100.583 18.7351C100.204 19.1778 99.7292 19.5151 99.16 19.747C98.6014 19.9789 97.9742 20.0949 97.2786 20.0949C96.3931 20.0949 95.6079 19.9157 94.9227 19.5573C94.2376 19.1884 93.7053 18.6772 93.3258 18.0236C92.9569 17.3701 92.7725 16.6323 92.7725 15.8101C92.7725 14.9985 92.9516 14.2659 93.31 13.6124C93.6789 12.9589 94.1796 12.4529 94.8121 12.0946C95.455 11.7256 96.1771 11.5412 96.9781 11.5412C97.7792 11.5412 98.4907 11.7256 99.1126 12.0946C99.745 12.4529 100.235 12.9589 100.583 13.6124C100.941 14.2659 101.121 15.0143 101.121 15.8576ZM96.9781 12.8219C96.2508 12.8219 95.6395 13.0432 95.1441 13.4859C94.6592 13.9286 94.3746 14.5084 94.2903 15.2251H99.666C99.5817 14.5189 99.2918 13.9444 98.7964 13.5017C98.3115 13.0485 97.7054 12.8219 96.9781 12.8219ZM97.9268 8.34739H99.8557L97.1995 10.4028H95.7765L97.9268 8.34739ZM108.341 20L105.922 16.7904L103.471 20H101.779L105.084 15.7153L101.937 11.6202H103.629L105.937 14.6401L108.23 11.6202H109.89L106.728 15.7153L110.064 20H108.341ZM111.72 11.6202H113.238V20H111.72V11.6202ZM112.479 10.0075C112.184 10.0075 111.937 9.91267 111.736 9.72294C111.547 9.53321 111.452 9.30132 111.452 9.02726C111.452 8.75321 111.547 8.52131 111.736 8.33158C111.937 8.13131 112.184 8.03118 112.479 8.03118C112.774 8.03118 113.017 8.12604 113.207 8.31577C113.407 8.49496 113.507 8.72159 113.507 8.99564C113.507 9.28024 113.407 9.52267 113.207 9.72294C113.017 9.91267 112.774 10.0075 112.479 10.0075ZM120.848 19.5099C120.627 19.6996 120.353 19.8472 120.026 19.9526C119.699 20.0474 119.362 20.0949 119.014 20.0949C118.171 20.0949 117.517 19.8682 117.053 19.415C116.59 18.9618 116.358 18.3135 116.358 17.4703V12.8693H114.935V11.6202H116.358V9.78618H117.876V11.6202H120.279V12.8693H117.876V17.407C117.876 17.8603 117.986 18.2081 118.208 18.4505C118.439 18.693 118.766 18.8142 119.188 18.8142C119.652 18.8142 120.047 18.6824 120.374 18.4189L120.848 19.5099ZM125.994 20.0949C125.161 20.0949 124.413 19.9104 123.749 19.5415C123.085 19.1726 122.563 18.6666 122.184 18.0236C121.815 17.3701 121.63 16.6323 121.63 15.8101C121.63 14.988 121.815 14.2554 122.184 13.6124C122.563 12.9589 123.085 12.4529 123.749 12.0946C124.413 11.7256 125.161 11.5412 125.994 11.5412C126.827 11.5412 127.57 11.7256 128.223 12.0946C128.888 12.4529 129.404 12.9589 129.773 13.6124C130.152 14.2554 130.342 14.988 130.342 15.8101C130.342 16.6323 130.152 17.3701 129.773 18.0236C129.404 18.6666 128.888 19.1726 128.223 19.5415C127.57 19.9104 126.827 20.0949 125.994 20.0949ZM125.994 18.7668C126.532 18.7668 127.011 18.6455 127.433 18.4031C127.865 18.1501 128.202 17.8023 128.445 17.3596C128.687 16.9063 128.808 16.3899 128.808 15.8101C128.808 15.2304 128.687 14.7192 128.445 14.2765C128.202 13.8232 127.865 13.4754 127.433 13.233C127.011 12.9905 126.532 12.8693 125.994 12.8693C125.457 12.8693 124.972 12.9905 124.54 13.233C124.118 13.4754 123.781 13.8232 123.528 14.2765C123.285 14.7192 123.164 15.2304 123.164 15.8101C123.164 16.3899 123.285 16.9063 123.528 17.3596C123.781 17.8023 124.118 18.1501 124.54 18.4031C124.972 18.6455 125.457 18.7668 125.994 18.7668Z" fill="#000033"/>
</svg>
