<svg width="32" height="32" viewBox="0 0 32 32" fill="none" xmlns="http://www.w3.org/2000/svg">
<g clip-path="url(#clip0_2781_3475)">
<path d="M27.7099 26.2999L24.4499 22.9999C25.8867 21.3035 26.7757 19.2116 26.9999 16.9999H29.9999C30.2651 16.9999 30.5195 16.8945 30.707 16.707C30.8945 16.5195 30.9999 16.2651 30.9999 15.9999C30.9999 15.7347 30.8945 15.4803 30.707 15.2928C30.5195 15.1052 30.2651 14.9999 29.9999 14.9999H26.9999C26.79 12.7937 25.9186 10.7024 24.4999 8.99989L27.7099 5.69989C28.3484 6.00567 29.0745 6.07578 29.7597 5.89782C30.4449 5.71987 31.0452 5.30532 31.4542 4.72749C31.8633 4.14966 32.0548 3.44578 31.9949 2.74036C31.935 2.03494 31.6276 1.37343 31.127 0.872825C30.6264 0.372222 29.9648 0.0647883 29.2594 0.00489876C28.554 -0.0549908 27.8501 0.136523 27.2723 0.545568C26.6945 0.954612 26.2799 1.55483 26.102 2.24006C25.924 2.92529 25.9941 3.65137 26.2999 4.28989L22.9999 7.54989C21.2974 6.13118 19.2061 5.2598 16.9999 5.04989V1.99989C16.9999 1.73467 16.8945 1.48032 16.707 1.29278C16.5195 1.10525 16.2651 0.999889 15.9999 0.999889C15.7347 0.999889 15.4803 1.10525 15.2928 1.29278C15.1052 1.48032 14.9999 1.73467 14.9999 1.99989V5.04989C12.7937 5.2598 10.7024 6.13118 8.99989 7.54989L5.69989 4.28989C6.00567 3.65137 6.07578 2.92529 5.89782 2.24006C5.71987 1.55483 5.30532 0.954612 4.72749 0.545568C4.14966 0.136523 3.44578 -0.0549908 2.74036 0.00489876C2.03494 0.0647883 1.37343 0.372222 0.872825 0.872825C0.372222 1.37343 0.0647883 2.03494 0.00489876 2.74036C-0.0549908 3.44578 0.136523 4.14966 0.545568 4.72749C0.954612 5.30532 1.55483 5.71987 2.24006 5.89782C2.92529 6.07578 3.65137 6.00567 4.28989 5.69989L7.54989 8.99989C6.13118 10.7024 5.2598 12.7937 5.04989 14.9999H1.99989C1.73467 14.9999 1.48032 15.1052 1.29278 15.2928C1.10525 15.4803 0.999889 15.7347 0.999889 15.9999C0.999889 16.2651 1.10525 16.5195 1.29278 16.707C1.48032 16.8945 1.73467 16.9999 1.99989 16.9999H5.05989C5.25666 19.2057 6.12186 21.2989 7.53989 22.9999L4.28989 26.2999C3.65137 25.9941 2.92529 25.924 2.24006 26.102C1.55483 26.2799 0.954612 26.6945 0.545568 27.2723C0.136523 27.8501 -0.0549908 28.554 0.00489876 29.2594C0.0647883 29.9648 0.372222 30.6264 0.872825 31.127C1.37343 31.6276 2.03494 31.935 2.74036 31.9949C3.44578 32.0548 4.14966 31.8633 4.72749 31.4542C5.30532 31.0452 5.71987 30.4449 5.89782 29.7597C6.07578 29.0745 6.00567 28.3484 5.69989 27.7099L8.99989 24.4399C9.14989 24.5599 9.27989 24.6899 9.42989 24.7999C9.53495 24.8787 9.65449 24.936 9.78171 24.9686C9.90892 25.0012 10.0413 25.0084 10.1713 24.9898C10.3013 24.9713 10.4264 24.9273 10.5394 24.8604C10.6524 24.7935 10.7511 24.7049 10.8299 24.5999C10.9087 24.4948 10.966 24.3753 10.9986 24.2481C11.0312 24.1209 11.0384 23.9885 11.0198 23.8585C11.0013 23.7285 10.9573 23.6034 10.8904 23.4904C10.8235 23.3774 10.7349 23.2787 10.6299 23.1999C9.50196 22.3691 8.58555 21.2843 7.9549 20.0335C7.32425 18.7826 6.99708 17.4008 6.99989 15.9999C7.00027 14.1427 7.57519 12.3311 8.6458 10.8135C9.71641 9.29598 11.2303 8.14679 12.9798 7.52358C14.7293 6.90036 16.6288 6.83365 18.4177 7.33257C20.2066 7.8315 21.7974 8.87164 22.9718 10.3103C24.1463 11.749 24.8469 13.5158 24.9776 15.3684C25.1083 17.221 24.6626 19.0687 23.7018 20.658C22.7409 22.2473 21.3119 23.5005 19.6108 24.2456C17.9096 24.9907 16.0196 25.1913 14.1999 24.8199C14.0686 24.7936 13.9334 24.7935 13.802 24.8195C13.6706 24.8455 13.5456 24.8971 13.4342 24.9714C13.3228 25.0456 13.2271 25.1412 13.1525 25.2524C13.078 25.3637 13.0262 25.4886 12.9999 25.6199C12.9736 25.7512 12.9735 25.8864 12.9995 26.0178C13.0255 26.1492 13.0771 26.2741 13.1514 26.3856C13.2256 26.497 13.3212 26.5927 13.4324 26.6672C13.5437 26.7418 13.6686 26.7936 13.7999 26.8199C14.1999 26.8999 14.5999 26.9499 14.9999 26.9899V29.9999C14.9999 30.2651 15.1052 30.5195 15.2928 30.707C15.4803 30.8945 15.7347 30.9999 15.9999 30.9999C16.2651 30.9999 16.5195 30.8945 16.707 30.707C16.8945 30.5195 16.9999 30.2651 16.9999 29.9999V26.9999C19.2061 26.79 21.2974 25.9186 22.9999 24.4999L26.2699 27.7599C25.9641 28.3984 25.894 29.1245 26.072 29.8097C26.2499 30.4949 26.6645 31.0952 27.2423 31.5042C27.8201 31.9133 28.524 32.1048 29.2294 32.0449C29.9348 31.985 30.5964 31.6776 31.097 31.177C31.5976 30.6764 31.905 30.0148 31.9649 29.3094C32.0248 28.604 31.8333 27.9001 31.4242 27.3223C31.0152 26.7445 30.4149 26.3299 29.7297 26.152C29.0445 25.974 28.3184 26.0441 27.6799 26.3499L27.7099 26.2999ZM2.99989 29.9999C2.83544 30.0006 2.67335 29.9607 2.52799 29.8838C2.38263 29.8069 2.25849 29.6953 2.16655 29.5589C2.07462 29.4226 2.01773 29.2657 2.00093 29.1021C1.98413 28.9385 2.00793 28.7732 2.07024 28.6211C2.13254 28.4689 2.23141 28.3344 2.35811 28.2295C2.4848 28.1247 2.63539 28.0527 2.79655 28.0199C2.95771 27.9872 3.12446 27.9947 3.28203 28.0418C3.4396 28.0889 3.58312 28.1741 3.69989 28.2899V28.2899C3.84031 28.4292 3.93628 28.6069 3.97567 28.8008C4.01505 28.9946 3.99608 29.1957 3.92116 29.3787C3.84623 29.5618 3.71871 29.7185 3.55473 29.829C3.39075 29.9396 3.19766 29.9991 2.99989 29.9999V29.9999ZM28.9999 1.99989C29.1643 1.9992 29.3264 2.03908 29.4718 2.11599C29.6171 2.19291 29.7413 2.30449 29.8332 2.44085C29.9252 2.5772 29.982 2.73413 29.9988 2.89772C30.0157 3.06131 29.9918 3.22653 29.9295 3.37872C29.8672 3.53092 29.7684 3.6654 29.6417 3.77026C29.515 3.87511 29.3644 3.9471 29.2032 3.97985C29.0421 4.0126 28.8753 4.0051 28.7177 3.95801C28.5602 3.91092 28.4167 3.8257 28.2999 3.70989V3.70989C28.1595 3.57062 28.0635 3.39284 28.0241 3.19902C27.9847 3.00521 28.0037 2.80407 28.0786 2.62104C28.1535 2.438 28.2811 2.2813 28.445 2.17074C28.609 2.06017 28.8021 2.00072 28.9999 1.99989V1.99989ZM1.99989 2.99989C1.9992 2.83544 2.03908 2.67335 2.11599 2.52799C2.19291 2.38263 2.30449 2.25849 2.44085 2.16655C2.5772 2.07462 2.73413 2.01773 2.89772 2.00093C3.06131 1.98413 3.22653 2.00793 3.37872 2.07024C3.53092 2.13254 3.6654 2.23141 3.77026 2.35811C3.87511 2.4848 3.9471 2.63539 3.97985 2.79655C4.0126 2.95771 4.0051 3.12446 3.95801 3.28203C3.91092 3.4396 3.8257 3.58312 3.70989 3.69989C3.57062 3.84031 3.39284 3.93628 3.19902 3.97567C3.00521 4.01505 2.80407 3.99608 2.62104 3.92116C2.438 3.84623 2.2813 3.71871 2.17074 3.55473C2.06017 3.39075 2.00072 3.19766 1.99989 2.99989V2.99989ZM28.9999 29.9999C28.8033 29.9991 28.6113 29.9403 28.448 29.831C28.2846 29.7217 28.157 29.5667 28.0813 29.3853C28.0055 29.2039 27.9849 29.0042 28.022 28.8111C28.0591 28.6181 28.1523 28.4403 28.2899 28.2999V28.2999C28.4054 28.182 28.5483 28.0946 28.7059 28.0454C28.8634 27.9962 29.0307 27.9867 29.1928 28.0179C29.3549 28.049 29.5067 28.1198 29.6348 28.2239C29.7629 28.328 29.8632 28.4622 29.9268 28.6145C29.9904 28.7668 30.0153 28.9325 29.9993 29.0968C29.9833 29.261 29.9269 29.4188 29.8352 29.556C29.7434 29.6931 29.6191 29.8055 29.4733 29.8829C29.3276 29.9604 29.1649 30.0006 28.9999 29.9999V29.9999Z" fill="#000033"/>
<path d="M5.72354 27.7353L9.02354 24.4753C10.7199 25.912 12.8118 26.8011 15.0235 27.0253L15.0235 30.0253C15.0235 30.2905 15.1289 30.5449 15.3164 30.7324C15.504 30.9199 15.7583 31.0253 16.0235 31.0253C16.2888 31.0253 16.5431 30.9199 16.7307 30.7324C16.9182 30.5449 17.0235 30.2905 17.0235 30.0253L17.0235 27.0253C19.2297 26.8154 21.321 25.944 23.0235 24.5253L26.3235 27.7353C26.0178 28.3738 25.9477 29.0999 26.1256 29.7851C26.3036 30.4703 26.7181 31.0706 27.2959 31.4796C27.8738 31.8886 28.5777 32.0802 29.2831 32.0203C29.9885 31.9604 30.65 31.6529 31.1506 31.1523C31.6512 30.6517 31.9586 29.9902 32.0185 29.2848C32.0784 28.5794 31.8869 27.8755 31.4779 27.2977C31.0688 26.7199 30.4686 26.3053 29.7834 26.1273C29.0982 25.9494 28.3721 26.0195 27.7335 26.3253L24.4735 23.0253C25.8923 21.3228 26.7636 19.2315 26.9735 17.0253L30.0235 17.0253C30.2888 17.0253 30.5431 16.9199 30.7307 16.7324C30.9182 16.5449 31.0235 16.2905 31.0235 16.0253C31.0235 15.7601 30.9182 15.5057 30.7307 15.3182C30.5431 15.1306 30.2888 15.0253 30.0235 15.0253L26.9735 15.0253C26.7636 12.8191 25.8923 10.7278 24.4735 9.02528L27.7335 5.72528C28.3721 6.03106 29.0982 6.10117 29.7834 5.92321C30.4686 5.74526 31.0688 5.33071 31.4779 4.75288C31.8869 4.17505 32.0784 3.47117 32.0185 2.76575C31.9586 2.06033 31.6512 1.39882 31.1506 0.898215C30.65 0.397613 29.9885 0.0901789 29.2831 0.0302893C28.5777 -0.0296003 27.8738 0.161914 27.296 0.570958C26.7181 0.980003 26.3036 1.58022 26.1256 2.26545C25.9477 2.95068 26.0178 3.67676 26.3235 4.31528L23.0235 7.57528C21.321 6.15657 19.2297 5.28519 17.0235 5.07528L17.0235 2.02528C17.0235 1.76006 16.9182 1.50571 16.7307 1.31817C16.5431 1.13064 16.2888 1.02528 16.0235 1.02528C15.7583 1.02528 15.504 1.13064 15.3164 1.31817C15.1289 1.50571 15.0235 1.76006 15.0235 2.02528L15.0235 5.08528C12.8178 5.28205 10.7245 6.14725 9.02355 7.56528L5.72355 4.31528C6.02932 3.67676 6.09944 2.95067 5.92148 2.26545C5.74353 1.58022 5.32897 0.980002 4.75114 0.570957C4.17331 0.161913 3.46944 -0.0296014 2.76402 0.0302881C2.0586 0.0901776 1.39708 0.397612 0.896481 0.898214C0.395878 1.39882 0.0884463 2.06033 0.0285567 2.76575C-0.0313329 3.47117 0.160179 4.17504 0.569223 4.75287C0.978268 5.33071 1.57849 5.74526 2.26371 5.92321C2.94894 6.10117 3.67503 6.03106 4.31355 5.72528L7.58354 9.02528C7.46354 9.17528 7.33355 9.30528 7.22355 9.45528C7.14475 9.56034 7.08742 9.67988 7.05483 9.8071C7.02224 9.93431 7.01502 10.0667 7.03359 10.1967C7.05217 10.3267 7.09616 10.4518 7.16307 10.5648C7.22998 10.6778 7.31849 10.7765 7.42354 10.8553C7.5286 10.9341 7.64815 10.9914 7.77536 11.024C7.90258 11.0566 8.03497 11.0638 8.16497 11.0452C8.29497 11.0267 8.42004 10.9827 8.53304 10.9158C8.64604 10.8488 8.74475 10.7603 8.82354 10.6553C9.65432 9.52735 10.7391 8.61094 11.99 7.98029C13.2408 7.34964 14.6227 7.02247 16.0235 7.02528C17.8807 7.02566 19.6923 7.60058 21.2099 8.67119C22.7275 9.7418 23.8766 11.2557 24.4999 13.0052C25.1231 14.7547 25.1898 16.6542 24.6909 18.4431C24.1919 20.232 23.1518 21.8228 21.7131 22.9972C20.2744 24.1717 18.5076 24.8723 16.655 25.003C14.8024 25.1337 12.9548 24.688 11.3654 23.7272C9.7761 22.7663 8.52295 21.3373 7.77782 19.6361C7.0327 17.935 6.83211 16.045 7.20354 14.2253C7.22981 14.094 7.22995 13.9587 7.20396 13.8274C7.17797 13.696 7.12636 13.571 7.05207 13.4596C6.97779 13.3482 6.88228 13.2525 6.771 13.1779C6.65973 13.1034 6.53487 13.0515 6.40354 13.0253C6.27222 12.999 6.13701 12.9989 6.00564 13.0249C5.87426 13.0509 5.74929 13.1025 5.63786 13.1767C5.52643 13.251 5.43072 13.3465 5.3562 13.4578C5.28168 13.5691 5.22981 13.694 5.20354 13.8253C5.12354 14.2253 5.07354 14.6253 5.03354 15.0253L2.02354 15.0253C1.75833 15.0253 1.50397 15.1306 1.31644 15.3182C1.1289 15.5057 1.02354 15.7601 1.02354 16.0253C1.02354 16.2905 1.1289 16.5448 1.31644 16.7324C1.50397 16.9199 1.75833 17.0253 2.02354 17.0253L5.02354 17.0253C5.23345 19.2314 6.10484 21.3228 7.52354 23.0253L4.26354 26.2953C3.62503 25.9895 2.89894 25.9194 2.21371 26.0973C1.52848 26.2753 0.928268 26.6899 0.519223 27.2677C0.110178 27.8455 -0.081337 28.5494 -0.0214475 29.2548C0.038442 29.9602 0.345876 30.6217 0.846478 31.1223C1.34708 31.6229 2.00859 31.9304 2.71401 31.9903C3.41944 32.0502 4.12331 31.8586 4.70114 31.4496C5.27897 31.0406 5.69352 30.4403 5.87148 29.7551C6.04943 29.0699 5.97932 28.3438 5.67354 27.7053L5.72354 27.7353ZM2.02354 3.02528C2.02285 2.86083 2.06273 2.69874 2.13965 2.55338C2.21657 2.40802 2.32814 2.28388 2.4645 2.19194C2.60086 2.10001 2.75778 2.04312 2.92138 2.02632C3.08497 2.00952 3.25018 2.03332 3.40238 2.09562C3.55458 2.15793 3.68906 2.2568 3.79391 2.3835C3.89877 2.51019 3.97076 2.66078 4.00351 2.82194C4.03626 2.9831 4.02875 3.14985 3.98166 3.30742C3.93458 3.46499 3.84935 3.60851 3.73354 3.72528V3.72528C3.59427 3.8657 3.41649 3.96167 3.22268 4.00106C3.02886 4.04044 2.82772 4.02147 2.64469 3.94655C2.46166 3.87162 2.30495 3.7441 2.19439 3.58012C2.08383 3.41614 2.02437 3.22305 2.02354 3.02528V3.02528ZM30.0235 29.0253C30.0242 29.1897 29.9844 29.3518 29.9074 29.4972C29.8305 29.6425 29.7189 29.7667 29.5826 29.8586C29.4462 29.9506 29.2893 30.0074 29.1257 30.0242C28.9621 30.041 28.7969 30.0172 28.6447 29.9549C28.4925 29.8926 28.358 29.7938 28.2532 29.6671C28.1483 29.5404 28.0763 29.3898 28.0436 29.2286C28.0108 29.0675 28.0183 28.9007 28.0654 28.7431C28.1125 28.5856 28.1977 28.442 28.3135 28.3253V28.3253C28.4528 28.1849 28.6306 28.0889 28.8244 28.0495C29.0182 28.0101 29.2194 28.0291 29.4024 28.104C29.5854 28.1789 29.7421 28.3065 29.8527 28.4704C29.9633 28.6344 30.0227 28.8275 30.0235 29.0253V29.0253ZM29.0235 2.02528C29.188 2.02459 29.3501 2.06447 29.4954 2.14138C29.6408 2.2183 29.7649 2.32988 29.8569 2.46624C29.9488 2.60259 30.0057 2.75952 30.0225 2.92311C30.0393 3.08671 30.0155 3.25192 29.9532 3.40411C29.8909 3.55631 29.792 3.69079 29.6653 3.79565C29.5386 3.9005 29.388 3.97249 29.2269 4.00524C29.0657 4.03799 28.899 4.03049 28.7414 3.9834C28.5838 3.93631 28.4403 3.85109 28.3235 3.73528C28.1831 3.59601 28.0872 3.41823 28.0478 3.22441C28.0084 3.0306 28.0274 2.82946 28.1023 2.64643C28.1772 2.46339 28.3047 2.30669 28.4687 2.19613C28.6327 2.08556 28.8258 2.02611 29.0235 2.02528V2.02528ZM2.02354 29.0253C2.02436 28.8287 2.08309 28.6367 2.1924 28.4733C2.30171 28.31 2.45675 28.1824 2.63815 28.1067C2.81954 28.0309 3.01924 28.0103 3.21229 28.0474C3.40533 28.0845 3.58316 28.1777 3.72354 28.3153V28.3153C3.84141 28.4308 3.92885 28.5737 3.97806 28.7313C4.02726 28.8888 4.03671 29.0561 4.00556 29.2182C3.97441 29.3802 3.90362 29.5321 3.79951 29.6602C3.69541 29.7882 3.56122 29.8886 3.40892 29.9522C3.25662 30.0158 3.09095 30.0407 2.92667 30.0247C2.7624 30.0087 2.60464 29.9523 2.46746 29.8605C2.33029 29.7688 2.21796 29.6445 2.1405 29.4987C2.06304 29.353 2.02286 29.1903 2.02354 29.0253V29.0253Z" fill="#000033"/>
<path d="M18.4083 15.7926C18.8598 15.3078 19.1628 14.6975 19.2796 14.0374C19.3964 13.3773 19.3219 12.6964 19.0654 12.0794C18.8088 11.4624 18.3816 10.9364 17.8366 10.5668C17.2917 10.1971 16.653 10 16 10C15.347 10 14.7083 10.1971 14.1634 10.5668C13.6184 10.9364 13.1912 11.4624 12.9346 12.0794C12.6781 12.6964 12.6036 13.3773 12.7204 14.0374C12.8372 14.6975 13.1402 15.3078 13.5917 15.7926C12.8079 16.2352 12.154 16.8857 11.6981 17.6763C11.2423 18.4669 11.0012 19.3687 11 20.2876V21.1438C11 21.3709 11.0878 21.5887 11.2441 21.7492C11.4004 21.9098 11.6123 22 11.8333 22H20.1667C20.3877 22 20.5996 21.9098 20.7559 21.7492C20.9122 21.5887 21 21.3709 21 21.1438V20.2876C20.9988 19.3687 20.7577 18.4669 20.3019 17.6763C19.846 16.8857 19.1921 16.2352 18.4083 15.7926V15.7926ZM14.3333 13.438C14.3333 13.0994 14.4311 12.7683 14.6142 12.4867C14.7974 12.2051 15.0577 11.9856 15.3622 11.856C15.6667 11.7264 16.0018 11.6925 16.3252 11.7586C16.6485 11.8246 16.9454 11.9877 17.1785 12.2272C17.4116 12.4667 17.5703 12.7718 17.6346 13.104C17.699 13.4361 17.6659 13.7804 17.5398 14.0933C17.4137 14.4062 17.2 14.6737 16.926 14.8618C16.6519 15.05 16.3296 15.1504 16 15.1504C15.558 15.1504 15.134 14.97 14.8215 14.6489C14.5089 14.3277 14.3333 13.8922 14.3333 13.438V13.438ZM12.6667 20.2876C12.6667 19.3793 13.0179 18.5082 13.643 17.8659C14.2681 17.2236 15.1159 16.8628 16 16.8628C16.8841 16.8628 17.7319 17.2236 18.357 17.8659C18.9821 18.5082 19.3333 19.3793 19.3333 20.2876H12.6667Z" fill="#100FA8"/>
</g>
<defs>
<clipPath id="clip0_2781_3475">
<rect width="32" height="32" fill="white"/>
</clipPath>
</defs>
</svg>
