<svg width="24" height="24" viewBox="0 0 24 24" fill="none" xmlns="http://www.w3.org/2000/svg">
<g clip-path="url(#clip0_1667_1286)">
<path d="M22.5 16.5C22.6989 16.5 22.8897 16.421 23.0303 16.2803C23.171 16.1397 23.25 15.9489 23.25 15.75V2.25C23.25 1.65326 23.0129 1.08097 22.591 0.65901C22.169 0.237053 21.5967 0 21 0L3 0C2.40326 0 1.83097 0.237053 1.40901 0.65901C0.987053 1.08097 0.75 1.65326 0.75 2.25V17.25C0.75 17.8467 0.987053 18.419 1.40901 18.841C1.83097 19.2629 2.40326 19.5 3 19.5H8.1825C7.97815 20.6753 7.36116 21.739 6.4425 22.5H5.25C5.05109 22.5 4.86032 22.579 4.71967 22.7197C4.57902 22.8603 4.5 23.0511 4.5 23.25C4.5 23.4489 4.57902 23.6397 4.71967 23.7803C4.86032 23.921 5.05109 24 5.25 24H18.9C19.0989 24 19.2897 23.921 19.4303 23.7803C19.571 23.6397 19.65 23.4489 19.65 23.25C19.65 23.0511 19.571 22.8603 19.4303 22.7197C19.2897 22.579 19.0989 22.5 18.9 22.5H17.5575C16.6368 21.7408 16.0193 20.6762 15.8175 19.5H21C21.5967 19.5 22.169 19.2629 22.591 18.841C23.0129 18.419 23.25 17.8467 23.25 17.25V15.75C23.25 15.5511 23.171 15.3603 23.0303 15.2197C22.8897 15.079 22.6989 15 22.5 15H2.25V2.25C2.25 2.05109 2.32902 1.86032 2.46967 1.71967C2.61032 1.57902 2.80109 1.5 3 1.5H21C21.1989 1.5 21.3897 1.57902 21.5303 1.71967C21.671 1.86032 21.75 2.05109 21.75 2.25V15.75C21.75 15.9489 21.829 16.1397 21.9697 16.2803C22.1103 16.421 22.3011 16.5 22.5 16.5ZM15.5175 22.5H8.4825C9.14478 21.6253 9.56162 20.5896 9.69 19.5H14.31C14.4384 20.5896 14.8552 21.6253 15.5175 22.5ZM21.75 16.5V17.25C21.75 17.4489 21.671 17.6397 21.5303 17.7803C21.3897 17.921 21.1989 18 21 18H3C2.80109 18 2.61032 17.921 2.46967 17.7803C2.32902 17.6397 2.25 17.4489 2.25 17.25V16.5H21.75Z" fill="#000033"/>
<path d="M18 6H10.5C10.3011 6 10.1103 5.92098 9.96967 5.78033C9.82902 5.63968 9.75 5.44891 9.75 5.25C9.75 5.05109 9.82902 4.86032 9.96967 4.71967C10.1103 4.57902 10.3011 4.5 10.5 4.5H18C18.1989 4.5 18.3897 4.57902 18.5303 4.71967C18.671 4.86032 18.75 5.05109 18.75 5.25C18.75 5.44891 18.671 5.63968 18.5303 5.78033C18.3897 5.92098 18.1989 6 18 6Z" fill="#7A0BE9"/>
<path d="M16.5 9H10.5C10.3011 9 10.1103 8.92098 9.96967 8.78033C9.82902 8.63968 9.75 8.44891 9.75 8.25C9.75 8.05109 9.82902 7.86032 9.96967 7.71967C10.1103 7.57902 10.3011 7.5 10.5 7.5H16.5C16.6989 7.5 16.8897 7.57902 17.0303 7.71967C17.171 7.86032 17.25 8.05109 17.25 8.25C17.25 8.44891 17.171 8.63968 17.0303 8.78033C16.8897 8.92098 16.6989 9 16.5 9Z" fill="#7A0BE9"/>
<path d="M15 12H10.5C10.3011 12 10.1103 11.921 9.96967 11.7803C9.82902 11.6397 9.75 11.4489 9.75 11.25C9.75 11.0511 9.82902 10.8603 9.96967 10.7197C10.1103 10.579 10.3011 10.5 10.5 10.5H15C15.1989 10.5 15.3897 10.579 15.5303 10.7197C15.671 10.8603 15.75 11.0511 15.75 11.25C15.75 11.4489 15.671 11.6397 15.5303 11.7803C15.3897 11.921 15.1989 12 15 12Z" fill="#7A0BE9"/>
<path d="M6 12C5.80109 12 5.61032 11.921 5.46967 11.7803C5.32902 11.6397 5.25 11.4489 5.25 11.25V8.25C5.25 8.05109 5.32902 7.86032 5.46967 7.71967C5.61032 7.57902 5.80109 7.5 6 7.5C6.19891 7.5 6.38968 7.57902 6.53033 7.71967C6.67098 7.86032 6.75 8.05109 6.75 8.25V11.25C6.75 11.4489 6.67098 11.6397 6.53033 11.7803C6.38968 11.921 6.19891 12 6 12Z" fill="#7A0BE9"/>
<path d="M6 6C5.85166 6 5.70666 5.95601 5.58332 5.8736C5.45999 5.79119 5.36386 5.67406 5.30709 5.53701C5.25032 5.39997 5.23547 5.24917 5.26441 5.10368C5.29335 4.9582 5.36478 4.82456 5.46967 4.71967C5.57456 4.61478 5.7082 4.54335 5.85368 4.51441C5.99917 4.48547 6.14997 4.50032 6.28701 4.55709C6.42406 4.61386 6.54119 4.70999 6.6236 4.83332C6.70601 4.95666 6.75 5.10166 6.75 5.25C6.75 5.44891 6.67098 5.63968 6.53033 5.78033C6.38968 5.92098 6.19891 6 6 6Z" fill="#7A0BE9"/>
</g>
<defs>
<clipPath id="clip0_1667_1286">
<rect width="24" height="24" fill="white"/>
</clipPath>
</defs>
</svg>
