<svg width="32" height="32" viewBox="0 0 32 32" fill="none" xmlns="http://www.w3.org/2000/svg">
<g clip-path="url(#clip0_2781_4257)">
<path d="M7 28C6.80222 28 6.60888 27.9414 6.44443 27.8315C6.27998 27.7216 6.15181 27.5654 6.07612 27.3827C6.00043 27.2 5.98063 26.9989 6.01922 26.8049C6.0578 26.6109 6.15304 26.4327 6.29289 26.2929C6.43275 26.153 6.61093 26.0578 6.80491 26.0192C6.99889 25.9806 7.19996 26.0004 7.38268 26.0761C7.56541 26.1518 7.72159 26.28 7.83147 26.4444C7.94135 26.6089 8 26.8022 8 27C8 27.2652 7.89464 27.5196 7.70711 27.7071C7.51957 27.8946 7.26522 28 7 28Z" fill="#100FA8"/>
<path d="M25 16C24.8022 16 24.6089 15.9414 24.4444 15.8315C24.28 15.7216 24.1518 15.5654 24.0761 15.3827C24.0004 15.2 23.9806 14.9989 24.0192 14.8049C24.0578 14.6109 24.153 14.4327 24.2929 14.2929C24.4327 14.153 24.6109 14.0578 24.8049 14.0192C24.9989 13.9806 25.2 14.0004 25.3827 14.0761C25.5654 14.1518 25.7216 14.28 25.8315 14.4444C25.9414 14.6089 26 14.8022 26 15C26 15.2652 25.8946 15.5196 25.7071 15.7071C25.5196 15.8946 25.2652 16 25 16Z" fill="#100FA8"/>
<path d="M23 29H17C16.7348 29 16.4804 28.8946 16.2929 28.7071C16.1054 28.5196 16 28.2652 16 28C16 27.7348 16.1054 27.4804 16.2929 27.2929C16.4804 27.1054 16.7348 27 17 27H23C23.2652 27 23.5196 26.8946 23.7071 26.7071C23.8946 26.5196 24 26.2652 24 26V23C24 22.7348 24.1054 22.4804 24.2929 22.2929C24.4804 22.1054 24.7348 22 25 22C25.2652 22 25.5196 22.1054 25.7071 22.2929C25.8946 22.4804 26 22.7348 26 23V26C26 26.7956 25.6839 27.5587 25.1213 28.1213C24.5587 28.6839 23.7956 29 23 29Z" fill="#100FA8"/>
<path d="M11 12H3C2.20435 12 1.44129 12.3161 0.87868 12.8787C0.31607 13.4413 0 14.2044 0 15L0 29C0 29.7956 0.31607 30.5587 0.87868 31.1213C1.44129 31.6839 2.20435 32 3 32H11C11.7956 32 12.5587 31.6839 13.1213 31.1213C13.6839 30.5587 14 29.7956 14 29V15C14 14.2044 13.6839 13.4413 13.1213 12.8787C12.5587 12.3161 11.7956 12 11 12ZM12 29C12 29.2652 11.8946 29.5196 11.7071 29.7071C11.5196 29.8946 11.2652 30 11 30H3C2.73478 30 2.48043 29.8946 2.29289 29.7071C2.10536 29.5196 2 29.2652 2 29V15C2 14.7348 2.10536 14.4804 2.29289 14.2929C2.48043 14.1054 2.73478 14 3 14H4C4 14.2652 4.10536 14.5196 4.29289 14.7071C4.48043 14.8946 4.73478 15 5 15H9C9.26522 15 9.51957 14.8946 9.70711 14.7071C9.89464 14.5196 10 14.2652 10 14H11C11.2652 14 11.5196 14.1054 11.7071 14.2929C11.8946 14.4804 12 14.7348 12 15V29Z" fill="#000033"/>
<path d="M31 9C31.2652 9 31.5196 8.89464 31.7071 8.70711C31.8946 8.51957 32 8.26522 32 8V3C32 2.20435 31.6839 1.44129 31.1213 0.87868C30.5587 0.31607 29.7956 0 29 0L21 0C20.2044 0 19.4413 0.31607 18.8787 0.87868C18.3161 1.44129 18 2.20435 18 3V17C18 17.7956 18.3161 18.5587 18.8787 19.1213C19.4413 19.6839 20.2044 20 21 20H29C29.7956 20 30.5587 19.6839 31.1213 19.1213C31.6839 18.5587 32 17.7956 32 17V12C32 11.7348 31.8946 11.4804 31.7071 11.2929C31.5196 11.1054 31.2652 11 31 11C30.7348 11 30.4804 11.1054 30.2929 11.2929C30.1054 11.4804 30 11.7348 30 12V17C30 17.2652 29.8946 17.5196 29.7071 17.7071C29.5196 17.8946 29.2652 18 29 18H21C20.7348 18 20.4804 17.8946 20.2929 17.7071C20.1054 17.5196 20 17.2652 20 17V3C20 2.73478 20.1054 2.48043 20.2929 2.29289C20.4804 2.10536 20.7348 2 21 2H22C22 2.26522 22.1054 2.51957 22.2929 2.70711C22.4804 2.89464 22.7348 3 23 3H27C27.2652 3 27.5196 2.89464 27.7071 2.70711C27.8946 2.51957 28 2.26522 28 2H29C29.2652 2 29.5196 2.10536 29.7071 2.29289C29.8946 2.48043 30 2.73478 30 3V8C30 8.26522 30.1054 8.51957 30.2929 8.70711C30.4804 8.89464 30.7348 9 31 9Z" fill="#000033"/>
</g>
<defs>
<clipPath id="clip0_2781_4257">
<rect width="32" height="32" fill="white"/>
</clipPath>
</defs>
</svg>
