<svg width="32" height="32" viewBox="0 0 32 32" fill="none" xmlns="http://www.w3.org/2000/svg">
<g clip-path="url(#clip0_2781_3251)">
<path d="M0.999956 20.0001C0.801332 20.0012 0.606863 19.9432 0.441343 19.8334C0.275823 19.7236 0.146752 19.567 0.0705855 19.3835C-0.00558127 19.2001 -0.0253928 18.9981 0.0136769 18.8034C0.0527466 18.6086 0.148927 18.4299 0.289956 18.2901L5.28996 13.2901C5.4607 13.1195 5.68736 13.0165 5.92812 12.9999C6.16888 12.9834 6.40749 13.0545 6.59996 13.2001L9.90996 15.6801L17.29 8.29007C17.3829 8.19634 17.4935 8.12194 17.6154 8.07118C17.7372 8.02041 17.8679 7.99427 18 7.99427C18.132 7.99427 18.2627 8.02041 18.3845 8.07118C18.5064 8.12194 18.617 8.19634 18.71 8.29007L22.05 11.6401L28.35 6.24007C28.4952 6.11581 28.6731 6.0358 28.8624 6.0095C29.0518 5.98321 29.2447 6.01174 29.4183 6.09172C29.5919 6.17169 29.739 6.29976 29.8421 6.46075C29.9452 6.62174 30 6.8089 30 7.00007V13.0001C30 13.2653 29.8946 13.5196 29.7071 13.7072C29.5195 13.8947 29.2652 14.0001 29 14.0001C28.7347 14.0001 28.4804 13.8947 28.2928 13.7072C28.1053 13.5196 28 13.2653 28 13.0001V9.17007L22.65 13.7601C22.465 13.9316 22.2222 14.0269 21.97 14.0269C21.7178 14.0269 21.4749 13.9316 21.29 13.7601L18 10.4101L10.71 17.7101C10.5392 17.8806 10.3126 17.9837 10.0718 18.0002C9.83104 18.0167 9.59242 17.9457 9.39996 17.8001L6.08996 15.3201L1.70996 19.7101C1.61652 19.8027 1.5057 19.8761 1.38386 19.9258C1.26203 19.9756 1.13156 20.0008 0.999956 20.0001V20.0001Z" fill="#100FA8"/>
<path d="M31 30H30V13C30.0012 12.8014 29.9431 12.6069 29.8333 12.4414C29.7235 12.2759 29.5669 12.1468 29.3835 12.0706C29.2 11.9945 28.9981 11.9747 28.8033 12.0137C28.6086 12.0528 28.4299 12.149 28.29 12.29L22 18.59L18.71 15.29C18.617 15.1963 18.5064 15.1219 18.3846 15.0711C18.2627 15.0203 18.132 14.9942 18 14.9942C17.868 14.9942 17.7373 15.0203 17.6154 15.0711C17.4936 15.1219 17.383 15.1963 17.29 15.29L10 22.59L6.71 19.29C6.61704 19.1963 6.50644 19.1219 6.38458 19.0711C6.26272 19.0203 6.13201 18.9942 6 18.9942C5.86799 18.9942 5.73728 19.0203 5.61542 19.0711C5.49356 19.1219 5.38296 19.1963 5.29 19.29L2 22.59V11C2 10.7348 1.89464 10.4804 1.70711 10.2929C1.51957 10.1054 1.26522 10 1 10C0.734784 10 0.48043 10.1054 0.292893 10.2929C0.105357 10.4804 0 10.7348 0 11L0 29C0 29.7956 0.31607 30.5587 0.87868 31.1213C1.44129 31.6839 2.20435 32 3 32H31C31.2652 32 31.5196 31.8946 31.7071 31.7071C31.8946 31.5196 32 31.2652 32 31C32 30.7348 31.8946 30.4804 31.7071 30.2929C31.5196 30.1054 31.2652 30 31 30ZM2 29V25.41L6 21.41L9.29 24.71C9.38296 24.8037 9.49356 24.8781 9.61542 24.9289C9.73728 24.9797 9.86799 25.0058 10 25.0058C10.132 25.0058 10.2627 24.9797 10.3846 24.9289C10.5064 24.8781 10.617 24.8037 10.71 24.71L18 17.41L21.29 20.71C21.383 20.8037 21.4936 20.8781 21.6154 20.9289C21.7373 20.9797 21.868 21.0058 22 21.0058C22.132 21.0058 22.2627 20.9797 22.3846 20.9289C22.5064 20.8781 22.617 20.8037 22.71 20.71L28 15.41V30H3C2.73478 30 2.48043 29.8946 2.29289 29.7071C2.10536 29.5196 2 29.2652 2 29V29Z" fill="#000033"/>
<path d="M1 13C1.26522 13 1.51957 12.8946 1.70711 12.7071C1.89464 12.5196 2 12.2652 2 12V1C2 0.734784 1.89464 0.48043 1.70711 0.292893C1.51957 0.105357 1.26522 0 1 0C0.734784 0 0.48043 0.105357 0.292893 0.292893C0.105357 0.48043 0 0.734784 0 1V12C0 12.2652 0.105357 12.5196 0.292893 12.7071C0.48043 12.8946 0.734784 13 1 13Z" fill="#000033"/>
</g>
<defs>
<clipPath id="clip0_2781_3251">
<rect width="32" height="32" fill="white"/>
</clipPath>
</defs>
</svg>
