<svg width="32" height="32" viewBox="0 0 32 32" fill="none" xmlns="http://www.w3.org/2000/svg">
<g clip-path="url(#clip0_2781_3188)">
<path d="M31 11H25.57L19.86 1.48996C19.7144 1.28975 19.4997 1.15067 19.2575 1.09962C19.0152 1.04857 18.7627 1.08919 18.5486 1.21362C18.3346 1.33805 18.1744 1.53744 18.0989 1.77321C18.0234 2.00898 18.038 2.26437 18.14 2.48996L23.23 11H8.77L13.86 2.50996C13.962 2.28437 13.9766 2.02898 13.9011 1.79321C13.8256 1.55744 13.6654 1.35805 13.4514 1.23362C13.2373 1.10919 12.9848 1.06857 12.7425 1.11962C12.5003 1.17067 12.2856 1.30975 12.14 1.50996L6.43 11H1C0.734784 11 0.48043 11.1053 0.292893 11.2929C0.105357 11.4804 0 11.7347 0 12L0 16C0 16.2652 0.105357 16.5195 0.292893 16.7071C0.48043 16.8946 0.734784 17 1 17C1.19 17 0.95 15.73 2.76 28.42C2.86188 29.1408 3.2224 29.8 3.77436 30.2747C4.32631 30.7493 5.03204 31.0071 5.76 31H11C11.2652 31 11.5196 30.8946 11.7071 30.7071C11.8946 30.5195 12 30.2652 12 30C12 29.7347 11.8946 29.4804 11.7071 29.2929C11.5196 29.1053 11.2652 29 11 29H5.73C5.48735 29.0024 5.2521 28.9164 5.06812 28.7582C4.88413 28.6 4.76396 28.3802 4.73 28.14L3.15 17H28.85L27.25 28.14C27.216 28.3802 27.0959 28.6 26.9119 28.7582C26.7279 28.9164 26.4927 29.0024 26.25 29H15C14.7348 29 14.4804 29.1053 14.2929 29.2929C14.1054 29.4804 14 29.7347 14 30C14 30.2652 14.1054 30.5195 14.2929 30.7071C14.4804 30.8946 14.7348 31 15 31H26.27C26.998 31.0071 27.7037 30.7493 28.2556 30.2747C28.8076 29.8 29.1681 29.1408 29.27 28.42L30.87 17C31.0118 17.0186 31.1559 17.0065 31.2927 16.9647C31.4295 16.9228 31.5556 16.8521 31.6628 16.7573C31.7699 16.6625 31.8554 16.5459 31.9136 16.4152C31.9717 16.2846 32.0012 16.143 32 16V12C32 11.7347 31.8946 11.4804 31.7071 11.2929C31.5196 11.1053 31.2652 11 31 11ZM2 15V13H30V15H2Z" fill="#000033"/>
<path d="M16 27C15.7348 27 15.4804 26.8946 15.2929 26.7071C15.1054 26.5196 15 26.2652 15 26V20C15 19.7348 15.1054 19.4804 15.2929 19.2929C15.4804 19.1054 15.7348 19 16 19C16.2652 19 16.5196 19.1054 16.7071 19.2929C16.8946 19.4804 17 19.7348 17 20V26C17 26.2652 16.8946 26.5196 16.7071 26.7071C16.5196 26.8946 16.2652 27 16 27Z" fill="#100FA8"/>
<path d="M9.99905 26.999C9.75936 27.0021 9.52653 26.919 9.34299 26.7648C9.15944 26.6107 9.03738 26.3957 8.99905 26.159L7.99905 20.159C7.97804 20.0277 7.9831 19.8936 8.01394 19.7642C8.04478 19.6348 8.1008 19.5128 8.1788 19.4051C8.2568 19.2974 8.35526 19.2061 8.46854 19.1364C8.58183 19.0667 8.70773 19.0201 8.83905 18.999C8.97037 18.978 9.10454 18.9831 9.23391 19.0139C9.36328 19.0448 9.4853 19.1008 9.59302 19.1788C9.70073 19.2568 9.79203 19.3553 9.8617 19.4685C9.93136 19.5818 9.97804 19.7077 9.99905 19.839L10.999 25.839C11.0224 25.9831 11.014 26.1306 10.9743 26.271C10.9346 26.4115 10.8647 26.5415 10.7694 26.6521C10.6741 26.7626 10.5557 26.851 10.4226 26.9109C10.2896 26.9708 10.145 27.0009 9.99905 26.999Z" fill="#100FA8"/>
<path d="M21.9992 26.9991C21.8533 27.0009 21.7087 26.9708 21.5756 26.9109C21.4426 26.851 21.3242 26.7626 21.2289 26.6521C21.1336 26.5415 21.0637 26.4115 21.024 26.271C20.9843 26.1306 20.9759 25.9831 20.9992 25.8391L21.9992 19.8391C22.0417 19.5738 22.1877 19.3363 22.4053 19.1788C22.6228 19.0213 22.894 18.9566 23.1592 18.9991C23.4244 19.0415 23.6619 19.1875 23.8195 19.4051C23.977 19.6226 24.0417 19.8938 23.9992 20.1591L22.9992 26.1591C22.9609 26.3957 22.8388 26.6107 22.6553 26.7648C22.4717 26.919 22.2389 27.0021 21.9992 26.9991V26.9991Z" fill="#100FA8"/>
</g>
<defs>
<clipPath id="clip0_2781_3188">
<rect width="32" height="32" fill="white"/>
</clipPath>
</defs>
</svg>
