<svg width="32" height="32" viewBox="0 0 32 32" fill="none" xmlns="http://www.w3.org/2000/svg">
<g clip-path="url(#clip0_2781_3334)">
<path d="M31 26H3V9C3 8.73478 3.10536 8.48043 3.29289 8.29289C3.48043 8.10536 3.73478 8 4 8H10C10.2652 8 10.5196 7.89464 10.7071 7.70711C10.8946 7.51957 11 7.26522 11 7C11 6.73478 10.8946 6.48043 10.7071 6.29289C10.5196 6.10536 10.2652 6 10 6H4C3.20435 6 2.44129 6.31607 1.87868 6.87868C1.31607 7.44129 1 8.20435 1 9V26C0.734784 26 0.48043 26.1054 0.292893 26.2929C0.105357 26.4804 0 26.7348 0 27L0 29C0 29.7956 0.31607 30.5587 0.87868 31.1213C1.44129 31.6839 2.20435 32 3 32H29C29.7956 32 30.5587 31.6839 31.1213 31.1213C31.6839 30.5587 32 29.7956 32 29V27C32 26.7348 31.8946 26.4804 31.7071 26.2929C31.5196 26.1054 31.2652 26 31 26ZM30 29C30 29.2652 29.8946 29.5196 29.7071 29.7071C29.5196 29.8946 29.2652 30 29 30H3C2.73478 30 2.48043 29.8946 2.29289 29.7071C2.10536 29.5196 2 29.2652 2 29V28H30V29Z" fill="#000033"/>
<path d="M22 8H28C28.2652 8 28.5196 8.10536 28.7071 8.29289C28.8946 8.48043 29 8.73478 29 9V25.9881C29 26.2533 29.1054 26.5076 29.2929 26.6952C29.4804 26.8827 29.7348 26.9881 30 26.9881C30.2652 26.9881 30.5196 26.8827 30.7071 26.6952C30.8946 26.5076 31 26.2533 31 25.9881V9C31 8.20435 30.6839 7.44129 30.1213 6.87868C29.5587 6.31607 28.7956 6 28 6H22C21.7348 6 21.4804 6.10536 21.2929 6.29289C21.1054 6.48043 21 6.73478 21 7C21 7.26522 21.1054 7.51957 21.2929 7.70711C21.4804 7.89464 21.7348 8 22 8Z" fill="#000033"/>
<path d="M26.7108 16.2908L21.6008 11.1808C22.6595 9.76308 23.1421 7.99707 22.9514 6.23798C22.7608 4.4789 21.9111 2.85727 20.5732 1.69934C19.2353 0.541398 17.5086 -0.0669335 15.7404 -0.00327681C13.9721 0.0603799 12.2936 0.791302 11.0424 2.04244C9.7913 3.29359 9.06038 4.97212 8.99672 6.74035C8.93307 8.50859 9.5414 10.2353 10.6993 11.5732C11.8573 12.9111 13.4789 13.7608 15.238 13.9514C16.9971 14.1421 18.7631 13.6595 20.1808 12.6008L25.2908 17.7108C25.3842 17.8034 25.495 17.8768 25.6168 17.9265C25.7387 17.9763 25.8691 18.0015 26.0008 18.0008C26.1994 18.0019 26.3938 17.9439 26.5594 17.8341C26.7249 17.7243 26.854 17.5677 26.9301 17.3842C27.0063 17.2008 27.0261 16.9988 26.987 16.8041C26.948 16.6093 26.8518 16.4306 26.7108 16.2908ZM11.0008 7.00075C11.0006 6.17872 11.2031 5.36932 11.5903 4.64422C11.9776 3.91912 12.5376 3.30069 13.2209 2.84366C13.9042 2.38664 14.6896 2.10513 15.5076 2.02407C16.3257 1.943 17.1511 2.06486 17.9108 2.37888C18.6704 2.6929 19.341 3.18938 19.863 3.82436C20.3851 4.45935 20.7425 5.21325 20.9037 6.01933C21.0649 6.82541 21.0248 7.65879 20.7871 8.44569C20.5494 9.2326 20.1213 9.94875 19.5408 10.5308C18.8421 11.2312 17.9513 11.7087 16.9811 11.9026C16.011 12.0966 15.0051 11.9984 14.0907 11.6205C13.1764 11.2426 12.3948 10.6019 11.8447 9.77952C11.2947 8.95716 11.001 7.99011 11.0008 7.00075V7.00075Z" fill="#100FA8"/>
<path d="M14 24C13.7348 24 13.4804 23.8946 13.2929 23.7071C13.1054 23.5196 13 23.2652 13 23V20C13 19.7348 13.1054 19.4804 13.2929 19.2929C13.4804 19.1054 13.7348 19 14 19C14.2652 19 14.5196 19.1054 14.7071 19.2929C14.8946 19.4804 15 19.7348 15 20V23C15 23.2652 14.8946 23.5196 14.7071 23.7071C14.5196 23.8946 14.2652 24 14 24Z" fill="#100FA8"/>
<path d="M18 24C17.7348 24 17.4804 23.8946 17.2929 23.7071C17.1054 23.5196 17 23.2652 17 23V17C17 16.7348 17.1054 16.4804 17.2929 16.2929C17.4804 16.1054 17.7348 16 18 16C18.2652 16 18.5196 16.1054 18.7071 16.2929C18.8946 16.4804 19 16.7348 19 17V23C19 23.2652 18.8946 23.5196 18.7071 23.7071C18.5196 23.8946 18.2652 24 18 24Z" fill="#100FA8"/>
<path d="M10 24C9.73478 24 9.48043 23.8946 9.29289 23.7071C9.10536 23.5196 9 23.2652 9 23V19C9 18.7348 9.10536 18.4804 9.29289 18.2929C9.48043 18.1054 9.73478 18 10 18C10.2652 18 10.5196 18.1054 10.7071 18.2929C10.8946 18.4804 11 18.7348 11 19V23C11 23.2652 10.8946 23.5196 10.7071 23.7071C10.5196 23.8946 10.2652 24 10 24Z" fill="#100FA8"/>
<path d="M6 24C5.73478 24 5.48043 23.8946 5.29289 23.7071C5.10536 23.5196 5 23.2652 5 23V22C5 21.7348 5.10536 21.4804 5.29289 21.2929C5.48043 21.1054 5.73478 21 6 21C6.26522 21 6.51957 21.1054 6.70711 21.2929C6.89464 21.4804 7 21.7348 7 22V23C7 23.2652 6.89464 23.5196 6.70711 23.7071C6.51957 23.8946 6.26522 24 6 24Z" fill="#100FA8"/>
</g>
<defs>
<clipPath id="clip0_2781_3334">
<rect width="32" height="32" fill="white"/>
</clipPath>
</defs>
</svg>
