<svg width="40" height="40" viewBox="0 0 40 40" fill="none" xmlns="http://www.w3.org/2000/svg">
<g clip-path="url(#clip0_2602_3642)">
<path d="M36.75 28.8375C37.2193 28.0802 37.4778 27.2113 37.4986 26.3206C37.5195 25.4299 37.302 24.5499 36.8686 23.7715C36.4352 22.993 35.8018 22.3446 35.0337 21.8931C34.2657 21.4416 33.3909 21.2036 32.5 21.2036C31.6091 21.2036 30.7343 21.4416 29.9663 21.8931C29.1982 22.3446 28.5648 22.993 28.1314 23.7715C27.698 24.5499 27.4805 25.4299 27.5014 26.3206C27.5222 27.2113 27.7807 28.0802 28.25 28.8375C26.9843 29.7067 26.0191 30.947 25.4875 32.3875C25.1143 31.9887 24.6947 31.6362 24.2375 31.3375C24.7068 30.5802 24.9653 29.7113 24.9861 28.8206C25.007 27.9299 24.7895 27.0499 24.3561 26.2715C23.9227 25.493 23.2893 24.8446 22.5212 24.3931C21.7532 23.9416 20.8784 23.7036 19.9875 23.7036C19.0966 23.7036 18.2218 23.9416 17.4538 24.3931C16.6857 24.8446 16.0522 25.493 15.6189 26.2715C15.1855 27.0499 14.968 27.9299 14.9889 28.8206C15.0097 29.7113 15.2682 30.5802 15.7375 31.3375C15.2848 31.6375 14.8658 31.9854 14.4875 32.375C13.9699 30.9372 13.0119 29.6993 11.75 28.8375C12.2193 28.0802 12.4778 27.2113 12.4986 26.3206C12.5195 25.4299 12.302 24.5499 11.8686 23.7715C11.4353 22.993 10.8018 22.3446 10.0337 21.8931C9.26565 21.4416 8.39092 21.2036 7.5 21.2036C6.60908 21.2036 5.73435 21.4416 4.96629 21.8931C4.19823 22.3446 3.56475 22.993 3.13139 23.7715C2.69802 24.5499 2.48052 25.4299 2.50137 26.3206C2.52222 27.2113 2.78068 28.0802 3.25 28.8375C2.25015 29.5251 1.43209 30.4451 0.866015 31.5185C0.299943 32.5918 0.00276949 33.7865 0 35L0 36.25C0 36.5815 0.131696 36.8995 0.366117 37.1339C0.600537 37.3683 0.918479 37.5 1.25 37.5H3.75C4.08152 37.5 4.39946 37.3683 4.63388 37.1339C4.8683 36.8995 5 36.5815 5 36.25C5 35.9185 4.8683 35.6005 4.63388 35.3661C4.39946 35.1317 4.08152 35 3.75 35H2.5C2.50102 34.1014 2.74418 33.2197 3.20392 32.4476C3.66365 31.6755 4.32296 31.0416 5.1125 30.6125C5.83852 31.0245 6.65899 31.241 7.49375 31.241C8.32851 31.241 9.14898 31.0245 9.875 30.6125C10.674 31.0313 11.3419 31.6626 11.8051 32.4367C12.2683 33.2109 12.5087 34.0979 12.5 35H8.75C8.41848 35 8.10054 35.1317 7.86612 35.3661C7.6317 35.6005 7.5 35.9185 7.5 36.25C7.5 36.5815 7.6317 36.8995 7.86612 37.1339C8.10054 37.3683 8.41848 37.5 8.75 37.5H12.5V38.75C12.5 39.0815 12.6317 39.3995 12.8661 39.6339C13.1005 39.8683 13.4185 40 13.75 40H26.25C26.5815 40 26.8995 39.8683 27.1339 39.6339C27.3683 39.3995 27.5 39.0815 27.5 38.75V37.5H38.75C39.0815 37.5 39.3995 37.3683 39.6339 37.1339C39.8683 36.8995 40 36.5815 40 36.25V35C40.0048 33.7851 39.7108 32.5877 39.1441 31.5131C38.5774 30.4385 37.7552 29.5197 36.75 28.8375ZM5 26.25C5 25.7555 5.14662 25.2722 5.42133 24.8611C5.69603 24.4499 6.08648 24.1295 6.54329 23.9403C7.00011 23.7511 7.50277 23.7016 7.98773 23.798C8.47268 23.8945 8.91814 24.1326 9.26777 24.4822C9.6174 24.8319 9.8555 25.2773 9.95196 25.7623C10.0484 26.2472 9.99892 26.7499 9.8097 27.2067C9.62048 27.6635 9.30005 28.054 8.88893 28.3287C8.4778 28.6034 7.99445 28.75 7.5 28.75C6.83696 28.75 6.20107 28.4866 5.73223 28.0178C5.26339 27.5489 5 26.913 5 26.25ZM20 26.25C20.4945 26.25 20.9778 26.3966 21.3889 26.6713C21.8 26.946 22.1205 27.3365 22.3097 27.7933C22.4989 28.2501 22.5484 28.7528 22.452 29.2377C22.3555 29.7227 22.1174 30.1681 21.7678 30.5178C21.4181 30.8674 20.9727 31.1055 20.4877 31.202C20.0028 31.2984 19.5001 31.2489 19.0433 31.0597C18.5865 30.8705 18.196 30.55 17.9213 30.1389C17.6466 29.7278 17.5 29.2444 17.5 28.75C17.5 28.087 17.7634 27.4511 18.2322 26.9822C18.7011 26.5134 19.337 26.25 20 26.25ZM15 37.5C15.001 36.6014 15.2442 35.7197 15.7039 34.9476C16.1637 34.1755 16.823 33.5416 17.6125 33.1125C18.3385 33.5245 19.159 33.741 19.9937 33.741C20.8285 33.741 21.649 33.5245 22.375 33.1125C23.174 33.5313 23.8419 34.1626 24.3051 34.9367C24.7683 35.7109 25.0087 36.5979 25 37.5H15ZM32.5 23.75C32.9945 23.75 33.4778 23.8966 33.8889 24.1713C34.3 24.446 34.6205 24.8365 34.8097 25.2933C34.9989 25.7501 35.0484 26.2528 34.952 26.7377C34.8555 27.2227 34.6174 27.6681 34.2678 28.0178C33.9181 28.3674 33.4727 28.6055 32.9877 28.702C32.5028 28.7984 32.0001 28.7489 31.5433 28.5597C31.0865 28.3705 30.696 28.05 30.4213 27.6389C30.1466 27.2278 30 26.7444 30 26.25C30 25.587 30.2634 24.9511 30.7322 24.4822C31.2011 24.0134 31.837 23.75 32.5 23.75ZM27.5 35C27.501 34.1014 27.7442 33.2197 28.2039 32.4476C28.6637 31.6755 29.323 31.0416 30.1125 30.6125C30.8385 31.0245 31.659 31.241 32.4938 31.241C33.3285 31.241 34.149 31.0245 34.875 30.6125C35.674 31.0313 36.3419 31.6626 36.8051 32.4367C37.2683 33.2109 37.5087 34.0979 37.5 35H27.5Z" fill="#000033"/>
<path d="M24.7251 1.67498C23.9429 1.04442 23.0419 0.577476 22.0757 0.301859C21.1095 0.0262414 20.0977 -0.0524253 19.1005 0.0705292C18.1033 0.193484 17.141 0.515553 16.2707 1.01761C15.4003 1.51968 14.6398 2.19149 14.0341 2.99318C13.4284 3.79486 12.99 4.71007 12.7449 5.68447C12.4998 6.65886 12.453 7.67257 12.6072 8.66542C12.7614 9.65826 13.1136 10.61 13.6427 11.4641C14.1719 12.3182 14.8673 13.0573 15.6876 13.6375C15.8772 13.7833 16.0278 13.9737 16.1259 14.1918C16.224 14.4099 16.2667 14.6489 16.2501 14.8875V17.5C16.2501 18.4945 16.6452 19.4484 17.3485 20.1516C18.0517 20.8549 19.0055 21.25 20.0001 21.25C20.9947 21.25 21.9485 20.8549 22.6518 20.1516C23.355 19.4484 23.7501 18.4945 23.7501 17.5V14.8C23.7696 14.5492 23.8462 14.3062 23.974 14.0895C24.1019 13.8729 24.2775 13.6883 24.4876 13.55C25.4098 12.8676 26.1633 11.9828 26.6899 10.9635C27.2165 9.94431 27.5022 8.81786 27.5252 7.67086C27.5481 6.52385 27.3076 5.38687 26.8222 4.3474C26.3367 3.30793 25.6193 2.39368 24.7251 1.67498ZM21.2501 17.5C21.2501 17.8315 21.1184 18.1494 20.884 18.3839C20.6496 18.6183 20.3316 18.75 20.0001 18.75C19.6686 18.75 19.3506 18.6183 19.1162 18.3839C18.8818 18.1494 18.7501 17.8315 18.7501 17.5V16.25H21.2501V17.5ZM22.9876 11.5C22.2281 12.0576 21.6708 12.8475 21.4001 13.75H18.6126C18.3935 12.8735 17.8653 12.1056 17.1251 11.5875C16.26 10.9808 15.6093 10.1156 15.2664 9.11609C14.9236 8.11658 14.9062 7.03416 15.2168 6.02416C15.5273 5.01416 16.1499 4.12852 16.9951 3.49435C17.8403 2.86019 18.8647 2.51009 19.9213 2.49432C20.9778 2.47855 22.0122 2.79792 22.876 3.40658C23.7398 4.01524 24.3885 4.88191 24.7291 5.88218C25.0697 6.88246 25.0846 7.96493 24.7717 8.97422C24.4588 9.98351 23.8343 10.8677 22.9876 11.5Z" fill="#05058C"/>
<path d="M8.75 8.75H6.25C5.91848 8.75 5.60054 8.6183 5.36612 8.38388C5.1317 8.14946 5 7.83152 5 7.5C5 7.16848 5.1317 6.85054 5.36612 6.61612C5.60054 6.3817 5.91848 6.25 6.25 6.25H8.75C9.08152 6.25 9.39946 6.3817 9.63388 6.61612C9.8683 6.85054 10 7.16848 10 7.5C10 7.83152 9.8683 8.14946 9.63388 8.38388C9.39946 8.6183 9.08152 8.75 8.75 8.75Z" fill="#000033"/>
<path d="M9.99999 3.74999C9.33749 3.74999 9.16249 3.42499 7.86249 2.13749C7.62711 1.90211 7.49487 1.58286 7.49487 1.24999C7.49487 0.917111 7.62711 0.597867 7.86249 0.362488C8.09787 0.127108 8.41711 -0.00512695 8.74999 -0.00512695C9.08286 -0.00512695 9.40211 0.127108 9.63749 0.362488L10.8875 1.61249C11.0638 1.78733 11.184 2.0107 11.2328 2.25414C11.2817 2.49757 11.2569 2.75003 11.1617 2.97934C11.0665 3.20864 10.9052 3.4044 10.6983 3.54165C10.4914 3.6789 10.2483 3.75143 9.99999 3.74999Z" fill="#000033"/>
<path d="M8.74995 15C8.50166 15.0014 8.25858 14.9289 8.05168 14.7917C7.84478 14.6544 7.68344 14.4586 7.58823 14.2293C7.49302 14 7.46826 13.7476 7.5171 13.5041C7.56593 13.2607 7.68616 13.0373 7.86245 12.8625L9.11245 11.6125C9.34783 11.3771 9.66707 11.2449 9.99995 11.2449C10.3328 11.2449 10.6521 11.3771 10.8874 11.6125C11.1228 11.8479 11.2551 12.1671 11.2551 12.5C11.2551 12.8329 11.1228 13.1521 10.8874 13.3875C9.56245 14.7125 9.39995 15 8.74995 15Z" fill="#000033"/>
<path d="M33.75 8.75H31.25C30.9185 8.75 30.6005 8.6183 30.3661 8.38388C30.1317 8.14946 30 7.83152 30 7.5C30 7.16848 30.1317 6.85054 30.3661 6.61612C30.6005 6.3817 30.9185 6.25 31.25 6.25H33.75C34.0815 6.25 34.3995 6.3817 34.6339 6.61612C34.8683 6.85054 35 7.16848 35 7.5C35 7.83152 34.8683 8.14946 34.6339 8.38388C34.3995 8.6183 34.0815 8.75 33.75 8.75Z" fill="#000033"/>
<path d="M29.9999 3.74999C29.7517 3.75143 29.5086 3.6789 29.3017 3.54165C29.0948 3.4044 28.9334 3.20864 28.8382 2.97934C28.743 2.75003 28.7183 2.49757 28.7671 2.25414C28.8159 2.0107 28.9362 1.78733 29.1124 1.61249L30.3624 0.362488C30.5978 0.127108 30.9171 -0.00512695 31.2499 -0.00512695C31.5828 -0.00512695 31.9021 0.127108 32.1374 0.362488C32.3728 0.597867 32.5051 0.917111 32.5051 1.24999C32.5051 1.58286 32.3728 1.90211 32.1374 2.13749C30.8124 3.46249 30.6499 3.74999 29.9999 3.74999Z" fill="#000033"/>
<path d="M31.25 15C30.5875 15 30.4125 14.675 29.1125 13.3875C28.9959 13.2709 28.9035 13.1326 28.8404 12.9803C28.7773 12.828 28.7449 12.6648 28.7449 12.5C28.7449 12.1671 28.8771 11.8479 29.1125 11.6125C29.3479 11.3771 29.6671 11.2449 30 11.2449C30.1648 11.2449 30.328 11.2773 30.4803 11.3404C30.6326 11.4035 30.7709 11.4959 30.8875 11.6125L32.1375 12.8625C32.3138 13.0373 32.434 13.2607 32.4828 13.5041C32.5317 13.7476 32.5069 14 32.4117 14.2293C32.3165 14.4586 32.1552 14.6544 31.9483 14.7917C31.7414 14.9289 31.4983 15.0014 31.25 15Z" fill="#000033"/>
</g>
<defs>
<clipPath id="clip0_2602_3642">
<rect width="40" height="40" fill="white"/>
</clipPath>
</defs>
</svg>
