<svg width="40" height="40" viewBox="0 0 40 40" fill="none" xmlns="http://www.w3.org/2000/svg">
<g clip-path="url(#clip0_2602_3629)">
<path d="M8.33752 38.0375C8.02423 37.9281 7.76724 37.6988 7.62307 37.3999C7.4789 37.101 7.45937 36.7571 7.56877 36.4438C7.67817 36.1305 7.90754 35.8735 8.20643 35.7293C8.50532 35.5852 8.84923 35.5656 9.16252 35.675C11.4626 36.4718 13.9742 36.4022 16.2267 35.4794C18.4791 34.5566 20.3176 32.844 21.3975 30.6626C22.4775 28.4811 22.7247 25.9807 22.0928 23.63C21.461 21.2793 19.9934 19.2398 17.9653 17.8938C15.9372 16.5478 13.4878 15.9878 11.0763 16.3187C8.66472 16.6496 6.45668 17.8487 4.86607 19.6912C3.27546 21.5338 2.4115 23.8932 2.43616 26.3272C2.46082 28.7612 3.3724 31.1026 5.00002 32.9125C5.11 33.0348 5.19482 33.1776 5.24963 33.3327C5.30444 33.4877 5.32817 33.6521 5.31946 33.8163C5.31076 33.9806 5.26979 34.1415 5.19889 34.2899C5.128 34.4383 5.02856 34.5713 4.90627 34.6813C4.78398 34.7913 4.64122 34.8761 4.48614 34.9309C4.33107 34.9857 4.16672 35.0094 4.00248 35.0007C3.83823 34.992 3.67731 34.951 3.5289 34.8802C3.38049 34.8093 3.2475 34.7098 3.13752 34.5875C1.10712 32.3187 -0.0253755 29.3868 -0.0474021 26.3422C-0.0694287 23.2976 1.02053 20.3496 3.01789 18.0516C5.01524 15.7536 7.78265 14.2636 10.8007 13.8613C13.8187 13.459 16.8797 14.1721 19.4093 15.8666C21.9388 17.5612 23.7629 20.1207 24.5392 23.0648C25.3154 26.0089 24.9905 29.1351 23.6253 31.8565C22.2601 34.578 19.9485 36.7077 17.1245 37.8457C14.3005 38.9838 11.1582 39.052 8.28752 38.0375H8.33752Z" fill="#000033"/>
<path d="M20 26.25C17.5277 26.25 15.111 25.5169 13.0554 24.1434C10.9998 22.7699 9.39761 20.8176 8.45151 18.5336C7.50542 16.2495 7.25787 13.7361 7.74019 11.3114C8.2225 8.88661 9.41301 6.65933 11.1612 4.91117C12.9093 3.16301 15.1366 1.9725 17.5614 1.49019C19.9861 1.00787 22.4995 1.25542 24.7835 2.20151C27.0676 3.14761 29.0199 4.74976 30.3934 6.80538C31.7669 8.86099 32.5 11.2777 32.5 13.75C32.5 17.0652 31.183 20.2446 28.8388 22.5888C26.4946 24.933 23.3152 26.25 20 26.25ZM20 3.75001C18.0222 3.75001 16.0888 4.3365 14.4443 5.43531C12.7998 6.53412 11.5181 8.09591 10.7612 9.92317C10.0043 11.7504 9.8063 13.7611 10.1922 15.7009C10.578 17.6407 11.5304 19.4225 12.9289 20.8211C14.3275 22.2196 16.1093 23.172 18.0491 23.5579C19.9889 23.9437 21.9996 23.7457 23.8268 22.9888C25.6541 22.2319 27.2159 20.9502 28.3147 19.3057C29.4135 17.6612 30 15.7278 30 13.75C30 11.0978 28.9464 8.5543 27.0711 6.67894C25.1957 4.80357 22.6522 3.75001 20 3.75001Z" fill="#05058C"/>
<path d="M27.5 38.75C25.0277 38.75 22.611 38.0169 20.5554 36.6434C18.4998 35.2699 16.8976 33.3176 15.9515 31.0336C15.0054 28.7495 14.7579 26.2361 15.2402 23.8114C15.7225 21.3866 16.913 19.1593 18.6612 17.4112C20.4093 15.663 22.6366 14.4725 25.0614 13.9902C27.4861 13.5079 29.9995 13.7554 32.2836 14.7015C34.5676 15.6476 36.5199 17.2498 37.8934 19.3054C39.2669 21.361 40 23.7777 40 26.25C40 29.5652 38.683 32.7446 36.3388 35.0888C33.9946 37.433 30.8152 38.75 27.5 38.75ZM27.5 16.25C25.5222 16.25 23.5888 16.8365 21.9443 17.9353C20.2998 19.0341 19.0181 20.5959 18.2612 22.4232C17.5043 24.2504 17.3063 26.2611 17.6922 28.2009C18.078 30.1407 19.0304 31.9226 20.4289 33.3211C21.8275 34.7196 23.6093 35.672 25.5491 36.0579C27.4889 36.4437 29.4996 36.2457 31.3268 35.4888C33.1541 34.7319 34.7159 33.4502 35.8147 31.8057C36.9135 30.1612 37.5 28.2278 37.5 26.25C37.5 23.5978 36.4464 21.0543 34.5711 19.1789C32.6957 17.3036 30.1522 16.25 27.5 16.25Z" fill="#000033"/>
</g>
<defs>
<clipPath id="clip0_2602_3629">
<rect width="40" height="40" fill="white"/>
</clipPath>
</defs>
</svg>
