<svg width="40" height="40" viewBox="0 0 40 40" fill="none" xmlns="http://www.w3.org/2000/svg">
<g clip-path="url(#clip0_2631_3420)">
<path d="M38.6 31.825L31.7625 25C31.2941 24.5344 30.6605 24.273 30 24.273C29.3396 24.273 28.7059 24.5344 28.2375 25L27.5 25.7375L26.4375 24.675C28.4893 22.2473 29.7168 19.2305 29.9429 16.06C30.1691 12.8895 29.3823 9.72903 27.6959 7.03466C26.0096 4.34028 23.5109 2.25125 20.5604 1.06894C17.6098 -0.113365 14.36 -0.327824 11.2797 0.456503C8.19937 1.24083 5.44784 2.98339 3.42204 5.43281C1.39624 7.88222 0.200906 10.9118 0.00847819 14.0846C-0.18395 17.2574 0.636479 20.4092 2.3514 23.0855C4.06633 25.7618 6.58709 27.8241 9.55003 28.975C9.70535 29.0488 9.87423 29.0897 10.0461 29.0953C10.218 29.1009 10.3892 29.0709 10.5489 29.0073C10.7087 28.9437 10.8536 28.8478 10.9746 28.7256C11.0956 28.6034 11.1901 28.4576 11.2522 28.2972C11.3143 28.1368 11.3426 27.9654 11.3354 27.7936C11.3282 27.6218 11.2856 27.4533 11.2103 27.2987C11.135 27.1441 11.0286 27.0067 10.8978 26.895C10.767 26.7834 10.6146 26.7 10.45 26.65C7.54778 25.5213 5.17133 23.3499 3.78596 20.5611C2.40058 17.7722 2.10605 14.5667 2.96002 11.572C3.814 8.57742 5.75498 6.00938 8.40295 4.37071C11.0509 2.73203 14.2152 2.14073 17.2763 2.71258C20.3373 3.28442 23.0747 4.97823 24.9525 7.46237C26.8302 9.94652 27.7132 13.0421 27.4284 16.1431C27.1437 19.244 25.7117 22.127 23.4129 24.2276C21.1141 26.3283 18.114 27.4952 15 27.5C14.6685 27.5 14.3506 27.6317 14.1161 27.8661C13.8817 28.1005 13.75 28.4185 13.75 28.75C13.75 29.0815 13.8817 29.3995 14.1161 29.6339C14.3506 29.8683 14.6685 30 15 30C18.5468 30.0049 21.9784 28.7414 24.675 26.4375L25.7375 27.5C24.9375 28.3 24.2625 28.75 24.2625 30C24.2653 30.662 24.5305 31.2958 25 31.7625L31.825 38.6C32.7235 39.4984 33.942 40.0031 35.2125 40.0031C36.4831 40.0031 37.7016 39.4984 38.6 38.6C39.4985 37.7016 40.0032 36.483 40.0032 35.2125C40.0032 33.9419 39.4985 32.7234 38.6 31.825ZM35.2125 37.5C34.9121 37.5022 34.6143 37.4435 34.3372 37.3275C34.0601 37.2115 33.8093 37.0405 33.6 36.825L26.7625 30L30 26.7625L36.825 33.6C37.1429 33.9199 37.3592 34.3266 37.4466 34.769C37.5341 35.2114 37.4888 35.6698 37.3165 36.0865C37.1442 36.5033 36.8525 36.8598 36.4782 37.1113C36.1038 37.3628 35.6635 37.498 35.2125 37.5Z" fill="#000033"/>
<path d="M7.49995 20C7.25166 20.0014 7.00858 19.9289 6.80168 19.7917C6.59478 19.6544 6.43344 19.4586 6.33823 19.2293C6.24302 19 6.21826 18.7476 6.2671 18.5041C6.31593 18.2607 6.43616 18.0373 6.61245 17.8625L11.6124 12.8625C11.7287 12.7453 11.8669 12.6523 12.0192 12.5889C12.1715 12.5254 12.3349 12.4927 12.4999 12.4927C12.665 12.4927 12.8283 12.5254 12.9807 12.5889C13.133 12.6523 13.2712 12.7453 13.3874 12.8625L16.2499 15.7375L20.3624 11.6125C20.5978 11.3771 20.9171 11.2449 21.2499 11.2449C21.5828 11.2449 21.9021 11.3771 22.1374 11.6125C22.3728 11.8479 22.5051 12.1671 22.5051 12.5C22.5051 12.8329 22.3728 13.1521 22.1374 13.3875L17.1374 18.3875C17.0212 18.5046 16.883 18.5976 16.7307 18.6611C16.5783 18.7246 16.415 18.7572 16.2499 18.7572C16.0849 18.7572 15.9215 18.7246 15.7692 18.6611C15.6169 18.5976 15.4787 18.5046 15.3624 18.3875L12.4999 15.5125L8.38745 19.6375C8.27065 19.7533 8.13213 19.845 7.97983 19.9072C7.82753 19.9694 7.66445 20.0009 7.49995 20Z" fill="#05058C"/>
<path d="M22.5 16.25C22.1685 16.25 21.8505 16.1183 21.6161 15.8839C21.3817 15.6495 21.25 15.3315 21.25 15V12.5H18.75C18.4185 12.5 18.1005 12.3683 17.8661 12.1339C17.6317 11.8995 17.5 11.5815 17.5 11.25C17.5 10.9185 17.6317 10.6005 17.8661 10.3661C18.1005 10.1317 18.4185 10 18.75 10H22.5C22.8315 10 23.1495 10.1317 23.3839 10.3661C23.6183 10.6005 23.75 10.9185 23.75 11.25V15C23.75 15.3315 23.6183 15.6495 23.3839 15.8839C23.1495 16.1183 22.8315 16.25 22.5 16.25Z" fill="#05058C"/>
<path d="M0.0165272 16.06C-0.209644 12.8895 0.577204 9.72903 2.26356 7.03466C3.94992 4.34028 6.44859 2.25125 9.39912 1.06894C12.3497 -0.113365 15.5995 -0.327824 18.6798 0.456503C21.7601 1.24083 24.5116 2.98339 26.5374 5.43281C28.5632 7.88222 29.7586 10.9118 29.951 14.0846C30.1434 17.2574 29.323 20.4092 27.6081 23.0855C25.8931 25.7618 23.3724 27.8241 20.4094 28.975C20.2541 29.0488 20.0852 29.0897 19.9134 29.0953C19.7415 29.1009 19.5703 29.0709 19.4106 29.0073C19.2508 28.9437 19.1059 28.8478 18.9849 28.7256C18.8639 28.6034 18.7694 28.4576 18.7073 28.2972C18.6452 28.1368 18.6169 27.9654 18.6241 27.7936C18.6313 27.6218 18.6739 27.4533 18.7492 27.2987C18.8245 27.1441 18.9308 27.0067 19.0617 26.895C19.1925 26.7834 19.3449 26.7 19.5094 26.65C22.4117 25.5213 24.7881 23.3499 26.1735 20.5611C27.5589 17.7722 27.8534 14.5667 26.9995 11.572C26.1455 8.57742 24.2045 6.00938 21.5565 4.37071C18.9085 2.73203 15.7443 2.14073 12.6832 2.71258C9.62217 3.28442 6.88478 4.97823 5.00701 7.46237C3.12923 9.94652 2.24629 13.0421 2.53105 16.1431C2.81581 19.244 4.24776 22.127 6.54656 24.2276C8.84535 26.3283 11.8454 27.4952 14.9594 27.5C15.291 27.5 15.6089 27.6317 15.8433 27.8661C16.0777 28.1005 16.2094 28.4185 16.2094 28.75C16.2094 29.0815 16.0777 29.3995 15.8433 29.6339C15.6089 29.8683 15.291 30 14.9594 30C6.9667 29.853 1.40586 24.3412 0.0165272 16.06Z" fill="#000033"/>
</g>
<defs>
<clipPath id="clip0_2631_3420">
<rect width="40" height="40" fill="white"/>
</clipPath>
</defs>
</svg>
