<svg width="40" height="40" viewBox="0 0 40 40" fill="none" xmlns="http://www.w3.org/2000/svg">
<g clip-path="url(#clip0_2631_3439)">
<path d="M11.25 35H8.75C8.08696 35 7.45107 34.7366 6.98223 34.2678C6.51339 33.7989 6.25 33.163 6.25 32.5V25C6.25 24.337 6.51339 23.7011 6.98223 23.2322C7.45107 22.7634 8.08696 22.5 8.75 22.5H11.25C11.913 22.5 12.5489 22.7634 13.0178 23.2322C13.4866 23.7011 13.75 24.337 13.75 25V32.5C13.75 33.163 13.4866 33.7989 13.0178 34.2678C12.5489 34.7366 11.913 35 11.25 35ZM8.75 25V32.5H11.25V25H8.75Z" fill="#05058C"/>
<path d="M21.25 35H18.75C18.087 35 17.4511 34.7366 16.9822 34.2678C16.5134 33.7989 16.25 33.163 16.25 32.5V22.5C16.25 21.837 16.5134 21.2011 16.9822 20.7322C17.4511 20.2634 18.087 20 18.75 20H21.25C21.913 20 22.5489 20.2634 23.0178 20.7322C23.4866 21.2011 23.75 21.837 23.75 22.5V32.5C23.75 33.163 23.4866 33.7989 23.0178 34.2678C22.5489 34.7366 21.913 35 21.25 35ZM18.75 22.5V32.5H21.25V22.5H18.75Z" fill="#05058C"/>
<path d="M31.25 35H28.75C28.087 35 27.4511 34.7366 26.9822 34.2678C26.5134 33.7989 26.25 33.163 26.25 32.5V18.75C26.25 18.087 26.5134 17.4511 26.9822 16.9822C27.4511 16.5134 28.087 16.25 28.75 16.25H31.25C31.913 16.25 32.5489 16.5134 33.0178 16.9822C33.4866 17.4511 33.75 18.087 33.75 18.75V32.5C33.75 33.163 33.4866 33.7989 33.0178 34.2678C32.5489 34.7366 31.913 35 31.25 35ZM28.75 18.75V32.5H31.25V18.75H28.75Z" fill="#05058C"/>
<path d="M38.75 12.5C39.0815 12.5 39.3995 12.3683 39.6339 12.1339C39.8683 11.8995 40 11.5815 40 11.25V3.75C40 2.75544 39.6049 1.80161 38.9016 1.09835C38.1984 0.395088 37.2446 0 36.25 0L3.75 0C2.75544 0 1.80161 0.395088 1.09835 1.09835C0.395088 1.80161 0 2.75544 0 3.75L0 36.25C0 37.2446 0.395088 38.1984 1.09835 38.9016C1.80161 39.6049 2.75544 40 3.75 40H36.25C37.2446 40 38.1984 39.6049 38.9016 38.9016C39.6049 38.1984 40 37.2446 40 36.25V10C40 9.66848 39.8683 9.35054 39.6339 9.11612C39.3995 8.8817 39.0815 8.75 38.75 8.75C38.4185 8.75 38.1005 8.8817 37.8661 9.11612C37.6317 9.35054 37.5 9.66848 37.5 10V36.25C37.5 36.5815 37.3683 36.8995 37.1339 37.1339C36.8995 37.3683 36.5815 37.5 36.25 37.5H3.75C3.41848 37.5 3.10054 37.3683 2.86612 37.1339C2.6317 36.8995 2.5 36.5815 2.5 36.25V12.5H38.75ZM2.5 3.75C2.5 3.41848 2.6317 3.10054 2.86612 2.86612C3.10054 2.6317 3.41848 2.5 3.75 2.5H36.25C36.5815 2.5 36.8995 2.6317 37.1339 2.86612C37.3683 3.10054 37.5 3.41848 37.5 3.75V10H2.5V3.75Z" fill="#000033"/>
<path d="M6.25 5C6.00277 5 5.7611 5.07331 5.55554 5.21066C5.34998 5.34801 5.18976 5.54324 5.09515 5.77165C5.00054 6.00005 4.97579 6.25139 5.02402 6.49386C5.07225 6.73634 5.1913 6.95907 5.36612 7.13388C5.54093 7.3087 5.76366 7.42775 6.00614 7.47598C6.24861 7.52421 6.49995 7.49946 6.72836 7.40485C6.95676 7.31024 7.15199 7.15002 7.28934 6.94446C7.42669 6.7389 7.5 6.49723 7.5 6.25C7.5 5.91848 7.3683 5.60054 7.13388 5.36612C6.89946 5.1317 6.58152 5 6.25 5Z" fill="#000033"/>
<path d="M11.25 5C11.0028 5 10.7611 5.07331 10.5555 5.21066C10.35 5.34801 10.1898 5.54324 10.0952 5.77165C10.0005 6.00005 9.97579 6.25139 10.024 6.49386C10.0723 6.73634 10.1913 6.95907 10.3661 7.13388C10.5409 7.3087 10.7637 7.42775 11.0061 7.47598C11.2486 7.52421 11.4999 7.49946 11.7284 7.40485C11.9568 7.31024 12.152 7.15002 12.2893 6.94446C12.4267 6.7389 12.5 6.49723 12.5 6.25C12.5 5.91848 12.3683 5.60054 12.1339 5.36612C11.8995 5.1317 11.5815 5 11.25 5Z" fill="#000033"/>
<path d="M16.25 5C16.0028 5 15.7611 5.07331 15.5555 5.21066C15.35 5.34801 15.1898 5.54324 15.0952 5.77165C15.0005 6.00005 14.9758 6.25139 15.024 6.49386C15.0723 6.73634 15.1913 6.95907 15.3661 7.13388C15.5409 7.3087 15.7637 7.42775 16.0061 7.47598C16.2486 7.52421 16.4999 7.49946 16.7284 7.40485C16.9568 7.31024 17.152 7.15002 17.2893 6.94446C17.4267 6.7389 17.5 6.49723 17.5 6.25C17.5 5.91848 17.3683 5.60054 17.1339 5.36612C16.8995 5.1317 16.5815 5 16.25 5Z" fill="#000033"/>
</g>
<defs>
<clipPath id="clip0_2631_3439">
<rect width="40" height="40" fill="white"/>
</clipPath>
</defs>
</svg>
