<svg width="40" height="40" viewBox="0 0 40 40" fill="none" xmlns="http://www.w3.org/2000/svg">
<g clip-path="url(#clip0_2602_3706)">
<path d="M9.99996 16.25H4.99996C4.66844 16.25 4.3505 16.1183 4.11607 15.8839C3.88165 15.6495 3.74996 15.3315 3.74996 15V10H1.24996C1.01223 10.0004 0.779317 9.93298 0.578546 9.80567C0.377774 9.67837 0.217469 9.49645 0.116434 9.28125C0.0153981 9.06606 -0.0221773 8.82652 0.00811481 8.59073C0.0384069 8.35493 0.13531 8.13267 0.287458 7.95L6.53746 0.450004C6.65475 0.308453 6.80182 0.194516 6.96819 0.116311C7.13456 0.0381058 7.31613 -0.00244141 7.49996 -0.00244141C7.68379 -0.00244141 7.86536 0.0381058 8.03173 0.116311C8.1981 0.194516 8.34517 0.308453 8.46246 0.450004L14.7125 7.95C14.8646 8.13267 14.9615 8.35493 14.9918 8.59073C15.0221 8.82652 14.9845 9.06606 14.8835 9.28125C14.7824 9.49645 14.6221 9.67837 14.4214 9.80567C14.2206 9.93298 13.9877 10.0004 13.75 10H11.25V15C11.25 15.3315 11.1183 15.6495 10.8838 15.8839C10.6494 16.1183 10.3315 16.25 9.99996 16.25ZM6.24996 13.75H8.74996V8.75C8.74996 8.41848 8.88165 8.10054 9.11608 7.86612C9.3505 7.6317 9.66844 7.5 9.99996 7.5H11.075L7.49996 3.2L3.92496 7.5H4.99996C5.33148 7.5 5.64942 7.6317 5.88384 7.86612C6.11826 8.10054 6.24996 8.41848 6.24996 8.75V13.75Z" fill="#05058C"/>
<path d="M38.75 35C39.0815 35 39.3995 34.8683 39.6339 34.6339C39.8683 34.3995 40 34.0815 40 33.75V17.7125C39.9955 16.9575 39.7633 16.2214 39.3336 15.6006C38.9039 14.9797 38.2968 14.5031 37.5917 14.2329C36.8867 13.9628 36.1165 13.9118 35.382 14.0866C34.6475 14.2613 33.9828 14.6538 33.475 15.2125L27.0875 22.2375C26.9707 22.3604 26.8302 22.4583 26.6744 22.5252C26.5186 22.5921 26.3508 22.6266 26.1812 22.6266C26.0117 22.6266 25.8439 22.5921 25.6881 22.5252C25.5323 22.4583 25.3918 22.3604 25.275 22.2375L19.2375 16.25C18.8503 15.8625 18.383 15.5645 17.8683 15.377C17.3536 15.1895 16.8041 15.117 16.2584 15.1647C15.7127 15.2123 15.184 15.379 14.7096 15.6529C14.2353 15.9267 13.8266 16.3012 13.5125 16.75L7.8125 24.875C7.63047 25.1321 7.35809 25.311 7.04985 25.3759C6.74161 25.4408 6.42023 25.3869 6.15 25.225L5.675 25C5.10991 24.6619 4.46575 24.4785 3.80731 24.4684C3.14887 24.4583 2.49937 24.6217 1.92414 24.9423C1.34891 25.2628 0.868239 25.7292 0.530468 26.2945C0.192697 26.8598 0.00973983 27.5041 0 28.1625L0 36.25C0 37.2446 0.395088 38.1984 1.09835 38.9017C1.80161 39.6049 2.75544 40 3.75 40H38.75C39.0815 40 39.3995 39.8683 39.6339 39.6339C39.8683 39.3995 40 39.0815 40 38.75C40 38.4185 39.8683 38.1005 39.6339 37.8661C39.3995 37.6317 39.0815 37.5 38.75 37.5H27.5V30C27.5 29.6685 27.3683 29.3505 27.1339 29.1161C26.8995 28.8817 26.5815 28.75 26.25 28.75C25.9185 28.75 25.6005 28.8817 25.3661 29.1161C25.1317 29.3505 25 29.6685 25 30V37.5H17.5V23.75C17.5 23.4185 17.3683 23.1005 17.1339 22.8661C16.8995 22.6317 16.5815 22.5 16.25 22.5C15.9185 22.5 15.6005 22.6317 15.3661 22.8661C15.1317 23.1005 15 23.4185 15 23.75V37.5H8.75V32.5C8.75 32.1685 8.6183 31.8505 8.38388 31.6161C8.14946 31.3817 7.83152 31.25 7.5 31.25C7.16848 31.25 6.85054 31.3817 6.61612 31.6161C6.3817 31.8505 6.25 32.1685 6.25 32.5V37.5H3.75C3.41848 37.5 3.10054 37.3683 2.86612 37.1339C2.6317 36.8995 2.5 36.5815 2.5 36.25V28.1625C2.50004 27.9419 2.55847 27.7252 2.66937 27.5345C2.78026 27.3437 2.93966 27.1857 3.13138 27.0765C3.32309 26.9673 3.54029 26.9108 3.76092 26.9128C3.98154 26.9147 4.19772 26.975 4.3875 27.0875L4.8625 27.375C5.67579 27.8631 6.6438 28.0248 7.57158 27.8277C8.49935 27.6305 9.31795 27.0891 9.8625 26.3125L15.5625 18.1625C15.6661 18.0074 15.8032 17.8774 15.9636 17.7822C16.124 17.6869 16.3036 17.6288 16.4894 17.612C16.6752 17.5952 16.8624 17.6202 17.0373 17.6852C17.2121 17.7502 17.3703 17.8535 17.5 17.9875L23.5375 24.025C23.896 24.3839 24.3237 24.6663 24.7945 24.8551C25.2653 25.0439 25.7696 25.1353 26.2768 25.1236C26.7839 25.1119 27.2834 24.9974 27.7451 24.7871C28.2067 24.5768 28.6209 24.275 28.9625 23.9L35.35 16.875C35.5195 16.6885 35.7414 16.5576 35.9867 16.4995C36.2319 16.4413 36.489 16.4587 36.7242 16.5493C36.9594 16.6398 37.1617 16.7994 37.3046 17.0069C37.4475 17.2145 37.5243 17.4605 37.525 17.7125V33.75C37.5249 34.0772 37.6532 34.3915 37.8822 34.6252C38.1113 34.8589 38.4228 34.9935 38.75 35Z" fill="#000033"/>
</g>
<defs>
<clipPath id="clip0_2602_3706">
<rect width="40" height="40" fill="white"/>
</clipPath>
</defs>
</svg>
