<svg width="40" height="40" viewBox="0 0 40 40" fill="none" xmlns="http://www.w3.org/2000/svg">
<g clip-path="url(#clip0_2602_3635)">
<path d="M39.4375 21.4625L37.4 20.1C36.6788 19.6169 35.8124 19.3989 34.9485 19.4833C34.0845 19.5676 33.2766 19.9491 32.6625 20.5625L27.5 25.775C27.3838 24.8649 26.938 24.029 26.2469 23.4254C25.5558 22.8219 24.6675 22.4927 23.75 22.5C22.6782 22.6463 21.5887 22.4213 20.6625 21.8625C18.6889 20.5469 16.3454 19.8989 13.9763 20.0136C11.6071 20.1284 9.33723 20.9999 7.5 22.5V21.25C7.5 20.9185 7.3683 20.6006 7.13388 20.3662C6.89946 20.1317 6.58152 20 6.25 20H1.25C0.918479 20 0.600537 20.1317 0.366116 20.3662C0.131696 20.6006 0 20.9185 0 21.25L0 38.75C0 39.0816 0.131696 39.3995 0.366116 39.6339C0.600537 39.8683 0.918479 40 1.25 40H6.25C6.58152 40 6.89946 39.8683 7.13388 39.6339C7.3683 39.3995 7.5 39.0816 7.5 38.75V25.625L9.375 24.2125C10.8054 23.1692 12.5187 22.5844 14.2885 22.5353C16.0583 22.4862 17.8014 22.9751 19.2875 23.9375C20.6146 24.7802 22.1856 25.1542 23.75 25C24.0815 25 24.3995 25.1317 24.6339 25.3662C24.8683 25.6006 25 25.9185 25 26.25V27.5H16.25C15.9185 27.5 15.6005 27.6317 15.3661 27.8662C15.1317 28.1006 15 28.4185 15 28.75C15 29.0816 15.1317 29.3995 15.3661 29.6339C15.6005 29.8684 15.9185 30 16.25 30H26.25C26.581 29.9954 26.898 29.866 27.1375 29.6375L34.4375 22.3375C34.6409 22.1328 34.9089 22.0047 35.196 21.9751C35.4831 21.9455 35.7716 22.0161 36.0125 22.175L36.9625 22.8125L27.25 35.75C27.1336 35.9053 26.9826 36.0313 26.809 36.1181C26.6354 36.2049 26.4441 36.25 26.25 36.25H11.25C10.9185 36.25 10.6005 36.3817 10.3661 36.6162C10.1317 36.8506 10 37.1685 10 37.5C10 37.8316 10.1317 38.1495 10.3661 38.3839C10.6005 38.6183 10.9185 38.75 11.25 38.75H26.25C26.8322 38.75 27.4063 38.6145 27.927 38.3541C28.4478 38.0938 28.9007 37.7158 29.25 37.25L39.75 23.25C39.8513 23.1138 39.9238 22.9583 39.963 22.7931C40.0022 22.6278 40.0073 22.4564 39.9781 22.2891C39.9488 22.1218 39.8858 21.9623 39.7929 21.8202C39.6999 21.6781 39.579 21.5564 39.4375 21.4625ZM5 37.5H2.5V22.5H5V37.5Z" fill="#000033"/>
<path d="M11.75 7.58753C12.2193 6.83025 12.4778 5.96132 12.4986 5.07065C12.5195 4.17998 12.302 3.29991 11.8686 2.52149C11.4353 1.74308 10.8018 1.09459 10.0337 0.643125C9.26565 0.19166 8.39092 -0.0463867 7.5 -0.0463867C6.60908 -0.0463867 5.73435 0.19166 4.96629 0.643125C4.19823 1.09459 3.56475 1.74308 3.13139 2.52149C2.69802 3.29991 2.48052 4.17998 2.50137 5.07065C2.52222 5.96132 2.78068 6.83025 3.25 7.58753C2.25015 8.27516 1.43209 9.19514 0.866015 10.2685C0.299943 11.3419 0.00276949 12.5365 0 13.75L0 15C0 15.3315 0.131696 15.6495 0.366117 15.8839C0.600537 16.1183 0.918479 16.25 1.25 16.25H13.75C14.0815 16.25 14.3995 16.1183 14.6339 15.8839C14.8683 15.6495 15 15.3315 15 15V13.75C15.0048 12.5352 14.7108 11.3377 14.1441 10.2632C13.5774 9.18856 12.7552 8.26973 11.75 7.58753ZM7.5 2.50003C7.99445 2.50003 8.4778 2.64665 8.88893 2.92135C9.30005 3.19606 9.62048 3.5865 9.8097 4.04332C9.99892 4.50013 10.0484 5.0028 9.95196 5.48775C9.8555 5.9727 9.6174 6.41816 9.26777 6.76779C8.91814 7.11742 8.47268 7.35553 7.98773 7.45199C7.50277 7.54845 7.00011 7.49894 6.54329 7.30973C6.08648 7.12051 5.69603 6.80007 5.42133 6.38895C5.14662 5.97783 5 5.49448 5 5.00003C5 4.33699 5.26339 3.7011 5.73223 3.23226C6.20107 2.76342 6.83696 2.50003 7.5 2.50003ZM2.5 13.75C2.50102 12.8514 2.74418 11.9697 3.20392 11.1976C3.66365 10.4255 4.32296 9.79161 5.1125 9.36253C5.83852 9.7745 6.65899 9.99107 7.49375 9.99107C8.32851 9.99107 9.14898 9.7745 9.875 9.36253C10.674 9.78133 11.3419 10.4126 11.8051 11.1868C12.2683 11.9609 12.5087 12.8479 12.5 13.75H2.5Z" fill="#000033"/>
<path d="M36.75 7.58753C37.2193 6.83025 37.4778 5.96132 37.4986 5.07065C37.5195 4.17998 37.302 3.29991 36.8686 2.52149C36.4353 1.74308 35.8018 1.09459 35.0337 0.643125C34.2657 0.19166 33.3909 -0.0463867 32.5 -0.0463867C31.6091 -0.0463867 30.7343 0.19166 29.9663 0.643125C29.1982 1.09459 28.5648 1.74308 28.1314 2.52149C27.698 3.29991 27.4805 4.17998 27.5014 5.07065C27.5222 5.96132 27.7807 6.83025 28.25 7.58753C27.2502 8.27516 26.4321 9.19514 25.866 10.2685C25.2999 11.3419 25.0028 12.5365 25 13.75V15C25 15.3315 25.1317 15.6495 25.3661 15.8839C25.6005 16.1183 25.9185 16.25 26.25 16.25H38.75C39.0815 16.25 39.3995 16.1183 39.6339 15.8839C39.8683 15.6495 40 15.3315 40 15V13.75C40.0037 12.5354 39.7093 11.3383 39.1427 10.2639C38.576 9.18951 37.7545 8.27052 36.75 7.58753ZM32.5 2.50003C32.9945 2.50003 33.4778 2.64665 33.8889 2.92135C34.3001 3.19606 34.6205 3.5865 34.8097 4.04332C34.9989 4.50013 35.0484 5.0028 34.952 5.48775C34.8555 5.9727 34.6174 6.41816 34.2678 6.76779C33.9181 7.11742 33.4727 7.35553 32.9877 7.45199C32.5028 7.54845 32.0001 7.49894 31.5433 7.30973C31.0865 7.12051 30.696 6.80007 30.4213 6.38895C30.1466 5.97783 30 5.49448 30 5.00003C30 4.33699 30.2634 3.7011 30.7322 3.23226C31.2011 2.76342 31.837 2.50003 32.5 2.50003ZM27.5 13.75C27.501 12.8514 27.7442 11.9697 28.2039 11.1976C28.6637 10.4255 29.323 9.79161 30.1125 9.36253C30.8377 9.77689 31.6585 9.99483 32.4938 9.99483C33.329 9.99483 34.1498 9.77689 34.875 9.36253C35.674 9.78133 36.3419 10.4126 36.8051 11.1868C37.2683 11.9609 37.5087 12.8479 37.5 13.75H27.5Z" fill="#000033"/>
<path d="M24.25 10.0875C24.7193 9.33025 24.9778 8.46132 24.9986 7.57065C25.0195 6.67998 24.802 5.79991 24.3686 5.02149C23.9353 4.24308 23.3018 3.59459 22.5337 3.14313C21.7657 2.69166 20.8909 2.45361 20 2.45361C19.1091 2.45361 18.2343 2.69166 17.4663 3.14313C16.6982 3.59459 16.0648 4.24308 15.6314 5.02149C15.198 5.79991 14.9805 6.67998 15.0014 7.57065C15.0222 8.46132 15.2807 9.33025 15.75 10.0875C14.7502 10.7752 13.9321 11.6951 13.366 12.7685C12.7999 13.8419 12.5028 15.0365 12.5 16.25V17.5C12.5 17.8315 12.6317 18.1495 12.8661 18.3839C13.1005 18.6183 13.4185 18.75 13.75 18.75H26.25C26.5815 18.75 26.8995 18.6183 27.1339 18.3839C27.3683 18.1495 27.5 17.8315 27.5 17.5V16.25C27.5037 15.0354 27.2093 13.8383 26.6427 12.7639C26.076 11.6895 25.2545 10.7705 24.25 10.0875ZM20 5.00003C20.4945 5.00003 20.9778 5.14665 21.3889 5.42135C21.8001 5.69606 22.1205 6.0865 22.3097 6.54332C22.4989 7.00013 22.5484 7.5028 22.452 7.98775C22.3555 8.4727 22.1174 8.91816 21.7678 9.26779C21.4181 9.61742 20.9727 9.85553 20.4877 9.95199C20.0028 10.0485 19.5001 9.99894 19.0433 9.80973C18.5865 9.62051 18.196 9.30007 17.9213 8.88895C17.6466 8.47783 17.5 7.99448 17.5 7.50003C17.5 6.83699 17.7634 6.2011 18.2322 5.73226C18.7011 5.26342 19.337 5.00003 20 5.00003ZM15 16.25C15.001 15.3514 15.2442 14.4697 15.7039 13.6976C16.1637 12.9255 16.823 12.2916 17.6125 11.8625C18.3377 12.2769 19.1585 12.4948 19.9938 12.4948C20.829 12.4948 21.6498 12.2769 22.375 11.8625C23.174 12.2813 23.8419 12.9126 24.3051 13.6868C24.7683 14.4609 25.0087 15.3479 25 16.25H15Z" fill="#05058C"/>
</g>
<defs>
<clipPath id="clip0_2602_3635">
<rect width="40" height="40" fill="white"/>
</clipPath>
</defs>
</svg>
