<svg width="40" height="40" viewBox="0 0 40 40" fill="none" xmlns="http://www.w3.org/2000/svg">
<g clip-path="url(#clip0_2631_3432)">
<path d="M38.75 12.5C39.0815 12.5 39.3995 12.3683 39.6339 12.1339C39.8683 11.8995 40 11.5815 40 11.25V3.75C40 2.75544 39.6049 1.80161 38.9017 1.09835C38.1984 0.395088 37.2446 0 36.25 0L3.75 0C2.75544 0 1.80161 0.395088 1.09835 1.09835C0.395088 1.80161 0 2.75544 0 3.75L0 36.25C0 37.2446 0.395088 38.1984 1.09835 38.9017C1.80161 39.6049 2.75544 40 3.75 40H36.25C37.2446 40 38.1984 39.6049 38.9017 38.9017C39.6049 38.1984 40 37.2446 40 36.25V16.25C40 15.9185 39.8683 15.6005 39.6339 15.3661C39.3995 15.1317 39.0815 15 38.75 15C38.4185 15 38.1005 15.1317 37.8661 15.3661C37.6317 15.6005 37.5 15.9185 37.5 16.25V36.25C37.5 36.5815 37.3683 36.8995 37.1339 37.1339C36.8995 37.3683 36.5815 37.5 36.25 37.5H3.75C3.41848 37.5 3.10054 37.3683 2.86612 37.1339C2.6317 36.8995 2.5 36.5815 2.5 36.25V12.5H38.75ZM2.5 3.75C2.5 3.41848 2.6317 3.10054 2.86612 2.86612C3.10054 2.6317 3.41848 2.5 3.75 2.5H36.25C36.5815 2.5 36.8995 2.6317 37.1339 2.86612C37.3683 3.10054 37.5 3.41848 37.5 3.75V10H2.5V3.75Z" fill="#000033"/>
<path d="M6.25 7.5C6.00277 7.5 5.7611 7.42669 5.55554 7.28934C5.34998 7.15199 5.18976 6.95676 5.09515 6.72836C5.00054 6.49995 4.97579 6.24861 5.02402 6.00614C5.07225 5.76366 5.1913 5.54093 5.36612 5.36612C5.54093 5.1913 5.76366 5.07225 6.00614 5.02402C6.24861 4.97579 6.49995 5.00054 6.72836 5.09515C6.95676 5.18976 7.15199 5.34998 7.28934 5.55554C7.42669 5.7611 7.5 6.00277 7.5 6.25C7.5 6.58152 7.3683 6.89946 7.13388 7.13388C6.89946 7.3683 6.58152 7.5 6.25 7.5Z" fill="#05058C"/>
<path d="M11.25 7.5C11.0028 7.5 10.7611 7.42669 10.5555 7.28934C10.35 7.15199 10.1898 6.95676 10.0952 6.72836C10.0005 6.49995 9.97579 6.24861 10.024 6.00614C10.0723 5.76366 10.1913 5.54093 10.3661 5.36612C10.5409 5.1913 10.7637 5.07225 11.0061 5.02402C11.2486 4.97579 11.4999 5.00054 11.7284 5.09515C11.9568 5.18976 12.152 5.34998 12.2893 5.55554C12.4267 5.7611 12.5 6.00277 12.5 6.25C12.5 6.58152 12.3683 6.89946 12.1339 7.13388C11.8995 7.3683 11.5815 7.5 11.25 7.5Z" fill="#05058C"/>
<path d="M16.25 7.5C16.0028 7.5 15.7611 7.42669 15.5555 7.28934C15.35 7.15199 15.1898 6.95676 15.0952 6.72836C15.0005 6.49995 14.9758 6.24861 15.024 6.00614C15.0723 5.76366 15.1913 5.54093 15.3661 5.36612C15.5409 5.1913 15.7637 5.07225 16.0061 5.02402C16.2486 4.97579 16.4999 5.00054 16.7284 5.09515C16.9568 5.18976 17.152 5.34998 17.2893 5.55554C17.4267 5.7611 17.5 6.00277 17.5 6.25C17.5 6.58152 17.3683 6.89946 17.1339 7.13388C16.8995 7.3683 16.5815 7.5 16.25 7.5Z" fill="#05058C"/>
<path d="M8.74995 31.25C8.50166 31.2514 8.25858 31.1789 8.05168 31.0417C7.84478 30.9044 7.68344 30.7086 7.58823 30.4793C7.49302 30.25 7.46826 29.9976 7.5171 29.7541C7.56593 29.5107 7.68616 29.2873 7.86245 29.1125L17.8624 19.1125C17.979 18.9959 18.1174 18.9035 18.2696 18.8404C18.4219 18.7773 18.5851 18.7449 18.7499 18.7449C18.9148 18.7449 19.078 18.7773 19.2303 18.8404C19.3825 18.9035 19.5209 18.9959 19.6374 19.1125C19.754 19.229 19.8464 19.3674 19.9095 19.5197C19.9726 19.672 20.0051 19.8352 20.0051 20C20.0051 20.1648 19.9726 20.328 19.9095 20.4803C19.8464 20.6326 19.754 20.7709 19.6374 20.8875L9.63745 30.8875C9.52065 31.0033 9.38213 31.095 9.22983 31.1572C9.07753 31.2194 8.91445 31.2509 8.74995 31.25Z" fill="#05058C"/>
<path d="M8.75 23.75C8.00832 23.75 7.2833 23.5301 6.66661 23.118C6.04993 22.706 5.56928 22.1203 5.28545 21.4351C5.00162 20.7498 4.92736 19.9958 5.07206 19.2684C5.21675 18.541 5.5739 17.8728 6.09835 17.3484C6.6228 16.8239 7.29098 16.4668 8.01841 16.3221C8.74584 16.1774 9.49984 16.2516 10.1851 16.5355C10.8703 16.8193 11.456 17.2999 11.868 17.9166C12.2801 18.5333 12.5 19.2583 12.5 20C12.5 20.9946 12.1049 21.9484 11.4017 22.6517C10.6984 23.3549 9.74456 23.75 8.75 23.75ZM8.75 18.75C8.50277 18.75 8.2611 18.8233 8.05554 18.9607C7.84998 19.098 7.68976 19.2932 7.59515 19.5216C7.50054 19.7501 7.47579 20.0014 7.52402 20.2439C7.57225 20.4863 7.6913 20.7091 7.86612 20.8839C8.04093 21.0587 8.26366 21.1778 8.50614 21.226C8.74861 21.2742 8.99995 21.2495 9.22836 21.1549C9.45676 21.0602 9.65199 20.9 9.78934 20.6945C9.92669 20.4889 10 20.2472 10 20C10 19.6685 9.86831 19.3505 9.63388 19.1161C9.39946 18.8817 9.08152 18.75 8.75 18.75Z" fill="#05058C"/>
<path d="M18.75 33.75C18.0083 33.75 17.2833 33.5301 16.6666 33.118C16.0499 32.706 15.5693 32.1203 15.2855 31.4351C15.0016 30.7498 14.9274 29.9958 15.0721 29.2684C15.2168 28.541 15.5739 27.8728 16.0984 27.3484C16.6228 26.8239 17.291 26.4668 18.0184 26.3221C18.7458 26.1774 19.4998 26.2516 20.1851 26.5355C20.8703 26.8193 21.456 27.2999 21.868 27.9166C22.2801 28.5333 22.5 29.2583 22.5 30C22.5 30.9946 22.1049 31.9484 21.4017 32.6517C20.6984 33.3549 19.7446 33.75 18.75 33.75V33.75ZM18.75 28.75C18.5028 28.75 18.2611 28.8233 18.0555 28.9607C17.85 29.098 17.6898 29.2932 17.5952 29.5216C17.5005 29.7501 17.4758 30.0014 17.524 30.2439C17.5723 30.4863 17.6913 30.7091 17.8661 30.8839C18.0409 31.0587 18.2637 31.1778 18.5061 31.226C18.7486 31.2742 18.9999 31.2495 19.2284 31.1549C19.4568 31.0602 19.652 30.9 19.7893 30.6945C19.9267 30.4889 20 30.2472 20 30C20 29.6685 19.8683 29.3505 19.6339 29.1161C19.3995 28.8817 19.0815 28.75 18.75 28.75Z" fill="#05058C"/>
<path d="M33.75 21.25H26.25C25.9185 21.25 25.6005 21.1183 25.3661 20.8839C25.1317 20.6495 25 20.3315 25 20C25 19.6685 25.1317 19.3505 25.3661 19.1161C25.6005 18.8817 25.9185 18.75 26.25 18.75H33.75C34.0815 18.75 34.3995 18.8817 34.6339 19.1161C34.8683 19.3505 35 19.6685 35 20C35 20.3315 34.8683 20.6495 34.6339 20.8839C34.3995 21.1183 34.0815 21.25 33.75 21.25Z" fill="#05058C"/>
<path d="M33.75 26.25H26.25C25.9185 26.25 25.6005 26.1183 25.3661 25.8839C25.1317 25.6495 25 25.3315 25 25C25 24.6685 25.1317 24.3505 25.3661 24.1161C25.6005 23.8817 25.9185 23.75 26.25 23.75H33.75C34.0815 23.75 34.3995 23.8817 34.6339 24.1161C34.8683 24.3505 35 24.6685 35 25C35 25.3315 34.8683 25.6495 34.6339 25.8839C34.3995 26.1183 34.0815 26.25 33.75 26.25Z" fill="#05058C"/>
<path d="M33.75 31.25H28.75C28.4185 31.25 28.1005 31.1183 27.8661 30.8839C27.6317 30.6495 27.5 30.3315 27.5 30C27.5 29.6685 27.6317 29.3505 27.8661 29.1161C28.1005 28.8817 28.4185 28.75 28.75 28.75H33.75C34.0815 28.75 34.3995 28.8817 34.6339 29.1161C34.8683 29.3505 35 29.6685 35 30C35 30.3315 34.8683 30.6495 34.6339 30.8839C34.3995 31.1183 34.0815 31.25 33.75 31.25Z" fill="#05058C"/>
</g>
<defs>
<clipPath id="clip0_2631_3432">
<rect width="40" height="40" fill="white"/>
</clipPath>
</defs>
</svg>
