<svg width="40" height="40" viewBox="0 0 40 40" fill="none" xmlns="http://www.w3.org/2000/svg">
<g clip-path="url(#clip0_2602_3731)">
<path d="M34.1375 5.86249C32.1008 3.82972 29.6494 2.26039 26.9507 1.26163C24.2521 0.26288 21.3696 -0.141773 18.5003 0.075302C15.6309 0.292377 12.8422 1.12607 10.3245 2.51946C7.80681 3.91285 5.61944 5.83311 3.91173 8.14916C2.20402 10.4652 1.0162 13.1225 0.429356 15.9396C-0.157486 18.7566 -0.129526 21.6672 0.511328 24.4725C1.15218 27.2778 2.39084 29.9117 4.14272 32.1945C5.89461 34.4773 8.11847 36.3552 10.6625 37.7C10.9559 37.8541 11.2985 37.8853 11.6149 37.7868C11.9313 37.6884 12.1957 37.4683 12.35 37.175C12.505 36.8831 12.5381 36.5417 12.4421 36.2254C12.346 35.9092 12.1286 35.6439 11.8375 35.4875C10.4805 34.7612 9.22053 33.8667 8.08747 32.825L8.74997 29.9L11.7375 29.3C13.8327 31.1738 16.4982 32.2867 19.3038 32.4591C22.1094 32.6315 24.8912 31.8532 27.2 30.25L27.675 32.625C27.7248 32.8669 27.8452 33.0886 28.021 33.2621C28.1967 33.4356 28.42 33.5532 28.6625 33.6L30.5625 33.9875C28.585 35.4743 26.3148 36.5249 23.9016 37.07C21.4884 37.6152 18.987 37.6424 16.5625 37.15C16.3983 37.1172 16.2293 37.117 16.0651 37.1495C15.9009 37.182 15.7447 37.2465 15.6054 37.3393C15.4661 37.4322 15.3464 37.5516 15.2533 37.6907C15.1601 37.8298 15.0953 37.9858 15.0625 38.15C15.0296 38.3141 15.0295 38.4832 15.0619 38.6474C15.0944 38.8116 15.159 38.9678 15.2518 39.1071C15.3447 39.2464 15.4641 39.366 15.6031 39.4592C15.7422 39.5523 15.8983 39.6172 16.0625 39.65C20.2769 40.5123 24.657 39.9928 28.5529 38.1686C32.4487 36.3445 35.6525 33.3128 37.6888 29.5236C39.7252 25.7343 40.4856 21.3895 39.8571 17.1339C39.2286 12.8783 37.2447 8.93881 34.2 5.89999L34.1375 5.86249ZM31.9 7.18749L31.3125 10.1L28.325 10.7C26.2298 8.82619 23.5642 7.71324 20.7586 7.54087C17.9531 7.3685 15.1713 8.14676 12.8625 9.74999L12.3875 7.37499C12.3376 7.1331 12.2172 6.9114 12.0414 6.73787C11.8657 6.56434 11.6425 6.44677 11.4 6.39999L9.49997 6.02499C12.773 3.55041 16.8142 2.31022 20.9119 2.52288C25.0095 2.73554 28.9007 4.3874 31.9 7.18749ZM7.37497 27.6125C7.13308 27.6624 6.91137 27.7828 6.73785 27.9585C6.56432 28.1343 6.44675 28.3575 6.39997 28.6L6.02497 30.5C3.55039 27.227 2.3102 23.1857 2.52286 19.0881C2.73552 14.9904 4.38738 11.0992 7.18747 8.09999L10.1 8.74999L10.7 11.7375C8.82917 13.8217 7.71737 16.4768 7.54493 19.2722C7.37249 22.0675 8.14952 24.8392 9.74997 27.1375L7.37497 27.6125ZM12.925 27.075C11.5276 25.676 10.5763 23.8942 10.1913 21.9547C9.80635 20.0152 10.005 18.0051 10.7622 16.1785C11.5194 14.3518 12.8012 12.7907 14.4454 11.6924C16.0897 10.5941 18.0226 10.0079 20 10.0079C21.9773 10.0079 23.9103 10.5941 25.5545 11.6924C27.1988 12.7907 28.4805 14.3518 29.2377 16.1785C29.9949 18.0051 30.1936 20.0152 29.8086 21.9547C29.4237 23.8942 28.4724 25.676 27.075 27.075C26.1462 28.0048 25.0434 28.7423 23.8294 29.2456C22.6154 29.7488 21.3141 30.0079 20 30.0079C18.6858 30.0079 17.3845 29.7488 16.1706 29.2456C14.9566 28.7423 13.8537 28.0048 12.925 27.075ZM29.3 28.325C31.1861 26.2362 32.3072 23.569 32.4798 20.7599C32.6524 17.9509 31.8662 15.1665 30.25 12.8625L32.625 12.3875C32.8669 12.3376 33.0886 12.2172 33.2621 12.0415C33.4356 11.8657 33.5532 11.6425 33.6 11.4L33.975 9.49999C36.4495 12.773 37.6897 16.8142 37.4771 20.9119C37.2644 25.0096 35.6126 28.9007 32.8125 31.9L29.9 31.3125L29.3 28.325Z" fill="#000033"/>
<path d="M16.25 18.75H15C14.6685 18.75 14.3505 18.6183 14.1161 18.3839C13.8817 18.1495 13.75 17.8315 13.75 17.5C13.75 17.1685 13.8817 16.8505 14.1161 16.6161C14.3505 16.3817 14.6685 16.25 15 16.25H16.25C16.5815 16.25 16.8995 16.3817 17.1339 16.6161C17.3683 16.8505 17.5 17.1685 17.5 17.5C17.5 17.8315 17.3683 18.1495 17.1339 18.3839C16.8995 18.6183 16.5815 18.75 16.25 18.75Z" fill="#05058C"/>
<path d="M25 18.75H21.25C20.9185 18.75 20.6005 18.6183 20.3661 18.3839C20.1317 18.1495 20 17.8315 20 17.5C20 17.1685 20.1317 16.8505 20.3661 16.6161C20.6005 16.3817 20.9185 16.25 21.25 16.25H25C25.3315 16.25 25.6495 16.3817 25.8839 16.6161C26.1183 16.8505 26.25 17.1685 26.25 17.5C26.25 17.8315 26.1183 18.1495 25.8839 18.3839C25.6495 18.6183 25.3315 18.75 25 18.75Z" fill="#05058C"/>
<path d="M16.25 23.75H15C14.6685 23.75 14.3505 23.6183 14.1161 23.3839C13.8817 23.1495 13.75 22.8315 13.75 22.5C13.75 22.1685 13.8817 21.8505 14.1161 21.6161C14.3505 21.3817 14.6685 21.25 15 21.25H16.25C16.5815 21.25 16.8995 21.3817 17.1339 21.6161C17.3683 21.8505 17.5 22.1685 17.5 22.5C17.5 22.8315 17.3683 23.1495 17.1339 23.3839C16.8995 23.6183 16.5815 23.75 16.25 23.75Z" fill="#05058C"/>
<path d="M25 23.75H21.25C20.9185 23.75 20.6005 23.6183 20.3661 23.3839C20.1317 23.1495 20 22.8315 20 22.5C20 22.1685 20.1317 21.8505 20.3661 21.6161C20.6005 21.3817 20.9185 21.25 21.25 21.25H25C25.3315 21.25 25.6495 21.3817 25.8839 21.6161C26.1183 21.8505 26.25 22.1685 26.25 22.5C26.25 22.8315 26.1183 23.1495 25.8839 23.3839C25.6495 23.6183 25.3315 23.75 25 23.75Z" fill="#05058C"/>
</g>
<defs>
<clipPath id="clip0_2602_3731">
<rect width="40" height="40" fill="white"/>
</clipPath>
</defs>
</svg>
