<svg width="40" height="40" viewBox="0 0 40 40" fill="none" xmlns="http://www.w3.org/2000/svg">
<g clip-path="url(#clip0_2602_3623)">
<path d="M14.125 27.15C15.0795 26.3115 15.7558 25.2019 16.0637 23.9693C16.3716 22.7366 16.2965 21.4394 15.8485 20.2505C15.4004 19.0616 14.6006 18.0375 13.5558 17.3146C12.5109 16.5918 11.2705 16.2046 10 16.2046C8.72947 16.2046 7.48912 16.5918 6.44424 17.3146C5.39937 18.0375 4.59961 19.0616 4.15155 20.2505C3.70349 21.4394 3.62841 22.7366 3.93631 23.9693C4.24422 25.2019 4.92049 26.3115 5.875 27.15C4.12517 27.9424 2.64058 29.2219 1.59873 30.8357C0.556869 32.4495 0.00183982 34.3291 0 36.25L0 37.5C0 37.8315 0.131696 38.1495 0.366117 38.3839C0.600537 38.6183 0.918479 38.75 1.25 38.75H5C5.33152 38.75 5.64946 38.6183 5.88388 38.3839C6.1183 38.1495 6.25 37.8315 6.25 37.5C6.25 37.1685 6.1183 36.8505 5.88388 36.6161C5.64946 36.3817 5.33152 36.25 5 36.25H2.5C2.5 34.2609 3.29018 32.3532 4.6967 30.9467C6.10322 29.5402 8.01088 28.75 10 28.75C11.9891 28.75 13.8968 29.5402 15.3033 30.9467C16.7098 32.3532 17.5 34.2609 17.5 36.25H4.79167C4.46015 36.25 4.1422 36.3817 3.90778 36.6161C3.67336 36.8505 3.54167 37.1685 3.54167 37.5C3.54167 37.8315 3.67336 38.1495 3.90778 38.3839C4.1422 38.6183 4.46015 38.75 4.79167 38.75H18.75C19.0815 38.75 19.3995 38.6183 19.6339 38.3839C19.8683 38.1495 20 37.8315 20 37.5V36.25C19.9982 34.3291 19.4431 32.4495 18.4013 30.8357C17.3594 29.2219 15.8748 27.9424 14.125 27.15ZM6.25 22.5C6.25 21.7583 6.46993 21.0333 6.88199 20.4166C7.29404 19.7999 7.87971 19.3193 8.56494 19.0355C9.25016 18.7516 10.0042 18.6774 10.7316 18.8221C11.459 18.9667 12.1272 19.3239 12.6517 19.8483C13.1761 20.3728 13.5332 21.041 13.6779 21.7684C13.8226 22.4958 13.7484 23.2498 13.4645 23.9351C13.1807 24.6203 12.7001 25.206 12.0834 25.618C11.4667 26.0301 10.7417 26.25 10 26.25C9.00544 26.25 8.05161 25.8549 7.34835 25.1517C6.64509 24.4484 6.25 23.4946 6.25 22.5Z" fill="#000033"/>
<path d="M36.25 1.25H21.25C20.2554 1.25 19.3016 1.64509 18.5983 2.34835C17.8951 3.05161 17.5 4.00544 17.5 5V12.5C17.5 13.4946 17.8951 14.4484 18.5983 15.1517C19.3016 15.8549 20.2554 16.25 21.25 16.25V18.75C21.25 18.9821 21.3146 19.2097 21.4367 19.4072C21.5587 19.6046 21.7334 19.7642 21.941 19.868C22.1486 19.9718 22.3811 20.0158 22.6123 19.9949C22.8435 19.9741 23.0643 19.8893 23.25 19.75L27.9125 16.25H36.25C37.2446 16.25 38.1984 15.8549 38.9017 15.1517C39.6049 14.4484 40 13.4946 40 12.5V5C40 4.00544 39.6049 3.05161 38.9017 2.34835C38.1984 1.64509 37.2446 1.25 36.25 1.25ZM37.5 12.5C37.5 12.8315 37.3683 13.1495 37.1339 13.3839C36.8995 13.6183 36.5815 13.75 36.25 13.75H27.5C26.95 13.75 27.025 13.75 23.75 16.25V15C23.75 14.6685 23.6183 14.3505 23.3839 14.1161C23.1495 13.8817 22.8315 13.75 22.5 13.75H21.25C20.9185 13.75 20.6005 13.6183 20.3661 13.3839C20.1317 13.1495 20 12.8315 20 12.5V5C20 4.66848 20.1317 4.35054 20.3661 4.11612C20.6005 3.8817 20.9185 3.75 21.25 3.75H36.25C36.5815 3.75 36.8995 3.8817 37.1339 4.11612C37.3683 4.35054 37.5 4.66848 37.5 5V12.5Z" fill="#000033"/>
<path d="M23.75 10C23.5028 10 23.2611 9.92669 23.0555 9.78934C22.85 9.65199 22.6898 9.45676 22.5952 9.22836C22.5005 8.99995 22.4758 8.74861 22.524 8.50614C22.5723 8.26366 22.6913 8.04093 22.8661 7.86612C23.0409 7.6913 23.2637 7.57225 23.5061 7.52402C23.7486 7.47579 23.9999 7.50054 24.2284 7.59515C24.4568 7.68976 24.652 7.84998 24.7893 8.05554C24.9267 8.2611 25 8.50277 25 8.75C25 9.08152 24.8683 9.39946 24.6339 9.63388C24.3995 9.8683 24.0815 10 23.75 10Z" fill="#05058C"/>
<path d="M28.75 10C28.5028 10 28.2611 9.92669 28.0555 9.78934C27.85 9.65199 27.6898 9.45676 27.5952 9.22836C27.5005 8.99995 27.4758 8.74861 27.524 8.50614C27.5723 8.26366 27.6913 8.04093 27.8661 7.86612C28.0409 7.6913 28.2637 7.57225 28.5061 7.52402C28.7486 7.47579 28.9999 7.50054 29.2284 7.59515C29.4568 7.68976 29.652 7.84998 29.7893 8.05554C29.9267 8.2611 30 8.50277 30 8.75C30 9.08152 29.8683 9.39946 29.6339 9.63388C29.3995 9.8683 29.0815 10 28.75 10Z" fill="#05058C"/>
<path d="M33.75 10C33.5028 10 33.2611 9.92669 33.0555 9.78934C32.85 9.65199 32.6898 9.45676 32.5952 9.22836C32.5005 8.99995 32.4758 8.74861 32.524 8.50614C32.5723 8.26366 32.6913 8.04093 32.8661 7.86612C33.0409 7.6913 33.2637 7.57225 33.5061 7.52402C33.7486 7.47579 33.9999 7.50054 34.2284 7.59515C34.4568 7.68976 34.652 7.84998 34.7893 8.05554C34.9267 8.2611 35 8.50277 35 8.75C35 9.08152 34.8683 9.39946 34.6339 9.63388C34.3995 9.8683 34.0815 10 33.75 10Z" fill="#05058C"/>
</g>
<defs>
<clipPath id="clip0_2602_3623">
<rect width="40" height="40" fill="white"/>
</clipPath>
</defs>
</svg>
