<svg width="34" height="21" viewBox="0 0 34 21" fill="none" xmlns="http://www.w3.org/2000/svg">
<path d="M33.4625 4.72501C33.2004 4.52339 32.869 4.43387 32.541 4.47604C32.213 4.51821 31.9151 4.68864 31.7125 4.95001L28.225 9.41251C27.3716 9.03911 26.4296 8.91606 25.5089 9.0577C24.5882 9.19935 23.7267 9.59985 23.025 10.2125L18.425 6.98751C18.737 6.18166 18.8347 5.30872 18.7088 4.45382C18.5829 3.59892 18.2376 2.79125 17.7065 2.10958C17.1754 1.4279 16.4768 0.895501 15.6786 0.564292C14.8805 0.233084 14.0102 0.114377 13.1525 0.219749C12.2948 0.32512 11.4791 0.650972 10.7849 1.16553C10.0907 1.68008 9.54164 2.36577 9.19137 3.15572C8.84111 3.94567 8.70155 4.81292 8.78631 5.67287C8.87107 6.53283 9.17725 7.35614 9.675 8.06251L7.2375 10.8C6.47682 10.4194 5.6316 10.2391 4.7818 10.2762C3.93199 10.3133 3.10571 10.5666 2.38111 11.0121C1.65651 11.4576 1.05755 12.0806 0.640885 12.8222C0.224224 13.5638 0.00364006 14.3994 0 15.25C0 15.5815 0.131696 15.8995 0.366117 16.1339C0.600537 16.3683 0.918479 16.5 1.25 16.5C1.58152 16.5 1.89946 16.3683 2.13388 16.1339C2.3683 15.8995 2.5 15.5815 2.5 15.25C2.5 14.7556 2.64662 14.2722 2.92133 13.8611C3.19603 13.45 3.58648 13.1295 4.04329 12.9403C4.50011 12.7511 5.00277 12.7016 5.48773 12.798C5.97268 12.8945 6.41814 13.1326 6.76777 13.4822C7.1174 13.8319 7.3555 14.2773 7.45196 14.7623C7.54843 15.2472 7.49892 15.7499 7.3097 16.2067C7.12048 16.6635 6.80005 17.054 6.38893 17.3287C5.9778 17.6034 5.49445 17.75 5 17.75C4.66848 17.75 4.35054 17.8817 4.11612 18.1161C3.8817 18.3505 3.75 18.6685 3.75 19C3.75 19.3315 3.8817 19.6495 4.11612 19.8839C4.35054 20.1183 4.66848 20.25 5 20.25C5.90823 20.2484 6.79886 19.9994 7.57626 19.5298C8.35366 19.0602 8.98847 18.3877 9.41254 17.5846C9.8366 16.7814 10.0339 15.8779 9.98324 14.9711C9.93258 14.0643 9.63588 13.1884 9.125 12.4375L11.5125 9.70001C12.3875 10.1475 13.3773 10.3202 14.3521 10.1952C15.3269 10.0703 16.2412 9.65369 16.975 9.00001L21.575 12.225C21.2582 13.0396 21.1605 13.9231 21.2916 14.7872C21.4226 15.6514 21.778 16.4661 22.3221 17.1501C22.8663 17.8341 23.5802 18.3635 24.3928 18.6856C25.2054 19.0076 26.0882 19.111 26.9532 18.9855C27.8182 18.8599 28.6351 18.5098 29.3226 17.9701C30.0101 17.4303 30.5441 16.7198 30.8713 15.9093C31.1986 15.0988 31.3076 14.2167 31.1877 13.3509C31.0677 12.4851 30.7228 11.6659 30.1875 10.975L33.75 6.50001C33.8505 6.36563 33.9229 6.2124 33.9629 6.04944C34.0029 5.88648 34.0097 5.71714 33.9829 5.5515C33.9561 5.38586 33.8962 5.22732 33.8068 5.08532C33.7174 4.94333 33.6003 4.82079 33.4625 4.72501ZM13.75 7.75001C13.2555 7.75001 12.7722 7.60338 12.3611 7.32868C11.95 7.05398 11.6295 6.66353 11.4403 6.20671C11.2511 5.7499 11.2016 5.24723 11.298 4.76228C11.3945 4.27733 11.6326 3.83187 11.9822 3.48224C12.3319 3.13261 12.7773 2.89451 13.2623 2.79804C13.7472 2.70158 14.2499 2.75109 14.7067 2.94031C15.1635 3.12953 15.554 3.44996 15.8287 3.86108C16.1034 4.2722 16.25 4.75555 16.25 5.25001C16.25 5.91305 15.9866 6.54893 15.5178 7.01777C15.0489 7.48661 14.413 7.75001 13.75 7.75001ZM26.25 16.5C25.7555 16.5 25.2722 16.3534 24.8611 16.0787C24.45 15.804 24.1295 15.4135 23.9403 14.9567C23.7511 14.4999 23.7016 13.9972 23.798 13.5123C23.8945 13.0273 24.1326 12.5819 24.4822 12.2322C24.8319 11.8826 25.2773 11.6445 25.7623 11.548C26.2472 11.4516 26.7499 11.5011 27.2067 11.6903C27.6635 11.8795 28.054 12.2 28.3287 12.6111C28.6034 13.0222 28.75 13.5056 28.75 14C28.75 14.663 28.4866 15.2989 28.0178 15.7678C27.5489 16.2366 26.913 16.5 26.25 16.5Z" fill="#000033"/>
</svg>
