<svg width="20" height="20" viewBox="0 0 20 20" fill="none" xmlns="http://www.w3.org/2000/svg">
<g clip-path="url(#clip0_2599_4423)">
<path d="M17.5458 8.00766V10.3985C17.5458 12.3789 14.3341 13.9848 10.3732 13.9848C6.41239 13.9848 3.20069 12.3789 3.20069 10.3985V8.00766C3.20069 9.98807 6.41239 11.5939 10.3732 11.5939C14.3341 11.5939 17.5458 9.98807 17.5458 8.00766ZM3.20069 11.9924C3.20069 13.9728 6.41239 15.5787 10.3732 15.5787C14.3341 15.5787 17.5458 13.9728 17.5458 11.9924V14.3832C17.5458 16.3637 14.3341 17.9695 10.3732 17.9695C6.41239 17.9695 3.20069 16.3637 3.20069 14.3832V11.9924ZM10.3732 10C6.41239 10 3.20069 8.39418 3.20069 6.41376C3.20069 4.43334 6.41239 2.82749 10.3732 2.82749C14.3341 2.82749 17.5458 4.43334 17.5458 6.41376C17.5458 8.39418 14.3341 10 10.3732 10Z" fill="#05058C"/>
</g>
<defs>
<clipPath id="clip0_2599_4423">
<rect width="19.1268" height="19.1268" fill="white" transform="translate(0.809845 0.436646)"/>
</clipPath>
</defs>
</svg>
