<svg width="20" height="20" viewBox="0 0 20 20" fill="none" xmlns="http://www.w3.org/2000/svg">
<g clip-path="url(#clip0_2602_4303)">
<path d="M4.9084 17.571C3.3679 17.571 2.11908 16.3222 2.11908 14.7817C2.11908 13.2412 3.3679 11.9924 4.9084 11.9924C6.17156 11.9924 7.23868 12.8324 7.58216 13.9848H12.0809V12.3909H13.6748V7.80204L11.8873 6.01528H7.29924V7.60918H2.51755V2.82749H7.29924V4.42139H11.8873L14.4718 1.83609L17.8532 5.21834L15.2687 7.80125V12.3909H16.8626V17.1726H12.0809V15.5787H7.58216C7.23947 16.7311 6.17156 17.571 4.9084 17.571ZM4.9084 13.5863C4.24853 13.5863 3.71298 14.1218 3.71298 14.7817C3.71298 15.4416 4.24853 15.9771 4.9084 15.9771C5.56827 15.9771 6.10382 15.4416 6.10382 14.7817C6.10382 14.1218 5.56827 13.5863 4.9084 13.5863ZM15.2687 13.9848H13.6748V15.5787H15.2687V13.9848ZM14.4718 4.09145L13.3449 5.21834L14.4718 6.34522L15.5987 5.21834L14.4718 4.09145ZM5.70535 4.42139H4.11145V6.01528H5.70535V4.42139Z" fill="#05058C"/>
</g>
<defs>
<clipPath id="clip0_2602_4303">
<rect width="19.1268" height="19.1268" fill="white" transform="translate(0.126709 0.436646)"/>
</clipPath>
</defs>
</svg>
