<svg width="20" height="20" viewBox="0 0 20 20" fill="none" xmlns="http://www.w3.org/2000/svg">
<g clip-path="url(#clip0_2602_4328)">
<path d="M16.1925 17.9695H5.4337C4.69393 17.9695 3.98446 17.6756 3.46136 17.1525C2.93826 16.6294 2.64439 15.9199 2.64439 15.1802V4.42136C2.64439 3.78727 2.89628 3.17914 3.34465 2.73077C3.79302 2.2824 4.40114 2.03051 5.03523 2.03051H16.1925C16.4039 2.03051 16.6066 2.11448 16.756 2.26393C16.9055 2.41339 16.9895 2.6161 16.9895 2.82746V17.1725C16.9895 17.3839 16.9055 17.5866 16.756 17.7361C16.6066 17.8855 16.4039 17.9695 16.1925 17.9695ZM15.3956 16.3756V13.9847H5.4337C5.11666 13.9847 4.8126 14.1107 4.58841 14.3349C4.36423 14.5591 4.23828 14.8631 4.23828 15.1802C4.23828 15.4972 4.36423 15.8013 4.58841 16.0255C4.8126 16.2496 5.11666 16.3756 5.4337 16.3756H15.3956Z" fill="#05058C"/>
</g>
<defs>
<clipPath id="clip0_2602_4328">
<rect width="19.1268" height="19.1268" fill="white" transform="translate(0.25354 0.436615)"/>
</clipPath>
</defs>
</svg>
