<svg width="41" height="40" viewBox="0 0 41 40" fill="none" xmlns="http://www.w3.org/2000/svg">
<g clip-path="url(#clip0_2486_3318)">
<path d="M16.3496 21.2498C14.0996 21.2498 12.2996 21.4623 10.4621 19.6373C10.1851 19.355 9.85434 19.131 9.48938 18.9786C9.12441 18.8262 8.73262 18.7484 8.33711 18.7498H6.34961C6.01809 18.7498 5.70015 18.6181 5.46573 18.3837C5.23131 18.1492 5.09961 17.8313 5.09961 17.4998C5.09961 17.1682 5.23131 16.8503 5.46573 16.6159C5.70015 16.3815 6.01809 16.2498 6.34961 16.2498C8.59961 16.2498 10.3996 16.0373 12.2371 17.8623C12.5141 18.1446 12.8449 18.3685 13.2098 18.521C13.5748 18.6734 13.9666 18.7512 14.3621 18.7498H16.3496C16.6811 18.7498 16.9991 18.8815 17.2335 19.1159C17.4679 19.3503 17.5996 19.6682 17.5996 19.9998C17.5996 20.3313 17.4679 20.6492 17.2335 20.8837C16.9991 21.1181 16.6811 21.2498 16.3496 21.2498Z" fill="#05058C"/>
<path d="M33.8501 21.2498C31.6001 21.2498 29.8001 21.4623 27.9626 19.6373C27.6856 19.355 27.3548 19.131 26.9899 18.9786C26.6249 18.8262 26.2331 18.7484 25.8376 18.7498H23.8501C23.5186 18.7498 23.2006 18.6181 22.9662 18.3837C22.7318 18.1492 22.6001 17.8313 22.6001 17.4998C22.6001 17.1682 22.7318 16.8503 22.9662 16.6159C23.2006 16.3815 23.5186 16.2498 23.8501 16.2498C26.1001 16.2498 27.9001 16.0373 29.7376 17.8623C30.0146 18.1446 30.3454 18.3685 30.7103 18.521C31.0753 18.6734 31.4671 18.7512 31.8626 18.7498H33.8501C34.1816 18.7498 34.4996 18.8815 34.734 19.1159C34.9684 19.3503 35.1001 19.6682 35.1001 19.9998C35.1001 20.3313 34.9684 20.6492 34.734 20.8837C34.4996 21.1181 34.1816 21.2498 33.8501 21.2498Z" fill="#05058C"/>
<path d="M36.3501 12.4998H35.1001V9.99976C35.4316 9.99976 35.7496 9.86806 35.984 9.63364C36.2184 9.39922 36.3501 9.08128 36.3501 8.74976V3.74976C36.3501 3.41824 36.2184 3.10029 35.984 2.86587C35.7496 2.63145 35.4316 2.49976 35.1001 2.49976H22.6001C22.2686 2.49976 21.9506 2.63145 21.7162 2.86587C21.4818 3.10029 21.3501 3.41824 21.3501 3.74976V8.74976C21.3501 9.08128 21.4818 9.39922 21.7162 9.63364C21.9506 9.86806 22.2686 9.99976 22.6001 9.99976V12.4998H17.6001V9.99976C17.9316 9.99976 18.2496 9.86806 18.484 9.63364C18.7184 9.39922 18.8501 9.08128 18.8501 8.74976V3.74976C18.8501 3.41824 18.7184 3.10029 18.484 2.86587C18.2496 2.63145 17.9316 2.49976 17.6001 2.49976H5.1001C4.76858 2.49976 4.45063 2.63145 4.21621 2.86587C3.98179 3.10029 3.8501 3.41824 3.8501 3.74976V8.74976C3.8501 9.08128 3.98179 9.39922 4.21621 9.63364C4.45063 9.86806 4.76858 9.99976 5.1001 9.99976V12.4998H3.8501C2.85554 12.4998 1.90171 12.8948 1.19845 13.5981C0.495186 14.3014 0.100098 15.2552 0.100098 16.2498L0.100098 33.7498C0.100098 34.7443 0.495186 35.6981 1.19845 36.4014C1.90171 37.1047 2.85554 37.4998 3.8501 37.4998H10.1001C10.4316 37.4998 10.7496 37.3681 10.984 37.1336C11.2184 36.8992 11.3501 36.5813 11.3501 36.2498C11.3501 35.9182 11.2184 35.6003 10.984 35.3659C10.7496 35.1315 10.4316 34.9998 10.1001 34.9998H3.8501C3.51858 34.9998 3.20063 34.8681 2.96621 34.6336C2.73179 34.3992 2.6001 34.0813 2.6001 33.7498V16.2498C2.6001 15.9182 2.73179 15.6003 2.96621 15.3659C3.20063 15.1315 3.51858 14.9998 3.8501 14.9998H5.1001V26.2498C5.1001 27.9074 5.75858 29.4971 6.93068 30.6692C8.10278 31.8413 9.69249 32.4998 11.3501 32.4998C13.0077 32.4998 14.5974 31.8413 15.7695 30.6692C16.9416 29.4971 17.6001 27.9074 17.6001 26.2498V14.9998H22.6001V26.2498C22.6001 27.9074 23.2586 29.4971 24.4307 30.6692C25.6028 31.8413 27.1925 32.4998 28.8501 32.4998C30.5077 32.4998 32.0974 31.8413 33.2695 30.6692C34.4416 29.4971 35.1001 27.9074 35.1001 26.2498V14.9998H36.3501C36.6816 14.9998 36.9996 15.1315 37.234 15.3659C37.4684 15.6003 37.6001 15.9182 37.6001 16.2498V33.7498C37.6001 34.0813 37.4684 34.3992 37.234 34.6336C36.9996 34.8681 36.6816 34.9998 36.3501 34.9998H15.1001C14.7686 34.9998 14.4506 35.1315 14.2162 35.3659C13.9818 35.6003 13.8501 35.9182 13.8501 36.2498C13.8501 36.5813 13.9818 36.8992 14.2162 37.1336C14.4506 37.3681 14.7686 37.4998 15.1001 37.4998H36.3501C37.3447 37.4998 38.2985 37.1047 39.0017 36.4014C39.705 35.6981 40.1001 34.7443 40.1001 33.7498V16.2498C40.1001 15.2552 39.705 14.3014 39.0017 13.5981C38.2985 12.8948 37.3447 12.4998 36.3501 12.4998ZM6.3501 4.99976H16.3501V7.49976H6.3501V4.99976ZM15.1001 26.2498C15.1001 27.2443 14.705 28.1981 14.0017 28.9014C13.2985 29.6047 12.3447 29.9998 11.3501 29.9998C10.3555 29.9998 9.40171 29.6047 8.69845 28.9014C7.99519 28.1981 7.6001 27.2443 7.6001 26.2498V9.99976H15.1001V26.2498ZM23.8501 4.99976H33.8501V7.49976H23.8501V4.99976ZM32.6001 26.2498C32.6001 27.2443 32.205 28.1981 31.5017 28.9014C30.7985 29.6047 29.8447 29.9998 28.8501 29.9998C27.8555 29.9998 26.9017 29.6047 26.1984 28.9014C25.4952 28.1981 25.1001 27.2443 25.1001 26.2498V9.99976H32.6001V26.2498Z" fill="#000033"/>
</g>
<defs>
<clipPath id="clip0_2486_3318">
<rect width="40" height="40" fill="white" transform="translate(0.100098)"/>
</clipPath>
</defs>
</svg>
