<svg width="41" height="40" viewBox="0 0 41 40" fill="none" xmlns="http://www.w3.org/2000/svg">
<g clip-path="url(#clip0_2486_5679)">
<path d="M20.8999 32.4998C18.4276 32.4998 16.0109 31.7666 13.9553 30.3931C11.8997 29.0196 10.2975 27.0674 9.35141 24.7833C8.40532 22.4992 8.15778 19.9859 8.64009 17.5611C9.12241 15.1364 10.3129 12.9091 12.0611 11.1609C13.8092 9.41277 16.0365 8.22226 18.4613 7.73995C20.886 7.25763 23.3994 7.50517 25.6835 8.45127C27.9675 9.39736 29.9198 10.9995 31.2933 13.0551C32.6668 15.1107 33.3999 17.5275 33.3999 19.9998C33.3999 23.315 32.0829 26.4944 29.7387 28.8386C27.3945 31.1828 24.2151 32.4998 20.8999 32.4998ZM20.8999 9.99976C18.9221 9.99976 16.9887 10.5863 15.3442 11.6851C13.6997 12.7839 12.418 14.3457 11.6611 16.1729C10.9042 18.0002 10.7062 20.0109 11.0921 21.9507C11.4779 23.8905 12.4303 25.6723 13.8288 27.0708C15.2274 28.4694 17.0092 29.4218 18.949 29.8076C20.8888 30.1935 22.8995 29.9954 24.7267 29.2386C26.554 28.4817 28.1158 27.2 29.2146 25.5555C30.3134 23.911 30.8999 21.9776 30.8999 19.9998C30.8999 17.3476 29.8463 14.8041 27.971 12.9287C26.0956 11.0533 23.5521 9.99976 20.8999 9.99976Z" fill="#05058C"/>
<path d="M31.4998 22.4998H25.7873C25.9373 20.8365 25.9373 19.163 25.7873 17.4998H31.4998C31.8313 17.4998 32.1493 17.3681 32.3837 17.1336C32.6181 16.8992 32.7498 16.5813 32.7498 16.2498C32.7498 15.9182 32.6181 15.6003 32.3837 15.3659C32.1493 15.1315 31.8313 14.9998 31.4998 14.9998H25.4748C24.8873 11.3623 23.5873 7.49976 20.8998 7.49976C18.2123 7.49976 16.9123 11.3623 16.3248 14.9998H10.2998C9.96828 14.9998 9.65034 15.1315 9.41592 15.3659C9.1815 15.6003 9.0498 15.9182 9.0498 16.2498C9.0498 16.5813 9.1815 16.8992 9.41592 17.1336C9.65034 17.3681 9.96828 17.4998 10.2998 17.4998H16.0123C15.8623 19.163 15.8623 20.8365 16.0123 22.4998H10.2998C9.96828 22.4998 9.65034 22.6315 9.41592 22.8659C9.1815 23.1003 9.0498 23.4182 9.0498 23.7498C9.0498 24.0813 9.1815 24.3992 9.41592 24.6336C9.65034 24.8681 9.96828 24.9998 10.2998 24.9998H16.3248C16.9123 28.6373 18.2123 32.4998 20.8998 32.4998C23.5873 32.4998 24.8873 28.6373 25.4748 24.9998H31.4998C31.8313 24.9998 32.1493 24.8681 32.3837 24.6336C32.6181 24.3992 32.7498 24.0813 32.7498 23.7498C32.7498 23.4182 32.6181 23.1003 32.3837 22.8659C32.1493 22.6315 31.8313 22.4998 31.4998 22.4998ZM20.8998 9.99976C21.4623 9.99976 22.3998 11.9748 22.9498 14.9998H18.8498C19.3998 11.9748 20.3373 9.99976 20.8998 9.99976ZM18.5123 17.4998H23.2873C23.4373 19.163 23.4373 20.8365 23.2873 22.4998H18.5123C18.3623 20.8365 18.3623 19.163 18.5123 17.4998ZM20.8998 29.9998C20.3373 29.9998 19.3998 28.0248 18.8498 24.9998H22.9498C22.3998 28.0248 21.4623 29.9998 20.8998 29.9998Z" fill="#05058C"/>
<path d="M20.8999 0C16.7023 0 12.611 1.32075 9.2057 3.77516C5.80039 6.22957 3.25365 9.6932 1.92624 13.6754C0.598823 17.6577 0.558029 21.9566 1.80963 25.9634C3.06123 29.9701 5.54178 33.4814 8.8999 36C9.16512 36.1989 9.49849 36.2843 9.82668 36.2374C10.1549 36.1906 10.451 36.0152 10.6499 35.75C10.8488 35.4848 10.9342 35.1514 10.8873 34.8232C10.8405 34.495 10.6651 34.1989 10.3999 34C7.55359 31.8584 5.42858 28.8992 4.30877 25.5178C3.18897 22.1363 3.1277 18.4937 4.13315 15.0765C5.13861 11.6593 7.1629 8.63036 9.93558 6.39423C12.7083 4.15811 16.0973 2.82133 19.6499 2.5625V7.5625C16.4955 7.78597 13.543 9.1967 11.3874 11.5104C9.2318 13.8242 8.03323 16.869 8.03323 20.0312C8.03323 23.1935 9.2318 26.2383 11.3874 28.5521C13.543 30.8658 16.4955 32.2765 19.6499 32.5V37.5C18.0851 37.3904 16.5421 37.0708 15.0624 36.55C14.7491 36.4406 14.4052 36.4601 14.1063 36.6043C13.8074 36.7485 13.5781 37.0055 13.4687 37.3187C13.3593 37.632 13.3788 37.976 13.523 38.2748C13.6671 38.5737 13.9241 38.8031 14.2374 38.9125C16.9786 39.8551 19.8919 40.1905 22.7755 39.8956C25.6592 39.6007 28.4442 38.6825 30.9379 37.2046C33.4315 35.7266 35.5741 33.7243 37.2172 31.3363C38.8603 28.9483 39.9647 26.2317 40.4539 23.3746C40.9431 20.5175 40.8053 17.5882 40.0503 14.7896C39.2952 11.991 37.9408 9.38991 36.0809 7.1666C34.221 4.94328 31.9 3.15083 29.2787 1.91338C26.6574 0.675935 23.7985 0.0230683 20.8999 0V0ZM34.1124 31.4375L30.5749 27.9C32.0018 26.1508 32.9284 24.0478 33.2563 21.8143C33.5842 19.5808 33.3011 17.3003 32.4371 15.2147C31.5732 13.1292 30.1606 11.3165 28.3493 9.96923C26.5381 8.62192 24.3958 7.79024 22.1499 7.5625V2.5625C25.3815 2.80232 28.483 3.93471 31.1089 5.83347C33.7348 7.73224 35.782 10.3228 37.0222 13.3166C38.2625 16.3103 38.6472 19.5896 38.1334 22.7891C37.6196 25.9886 36.2276 28.9826 34.1124 31.4375ZM28.7999 29.675L32.3374 33.2125C29.4973 35.7101 25.9213 37.2152 22.1499 37.5V32.5C24.5963 32.2335 26.9096 31.2507 28.7999 29.675ZM10.8999 20C10.8991 18.3555 11.3039 16.7362 12.0785 15.2856C12.853 13.8349 13.9733 12.5977 15.3402 11.6834C16.707 10.7691 18.2783 10.206 19.9148 10.044C21.5512 9.88201 23.2024 10.1261 24.722 10.7546C26.2416 11.3832 27.5828 12.3768 28.6267 13.6474C29.6706 14.9181 30.385 16.4265 30.7067 18.0392C31.0284 19.6519 30.9474 21.3191 30.4709 22.893C29.9944 24.4669 29.1371 25.899 27.9749 27.0625C26.5771 28.4619 24.7957 29.4153 22.856 29.8022C20.9164 30.1891 18.9055 29.9921 17.0778 29.2361C15.2501 28.4801 13.6876 27.1991 12.5879 25.5551C11.4883 23.9111 10.9008 21.9779 10.8999 20Z" fill="#000033"/>
</g>
<defs>
<clipPath id="clip0_2486_5679">
<rect width="40" height="40" fill="white" transform="translate(0.899902)"/>
</clipPath>
</defs>
</svg>
