<svg width="41" height="40" viewBox="0 0 41 40" fill="none" xmlns="http://www.w3.org/2000/svg">
<g clip-path="url(#clip0_2486_5665)">
<path d="M20.7002 15C18.7224 15 16.789 15.5865 15.1445 16.6853C13.5 17.7841 12.2183 19.3459 11.4614 21.1732C10.7045 23.0004 10.5065 25.0111 10.8923 26.9509C11.2782 28.8907 12.2306 30.6725 13.6291 32.0711C15.0277 33.4696 16.8095 34.422 18.7493 34.8079C20.6891 35.1937 22.6998 34.9957 24.527 34.2388C26.3543 33.4819 27.9161 32.2002 29.0149 30.5557C30.1137 28.9112 30.7002 26.9778 30.7002 25C30.7002 22.3478 29.6466 19.8043 27.7713 17.9289C25.8959 16.0536 23.3524 15 20.7002 15ZM28.0877 23.75H25.5252C25.3008 22.8902 24.8512 22.1057 24.2228 21.4774C23.5945 20.849 22.81 20.3994 21.9502 20.175V17.6125C23.4833 17.873 24.8974 18.6036 25.997 19.7032C27.0966 20.8028 27.8272 22.2169 28.0877 23.75ZM20.7002 22.5C21.1947 22.5 21.678 22.6466 22.0891 22.9213C22.5002 23.196 22.8207 23.5865 23.0099 24.0433C23.1991 24.5001 23.2486 25.0028 23.1522 25.4877C23.0557 25.9727 22.8176 26.4181 22.468 26.7678C22.1183 27.1174 21.6729 27.3555 21.1879 27.452C20.703 27.5484 20.2003 27.4989 19.7435 27.3097C19.2867 27.1205 18.8962 26.8 18.6215 26.3889C18.3468 25.9778 18.2002 25.4945 18.2002 25C18.2002 24.337 18.4636 23.7011 18.9324 23.2322C19.4013 22.7634 20.0372 22.5 20.7002 22.5ZM13.2002 25C13.202 23.2289 13.8305 21.5156 14.9744 20.1635C16.1184 18.8113 17.7039 17.9077 19.4502 17.6125V20.175C18.7663 20.3118 18.1186 20.5901 17.5487 20.9921C16.9788 21.3941 16.4994 21.9109 16.1411 22.5093C15.7828 23.1076 15.5536 23.7743 15.4684 24.4665C15.3831 25.1587 15.4435 25.861 15.6459 26.5285C15.8482 27.1959 16.1879 27.8136 16.6432 28.3419C17.0985 28.8702 17.6592 29.2974 18.2895 29.5961C18.9197 29.8948 19.6054 30.0584 20.3026 30.0762C20.9998 30.0941 21.693 29.966 22.3377 29.7L23.7627 31.8375C22.6213 32.3481 21.3704 32.5652 20.1237 32.4691C18.8771 32.373 17.6742 31.9667 16.6246 31.2872C15.5749 30.6078 14.7118 29.6767 14.1138 28.5786C13.5157 27.4805 13.2017 26.2504 13.2002 25ZM25.8377 30.45L24.4502 28.3125C24.9657 27.7191 25.334 27.0124 25.5252 26.25H28.0877C27.8142 27.8574 27.0243 29.3318 25.8377 30.45Z" fill="#05058C"/>
<path d="M39.4502 12.5C39.7817 12.5 40.0997 12.3683 40.3341 12.1339C40.5685 11.8995 40.7002 11.5815 40.7002 11.25V3.75C40.7002 2.75544 40.3051 1.80161 39.6018 1.09835C38.8986 0.395088 37.9448 0 36.9502 0L4.4502 0C3.45563 0 2.50181 0.395088 1.79854 1.09835C1.09528 1.80161 0.700195 2.75544 0.700195 3.75L0.700195 36.25C0.700195 37.2446 1.09528 38.1984 1.79854 38.9016C2.50181 39.6049 3.45563 40 4.4502 40H36.9502C37.9448 40 38.8986 39.6049 39.6018 38.9016C40.3051 38.1984 40.7002 37.2446 40.7002 36.25V16.25C40.7002 15.9185 40.5685 15.6005 40.3341 15.3661C40.0997 15.1317 39.7817 15 39.4502 15C39.1187 15 38.8007 15.1317 38.5663 15.3661C38.3319 15.6005 38.2002 15.9185 38.2002 16.25V36.25C38.2002 36.5815 38.0685 36.8995 37.8341 37.1339C37.5997 37.3683 37.2817 37.5 36.9502 37.5H4.4502C4.11867 37.5 3.80073 37.3683 3.56631 37.1339C3.33189 36.8995 3.2002 36.5815 3.2002 36.25V12.5H39.4502ZM3.2002 3.75C3.2002 3.41848 3.33189 3.10054 3.56631 2.86612C3.80073 2.6317 4.11867 2.5 4.4502 2.5H36.9502C37.2817 2.5 37.5997 2.6317 37.8341 2.86612C38.0685 3.10054 38.2002 3.41848 38.2002 3.75V10H3.2002V3.75Z" fill="#000033"/>
<path d="M6.94971 5C6.70248 5 6.46081 5.07331 6.25525 5.21066C6.04968 5.34801 5.88947 5.54324 5.79486 5.77165C5.70025 6.00005 5.67549 6.25139 5.72373 6.49386C5.77196 6.73634 5.89101 6.95907 6.06582 7.13388C6.24064 7.3087 6.46337 7.42775 6.70584 7.47598C6.94832 7.52421 7.19965 7.49946 7.42806 7.40485C7.65647 7.31024 7.85169 7.15002 7.98904 6.94446C8.1264 6.7389 8.19971 6.49723 8.19971 6.25C8.19971 5.91848 8.06801 5.60054 7.83359 5.36612C7.59917 5.1317 7.28123 5 6.94971 5Z" fill="#000033"/>
<path d="M11.9502 5C11.703 5 11.4613 5.07331 11.2557 5.21066C11.0502 5.34801 10.89 5.54324 10.7953 5.77165C10.7007 6.00005 10.676 6.25139 10.7242 6.49386C10.7724 6.73634 10.8915 6.95907 11.0663 7.13388C11.2411 7.3087 11.4639 7.42775 11.7063 7.47598C11.9488 7.52421 12.2001 7.49946 12.4286 7.40485C12.657 7.31024 12.8522 7.15002 12.9895 6.94446C13.1269 6.7389 13.2002 6.49723 13.2002 6.25C13.2002 5.91848 13.0685 5.60054 12.8341 5.36612C12.5997 5.1317 12.2817 5 11.9502 5Z" fill="#000033"/>
<path d="M16.9497 5C16.7025 5 16.4608 5.07331 16.2552 5.21066C16.0497 5.34801 15.8895 5.54324 15.7949 5.77165C15.7002 6.00005 15.6755 6.25139 15.7237 6.49386C15.772 6.73634 15.891 6.95907 16.0658 7.13388C16.2406 7.3087 16.4634 7.42775 16.7058 7.47598C16.9483 7.52421 17.1997 7.49946 17.4281 7.40485C17.6565 7.31024 17.8517 7.15002 17.989 6.94446C18.1264 6.7389 18.1997 6.49723 18.1997 6.25C18.1997 5.91848 18.068 5.60054 17.8336 5.36612C17.5992 5.1317 17.2812 5 16.9497 5Z" fill="#000033"/>
</g>
<defs>
<clipPath id="clip0_2486_5665">
<rect width="40" height="40" fill="white" transform="translate(0.700195)"/>
</clipPath>
</defs>
</svg>
