<svg width="41" height="40" viewBox="0 0 41 40" fill="none" xmlns="http://www.w3.org/2000/svg">
<g clip-path="url(#clip0_2486_3323)">
<path d="M35.1123 21.1373C35.9579 17.148 35.3838 12.9886 33.489 9.37753C31.5943 5.76647 28.4979 2.93049 24.7347 1.35941C20.9716 -0.211667 16.7779 -0.419195 12.878 0.772673C8.97805 1.96454 5.61683 4.48096 3.37482 7.88731C3.2491 8.02332 3.15517 8.18556 3.09982 8.36231C1.173 11.4827 0.275159 15.1295 0.533097 18.7877C0.791035 22.446 2.19172 25.9307 4.53732 28.7498C4.65485 28.8909 4.80203 29.0044 4.96838 29.0822C5.13474 29.1599 5.31618 29.2001 5.49982 29.1998C5.73755 29.2002 5.97046 29.1328 6.17124 29.0055C6.37201 28.8782 6.53231 28.6963 6.63335 28.4811C6.73438 28.2659 6.77196 28.0263 6.74167 27.7905C6.71137 27.5547 6.61447 27.3325 6.46232 27.1498C4.57483 24.8856 3.39629 22.1155 3.07394 19.1854C2.75159 16.2553 3.2997 13.2952 4.64982 10.6748L8.57482 13.8123C8.74702 13.9509 8.87939 14.1327 8.95844 14.3391C9.03749 14.5455 9.0604 14.7692 9.02482 14.9873L8.34982 19.0623C8.20836 19.9055 8.35929 20.7718 8.7776 21.5175C9.19591 22.2631 9.85648 22.8435 10.6498 23.1623L13.8498 24.4123C14.033 24.4849 14.1964 24.5997 14.3267 24.7474C14.4571 24.8951 14.5506 25.0716 14.5998 25.2623L15.1873 27.6623C15.238 27.8696 15.2347 28.0864 15.1778 28.2921C15.1209 28.4978 15.0123 28.6855 14.8623 28.8373L12.3623 31.3373C11.5162 30.9985 10.7042 30.58 9.93732 30.0873C9.65056 29.9066 9.30376 29.8473 8.97323 29.9223C8.6427 29.9973 8.3555 30.2005 8.17482 30.4873C7.99414 30.7741 7.93478 31.1209 8.0098 31.4514C8.08481 31.7819 8.28806 32.0691 8.57482 32.2498C12.4498 34.7222 17.1419 35.5709 21.6373 34.6123C22.3596 36.0099 23.4015 37.2174 24.6783 38.1366C25.955 39.0558 27.4306 39.6607 28.9852 39.9024C30.5398 40.144 32.1294 40.0154 33.6249 39.5271C35.1204 39.0388 36.4796 38.2045 37.5921 37.0921C38.7045 35.9796 39.5388 34.6204 40.0271 33.1249C40.5154 31.6294 40.644 30.0397 40.4024 28.4852C40.1607 26.9306 39.5558 25.455 38.6366 24.1783C37.7174 22.9015 36.5099 21.8596 35.1123 21.1373ZM32.7123 20.2498C31.2716 19.9199 29.7754 19.9159 28.3329 20.2381C26.8905 20.5603 25.5382 21.2006 24.3748 22.1123L23.5748 21.3123C23.4307 21.1668 23.3246 20.9881 23.2657 20.7919C23.2069 20.5958 23.1971 20.3881 23.2373 20.1873L23.9623 16.5623C24.0915 15.962 24.0713 15.3392 23.9034 14.7486C23.7356 14.1579 23.4253 13.6175 22.9998 13.1748C19.3373 9.56231 19.2498 9.64981 19.2498 8.96231V2.56231C21.3359 2.74163 23.3613 3.35568 25.1957 4.36494C27.0302 5.37421 28.633 6.75634 29.9011 8.4224C31.1692 10.0885 32.0745 12.0015 32.5586 14.0385C33.0428 16.0756 33.0951 18.1914 32.7123 20.2498V20.2498ZM15.0748 32.1998L16.6373 30.6373C17.0956 30.1794 17.4275 29.6105 17.6006 28.9862C17.7736 28.3619 17.782 27.7033 17.6248 27.0748L17.0248 24.6873C16.8808 24.1105 16.6016 23.5761 16.2104 23.1284C15.8192 22.6807 15.3271 22.3324 14.7748 22.1123L11.5873 20.8623C11.3221 20.7576 11.1007 20.5655 10.9597 20.3176C10.8188 20.0698 10.7668 19.7813 10.8123 19.4998L11.4873 15.4248C11.6011 14.7646 11.5358 14.0859 11.2984 13.4594C11.061 12.8328 10.6601 12.2814 10.1373 11.8623L5.98732 8.54981C7.25535 6.84698 8.87041 5.43272 10.7257 4.40055C12.581 3.36838 14.6343 2.74183 16.7498 2.56231V8.96231C16.7507 9.95654 17.1464 10.9097 17.8498 11.6123L21.1748 14.9998C21.3189 15.1453 21.4251 15.324 21.4839 15.5202C21.5428 15.7164 21.5525 15.924 21.5123 16.1248L20.7873 19.7498C20.6661 20.3552 20.6962 20.9811 20.8751 21.5721C21.0539 22.163 21.3758 22.7007 21.8123 23.1373L22.6123 23.9373C21.7054 25.1032 21.068 26.4556 20.7459 27.8972C20.4239 29.3388 20.4252 30.8338 20.7498 32.2748C18.8735 32.6447 16.9407 32.6192 15.0748 32.1998V32.1998ZM30.4998 37.4998C29.0165 37.4998 27.5664 37.0599 26.333 36.2358C25.0997 35.4117 24.1384 34.2404 23.5707 32.8699C23.0031 31.4995 22.8545 29.9915 23.1439 28.5366C23.4333 27.0818 24.1476 25.7454 25.1965 24.6965C26.2454 23.6476 27.5818 22.9333 29.0366 22.6439C30.4915 22.3545 31.9995 22.5031 33.3699 23.0707C34.7404 23.6384 35.9117 24.5997 36.7358 25.833C37.56 27.0664 37.9998 28.5165 37.9998 29.9998C37.9998 31.9889 37.2096 33.8966 35.8031 35.3031C34.3966 36.7096 32.4889 37.4998 30.4998 37.4998Z" fill="#000033"/>
<path d="M28.0005 35C27.669 35 27.351 34.8683 27.1166 34.6339C26.8822 34.3995 26.7505 34.0815 26.7505 33.75V26.25C26.7505 26.0294 26.809 25.8127 26.9199 25.622C27.0307 25.4312 27.1901 25.2732 27.3819 25.1641C27.5736 25.0549 27.7908 24.9984 28.0114 25.0003C28.232 25.0022 28.4482 25.0625 28.638 25.175L34.888 28.925C35.0745 29.0357 35.229 29.193 35.3364 29.3815C35.4437 29.57 35.5001 29.7831 35.5001 30C35.5001 30.2169 35.4437 30.4301 35.3364 30.6186C35.229 30.807 35.0745 30.9643 34.888 31.075C28.063 35.175 28.4755 35 28.0005 35ZM29.2505 28.4625V31.5375L31.8255 30L29.2505 28.4625Z" fill="#05058C"/>
</g>
<defs>
<clipPath id="clip0_2486_3323">
<rect width="40" height="40" fill="white" transform="translate(0.5)"/>
</clipPath>
</defs>
</svg>
