<svg width="41" height="40" viewBox="0 0 41 40" fill="none" xmlns="http://www.w3.org/2000/svg">
<g clip-path="url(#clip0_2486_3313)">
<path d="M24.625 28.4C25.5795 27.5615 26.2558 26.4519 26.5637 25.2193C26.8716 23.9866 26.7965 22.6894 26.3485 21.5005C25.9004 20.3116 25.1006 19.2875 24.0558 18.5646C23.0109 17.8418 21.7705 17.4546 20.5 17.4546C19.2295 17.4546 17.9891 17.8418 16.9442 18.5646C15.8994 19.2875 15.0996 20.3116 14.6515 21.5005C14.2035 22.6894 14.1284 23.9866 14.4363 25.2193C14.7442 26.4519 15.4205 27.5615 16.375 28.4C14.6252 29.1924 13.1406 30.4719 12.0987 32.0857C11.0569 33.6994 10.5018 35.5791 10.5 37.5V38.75C10.5 39.0815 10.6317 39.3995 10.8661 39.6339C11.1005 39.8683 11.4185 40 11.75 40H15.5C15.8315 40 16.1495 39.8683 16.3839 39.6339C16.6183 39.3995 16.75 39.0815 16.75 38.75C16.75 38.4185 16.6183 38.1005 16.3839 37.8661C16.1495 37.6317 15.8315 37.5 15.5 37.5H13C13 35.5109 13.7902 33.6032 15.1967 32.1967C16.6032 30.7902 18.5109 30 20.5 30C22.4891 30 24.3968 30.7902 25.8033 32.1967C27.2098 33.6032 28 35.5109 28 37.5H20.5C20.1685 37.5 19.8505 37.6317 19.6161 37.8661C19.3817 38.1005 19.25 38.4185 19.25 38.75C19.25 39.0815 19.3817 39.3995 19.6161 39.6339C19.8505 39.8683 20.1685 40 20.5 40H29.25C29.5815 40 29.8995 39.8683 30.1339 39.6339C30.3683 39.3995 30.5 39.0815 30.5 38.75V37.5C30.4982 35.5791 29.9431 33.6994 28.9013 32.0857C27.8594 30.4719 26.3748 29.1924 24.625 28.4ZM16.75 23.75C16.75 23.0083 16.9699 22.2833 17.382 21.6666C17.794 21.0499 18.3797 20.5693 19.0649 20.2855C19.7502 20.0016 20.5042 19.9274 21.2316 20.0721C21.959 20.2167 22.6272 20.5739 23.1517 21.0983C23.6761 21.6228 24.0333 22.291 24.1779 23.0184C24.3226 23.7458 24.2484 24.4998 23.9645 25.1851C23.6807 25.8703 23.2001 26.456 22.5834 26.868C21.9667 27.2801 21.2417 27.5 20.5 27.5C19.5054 27.5 18.5516 27.1049 17.8483 26.4017C17.1451 25.6984 16.75 24.7446 16.75 23.75Z" fill="#000033"/>
<path d="M23.7498 12.5C23.2873 12.5 23.1998 12.375 20.4998 10.95L17.8373 12.35C17.6313 12.4578 17.3994 12.5059 17.1675 12.4891C16.9356 12.4723 16.7131 12.3912 16.5248 12.2548C16.3365 12.1185 16.1899 11.9323 16.1016 11.7173C16.0133 11.5022 15.9867 11.2668 16.0248 11.0375L16.5248 8.07501L14.3748 5.96251C14.21 5.79978 14.0936 5.59445 14.0386 5.36942C13.9837 5.14439 13.9923 4.90851 14.0636 4.68812C14.1349 4.46772 14.2661 4.27147 14.4424 4.12127C14.6188 3.97108 14.8334 3.87283 15.0623 3.83751L17.9998 3.40001L19.3748 0.700011C19.4772 0.488672 19.637 0.310438 19.836 0.185728C20.0349 0.061017 20.265 -0.00512695 20.4998 -0.00512695C20.7346 -0.00512695 20.9647 0.061017 21.1637 0.185728C21.3626 0.310438 21.5225 0.488672 21.6248 0.700011L22.9998 3.40001L25.9873 3.83751C26.2163 3.87283 26.4309 3.97108 26.6072 4.12127C26.7836 4.27147 26.9147 4.46772 26.986 4.68812C27.0573 4.90851 27.066 5.14439 27.011 5.36942C26.9561 5.59445 26.8397 5.79978 26.6748 5.96251L24.4748 8.07501L24.9748 11.0375C25.0057 11.2164 24.9972 11.3999 24.95 11.5753C24.9027 11.7506 24.8179 11.9135 24.7013 12.0527C24.5847 12.1919 24.4392 12.304 24.2749 12.3812C24.1106 12.4585 23.9314 12.499 23.7498 12.5ZM22.0873 8.96251C21.7498 7.00001 21.7498 7.28751 23.0748 5.93751C21.1748 5.66251 21.3873 5.86251 20.4998 4.07501C19.6123 5.86251 19.8373 5.66251 17.9248 5.93751C19.2998 7.27501 19.2498 7.00001 18.9123 8.96251C20.6248 8.06251 20.3373 8.05001 22.0873 8.96251Z" fill="#05058C"/>
<path d="M11.2498 21.25C10.7873 21.25 10.6998 21.125 7.99982 19.7L5.33732 21.1C5.13636 21.203 4.91126 21.2496 4.68593 21.2349C4.46059 21.2203 4.24345 21.1448 4.05756 21.0166C3.87167 20.8884 3.72398 20.7122 3.63018 20.5068C3.53638 20.3014 3.49997 20.0744 3.52482 19.85L4.02482 16.8875L1.87482 14.7125C1.70996 14.5498 1.59356 14.3444 1.53861 14.1194C1.48366 13.8944 1.49232 13.6585 1.56362 13.4381C1.63493 13.2177 1.76607 13.0215 1.94242 12.8713C2.11877 12.7211 2.33338 12.6228 2.56232 12.5875L5.49982 12.15L6.87482 9.45001C6.97717 9.23867 7.13699 9.06044 7.33596 8.93573C7.53492 8.81102 7.765 8.74487 7.99982 8.74487C8.23464 8.74487 8.46471 8.81102 8.66368 8.93573C8.86265 9.06044 9.02246 9.23867 9.12482 9.45001L10.4998 12.15L13.4873 12.5875C13.7163 12.6228 13.9309 12.7211 14.1072 12.8713C14.2836 13.0215 14.4147 13.2177 14.486 13.4381C14.5573 13.6585 14.566 13.8944 14.511 14.1194C14.4561 14.3444 14.3397 14.5498 14.1748 14.7125L11.9748 16.825L12.4748 19.7875C12.5057 19.9664 12.4972 20.1499 12.45 20.3252C12.4027 20.5006 12.3179 20.6635 12.2013 20.8027C12.0847 20.9419 11.9392 21.054 11.7749 21.1312C11.6106 21.2085 11.4314 21.249 11.2498 21.25ZM9.58732 17.7125C9.24982 15.75 9.24982 16.0375 10.5748 14.6875C8.67482 14.4125 8.88732 14.6125 7.99982 12.825C7.11232 14.6125 7.33732 14.4125 5.42482 14.6875C6.79982 16.025 6.74982 15.75 6.41232 17.7125C8.12482 16.8125 7.83732 16.8 9.58732 17.7125Z" fill="#05058C"/>
<path d="M36.2503 21.25C35.7878 21.25 35.7003 21.125 33.0003 19.7L30.3378 21.1C30.1368 21.203 29.9117 21.2496 29.6864 21.2349C29.4611 21.2203 29.2439 21.1448 29.058 21.0166C28.8722 20.8884 28.7245 20.7122 28.6307 20.5068C28.5369 20.3014 28.5005 20.0744 28.5253 19.85L29.0253 16.8875L26.8753 14.7125C26.7104 14.5498 26.594 14.3444 26.5391 14.1194C26.4841 13.8944 26.4928 13.6585 26.5641 13.4381C26.6354 13.2177 26.7666 13.0215 26.9429 12.8713C27.1193 12.7211 27.3339 12.6228 27.5628 12.5875L30.5003 12.15L31.8753 9.45001C31.9777 9.23867 32.1375 9.06044 32.3364 8.93573C32.5354 8.81102 32.7655 8.74487 33.0003 8.74487C33.2351 8.74487 33.4652 8.81102 33.6642 8.93573C33.8631 9.06044 34.023 9.23867 34.1253 9.45001L35.5003 12.15L38.4878 12.5875C38.7167 12.6228 38.9314 12.7211 39.1077 12.8713C39.2841 13.0215 39.4152 13.2177 39.4865 13.4381C39.5578 13.6585 39.5665 13.8944 39.5115 14.1194C39.4566 14.3444 39.3402 14.5498 39.1753 14.7125L37.0253 16.825L37.5253 19.7875C37.557 19.9706 37.5475 20.1585 37.4974 20.3375C37.4473 20.5165 37.358 20.6821 37.2358 20.8222C37.1137 20.9623 36.9619 21.0734 36.7914 21.1474C36.6209 21.2214 36.4361 21.2565 36.2503 21.25ZM34.5878 17.7125C34.2503 15.75 34.1878 16.0375 35.5753 14.6875C33.6753 14.4125 33.8878 14.6125 33.0003 12.825C32.1128 14.6125 32.3378 14.4125 30.4253 14.6875C31.8003 16.025 31.7503 15.75 31.4128 17.7125C33.1253 16.8125 32.8378 16.8 34.5878 17.7125Z" fill="#05058C"/>
</g>
<defs>
<clipPath id="clip0_2486_3313">
<rect width="40" height="40" fill="white" transform="translate(0.5)"/>
</clipPath>
</defs>
</svg>
