<svg width="41" height="40" viewBox="0 0 41 40" fill="none" xmlns="http://www.w3.org/2000/svg">
<g clip-path="url(#clip0_2486_5672)">
<path d="M37.0498 28.8375C37.5191 28.0802 37.7776 27.2113 37.7984 26.3206C37.8193 25.43 37.6018 24.5499 37.1684 23.7715C36.7351 22.9931 36.1016 22.3446 35.3335 21.8931C34.5655 21.4417 33.6907 21.2036 32.7998 21.2036C31.9089 21.2036 31.0341 21.4417 30.2661 21.8931C29.498 22.3446 28.8646 22.9931 28.4312 23.7715C27.9978 24.5499 27.7803 25.43 27.8012 26.3206C27.822 27.2113 28.0805 28.0802 28.5498 28.8375C27.2841 29.7068 26.3189 30.947 25.7873 32.3875C25.4172 31.9856 24.9971 31.6327 24.5373 31.3375C25.0066 30.5802 25.2651 29.7113 25.2859 28.8206C25.3068 27.93 25.0893 27.0499 24.6559 26.2715C24.2226 25.4931 23.5891 24.8446 22.821 24.3931C22.053 23.9417 21.1782 23.7036 20.2873 23.7036C19.3964 23.7036 18.5216 23.9417 17.7536 24.3931C16.9855 24.8446 16.3521 25.4931 15.9187 26.2715C15.4853 27.0499 15.2678 27.93 15.2887 28.8206C15.3095 29.7113 15.568 30.5802 16.0373 31.3375C15.5847 31.6376 15.1656 31.9854 14.7873 32.375C14.2682 30.938 13.3106 29.7006 12.0498 28.8375C12.5191 28.0802 12.7776 27.2113 12.7984 26.3206C12.8193 25.43 12.6018 24.5499 12.1684 23.7715C11.7351 22.9931 11.1016 22.3446 10.3335 21.8931C9.56546 21.4417 8.69072 21.2036 7.7998 21.2036C6.90889 21.2036 6.03415 21.4417 5.26609 21.8931C4.49803 22.3446 3.86455 22.9931 3.43119 23.7715C2.99783 24.5499 2.78032 25.43 2.80117 26.3206C2.82203 27.2113 3.08048 28.0802 3.5498 28.8375C2.54996 29.5252 1.73189 30.4451 1.16582 31.5185C0.599747 32.5919 0.302574 33.7865 0.299805 35L0.299805 36.25C0.299805 36.5815 0.431501 36.8995 0.665921 37.1339C0.900342 37.3683 1.21828 37.5 1.5498 37.5H4.0498C4.38132 37.5 4.69927 37.3683 4.93369 37.1339C5.16811 36.8995 5.2998 36.5815 5.2998 36.25C5.2998 35.9185 5.16811 35.6006 4.93369 35.3661C4.69927 35.1317 4.38132 35 4.0498 35H2.7998C2.80082 34.1014 3.04399 33.2197 3.50372 32.4476C3.96346 31.6755 4.62277 31.0416 5.4123 30.6125C6.13752 31.0269 6.95831 31.2448 7.79355 31.2448C8.6288 31.2448 9.44959 31.0269 10.1748 30.6125C10.9738 31.0313 11.6417 31.6626 12.1049 32.4368C12.5681 33.2109 12.8086 34.0979 12.7998 35H9.0498C8.71828 35 8.40034 35.1317 8.16592 35.3661C7.9315 35.6006 7.7998 35.9185 7.7998 36.25C7.7998 36.5815 7.9315 36.8995 8.16592 37.1339C8.40034 37.3683 8.71828 37.5 9.0498 37.5H12.7998V38.75C12.7998 39.0815 12.9315 39.3995 13.1659 39.6339C13.4003 39.8683 13.7183 40 14.0498 40H26.5498C26.8813 40 27.1993 39.8683 27.4337 39.6339C27.6681 39.3995 27.7998 39.0815 27.7998 38.75V37.5H39.0498C39.3813 37.5 39.6993 37.3683 39.9337 37.1339C40.1681 36.8995 40.2998 36.5815 40.2998 36.25V35C40.3035 33.7854 40.0091 32.5883 39.4425 31.5139C38.8758 30.4395 38.0543 29.5205 37.0498 28.8375ZM5.2998 26.25C5.2998 25.7556 5.44643 25.2722 5.72113 24.8611C5.99583 24.45 6.38628 24.1295 6.8431 23.9403C7.29991 23.7511 7.80258 23.7016 8.28753 23.7981C8.77248 23.8945 9.21794 24.1326 9.56757 24.4823C9.9172 24.8319 10.1553 25.2773 10.2518 25.7623C10.3482 26.2473 10.2987 26.7499 10.1095 27.2067C9.92028 27.6636 9.59985 28.054 9.18873 28.3287C8.77761 28.6034 8.29426 28.75 7.7998 28.75C7.13676 28.75 6.50088 28.4866 6.03204 28.0178C5.5632 27.549 5.2998 26.9131 5.2998 26.25ZM20.2998 26.25C20.7943 26.25 21.2776 26.3966 21.6887 26.6714C22.0999 26.9461 22.4203 27.3365 22.6095 27.7933C22.7987 28.2501 22.8482 28.7528 22.7518 29.2378C22.6553 29.7227 22.4172 30.1682 22.0676 30.5178C21.7179 30.8674 21.2725 31.1055 20.7875 31.202C20.3026 31.2985 19.7999 31.2489 19.3431 31.0597C18.8863 30.8705 18.4958 30.5501 18.2211 30.139C17.9464 29.7278 17.7998 29.2445 17.7998 28.75C17.7998 28.087 18.0632 27.4511 18.532 26.9823C19.0009 26.5134 19.6368 26.25 20.2998 26.25ZM15.2998 37.5C15.3008 36.6014 15.544 35.7197 16.0037 34.9476C16.4635 34.1755 17.1228 33.5416 17.9123 33.1125C18.6375 33.5269 19.4583 33.7448 20.2936 33.7448C21.1288 33.7448 21.9496 33.5269 22.6748 33.1125C23.4738 33.5313 24.1417 34.1626 24.6049 34.9368C25.0681 35.7109 25.3086 36.5979 25.2998 37.5H15.2998ZM32.7998 23.75C33.2943 23.75 33.7776 23.8966 34.1887 24.1714C34.5998 24.4461 34.9203 24.8365 35.1095 25.2933C35.2987 25.7501 35.3482 26.2528 35.2518 26.7378C35.1553 27.2227 34.9172 27.6682 34.5676 28.0178C34.2179 28.3674 33.7725 28.6055 33.2875 28.702C32.8026 28.7985 32.2999 28.7489 31.8431 28.5597C31.3863 28.3705 30.9958 28.0501 30.7211 27.639C30.4464 27.2278 30.2998 26.7445 30.2998 26.25C30.2998 25.587 30.5632 24.9511 31.032 24.4823C31.5009 24.0134 32.1368 23.75 32.7998 23.75ZM27.7998 35C27.8008 34.1014 28.044 33.2197 28.5037 32.4476C28.9635 31.6755 29.6228 31.0416 30.4123 30.6125C31.1375 31.0269 31.9583 31.2448 32.7936 31.2448C33.6288 31.2448 34.4496 31.0269 35.1748 30.6125C35.9738 31.0313 36.6417 31.6626 37.1049 32.4368C37.5681 33.2109 37.8086 34.0979 37.7998 35H27.7998Z" fill="#000033"/>
<path d="M22.7996 20H17.7996C17.4681 20 17.1502 19.8683 16.9158 19.6339C16.6813 19.3995 16.5496 19.0815 16.5496 18.75C16.5669 18.5156 16.5177 18.281 16.4076 18.0733C16.2976 17.8656 16.1313 17.6931 15.9277 17.5756C15.724 17.4581 15.4914 17.4005 15.2565 17.4092C15.0216 17.4179 14.794 17.4927 14.5996 17.625C14.457 17.7076 14.2994 17.7613 14.1359 17.7827C13.9724 17.8042 13.8063 17.7931 13.6471 17.7502C13.488 17.7072 13.3389 17.6331 13.2084 17.5323C13.078 17.4314 12.9688 17.3057 12.8871 17.1625L10.3871 12.8375C10.3045 12.6948 10.2509 12.5372 10.2294 12.3738C10.2079 12.2103 10.219 12.0442 10.262 11.885C10.305 11.7258 10.379 11.5767 10.4799 11.4463C10.5807 11.3159 10.7064 11.2067 10.8496 11.125C11.061 11.0226 11.2392 10.8628 11.3639 10.6639C11.4886 10.4649 11.5548 10.2348 11.5548 10C11.5548 9.76518 11.4886 9.53511 11.3639 9.33614C11.2392 9.13717 11.061 8.97736 10.8496 8.875C10.7064 8.79334 10.5807 8.68414 10.4799 8.55371C10.379 8.42328 10.305 8.27418 10.262 8.115C10.219 7.95583 10.2079 7.78972 10.2294 7.62625C10.2509 7.46278 10.3045 7.30517 10.3871 7.1625L12.8871 2.8375C12.9688 2.69427 13.078 2.5686 13.2084 2.46775C13.3389 2.36689 13.488 2.29284 13.6471 2.24985C13.8063 2.20686 13.9724 2.19579 14.1359 2.21726C14.2994 2.23874 14.457 2.29235 14.5996 2.375C14.794 2.50727 15.0216 2.58207 15.2565 2.5908C15.4914 2.59954 15.724 2.54187 15.9277 2.4244C16.1313 2.30693 16.2976 2.13443 16.4076 1.9267C16.5177 1.71897 16.5669 1.48443 16.5496 1.25C16.5496 0.918479 16.6813 0.600537 16.9158 0.366117C17.1502 0.131696 17.4681 0 17.7996 0L22.7996 0C23.1312 0 23.4491 0.131696 23.6835 0.366117C23.9179 0.600537 24.0496 0.918479 24.0496 1.25C24.0324 1.48443 24.0816 1.71897 24.1916 1.9267C24.3016 2.13443 24.468 2.30693 24.6716 2.4244C24.8752 2.54187 25.1078 2.59954 25.3427 2.5908C25.5776 2.58207 25.8053 2.50727 25.9996 2.375C26.1423 2.29235 26.2999 2.23874 26.4634 2.21726C26.6269 2.19579 26.793 2.20686 26.9521 2.24985C27.1113 2.29284 27.2604 2.36689 27.3909 2.46775C27.5213 2.5686 27.6305 2.69427 27.7121 2.8375L30.2121 7.1625C30.2948 7.30517 30.3484 7.46278 30.3699 7.62625C30.3914 7.78972 30.3803 7.95583 30.3373 8.115C30.2943 8.27418 30.2202 8.42328 30.1194 8.55371C30.0185 8.68414 29.8929 8.79334 29.7496 8.875C29.5383 8.97736 29.3601 9.13717 29.2354 9.33614C29.1106 9.53511 29.0445 9.76518 29.0445 10C29.0445 10.2348 29.1106 10.4649 29.2354 10.6639C29.3601 10.8628 29.5383 11.0226 29.7496 11.125C29.8929 11.2067 30.0185 11.3159 30.1194 11.4463C30.2202 11.5767 30.2943 11.7258 30.3373 11.885C30.3803 12.0442 30.3914 12.2103 30.3699 12.3738C30.3484 12.5372 30.2948 12.6948 30.2121 12.8375L27.7121 17.1625C27.6305 17.3057 27.5213 17.4314 27.3909 17.5323C27.2604 17.6331 27.1113 17.7072 26.9521 17.7502C26.793 17.7931 26.6269 17.8042 26.4634 17.7827C26.2999 17.7613 26.1423 17.7076 25.9996 17.625C25.8053 17.4927 25.5776 17.4179 25.3427 17.4092C25.1078 17.4005 24.8752 17.4581 24.6716 17.5756C24.468 17.6931 24.3016 17.8656 24.1916 18.0733C24.0816 18.281 24.0324 18.5156 24.0496 18.75C24.0496 19.0815 23.9179 19.3995 23.6835 19.6339C23.4491 19.8683 23.1312 20 22.7996 20ZM18.8371 17.5H21.7621C22.0496 16.6299 22.6458 15.8951 23.438 15.4345C24.2302 14.9739 25.1637 14.8193 26.0621 15L27.5246 12.5C26.9097 11.8125 26.5697 10.9224 26.5697 10C26.5697 9.07758 26.9097 8.18753 27.5246 7.5L26.0621 5C25.1637 5.18067 24.2302 5.0261 23.438 4.5655C22.6458 4.1049 22.0496 3.37014 21.7621 2.5H18.8371C18.5497 3.37014 17.9535 4.1049 17.1613 4.5655C16.369 5.0261 15.4356 5.18067 14.5371 5L13.0746 7.5C13.6896 8.18753 14.0296 9.07758 14.0296 10C14.0296 10.9224 13.6896 11.8125 13.0746 12.5L14.5371 15C15.4356 14.8193 16.369 14.9739 17.1613 15.4345C17.9535 15.8951 18.5497 16.6299 18.8371 17.5Z" fill="#05058C"/>
<path d="M20.2998 13.75C19.5581 13.75 18.8331 13.5301 18.2164 13.118C17.5997 12.706 17.1191 12.1203 16.8353 11.4351C16.5514 10.7498 16.4772 9.99584 16.6219 9.26841C16.7666 8.54098 17.1237 7.8728 17.6482 7.34835C18.1726 6.8239 18.8408 6.46675 19.5682 6.32206C20.2956 6.17736 21.0496 6.25162 21.7349 6.53545C22.4201 6.81928 23.0058 7.29993 23.4178 7.91661C23.8299 8.5333 24.0498 9.25832 24.0498 10C24.0498 10.9946 23.6547 11.9484 22.9515 12.6517C22.2482 13.3549 21.2944 13.75 20.2998 13.75ZM20.2998 8.75C20.0526 8.75 19.8109 8.82331 19.6053 8.96066C19.3998 9.09802 19.2396 9.29324 19.145 9.52165C19.0503 9.75006 19.0256 10.0014 19.0738 10.2439C19.1221 10.4863 19.2411 10.7091 19.4159 10.8839C19.5907 11.0587 19.8135 11.1778 20.0559 11.226C20.2984 11.2742 20.5498 11.2495 20.7782 11.1549C21.0066 11.0602 21.2018 10.9 21.3391 10.6945C21.4765 10.4889 21.5498 10.2472 21.5498 10C21.5498 9.66848 21.4181 9.35054 21.1837 9.11612C20.9493 8.8817 20.6313 8.75 20.2998 8.75Z" fill="#05058C"/>
</g>
<defs>
<clipPath id="clip0_2486_5672">
<rect width="40" height="40" fill="white" transform="translate(0.299805)"/>
</clipPath>
</defs>
</svg>
