<svg width="40" height="41" viewBox="0 0 40 41" fill="none" xmlns="http://www.w3.org/2000/svg">
<circle cx="20" cy="20.5" r="20" fill="white"/>
<path d="M25 10.5V12.5H28.007C28.555 12.5 29 12.945 29 13.493V29.507C29 30.055 28.555 30.5 28.007 30.5H11.993C11.445 30.5 11 30.055 11 29.507V13.493C11 12.945 11.445 12.5 11.993 12.5H15V10.5H25ZM15 14.5H13V28.5H27V14.5H25V16.5H15V14.5ZM17 24.5V26.5H15V24.5H17ZM17 21.5V23.5H15V21.5H17ZM17 18.5V20.5H15V18.5H17ZM23 12.5H17V14.5H23V12.5Z" fill="#100FA8"/>
</svg>
