<svg width="40" height="41" viewBox="0 0 40 41" fill="none" xmlns="http://www.w3.org/2000/svg">
<circle cx="20" cy="20.5" r="20" fill="white"/>
<path d="M20 9.5L29.5 15V26L20 31.5L10.5 26V15L20 9.5ZM20 11.811L12.5 16.153V24.847L20 29.189L27.5 24.847V16.153L20 11.811ZM20 24.5C18.9391 24.5 17.9217 24.0786 17.1716 23.3284C16.4214 22.5783 16 21.5609 16 20.5C16 19.4391 16.4214 18.4217 17.1716 17.6716C17.9217 16.9214 18.9391 16.5 20 16.5C21.0609 16.5 22.0783 16.9214 22.8284 17.6716C23.5786 18.4217 24 19.4391 24 20.5C24 21.5609 23.5786 22.5783 22.8284 23.3284C22.0783 24.0786 21.0609 24.5 20 24.5ZM20 22.5C20.5304 22.5 21.0391 22.2893 21.4142 21.9142C21.7893 21.5391 22 21.0304 22 20.5C22 19.9696 21.7893 19.4609 21.4142 19.0858C21.0391 18.7107 20.5304 18.5 20 18.5C19.4696 18.5 18.9609 18.7107 18.5858 19.0858C18.2107 19.4609 18 19.9696 18 20.5C18 21.0304 18.2107 21.5391 18.5858 21.9142C18.9609 22.2893 19.4696 22.5 20 22.5Z" fill="#100FA8"/>
</svg>
