<svg width="24" height="25" viewBox="0 0 24 25" fill="none" xmlns="http://www.w3.org/2000/svg">
<circle cx="12" cy="12.1641" r="12" fill="#100FA8"/>
<path d="M14.9996 6.16406V7.36406H16.8038C17.1326 7.36406 17.3996 7.63106 17.3996 7.95986V17.5683C17.3996 17.8971 17.1326 18.1641 16.8038 18.1641H7.19541C6.86661 18.1641 6.59961 17.8971 6.59961 17.5683V7.95986C6.59961 7.63106 6.86661 7.36406 7.19541 7.36406H8.99961V6.16406H14.9996ZM8.99961 8.56406H7.79961V16.9641H16.1996V8.56406H14.9996V9.76406H8.99961V8.56406ZM10.1996 14.5641V15.7641H8.99961V14.5641H10.1996ZM10.1996 12.7641V13.9641H8.99961V12.7641H10.1996ZM10.1996 10.9641V12.1641H8.99961V10.9641H10.1996ZM13.7996 7.36406H10.1996V8.56406H13.7996V7.36406Z" fill="white"/>
</svg>
