<svg width="24" height="25" viewBox="0 0 24 25" fill="none" xmlns="http://www.w3.org/2000/svg">
<circle cx="12" cy="12.1641" r="12" fill="#100FA8"/>
<path d="M11.9998 5.5625L17.6998 8.8625V15.4625L11.9998 18.7625L6.2998 15.4625V8.8625L11.9998 5.5625ZM11.9998 6.9491L7.4998 9.5543V14.7707L11.9998 17.3759L16.4998 14.7707V9.5543L11.9998 6.9491ZM11.9998 14.5625C11.3633 14.5625 10.7528 14.3096 10.3027 13.8596C9.85266 13.4095 9.5998 12.799 9.5998 12.1625C9.5998 11.526 9.85266 10.9155 10.3027 10.4654C10.7528 10.0154 11.3633 9.7625 11.9998 9.7625C12.6363 9.7625 13.2468 10.0154 13.6969 10.4654C14.1469 10.9155 14.3998 11.526 14.3998 12.1625C14.3998 12.799 14.1469 13.4095 13.6969 13.8596C13.2468 14.3096 12.6363 14.5625 11.9998 14.5625ZM11.9998 13.3625C12.3181 13.3625 12.6233 13.2361 12.8483 13.011C13.0734 12.786 13.1998 12.4808 13.1998 12.1625C13.1998 11.8442 13.0734 11.539 12.8483 11.314C12.6233 11.0889 12.3181 10.9625 11.9998 10.9625C11.6815 10.9625 11.3763 11.0889 11.1513 11.314C10.9262 11.539 10.7998 11.8442 10.7998 12.1625C10.7998 12.4808 10.9262 12.786 11.1513 13.011C11.3763 13.2361 11.6815 13.3625 11.9998 13.3625Z" fill="white"/>
</svg>
