<svg width="40" height="41" viewBox="0 0 40 41" fill="none" xmlns="http://www.w3.org/2000/svg">
<circle cx="20" cy="20.5" r="20" fill="white"/>
<path d="M28 16.5V19.5C28 21.985 23.97 24 19 24C14.03 24 10 21.985 10 19.5V16.5C10 18.985 14.03 21 19 21C23.97 21 28 18.985 28 16.5ZM10 21.5C10 23.985 14.03 26 19 26C23.97 26 28 23.985 28 21.5V24.5C28 26.985 23.97 29 19 29C14.03 29 10 26.985 10 24.5V21.5ZM19 19C14.03 19 10 16.985 10 14.5C10 12.015 14.03 10 19 10C23.97 10 28 12.015 28 14.5C28 16.985 23.97 19 19 19Z" fill="#05058C"/>
</svg>
