<svg width="22" height="19" viewBox="0 0 22 19" fill="none" xmlns="http://www.w3.org/2000/svg">
<g filter="url(#filter0_d_725_1315)">
<path fill-rule="evenodd" clip-rule="evenodd" d="M4.64446 11.6467C4.25393 12.0372 4.25393 12.6703 4.64446 13.0609C5.03498 13.4514 5.66814 13.4514 6.05867 13.0609L10.8525 8.267L15.6467 13.0611C16.0372 13.4516 16.6703 13.4516 17.0609 13.0611C17.4514 12.6706 17.4514 12.0374 17.0609 11.6469L12.2668 6.85278L17.4124 1.70711C17.803 1.31658 17.803 0.683417 17.4124 0.292893C17.0219 -0.0976312 16.3887 -0.0976308 15.9982 0.292893L10.8525 5.43857L5.70711 0.293137C5.31658 -0.0973873 4.68342 -0.0973873 4.29289 0.293137C3.90237 0.683661 3.90237 1.31683 4.29289 1.70735L9.43833 6.85278L4.64446 11.6467Z" fill="#000033"/>
</g>
<defs>
<filter id="filter0_d_725_1315" x="0" y="0" width="21.7051" height="21.354" filterUnits="userSpaceOnUse" color-interpolation-filters="sRGB">
<feFlood flood-opacity="0" result="BackgroundImageFix"/>
<feColorMatrix in="SourceAlpha" type="matrix" values="0 0 0 0 0 0 0 0 0 0 0 0 0 0 0 0 0 0 127 0" result="hardAlpha"/>
<feOffset dy="4"/>
<feGaussianBlur stdDeviation="2"/>
<feComposite in2="hardAlpha" operator="out"/>
<feColorMatrix type="matrix" values="0 0 0 0 0 0 0 0 0 0 0 0 0 0 0 0 0 0 0.25 0"/>
<feBlend mode="normal" in2="BackgroundImageFix" result="effect1_dropShadow_725_1315"/>
<feBlend mode="normal" in="SourceGraphic" in2="effect1_dropShadow_725_1315" result="shape"/>
</filter>
</defs>
</svg>
