<svg width="33" height="32" viewBox="0 0 33 32" fill="none" xmlns="http://www.w3.org/2000/svg">
<g clip-path="url(#clip0_2252_5565)">
<rect width="32" height="32" transform="translate(0.5)" fill="white"/>
<path d="M29.5 6.00391H21.5C21.2348 6.00391 20.9804 6.10926 20.7929 6.2968C20.6054 6.48434 20.5 6.73869 20.5 7.00391V15.0039C20.5 15.2691 20.6054 15.5235 20.7929 15.711C20.9804 15.8986 21.2348 16.0039 21.5 16.0039H29.5C29.7652 16.0039 30.0196 15.8986 30.2071 15.711C30.3946 15.5235 30.5 15.2691 30.5 15.0039V7.00391C30.5 6.73869 30.3946 6.48434 30.2071 6.2968C30.0196 6.10926 29.7652 6.00391 29.5 6.00391ZM22.5 8.00391H24.5V14.0039H22.5V8.00391ZM28.5 14.0039H26.5V8.00391H28.5V14.0039Z" fill="#05058C"/>
<path d="M31.5 14H14.28L13.78 12H16.5C17.0304 12 17.5391 11.7893 17.9142 11.4142C18.2893 11.0391 18.5 10.5304 18.5 10V2C18.5 1.46957 18.2893 0.960859 17.9142 0.585786C17.5391 0.210714 17.0304 0 16.5 0L4.5 0C3.96957 0 3.46086 0.210714 3.08579 0.585786C2.71071 0.960859 2.5 1.46957 2.5 2V10C2.5 10.5304 2.71071 11.0391 3.08579 11.4142C3.46086 11.7893 3.96957 12 4.5 12H7.22L6.72 14H1.5C1.23478 14 0.98043 14.1054 0.792893 14.2929C0.605357 14.4804 0.5 14.7348 0.5 15L0.5 31C0.5 31.2652 0.605357 31.5196 0.792893 31.7071C0.98043 31.8946 1.23478 32 1.5 32C1.76522 32 2.01957 31.8946 2.20711 31.7071C2.39464 31.5196 2.5 31.2652 2.5 31V20H3.5C3.76522 20 4.01957 19.8946 4.20711 19.7071C4.39464 19.5196 4.5 19.2652 4.5 19C4.5 18.7348 4.39464 18.4804 4.20711 18.2929C4.01957 18.1054 3.76522 18 3.5 18H2.5V16H30.5V18H7.5C7.23478 18 6.98043 18.1054 6.79289 18.2929C6.60536 18.4804 6.5 18.7348 6.5 19C6.5 19.2652 6.60536 19.5196 6.79289 19.7071C6.98043 19.8946 7.23478 20 7.5 20H18.5V31C18.5 31.2652 18.6054 31.5196 18.7929 31.7071C18.9804 31.8946 19.2348 32 19.5 32H31.5C31.7652 32 32.0196 31.8946 32.2071 31.7071C32.3946 31.5196 32.5 31.2652 32.5 31V15C32.5 14.7348 32.3946 14.4804 32.2071 14.2929C32.0196 14.1054 31.7652 14 31.5 14ZM4.5 2H16.5V10H4.5V2ZM8.78 14L9.28 12H11.72L12.22 14H8.78ZM30.5 20V24H20.5V20H30.5ZM30.5 30H20.5V26H30.5V30Z" fill="#000033"/>
</g>
<defs>
<clipPath id="clip0_2252_5565">
<rect width="32" height="32" fill="white" transform="translate(0.5)"/>
</clipPath>
</defs>
</svg>
