<svg width="33" height="32" viewBox="0 0 33 32" fill="none" xmlns="http://www.w3.org/2000/svg">
<g clip-path="url(#clip0_2252_5559)">
<rect width="32" height="32" transform="translate(0.5)" fill="white"/>
<path d="M31.5 22.9961H4.5V5.99609C4.5 5.73088 4.60536 5.47652 4.79289 5.28899C4.98043 5.10145 5.23478 4.99609 5.5 4.99609H27.5C27.7652 4.99609 28.0196 5.10145 28.2071 5.28899C28.3946 5.47652 28.5 5.73088 28.5 5.99609V19.9961C28.5 20.2613 28.6054 20.5157 28.7929 20.7032C28.9804 20.8907 29.2348 20.9961 29.5 20.9961C29.7652 20.9961 30.0196 20.8907 30.2071 20.7032C30.3946 20.5157 30.5 20.2613 30.5 19.9961V5.99609C30.5 5.20044 30.1839 4.43738 29.6213 3.87477C29.0587 3.31216 28.2956 2.99609 27.5 2.99609H5.5C4.70435 2.99609 3.94129 3.31216 3.37868 3.87477C2.81607 4.43738 2.5 5.20044 2.5 5.99609V22.9961H1.5C1.23478 22.9961 0.98043 23.1014 0.792893 23.289C0.605357 23.4765 0.5 23.7309 0.5 23.9961L0.5 25.9961C0.5 26.7917 0.81607 27.5548 1.37868 28.1174C1.94129 28.68 2.70435 28.9961 3.5 28.9961H29.5C30.2956 28.9961 31.0587 28.68 31.6213 28.1174C32.1839 27.5548 32.5 26.7917 32.5 25.9961V23.9961C32.5 23.7309 32.3946 23.4765 32.2071 23.289C32.0196 23.1014 31.7652 22.9961 31.5 22.9961ZM30.5 25.9961C30.5 26.2613 30.3946 26.5157 30.2071 26.7032C30.0196 26.8907 29.7652 26.9961 29.5 26.9961H3.5C3.23478 26.9961 2.98043 26.8907 2.79289 26.7032C2.60536 26.5157 2.5 26.2613 2.5 25.9961V24.9961H30.5V25.9961Z" fill="#000033"/>
<path d="M24.851 11.0565L16.851 8.05646C16.361 7.87646 16.791 7.81646 8.15101 11.0565C7.95796 11.1265 7.79117 11.2543 7.67329 11.4225C7.55542 11.5907 7.49219 11.7911 7.49219 11.9965C7.49219 12.2018 7.55542 12.4022 7.67329 12.5704C7.79117 12.7386 7.95796 12.8664 8.15101 12.9365L10.501 13.8165V16.9965C10.5008 17.1967 10.5608 17.3925 10.6731 17.5583C10.7854 17.7241 10.9449 17.8524 11.131 17.9265C16.591 20.1065 16.231 19.9965 16.501 19.9965C16.771 19.9965 16.431 20.0965 21.871 17.9265C22.0571 17.8524 22.2166 17.7241 22.3289 17.5583C22.4413 17.3925 22.5012 17.1967 22.501 16.9965V13.8165L24.851 12.9365C25.0441 12.8664 25.2109 12.7386 25.3287 12.5704C25.4466 12.4022 25.5098 12.2018 25.5098 11.9965C25.5098 11.7911 25.4466 11.5907 25.3287 11.4225C25.2109 11.2543 25.0441 11.1265 24.851 11.0565ZM16.501 10.0565L21.651 11.9965L16.501 13.9265L11.351 11.9965L16.501 10.0565ZM20.501 16.3065L16.501 17.9065L12.501 16.3065V14.5665C16.631 16.1165 16.301 15.9965 16.501 15.9965C16.701 15.9965 16.361 16.1265 20.501 14.5665V16.3065Z" fill="#05058C"/>
</g>
<defs>
<clipPath id="clip0_2252_5559">
<rect width="32" height="32" fill="white" transform="translate(0.5)"/>
</clipPath>
</defs>
</svg>
