<svg width="33" height="32" viewBox="0 0 33 32" fill="none" xmlns="http://www.w3.org/2000/svg">
<g clip-path="url(#clip0_2252_5571)">
<rect width="32" height="32" transform="translate(0.5)" fill="white"/>
<path d="M32.05 16.17L30.42 15.08C29.8431 14.6935 29.1499 14.5191 28.4588 14.5866C27.7676 14.654 27.1213 14.9592 26.63 15.45L22.5 19.62C22.407 18.8919 22.0504 18.2231 21.4975 17.7403C20.9447 17.2575 20.234 16.9941 19.5 17C18.6428 17.1122 17.7727 16.9325 17.03 16.49C15.4511 15.4375 13.5763 14.9191 11.681 15.0109C9.7857 15.1027 7.96978 15.7998 6.5 17V15C6.5 14.7348 6.39464 14.4804 6.20711 14.2929C6.01957 14.1054 5.76522 14 5.5 14H1.5C1.23478 14 0.98043 14.1054 0.792893 14.2929C0.605357 14.4804 0.5 14.7348 0.5 15L0.5 31C0.5 31.2652 0.605357 31.5196 0.792893 31.7071C0.98043 31.8946 1.23478 32 1.5 32H5.5C5.76522 32 6.01957 31.8946 6.20711 31.7071C6.39464 31.5196 6.5 31.2652 6.5 31V19.5L8 18.37C9.14435 17.5353 10.515 17.0675 11.9308 17.0282C13.3467 16.9889 14.7411 17.3801 15.93 18.15C16.9917 18.8241 18.2485 19.1233 19.5 19C19.7652 19 20.0196 19.1054 20.2071 19.2929C20.3946 19.4804 20.5 19.7348 20.5 20V21H13.5C13.2348 21 12.9804 21.1054 12.7929 21.2929C12.6054 21.4804 12.5 21.7348 12.5 22C12.5 22.2652 12.6054 22.5196 12.7929 22.7071C12.9804 22.8946 13.2348 23 13.5 23H21.5C21.7648 22.9963 22.0184 22.8927 22.21 22.71L28.05 16.87C28.2127 16.7062 28.4271 16.6038 28.6568 16.5801C28.8865 16.5564 29.1173 16.6129 29.31 16.74L30.07 17.25L22.3 27.6C22.2069 27.7242 22.0861 27.825 21.9472 27.8944C21.8084 27.9639 21.6552 28 21.5 28H9.5C9.23478 28 8.98043 28.1054 8.79289 28.2929C8.60536 28.4804 8.5 28.7348 8.5 29C8.5 29.2652 8.60536 29.5196 8.79289 29.7071C8.98043 29.8946 9.23478 30 9.5 30H21.5C21.9657 30 22.4251 29.8916 22.8416 29.6833C23.2582 29.475 23.6206 29.1726 23.9 28.8L32.3 17.6C32.381 17.491 32.439 17.3666 32.4704 17.2344C32.5018 17.1022 32.5059 16.9651 32.4825 16.8312C32.4591 16.6974 32.4087 16.5698 32.3343 16.4561C32.26 16.3424 32.1632 16.2451 32.05 16.17ZM4.5 30H2.5V16H4.5V30Z" fill="#000033"/>
<path d="M23.5 14H19.5C19.2348 14 18.9804 13.8946 18.7929 13.7071C18.6054 13.5196 18.5 13.2652 18.5 13V10H15.5C15.2348 10 14.9804 9.89464 14.7929 9.70711C14.6054 9.51957 14.5 9.26522 14.5 9V5C14.5 4.73478 14.6054 4.48043 14.7929 4.29289C14.9804 4.10536 15.2348 4 15.5 4H18.5V1C18.5 0.734784 18.6054 0.48043 18.7929 0.292893C18.9804 0.105357 19.2348 0 19.5 0L23.5 0C23.7652 0 24.0196 0.105357 24.2071 0.292893C24.3946 0.48043 24.5 0.734784 24.5 1V4H27.5C27.7652 4 28.0196 4.10536 28.2071 4.29289C28.3946 4.48043 28.5 4.73478 28.5 5V9C28.5 9.26522 28.3946 9.51957 28.2071 9.70711C28.0196 9.89464 27.7652 10 27.5 10H24.5V13C24.5 13.2652 24.3946 13.5196 24.2071 13.7071C24.0196 13.8946 23.7652 14 23.5 14ZM20.5 12H22.5V9C22.5 8.73478 22.6054 8.48043 22.7929 8.29289C22.9804 8.10536 23.2348 8 23.5 8H26.5V6H23.5C23.2348 6 22.9804 5.89464 22.7929 5.70711C22.6054 5.51957 22.5 5.26522 22.5 5V2H20.5V5C20.5 5.26522 20.3946 5.51957 20.2071 5.70711C20.0196 5.89464 19.7652 6 19.5 6H16.5V8H19.5C19.7652 8 20.0196 8.10536 20.2071 8.29289C20.3946 8.48043 20.5 8.73478 20.5 9V12Z" fill="#05058C"/>
</g>
<defs>
<clipPath id="clip0_2252_5571">
<rect width="32" height="32" fill="white" transform="translate(0.5)"/>
</clipPath>
</defs>
</svg>
