<svg width="33" height="32" viewBox="0 0 33 32" fill="none" xmlns="http://www.w3.org/2000/svg">
<g clip-path="url(#clip0_2252_5577)">
<rect width="32" height="32" transform="translate(0.5)" fill="white"/>
<path d="M16.5 11H12.5C11.1739 11 9.90215 10.4732 8.96447 9.53553C8.02678 8.59785 7.5 7.32608 7.5 6V4C7.5 3.73478 7.60536 3.48043 7.79289 3.29289C7.98043 3.10536 8.23478 3 8.5 3H12.5C13.8261 3 15.0979 3.52678 16.0355 4.46447C16.9732 5.40215 17.5 6.67392 17.5 8V10C17.5 10.2652 17.3946 10.5196 17.2071 10.7071C17.0196 10.8946 16.7652 11 16.5 11ZM9.5 5V6C9.5 6.79565 9.81607 7.55871 10.3787 8.12132C10.9413 8.68393 11.7044 9 12.5 9H15.5V8C15.5 7.20435 15.1839 6.44129 14.6213 5.87868C14.0587 5.31607 13.2957 5 12.5 5H9.5Z" fill="#05058C"/>
<path d="M20.5 14.0039H16.5C16.2348 14.0039 15.9804 13.8985 15.7929 13.711C15.6054 13.5235 15.5 13.2691 15.5 13.0039V11.0039C15.5 9.67782 16.0268 8.40605 16.9645 7.46837C17.9021 6.53069 19.1739 6.00391 20.5 6.00391H24.5C24.7652 6.00391 25.0196 6.10926 25.2071 6.2968C25.3946 6.48434 25.5 6.73869 25.5 7.00391V9.00391C25.5 9.66052 25.3707 10.3107 25.1194 10.9173C24.8681 11.524 24.4998 12.0751 24.0355 12.5394C23.5712 13.0037 23.02 13.372 22.4134 13.6233C21.8068 13.8746 21.1566 14.0039 20.5 14.0039ZM17.5 12.0039H20.5C21.2956 12.0039 22.0587 11.6878 22.6213 11.1252C23.1839 10.5626 23.5 9.79956 23.5 9.00391V8.00391H20.5C19.7044 8.00391 18.9413 8.31998 18.3787 8.88259C17.8161 9.44519 17.5 10.2083 17.5 11.0039V12.0039Z" fill="#05058C"/>
<path d="M29.5 16H17.5V1C17.5 0.734784 17.3946 0.48043 17.2071 0.292893C17.0196 0.105357 16.7652 0 16.5 0C16.2348 0 15.9804 0.105357 15.7929 0.292893C15.6054 0.48043 15.5 0.734784 15.5 1V16H3.5C2.70435 16 1.94129 16.3161 1.37868 16.8787C0.81607 17.4413 0.5 18.2044 0.5 19L0.5 29C0.5 29.7956 0.81607 30.5587 1.37868 31.1213C1.94129 31.6839 2.70435 32 3.5 32H5.5C5.76522 32 6.01957 31.8946 6.20711 31.7071C6.39464 31.5196 6.5 31.2652 6.5 31C6.5 30.7348 6.39464 30.4804 6.20711 30.2929C6.01957 30.1054 5.76522 30 5.5 30H3.5C3.23478 30 2.98043 29.8946 2.79289 29.7071C2.60536 29.5196 2.5 29.2652 2.5 29V19C2.5 18.7348 2.60536 18.4804 2.79289 18.2929C2.98043 18.1054 3.23478 18 3.5 18H15.5V20.59L13.09 23H11.5C11.2348 23 10.9804 23.1054 10.7929 23.2929C10.6054 23.4804 10.5 23.7348 10.5 24C10.5 24.2652 10.6054 24.5196 10.7929 24.7071C10.9804 24.8946 11.2348 25 11.5 25H12.5V27C12.5 27.2652 12.6054 27.5196 12.7929 27.7071C12.9804 27.8946 13.2348 28 13.5 28C13.7652 28 14.0196 27.8946 14.2071 27.7071C14.3946 27.5196 14.5 27.2652 14.5 27V24.41L16.81 22.11L19.5 22.78V26C19.5 26.2652 19.6054 26.5196 19.7929 26.7071C19.9804 26.8946 20.2348 27 20.5 27C20.7652 27 21.0196 26.8946 21.2071 26.7071C21.3946 26.5196 21.5 26.2652 21.5 26V25H23.5C23.7652 25 24.0196 24.8946 24.2071 24.7071C24.3946 24.5196 24.5 24.2652 24.5 24C24.5 23.7348 24.3946 23.4804 24.2071 23.2929C24.0196 23.1054 23.7652 23 23.5 23H21.5V22C21.5067 21.7716 21.4349 21.5477 21.2966 21.3658C21.1583 21.1838 20.9619 21.0548 20.74 21L17.5 20.22V18H29.5C29.7652 18 30.0196 18.1054 30.2071 18.2929C30.3946 18.4804 30.5 18.7348 30.5 19V29C30.5 29.2652 30.3946 29.5196 30.2071 29.7071C30.0196 29.8946 29.7652 30 29.5 30H9.5C9.23478 30 8.98043 30.1054 8.79289 30.2929C8.60536 30.4804 8.5 30.7348 8.5 31C8.5 31.2652 8.60536 31.5196 8.79289 31.7071C8.98043 31.8946 9.23478 32 9.5 32H29.5C30.2956 32 31.0587 31.6839 31.6213 31.1213C32.1839 30.5587 32.5 29.7956 32.5 29V19C32.5 18.2044 32.1839 17.4413 31.6213 16.8787C31.0587 16.3161 30.2956 16 29.5 16Z" fill="#000033"/>
</g>
<defs>
<clipPath id="clip0_2252_5577">
<rect width="32" height="32" fill="white" transform="translate(0.5)"/>
</clipPath>
</defs>
</svg>
